<?xml version="1.0" encoding="UTF-8" standalone="no"?>
<svg
   width="1000"
   height="600"
   viewBox="0 0 153.33333 92"
   version="1.1"
   id="svg5"
   sodipodi:docname="ag.svg"
   inkscape:version="1.3.2 (091e20e, 2023-11-25, custom)"
   xmlns:inkscape="http://www.inkscape.org/namespaces/inkscape"
   xmlns:sodipodi="http://sodipodi.sourceforge.net/DTD/sodipodi-0.dtd"
   xmlns="http://www.w3.org/2000/svg"
   xmlns:svg="http://www.w3.org/2000/svg">
  <defs
     id="defs5" />
  <sodipodi:namedview
     id="namedview5"
     pagecolor="#505050"
     bordercolor="#eeeeee"
     borderopacity="1"
     inkscape:showpageshadow="0"
     inkscape:pageopacity="0"
     inkscape:pagecheckerboard="0"
     inkscape:deskcolor="#505050"
     inkscape:zoom="1.0175"
     inkscape:cx="587.71499"
     inkscape:cy="370.02457"
     inkscape:window-width="2560"
     inkscape:window-height="1417"
     inkscape:window-x="3832"
     inkscape:window-y="313"
     inkscape:window-maximized="1"
     inkscape:current-layer="svg5" />
  <path
     fill="#ffffff"
     d="M 0,0 H 153.33333 V 92 H 0 Z"
     id="path1"
     style="stroke-width:1.05409" />
  <path
     d="m 0,0 h 153.33333 l -10,46 H 10 Z"
     id="path2"
     style="stroke-width:1.05409" />
  <path
     fill="#fcd116"
     d="M 76.666667,46 43.333333,36 60.32,33.074 45.871111,24.519 l 16.937778,3.147 -9.712222,-12.879 14.31,8.741 L 63.91,8.284 73.415556,21.288 76.666667,6 79.917778,21.288 89.423333,8.284 85.926667,23.528 100.23667,14.787 90.524444,27.666 107.46222,24.519 93.013333,33.074 110,36 Z"
     id="path3"
     style="stroke-width:1.05409" />
  <path
     fill="#0072c6"
     d="M 10,36 H 143.33333 V 56 H 10 Z"
     id="path4"
     style="stroke-width:1.05409" />
  <path
     fill="#ce1126"
     d="M 0,0 76.666667,92 153.33333,0 V 92 H 0 Z"
     id="path5"
     style="stroke-width:1.05409" />
</svg>
