<?xml version="1.0" encoding="UTF-8" standalone="no"?>
<svg
   height="600"
   width="1000"
   version="1.1"
   id="svg13"
   sodipodi:docname="ai.svg"
   inkscape:version="1.3.2 (091e20e, 2023-11-25, custom)"
   xmlns:inkscape="http://www.inkscape.org/namespaces/inkscape"
   xmlns:sodipodi="http://sodipodi.sourceforge.net/DTD/sodipodi-0.dtd"
   xmlns="http://www.w3.org/2000/svg"
   xmlns:svg="http://www.w3.org/2000/svg">
  <defs
     id="defs13">
    <clipPath
       id="b">
      <path
         d="M 0,0 V 1.5 H 6 V 3 Z M 6,0 H 3 V 3 H 0 Z"
         id="path2-9" />
    </clipPath>
    <clipPath
       id="a-3">
      <path
         d="M 0,0 H 6 V 3 H 0 Z"
         id="path1-3" />
    </clipPath>
  </defs>
  <sodipodi:namedview
     id="namedview13"
     pagecolor="#505050"
     bordercolor="#eeeeee"
     borderopacity="1"
     inkscape:showpageshadow="0"
     inkscape:pageopacity="0"
     inkscape:pagecheckerboard="0"
     inkscape:deskcolor="#505050"
     inkscape:zoom="0.59102342"
     inkscape:cx="993.19246"
     inkscape:cy="662.4103"
     inkscape:window-width="2560"
     inkscape:window-height="1417"
     inkscape:window-x="3832"
     inkscape:window-y="313"
     inkscape:window-maximized="1"
     inkscape:current-layer="svg13" />
  <clipPath
     id="a">
    <path
       d="M 0,0 V 150 H 700 V 300 H 600 Z M 600,0 H 300 V 350 H 0 v -50 z"
       id="path1" />
  </clipPath>
  <path
     d="M 0,0 H 1000 V 600 H 0 Z"
     fill="#012169"
     id="path2"
     style="stroke-width:0.912871" />
  <path
     d="M 0,0 6,3 M 6,0 0,3"
     stroke="#ffffff"
     stroke-width="0.6"
     clip-path="url(#a-3)"
     transform="scale(83.333335,100)"
     id="path4" />
  <path
     d="M 0,0 6,3 M 6,0 0,3"
     stroke="#e4002b"
     stroke-width="0.4"
     clip-path="url(#b)"
     transform="scale(83.333335,100)"
     id="path5" />
  <path
     d="M 250.00001,0 V 300.00001 M 0,150 h 500.00001"
     stroke="#ffffff"
     stroke-width="97.373"
     id="path6" />
  <path
     d="M 250.00001,0 V 300.00001 M 0,150 h 500.00001"
     stroke="#e4002b"
     stroke-width="54.7723"
     id="path7" />
  <path
     d="m 634.8,156 c 0,151.011 17.51,203.045 52.565,238.1 20.905,20.753 30.174,28.562 62.635,49.9 32.461,-21.337 41.729,-29.146 62.636,-49.9 C 847.689,359.045 865.2,307.011 865.2,156 839.703,166.917 825.174,172.209 804.149,171.885 785.34,171.595 765.412,162.861 750,156 734.588,162.86 714.66,171.595 695.852,171.885 674.826,172.209 660.297,166.917 634.8,156 Z"
     fill="#ffffff"
     id="path8" />
  <g
     transform="matrix(3.50845,0,0,3.34488,-197.153,-59.398)"
     id="g9">
    <path
       d="m 271,87 c 1.543,3.63 6.49,7.637 7.85,9.601 -1.731,1.964 -2.077,1.75 -1.85,5.399 3.01,-3.15 3.064,-3.478 5,-3 4.241,4.232 0.759,13.321 -2.746,15.297 -3.504,2.108 -2.868,-0.073 -8.12,2.569 2.408,2.059 5.198,-0.302 7.478,0.329 1.239,1.47 -0.589,4.149 0.374,6.672 2.015,-0.194 1.773,-4.262 2.242,-5.737 1.472,-5.404 10.322,-9.173 10.772,-14.13 1.866,-0.876 3.731,-0.274 6,1 -1.13,-4.644 -4.868,-4.594 -5.87,-6.044 -2.385,-3.645 -4.499,-7.803 -9.593,-8.881 -3.867,-0.82 -3.578,0.246 -6.056,-1.444 C 274.938,87.429 270.25,85.157 271,87 Z"
       fill="#ff9900"
       id="path9" />
    <circle
       cx="281.31699"
       cy="91.127998"
       fill="#ffffff"
       fill-rule="evenodd"
       r="0.80599999"
       id="circle9" />
  </g>
  <g
     transform="matrix(-1.639,-2.95744,3.10207,-1.56258,884.545,1220.517)"
     id="g10">
    <path
       d="m 271,87 c 1.543,3.63 6.49,7.637 7.85,9.601 -1.731,1.964 -2.077,1.75 -1.85,5.399 3.01,-3.15 3.064,-3.478 5,-3 4.241,4.232 0.759,13.321 -2.746,15.297 -3.504,2.108 -2.868,-0.073 -8.12,2.569 2.408,2.059 5.198,-0.302 7.478,0.329 1.239,1.47 -0.589,4.149 0.374,6.672 2.015,-0.194 1.773,-4.262 2.242,-5.737 1.472,-5.404 10.322,-9.173 10.772,-14.13 1.866,-0.876 3.731,-0.274 6,1 -1.13,-4.644 -4.868,-4.594 -5.87,-6.044 -2.385,-3.645 -4.499,-7.803 -9.593,-8.881 -3.867,-0.82 -3.578,0.246 -6.056,-1.444 C 274.938,87.429 270.25,85.157 271,87 Z"
       fill="#ff9900"
       id="path10" />
    <circle
       cx="281.31699"
       cy="91.127998"
       fill="#ffffff"
       fill-rule="evenodd"
       r="0.80599999"
       id="circle10" />
  </g>
  <g
     transform="matrix(-1.80698,2.86712,-3.00733,-1.72273,1532.51,-336.808)"
     id="g11">
    <path
       d="m 271,87 c 1.543,3.63 6.49,7.637 7.85,9.601 -1.731,1.964 -2.077,1.75 -1.85,5.399 3.01,-3.15 3.064,-3.478 5,-3 4.241,4.232 0.759,13.321 -2.746,15.297 -3.504,2.108 -2.868,-0.073 -8.12,2.569 2.408,2.059 5.198,-0.302 7.478,0.329 1.239,1.47 -0.589,4.149 0.374,6.672 2.015,-0.194 1.773,-4.262 2.242,-5.737 1.472,-5.404 10.322,-9.173 10.772,-14.13 1.866,-0.876 3.731,-0.274 6,1 -1.13,-4.644 -4.868,-4.594 -5.87,-6.044 -2.385,-3.645 -4.499,-7.803 -9.593,-8.881 -3.867,-0.82 -3.578,0.246 -6.056,-1.444 C 274.938,87.429 270.25,85.157 271,87 Z"
       fill="#ff9900"
       id="path11" />
    <circle
       cx="281.31699"
       cy="91.127998"
       fill="#ffffff"
       fill-rule="evenodd"
       r="0.80599999"
       id="circle11" />
  </g>
  <path
     d="m 663.698,362.055 c 6.72,12.755 14.602,22.979 23.668,32.044 20.906,20.755 30.173,28.564 62.634,49.901 32.461,-21.337 41.73,-29.146 62.637,-49.9 9.065,-9.066 16.945,-19.29 23.665,-32.045 z"
     fill="#99ccff"
     id="path12" />
  <path
     d="m 630,150 c 0,157.303 18.24,211.506 54.755,248.02 21.777,21.62 31.431,29.754 65.245,51.98 33.814,-22.226 43.468,-30.36 65.245,-51.98 C 851.76,361.506 870,307.303 870,150 843.441,161.371 828.306,166.884 806.405,166.547 786.813,166.245 766.054,157.147 750,150 733.946,157.146 713.187,166.245 693.595,166.547 671.694,166.884 656.559,161.371 630,150 Z m 7.2,8.4 c 24.965,10.735 39.192,15.94 59.78,15.621 18.416,-0.285 37.93,-8.875 53.02,-15.621 15.09,6.746 34.604,15.337 53.02,15.621 20.588,0.318 34.815,-4.886 59.78,-15.621 0,148.494 -17.145,199.662 -51.469,234.131 C 790.861,412.94 781.785,420.62 750,441.6 718.215,420.619 709.14,412.94 688.669,392.531 654.345,358.061 637.2,306.894 637.2,158.4 Z"
     fill="#fdc301"
     id="path13" />
</svg>
