<?xml version="1.0" encoding="UTF-8" standalone="no"?>
<svg
   width="1000"
   height="600"
   version="1.1"
   id="svg3"
   sodipodi:docname="al.svg"
   inkscape:version="1.3.2 (091e20e, 2023-11-25, custom)"
   xmlns:inkscape="http://www.inkscape.org/namespaces/inkscape"
   xmlns:sodipodi="http://sodipodi.sourceforge.net/DTD/sodipodi-0.dtd"
   xmlns="http://www.w3.org/2000/svg"
   xmlns:svg="http://www.w3.org/2000/svg">
  <defs
     id="defs3" />
  <sodipodi:namedview
     id="namedview3"
     pagecolor="#505050"
     bordercolor="#eeeeee"
     borderopacity="1"
     inkscape:showpageshadow="0"
     inkscape:pageopacity="0"
     inkscape:pagecheckerboard="0"
     inkscape:deskcolor="#505050"
     inkscape:zoom="0.6105"
     inkscape:cx="-285.01228"
     inkscape:cy="510.23751"
     inkscape:window-width="2560"
     inkscape:window-height="1417"
     inkscape:window-x="3832"
     inkscape:window-y="313"
     inkscape:window-maximized="1"
     inkscape:current-layer="svg3" />
  <path
     fill="#ff0000"
     d="M 0,0 H 1000 V 600 H 0 Z"
     id="path1"
     style="stroke-width:1.3093" />
  <path
     d="m 428.70571,81.71986 c -6.94571,-0.11715 -18.47142,2.21428 -18.21428,7.54571 -19.34572,-3.31571 -21.36,4.67429 -20.22286,11.78572 1.84,-2.82286 4.08143,-4.35429 5.80286,-4.64286 2.58,-0.42857 5.28,0.40428 8.03571,2.09714 2.75715,1.69429 5.79429,4.42572 7.14286,6.11572 -6.82857,1.63285 -12.10143,0.57857 -17.45429,-0.35715 -2.64,-0.46143 -6.33285,-1.94571 -8.52857,-3.48143 -2.19428,-1.53714 -2.88571,-2.98285 -6.33857,-6.51857 -4.07143,-4.16857 -8.40286,-2.99428 -7.05286,3.48286 3.12143,6.01429 8.33715,8.69714 14.91,9.77714 3.16286,0.51857 7.87429,1.64572 13.21429,1.65143 5.34,0.006 11.33714,-0.77143 14.6,-0.09 -1.96143,1.23143 -4.17857,3.35286 -8.57143,4.19714 -4.47,0.85858 -11.26286,-2.65714 -15.40286,-3.61571 0.52572,3.48286 4.92,6.74 13.57143,8.43714 14.21572,3.09572 26.02857,5.44857 33.83857,9.68715 7.81,4.24 12.73429,9.54714 16.25,13.70571 6.99858,8.27571 7.36715,14.62857 7.81429,16.02571 1.43857,13.22286 -3.17143,20.66143 -11.74286,22.94715 -4.28571,1.14285 -11.89571,-1.00857 -14.68571,-4.28572 -2.79143,-3.27571 -5.50714,-8.90571 -4.73286,-17.72285 0.75143,-3.45858 4.70714,-12.46858 1.33857,-14.33 -15.51571,-8.57715 -34.35857,-17.25 -47.99143,-22.41143 -3.72571,-1.41 -6.79428,3.65428 -7.99,5.62571 -23.15857,-2.82 -44.03857,-18.49143 -53.43857,-35.17857 -6.4,-11.36571 -16.95143,0.0229 -15.17857,10.75857 2.86429,11.98286 11.99286,20.64572 22.94714,26.78572 11.24286,6.19 25.29429,12.28142 39.50858,11.96428 7.65714,1.44857 7.58285,11.35714 -1.60715,13.21429 -17.97143,0.11428 -32.31,-0.33429 -45.84857,-13.39286 -10.26714,-9.37571 -16.04857,1.79571 -13.08,8.12571 5.03,19.51143 32.86572,24.97572 61.02714,18.66 10.90429,-1.80571 4.37429,9.87858 1.29429,10 -11.76714,8.43715 -32.83286,16.69143 -51.38429,-0.0886 -8.48857,-6.5 -14.22857,-1.03714 -11.07142,8.34715 8.23142,24.46857 39.72,19.32857 61.34,7.27714 5.56428,-3.10143 10.61428,4.11428 3.83857,9.59857 -26.88572,18.78571 -40.32857,19 -52.45429,11.78571 -15.18286,-5.98714 -16.51857,10.85143 -7.5,16.38429 10.02143,6.14857 35.52857,1.53857 54.24,-10.22429 8.02286,-5.96285 8.38572,3.36143 3.30429,7.05429 -22.20572,19.19 -30.95857,24.24286 -54.10715,21.11571 -11.47857,-0.89428 -11.30714,13.25715 -2.27714,18.79429 12.32857,7.56143 36.40429,-4.98857 55.09,-20.49143 7.86429,-4.20143 9.15572,2.69 5.26714,10.84857 -11.41714,14.40429 -22.13285,22.89715 -32.45571,26.83 -10.32143,3.93429 -20.25,3.30715 -27.27571,0.89286 -8.57143,-2.94429 -9.64715,5.96286 -4.91143,14.06286 2.85428,4.88143 14.68571,6.44714 27.45571,1.92 12.77,-4.52857 26.48,-15.14715 35.89286,-27.59 8.19,-7.17 7.17143,2.46285 3.43714,9.24143 C 359.5,313.8384 342.26,324.89268 319.55429,323.01411 c -10.06858,-1.71 -12.35429,6.12 -5.93715,13.34857 11.26715,9.34286 25.35572,9.05143 37.67857,-0.17857 10.95429,-10.56285 31.91143,-33.30571 42.9,-45.49143 7.74572,-6.17428 10.22,-0.0871 7.94715,12.45572 -2.06572,7.18286 -7.24,14.74714 -21.33857,20.26714 -9.63143,5.49714 -2.4,13.07429 4.82142,13.21429 3.97286,0.0771 12.04286,-4.56715 18.21429,-11.51715 8.12,-9.14285 8.60286,-15.28285 13.08,-29.51 4.23,-6.93428 11.78571,-3.69714 11.78571,3.57143 -3.62285,14.25143 -6.73714,16.80572 -14.06285,22.63429 -7.00572,6.57857 4.88,8.77143 8.88571,6.07143 11.58572,-7.81 15.81429,-17.91143 19.68572,-27.09857 2.79428,-6.63 10.9,-3.41572 7.14285,7.41142 -8.98,25.87572 -23.73571,36.06429 -49.55285,41.29429 -2.61715,0.46571 -4.21286,2.01 -3.30429,5.04429 3.46571,3.59714 6.93714,6.86142 10.40286,10.44714 -15.96429,4.64857 -28.93429,7.26 -44.91143,11.92 -7.83857,-5.13857 -14.17143,-9.49857 -22.00857,-14.64286 -2.06715,-4.83143 -3.03143,-12.20714 -14.59857,-7.00857 -7.83858,-3.62 -11.45429,-2.29286 -15.80429,1.33857 6.28,0.23429 9.01143,1.91572 11.47429,4.77714 3.21428,8.46572 10.62571,9.28429 18.21428,6.87572 4.93572,4.15714 7.56429,7.34714 12.5,11.51714 -9.21428,-0.31428 -15.63143,-0.47857 -24.82143,-0.75714 -8.77285,-9.42 -15.77428,-8.90429 -22.05428,-1.51857 -4.78572,0.73428 -6.81429,0.83714 -10.08857,6.65143 5.15,-2.11429 8.39,-2.74715 10.62428,-0.44572 9.32714,5.40714 15.42,4.2 20.04572,0 8.99714,0.55 17.10571,1.01429 26.11428,1.60714 -3.30857,2.81286 -7.85,4.30429 -11.16,7.14286 -13.51428,-3.86714 -20.56857,1.33714 -22.94571,12.36572 -1.81143,4.45142 -2.66,9.03285 -1.87572,13.79428 1.30857,-4.35428 3.41143,-8.1 7.27715,-10.44571 12.04571,3.05857 16.57571,-1.85715 17.23142,-9.06286 5.80715,-4.73714 14.56286,-5.78286 20.35715,-10.58 6.77571,2.16857 10.05143,3.51286 16.87571,5.66857 2.42572,7.37286 7.91572,10.29286 16.83,8.39286 10.61143,0.33286 8.73857,4.68714 9.59857,8.17143 2.82,-5.00286 2.74143,-9.86715 -3.79428,-14.28572 -2.37857,-6.46143 -7.64715,-9.4 -14.55429,-5.67143 -6.5,-1.84571 -8.21,-4.49857 -14.68714,-6.33857 16.38286,-5.22143 28.00428,-6.39714 44.37428,-11.60714 4.09858,3.86571 7.34572,6.64 11.47429,10.08857 2.17571,1.3 4.25714,1.62572 5.53571,0 10.25715,-14.84714 14.84,-27.93143 24.37429,-37.72286 3.64286,-4.05 8.24571,-9.51571 13.34857,-10.84857 2.55143,-0.66571 5.68,-0.25857 7.67857,1.92 1.99857,2.17857 3.56715,6.19572 2.90143,12.18715 -0.95428,8.60142 -3.03286,11.31714 -5.44571,16.47428 -2.41429,5.15714 -5.36286,8.32857 -8.39286,12.27572 -6.06286,7.89714 -14.06143,12.49428 -18.79429,15.58142 -9.46857,6.17286 -13.47285,3.47143 -20.80428,3.08 -9.47572,1.06286 -11.99572,5.67715 -4.24143,12.05286 7.25,3.77143 13.76714,4.23857 19.06286,3.26 4.54714,-0.84143 9.86857,-6.71143 13.66143,-9.86714 4.26714,-4.93 11.34285,0.91714 6.51714,6.65286 -8.77143,10.42 -17.53429,17.29142 -28.34857,17.14285 -11.36286,1.52857 -9.23715,7.91429 -1.69572,11.02572 13.57286,5.60285 25.82857,-4.89 32.05286,-11.78572 4.80429,-5.25428 8.21429,-5.46 7.36714,2.67857 -4.76857,14.73429 -11.28571,20.42572 -21.92,21.16143 -8.62714,-0.8 -8.72,5.85715 -2.41143,10.35715 14.37143,9.94714 24.78,-6.99286 29.64286,-17.23286 3.46572,-9.23572 8.78,-4.84286 9.33143,2.76857 0.0714,10.17143 -4.52429,18.47429 -16.83143,28.88429 9.41714,15.00142 20.39429,30.26 29.82143,45.31142 L 528.57857,199.9884 500.00714,149.69983 c -2.97571,-2.74715 -13.03857,-14.60429 -15.66857,-16.25 -0.96,-1.02429 -1.54286,-1.74857 -0.13428,-2.27572 1.36285,-0.51143 4.55142,-1.08285 6.69714,-1.47428 -6.06,-6.07 -11.25286,-8.01572 -22.72429,-11.33857 2.79572,-1.19 5.51429,-0.49715 13.75,-0.89286 -3.27,-4.64 -10.57143,-11.74857 -20,-15.17857 6.22715,-4.42572 7.44,-4.72286 13.61572,-9.91 -10.69429,-0.75857 -19.82857,-2.79715 -29.01715,-5.58143 -5.81,-2.71572 -13.88,-5.02286 -17.81285,-5.08857 z m 1.02858,12.45714 c 5.65,-0.001 9.15,1.93571 9.15,4.28429 0,2.38857 -3.5,4.33 -9.15143,4.33 -5.62857,0 -9.19572,-2.11858 -9.19572,-4.50858 0,-2.34857 3.56715,-4.10714 9.19572,-4.10714"
     id="path2"
     style="stroke-width:1.42857" />
  <path
     d="m 571.29429,81.71986 c 6.94571,-0.11715 18.47142,2.21428 18.21428,7.54571 19.34572,-3.31571 21.36,4.67429 20.22286,11.78572 -1.84,-2.82286 -4.08143,-4.35429 -5.80286,-4.64286 -2.58,-0.42857 -5.28,0.40428 -8.03571,2.09714 -2.75715,1.69429 -5.79429,4.42572 -7.14286,6.11572 6.82857,1.63285 12.10143,0.57857 17.45429,-0.35715 2.64,-0.46143 6.33285,-1.94571 8.52857,-3.48143 2.19428,-1.53714 2.88571,-2.98285 6.33857,-6.51857 4.07143,-4.16857 8.40286,-2.99428 7.05286,3.48286 -3.12143,6.01429 -8.33715,8.69714 -14.91,9.77714 -3.16286,0.51857 -7.87429,1.64572 -13.21429,1.65143 -5.34,0.006 -11.33714,-0.77143 -14.6,-0.09 1.96143,1.23143 4.17857,3.35286 8.57143,4.19714 4.47,0.85858 11.26286,-2.65714 15.40286,-3.61571 -0.52572,3.48286 -4.92,6.74 -13.57143,8.43714 -14.21572,3.09572 -26.02857,5.44857 -33.83857,9.68715 -7.81,4.24 -12.73429,9.54714 -16.25,13.70571 -6.99858,8.27571 -7.36715,14.62857 -7.81429,16.02571 -1.43857,13.22286 3.17143,20.66143 11.74286,22.94715 4.28571,1.14285 11.89571,-1.00857 14.68571,-4.28572 2.79143,-3.27571 5.50714,-8.90571 4.73286,-17.72285 -0.75143,-3.45858 -4.70714,-12.46858 -1.33857,-14.33 15.51571,-8.57715 34.35857,-17.25 47.99143,-22.41143 3.72571,-1.41 6.79428,3.65428 7.99,5.62571 23.15857,-2.82 44.03857,-18.49143 53.43857,-35.17857 6.4,-11.36571 16.95143,0.0229 15.17857,10.75857 -2.86429,11.98286 -11.99286,20.64572 -22.94714,26.78572 -11.24286,6.19 -25.29429,12.28142 -39.50858,11.96428 -7.65714,1.44857 -7.58285,11.35714 1.60715,13.21429 17.97143,0.11428 32.31,-0.33429 45.84857,-13.39286 10.26714,-9.37571 16.04857,1.79571 13.08,8.12571 -5.03,19.51143 -32.86572,24.97572 -61.02714,18.66 -10.90429,-1.80571 -4.37429,9.87858 -1.29429,10 11.76714,8.43715 32.83286,16.69143 51.38429,-0.0886 8.48857,-6.5 14.22857,-1.03714 11.07142,8.34715 -8.23142,24.46857 -39.72,19.32857 -61.34,7.27714 -5.56428,-3.10143 -10.61428,4.11428 -3.83857,9.59857 26.88572,18.78571 40.32857,19 52.45429,11.78571 15.18286,-5.98714 16.51857,10.85143 7.5,16.38429 -10.02143,6.14857 -35.52857,1.53857 -54.24,-10.22429 -8.02286,-5.96285 -8.38572,3.36143 -3.30429,7.05429 22.20572,19.19 30.95857,24.24286 54.10715,21.11571 11.47857,-0.89428 11.30714,13.25715 2.27714,18.79429 -12.32857,7.56143 -36.40429,-4.98857 -55.09,-20.49143 -7.86429,-4.20143 -9.15572,2.69 -5.26714,10.84857 11.41714,14.40429 22.13285,22.89715 32.45571,26.83 10.32143,3.93429 20.25,3.30715 27.27571,0.89286 8.57143,-2.94429 9.64715,5.96286 4.91143,14.06286 -2.85428,4.88143 -14.68571,6.44714 -27.45571,1.92 -12.77,-4.52857 -26.48,-15.14715 -35.89286,-27.59 -8.19,-7.17 -7.17143,2.46285 -3.43714,9.24143 18.84857,29.79714 36.08857,40.85142 58.79428,38.97285 10.06858,-1.71 12.35429,6.12 5.93715,13.34857 -11.26715,9.34286 -25.35572,9.05143 -37.67857,-0.17857 -10.95429,-10.56285 -31.91143,-33.30571 -42.9,-45.49143 -7.74572,-6.17428 -10.22,-0.0871 -7.94715,12.45572 2.06572,7.18286 7.24,14.74714 21.33857,20.26714 9.63143,5.49714 2.4,13.07429 -4.82142,13.21429 -3.97286,0.0771 -12.04286,-4.56715 -18.21429,-11.51715 -8.12,-9.14285 -8.60286,-15.28285 -13.08,-29.51 -4.23,-6.93428 -11.78571,-3.69714 -11.78571,3.57143 3.62285,14.25143 6.73714,16.80572 14.06285,22.63429 7.00572,6.57857 -4.88,8.77143 -8.88571,6.07143 -11.58572,-7.81 -15.81429,-17.91143 -19.68572,-27.09857 -2.79428,-6.63 -10.9,-3.41572 -7.14285,7.41142 8.98,25.87572 23.73571,36.06429 49.55285,41.29429 2.61715,0.46571 4.21286,2.01 3.30429,5.04429 -3.46571,3.59714 -6.93714,6.86142 -10.40286,10.44714 15.96429,4.64857 28.93429,7.26 44.91143,11.92 7.83857,-5.13857 14.17143,-9.49857 22.00857,-14.64286 2.06715,-4.83143 3.03143,-12.20714 14.59857,-7.00857 7.83858,-3.62 11.45429,-2.29286 15.80429,1.33857 -6.28,0.23429 -9.01143,1.91572 -11.47429,4.77714 -3.21428,8.46572 -10.62571,9.28429 -18.21428,6.87572 -4.93572,4.15714 -7.56429,7.34714 -12.5,11.51714 9.21428,-0.31428 15.63286,-0.47857 24.82143,-0.75714 8.77285,-9.42 15.77428,-8.90429 22.05428,-1.51857 4.78572,0.73428 6.81429,0.83714 10.08857,6.65143 -5.15,-2.11429 -8.39,-2.74715 -10.62428,-0.44572 -9.32714,5.40714 -15.42,4.2 -20.04572,0 -8.99714,0.55 -17.10571,1.01429 -26.11428,1.60714 3.30857,2.81286 7.85,4.30429 11.16,7.14286 13.51428,-3.86714 20.56857,1.33714 22.94571,12.36572 1.81143,4.45142 2.66,9.03285 1.87572,13.79428 -1.30857,-4.35428 -3.41143,-8.1 -7.27715,-10.44571 -12.04571,3.0586 -16.57571,-1.85712 -17.23142,-9.06283 -5.80715,-4.73714 -14.56286,-5.78286 -20.35715,-10.58 -6.77571,2.16857 -10.05143,3.51286 -16.87571,5.66857 -2.42572,7.37286 -7.91572,10.29286 -16.83,8.39286 -10.61143,0.33286 -8.73857,4.68714 -9.59857,8.17143 -2.82,-5.00286 -2.74143,-9.86715 3.79428,-14.28572 2.37857,-6.46143 7.64715,-9.4 14.55429,-5.67143 6.5,-1.84571 8.21,-4.49857 14.68714,-6.33857 -16.38286,-5.22143 -28.00428,-6.39714 -44.37428,-11.60714 -4.09858,3.86571 -7.34572,6.64 -11.47429,10.08857 -2.17429,1.3 -4.25714,1.62572 -5.53571,0 -10.25715,-14.84714 -14.84,-27.93143 -24.37429,-37.72286 -3.64286,-4.05 -8.24571,-9.51571 -13.34857,-10.84857 -2.55143,-0.66571 -5.68,-0.25857 -7.67857,1.92 -1.99857,2.17857 -3.56715,6.19572 -2.90143,12.18715 0.95428,8.60142 3.03286,11.31714 5.44571,16.47428 2.41429,5.15714 5.36286,8.32857 8.39286,12.27572 6.06286,7.89714 14.06143,12.49428 18.79429,15.58142 9.46857,6.17286 13.47285,3.47143 20.80428,3.08 9.47572,1.06286 11.99572,5.67715 4.24143,12.05286 -7.25,3.77143 -13.76714,4.23857 -19.06286,3.26 -4.54714,-0.84143 -9.86857,-6.71143 -13.66143,-9.86714 -4.26714,-4.93 -11.34285,0.91714 -6.51714,6.65286 8.77143,10.42 17.53429,17.29142 28.34857,17.14285 11.36286,1.52857 9.23715,7.91429 1.69572,11.02572 -13.57286,5.60285 -25.82857,-4.89 -32.05286,-11.78572 -4.80429,-5.25428 -8.21429,-5.46 -7.36714,2.67857 4.76857,14.73429 11.28571,20.42572 21.92,21.16143 8.62714,-0.8 8.72,5.85715 2.41143,10.35715 -14.37143,9.94714 -24.78,-6.99286 -29.64286,-17.23286 -3.46572,-9.23572 -8.78,-4.84286 -9.33143,2.76857 -0.0714,10.17143 4.52429,18.47429 16.83143,28.88429 -9.41714,15.00142 -20.39429,30.26 -29.82143,45.31142 l -28.57857,-318.29428 28.57143,-50.28857 c 2.97571,-2.74715 13.03857,-14.60429 15.66857,-16.25 0.96,-1.02429 1.54286,-1.74857 0.13428,-2.27572 -1.36285,-0.51143 -4.55142,-1.08285 -6.69714,-1.47428 6.06,-6.07 11.25286,-8.01572 22.72429,-11.33857 -2.79572,-1.19 -5.51429,-0.49715 -13.75,-0.89286 3.27,-4.64 10.57143,-11.74857 20,-15.17857 -6.22715,-4.42572 -7.44,-4.72286 -13.61572,-9.91 10.69429,-0.75857 19.82857,-2.79715 29.01715,-5.58143 5.81,-2.71572 13.88,-5.02286 17.81285,-5.08857 z M 570.26571,94.177 c -5.65,-0.001 -9.15,1.93571 -9.15,4.28429 0,2.38857 3.5,4.33 9.15143,4.33 5.62857,0 9.19572,-2.11858 9.19572,-4.50858 0,-2.34857 -3.56715,-4.10714 -9.19572,-4.10714"
     id="path3"
     style="stroke-width:1.42857" />
</svg>
