<?xml version="1.0" encoding="UTF-8" standalone="no"?>
<svg
   height="599.99969"
   viewBox="0 0 999.99997 599.99969"
   width="1000"
   version="1.1"
   id="svg17"
   sodipodi:docname="an.svg"
   inkscape:version="1.3.2 (091e20e, 2023-11-25, custom)"
   xmlns:inkscape="http://www.inkscape.org/namespaces/inkscape"
   xmlns:sodipodi="http://sodipodi.sourceforge.net/DTD/sodipodi-0.dtd"
   xmlns="http://www.w3.org/2000/svg"
   xmlns:svg="http://www.w3.org/2000/svg">
  <defs
     id="defs17" />
  <sodipodi:namedview
     id="namedview17"
     pagecolor="#505050"
     bordercolor="#eeeeee"
     borderopacity="1"
     inkscape:showpageshadow="0"
     inkscape:pageopacity="0"
     inkscape:pagecheckerboard="0"
     inkscape:deskcolor="#505050"
     inkscape:zoom="1"
     inkscape:cx="500"
     inkscape:cy="260.5"
     inkscape:window-width="2560"
     inkscape:window-height="1417"
     inkscape:window-x="6392"
     inkscape:window-y="-1"
     inkscape:window-maximized="1"
     inkscape:current-layer="svg17" />
  <clipPath
     id="a">
    <path
       d="M 0,566.929 H 850.394 V 0 H 0 Z"
       id="path1" />
  </clipPath>
  <g
     transform="matrix(1.058333,0,0,-1.058333,50,599.99967)"
     id="g17">
    <path
       d="M -47.244109,0 H 897.63808 V 566.929 H -47.244109 Z"
       fill="#1ab2a8"
       id="path2"
       style="stroke-width:1.05409" />
    <g
       fill="#ffffff"
       id="g16"
       transform="matrix(1.11111,0,0,1.11111,-47.243594,-31.495818)">
      <path
         d="M 0,0 10.971,5.927 -1.227,3.389 Z"
         transform="translate(288.6962,232.1685)"
         id="path3" />
      <path
         d="m 0,0 -9.254,-8.336 2.767,-2.308 z"
         transform="translate(521.9877,399.7549)"
         id="path4" />
      <g
         clip-path="url(#a)"
         id="g15">
        <path
           d="M 0,0 -1.715,0.833 C -3.242,1.574 -4.344,1.245 -5.038,-0.184 L -5.81,-1.774 0.482,-4.83 1.254,-3.241 C 1.949,-1.811 1.525,-0.741 0,0"
           transform="translate(550.315,225.288)"
           id="path5" />
        <path
           d="m 0,0 -9.967,4.95 c -1.898,0.943 -2.925,0.781 -3.6,-0.579 l -0.88,-1.772 15.282,-7.589 0.88,1.772 C 2.391,-1.857 1.898,-0.943 0,0"
           transform="translate(303.3139,346.2507)"
           id="path6" />
        <path
           d="m 0,0 -6.287,-10.753 3.337,-1.359 z"
           transform="translate(482.1482,423.6719)"
           id="path7" />
        <path
           d="m 0,0 -7.565,9.908 4.41,-11.649 z"
           transform="translate(359.6954,406.0714)"
           id="path8" />
        <path
           d="m 0,0 -1.933,0.421 -3.631,-16.674 1.933,-0.421 c 1.485,-0.323 2.252,0.377 2.703,2.449 L 1.44,-3.351 C 1.891,-1.28 1.485,-0.323 0,0"
           transform="translate(396.6172,152.9451)"
           id="path9" />
        <path
           d="m 0,0 c -0.297,2.099 -1.011,2.854 -2.515,2.642 l -1.959,-0.277 2.389,-16.897 1.959,0.277 c 1.504,0.212 1.979,1.136 1.683,3.235 z"
           transform="translate(446.6486,148.5707)"
           id="path10" />
        <path
           d="M 0,0 0.501,1.841 C 0.945,3.477 0.418,4.5 -1.116,4.917 L -2.821,5.38 -4.656,-1.369 -2.952,-1.833 C -1.418,-2.25 -0.446,-1.636 0,0"
           transform="translate(465.9512,424.5597)"
           id="path11" />
        <path
           d="m 0,0 7.962,6.283 2.627,-3.33 -19.421,-15.322 -2.626,3.328 8.407,6.633 -2.628,3.329 -8.405,-6.632 -2.628,3.329 L 2.709,12.941 5.336,9.612 -2.626,3.329 Z m 16.379,-5.882 -17.745,-11.071 3.178,-5.096 -3.238,-2.019 -5.423,8.693 20.985,13.091 z m 9.979,-18.446 -3.294,-1.626 -2.69,5.451 -5.83,-2.878 2.455,-4.974 -3.359,-1.658 -2.455,4.975 -6.274,-3.096 2.767,-5.608 -3.422,-1.689 -4.643,9.411 22.18,10.945 z m 5.875,-15.048 -3.509,-1.309 -1.334,3.575 -19.665,-7.338 -1.481,3.972 19.663,7.339 -1.334,3.575 3.509,1.309 z m 3.983,-14.509 -3.555,-0.929 -1.537,5.879 -6.29,-1.644 1.403,-5.367 -3.623,-0.947 -1.403,5.367 -6.768,-1.769 1.581,-6.051 -3.691,-0.964 -2.654,10.152 23.928,6.254 z m -7.631,-43.109 c -3.161,0 -5.723,2.562 -5.723,5.723 0,3.161 2.562,5.723 5.723,5.723 3.161,0 5.723,-2.562 5.723,-5.723 0,-3.161 -2.562,-5.723 -5.723,-5.723 m 0.373,-47.324 -23.313,8.271 3.451,9.725 3.463,-1.229 -2.032,-5.729 6.127,-2.174 1.856,5.229 3.53,-1.252 -1.855,-5.229 6.594,-2.339 2.091,5.894 3.598,-1.275 z m -3.79,-8.72 c -0.443,-0.02 -1.156,0.129 -2.618,0.839 l -4.703,2.284 c -1.43,0.695 -2.469,0.336 -3.163,-1.095 l -0.772,-1.589 9.28,-4.507 -1.853,-3.813 -22.245,10.804 2.716,5.593 c 1.837,3.782 4.446,4.95 7.625,3.406 l 2.32,-1.126 c 1.938,-0.942 3.06,-2.351 2.816,-4.471 1.341,1.548 2.872,1.708 4.938,0.705 l 4.735,-2.301 c 1.143,-0.555 2.016,-0.861 2.601,-0.87 l 0.159,-0.077 z m -10.308,-18.653 -17.788,11.146 -2.026,-3.235 -3.175,1.99 6.304,10.061 3.175,-1.989 -2.026,-3.234 17.787,-11.145 z m -8.211,-12.073 c -2.581,-3.273 -5.713,-3.593 -9.098,-0.925 l -14.537,11.462 2.625,3.33 14.316,-11.288 c 1.664,-1.312 2.702,-1.365 3.642,-0.172 0.941,1.193 0.647,2.189 -1.018,3.502 l -14.315,11.287 2.624,3.329 14.538,-11.463 c 3.385,-2.668 3.804,-5.788 1.223,-9.062 m -15.079,-16.149 -17.62,17.36 7.242,7.35 2.618,-2.579 -4.266,-4.33 4.632,-4.563 3.893,3.951 2.669,-2.628 -3.895,-3.952 4.984,-4.911 4.39,4.455 2.718,-2.679 z m -8.102,-7.116 -14.37,10.105 10.603,-13.144 -3.052,-2.462 -15.527,19.248 3.739,3.016 14.231,-9.989 -10.491,13.006 3.052,2.463 15.528,-19.248 z m -32.316,-20.667 -11.247,22.03 3.777,1.928 9.511,-18.631 5.35,2.732 1.735,-3.399 z m -14.409,-5.98 -9.026,23.021 9.604,3.765 1.34,-3.42 -5.656,-2.218 2.372,-6.051 5.164,2.025 1.367,-3.486 -5.164,-2.025 2.553,-6.512 5.821,2.282 1.393,-3.552 z m -11.645,-3.908 c -4.029,-1.078 -6.729,0.54 -7.844,4.706 l -4.786,17.886 4.096,1.097 4.713,-17.614 c 0.549,-2.049 1.348,-2.712 2.816,-2.32 1.468,0.393 1.829,1.368 1.281,3.416 l -4.714,17.614 4.097,1.096 4.786,-17.887 c 1.115,-4.165 -0.417,-6.915 -4.445,-7.994 m -18.111,-3.344 -6.332,-0.895 -3.462,24.488 6.333,0.895 c 4.023,0.568 6.433,-1.339 7.027,-5.536 l 1.651,-11.685 c 0.594,-4.198 -1.194,-6.699 -5.217,-7.267 m -16.208,-1.465 -1.251,24.703 4.235,0.215 1.251,-24.704 z m -8.203,-0.111 -6.567,0.236 -3.282,24.863 4.413,-0.158 2.388,-21.19 3.791,20.969 4.343,-0.154 z m -14.849,0.951 -4.207,0.524 3.063,24.543 4.207,-0.526 z m -5.721,19.1 -2.511,-11.53 c -0.902,-4.142 -3.447,-5.866 -7.417,-5.001 l -6.248,1.361 5.262,24.165 6.248,-1.361 c 3.97,-0.865 5.568,-3.491 4.666,-7.634 m -26.644,-11.922 1.061,17.539 -5.626,-15.927 -3.698,1.306 8.238,23.324 4.531,-1.601 -1.035,-17.36 5.567,15.76 3.698,-1.306 -8.238,-23.324 z m -17.297,7.054 10.405,22.44 3.847,-1.784 -10.406,-22.439 z m -5.871,27.316 -4.957,3.518 -3.764,-5.303 4.525,-3.212 -2.169,-3.055 -4.524,3.212 -4.051,-5.706 5.102,-3.621 -2.21,-3.113 -8.56,6.075 14.32,20.176 8.416,-5.973 z m -30.154,-3.257 13.762,15.849 -2.882,2.502 2.456,2.828 8.965,-7.784 -2.456,-2.829 -2.881,2.502 -13.762,-15.848 z m -2.758,7.689 -2.771,-2.623 -7.216,7.622 17.965,17.005 7.094,-7.493 -2.67,-2.527 -4.178,4.415 -4.722,-4.47 3.814,-4.03 -2.72,-2.575 -3.814,4.029 -5.081,-4.81 z m -19.122,16.338 19.529,15.183 2.602,-3.347 -16.515,-12.84 3.687,-4.743 -3.013,-2.343 z m -5.685,8.399 9.111,5.625 -2.227,3.608 -9.111,-5.625 -2.227,3.609 21.048,12.994 2.228,-3.609 -8.63,-5.327 2.227,-3.609 8.63,5.328 2.227,-3.608 -21.048,-12.994 z m -10.066,18.485 18.95,9.013 -1.639,3.445 3.382,1.609 5.098,-10.72 -3.382,-1.608 -1.638,3.445 -18.95,-9.013 z m -3.762,8.886 4.399,2.382 -1.612,4.452 -4.893,-1.019 -1.479,4.086 24.691,4.468 2.237,-6.18 -21.839,-12.342 z m -5.744,52.194 c 0,3.161 2.562,5.723 5.723,5.723 3.161,0 5.723,-2.562 5.723,-5.723 0,-3.161 -2.562,-5.723 -5.723,-5.723 -3.161,0 -5.723,2.562 -5.723,5.723 m -0.093,41.813 24.046,-5.802 -0.994,-4.122 -24.046,5.801 z m 3.064,10.405 17.363,-0.932 -15.79,5.472 1.285,3.705 23.366,-8.098 -1.561,-4.507 -17.542,0.957 15.956,-5.53 -1.284,-3.705 -23.366,8.098 z m 8.311,20.094 c 1.807,3.638 4.744,4.547 8.54,2.661 l 10.568,-5.248 c 3.797,-1.885 4.848,-4.774 3.041,-8.412 l -2.844,-5.727 -22.148,10.999 z m 7.953,14.114 21.049,-12.994 -2.228,-3.608 -21.049,12.994 z m 4.946,7.324 18.763,-10.139 -15.053,15.086 2.607,3.476 17.264,-18.201 -3.942,-5.258 -22.288,11.503 z m 12.162,14.854 18.374,-16.563 -2.839,-3.149 -18.374,16.562 z m 8.755,8.702 c 2.985,2.757 6.052,2.559 8.929,-0.555 l 8.006,-8.67 c 2.876,-3.115 2.829,-6.188 -0.156,-8.945 l -4.698,-4.338 -16.779,18.17 z m 12.87,10.662 10.643,-14.808 c 1.238,-1.722 2.221,-2.06 3.454,-1.174 1.235,0.888 1.227,1.927 -0.01,3.649 l -10.643,14.808 3.444,2.475 10.808,-15.038 c 2.516,-3.501 2.057,-6.616 -1.33,-9.05 -3.386,-2.434 -6.485,-1.877 -9.002,1.625 l -10.808,15.038 z m 20.216,12.686 15.598,-19.638 -3.866,-2.134 -3.04,3.972 -4.144,-2.287 1.77,-4.672 -3.804,-2.099 -8.267,23.683 z m 11.924,5.576 8.07,-19.297 5.542,2.318 1.472,-3.52 -9.453,-3.954 -9.543,22.817 z m 29.645,9.073 7.77,-15.554 -3.046,16.43 3.856,0.715 4.507,-24.316 -4.689,-0.869 -7.837,15.722 3.077,-16.604 -3.855,-0.715 -4.507,24.316 z m 25.275,2.97 0.243,-3.667 -6.065,-0.403 0.431,-6.488 5.536,0.368 0.248,-3.738 -5.536,-0.367 0.464,-6.982 6.241,0.415 0.253,-3.809 -10.472,-0.695 -1.64,24.682 z m 5.802,0.106 4.235,-0.192 -0.826,-18.211 c -0.097,-2.117 0.465,-2.991 1.982,-3.06 1.518,-0.069 2.156,0.751 2.252,2.868 l 0.827,18.211 4.235,-0.192 -0.839,-18.493 c -0.196,-4.306 -2.487,-6.465 -6.651,-6.276 -4.165,0.189 -6.25,2.547 -6.055,6.852 z m 17.508,-1.081 11.728,-1.837 -0.58,-3.7 -3.769,0.59 -3.248,-20.734 -4.189,0.656 3.248,20.735 -3.77,0.59 z m 22.509,-4.481 c 4.057,-1.104 5.689,-3.451 4.761,-6.861 l -0.677,-2.488 c -0.566,-2.08 -1.742,-3.444 -3.871,-3.597 1.77,-1.031 2.212,-2.505 1.608,-4.721 l -1.381,-5.08 c -0.334,-1.227 -0.473,-2.141 -0.374,-2.717 l -0.046,-0.171 -4.057,1.104 c -0.102,0.43 -0.087,1.159 0.339,2.727 l 1.373,5.045 c 0.418,1.534 -0.129,2.488 -1.663,2.905 l -1.704,0.464 -2.708,-9.954 -4.091,1.112 6.491,23.864 z m 20.658,-7.204 -5.467,-24.475 -4.091,1.665 1.179,4.861 -4.384,1.785 -2.52,-4.314 -4.024,1.639 13.221,21.318 z m 11.863,-5.775 -9.931,-18.411 5.287,-2.853 -1.812,-3.358 -9.02,4.864 11.743,21.772 z m 23.352,-15.402 5.046,-4.209 -12.64,-21.659 -3.391,2.828 2.598,4.273 -3.635,3.033 -3.71,-3.346 -3.337,2.784 z M -206.15,-173.9 l -0.847,-3.526 -2.162,2.284 0.094,4.322 z m -23.88,85.944 c 0,63.396 51.576,114.973 114.972,114.973 63.397,0 114.973,-51.577 114.973,-114.973 0,-63.396 -51.576,-114.972 -114.973,-114.972 -63.396,0 -114.972,51.576 -114.972,114.972 m 221.138,113 8.333,-8.452 -2.667,-2.629 -2.678,2.717 -14.942,-14.732 -2.977,3.018 14.943,14.732 -2.678,2.717 z m -106.166,57.079 c -93.781,0 -170.078,-76.297 -170.078,-170.079 0,-93.782 76.297,-170.078 170.078,-170.078 93.783,0 170.079,76.296 170.079,170.078 0,93.782 -76.296,170.079 -170.079,170.079"
           transform="translate(540.2541,371.4207)"
           id="path12" />
        <path
           d="M 0,0 H 27.448 L 44.863,-103.302 H 26.416 l -3.099,20.661 H 3.542 L 0.59,-103.302 H -17.561 Z M 56.375,0 H 74.084 V -103.302 H 56.375 Z m 35.418,0 h 20.07 l 20.07,-69.802 V 0 h 16.381 v -103.302 h -19.922 l -20.218,70.541 v -70.541 H 91.793 Z M 68.224,-167.612 c 62.329,0 113.037,50.708 113.037,113.037 0,62.328 -50.708,113.036 -113.037,113.036 -62.329,0 -113.037,-50.708 -113.037,-113.036 0,-62.329 50.708,-113.037 113.037,-113.037"
           transform="translate(356.9724,338.0403)"
           id="path13" />
        <path
           d="m 0,0 c 1.116,1.031 0.982,2.061 -0.456,3.619 l -7.55,8.176 c -1.439,1.557 -2.455,1.773 -3.571,0.742 l -1.454,-1.342 11.577,-12.537 z"
           transform="translate(334.2676,382.0214)"
           id="path14" />
        <path
           d="M 0,0 -7.378,-51.503 H 7.674 Z"
           transform="translate(370.2537,322.8404)"
           id="path15" />
      </g>
    </g>
  </g>
</svg>
