<?xml version="1.0" encoding="UTF-8" standalone="no"?>
<svg
   width="1000"
   height="600"
   version="1.1"
   id="svg5"
   sodipodi:docname="ao.svg"
   inkscape:version="1.3.2 (091e20e, 2023-11-25, custom)"
   xmlns:inkscape="http://www.inkscape.org/namespaces/inkscape"
   xmlns:sodipodi="http://sodipodi.sourceforge.net/DTD/sodipodi-0.dtd"
   xmlns="http://www.w3.org/2000/svg"
   xmlns:svg="http://www.w3.org/2000/svg">
  <defs
     id="defs5" />
  <sodipodi:namedview
     id="namedview5"
     pagecolor="#505050"
     bordercolor="#eeeeee"
     borderopacity="1"
     inkscape:showpageshadow="0"
     inkscape:pageopacity="0"
     inkscape:pagecheckerboard="0"
     inkscape:deskcolor="#505050"
     inkscape:zoom="0.50875"
     inkscape:cx="41.277641"
     inkscape:cy="657.49386"
     inkscape:window-width="2560"
     inkscape:window-height="1417"
     inkscape:window-x="3832"
     inkscape:window-y="313"
     inkscape:window-maximized="1"
     inkscape:current-layer="svg5" />
  <path
     d="M 0,0 H 1000 V 600 H 0 Z"
     id="path1"
     style="stroke-width:1.05409" />
  <path
     fill="#cc092f"
     d="M 0,0 H 1000 V 300 H 0 Z"
     id="path2"
     style="stroke-width:1.05409" />
  <path
     d="m 434.28667,195.33333 h 40.71555 l 12.34667,-38.37444 12.67778,38.37444 h 40.71111 l -32.70334,24.36223 12.67667,39.03888 -33.36222,-23.69333 -33.03445,23.69333 12.67778,-39.03888 z"
     fill="#ffcb00"
     fill-rule="evenodd"
     id="path3"
     style="stroke-width:1.11111" />
  <path
     d="m 583.11222,405.23222 -32.03,-25.03333 c 32.36334,-26.36 53.39111,-66.73778 53.39111,-111.78333 0,-68.74 -49.04889,-126.47112 -113.79,-140.15223 l 5.00445,-23.36111 c 9.01111,2.00334 19.58222,5.79667 28.25778,8.79556 L 532.29,99.68889 c 9,4.33333 19.02,8.67 27.35667,14.00889 l -6.33667,15.02 c 8.34444,5.34222 18.41667,13.61222 24.01778,20.12444 l 12.53,-9.78778 c 6.67555,7.33778 14.68666,15.00778 20.35889,23.02334 l -11.34556,11.68 c 7.32667,10.75555 10.15889,15.70555 15.56,28.09666 L 630.35,198.12111 c 3.00667,9.34222 7.57111,20.78 9.24444,30.45333 l -15.07333,5.92445 c 1.8,7.51778 4.13111,20.64889 3.98111,31.69444 -0.0122,0.66445 -0.0622,1.41778 -0.0622,2.08667 l 15.74111,2.24556 c -0.66667,9.68 -0.99667,20.69444 -3.00444,30.37 H 624.8278 c -2.33334,10.00555 -5.34445,22.24444 -9.01111,31.58333 l 13.67555,8.01444 c -4.33444,8.67223 -8.66666,19.01889 -14.34222,27.36223 l -15.01556,-6.33667 c -5.67777,8.33889 -12.01111,16.34444 -19.02,23.69 l 9.67334,12.67778 c -2.66445,2.33333 -5.00222,4.67222 -7.67556,7.34444 m -70.40222,-3.00444 24.19111,14.57777 c -2.25555,2.06334 -9.01333,5.56223 -10.80444,6.27112 l 3.95555,15.18444 c -9.34111,3.00889 -19.35555,7.34222 -29.69333,9.34667 l -6.00556,-15.01445 c -9.67777,2 -19.35111,3.33334 -29.36333,3.33334 l -2.00778,15.68222 c -9.34,-0.66445 -20.68555,0 -31.03111,-2.33556 v -15.67778 c -9.34555,-1.67333 -18.35444,-4.00666 -27.02667,-7.01333 l -7.67777,13.69111 c -8.00778,-3.34444 -18.68445,-7.35 -27.36445,-12.68444 l 5.67556,-15.01556 c -7.01111,-3.67444 -13.35,-8.34333 -19.35556,-13.02222 l 15.01667,-19.02 c 24.69555,19.69111 55.72555,31.36444 89.76333,31.36444 18.02334,0 35.70222,-2.99666 51.72778,-9.66666"
     fill="#ffcb00"
     fill-rule="evenodd"
     id="path4"
     style="stroke-width:1.11111" />
  <path
     d="m 613.54667,440.90444 -159.7,-121.53444 -1.45556,2.07333 159.28889,121.74778 -9.45444,11.83 -155.28112,-99.6 C 404.90111,329.05889 406.57,308.37222 415.24667,286.01444 l 7.34222,-18.01888 c 4.00555,23.35888 28.02555,41.04888 53.05333,60.73111 l 141.01556,108.33 z M 653.64,477.12667 A 2.4777778,2.4777778 0 0 1 651.16222,474.64 2.4777778,2.4777778 0 0 1 653.64,472.16 c 1.37444,0 2.48889,1.11111 2.48889,2.48 a 2.4866667,2.4866667 0 0 1 -2.48889,2.48778 m -9.54444,-7.00889 a 2.4888889,2.4888889 0 0 1 -2.48556,-2.48333 2.4844444,2.4844444 0 1 1 2.48556,2.48333 m -9.76667,-7.78445 c -1.36889,0 -2.48445,-1.11111 -2.48445,-2.47888 a 2.4844444,2.4844444 0 0 1 4.96667,0 c 0,1.36777 -1.11111,2.47888 -2.48222,2.47888 m 32.83778,13.77778 -47.85,-37.07222 -13.90445,17.91889 41.56667,29.15 c 3.33889,2.33333 3.66667,13.02 16.00778,14.69111 5.01444,0.66222 8.34222,-3.01111 8.34222,-3.01111 5.37778,-6.54667 3.91222,-15.55889 -4.16222,-21.67778"
     fill="#ffcb00"
     fill-rule="evenodd"
     id="path5"
     style="stroke-width:1.11111" />
</svg>
