<?xml version="1.0" encoding="UTF-8" standalone="no"?>
<svg
   width="1000"
   version="1.0"
   height="600"
   id="svg16"
   sodipodi:docname="ar.svg"
   inkscape:version="1.3.2 (091e20e, 2023-11-25, custom)"
   xmlns:inkscape="http://www.inkscape.org/namespaces/inkscape"
   xmlns:sodipodi="http://sodipodi.sourceforge.net/DTD/sodipodi-0.dtd"
   xmlns:xlink="http://www.w3.org/1999/xlink"
   xmlns="http://www.w3.org/2000/svg"
   xmlns:svg="http://www.w3.org/2000/svg">
  <defs
     id="defs16" />
  <sodipodi:namedview
     id="namedview16"
     pagecolor="#505050"
     bordercolor="#eeeeee"
     borderopacity="1"
     inkscape:showpageshadow="0"
     inkscape:pageopacity="0"
     inkscape:pagecheckerboard="0"
     inkscape:deskcolor="#505050"
     inkscape:zoom="0.6105"
     inkscape:cx="416.05242"
     inkscape:cy="641.27764"
     inkscape:window-width="2560"
     inkscape:window-height="1417"
     inkscape:window-x="3832"
     inkscape:window-y="313"
     inkscape:window-maximized="1"
     inkscape:current-layer="svg16" />
  <path
     fill="#74acdf"
     d="M 0,0 H 1000 V 600 H 0 Z"
     id="path1"
     style="stroke-width:1.22474" />
  <path
     fill="#ffffff"
     d="M 0,200.004 H 1000 V 400.008 H 0 Z"
     id="path2"
     style="stroke-width:1.22474" />
  <g
     id="c"
     transform="matrix(1.25,0,0,1.25,0,-12.5)">
    <path
       id="a"
       stroke-width="1.112"
       stroke="#85340a"
       fill="#f6b40e"
       d="m 396.84,251.31 28.454,61.992 c 0,0 0.49,1.185 1.28,0.859 0.79,-0.327 0.299,-1.512 0.299,-1.512 l -23.715,-63.956 m -0.68,24.12 c -0.347,9.428 5.452,14.613 4.694,23.032 -0.757,8.42 3.867,13.18 4.94,16.454 1.073,3.274 -1.16,5.232 -0.198,5.698 0.963,0.466 3.07,-2.12 2.383,-6.775 -0.687,-4.655 -4.22,-6.037 -3.39,-16.32 0.83,-10.283 -4.206,-12.678 -2.98,-22.058" />
    <use
       xlink:href="#a"
       transform="rotate(22.5,400,250)"
       id="use2" />
    <use
       xlink:href="#a"
       transform="rotate(45,400,250)"
       id="use3" />
    <use
       xlink:href="#a"
       transform="rotate(67.5,400,250)"
       id="use4" />
    <path
       id="b"
       fill="#85340a"
       d="m 404.31,274.41 c 0.453,9.054 5.587,13.063 4.579,21.314 2.213,-6.525 -3.124,-11.583 -2.82,-21.22 m -7.649,-23.757 19.487,42.577 -16.329,-43.887" />
    <use
       xlink:href="#b"
       transform="rotate(22.5,400,250)"
       id="use5" />
    <use
       xlink:href="#b"
       transform="rotate(45,400,250)"
       id="use6" />
    <use
       xlink:href="#b"
       transform="rotate(67.5,400,250)"
       id="use7" />
  </g>
  <use
     xlink:href="#c"
     transform="rotate(90,500,300)"
     id="use8" />
  <use
     xlink:href="#c"
     transform="rotate(180,500,300)"
     id="use9" />
  <use
     xlink:href="#c"
     transform="rotate(-90,500,300)"
     id="use10" />
  <circle
     r="34.7225"
     stroke="#85340a"
     cy="300"
     cx="500"
     stroke-width="1.875"
     fill="#f6b40e"
     id="circle10" />
  <path
     id="h"
     fill="#843511"
     d="m 511.8375,292.575 c -2.37125,0 -4.64125,1.0275 -5.97625,3.16375 2.67,2.40375 8.57,2.665 12.5775,-0.27375 a 9.16625,9.16625 0 0 0 -6.60125,-2.89 z m -0.0387,0.5475 c 2.3075,-0.0425 4.46375,1.0175 4.765,2.07 -2.67,2.9375 -6.9375,2.6825 -9.60875,0.54625 1.16875,-1.86875 3.04875,-2.58375 4.84375,-2.6175 z"
     style="stroke-width:1.25" />
  <use
     xlink:href="#d"
     transform="matrix(-1,0,0,1,1000.3125,0)"
     id="use11" />
  <use
     xlink:href="#e"
     transform="matrix(-1,0,0,1,1000.3125,0)"
     id="use12" />
  <use
     xlink:href="#f"
     transform="translate(23.5775)"
     id="use13" />
  <use
     xlink:href="#g"
     transform="matrix(-1,0,0,1,1000.3125,0)"
     id="use14" />
  <path
     d="m 494.6875,304.8 c -1.14125,0.20875 -1.95375,1.22125 -1.95375,2.3825 0,1.3275 1.0975,2.3825 2.4225,2.3825 A 2.3625,2.3625 0 0 0 497.11,308.55 c 0.92375,0.695 2.205,0.76875 2.89,0.78125 0.105,0.002 0.24125,0 0.3125,0 0.685,-0.0125 1.96625,-0.0863 2.89125,-0.78125 0.45,0.645 1.16875,1.015 1.9525,1.015 1.325,0 2.4225,-1.055 2.4225,-2.3825 0,-1.16125 -0.8125,-2.175 -1.95375,-2.3825 0.64125,0.225 1.055,0.845 1.055,1.52375 a 1.6,1.6 0 0 1 -1.60125,1.60125 c -0.85,0 -1.5525,-0.675 -1.6025,-1.52375 -0.26,0.52125 -1.2925,2.06875 -3.32,2.14875 -2.0275,-0.08 -3.05875,-1.6275 -3.32,-2.14875 -0.05,0.84875 -0.75,1.52375 -1.60125,1.52375 a 1.6,1.6 0 0 1 -1.60125,-1.60125 c 0,-0.6775 0.4125,-1.2975 1.05375,-1.52375 z m 2.6125,7.1125 c -2.6725,0 -3.72875,2.42125 -6.1325,4.02375 1.335,-0.53375 2.3875,-1.5875 4.2575,-2.65625 1.87,-1.06875 3.465,0.23375 4.53125,0.23375 h 0.0387 c 1.06625,0 2.6625,-1.30125 4.53125,-0.23375 1.87125,1.07 2.96125,2.1225 4.2975,2.65625 -2.405,-1.6025 -3.5,-4.02375 -6.1725,-4.02375 -0.5325,0 -1.58875,0.2875 -2.65625,0.82 h -0.0387 c -1.06625,-0.5325 -2.1225,-0.82 -2.65625,-0.82 z"
     fill="#85340a"
     id="path14"
     style="stroke-width:1.25" />
  <path
     d="m 496.4,315.075 c -1.055,0.0462 -2.45,0.25875 -4.45375,0.86 4.81,-1.06875 5.87125,0.54625 8.00875,0.54625 h 0.0375 c 2.1375,0 3.2,-1.615 8.00875,-0.5475 -5.3425,-1.6025 -6.405,-0.54625 -8.0075,-0.54625 h -0.0387 c -1.0025,0 -1.79625,-0.39 -3.555,-0.3125 z"
     fill="#85340a"
     id="path15"
     style="stroke-width:1.25" />
  <path
     d="m 492.1875,315.9 c -0.31,0.004 -0.64875,0.006 -1.01625,0.0388 5.61,0.535 2.91375,3.75 8.79,3.75 h 0.0375 c 5.8775,0 3.21875,-3.215 8.82875,-3.75 -5.875,-0.5325 -4.0175,2.93 -8.8275,2.93 h -0.0387 c -4.51,0 -3.12,-3.02625 -7.775,-2.96875 z m 12.625,8.675 a 4.81,4.81 0 0 0 -4.8075,-4.8075 4.81,4.81 0 0 0 -4.80875,4.8075 4.94375,4.94375 0 0 1 4.80875,-3.8 4.94,4.94 0 0 1 4.8075,3.8 z"
     fill="#85340a"
     id="path16"
     style="stroke-width:1.25" />
  <path
     id="e"
     fill="#85340a"
     d="m 478.4125,292.525 c 6.14375,-5.34125 13.8875,-6.14375 18.1625,-2.13625 1.04625,1.40125 1.71625,2.9 1.99125,4.4625 0.5375,3.04125 -0.4125,6.3275 -2.795,9.695 0.26875,-10e-4 0.80375,0.265 1.07,0.53375 2.12125,-4.055 2.87125,-8.22125 2.175,-12.1825 a 17.26875,17.26875 0 0 0 -0.8375,-3.045 c -5.875,-4.80625 -13.8875,-5.34 -19.7625,2.6725 z"
     style="stroke-width:1.25" />
  <path
     id="d"
     fill="#85340a"
     d="m 488.025,290.925 c 3.47125,0 4.27375,0.8025 5.875,2.1375 1.605,1.335 2.405,1.0675 2.67125,1.335 0.26625,0.26875 0,1.0675 -0.5325,0.8 -0.5325,-0.2675 -1.605,-0.8 -3.205,-2.135 -1.60375,-1.3375 -3.20375,-1.33625 -4.8075,-1.33625 -4.8075,0 -7.47875,4.00625 -8.0125,3.73875 -0.5325,-0.2675 2.67125,-4.54 8.0125,-4.54 z"
     style="stroke-width:1.25" />
  <use
     xlink:href="#h"
     transform="translate(-23.97625)"
     id="use16" />
  <circle
     id="f"
     cy="295.1875"
     cx="488.17502"
     r="2.4037499"
     fill="#85340a"
     style="stroke-width:1.25" />
  <path
     id="g"
     fill="#85340a"
     d="m 481.6125,296.8 c 4.54125,3.4725 9.08125,3.205 11.7525,1.6025 2.67,-1.6025 2.67,-2.13625 2.1375,-2.13625 -0.53375,0 -1.06625,0.53375 -3.205,1.60125 -2.1375,1.07 -5.34125,1.07 -10.6825,-1.0675 z"
     style="stroke-width:1.25" />
</svg>
