<?xml version="1.0" encoding="UTF-8" standalone="no"?>
<svg
   width="1000"
   height="600"
   version="1.1"
   id="svg71"
   sodipodi:docname="as.svg"
   inkscape:version="1.3.2 (091e20e, 2023-11-25, custom)"
   xmlns:inkscape="http://www.inkscape.org/namespaces/inkscape"
   xmlns:sodipodi="http://sodipodi.sourceforge.net/DTD/sodipodi-0.dtd"
   xmlns="http://www.w3.org/2000/svg"
   xmlns:svg="http://www.w3.org/2000/svg">
  <defs
     id="defs71" />
  <sodipodi:namedview
     id="namedview71"
     pagecolor="#505050"
     bordercolor="#eeeeee"
     borderopacity="1"
     inkscape:showpageshadow="0"
     inkscape:pageopacity="0"
     inkscape:pagecheckerboard="0"
     inkscape:deskcolor="#505050"
     inkscape:zoom="0.5015"
     inkscape:cx="458.62413"
     inkscape:cy="138.58425"
     inkscape:window-width="2560"
     inkscape:window-height="1417"
     inkscape:window-x="3832"
     inkscape:window-y="313"
     inkscape:window-maximized="1"
     inkscape:current-layer="svg71" />
  <path
     fill="#000066"
     d="M 0,0 H 1000 V 600 H 0 Z"
     id="path1"
     style="stroke-width:1.09545" />
  <path
     fill="#bd1021"
     d="M 0,300 1000,0 v 600 z"
     id="path2"
     style="stroke-width:1.09545" />
  <path
     fill="#ffffff"
     d="M 107.14,300 1000,32.148 v 535.704"
     id="path3"
     style="stroke-width:1.09545" />
  <path
     d="m 722.84283,318.62632 c 8.00788,0.61516 7.73394,8.55456 7.73394,8.55456 l 28.35737,0.63197 c 3.62728,-9.88699 7.39152,-8.74198 14.28081,-3.85915 6.54568,4.63892 13.68849,6.71027 13.68849,6.71027 2.73817,-14.1895 22.85939,-11.32036 22.85939,-11.32036 8.57858,-20.49007 9.30788,-20.21733 4.19798,-22.81253 -5.10991,-2.59521 -7.19448,-6.98542 -7.19448,-6.98542 -4.85038,-5.85482 -7.40593,-14.32407 -7.95381,-19.51927 -0.54787,-5.19521 -6.5709,2.6 -7.66545,0.95998 -1.09455,-1.63882 -10.03838,-0.68244 -10.03838,-0.68244 2.1903,2.32246 -5.29253,0.95638 -5.29253,0.95638 0.7305,0.54667 0,2.73217 0,2.73217 -0.7305,-0.95638 -6.38828,-1.91276 -6.38828,-1.91276 -0.54787,1.22912 -1.82505,2.5952 -1.82505,2.5952 -3.10222,-1.36608 -9.30788,-1.09335 -9.30788,-1.09335 -9.12525,-0.13697 -14.6004,2.73217 -17.15595,4.23523 -2.55556,1.50305 -11.68081,6.14678 -19.16364,13.3869 -7.48283,7.24013 -11.6808,6.42072 -11.6808,6.42072 -2.19031,8.05954 -20.07556,17.89487 -20.07556,17.89487 -2.9196,2.5952 -11.86343,3.82432 -16.42546,0 -4.56203,-3.82431 0,-10.65474 0,-10.65474 1.68808,-3.19354 3.36175,-3.06137 3.54798,-14.14144 0.12615,-7.49244 7.86009,-13.43497 15.79828,-22.14331 9.70557,-10.64633 23.2703,-28.17354 23.2703,-28.17354 0.0685,5.37903 3.01091,6.25011 3.01091,6.25011 2.66969,-5.48116 6.50242,-9.887 6.50242,-9.887 0.20545,0.46137 0.75333,0.76895 0.75333,0.76895 3.01091,-4.09825 4.85879,-5.73708 4.85879,-5.73708 -1.02606,-0.4097 -9.44485,0 -17.31575,6.86407 -7.87091,6.86407 -13.27758,4.55962 -13.27758,4.55962 -5.47515,-1.74215 -5.95454,-5.94253 -5.95454,-5.94253 -3.99733,-17.20161 11.70363,-29.50598 11.70363,-29.50598 -21.08,-5.0198 -5.88606,-31.75997 20.25819,-43.132 26.14424,-11.37202 25.8703,-16.49514 25.8703,-16.49514 1.50546,1.74215 2.73818,4.81554 2.73818,4.81554 0.27394,-0.20546 2.1903,-3.07339 17.24727,-9.73321 15.05697,-6.65981 22.31152,-12.39689 22.31152,-12.39689 1.91636,3.68855 1.50545,6.35224 1.50545,6.35224 41.20122,-14.44542 81.78727,-47.588292 81.78727,-47.588292 1.16303,2.765812 0.54788,6.966192 0.54788,6.966192 6.70667,-6.198445 30.93575,-20.64386 30.93575,-20.64386 0.4109,9.220171 -7.18606,12.75493 -7.18606,12.75493 0.82181,1.332444 1.3,3.739012 1.3,3.739012 3.96969,-2.151854 22.44848,-15.060574 22.44848,-15.060574 6.77516,5.839201 0.61636,15.418615 0.61636,15.418615 2.39576,-0.358041 4.17515,-2.458231 4.17515,-2.458231 1.71091,9.937458 -9.30788,18.697458 -9.30788,18.697458 1.91637,0.0517 5.13273,-1.84427 5.13273,-1.84427 -2.05333,10.86019 -22.65393,22.89784 -22.65393,22.89784 3.01091,2.66368 0.13696,6.19844 -2.32727,7.7868 -2.46424,1.58836 -6.84364,5.07145 -5.47516,6.50602 1.36849,1.43457 10.47212,-4.96933 10.47212,-4.96933 1.57394,4.55963 -10.12969,13.52388 -10.12969,13.52388 8.14484,1.07533 30.79878,-9.22017 30.79878,-9.22017 -1.84788,8.76001 -10.40363,15.57241 -20.94303,19.51687 -10.5406,3.94447 -9.99272,4.55963 -9.99272,4.55963 1.84788,1.48503 16.42545,-2.76582 16.42545,-2.76582 -4.3806,9.78367 -19.57454,16.49515 -19.57454,16.49515 4.17515,3.53476 9.85576,-0.5635 15.53636,-4.4563 5.68061,-3.8928 13.41455,-7.22331 21.9691,-10.09124 8.55574,-2.86914 14.57754,-0.71729 14.57754,-0.71729 7.1176,-2.25398 13.1406,0.92154 13.1406,0.92154 13.68849,1.12699 15.05699,6.09632 15.05699,6.09632 1.5055,0.35804 2.6697,0.9732 6.16,3.53476 3.4903,2.56156 3.2849,10.50095 3.1479,14.39495 -0.137,3.8928 -1.2315,3.8928 -1.9164,4.96933 -0.6848,1.07653 -0.7533,2.30564 -0.7533,3.79067 0,1.48503 -3.4218,10.70641 -24.57029,10.80853 -21.14849,0.10213 -32.05313,0 -32.05313,0 -1.74576,0 -3.83273,1.02487 -3.83273,1.02487 -8.89697,4.40583 -4.19798,-3.00491 -14.78303,5.70343 -10.58506,8.70834 -15.9701,7.20529 -15.9701,7.20529 -1.73374,2.08337 -12.82101,12.39689 -19.16363,16.49514 -6.34263,4.09825 -5.20122,3.72219 0.31959,6.11314 5.52081,2.39095 13.87111,0 13.87111,0 -5.33819,3.55158 -1.64243,5.1904 -1.64243,5.1904 7.02627,-4.26886 11.2699,-2.69733 11.2699,-2.69733 2.23596,6.11314 -5.79474,15.77786 -5.79474,15.77786 3.10222,0.40971 8.94262,0 8.94262,0 -1.41414,4.1319 -7.25454,8.6747 -11.54383,10.07443 -4.28929,1.39972 -3.51314,1.9464 -2.23596,4.5416 1.27717,2.5952 0.18262,5.22524 0.18262,5.22524 -7.48282,-5.1904 -7.75676,-0.54667 -7.75676,-0.54667 -0.86387,6.15158 -0.7305,14.95845 -0.7305,14.95845 -5.29253,-2.66369 -5.56647,0.88789 -5.56647,0.88789 -1.36849,5.60011 -7.84808,12.08931 -7.84808,12.08931 -0.27393,-3.48309 -3.46747,-4.37099 -3.46747,-4.37099 -3.37617,6.488 -9.58182,10.382 -9.58182,10.382 -0.82181,5.60011 0.7305,13.4554 0.7305,13.4554 -4.01535,-0.81941 -5.47515,-0.75093 -6.11434,0.20545 -0.63919,0.95638 0.91313,1.43457 0.91313,1.43457 l 52.28968,1.2976 c 0.73051,0.0685 3.83273,0.40971 3.92404,6.0783 0.0913,5.66859 -4.56322,5.94253 -4.56322,5.94253 l -57.21697,-1.36609 c 0,0 0.27394,1.57034 -2.73818,3.14188 -3.01211,1.57153 -2.00767,-1.77579 -2.82949,5.25888 -0.82181,7.03468 -12.22868,-0.54667 -12.22868,-0.54667 -1.82505,2.73217 -6.29696,6.28375 -6.29696,6.28375 -2.55555,-7.71832 -5.20122,-10.10807 -9.30788,-3.41461 -4.10667,6.69345 7.39151,5.53282 7.39151,5.53282 0,0 67.16404,-9.90381 70.81414,-10.24503 3.6501,-0.34123 7.66545,-0.13697 9.30788,4.98614 1.64242,5.12312 -8.12202,5.94253 -8.12202,5.94253 l -68.89777,7.51287 c -1.4598,4.09825 -7.20889,3.75703 -7.20889,3.75703 0.45656,3.8928 -3.6501,6.35224 -5.74909,7.78681 -2.09899,1.43456 -8.66869,0.75092 -8.66869,0.75092 -8.03071,5.46434 -11.95475,1.16063 -11.95475,1.16063 -5.20121,2.25398 -8.48726,1.2976 -12.77535,-0.54667 -4.28929,-1.84428 -3.92404,-7.03468 -3.92404,-7.03468 l -43.48283,4.50796 a 10.515368,10.515368 0 0 0 -3.46747,2.08337 c 1.55111,1.98125 -3.11424,6.58292 -3.11424,6.58292 1.3,0.89631 3.79788,3.4062 4.1403,8.8369 0.36165,5.74428 -7.01545,6.71027 -3.31969,10.7064 3.69576,3.99613 10.43727,0.69206 17.96575,-2.9196 7.52849,-3.61165 14.92001,-3.15028 18.13637,-3.12505 3.21637,0.0252 12.18303,2.27921 17.76031,4.25204 5.57848,1.97163 7.49484,0.79418 7.8709,-2.07496 0.37607,-2.86914 2.87515,-3.68855 2.87515,-3.68855 -0.68485,2.81748 0.82181,4.07303 0.82181,4.07303 2.15546,0.15379 5.9197,-1.9464 5.9197,-1.9464 -0.34242,2.07496 -3.0794,3.38097 -3.0794,3.38097 -5.47515,3.66211 2.05334,2.30564 2.05334,2.30564 14.98848,-3.07339 20.32667,-2.76581 24.22788,-2.35611 3.90121,0.40971 22.31151,8.24698 22.31151,8.24698 0.68485,-1.84428 0.20546,-6.4027 0.20546,-6.4027 4.72302,1.28078 6.63938,3.99613 6.63938,3.99613 1.7794,-1.9464 0.61637,-5.22525 0.61637,-5.22525 15.19393,8.50289 -3.14789,12.34523 -8.00788,13.98405 -4.85879,1.63882 -4.79031,3.63688 -4.79031,3.63688 4.03818,-1.28077 6.84364,-1.74214 10.19818,-1.99806 3.35333,-0.25591 2.1903,-0.0517 10.19818,-1.63882 8.00787,-1.58836 12.11454,1.79261 12.11454,1.79261 -6.70667,0.35804 -8.69152,2.35611 -8.69152,2.35611 4.24363,2.9196 0.20545,5.37903 0.20545,5.37903 -6.09151,-7.68348 -11.29273,0.30758 -11.29273,0.30758 2.08698,-0.30758 8.21333,0.9732 9.95788,2.07496 1.35047,0.85185 4.51758,2.40777 8.45243,4.22561 5.55685,2.56757 4.51757,0.92154 8.82849,2.56156 4.31091,1.64002 2.66969,5.78874 2.66969,5.78874 -1.84788,-3.38097 -5.81758,-4.55963 -5.81758,-4.55963 -0.34242,4.55963 -4.92727,5.32737 -4.92727,5.32737 5.61212,-6.2501 -6.50242,-8.96425 -12.18303,-8.86212 -5.6806,0.10212 -9.92424,3.73901 -9.92424,3.73901 11.4297,10.7064 19.36909,7.2233 19.36909,7.2233 -1.43697,3.89281 -10.88182,2.35611 -10.88182,2.35611 4.3806,3.32931 3.90121,5.68661 3.90121,5.68661 -2.32727,-2.25398 -6.16,-1.12699 -14.37212,-6.45436 -8.21213,-5.32737 -15.53636,-3.58522 -15.53636,-3.58522 8.00787,8.55455 -2.94243,13.62601 -2.94243,13.62601 -4.03818,2.30564 1.71091,5.42949 1.71091,5.42949 -5.06425,0.92154 -5.74909,-4.14871 -5.74909,-4.14871 -2.6697,-0.51183 -6.50242,2.71535 -6.50242,2.71535 0.27394,-5.22525 7.11758,-2.61203 7.32303,-8.04272 0.20545,-5.4307 -6.36545,-9.62988 -25.73454,-6.96619 -19.36909,2.66368 -25.04969,-3.53476 -25.04969,-3.53476 -1.64243,0.0517 -1.98485,1.69048 -1.98485,1.69048 3.21637,3.07339 4.65454,4.35417 4.10666,6.50602 -0.54787,2.15186 1.02607,2.86914 1.02607,2.86914 -3.55879,-0.20545 -3.83273,-4.45629 -3.83273,-4.45629 -0.0685,1.74215 -0.82181,1.89594 -1.98484,3.73901 -1.16304,1.84427 -0.0685,4.20038 -0.0685,4.20038 -1.50546,-1.33244 -4.24363,-2.9196 -1.64242,-6.71028 2.00287,-2.9196 -4.17515,-6.65981 -4.17515,-6.65981 -2.39576,-2.45823 -8.76001,-0.15379 -8.76001,-0.15379 -13.20909,2.61202 -20.94303,-5.73708 -20.94303,-5.73708 -1.50545,0 -4.3806,-0.81941 -4.3806,-0.81941 -13.96242,6.25011 -26.21273,-7.27377 -26.21273,-7.27377 -10.53939,1.99807 -15.3309,-3.07339 -18.54727,-8.04272 -3.21637,-4.96932 -3.83273,-5.37903 -8.07636,-7.93939 -4.24363,-2.56156 -8.20973,-9.80769 -4.31212,-13.626 3.39899,-3.32931 2.39576,-4.09826 2.39576,-4.09826 -5.47516,-9.20335 9.76444,-12.17101 10.03838,-14.37332 0.39889,-3.21397 3.58161,-5.24567 7.00343,-5.45113 3.42182,-0.20545 3.42182,0.10213 5.68061,-2.20231 2.25878,-2.30565 6.5709,0.56349 6.5709,0.56349 0.8903,-0.66562 8.41879,-6.50602 15.12546,-3.48309 6.70787,3.02293 12.25151,0.87107 12.25151,0.87107 4.72302,-1.02486 43.93939,-6.35223 43.93939,-6.35223 2.53272,-3.79068 4.31211,-8.3503 15.12545,-10.80853 10.81334,-2.45823 19.02667,-9.16971 19.02667,-9.16971 -1.91637,-2.04853 -5.13273,-1.9464 -6.77516,-2.15186 -1.64243,-0.20545 -5.06425,-3.12505 -5.06425,-3.12505 -1.98484,0.87108 -3.0025,0.44455 -17.17878,9.06638 -12.66122,7.7015 -13.02647,-7.58015 -13.02647,-7.58015 l -27.62687,0.0505 c -0.47939,5.8392 -4.92728,8.14484 -4.92728,8.14484 l -10.0612,0.51183 c -5.61213,-2.97126 -5.68061,-12.85705 -5.68061,-12.85705 -30.38788,0.46136 -47.29273,11.32036 -47.29273,11.32036 -34.42605,-17.62214 -61.39211,-21.61706 -61.39211,-21.61706 41.81757,-4.55963 63.92364,-16.18757 63.92364,-16.18757 23.06484,13.83146 44.7612,14.1895 44.7612,14.1895 0.82181,-8.3503 6.43393,-10.39882 6.43393,-10.39882 z"
     id="path4"
     style="stroke-width:1.20148" />
  <path
     d="m 673.12431,388.0167 c -8.73837,5.12432 -7.15842,7.92257 -6.39789,9.49651 0.77616,1.60518 0.86627,3.14188 -1.50545,5.53283 -2.37293,2.39095 -2.14465,3.22117 -2.14465,3.22117 0.36525,8.49328 6.38107,10.2967 8.88977,12.38007 2.10139,1.74455 5.66498,7.21129 5.66498,7.21129 4.47192,6.42072 9.21657,6.488 12.7297,6.488 3.51313,0 3.20075,-0.29796 1.41415,-1.87791 -1.67968,-1.48623 -5.20122,-4.37099 -5.20122,-4.37099 4.699,1.63882 9.17091,6.55648 9.17091,6.55648 8.87895,9.71519 17.06465,8.43561 20.66909,7.95742 3.60445,-0.47819 2.96526,-2.56156 2.96526,-2.56156 -0.18983,-0.34603 -3.69576,-0.61516 -3.69576,-0.61516 -13.32323,-1.26396 -17.33858,-10.00594 -17.33858,-10.00594 8.0307,7.88893 20.62343,9.49411 24.50182,9.34873 3.87838,-0.14538 3.6501,0.96479 2.82828,1.17024 -0.82181,0.20546 -2.00767,0 -3.78707,-0.13697 -1.77939,-0.13697 -1.77939,0.30758 -1.36848,1.05851 0.4109,0.75093 2.08697,0.82782 4.20879,0.75093 2.12181,-0.0769 0.4109,0.15378 5.9197,4.43106 5.50999,4.27727 19.23212,0.81941 19.23212,0.81941 -8.86334,-2.20232 -10.09485,-6.19844 -10.09485,-6.19844 -12.04606,1.40813 -16.9397,-5.81397 -16.9397,-5.81397 -2.15545,-2.15186 -8.59179,-5.47876 -8.59179,-5.47876 -6.8076,-2.922 -7.86851,-9.0832 -7.86851,-9.0832 1.91637,2.72736 5.64697,5.85362 10.36879,7.15963 4.72183,1.30601 6.05667,1.99806 6.05667,1.99806 -2.25878,0.33281 -3.59363,-0.4097 -3.59363,-0.4097 -4.72303,-1.38291 -2.05333,0.53826 -2.05333,0.53826 5.20121,4.14872 6.63939,3.84234 6.63939,3.84234 13.65363,1.40813 6.87848,-4.04659 6.87848,-4.04659 9.71878,2.30564 11.32757,-1.33245 11.32757,-1.33245 2.01849,4.27728 9.37636,2.74058 9.37636,2.74058 -9.78727,4.71222 -2.36091,3.36656 -2.36091,3.36656 9.8894,-1.85509 11.82859,0.66321 11.82859,0.66321 2.6769,2.48947 5.38384,2.14345 5.38384,2.14345 0,0 1.77939,0.0517 5.54364,0.80499 3.76424,0.75333 9.51333,3.95888 14.98848,3.28125 5.47515,-0.67764 6.36545,1.04048 6.36545,1.04048 -1.02606,-0.35444 -3.42182,-0.72089 -7.66545,1.17505 -4.24364,1.89594 -11.56667,2.50989 -22.24303,0 -10.67637,-2.5099 -11.49819,-2.20232 -11.49819,-2.20232 2.53273,1.89474 4.79031,4.55963 5.2697,6.4027 0.4794,1.84307 2.32727,1.9464 2.32727,1.9464 0.75333,-2.35611 3.9697,-3.38097 3.9697,-3.38097 2.1062,1.9464 7.73394,4.50796 7.73394,4.50796 0.61636,-1.28078 0,-2.17709 0,-2.17709 4.10666,3.91924 8.89697,2.74058 8.89697,2.74058 1.2988,-0.91913 0.8903,-3.12505 0.8903,-3.12505 1.64242,-0.0517 1.91636,0.9732 3.0794,1.74215 1.16303,0.76895 4.85879,0.25591 4.85879,0.25591 -1.36849,-0.56349 -2.32727,-2.66368 -2.32727,-2.66368 5.40667,-3.73901 17.1103,-2.10019 17.1103,-2.10019 8.45242,1.48503 7.39152,7.01785 7.39152,7.01785 1.71091,0.81942 3.96969,3.38097 3.96969,3.38097 0.71849,-1.9464 0.0685,-3.91923 0.0685,-3.91923 3.86757,1.84428 4.68818,6.35223 4.68818,6.35223 4.48273,-5.12311 -4.27728,-10.88542 -4.27728,-10.88542 4.24364,-0.53826 8.93182,-0.15379 11.77212,0.25592 2.8403,0.4097 6.91213,1.89593 10.23182,4.66174 3.31969,2.76582 9.27424,4.0466 9.27424,4.0466 -0.18263,-1.14261 -3.35334,-3.07339 -4.07182,-3.4831 -0.71849,-0.40971 -1.02607,-1.40814 -1.02607,-1.40814 2.90879,0.51183 4.92728,0.25592 4.92728,0.25592 -10.23182,-6.25011 -12.79819,-9.22017 -12.79819,-9.22017 3.83273,0.4866 5.95455,-1.89594 5.95455,-1.89594 -8.07636,0.17902 -8.3503,-1.92117 -8.3503,-1.92117 0.99242,0.28115 4.65454,1.17865 9.47969,0.23068 4.82515,-0.94796 11.53182,0.0252 11.53182,0.0252 -3.4903,-5.60972 -17.00817,-4.66175 -21.31909,-4.43107 -4.31092,0.23069 -5.98819,-0.33281 -5.98819,-0.33281 0.68485,-0.33281 1.40334,-1.05009 4.79031,-1.07533 3.38818,-0.0252 6.70667,0.25592 10.5394,-2.38253 3.83273,-2.63846 9.09161,-1.76738 9.09161,-1.76738 -1.27717,-2.52672 -7.34586,-3.41461 -12.68404,0 -5.33818,3.41461 -10.17535,2.32246 -10.17535,2.32246 8.44161,-1.19547 10.90465,-4.16674 10.90465,-4.16674 -2.55555,-0.61516 -3.9697,0.20546 -9.03394,1.19548 -5.06425,0.99002 -6.43394,-0.75093 -6.43394,-0.75093 5.56647,-3.31249 9.44485,-4.64493 9.44485,-4.64493 -4.74465,-0.99002 -9.12525,-3.01572 -9.12525,-3.01572 -4.92728,4.63412 -8.76001,7.24974 -18.20485,2.29844 -9.44485,-4.95131 -14.37213,-4.37099 -14.37213,-4.37099 8.30464,-4.91767 16.83636,-2.80066 23.04202,0.92153 6.20565,3.72219 7.98505,0.68244 7.98505,0.68244 -1.96202,-1.22911 -1.68809,-2.28762 -1.68809,-2.28762 15.05697,7.68348 21.58222,2.90278 24.91273,0.6488 3.33051,-2.25398 -1.50546,-5.25888 -1.50546,-5.25888 -0.31959,4.88402 -6.47959,7.10316 -11.31555,5.46434 -4.83597,-1.63882 -9.30788,-3.72219 -16.26566,-6.62497 -6.95778,-2.90278 -15.67333,-1.39973 -23.79535,0.30758 -8.12202,1.7073 -9.17091,0.88789 -9.90141,0.23909 -0.7305,-0.6488 -1.14021,-2.63004 -5.29253,-0.92154 -4.15232,1.70731 -13.82545,-2.83429 -19.84848,-4.26886 -6.02303,-1.43457 -15.88238,-0.65 -24.4105,4.02977 -8.52812,4.67977 -12.7297,3.51794 -15.28525,2.3561 -2.55556,-1.16183 -4.15232,-4.37099 -1.41415,-7.24012 2.73818,-2.86914 2.96526,-3.65371 2.73818,-7.78681 -0.22828,-4.13189 -4.28929,-6.59133 -4.28929,-6.59133 3.74141,-3.85916 4.65454,-4.71221 3.37616,-6.38587 -1.27717,-1.67367 0.7305,-1.63882 2.87515,-2.5952 2.14464,-0.95638 1.18586,-1.09335 0.68484,-2.35611 -0.50222,-1.26396 -1.73373,-1.0585 -1.73373,-1.0585 -4.97294,0.20545 -7.71111,-1.16064 -7.71111,-1.16064 -8.23616,-3.79067 -15.87879,3.58523 -15.87879,3.58523 -4.67857,-3.58402 -5.74909,-1.26396 -6.5709,-0.37607 -0.82181,0.8879 -2.46424,1.50306 -4.65454,1.70731 -1.99206,0.18623 -5.00297,0.96599 -6.04706,2.82708 0,0 -0.92274,1.49585 0.22828,3.13347 0,0 1.27838,1.92838 -1.04769,4.25805 -2.32727,2.33087 -3.14788,2.89437 -2.4294,5.09669 0.71849,2.20231 0.51304,3.8928 -0.37606,5.32737 0,0 -1.06091,-1.22912 -0.78697,-2.74058 0.27394,-1.51147 0.27394,-2.38254 -0.0685,-3.20195 0,0 -2.29243,2.25398 -2.70334,3.86757 0,0 -0.95758,-2.48467 2.36091,-5.81397 3.3185,-3.32931 4.83116,-4.98735 3.90121,-6.27534 -0.68484,-0.94797 -3.11304,0.58632 -3.69696,0.92874 z"
     fill="#ffc221"
     id="path5"
     style="stroke-width:1.20148" />
  <path
     d="m 682.55595,424.73399 c 0,0 -4.15232,-3.17552 -3.65011,-7.58135 0.50222,-4.40584 0.41812,-4.95131 -0.0421,-5.87405 0,0 -0.75693,0.43854 -0.7341,2.15186 0.0216,1.60758 -0.20666,3.27884 -0.36525,3.58522 0,0 -2.14465,-3.65371 -3.01092,-4.33735 0,0 0.7305,-3.82432 -0.45656,-5.46434 -1.18586,-1.63882 -2.33448,-1.74215 -3.69576,-1.22912 -1.88392,0.70888 -3.30647,2.45944 3.02413,7.64984 0,0 2.35971,1.87791 4.00334,6.04465 1.64243,4.16674 4.3806,4.81554 4.92728,5.05464 z m 20.57898,-12.19144 c 0,0 -0.3196,-2.49307 1.91636,-6.89891 2.23596,-4.40583 0.8951,-7.67867 0.39288,-8.77202 -0.50222,-1.09334 -0.80379,-0.68724 1.45139,-2.58078 2.77543,-2.32967 -1.06931,-5.2709 3.49391,-9.35594 0,0 3.01092,-2.58198 3.69576,-3.64049 0,0 -4.83596,2.5952 -7.98505,3.8928 -3.14788,1.2976 -15.19394,7.20529 -12.54707,11.16658 2.64686,3.96128 2.37293,4.16673 1.96202,5.80555 0,0 -7.16324,-3.79067 -4.65454,-9.93745 0,0 1.1378,-2.47625 4.15232,-5.25889 2.73818,-2.52671 1.09455,0.54668 6.66101,-2.63004 0,0 4.42626,-2.63004 6.75233,-6.18162 0,0 -2.9196,1.84427 -3.96969,2.15185 0,0 -6.43394,1.16063 -9.03395,3.8928 -2.6012,2.73217 -8.12201,7.47923 -6.2513,12.77175 0,0 -6.43394,-0.78577 -7.89374,-7.47922 0,0 -11.90909,14.68451 13.09495,21.51493 10e-4,0.002 4.56443,1.2147 8.76241,1.5391 z"
     id="path6"
     style="stroke-width:1.20148" />
  <path
     d="m 813.11616,363.4464 c 9.33792,-1.41174 63.45626,-9.59023 68.37393,-10.08884 5.38384,-0.54668 7.44558,-1.26516 9.21657,3.07339 2.00767,4.91766 -7.39152,4.98615 -7.39152,4.98615 l -64.51837,7.31462 c -3.1647,0.36525 -3.87238,-0.84224 -3.87238,-0.84224 -0.55868,-1.03087 -1.63762,-2.40296 -2.38133,-3.30167 0,-10e-4 -0.84945,-0.92634 0.5731,-1.14141 z"
     fill="#ffc221"
     id="path7"
     style="stroke-width:1.20148" />
  <path
     d="m 680.95798,392.7986 c 0,0 -6.98061,14.70133 20.46363,18.33822 0,0 0.0685,-1.63882 1.16304,-3.94447 1.09455,-2.30564 3.4903,-6.96619 1.23152,-9.98912 -2.25879,-3.02293 1.84788,-1.43457 2.46424,-5.37903 0.61636,-3.94447 -0.41091,-3.38097 1.50545,-5.94253 0,0 -8.62303,3.12505 -11.90909,6.91573 -3.28485,3.79067 4.44909,6.65981 -0.13696,10.80853 0,0 -3.83273,-1.38291 -6.09152,-5.53282 0.002,0.001 -5.33578,0.10452 -8.69031,-5.27451 z"
     fill="#5a3719"
     id="path8"
     style="stroke-width:1.20148" />
  <path
     d="m 707.78706,410.85687 c 0,0 6.77516,5.86564 14.85152,5.60972 8.07636,-0.25592 11.49818,-2.40777 13.55151,-5.60972 0,0 1.57034,2.48106 1.57394,4.12349 0,0 6.98061,-5.78874 19.02667,-0.76895 12.04606,5.01979 8.3503,3.64049 11.01879,3.99733 0,0 -5.12072,-0.91072 -16.83637,4.45509 -12.04485,5.51721 -43.45999,3.63689 -43.18606,-11.80696 z"
     id="path9"
     style="stroke-width:1.20148" />
  <path
     d="m 696.56162,384.91207 c 0,0 3.04576,0.46137 6.09151,-2.97126 0,0 -4.10666,0.76895 -6.09151,2.97126 z m -23.01438,27.30368 c 0,0 -5.66259,-4.4563 -2.03531,-5.32737 0,0 2.58318,-0.40971 2.03531,5.32737 z"
     fill="#5a3719"
     id="path10"
     style="stroke-width:1.20148" />
  <path
     d="m 796.82768,440.08532 c 0,0 3.01091,-5.38264 11.70363,-5.38264 8.69272,0 9.71879,3.99613 20.66909,4.76388 0,0 -13.14902,3.70537 -22.31152,0.30757 -4.7903,-1.77579 -9.10242,-0.29916 -10.0612,0.31119 z"
     id="path11"
     style="stroke-width:1.20148" />
  <path
     d="m 710.79798,414.7761 c 0,0 13.00363,7.88893 24.5703,-0.66562 0,0 0.95878,0.92154 1.77939,3.02173 0,0 8.76001,-8.45362 24.43334,0.66562 0,0 -1.92598,-0.21386 -9.30788,2.97127 -9.61666,4.14991 -33.67273,6.86526 -41.47515,-5.993 z"
     fill="#5a3719"
     id="path12"
     style="stroke-width:1.20148" />
  <path
     d="m 760.96465,422.76836 c 0,0 12.45576,1.44418 22.99636,0.81941 6.47598,-0.38327 13.48303,-1.56913 9.99272,0.62477 -3.4903,2.19271 -1.77939,2.39816 13.14061,1.01525 14.92,-1.3829 -0.13697,2.81748 10.12969,4.14872 0,-10e-4 -24.88269,12.70327 -56.25938,-6.60815 z"
     id="path13"
     style="stroke-width:1.20148" />
  <path
     d="m 793.67979,414.82777 c 0,0 7.32304,-2.66369 14.09939,0.51183 6.77516,3.17552 5.74909,3.43263 10.26666,3.8928 0,0 -3.14788,4.50796 -10.60788,0.87108 -7.4612,-3.63689 -9.43764,-4.33856 -13.75817,-5.27571 z m 8.14485,22.48813 c 0,0 7.18486,-3.58402 15.12786,0.14178 0.99362,0.46617 3.16109,1.36608 5.19881,1.80462 0,0 -6.08551,1.88633 -12.32,-0.0517 -2.59159,-0.80499 -4.65334,-1.43337 -8.00667,-1.89474 z m -35.52181,-12.85825 c 0,0 16.01575,1.48503 24.70727,-0.24631 0,0 -10.06121,4.85639 15.19394,2.60241 0,0 5.61212,-0.61516 4.92728,0.25592 -0.68485,0.87107 -1.09455,1.53669 1.64242,2.3561 10e-4,10e-4 -18.75152,8.40196 -46.47091,-4.96812 z"
     fill="#5a3719"
     id="path14"
     style="stroke-width:1.20148" />
  <path
     d="m 686.29255,410.85687 c 0,0 0.13697,1.22912 3.69576,2.81748 3.55879,1.58836 5.47516,4.43106 6.22848,5.96776 0.75333,1.53669 2.56637,3.83633 5.51,4.56923 0,0 -12.55548,2.62043 -18.18202,-3.91082 0,0 -4.26647,-4.705 2.61202,-9.44365"
     id="path15"
     style="stroke-width:1.20148" />
  <path
     d="m 785.12645,439.8246 c 0,0 -4.99577,-0.30758 -11.77212,-2.66369 -6.77516,-2.3561 -8.55575,-0.35804 -12.38728,-3.22718 -3.83273,-2.86914 -11.56667,-1.07532 -13.00364,-0.87107 -1.43697,0.20545 -5.54363,0 -0.4109,-3.32931 0,0 -4.10667,-0.10212 -5.68061,-2.15185 0,0 -1.84788,1.79261 -8.76,1.12699 0,0 3.07939,4.83716 -9.30788,3.44344 0,0 3.69576,4.2917 8.14484,5.16277 4.44909,0.87108 6.30418,0.58272 9.17091,-0.25591 0,0 -0.82181,3.73901 4.92728,5.17358 5.74909,1.43457 6.91212,2.56156 9.85575,3.73901 0,0 0.41091,-2.40777 -7.25454,-7.99106 0,0 4.10666,-0.20545 9.99272,1.22912 5.88366,1.43457 19.22972,4.8672 26.48547,0.61516 z m 3.10222,5.73707 c 0,0 1.23152,2.86914 5.01859,2.22034 3.78707,-0.6488 10.01555,-1.75897 16.03858,1.31442 0,0 1.02607,-5.12312 -11.06444,-5.48116 0,0 -7.57415,0.40971 -9.99273,1.9464 z M 685.8408,412.67471 c 0,0 -4.65454,3.82432 -0.43374,7.80363 3.85556,3.63448 9.8101,3.31248 12.66122,3.21036 0,0 -1.71091,-0.9732 -3.21637,-3.22718 -1.50546,-2.25398 -1.55712,-3.77746 -4.72302,-5.22525 -3.28486,-1.50185 -3.67293,-1.89473 -4.28809,-2.56156 z m -4.88282,-19.87491 c 0,0 -6.98061,14.70133 20.46363,18.33822 0,0 0.0685,-1.63882 1.16304,-3.94447 1.09455,-2.30564 3.4903,-6.96619 1.23152,-9.98912 -2.25879,-3.02292 1.84788,-1.43457 2.46424,-5.37903 0.61636,-3.94446 -0.41091,-3.38097 1.50545,-5.94253 0,0 -8.62303,3.12506 -11.90909,6.91573 -3.28485,3.79068 4.44909,6.65981 -0.13696,10.80853 0,0 -3.83273,-1.38291 -6.09152,-5.53282 0.002,10e-4 -5.33578,0.10453 -8.69031,-5.27451 z"
     fill="#5a3719"
     id="path16"
     style="stroke-width:1.20148" />
  <path
     d="m 753.09494,426.71643 c 0,0 5.74909,-0.92154 20.39515,4.55962 14.64607,5.48116 20.73758,4.09826 22.92788,3.94447 0,0 -8.26139,4.31572 -21.05717,-1.31803 -11.31435,-4.98254 -12.06768,-3.0878 -22.26586,-7.18606 z"
     id="path17"
     style="stroke-width:1.20148" />
  <path
     d="m 844.78242,423.43398 c 0,0 3.34372,-0.11414 5.29253,0.80259 0,0 1.27717,-1.09335 4.33494,-1.41775 0,0 -2.00767,-2.01488 -9.62747,0.61516 z m -10.01435,-8.11 c 0,0 3.35333,-0.15379 4.35777,-1.75897 0,0 -1.68808,-2.15185 -4.26646,-3.17551 0,-10e-4 0.52385,2.28762 -0.0913,4.93448 z m -112.5404,-37.42976 c 0,0 -0.61636,-1.63882 2.87395,-2.15185 3.4903,-0.51184 49.11777,-7.01786 49.11777,-7.01786 0,0 2.41859,-0.004 2.76101,1.58836 0.37006,1.72052 -0.27394,3.00731 -11.29273,4.2953 -11.01879,1.28798 -40.10666,4.92487 -40.10666,4.92487 0,0 -3.0806,0.51303 -3.35334,-1.63882 z"
     fill="#ffc221"
     id="path18"
     style="stroke-width:1.20148" />
  <path
     d="m 766.73657,375.931 c 0,0 0,6.45436 6.5709,7.41074 6.37506,0.92754 8.56656,-0.39769 10.26666,-3.75463 0.44575,-0.88189 2.40176,-7.621 -0.42893,-8.13524 -1.11257,-0.20185 -3.0866,-0.0865 -4.49835,0.51664 -2.19871,0.93956 -4.23882,2.04012 -3.51313,3.14188 1.55111,2.3561 1.85389,2.90278 1.27718,3.07339 -1.57635,0.46737 -2.73578,-0.91794 -3.05657,-1.87792 -0.4001,-1.19668 0.86867,-1.96683 -3.42182,-1.33244 -1.75417,0.25952 -3.19594,0.20545 -3.19594,0.95758 z"
     fill="#ffc221"
     id="path19"
     style="stroke-width:1.20148" />
  <path
     d="m 794.06787,370.96888 c 3.35694,0.38688 3.10223,7.48883 -0.91312,10.69919 -4.32414,3.45667 -8.45002,2.22034 -8.45002,2.22034 -2.1819,-0.92153 -1.90796,-0.61516 -0.21988,-3.17551 1.59797,-2.42459 2.3513,-5.68782 1.4598,-7.95742 -0.28475,-0.72569 0.50222,-1.31442 1.616,-1.55351 0.002,-0.001 3.03975,-0.63319 6.50722,-0.23309 z"
     fill="#ffc221"
     id="path20"
     style="stroke-width:1.20148" />
  <path
     d="m 796.98747,371.59365 c 0,0 2.39576,3.01452 -0.59473,8.57137 0,0 -1.32163,1.63882 1.64363,1.39973 2.96525,-0.2391 9.58181,-3.41462 8.89697,-7.47923 0,0 -0.22828,-0.99002 -1.96202,-0.88789 -1.73374,0.10212 -0.31959,-0.95638 0.41091,-1.16063 0.7305,-0.20426 2.98808,-1.04169 -2.87395,-4.81554 0,0 -0.96719,-0.87108 -2.09899,-0.51183 -0.8939,0.28355 -4.01655,1.56432 -4.01655,3.38097 10e-4,0.74491 0.59473,1.50305 0.59473,1.50305 z"
     fill="#ffc221"
     id="path21"
     style="stroke-width:1.20148" />
  <path
     d="m 803.39858,366.48735 c 0,0 4.67737,3.35214 4.65454,4.34816 -0.0228,0.99603 -0.43373,2.3453 0.79899,2.22635 1.23151,-0.11895 6.29696,-1.19547 4.90444,-4.5416 -1.39131,-3.34733 -2.78383,-4.52478 -5.13273,-5.34419 -2.35009,-0.81941 -2.94242,0.29076 -4.9501,1.80943 -10e-4,0 -1.461,0.88789 -0.27514,1.50185 z m -25.3008,4.73023 c 0,0 0.77615,-2.49307 -3.42182,-3.41461 0,0 1.77939,-1.46821 5.33818,-0.68244 3.53476,0.77976 3.15749,3.10824 3.12986,3.41461 0,0 -2.76461,-0.10332 -5.04622,0.68244 z m 9.12645,-0.58031 c 0,0 4.8636,-0.85185 7.02627,-0.58032 0,0 -2.39576,-5.36101 -8.87415,-3.53476 0,0 2.32607,2.63005 1.84788,4.11508 z m 8.32627,-1.33244 c 0,0 0,-1.63883 4.12949,-3.27885 0,0 -2.00407,-1.88632 -4.7903,-1.7073 -3.19354,0.20545 -3.83273,1.36608 -3.83273,1.36608 0,0 3.46748,1.20389 4.49354,3.62007 z m 1.6196,-5.60011 c 0,0 2.55555,0.6488 4.15232,2.01488 0,0 2.42219,-2.64326 4.47191,-3.21035 0,0 -4.01535,-2.15186 -8.62423,1.19547 z"
     fill="#ffc221"
     id="path22"
     style="stroke-width:1.20148" />
  <path
     d="m 662.82041,350.796 c 0,0 11.2735,-9.55178 17.58969,-8.40076 6.31499,1.14982 3.14788,0.35804 10.06121,-0.71729 6.91212,-1.07532 14.0309,-1.79261 16.90485,-1.43457 0,0 -8.3503,-5.99299 -23.2703,-5.89086 0,0 -10.5394,3.63689 -17.79515,8.45242 0,0 -13.96242,-7.7868 -28.40303,-3.12505 0,0 15.67333,5.68541 24.91273,11.11611 z"
     fill="#5a3719"
     id="path23"
     style="stroke-width:1.20148" />
  <path
     d="m 782.69465,367.3416 1.88152,-0.31598 c 0,0 3.17671,3.93365 0.86867,3.9781 -1.80343,0.036 -1.07413,-0.55508 -1.41535,-1.69889 -0.34242,-1.14381 -0.95758,-1.65565 -1.33484,-1.96323 z m -14.16668,0.30758 c 0,0 -1.12939,1.40454 0.99243,1.07533 2.58439,-0.40009 2.08697,0.0865 4.92728,-1.83586 0,0 1.74575,-1.85269 4.99576,-0.69927 0,0 2.73817,0.89631 4.96212,-0.17902 2.22394,-1.07532 2.73817,-0.99843 3.93485,-0.8963 1.19788,0.10212 1.11738,0.36044 2.71535,-0.8062 1.59677,-1.16664 4.36859,-0.27033 6.11434,-1.73013 1.74575,-1.4598 3.93485,-0.23068 0,-3.04816 0,0 -0.82182,-0.81941 -0.75333,-1.51146 0,0 1.50546,0.43493 2.70333,1.51146 1.19788,1.07533 3.18273,0.74252 3.52515,0.5635 0,0 0.20545,-3.50953 3.69576,-6.73671 3.4903,-3.22718 3.52515,-3.4831 1.47181,-3.50953 -2.05333,-0.0252 -5.50999,-0.81941 -6.67303,0 -1.16303,0.81941 -11.39605,7.52968 -17.34939,8.65667 -5.95455,1.1282 -11.4297,2.81868 -15.26243,9.14568 z M 609.64162,330.93791 c 0,0 18.27334,4.71221 22.38,6.69345 0,0 0.98041,-3.05657 -7.32303,-5.44751 0,0 20.16687,-0.61516 41.52081,9.0844 0,0 10.29309,-8.82609 43.41795,-6.09392 0,0 0.0649,-2.9256 0.29316,-5.17598 0,0 -23.2703,-0.68244 -44.62424,-13.65965 0,-0.001 -19.11677,9.40761 -55.66465,14.59921 z m 101.56606,8.82729 c -1.27717,-18.68064 5.88606,-20.35311 5.88606,-20.35311 0,0 3.37376,0.0192 7.02627,0.58032 0,0 -5.65778,6.7271 -4.15232,20.08036 0,0 0.59353,2.15186 -4.19798,2.15186 -4.71462,0 -4.56203,-2.45943 -4.56203,-2.45943 z"
     fill="#ffc221"
     id="path24"
     style="stroke-width:1.20148" />
  <path
     d="m 716.0893,352.12844 c 0,0 -3.46747,-3.55158 -3.83272,-7.64983 0,0 -0.0913,-1.05851 3.42182,-0.95638 3.51313,0.10212 3.97209,-0.33762 4.83596,1.7073 0.84104,1.98846 3.05657,6.18163 3.60445,6.65982 z"
     fill="#5a3719"
     id="path25"
     style="stroke-width:1.20148" />
  <path
     d="m 723.59376,342.80254 a 44.422385,44.422385 0 0 1 -0.38568,-7.10076 c 0.22828,-10.41564 1.95722,-9.4905 2.64206,-8.1917 l 3.5636,0.0649 c 0,0 -2.60121,-11.74809 -5.65778,-4.88402 -3.00371,6.74271 -2.78384,11.13293 -2.41858,16.4603 0.21025,3.06858 0.61515,4.97894 0.95758,6.12755 z"
     fill="#ffc221"
     id="path26"
     style="stroke-width:1.20148" />
  <path
     d="m 763.83979,342.83018 c 0,0 6.87849,1.05009 -3.66211,3.55999 0,0 0.51303,12.7357 12.96999,3.8159 0,0 7.35788,-4.7038 12.45576,-6.61656 0,0 2.56637,-0.88789 2.25879,-2.80906 0,0 0.20545,-2.26239 -2.46424,-1.81905 0,0 -2.10259,0.0493 -3.45666,-0.44454 0,0 -1.47182,-1.73254 -2.46424,-1.06692 -0.99243,0.66562 -3.3197,0.28115 -1.50546,2.48466 1.81424,2.20232 2.36091,1.63883 3.25121,0.99844 0.8903,-0.64039 4.82515,-2.20232 1.19788,1.05009 -3.62728,3.25241 -6.46758,-1.79261 -7.63181,-2.71535 z m -34.42605,1.44297 -3.05657,-0.0685 c 0,0 -1.64243,2.45943 -2.76341,-1.40213 l -1.2976,2.47505 c 0,0 3.78707,13.67527 7.11758,-1.00444 z"
     fill="#5a3719"
     id="path27"
     style="stroke-width:1.20148" />
  <path
     d="m 725.07879,328.4953 c 0,0 -1.55111,8.94743 0.41091,14.48025 l 33.08039,0.61516 c 0,0 -0.4109,-6.42072 0.0913,-15.09421 h -4.699 c 0,0 -0.63919,7.20528 -0.0457,11.64476 l -0.77495,0.0156 c 0,0 -0.59353,-6.23089 0.0444,-11.66038 h -3.87838 c 0,0 -0.63919,6.65981 -0.13697,11.71324 h -0.7305 c 0,0 -0.54787,-5.8392 0.0913,-11.71324 h -3.83272 c 0,0 -0.70407,6.03144 0.0493,11.63034 l -0.91553,-0.0192 c 0,0 -0.77616,-6.11314 0.0457,-11.61112 h -4.24363 c 0,0 -1.04889,5.63495 -0.0457,11.6796 h -0.86747 c 0,0 -0.95758,-5.77192 0.0913,-11.6796 h -4.24364 c 0,0 -1.00323,6.38587 -0.13697,11.6796 h -0.82181 c 0,0 -0.68484,-6.18162 0.22828,-11.6796 h -3.96969 c 0,0 -1.0489,5.39585 -0.18263,11.6796 h -0.86747 c 0,0 -0.63919,-4.67857 0.18263,-11.6796 h -3.92284 z m 34.9511,16.32453 c 0,0 -0.91553,-16.18877 2.19031,-20.3531 3.10583,-4.16434 3.74141,-3.34733 9.03394,0 5.29252,3.34612 12.13737,6.96619 13.23192,7.37589 1.09455,0.40971 2.64686,0.81941 2.64686,3.75704 0,2.93762 0.54788,3.82431 -4.01535,0.13697 -0.68365,-0.55268 -2.81748,-2.50509 -4.35778,-2.9965 -4.08864,-1.30481 0.98282,0.91553 2.44141,2.9965 1.23633,1.76377 2.19031,1.57033 -1.00323,2.39095 -3.19354,0.82061 -14.23636,4.50675 -20.16808,6.69225 z"
     fill="#ffc221"
     id="path28"
     style="stroke-width:1.20148" />
  <path
     d="m 771.60978,333.22913 c 0,0 -2.39576,-3.02653 0.65,-3.71858 3.04575,-0.69206 3.28485,4.7891 3.79788,8.09318 0.51423,3.30407 -3.83152,-3.33892 -4.44788,-4.3746 z m -4.44789,14.1078 c 0,0 -3.55879,1.30601 -1.23152,2.45823 2.32727,1.15223 8.89697,-4.3025 6.63939,-3.94446 -2.25999,0.35924 -5.40787,1.48623 -5.40787,1.48623 z m 4.82515,-4.99456 c 0,0 3.14788,-0.30758 2.53272,1.0501 -0.61636,1.35767 -1.74575,0.49501 -2.22394,0.19584 -0.48059,-0.29797 -2.70453,-1.06692 -0.30878,-1.24594 z"
     id="path29"
     style="stroke-width:1.20148" />
  <path
     d="m 788.75252,338.10835 c 0,0 0.84464,6.1636 6.13717,7.72673 0,0 3.05657,0.75934 2.41858,-1.93799 0,0 -0.52505,-2.25398 -0.95758,-3.19354 -0.43374,-0.93956 -2.55555,-1.53669 -2.78384,-1.63882 -0.22828,-0.10212 -0.50221,-0.75092 0.95879,-0.27274 1.4598,0.47819 1.68808,0.52986 1.57394,-0.49501 -0.11414,-1.02486 -0.9732,-0.61275 -2.31406,-1.26756 -0.51543,-0.25231 0.0553,-0.59353 0.60315,-0.47338 0.54787,0.11894 1.84788,0.51183 1.87071,-1.60518 0,0 0.28955,-1.17745 -1.32284,-1.26396 -1.75656,-0.0937 -1.61959,-0.87949 -1.07172,-0.99843 0.54788,-0.11895 2.38614,1.15462 2.89677,-0.93956 0.52505,-2.15186 -2.53272,-0.91313 -2.12181,-2.0233 0.4109,-1.11017 2.57718,0.63439 2.7574,-0.68244 0.17421,-1.28078 1.92477,-1.83827 -1.0561,-2.25158 -1.41415,-0.19584 -0.10694,-0.82301 1.48142,-0.59953 1.7001,0.23909 2.72617,-1.8611 3.70778,-2.54474 0.98161,-0.68244 6.52524,-3.99493 -0.86627,-2.90278 -7.39272,1.09214 -9.55899,4.67857 -10.03838,5.39585 -0.4818,0.71609 -2.53513,4.95011 -1.87311,11.96796 z"
     fill="#ffc221"
     id="path30"
     style="stroke-width:1.20148" />
  <path
     d="m 805.97336,342.88544 c 0.95037,-0.18262 1.84787,0.0757 2.17107,0.73771 1.2171,2.49668 -1.57394,1.60518 -3.12505,3.44946 -1.55111,1.84427 -1.59677,1.46821 -3.78707,0.82301 -2.1903,-0.64519 -3.01091,-3.96489 -3.01091,-3.96489 -0.24511,-1.01885 0.70166,-1.10536 1.83586,-0.9756 -0.001,10e-4 3.63088,0.37126 5.9161,-0.0697 z m -8.00428,-1.32763 c 0,0 0.15379,0.74732 1.40814,0.84944 1.25435,0.10213 4.89964,0.41812 7.06712,-0.28114 0,0 0.79898,-0.1574 0.43974,-1.56914 0,0 -0.0288,-0.91553 -1.98004,-0.54427 -1.95121,0.37126 -4.77349,0 -5.71425,-0.20545 -0.94076,-0.20425 -1.7061,0.018 -1.22071,1.75056 z m -0.29676,-4.47312 c 0,0 -0.0685,1.9464 1.89353,2.20232 1.96202,0.25591 4.40464,0.2463 5.42229,0.0456 0.77616,-0.15379 2.17468,-0.43734 2.28882,-1.58235 0.11414,-1.14381 0.43374,-1.99806 -1.98484,-1.39973 -2.41859,0.59714 -5.33819,0.20546 -5.63495,0.13697 -0.29677,-0.0685 -1.9392,-0.56469 -1.98485,0.59714 z m 0.8903,-3.92764 c 0,0 -0.4794,0.88789 -0.41091,1.74214 0.0685,0.85426 1.48263,1.14381 4.03818,1.17866 2.55555,0.0348 4.83596,-0.34122 4.99576,-1.19548 0.1598,-0.85425 0.77616,-1.84427 -1.23152,-1.53669 -2.00767,0.30758 -4.5404,0.39288 -5.54364,-0.0168 -1.00443,-0.41091 -1.67967,-0.55268 -1.84787,-0.17181 z"
     fill="#ffc221"
     id="path31"
     style="stroke-width:1.20148" />
  <path
     d="m 892.37191,343.06086 c 0,0 -0.0336,1.7806 1.36849,3.53476 l -70.92227,-2.03651 c 0,0 1.03568,-0.64039 1.3,-3.4026 z"
     fill="#5a3719"
     id="path32"
     style="stroke-width:1.20148" />
  <path
     d="m 799.13212,330.22062 c 0,0 -0.61636,1.79261 0.66201,2.15186 1.27718,0.35804 3.46748,0.75092 6.36546,0.29076 0,0 1.4598,0.10212 1.96201,-1.45139 0.50222,-1.55352 0.45056,-0.68245 -3.67533,-1.50306 0,0 -1.2988,-0.37846 2.46664,-0.39288 0,0 2.09899,0.0685 2.41859,-0.29076 0.31959,-0.35804 3.10222,-2.56156 -0.50222,-2.42459 -3.60445,0.13697 -1.82505,-0.63198 0,-0.63198 1.82505,0 2.39575,0.37606 2.98808,-0.20545 0.59353,-0.58032 0.0457,-0.18743 -0.93595,-1.17866 -0.98041,-0.99002 -0.29677,-0.70046 0.41091,-0.15379 0.70767,0.54668 1.1402,0.71729 1.93919,0.0168 0.79898,-0.70046 -0.61636,-1.72412 0,-1.60518 0.61636,0.11895 0.91312,1.28919 3.23919,0.1622 2.32607,-1.12699 5.47515,-0.53826 6.33061,0.10213 0.85545,0.64039 3.28485,1.4598 4.75667,-0.0517 1.47181,-1.51147 -1.74576,-2.74058 -0.37607,-2.94604 1.36969,-0.20545 2.32727,0.28115 2.87515,-0.81941 0.54787,-1.10176 -2.12182,-2.15185 0.44455,-2.8427 2.56636,-0.69206 0.4109,-7.88893 -0.4794,-8.55455 0,0 -2.87394,1.69048 -6.02302,6.78717 -3.14909,5.09668 -4.99576,8.06795 -9.27424,6.50602 -6.17081,-2.25398 -9.3247,0.98642 -10.27988,1.57034 -1.48022,0.90471 3.09382,1.34926 0.42533,1.39972 -2.6697,0.0517 -2.6697,0.28115 -2.94243,0.69206 -0.27394,0.4097 -0.0349,0.76895 0.44454,0.79418 0.4794,0.0252 1.50546,1.05009 -0.13696,0.99843 -1.64243,-0.0517 -2.80667,-0.30758 -2.32367,1.43817 0,0 0.03,0.38087 0.98882,0.483 0.95758,0.10212 1.3,1.10176 -0.47939,1.10176 -1.14141,0.002 -1.25555,0.44454 -1.28919,0.55748 z m 6.55889,17.78314 c 0,0 -1.26636,0.8963 0.47939,0.99843 1.74575,0.10212 2.66969,0.43493 3.21637,-0.49982 0.54787,-0.93475 2.90878,-0.55028 1.33484,-1.85749 -1.57394,-1.30481 -2.63485,-0.56229 -5.0306,1.35888 z"
     fill="#ffc221"
     id="path33"
     style="stroke-width:1.20148" />
  <path
     d="m 813.01284,326.66904 c 0,0 5.90528,-5.55805 10.84097,-1.79261 4.93568,3.76545 5.41387,4.32894 5.48236,4.40584 0.0685,0.0769 0.58152,0.4866 -0.75333,1.66525 -1.33485,1.17865 -0.0348,1.15222 1.43697,0.43494 1.47182,-0.71729 1.57394,-0.0517 2.29243,0.74251 0.71848,0.79418 1.67967,1.25555 -0.59714,1.28078 -2.27681,0.0252 -7.17044,0 -7.17044,0 0,0 -3.3197,0.28115 -1.64243,-1.07532 1.67727,-1.35768 1.43698,-2.97127 0.58152,-3.07339 -0.85545,-0.10213 -0.0685,0.81941 -0.58152,1.4598 -0.51303,0.64039 -1.67727,1.22911 -2.8403,1.20388 -1.16303,-0.0252 -2.1903,0.84224 -0.34242,1.51026 1.84788,0.66683 -0.20546,1.10417 -1.16304,1.07773 -0.95758,-0.0264 -5.57848,0.35804 -0.88909,0.92154 4.68818,0.56349 -0.42292,0.42773 3.01091,2.38975 3.79788,2.16987 1.06091,6.77996 -0.37606,7.18966 0,0 -1.57394,0.85666 0.4109,0.61997 1.98485,-0.23549 3.0794,-0.51784 1.67727,0.55749 -1.40333,1.07532 -4.20879,4.66174 -8.11,1.92116 0,0 -1.77939,-0.84464 1.40333,-0.99843 3.18273,-0.15379 -2.60121,-0.83383 -3.55879,-1.48022 -0.95758,-0.6464 -4.6197,-4.38541 -2.32727,-3.92404 2.29243,0.46137 1.47182,-0.87108 0.10213,-1.35768 -1.36969,-0.4866 -1.64243,-2.58679 -0.10213,-2.12542 1.5403,0.46137 3.35334,1.31923 4.58606,1.26156 1.23152,-0.0577 0.8903,-0.57071 -1.74576,-1.39012 -2.63484,-0.81941 -3.7306,-0.94797 -3.11424,-3.17551 0.61636,-2.22755 3.49031,0.87107 2.80667,-0.79418 -0.68365,-1.66526 -3.18273,-0.84464 -1.84788,-3.04816 1.33484,-2.20232 1.64242,-1.25555 2.25878,-0.9732 0.61636,0.28235 1.60158,0.0721 -0.13697,-1.22912 -1.09695,-0.82181 0.0985,-1.93318 0.40851,-2.20472 z"
     fill="#ffc221"
     id="path34"
     style="stroke-width:1.20148" />
  <path
     d="m 817.25767,328.20574 c 0,0 -0.0348,-0.74252 1.02607,-0.61516 1.06091,0.12856 0.78697,-0.38447 1.09455,-0.53826 0.30758,-0.15379 2.96285,0.79057 0.47939,1.69048 -0.91793,0.33281 -2.35971,0.0949 -2.60001,-0.53706 z"
     id="path35"
     style="stroke-width:1.20148" />
  <path
     d="m 822.90464,334.50631 c 0,0 -1.99566,1.01645 -0.18864,3.11064 1.5403,1.7854 1.53189,2.3513 1.40333,3.53836 -0.12976,1.18706 68.25258,1.90435 68.25258,1.90435 0,0 -0.12015,-4.39262 2.80666,-6.86407 0,0.001 -37.36849,-0.86987 -72.27393,-1.68928 z"
     fill="#ffc221"
     id="path36"
     style="stroke-width:1.20148" />
  <path
     d="m 893.53615,341.85697 c 0,0 0.27754,-3.70536 2.32727,-4.93328 1.12939,-0.67643 2.61923,-0.28235 3.26923,2.70454 0.92514,4.24844 -2.6757,7.86249 -4.34696,6.2489 -1.59197,-1.53549 -1.24954,-4.02016 -1.24954,-4.02016 z"
     fill="#5a3719"
     id="path37"
     style="stroke-width:1.20148" />
  <path
     d="m 815.1755,357.83548 c 0,0 4.55122,-3.86757 5.23606,-5.60972 0,0 12.32,8.72757 11.56667,0.71368 0,0 0.0348,-2.14825 0.37606,-4.19677 0,0 4.45389,0.43734 5.13273,-3.11905 l -11.49818,-0.33882 c 0,0 -1.19788,-0.25591 -2.97727,1.66526 -1.7794,1.92117 -5.44151,4.02376 -8.86333,2.1903 0,0 -1.43217,-1.24354 -2.88957,-0.19344 -1.45739,1.05009 -1.52588,1.35767 -0.328,2.48466 1.19908,1.12819 3.76544,4.58606 4.24483,6.4039 z m 26.45303,-24.10172 -6.74152,-0.25592 c 0,0 -2.46423,-3.45786 -7.25454,-7.3002 0,0 -1.40333,-0.61516 1.3,-2.76581 2.70333,-2.15186 3.49031,-4.4563 3.59363,-5.50639 0.10333,-1.0501 -0.17061,-2.68892 0.85546,-1.43457 1.02606,1.25555 8.00787,7.55612 9.0003,5.68661 0.99242,-1.86951 1.16303,-2.74058 1.33484,-3.30408 0.17182,-0.56349 0.41091,-2.30564 1.40333,-0.4866 0.99243,1.81905 1.67367,1.35407 1.71091,6.06989 0,0 0.17061,4.66175 0.8903,6.35223 -0.002,0 -8.83089,-2.82828 -6.09271,2.94484 z m -29.25969,-14.34329 c 0,0 5.13273,2.86914 7.66546,-1.02487 2.53272,-3.8928 4.24363,-4.50796 2.32727,-8.24697 -1.91637,-3.73901 0.0529,-5.48116 1.49824,-7.01785 1.44539,-1.5367 2.67691,-1.28078 2.88236,-7.22331 0.20545,-5.94253 4.31212,-7.93939 6.16,-9.78367 1.84788,-1.84427 6.50242,-4.66175 -0.54788,-5.8392 -7.04909,-1.17865 -21.01151,-4.81554 -24.63879,-10.24503 -3.62727,-5.4295 -5.2697,-2.20232 -5.33818,-1.99807 -0.0685,0.20546 -1.23152,4.20038 2.39576,11.42369 3.62727,7.22331 6.70667,11.86704 10.19817,14.20632 3.49031,2.33929 6.63939,3.62007 4.85879,8.4356 -1.78059,4.81434 -4.85999,13.42056 -7.4612,17.31336 z"
     fill="#7b3c20"
     id="path38"
     style="stroke-width:1.20148" />
  <path
     d="m 831.32342,304.03313 c 0,0 0.8903,12.34522 9.92424,16.75106 0,0 2.05333,-4.81554 1.23152,-9.57942 0,0 2.94243,0.25592 3.76424,1.58836 0,0 0.13697,-3.58522 -4.10666,-4.89243 -4.24364,-1.30601 -2.19031,-9.34873 -0.68485,-10.27027 1.50546,-0.92154 1.02607,-2.52672 0,-3.97811 -1.02606,-1.45139 -1.3,-3.6537 2.25879,-2.73216 3.55879,0.92153 3.01091,-0.9732 0.89029,-2.71535 -2.12061,-1.74215 -2.05333,-3.8928 0.95759,-3.8928 3.01091,0 8.00787,-2.91961 4.99576,-3.84234 -3.01092,-0.92154 -3.9697,-1.89474 0.13697,-3.07339 4.10666,-1.17866 6.09151,-2.66369 3.01091,-3.02173 -3.0794,-0.35804 -5.13273,-1.43457 -2.12182,-1.9464 3.01092,-0.51183 -0.54787,-3.58522 -4.03818,-3.73901 -3.4903,-0.15379 -11.01879,1.28078 -5.06424,-3.4831 5.95454,-4.76387 -8.55576,-1.28078 -2.60121,-4.40583 5.95454,-3.12506 -1.98485,-1.74215 -3.0794,-1.79261 -1.09455,-0.0505 -1.08253,0 -0.67884,-1.58836 0.4049,-1.58836 -0.82782,-2.30564 -2.53873,-1.33244 -1.71091,0.9732 -1.71091,0.9732 -1.64242,-1.22912 0.0685,-2.20232 -2.05334,-0.56349 -3.35334,0 -1.3,0.56349 -4.58606,3.02173 -5.88606,1.69048 -1.3,-1.33124 -2.05333,-2.71534 -6.09151,-0.25591 -4.03818,2.45823 -3.0794,0.25591 -3.01091,-0.81941 0.0685,-1.07533 1.57394,-5.32737 -3.9697,-0.76895 -5.54364,4.55962 -1.02607,-4.91766 -5.40667,-1.69048 -4.3806,3.22718 -4.85879,3.79067 -5.54363,2.3561 -0.68485,-1.43457 -1.51387,-2.61202 -6.33542,0.46137 -4.82154,3.07339 -1.26155,-1.84427 -0.57791,-2.9196 0.68364,-1.07533 2.73818,-8.04272 -1.50546,-2.61202 0,0 -2.05333,3.79067 -6.63939,-2.97127 0,0 -4.85879,6.71749 -6.09151,3.74262 -1.23152,-2.97367 -2.46424,-3.28125 -4.03818,-1.33485 -1.57394,1.9464 -0.41091,-0.10212 -1.09455,-1.74215 -0.68364,-1.64002 -1.09455,-4.66174 -9.17091,1.22912 -8.07636,5.89087 2.80666,1.58836 -3.35333,4.25204 -6.16,2.66369 -21.01152,11.06445 -7.39152,9.11805 13.62,-1.9464 -6.63939,5.32737 -1.91636,6.65981 4.72302,1.33245 3.21636,5.4295 20.94302,0.5635 17.72667,-4.866 14.85152,-0.76895 23.88546,-4.66175 9.03394,-3.8928 -2.05333,1.33244 10.06121,1.07532 12.11454,-0.25591 2.05333,0.0517 4.3806,2.56156 2.32727,2.5099 12.59273,8.45243 22.17455,9.42563 9.58182,0.9732 11.90909,-2.61202 9.17091,1.53669 -2.73818,4.14872 -3.69576,5.73708 -5.33818,7.17165 -1.64243,1.43457 -6.16,4.71221 -6.22848,10.45049 -0.0685,5.73707 -7.52849,6.65981 -4.79031,13.01084 a 721.85025,721.85025 0 0 0 6.50362,-6.35343 z"
     fill="#5a3719"
     id="path39"
     style="stroke-width:1.20148" />
  <path
     d="m 847.08686,317.83815 c 0,0 -2.1903,-1.53669 -2.14464,-4.26886 0,0 1.55111,0.27273 2.14464,1.26396 0,0 5.52081,-6.25011 -1.07292,-8.50289 -6.59253,-2.25398 -3.30888,-8.23015 -1.07293,-8.26499 2.23596,-0.0348 2.62524,-0.6488 0.74252,-3.14188 -1.88272,-2.49307 -1.74575,-2.5952 1.99566,-3.244 3.74141,-0.6488 3.23319,-1.43457 1.57034,-2.3561 -1.66165,-0.92154 -2.93642,-2.42459 -2.93642,-2.42459 0,0 10.58265,-4.61009 7.15963,-6.7271 -3.42303,-2.11701 0,-1.57034 3.05657,-3.75703 3.05656,-2.1855 3.46747,-2.5952 3.92403,-3.44946 0,0 -3.02172,0.30758 -5.25167,-0.13697 0,0 2.64085,-1.2976 0,-3.44945 -2.64206,-2.15186 -3.73661,-4.09826 -7.93459,-3.10823 -4.19797,0.99002 -2.82949,-0.40971 -1.18586,-2.15186 1.64243,-1.74215 0.86627,-2.73217 -2.09899,-3.17551 0,0 0.36525,-1.77579 2.60121,-3.99613 0,0 -5.70343,0.4097 -7.6198,-0.58032 0,0 2.28162,-1.57034 2.46424,-3.44945 0,0 -3.14788,1.02486 -7.11758,0.6488 0,0 2.32727,-2.01489 2.32727,-3.79068 0,0 -6.88929,1.5367 -10.08403,3.96129 0,0 -0.68485,-0.13697 -1.23152,-0.8879 -0.54788,-0.75092 -0.95878,-1.50305 -8.57858,0.92154 0,0 0.86747,-3.38097 2.69252,-4.74706 1.82505,-1.36608 1.55111,-4.09825 -10.31232,3.31249 0,0 -1.59677,-0.95638 -2.9196,-4.50796 0,0 -2.55555,3.62006 -4.51757,4.84918 0,0 -1.64243,0.68965 -1.43697,-1.6184 0.20545,-2.30804 -1.16304,-0.66321 -2.39576,0 -1.23152,0.66322 -2.05333,2.30204 -1.43697,-2.35971 0.61636,-4.66174 -1.64243,-5.63495 -1.64243,-5.63495 0,0 -3.69575,5.22525 -5.81757,5.78874 0,0 -3.90121,-3.79067 -5.2697,-6.30057 -1.36849,-2.50989 -1.36849,-3.43263 -2.73818,0.92154 -1.36848,4.35417 -3.07939,4.71221 -3.07939,4.71221 0,0 -2.32727,-1.99806 -2.60121,-3.07339 0,0 -0.41091,1.17865 -1.16304,1.69049 0,0 -2.05333,-2.40777 -1.98484,-5.89087 0,0 -12.7297,7.01786 -14.30365,11.2699 0,0 -12.04605,-0.71728 -17.04181,0.20545 0,0 1.23152,-3.8928 4.3806,-5.8392 0,0 -3.14788,-0.35804 -3.28485,-3.58522 0,0 2.53272,0.35804 4.10666,-0.0517 1.57394,-0.40971 -2.1903,-4.96933 1.7794,-5.07146 3.96969,-0.10212 6.50242,1.89474 4.72182,-3.38097 -1.77939,-5.2757 -0.95758,-5.2757 -0.95758,-5.2757 0,0 6.91212,4.09825 8.00788,3.07339 1.09575,-1.02487 -0.8903,-3.22718 5.2697,-2.20232 6.15999,1.02486 4.44908,-2.5099 6.84364,-2.66368 2.39575,-0.15379 3.69575,1.53669 2.1903,-9.62988 -1.50546,-11.16657 7.46,5.53282 1.36848,-11.32036 0,0 -1.5403,-5.09669 -5.20121,-7.27377 0,0 -0.82181,3.68855 -4.96212,0.43493 -4.14031,-3.25361 -12.28515,-4.40583 -8.86333,-6.96619 3.42182,-2.56156 5.0306,-5.99299 4.03818,-8.14484 0,0 -4.03578,4.2184 -11.05363,1.20388 -5.54364,-2.38254 -6.70667,1.99807 -12.38728,0.71729 0,0 0.10213,-1.4598 4.89364,-5.22525 4.7915,-3.76544 -2.77182,1.25555 -5.7491,1.92117 -2.97727,0.66562 -3.83272,0.12856 2.46424,-4.73864 6.29697,-4.866 18.75273,-13.47222 17.04182,-20.54174 0,0 2.94243,3.73901 10.67637,1.02487 7.73394,-2.71415 13.48303,-3.68855 15.8103,-7.68348 2.32727,-3.99613 8.41878,-8.04272 9.99272,-8.91379 1.57394,-0.87108 3.69576,-1.48503 1.3,2.30564 -2.39575,3.79068 -6.29696,10.2967 -16.97333,14.70133 -10.67637,4.40584 -14.78303,7.63302 -16.69939,9.93746 -1.91637,2.30564 -11.63515,7.47922 -5.33819,6.60815 6.29697,-0.87108 17.24727,0.15379 12.11454,-1.33244 -5.13273,-1.48504 -10.9503,0.92153 -6.22848,-3.38097 4.72183,-4.30251 5.54364,-5.73708 12.38728,-8.60622 6.84364,-2.86914 14.44061,-9.42562 13.68848,-2.45943 -0.75333,6.96619 -13.48303,14.39495 -16.63091,16.64773 -3.14788,2.25398 -1.98485,1.89594 -1.91636,2.81747 0.0685,0.92154 -0.47939,2.81748 -1.7794,3.68855 -1.3,0.87108 -0.8903,1.84428 -0.54787,3.79068 0.34242,1.9464 -0.34243,2.71535 0.61636,3.02173 0.95878,0.30637 1.91636,0.46136 2.1903,1.84427 0.27394,1.38291 0.99242,1.56193 2.8403,1.40814 1.84788,-0.15379 3.01091,0.0252 3.14788,1.10176 0.13697,1.07532 1.88152,2.53512 2.08698,-0.74252 0.20545,-3.27884 1.40333,-3.91923 -1.95001,-2.40777 -3.35333,1.51146 -4.07182,0.9732 -4.00334,-0.58873 0.0685,-1.56192 -0.30757,-1.20388 -1.71091,-1.33244 -1.40333,-0.12856 -1.88272,-2.10019 0.61636,-3.4062 2.49789,-1.30601 2.46424,0.0252 5.57848,-2.56156 3.11425,-2.58679 3.11425,-3.30407 3.59364,-4.50796 0.47939,-1.20388 -4.44909,3.50953 -6.81,4.58486 -2.36091,1.07532 -1.74576,-0.74252 -1.33485,-3.43264 0.41091,-2.69012 6.29697,-6.19844 9.0003,-6.25011 2.70334,-0.0517 8.79485,1.5367 6.16,5.22525 -2.63485,3.68855 -10.09485,8.06795 -6.87848,8.40076 3.21636,0.33281 3.7306,-0.92154 5.57848,0.71728 1.84787,1.63882 0.13696,4.96933 -0.71849,6.73671 -0.85546,1.76738 -2.63485,3.99613 -3.42182,4.40584 0,0 -3.38818,-6.04466 -3.28485,-1.25555 0.10333,4.7891 -0.71849,6.50602 0,6.68504 0.71848,0.17902 4.48273,2.68892 5.6806,2.74058 1.19788,0.0517 -6.50242,3.61166 -3.28485,3.84234 3.21637,0.23068 8.31546,-1.40814 10.09485,-4.73864 0,0 -6.53606,-1.58836 -9.17091,-4.04659 0,0 7.63181,-1.79262 5.51,-9.14328 0,0 7.59697,2.07496 4.31212,5.50639 -3.28486,3.43263 -5.2697,2.9196 -2.4294,3.8928 2.8403,0.9732 4.24363,1.79261 4.24363,1.79261 0,0 1.9428,0.9732 0.81701,2.56156 -1.12579,1.58836 -1.15943,3.99613 -0.20185,3.94447 0.95758,-0.0517 4.17515,-1.5367 1.47182,-3.17552 -2.70334,-1.63882 3.07939,-1.35768 0.61636,-2.74058 -2.46424,-1.38291 -3.11424,-1.71572 -3.76425,-2.38254 -0.65,-0.66562 30.93576,-19.18406 14.98849,-12.2431 0,0 3.31969,-7.19687 7.97303,-7.22331 4.65334,-0.0264 4.99576,3.66212 2.36091,6.45436 -2.63485,2.79225 -4.34576,7.14642 -10.53939,8.17008 0,0 8.85131,4.33735 -1.60879,11.42369 0,0 -2.2696,1.07532 -1.44898,1.86109 0.82181,0.78577 7.02626,-2.73217 7.89373,-4.71221 0.86747,-1.98124 2.1903,-3.51794 4.56323,-4.67857 2.37292,-1.16063 14.05373,-9.11804 17.56686,-15.12906 3.51314,-6.01101 4.47192,-6.21526 11.31556,-11.71324 6.84364,-5.49798 5.65778,-4.40584 6.52525,-5.73708 0.86747,-1.33124 1.23151,-3.51794 4.3806,-5.29373 3.14908,-1.77579 15.37656,-8.57137 19.20929,-11.33838 3.83273,-2.76581 11.6808,-7.85409 15.05697,-12.15779 3.37616,-4.30251 12.46898,-9.79929 14.73737,-8.77683 2.2696,1.02246 -0.22828,4.23522 -5.56646,8.29864 -5.33818,4.06341 -18.5701,14.75299 -20.71475,16.39181 -2.14464,1.63882 -13.36889,9.83533 -17.56686,10.38201 -4.19798,0.54667 -3.74142,2.01488 -6.25131,4.74705 -2.5099,2.73217 -8.30464,8.46925 -10.26666,10.04078 -1.96202,1.57034 -6.61656,4.7807 -6.8893,7.03468 -0.27394,2.25398 0.82181,2.52672 -2.9196,6.04465 -3.74142,3.51794 -14.69172,11.47415 -18.66142,12.73811 0,0 7.02627,2.32247 2.82829,7.06952 -4.19798,4.74706 -3.92404,4.06341 -4.24363,4.37099 0,0 10.66916,-1.57033 3.10222,6.7271 0,0 -1.4598,2.39095 1.91637,-0.10213 3.60925,-2.66488 2.05333,-6.31739 1.64242,-6.83042 0,0 5.65778,-3.51794 12.18303,-3.62006 6.52525,-0.10213 6.29696,-0.54668 0.45656,-2.22034 0,0 4.15232,-5.05464 7.66545,-2.56156 3.51314,2.49307 2.37293,3.92764 -1.32283,5.90768 -3.69575,1.98125 -9.17091,2.80066 -13.23192,5.05464 0,0 7.71111,1.50305 11.86344,-1.63882 4.15232,-3.14188 4.33494,-1.57034 4.88162,-1.02487 0.54787,0.54668 1.00443,1.57034 -0.82182,4.20038 -1.82625,2.63005 -2.00767,2.76581 -1.91636,3.34733 0.0913,0.58032 -0.13697,2.39095 -3.87838,3.00491 -3.74142,0.61516 -5.4295,2.18549 -4.15233,3.96128 1.27718,1.77579 1.32284,6.18163 -1.8707,5.77192 -3.19354,-0.4097 -2.32727,-2.93642 -3.55879,-3.92764 -1.23152,-0.99002 -2.96526,-2.52672 -8.53292,0.37606 -5.56647,2.90278 -6.02303,-0.54667 -5.7491,-2.35611 0,0 -3.60444,3.14188 -6.61656,0.2391 -3.01091,-2.90278 -0.27393,-4.02977 1.45981,-5.49798 1.73373,-1.46821 8.80566,-4.5416 4.56322,-3.99613 -4.24243,0.54547 -10.58505,0.81941 -12.04605,-2.45823 -1.4598,-3.27884 3.14788,-2.90278 3.87838,-2.5952 0.7305,0.30758 3.74141,2.73217 3.83273,-0.44455 0.0913,-3.17552 4.7903,-3.51794 3.19354,-4.16674 -1.59677,-0.6488 -3.83273,1.36609 -4.47192,2.15186 0,0 -3.28485,-4.57645 -8.57738,-3.0734 -5.29253,1.50306 1.68808,0.8879 3.10223,1.12699 1.41414,0.2391 0.59353,2.86914 -4.15232,7.13801 -4.74586,4.26886 -2.60121,2.97126 0.91312,2.97126 3.51314,0 12.13737,0.0336 7.11758,4.1319 -5.01979,4.09825 -7.02626,6.14678 -9.62747,5.42949 -2.60121,-0.71728 0.31959,-2.42459 1.4598,-3.14187 1.1402,-0.71729 1.82505,-1.98124 -0.63919,-1.05851 -2.46424,0.92274 -3.33051,1.09335 -5.29253,-2.39094 -1.96202,-3.4831 -1.1402,-2.45824 -0.31959,-4.74706 0.82181,-2.28762 2.73818,-4.71221 0.45656,-3.85916 -2.28161,0.85305 -2.05333,0.92154 -1.87071,-1.7073 0.18263,-2.63005 -2.6012,-3.21036 -2.6012,-3.21036 0,0 1.09455,2.63004 0.0913,4.3025 -1.00324,1.67247 -1.04889,2.25398 0.59353,2.69733 1.64243,0.44455 3.19354,1.84427 0.95758,3.38097 -2.23596,1.53669 -1.96202,1.33244 -0.54787,2.25398 1.41414,0.92154 3.46747,1.98124 1.27717,4.13189 -2.1903,2.15066 -0.36525,1.50306 0.7305,1.50306 1.09575,0 3.57321,0.92153 3.61166,3.03975 0.0384,2.11701 -0.14418,2.63004 3.41461,0.6488 3.55879,-1.98125 10.67636,-1.74215 10.58505,1.02486 -0.0913,2.76581 -0.91312,3.44946 2.87515,1.09335 3.78827,-2.35611 5.47515,2.22034 8.07636,0 2.60121,-2.22034 4.24363,-4.37099 7.25455,-0.58032 3.01091,3.79068 2.07255,4.93689 -1.59677,7.615 -3.66933,2.6781 1.77939,0.61515 4.56322,-0.81942 2.78384,-1.43456 10.58506,-2.39094 15.05697,-0.4097 4.47192,1.98124 5.74909,1.53669 9.03394,0.17061 3.28486,-1.36608 4.97294,-1.67366 9.94707,1.63882 4.97294,3.31249 8.85132,3.92764 11.45253,3.85916 0,0 -5.52081,2.15185 -11.72647,2.56156 -6.20565,0.4097 -9.30788,1.57034 -10.53939,2.52672 0,0 3.7318,2.25398 4.46711,5.01979 0,0 4.06581,-0.54668 6.07349,0.27273 0,0 -1.0489,2.93642 1.4598,4.50796 2.50989,1.57034 4.24363,2.15186 2.37292,4.30251 -1.8707,2.15185 2.87515,1.22911 0.18263,4.26886 -2.69252,3.03975 -3.42182,4.57645 -3.51313,7.03468 -0.0913,2.45943 0.59353,2.83429 -1.82506,3.07339 -2.41858,0.23909 0.41091,2.93642 -0.68484,6.14678 -1.09455,3.21036 -7.84808,2.86914 -7.57414,11.47415 0,0 1.87071,-4.20038 5.88606,-7.88893 4.01535,-3.68855 4.15232,-4.02977 4.06101,-6.25011 -0.0913,-2.22033 -0.27394,-1.7073 1.8707,-3.38097 2.14465,-1.67366 -0.95758,-3.244 1.18587,-5.63495 2.14464,-2.39094 0.27393,-1.91275 2.78383,-4.33734 2.50989,-2.42459 -2.1903,-2.73217 0.36525,-5.22525 2.55555,-2.49307 -6.16,-5.32737 -3.6501,-6.93255 2.50989,-1.60518 6.84364,-3.82432 -7.75677,-3.58522 0,0 3.51313,-5.80556 15.83313,-4.5416 0,0 -3.2392,2.28762 -3.51313,4.5416 0,0 1.41414,0.71728 2.28161,0.92154 0,0 -0.47699,1.65203 -2.82829,3.6537 0,0 6.52525,3.65371 7.57414,5.80556 0,0 -3.96969,1.22912 -4.97293,2.97127 0,0 1.73374,1.98124 2.32727,4.5416 0,0 -4.42626,-0.54668 -5.01859,2.76581 -0.59353,3.31248 -1.91636,1.0585 -1.91636,3.0049 0,1.94641 0.13697,2.73217 -1.41415,3.03975 -1.55111,0.30758 -0.27394,1.9464 0,3.03975 0.27394,1.09335 0.77616,3.58522 0.54788,4.37099 0,0 -2.23596,0.0336 -3.28485,0.34122 0,0 0.68484,4.74706 -1.96202,5.4295 -2.64687,0.68244 1.41414,1.63882 -1.41415,2.15185 -2.82949,0.51184 -2.46424,0.68245 -5.93171,6.89891 0,0 2.96526,-1.67366 6.02303,-3.68855 3.05657,-2.01488 -0.22829,-1.39972 4.83596,-6.38587 5.06425,-4.98615 4.15232,-5.36222 3.74141,-7.88893 -0.4109,-2.52672 -0.50221,-4.57645 1.32284,-6.96619 1.82505,-2.39095 2.41858,-5.12312 8.89697,-4.7807 0,0 -1.91636,-4.31092 -4.28929,-5.4331 0,0 3.10222,-2.14825 6.38828,-2.45463 0,0 -2.87515,-3.44945 -8.76001,-6.79558 0,0 4.83597,-4.16674 5.97738,-6.14678 0,0 -2.23596,0.34122 -4.01536,-0.0685 0,0 0.83864,-1.99326 5.20122,-4.84918 0,0 2.32727,2.25398 2.23596,4.61008 0,0 7.48282,-4.3025 11.72646,-3.82431 0,0 2.14464,5.39585 -8.25899,15.50392 0,0 6.43394,0.61516 9.17091,0.23909 0,0 -1.55111,4.98615 -9.35353,7.92257 -7.80243,2.93642 1.68688,6.36906 -6.29697,5.77192 -7.98385,-0.59714 -5.52081,2.15185 -5.29253,6.21527 0.22828,4.06341 0.50222,8.23015 0.3196,9.35714 0,0 -6.38828,-2.08337 -6.25131,4.09825 0.13697,6.18162 -3.28485,7.47922 -3.9697,8.05954 0,0 -1.85388,-1.65684 -4.65454,-2.63004 -0.006,0.006 -3.96849,7.52968 -10.36398,11.9247 z"
     fill="#5a3719"
     id="path40"
     style="stroke-width:1.20148" />
  <path
     d="m 837.9556,240.35459 c 0,0 2.1903,-0.35804 5.88606,1.9464 3.69576,2.30445 7.32303,-2.45823 3.21636,-3.68855 -4.10666,-1.23031 0.0685,-2.66368 3.76425,0.30758 3.69575,2.97127 5.13273,1.48504 6.50242,0.46137 1.36969,-1.02366 3.01091,-1.58836 0.47939,-3.3293 -2.53273,-1.74215 1.71091,-0.92154 3.62727,0.30758 1.91636,1.22911 1.16304,2.50989 0.8903,2.86914 -0.27274,0.35924 -0.47939,4.35417 3.28485,0.61515 3.76424,-3.73901 5.61212,-7.47922 5.54364,-9.32349 0,0 2.05333,1.28077 2.32727,3.63688 0.27393,2.35611 3.14788,-1.28078 4.10666,-2.56156 0.95758,-1.28078 2.60121,-4.51276 2.39576,-6.94336 0,0 2.53272,3.91683 6.29696,0 3.76424,-3.91683 2.12182,-1.4574 6.63939,-2.63605 4.51757,-1.17866 10.19818,-4.50796 13.27758,-8.24697 3.07939,-3.73901 3.28485,-1.22912 7.25454,-2.15186 3.9697,-0.92153 11.97757,-6.45436 12.7297,-9.47729 0.75333,-3.02172 0.61636,-4.866 -0.54787,-3.84233 -1.16424,1.02366 -0.68485,0.20545 -2.39576,-0.87108 -1.71091,-1.07532 -4.24363,1.38291 -4.24363,1.38291 0,0 2.53272,1.9464 0.61636,2.76581 -1.91637,0.81941 -3.76424,3.53476 -7.39152,2.50989 -3.62727,-1.02486 -7.39151,3.32931 -7.39151,3.32931 0,0 3.14788,2.61202 -1.09455,4.25204 -4.24364,1.63882 -3.55879,2.20232 -6.16,0.40971 0,0 -4.51757,5.73707 -7.11758,6.91573 0,0 -1.23152,-0.10213 -2.05333,-1.17866 0,0 -2.94243,3.32931 -4.44909,3.99613 0,0 -1.84788,-1.79261 -3.55879,-2.3561 0,0 -3.55879,4.40583 -6.5709,5.78874 0,0 -0.8903,-1.63883 -2.80666,-2.76582 0,0 -0.94677,5.76231 -7.25455,9.16971 0,0 0.41091,-1.53669 -2.73818,-3.63688 0,0 -7.80242,6.76194 -10.88182,7.42756 -3.07939,0.66562 -0.20545,-1.43457 0.20546,-2.30564 0.4109,-0.87108 2.32727,-3.73902 -1.43698,-4.91767 -3.76424,-1.17865 -3.14788,0.81941 -3.96969,1.17865 -0.82181,0.35805 -0.8903,-0.66562 -3.42182,-0.30758 -2.53272,0.35805 -2.12182,1.48504 -3.21637,1.89594 -1.09455,0.40971 -5.47515,-0.71728 -5.2697,2.20232 0.20546,2.9196 2.25879,4.91766 -1.57394,6.60815 -3.83513,1.69048 1.43577,1.33244 6.50002,0.56349 z"
     fill="#7b3c20"
     id="path41"
     style="stroke-width:1.20148" />
  <path
     d="m 853.7671,232.11243 c 0,0 0.8903,-3.68855 -2.32727,-5.48116 0,0 20.66909,-3.17552 5.06424,-11.06445 0,0 18.54728,-3.84234 14.16788,-9.78366 -4.38061,-5.94253 -8.63866,-4.61009 -9.28145,-4.50796 -0.64279,0.10212 3.94326,-3.43264 5.17478,-2.97127 1.23152,0.46137 16.15272,6.19845 12.32,1.28078 -3.83273,-4.91766 -3.49031,-4.61008 -4.10667,-6.04465 0,0 4.92728,0 12.38848,7.27377 0,0 1.57394,-1.63882 1.36849,-4.61009 0,0 5.33818,1.48503 6.98061,3.07339 0,0 0.8903,-1.84427 0.54787,-2.86914 0,0 4.58606,2.45824 6.16,5.07146 0,0 2.12182,-1.84428 2.46424,-3.94447 0,0 4.58605,1.89594 5.74909,3.32931 0,0 1.50546,-1.99806 0.95758,-4.866 0,0 7.59697,2.25398 8.62303,-2.45823 0,0 7.64263,1.65684 2.6757,4.63171 -6.38347,3.82432 -0.64519,-0.94316 -7.19327,3.61526 -5.07746,3.53476 -7.91656,7.68347 -10.35797,6.83042 -1.79381,-0.62717 -3.94687,4.59327 -6.41111,2.03171 -2.46424,-2.56156 -2.46424,-1.38291 -4.17515,1.28078 -1.71091,2.66368 -4.3806,5.37903 -4.3806,5.37903 0,0 -1.33244,-0.76895 -2.34289,-1.79261 0,0 -1.48984,2.45823 -3.4062,4.30251 0,0 -1.50546,-1.99807 -3.90121,-3.22718 0,0 -3.76424,4.35417 -6.09151,5.8392 0,0 -2.1903,-2.15186 -4.51757,-2.86914 0,0 -0.34243,5.89087 -4.92728,8.91379 0,0 -0.95758,-1.9464 -3.90121,-3.12505 0.002,0 -2.32487,3.72459 -7.32063,6.76194 z"
     fill="#5a3719"
     id="path42"
     style="stroke-width:1.20148" />
  <path
     d="m 842.89369,223.0893 c 0,0 -2.5111,1.92958 -0.8903,3.99613 1.6208,2.06535 1.71091,-0.35804 3.76424,-0.5635 2.05334,-0.20545 27.37697,-4.55962 4.44909,-11.42368 0,0 0.95758,-0.87108 4.92728,-1.22912 3.96969,-0.35804 18.34182,-4.25204 11.63515,-9.37396 -6.70667,-5.12312 -12.28515,1.74095 -6.63939,-4.40584 4.51757,-4.91766 0.8903,-7.32543 0.8903,-7.32543 0,0 -13.34606,8.91379 -16.28849,10.55262 -2.94243,1.63882 -7.18606,4.76387 -2.1903,6.40269 4.99576,1.63882 8.41878,-5.42949 8.89697,-3.84234 0.47939,1.58836 -10.06121,7.42756 -8.55455,10.14291 1.50546,2.71535 1.16303,4.96933 3.76424,4.4563 2.60121,-0.51183 9.6503,1.33244 3.90121,1.12699 -5.74909,-0.20546 -7.66545,1.48623 -7.66545,1.48623 z"
     fill="#5a3719"
     id="path43"
     style="stroke-width:1.20148" />
  <path
     d="m 852.06099,210.33918 c 0,0 -2.32727,1.63521 0.75333,0.8158 3.0794,-0.81941 9.2394,-2.15185 8.07636,-3.73901 -1.16543,-1.58836 -5.2709,0.31479 -8.82969,2.92321 z"
     id="path44"
     style="stroke-width:1.20148" />
  <path
     d="m 892.71914,183.90898 c 0,0 11.77212,-0.30758 16.63091,2.97126 4.85879,3.27885 7.18606,5.4295 8.62303,5.89087 0,0 -0.20545,4.4563 -7.73394,1.28078 0,0 0.41091,2.15185 -0.4109,4.25204 0,0 -2.80666,-1.84427 -6.02303,-2.66368 0,0 -0.54788,1.69048 -1.57394,2.66368 0,0 -3.35334,-3.38097 -7.11758,-4.40583 0,0 -0.75333,1.69048 -1.43697,2.30564 0,0 -4.03818,-2.30564 -7.11758,-2.25398 0,0 0.61636,2.45944 0,3.43264 0,0 -8.55575,-6.71028 -16.15272,-5.8392 0,0 3.69576,5.37903 6.09151,8.04271 0,0 -15.39939,-1.22911 -12.86667,-9.52775 2.53273,-8.29863 -0.20545,-6.21406 9.85576,-6.15519 10.06121,0.0589 19.23212,0.006 19.23212,0.006 z"
     fill="#7b3c20"
     id="path45"
     style="stroke-width:1.20148" />
  <path
     d="m 820.51008,206.83325 c 0,0 -1.77939,1.45019 0,2.68051 1.7794,1.22911 7.87091,-3.17552 8.69152,-3.79068 0.82182,-0.61516 3.01092,-0.51183 0,1.74215 -3.01091,2.25398 -6.09151,4.71221 -8.00787,7.17165 0,0 10.19817,-2.76581 16.83636,-8.50289 6.63819,-5.73708 -0.30878,-2.02089 11.01879,-7.47922 11.32757,-5.45834 17.24727,-14.24117 11.15576,-13.31843 -6.09151,0.92154 -11.56667,7.88893 -16.28849,10.55261 -4.72182,2.66369 -7.39152,3.02173 -6.63939,1.48504 0.75333,-1.5367 4.24364,-0.92154 10.74485,-6.14678 6.50242,-5.22525 5.06425,-4.86601 5.13273,-6.71028 0.0685,-1.84427 -2.46424,-6.4027 7.32303,-11.52581 9.78727,-5.12312 40.24364,-22.94951 42.84364,-29.04463 0,0 -8.89697,0.97321 -20.6006,9.62988 -11.70364,8.65668 -17.96936,12.70447 -21.20135,13.7798 -3.23199,1.07532 -2.82108,0.35804 -4.9429,2.86913 -2.12181,2.5099 -13.68848,13.67767 -15.8103,15.31649 -2.12181,1.63882 -2.73817,2.71535 -2.9196,6.05667 -0.0793,1.52228 -13.298,11.47896 -17.33618,15.23479 z"
     fill="#5a3719"
     id="path46"
     style="stroke-width:1.20148" />
  <path
     d="m 860.74771,183.62062 c 0,0 -2.25879,1.0489 -4.44909,0 -2.1903,-1.04889 -1.50546,-5.7623 3.76424,-8.57978 5.2697,-2.81747 14.85152,-7.01785 19.71151,-7.63301 0,0 -0.68484,6.09632 -15.8103,11.21823 0,0 0.95879,3.17432 -3.21636,4.99456 z"
     fill="#5a3719"
     id="path47"
     style="stroke-width:1.20148" />
  <path
     d="m 866.0943,179.65573 c 0,0 0.43974,1.49945 0,2.86914 0,0 28.12909,2.71535 42.63939,-14.39495 0,0 -19.91697,1.84427 -27.85516,6.60815 0,0 4.99577,-6.25011 19.91697,-11.42369 14.92,-5.17358 21.01151,-11.57748 22.31151,-15.11104 0,0 -18.86927,6.60815 -27.85515,6.60815 0,0 -1.77939,-0.0517 -3.4903,0.92154 -1.71091,0.9732 -13.75697,9.7332 -16.97334,11.21824 0,0 6.77516,-0.5635 9.17091,-2.76581 -10e-4,0 -4.7098,12.66241 -17.86483,15.47027 z"
     fill="#aa5323"
     id="path48"
     style="stroke-width:1.20148" />
  <path
     d="m 812.23187,195.73156 c 0,0 -3.62727,2.56156 -2.12181,3.84234 1.50545,1.28078 4.09825,1.53669 9.61185,-3.07339 5.5136,-4.61009 18.85966,-16.08544 10.42646,-16.54561 0,0 -10.79892,-0.66562 -10.42646,5.94253 0.37727,6.67303 -6.94817,9.41481 -7.49004,9.83413 z m -24.91272,-3.894 c 0,0 7.11758,4.14871 4.44909,7.58135 0,0 21.83332,-18.54367 15.67333,-22.5398 -6.16,-3.99613 -11.01879,3.53476 -9.51334,4.30251 1.50546,0.76894 4.72183,-0.66562 3.55879,0.76894 -1.16303,1.43457 -12.79818,9.27304 -14.16787,9.887 z m -5.68061,-5.99299 c 0,0 4.79031,1.43457 4.99576,3.48309 0.20546,2.04853 14.44061,-10.04078 10.67637,-15.11103 -1.72653,-2.32487 -9.6503,-3.27885 -9.99272,1.28078 -0.34242,4.55962 7.11758,-0.46137 4.51757,2.81747 -3.40981,4.2989 -9.16971,6.8124 -10.19698,7.52969 z m 51.23359,-10.10206 c 0,0 -3.05056,2.21313 -0.31239,3.54557 2.73818,1.33244 4.51758,-0.76895 5.88606,-1.99806 1.36849,-1.22912 8.14485,-6.19845 9.71879,-9.37396 1.57394,-3.17552 3.90121,-4.14872 6.36545,-5.78874 2.46424,-1.63882 19.84848,-10.2967 30.52485,-19.87612 10.67636,-9.57941 6.22848,-7.11998 17.31575,-13.26796 11.08727,-6.14678 18.34182,-11.78173 20.66909,-18.44154 0,0 -5.13273,1.69048 -9.6503,4.61008 -4.51757,2.9196 -14.71455,9.3235 -16.76788,10.19337 -2.05333,0.86988 -4.92728,1.02487 -6.43393,2.61203 -1.50546,1.58835 -1.36849,3.48309 -6.70788,7.88892 -5.33818,4.40584 -32.9206,23.87104 -36.27393,26.63686 -3.35334,2.76941 -14.33368,13.25955 -14.33368,13.25955 z"
     fill="#5a3719"
     id="path49"
     style="stroke-width:1.20148" />
  <path
     d="m 810.68196,182.19086 c 0,0 3.01092,-1.66045 8.66869,-1.27357 5.65778,0.38568 28.01495,-21.26503 34.49455,-25.63602 6.47959,-4.37099 26.73777,-18.98821 29.47595,-21.6519 2.73817,-2.66368 3.19354,-5.53282 5.56646,-7.10316 2.37293,-1.57034 4.56323,-1.36608 10.03838,-4.50796 5.47515,-3.14187 31.75637,-18.85125 30.20525,-28.002935 0,0 -39.14788,23.494975 -48.18302,31.144815 -9.03394,7.64983 -34.12929,24.99803 -38.60121,27.79868 -4.47191,2.80065 -8.0307,7.64983 -15.51353,13.72813 -7.48283,6.0783 -14.87314,11.20021 -16.15152,15.50392 z"
     fill="#aa5323"
     id="path50"
     style="stroke-width:1.20148" />
  <path
     d="m 802.46383,173.86459 c 0,0 7.24493,-0.74131 8.21333,2.80066 0,0 15.51353,-10.65474 19.07232,-15.02573 3.55879,-4.371 -1.18586,-1.84428 7.66545,-7.64984 8.85132,-5.80556 38.23596,-26.36411 42.43393,-30.05266 4.19798,-3.68855 12.13737,-8.53773 18.52445,-12.84024 6.38828,-4.3025 31.39232,-16.528783 28.56283,-26.569566 0,0 -18.34182,12.293561 -22.44849,14.958448 -4.10666,2.663688 -5.8404,1.160628 -10.03838,4.439478 -4.19798,3.27884 -13.41454,9.83533 -15.05697,11.88385 -1.64242,2.04853 -15.69616,12.84024 -22.5398,17.41668 -6.84364,4.57645 -22.17454,13.4554 -29.56726,19.87612 -7.39272,6.41951 -21.71919,18.30457 -24.82141,20.7628 z"
     fill="#aa5323"
     id="path51"
     style="stroke-width:1.20148" />
  <path
     d="m 779.88798,171.762 c 0,0 3.66573,0.0529 4.76028,1.48743 0,0 6.77635,-5.94373 13.98524,-0.0697 0,0 26.46384,-17.89487 29.11071,-22.40283 2.64686,-4.50796 6.93495,-4.57645 17.24727,-12.08931 10.31231,-7.51287 16.7907,-10.65474 23.63555,-15.98211 6.84364,-5.32737 12.59273,-11.33838 17.5212,-14.54754 4.92728,-3.21036 17.33859,-11.338386 15.2396,-18.373062 0,0 -10.03838,5.737076 -16.60808,12.908722 -6.56971,7.17164 -6.02303,1.02486 -12.68405,7.03467 -6.66221,6.01102 -16.97333,14.20632 -25.55191,18.44155 -8.57858,4.23522 -3.37616,3.75703 -9.58182,7.71832 -6.20565,3.96128 -5.74909,3.34732 -8.0307,3.8928 -2.28161,0.54667 -5.74909,2.18549 -8.03071,4.84918 -2.28161,2.66368 -8.39595,6.28375 -15.05696,10.04078 -6.66222,3.75583 -23.04202,13.50586 -25.95562,17.09108 z"
     fill="#aa5323"
     id="path52"
     style="stroke-width:1.20148" />
  <path
     d="m 787.86582,158.02906 c 0,0 -1.43697,-2.97126 1.09455,-5.07145 2.53273,-2.10019 7.11758,-7.63302 7.87091,-11.11611 0.75333,-3.4831 0.20545,-2.9196 7.52849,-5.94253 7.32303,-3.02173 23.95394,-10.80853 33.3315,-16.59727 9.37637,-5.78874 23.61272,-15.11104 26.55515,-17.36502 2.94243,-2.253975 10.08404,-7.273766 12.98081,-9.629872 0,0 1.39132,3.944465 -1.75656,6.659814 -3.14789,2.715348 -15.26243,11.218238 -17.24728,12.550678 -1.98484,1.33244 -13.1406,8.81047 -16.56242,10.7064 -3.42182,1.89594 -11.90909,6.19845 -14.92,8.70834 -3.01092,2.5099 -2.62404,3.27885 -16.06141,9.83533 -13.43737,6.55649 -14.05373,7.22331 -13.64283,7.73514 0.41091,0.51183 6.43394,-2.10019 9.30788,-3.79067 2.87515,-1.69049 13.89394,-6.71028 17.17879,-9.3235 3.28485,-2.61202 8.82849,-6.71028 11.22424,-8.04272 2.39576,-1.33244 22.24303,-13.2163 27.92364,-17.41668 5.68061,-4.20038 7.25455,-5.58328 8.48727,-4.866 1.23152,0.71728 3.21636,0.76895 0.68484,3.17552 -2.53272,2.40777 -10.60788,9.47728 -13.68848,11.52581 -3.0794,2.04853 -12.7297,7.7868 -15.39939,9.16971 -2.66969,1.38291 -3.69576,3.94446 -5.20122,5.01979 -1.50545,1.07533 -5.88606,4.20038 -11.22424,5.4295 -5.33818,1.22911 -6.29696,5.22524 -9.78727,7.47922 -3.4903,2.25398 -28.32974,15.62407 -29.08307,16.28969 0,0 1.50186,-1.5379 0.4061,-5.12312 z"
     fill="#aa5323"
     id="path53"
     style="stroke-width:1.20148" />
  <path
     d="m 873.81983,102.24907 c 0,0 -1.36849,1.2123 -0.61636,1.89594 0.99362,0.90111 4.44909,3.3293 8.76,-0.94797 4.31212,-4.277276 15.89561,-13.600774 19.65144,-15.803091 3.75583,-2.202316 5.53523,-4.302506 5.39826,-7.325434 0.001,0 -17.79395,9.477288 -33.19334,22.180555 z m 24.50182,-1.63882 c 0,0 2.73817,-4.559624 9.44485,-8.862131 6.70667,-4.302506 16.77629,-10.567032 18.13636,-12.089309 0,0 2.39576,2.715349 -2.87394,6.044655 -5.2697,3.329306 -15.53636,10.142909 -16.76788,11.116109 -1.23152,0.9732 -3.28485,2.458232 -7.93939,3.790676 z"
     fill="#aa5323"
     id="path54"
     style="stroke-width:1.20148" />
  <path
     d="m 761.92583,150.24346 c 0,0 -7.46,3.99613 -4.79031,6.50602 2.6697,2.5099 6.63939,1.74215 8.28182,1.02487 1.64242,-0.71729 4.79031,-1.48503 5.2697,-1.63882 0.47939,-0.15379 6.98061,-1.99807 8.62303,-5.01979 1.64243,-3.02173 6.02303,-6.50603 9.51333,-9.01592 3.49031,-2.5099 4.72183,-5.01979 4.24364,-6.8124 -10e-4,-0.001 -29.37984,13.87711 -31.14121,14.95604 z m -44.35029,34.47532 c 0,0 5.15435,-3.06498 12.38847,-1.12699 0,0 -0.34242,-1.76257 -1.43697,-2.6745 0,0 8.76001,-2.29483 10.67637,-6.18763 1.91636,-3.8928 2.32727,-3.07339 4.03818,-4.20038 1.71091,-1.12699 13.55151,-10.65474 12.18302,-12.70447 -1.36848,-2.04973 -1.64242,-4.71221 -2.66969,-5.78874 0,0 -2.46424,3.38097 -13.96242,8.96426 -11.49818,5.58328 -24.29636,9.78366 -33.60424,22.33434 -9.30788,12.55068 -8.3503,19.82445 3.01091,22.99997 0,0 8.00788,-5.01979 27.51393,-3.27885 19.50606,1.74215 26.14425,9.06638 27.37697,10.39883 1.23152,1.33244 5.20121,6.14678 1.36849,14.29162 0,0 3.90121,1.69049 4.24363,-2.04852 0.34242,-3.73901 0.54788,-2.86914 1.43697,-2.30565 0.8903,0.5635 1.98485,0.66562 1.57394,-2.20231 -0.4109,-2.86914 -1.77939,-9.27184 -3.55879,-11.47415 -1.77939,-2.20232 0.20546,-1.22912 1.36849,-0.76895 1.16304,0.46137 5.2697,3.79067 2.80666,-2.35611 -2.46424,-6.14678 -3.07939,-3.12505 -3.14788,-2.81747 -0.0685,0.30758 -0.54788,1.84427 -5.88606,-2.15186 -5.33818,-3.99612 -10.19818,-5.94252 -13.82545,-6.96619 -3.62727,-1.02366 -1.09455,-1.02486 1.02607,-1.79261 2.12181,-0.76895 4.99576,-1.22911 5.95454,-3.58522 0,0 -2.12182,0.51183 -6.02303,-0.87107 -3.90121,-1.38291 -11.70363,-1.5367 -18.0006,3.17551 0,0 1.98485,-7.27377 -3.76424,-6.86406 -5.74909,0.4097 -9.78727,0.25591 -15.87878,5.07145 0,0 -0.34243,-7.32543 5.40666,-11.11611 5.74909,-3.79067 4.99577,-1.48503 8.21333,-2.45823 3.21757,-0.9732 3.49031,-4.20038 2.12182,-5.22524 0,0 7.52849,1.28078 20.1897,-9.22017 0,0 -6.80279,8.91379 -15.07139,10.7064 0,0 -1.30961,4.74465 -8.81527,5.78874 -7.50445,1.04409 -7.32183,5.37903 -7.25334,6.45436 z"
     fill="#7b3c20"
     id="path55"
     style="stroke-width:1.20148" />
  <path
     d="m 695.96448,228.13552 c 0,0 3.69336,-22.07362 24.36485,-23.67159 18.11354,-1.39973 23.86263,0.85425 27.46828,2.01489 3.60564,1.16063 12.4101,3.75703 8.98828,6.59132 -3.42182,2.8343 -5.38384,2.32247 -5.38384,2.32247 0,0 3.9697,-4.40584 0.36525,-5.15676 -3.60444,-0.75093 -3.92404,1.43457 -4.42625,3.27884 -0.50222,1.84428 -0.73051,4.06341 -2.5099,5.49798 0,0 -1.82505,-2.11701 -4.42626,-0.27273 -2.60121,1.84427 -0.36525,1.91276 0.68485,1.60518 1.04889,-0.30758 2.41858,-0.85426 2.14464,0.75092 -0.27394,1.60518 -1.73374,4.37099 -6.02303,6.62497 -4.28929,2.25398 -4.06101,2.11701 -9.17091,2.93642 -5.1099,0.81941 -9.85575,2.8343 -16.3798,8.43561 -6.52525,5.6001 -13.66565,3.7318 -15.10262,-2.52672 -1.23152,-5.36702 -0.59354,-8.4308 -0.59354,-8.4308 z"
     fill="#5a3719"
     id="path56"
     style="stroke-width:1.20148" />
  <path
     d="m 719.62647,227.44467 c 0,0 1.98484,-4.35417 -1.57395,-6.35223 0,0 -10.88302,1.8659 -14.09938,-1.43457 0,0 11.8406,-0.61516 19.16363,-3.4831 7.32303,-2.86914 5.13273,-4.866 2.60121,-5.32737 -2.53273,-0.46137 -7.18606,0.66562 -7.66546,2.97127 0,0 -1.43697,-2.45823 0.41091,-4.09826 1.84788,-1.64002 4.72303,-1.9464 7.32303,-1.17865 2.60121,0.76895 4.92728,1.89594 13.48303,-2.56156 0,0 4.92728,1.12699 5.06425,4.4563 0.13697,3.3293 -0.34243,4.71221 -0.75333,5.22524 -0.41091,0.51183 -1.02607,1.48503 -2.05334,1.38291 -1.02606,-0.10213 -2.32727,-0.35805 -3.62727,1.9464 -1.3,2.30564 -2.08097,4.3025 -4.25685,5.8392 0,0 2.54594,-7.17165 -3.75102,-8.86213 0,0 -5.20122,3.07339 -9.17092,3.22718 0,0.002 5.06545,4.71461 -1.09454,8.24937 z"
     id="path57"
     style="stroke-width:1.20148" />
  <path
     d="m 730.98768,214.28004 c 0,0 -2.39576,-2.63846 0.75333,-2.9196 3.14788,-0.28115 7.32303,2.02329 6.50242,3.96969 -0.82182,1.9464 -4.51758,1.86951 -7.25575,-1.05009 z"
     fill="#5a3719"
     id="path58"
     style="stroke-width:1.20148" />
  <path
     d="m 908.86705,179.29529 c 0,0 -5.74909,1.63882 -0.4109,5.17358 5.33818,3.53476 7.93939,6.60815 11.8406,7.63301 3.90121,1.02487 7.93939,2.45824 7.87091,6.35224 -0.0685,3.8928 -0.82182,5.42949 -2.94243,8.09318 -2.12182,2.66368 1.16303,3.84234 3.96969,2.30564 2.80666,-1.53669 5.20122,-2.3561 7.04909,-3.43263 1.8479,-1.07653 4.9273,-0.92154 2.1218,0.51183 -2.80664,1.43457 -5.74907,2.30564 -2.1218,2.40777 3.6273,0.10213 25.4606,0.51183 30.0455,-0.9732 4.58479,-1.48503 10.53939,-1.9464 11.08719,-7.88893 0,0 0.2055,-2.63845 1.9164,-3.73901 1.7109,-1.10176 2.8751,-3.63689 0.3761,-1.92117 -2.4979,1.71572 -4.4143,2.58679 -4.8937,2.07496 -0.4794,-0.51183 -0.6163,-0.87108 1.1979,-1.71572 1.8142,-0.84464 2.8403,-0.0517 4.5176,-2.53512 1.6772,-2.48467 1.5126,-2.07496 0.6199,-3.02173 -0.8939,-0.94797 -2.7754,-1.63882 -1.8514,-2.84271 0.9239,-1.20388 1.8478,-4.7891 -2.1555,-2.68891 -4.0033,2.10019 -11.88629,7.51286 -15.53639,8.36712 -3.6501,0.85425 -6.4339,1.96442 -11.3612,2.96285 -4.9273,0.99843 -7.985,2.05694 -13.2319,4.95972 -5.24686,2.90278 -4.88161,-1.60278 -3.96969,-2.21914 0,0 2.00768,3.51674 7.34589,-1.05971 5.3382,-4.57644 3.6008,-0.28595 16.6537,-4.57644 13.05289,-4.29049 9.8558,-4.98615 14.96569,-7.64983 5.1099,-2.66369 9.947,-2.76582 6.3882,-6.3174 -3.5587,-3.55158 -3.9697,-3.85916 -8.5773,0 -4.60889,3.85916 -17.33859,10.07443 -24.95839,10.24504 0,0 29.43029,-12.70447 26.41819,-14.54754 -3.0109,-1.84428 -6.25129,-3.4831 -8.30469,-3.92765 -2.0533,-0.44454 -2.6012,-0.95638 -7.3458,1.16064 -4.7447,2.11701 -5.5208,2.63004 -6.8893,2.76581 -1.3685,0.13576 -5.3382,0.92153 -10.9503,3.82431 -5.61216,2.90278 -8.62307,4.06341 -12.36569,6.35224 0,0 2.60121,-5.25889 14.19069,-8.74198 11.5895,-3.4831 17.5212,-6.69346 16.2428,-7.27377 -1.2771,-0.58032 -4.1523,-1.05851 -6.3426,-0.71729 -2.1903,0.34122 -1.5511,-0.17061 -8.623,2.63004 -7.07193,2.80066 -4.061,2.1855 -9.76445,3.41462 -5.70344,1.22911 -8.03071,2.49307 -10.85899,3.68854 0,0 1.15342,-1.53789 4.99576,-2.94603 1.97403,-0.72209 -2.16027,-1.46701 3.31969,-1.68928 0.44695,-0.018 0.99483,0.11174 1.5391,-0.0433 7.08389,-2.0317 14.82869,-4.81553 13.64279,-5.01979 -1.1858,-0.20545 -8.07633,-0.92153 -15.05693,2.28762 -6.98061,3.21036 -3.78708,2.11702 -6.25131,2.63005 -2.46424,0.51183 -7.66546,3.79067 -9.3992,5.1904 -1.73494,1.39852 -4.15232,2.45703 -4.15232,2.45703 z"
     fill="#ffffff"
     id="path59"
     style="stroke-width:1.20148" />
  <path
     d="m 736.50248,211.09851 c 0,0 2.73817,0.81941 3.42182,2.74058 0.68364,1.92117 2.39575,-0.84464 2.32727,-1.71571 -0.0685,-0.87108 -1.74575,-4.71222 -4.72303,-2.9196 -2.97727,1.79261 -1.48383,1.72893 -1.02606,1.89473 z"
     fill="#5a3719"
     id="path60"
     style="stroke-width:1.20148" />
  <path
     d="m 728.86586,249.06173 c 0,0 5.84281,-2.74779 10.74485,-2.40777 0,0 -1.91636,-6.91573 1.50546,-5.73707 3.42182,1.17865 2.46424,0.71728 3.14788,0.66562 0,0 0.20545,-4.55963 -0.68484,-6.35224 0,0 3.4903,0.81941 7.04909,0.87108 0,0 -3.35334,-6.55649 0.34242,-11.06445 0,0 2.0293,4.30251 6.59253,5.37904 0,0 0.0216,-1.84428 0,-3.79068 0,0 2.71535,-0.30758 4.83717,0.81941 2.12181,1.12699 3.90121,-11.88385 -2.39576,-14.75299 0,0 -1.50545,2.45823 -7.39151,3.68855 -5.88606,1.22911 -5.838,2.41137 -8.25779,6.84123 -2.41978,4.42987 -4.5404,4.48033 -9.46888,7.65585 -4.92727,3.17551 -7.92257,9.62987 -8.20491,10.19337 0.002,0 2.5952,3.17551 2.18429,7.99105 z"
     fill="#7b3c20"
     id="path61"
     style="stroke-width:1.20148" />
  <path
     d="m 925.21922,173.48012 c 2.13984,-0.37486 -2.16026,-1.46701 3.31969,-1.68929 0.44695,-0.018 0.99483,0.11174 1.5391,-0.0433 7.0839,-2.0317 14.8287,-4.81554 13.6428,-5.01979 -1.1858,-0.20545 -8.07633,-0.92154 -15.05694,2.28762 -6.98061,3.21036 -3.78707,2.11701 -6.25131,2.63005 -2.46424,0.51183 -7.66546,3.79067 -9.39919,5.1904 -1.73374,1.39972 -4.15232,2.45823 -4.15232,2.45823 0,0 -5.7491,1.63882 -0.41091,5.17358 5.33818,3.53476 7.93939,6.60815 11.8406,7.63301 3.90121,1.02487 7.93939,2.45823 7.87091,6.35224 -0.0685,3.8928 -0.82182,5.42949 -2.94243,8.09318 -2.12182,2.66368 1.16303,3.84234 3.9697,2.30564 2.80666,-1.53669 5.20121,-2.3561 7.04909,-3.43263 1.8479,-1.07653 4.9273,-0.92154 2.1218,0.51183 -2.80665,1.43457 -5.74907,2.30564 -2.1218,2.40777 3.6273,0.10212 25.4606,0.51183 30.0455,-0.9732 4.58479,-1.48503 10.53939,-1.9464 11.08719,-7.88893 0,0 0.2055,-2.63845 1.9164,-3.73901 1.7109,-1.10176 2.8751,-3.63689 0.3761,-1.92117 -2.4979,1.71571 -4.4143,2.58679 -4.8937,2.07496 -0.4794,-0.51183 -0.6163,-0.87108 1.1979,-1.71572 1.8142,-0.84464 2.8403,-0.0517 4.5176,-2.53512 1.6772,-2.48467 1.5126,-2.07496 0.6199,-3.02173 -0.4589,-0.4866 -1.1774,-0.90472 -1.6436,-1.36008 0,0 -1.3144,-1.14982 -2.8427,-0.17662 -1.5283,0.9732 -8.2362,3.8075 -10.92749,4.1319 -2.6925,0.3244 -5.4751,1.46821 -10.3123,3.82432 -4.8372,2.3561 -12.8667,7.15482 -14.145,2.69732 0,0 -3.5024,1.24954 -4.2665,1.63882 -5.39345,2.74899 -4.92247,-1.15222 -3.9697,-2.21913 0,0 -2.82829,3.17551 -2.71535,0.28955 0.11414,-2.88596 1.9392,-2.39095 5.08708,-3.31248 3.14787,-0.92154 8.12197,-2.97127 6.06867,-4.67857 -2.0533,-1.70731 -4.2208,1.69529 -6.50241,2.73457 -2.28161,1.03928 -6.84364,1.96082 -7.55131,-1.35167 -0.70767,-3.31248 -0.68484,-5.61812 -6.86647,-5.97617 -6.18162,-0.35804 -5.95454,-4.2172 -4.26646,-5.87404 1.68808,-1.65684 3.17311,-4.49114 8.96786,-5.50639 z"
     fill="#999999"
     id="path62"
     style="stroke-width:1.20148" />
  <path
     d="m 944.86701,203.43666 c 0,0 9.6275,-4.43947 18.4788,-6.52284 8.85129,-2.08337 1.9164,0.27274 0.4109,0.75092 -1.5054,0.47819 -15.2852,5.0198 -18.5244,6.52285 -3.2404,1.50305 -2.5724,0.21747 -0.3653,-0.75093 z m 2.236,1.9464 c 0,0 10.8133,-3.58522 12.821,-2.08337 2.0077,1.50306 0.3653,0.75093 -2.0077,1.09335 -2.3729,0.34122 -8.8969,1.43457 -10.6307,1.39973 -1.7349,-0.0336 -0.1826,-0.40971 -0.1826,-0.40971 z m 17.3386,-3.75583 c 0,0 2.0533,-0.37606 2.2816,0.37607 0.2283,0.75092 -0.9131,0.85425 -2.0533,0.71728 -1.1414,-0.13697 -2.1447,-0.78697 -0.2283,-1.09335 z"
     id="path63"
     style="stroke-width:1.20148" />
  <path
     d="m 678.82895,295.84743 c 0,0 -0.4037,-9.49411 4.38661,-14.30965 4.79031,-4.81553 28.06061,-29.0314 31.6194,-35.80055 0,0 3.01091,2.09298 3.14788,5.93532 0,0 3.90121,-6.71868 6.98061,-9.25021 0,0 2.73817,2.79585 2.25878,8.37914 0,0 5.61212,-2.97127 14.30484,-3.02173 0,0 -3.21636,3.79068 -3.35333,5.99299 0,0 12.04606,-1.33244 18.34182,-0.30758 0,0 -16.56243,9.27184 -11.90909,10.09125 4.65334,0.81941 9.51334,-0.0517 9.51334,-0.0517 0,0 -5.2697,5.37904 -13.68849,6.45436 0,0 10.67637,-0.15379 12.79819,2.25398 0,0 -10.40363,1.58836 -18.75273,7.9394 0,0 -0.77976,-0.35805 -0.83503,-2.71535 0,0 -0.25952,2.10019 -2.65527,4.09825 -2.39576,1.99807 -8.14485,6.25011 -10.26667,8.40076 -2.12181,2.15186 -6.09151,6.4027 -10.33514,6.19845 0,0 0.95758,-3.27885 -2.1903,-4.30251 -3.14789,-1.02486 -6.77516,-0.30758 -9.30788,2.40777 0,0 -11.22425,0.15379 -14.78303,0.66562 0,0 2.53272,-4.04659 4.85879,-3.94446 2.32727,0.10212 11.70363,1.3829 12.52424,-5.0198 0.82182,-6.40269 -6.02302,-4.71221 -3.42182,-8.50288 2.60121,-3.79068 1.98485,-3.63689 2.05334,-3.99613 0,0 -2.12182,1.17865 -3.35334,4.55962 -1.23152,3.38097 -2.12182,5.99299 -6.5709,9.37396 -4.44909,3.38097 -6.29096,5.4283 -7.52248,7.7844 0.002,0.002 -2.0269,0.28476 -3.84234,0.68725 z"
     fill="#ffffff"
     id="path64"
     style="stroke-width:1.20148" />
  <path
     d="m 689.62066,290.10795 c 0,0 0.36525,-1.2976 3.6501,-1.84427 3.28485,-0.54668 3.42182,-2.11701 3.01091,-2.80065 -0.4109,-0.68365 -2.37292,-0.68245 0.82182,-4.30251 0,0 1.1402,0.30758 1.91636,1.19547 0.77616,0.8879 4.3794,8.60622 -9.39919,7.75196 z"
     fill="#ffffff"
     id="path65"
     style="stroke-width:1.20148" />
  <path
     d="m 681.73533,283.40369 c 0.17061,6.3258 8.46084,3.9757 8.46084,3.9757 -2.95324,2.24437 -4.75907,3.90121 -5.999,5.45112 0.54788,-3.07339 -4.67496,-3.84234 -4.67496,-3.84234 0.43013,-1.87911 1.11737,-3.86757 2.21312,-5.58448 z m 30.4828,-33.8073 c 1.20028,-1.57034 2.1098,-2.89076 2.61803,-3.85796 0,0 3.01091,2.09298 3.14788,5.93532 0,0 3.90121,-6.71868 6.98061,-9.2502 0,0 2.73818,2.79584 2.25878,8.37913 0,0 5.61213,-2.97127 14.30364,-3.02173 0,0 -3.21636,3.79068 -3.35333,5.99299 0,0 12.04606,-1.33244 18.34182,-0.30758 0,0 -16.56243,9.27184 -11.90909,10.09125 4.65454,0.81941 9.51334,-0.0517 9.51334,-0.0517 0,0 -5.2697,5.37903 -13.68849,6.45436 0,0 10.67637,-0.15379 12.79819,2.25398 0,0 -3.03975,0.46377 -7.15122,1.89353 0,0 -3.06979,-2.88356 -11.96676,-2.47385 0,0 6.92053,-3.87238 12.4101,-5.12312 0,0 -2.41858,-3.17551 -6.20565,-0.27273 0,0 -7.52848,-5.19041 -1.32283,-9.59624 0,0 -4.3806,-0.92154 -7.25455,1.12699 0,0 0.13697,-3.55158 3.33051,-5.15676 0,0 -8.44161,-1.36608 -10.5394,4.84918 0,0 -1.59677,-2.56156 -0.86747,-5.46434 0,0 -5.1099,2.93883 -7.43717,6.26813 0.002,10e-4 -0.76775,-6.31258 -4.00694,-8.66869 m -16.35938,40.14872 c -1.51507,0.37246 -3.54317,0.53225 -6.23208,0.36525 0,0 0.23068,-0.81821 1.96923,-1.42857 0,0 0.49861,1.03808 4.26285,1.06332"
     fill="#999999"
     id="path66"
     style="stroke-width:1.20148" />
  <path
     d="m 711.20768,265.81279 c 0,0 3.83273,3.02173 5.20122,4.866 0,0 3.4903,-2.45943 4.7903,-4.45629 0,0 2.73818,1.79261 3.69576,4.45629 0,0 1.91637,-1.33244 2.32727,-3.17551 0,0 4.83236,1.02486 6.41952,2.61202 0,0 0.73891,-4.66175 0,-7.58135 0,0 3.36775,0.25591 5.42109,1.12699 0,0 -1.90916,-3.07339 7.83966,-7.01786 0,0 -7.37229,1.58235 -10.16693,4.81554 0,0 -3.14789,0.15379 -4.51758,-0.81941 0,0 0.20546,4.71221 0.0685,6.96619 0,0 -1.89954,-0.76895 -5.60371,-1.63882 0,0 -0.89751,1.5367 -1.51387,1.89474 0,0 -2.32727,-1.84428 -3.35334,-4.20038 0,0 -3.55999,3.23318 -4.92727,4.61008 0,0 -3.35334,-2.3561 -5.68061,-2.45823 z"
     id="path67"
     style="stroke-width:1.20148" />
  <path
     d="m 689.1641,313.76513 c 0,0 1.50545,0.71728 5.06424,-2.15185 3.55879,-2.86914 13.62,-9.27184 14.57758,-14.39496 0.95758,-5.12312 -3.21637,-5.42949 -6.50242,-3.94446 -3.28485,1.48503 -1.91636,4.35417 -1.77939,5.2757 0.13697,0.92154 0.20545,4.50796 -5.13273,9.47729 -5.33819,4.97053 -6.22728,5.73828 -6.22728,5.73828 z"
     fill="#ffc221"
     id="path68"
     style="stroke-width:1.20148" />
  <path
     d="m 688.00707,315.39914 c 0,0 -8.07636,-3.38096 -0.82181,-7.01785 7.25454,-3.63689 10.47211,-4.61009 11.29272,-7.63301 0.82182,-3.02293 0.34243,-2.5099 -2.32727,-1.22912 -2.66969,1.28078 -12.93515,5.89087 -14.50909,1.58836 0,0 4.24363,1.63882 9.51333,-0.92154 5.2697,-2.56035 9.58182,-3.3293 6.22848,-4.40583 -3.35333,-1.07533 -15.46787,0.25591 -17.45272,0.81941 -1.98485,0.56349 -1.50546,0.46137 -1.84788,2.45823 -0.34242,1.99807 -2.60121,6.19845 -3.42182,7.42756 -0.82181,1.22912 -2.80666,6.35224 0.8903,8.60622 3.69455,2.25398 9.55298,2.09898 12.45576,0.30757 z"
     fill="#ffc221"
     id="path69"
     style="stroke-width:1.20148" />
  <path
     d="m 684.86039,297.77701 c 0,0 -1.85028,0.25592 -1.50786,0.9732 0.34242,0.71729 0.82542,0.61516 1.50786,0.66562 0.68244,0.0505 1.70971,-0.35804 1.84547,-0.81941 0.13697,-0.46017 -1.15943,-0.972 -1.84547,-0.81941 z"
     id="path70"
     style="stroke-width:1.20148" />
  <path
     d="m 687.52768,313.60653 c 0,0 -3.83273,-1.84427 0.47939,-4.20038 4.31212,-2.3561 8.96546,-4.61008 9.58182,-5.58328 0,-0.001 -2.05334,2.9184 -10.06121,9.78366 z"
     fill="#ffffff"
     id="path71"
     style="stroke-width:1.20148" />
</svg>
