<?xml version="1.0" encoding="UTF-8" standalone="no"?>
<svg
   width="1000"
   height="600"
   viewBox="0 0 16000 9600"
   version="1.1"
   id="svg2"
   sodipodi:docname="bb.svg"
   inkscape:version="1.3.2 (091e20e, 2023-11-25, custom)"
   xmlns:inkscape="http://www.inkscape.org/namespaces/inkscape"
   xmlns:sodipodi="http://sodipodi.sourceforge.net/DTD/sodipodi-0.dtd"
   xmlns:xlink="http://www.w3.org/1999/xlink"
   xmlns="http://www.w3.org/2000/svg"
   xmlns:svg="http://www.w3.org/2000/svg">
  <defs
     id="defs2" />
  <sodipodi:namedview
     id="namedview2"
     pagecolor="#505050"
     bordercolor="#eeeeee"
     borderopacity="1"
     inkscape:showpageshadow="0"
     inkscape:pageopacity="0"
     inkscape:pagecheckerboard="0"
     inkscape:deskcolor="#505050"
     inkscape:zoom="0.31025"
     inkscape:cx="-125.70508"
     inkscape:cy="1013.6986"
     inkscape:window-width="2560"
     inkscape:window-height="1417"
     inkscape:window-x="3832"
     inkscape:window-y="313"
     inkscape:window-maximized="1"
     inkscape:current-layer="svg2" />
  <path
     fill="#00267f"
     d="M 0,0 H 16000 V 9600 H 0 Z"
     id="path1"
     style="stroke-width:0.632456" />
  <path
     fill="#ffc726"
     d="M 5333.3333,0 H 10666.667 V 9600 H 5333.3333 Z"
     id="path2"
     style="stroke-width:0.632456" />
  <path
     id="a"
     fill="#000000"
     d="m 8000,2216.0053 c -173.3333,472.6667 -350,964.6667 -728,1341.3334 117.3333,-38.6667 322.6667,-73.3334 454.6667,-70 v 1988 l -561.3334,83.3333 c -20,-2 -26.6666,-33.3333 -26.6666,-76 -54,-617.3333 -200,-1136 -368,-1672.6667 -12,-73.3333 -224.6667,-353.3333 -60.6667,-304 20,2.6667 239.3333,92 204.6667,49.3334 -298.6667,-309.3334 -735.3334,-532 -1159.3334,-598 -37.3333,-9.3334 -59.3333,9.3333 -26,52.6666 562.6667,866 1033.3334,1888 1029.3334,3100.6667 218.6666,0 748.6666,-129.3333 968,-129.3333 v 1402.6666 h 276.6666 l 63.3334,-3917.3333 z"
     style="stroke-width:0.666667" />
  <use
     xlink:href="#a"
     transform="matrix(-1,0,0,1,16000,0)"
     id="use2" />
</svg>
