<?xml version="1.0" encoding="UTF-8" standalone="no"?>
<svg
   height="600"
   width="1000"
   version="1.1"
   id="svg98"
   sodipodi:docname="bm.svg"
   inkscape:version="1.3.2 (091e20e, 2023-11-25, custom)"
   xmlns:inkscape="http://www.inkscape.org/namespaces/inkscape"
   xmlns:sodipodi="http://sodipodi.sourceforge.net/DTD/sodipodi-0.dtd"
   xmlns="http://www.w3.org/2000/svg"
   xmlns:svg="http://www.w3.org/2000/svg">
  <defs
     id="defs98" />
  <sodipodi:namedview
     id="namedview98"
     pagecolor="#505050"
     bordercolor="#eeeeee"
     borderopacity="1"
     inkscape:showpageshadow="0"
     inkscape:pageopacity="0"
     inkscape:pagecheckerboard="0"
     inkscape:deskcolor="#505050"
     inkscape:zoom="0.71629917"
     inkscape:cx="478.8502"
     inkscape:cy="552.1436"
     inkscape:window-width="2560"
     inkscape:window-height="1417"
     inkscape:window-x="3832"
     inkscape:window-y="313"
     inkscape:window-maximized="1"
     inkscape:current-layer="svg98" />
  <path
     d="M 0,0 H 1000 V 600 H 0 Z"
     fill="#c8102e"
     id="path1"
     style="stroke-width:1.09545" />
  <path
     d="M 0,0 H 500 V 300 H 0 Z"
     fill="#012169"
     id="path2"
     style="stroke-width:1.09545" />
  <path
     d="M 0,0 V 33.54 L 444.1,300 H 500 V 266.46 L 55.9,0 Z M 500,0 V 33.54 L 55.9,300 H 0 V 266.46 L 444.1,0 Z"
     fill="#ffffff"
     id="path3"
     style="stroke-width:1.09545" />
  <path
     d="m 208.333,0 v 300 h 83.334 V 0 Z M 0,99.9996 V 200.0004 H 500 V 99.9996 Z"
     fill="#ffffff"
     id="path4"
     style="stroke-width:1.09545" />
  <g
     fill="#c8102e"
     id="g5"
     transform="scale(1,1.2)">
    <path
       d="m 0,100 v 50 H 500 V 100 Z M 225,0 v 250 h 50 V 0 Z M 0,250 166.667,166.667 h 37.266 L 37.267,250 Z M 0,0 166.667,83.333 H 129.4 L 0,18.633 Z M 296.067,83.333 462.733,0 H 500 L 333.333,83.333 Z M 500,250 333.333,166.667 H 370.6 l 129.4,64.7 z"
       id="path5" />
  </g>
  <path
     d="m 885.2394,127.9968 v 254.0844 c 0,67.8684 -135.6744,89.9196 -135.6744,89.9196 0,0 -135.6744,-22.0512 -135.6744,-89.9196 V 127.9968 Z"
     fill="#ffffff"
     id="path6"
     style="stroke-width:1.2" />
  <path
     d="m 885.2394,382.0812 c 0,67.8684 -135.6744,89.9196 -135.6744,89.9196 0,0 -135.6744,-22.0512 -135.6744,-89.9196 0,0 0,-5.466 2.7612,-8.574 0,0 -1.4952,11.2884 7.1772,19.8264 0,0 -6.8028,-12.0444 -0.15,-23.8812 0,0 -2.4672,15.2292 7.0272,23.9748 0,0 -5.2332,-12.4404 0.6732,-26.3124 0,0 -2.916,22.6932 7.4016,27.2172 0,0 2.8404,-13.0428 -1.2708,-21.4116 0,0 7.1028,2.8644 6.7284,21.7884 0,0 2.2428,-2.79 2.8404,-16.4364 0,0 0.2988,15.606 5.682,19.2252 0,0 1.6452,-1.5828 -0.5976,-8.67 -2.2428,-7.0872 0.972,-9.5748 1.4952,-9.4248 0,0 -1.1796,7.8408 5.3916,13.722 0,0 -2.8488,-12.2892 1.1136,-13.9476 0,0 -0.822,10.404 7.4016,12.7416 0,0 0.5976,-3.0156 -1.1964,-6.408 0,0 -1.5696,-4.0236 -0.3744,-7.1016 0,0 2.6172,9.438 6.2052,11.022 0,0 -2.1684,-5.532 -0.15,-11.022 0,0 0.4488,7.8552 7.476,11.0964 0,0 -4.6296,-6.0804 -2.8008,-12.7668 l 45.1908,2.2116 23.4012,1.116 70.2024,-4.9608 12.1116,-10.404 c 0,0 4.7844,6.6348 -2.766,17.1144 0,0 7.476,-1.3572 9.8688,-13.0428 0,0 3.0648,6.4836 -1.122,13.6464 0,0 8.2992,-8.2932 9.4944,-17.718 0,0 3.2148,9.1224 -4.6356,18.924 0,0 7.0272,-2.3376 10.0188,-12.7416 0,0 2.3928,6.2664 -4.4112,15.1212 0,0 12.7092,-6.7524 12.336,-20.7 0,0 5.3076,7.6896 -0.7476,18.2448 0,0 6.504,-5.8056 7.1028,-14.4756 0,0 3.5892,3.9204 -0.2988,14.7012 0,0 7.9248,-7.464 9.1212,-15.5316 0,0 1.7196,7.464 -5.0844,16.8876 0,0 4.6356,-1.1304 9.0468,-10.3284 0,0 1.1964,3.6192 -2.8404,10.254 0,0 4.3368,-0.7536 7.2516,-9.0468 0,0 0.5232,4.9764 -0.7476,9.4248 0,0 3.3648,-2.1864 4.1124,-11.6112 0,0 1.8792,3.0912 1.9116,6.936 0.03,3.846 0,1.3212 0,1.3212 z"
     fill="#2f8f22"
     id="path7"
     style="stroke-width:1.2" />
  <g
     stroke="#000000"
     id="g10"
     transform="matrix(1.2,0,0,1.2,-153.1938,0)">
    <path
       d="m 807.139,195.999 c 0,0 -3.929,0.668 -8.975,-0.87 -5.046,-1.537 -7.086,-0.913 -8.652,0 0,0 2.048,-4.055 -2.936,-7.257 0,0 1.62,4.094 -0.623,6.006 0,0 -0.997,0.938 -2.181,-0.475 0,0 -1.744,-1.791 -3.582,-3.173 0,0 4.237,-1.476 3.458,-5.78 -0.779,-4.304 -3.084,-4.869 -4.33,-5.403 0,0 0.436,1.948 0,3.267 0,0 -4.61,-2.576 1.651,-6.22 6.261,-3.644 5.109,-5.78 3.987,-7.634 -1.121,-1.853 -3.52,-3.895 -4.704,-4.618 0,0 1.246,1.948 1.028,3.613 -0.218,1.665 -3.053,2.733 -2.492,-0.188 0.561,-2.922 -0.031,-2.419 -0.094,-5.529 0,0 5.576,1.885 7.757,-3.55 0,0 2.149,-5.623 -4.891,-8.419 0,0 1.713,2.293 0.872,4.021 0,0 -1.495,2.827 -3.271,0.534 -1.776,-2.293 -2.897,-2.733 -2.71,-5.435 0,0 6.386,0.88 4.642,-6.063 0,0 -1.028,4.618 -9.314,-1.602 0,0 5.389,-5.529 3.302,-9.99 0,0 -0.654,-2.042 -6.511,-0.848 0,0 5.078,-3.204 2.928,-5.937 0,0 -1.09,-1.822 -5.825,0.565 0,0 1.838,-3.173 -2.804,-6.597 0,0 -3.115,1.634 -4.766,3.141 0,0 -3.177,-4.021 -5.202,-5.623 0,0 -3.676,1.414 -4.61,5.623 0,0 -1.713,-2.042 -5.607,-2.984 0,0 -1.869,3.456 0.561,6.471 0,0 -1.807,-0.063 -5.109,-1.508 0,0 -3.769,-1.791 -3.209,1.445 0.56,3.236 0.841,3.958 1.589,5.466 0,0 -8.458,-1.964 -8.099,2.607 0.249,3.173 1.433,5.906 4.05,8.199 0,0 -4.735,6.189 -8.785,1.539 0,0 -1.402,1.508 1.62,5.466 0,0 3.022,3.33 0.53,5.435 0,0 -3.333,2.67 -4.953,-2.513 0,0 -5.389,5.372 0.966,9.487 0,0 4.081,2.325 8.255,-1.257 0,0 -1.277,10.304 -5.265,8.325 0,0 -2.399,-1.759 1.9,-3.864 0,0 -6.199,-0.785 -7.196,5.215 0,0 -0.765,4.774 4.641,6.503 0,0 4.174,1.508 -0.156,4.744 0,0 -3.053,2.325 -1.059,5.78 0,0 2.399,3.801 -3.676,4.178 0,0 -3.302,-0.031 -4.486,-0.471 0,0 -1.332,2.477 -0.401,5.307 0,0 -3.025,-2.254 -9.91,0.24 -6.884,2.495 -6.355,0.736 -6.916,1.49 -0.561,0.754 -1.9,3.298 -1.9,3.298 0,0 3.614,4.398 3.676,4.304 0.062,-0.094 -0.685,5.026 -0.685,5.026 l 1.776,0.848 14.174,-6.314 14.392,-7.5 11.571,0.709 7.338,1.747 9.639,0.702 6.903,-3.682 h 9.999 l 10.998,5.48 12.552,7.489 6.542,1.147 5.04,-0.269 v -10.166 z"
       fill="#c8102e"
       stroke-linejoin="round"
       stroke-width="0.831"
       id="path8" />
    <path
       d="m 692.974,207.886 c 0,0 5.483,2.796 7.772,-0.597 0,0 2.991,-5.702 -3.575,-7.681 0,0 3.575,-4.288 -0.257,-8.246 0,0 -2.009,-2.12 -5.514,-0.565 0,0 -1.449,-3.016 -4.86,-2.922 0,0 -2.99,-0.047 -4.018,3.251 0,0 -4.112,-1.696 -6.402,0.754 0,0 -3.785,4.241 1.495,7.587 l 3.8,0.346 3.738,-1.728 4.174,1.194 c 0.003,-0.001 -1.072,4.225 3.647,8.607 z"
       fill="#c8102e"
       stroke-linejoin="round"
       stroke-width="0.831"
       id="path9" />
    <path
       d="m 815.359,197.859 c 6.605,-0.622 8.937,4.952 8.937,4.952 3.462,8.122 -3.89,12.458 -3.89,12.458 0.561,1.822 0.623,4.209 0.623,4.209 10.342,1.257 8.534,12.88 8.534,12.88 l -3.425,-2.827 c -5.981,-2.325 -12.149,2.764 -16.572,11.309 -4.423,8.545 -2.305,12.566 -1.558,22.681 0.748,10.115 17.195,16.147 17.195,16.147 0,0 -7.788,20.042 -12.834,32.922 -5.046,12.88 -15.576,7.539 -18.628,4.826 -3.053,-2.713 -3.816,-1.206 -5.358,0 -1.542,1.206 6.916,7.802 -8.473,14.022 -15.389,6.22 -18.068,10.995 -20.622,12.566 -2.554,1.571 -13.208,0.503 -14.267,-0.817 -1.059,-1.319 -0.436,-1.319 -4.423,-3.77 -3.987,-2.45 -10.716,-4.586 -18.068,-8.168 -7.352,-3.581 -7.165,-8.168 -7.102,-9.11 0.062,-0.942 2.554,-8.607 -6.056,-2.513 -8.61,6.094 -15.937,-2.902 -15.937,-2.902 -1.682,-2.211 -8.847,-21.412 -8.847,-21.412 -1.931,-7.162 -5.732,-15.519 -5.732,-15.519 0.187,-0.063 -0.374,0.88 5.981,-2.764 6.355,-3.644 9.201,-9.707 11.401,-15.707 2.2,-6 0.062,-16.272 -0.748,-18.346 -0.81,-2.073 -5.545,-11.579 -11.408,-13.571 -5.863,-1.992 -9.795,2.953 -9.795,2.953 0,0 -1.809,-11.623 8.534,-12.88 0,0 0.062,-2.387 0.623,-4.209 0,0 -7.352,-4.335 -3.89,-12.458 0,0 2.332,-5.574 8.937,-4.952 l -1.598,3.022 c 0,0 -1.663,16.587 22.616,5.466 24.279,-11.121 23.55,-13.194 37.381,-6.22 l 10.093,-0.188 c 0,0 14.579,-6.744 19.251,-3.843 4.673,2.901 21.494,12.325 21.494,12.325 0,0 16.261,6.098 19.438,-5.15 z"
       fill="#64b4d1"
       stroke-width="0.623"
       id="path10" />
  </g>
  <path
     d="m 737.5782,323.7264 c 0,0 -1.0128,-6.1092 -2.0772,-10.0656 0,0 -2.1624,-6.2088 1.5264,-10.5672 l 4.5744,-5.2644 c 0,0 2.8428,-3.8244 6.3624,-4.344 0,0 3.5196,-0.1044 3.8556,-0.8208 0.336,-0.7164 4.1868,-7.0524 13.3452,0 0,0 2.916,-4.674 7.4016,-5.466 0,0 4.8456,-1.47 7.1892,2.1492 0,0 5.4456,-4.1292 10.1184,2.5164 0,0 6.4668,-3.6372 11.1768,3.5952 0,0 6.3924,-3.1176 10.3176,3.528 3.9252,6.6456 3.1404,9.36 3.1404,9.36 l 2.9136,10.5552 10.32,12.7416 -23.9988,9.0468 h -10.7652 l -21.5316,5.7672 -38.2404,2.94 -10.6536,-12.5532 z"
     fill="#ffffff"
     stroke="#012169"
     stroke-miterlimit="10"
     stroke-width="0.831"
     id="path11" />
  <g
     stroke="#000000"
     stroke-width="0.831"
     id="g14"
     transform="matrix(1.2,0,0,1.2,-153.1938,0)">
    <path
       d="m 715.374,322.736 c 0,0 -4.766,0.283 -7.196,1.508 -2.43,1.225 -4.299,2.545 -7.102,4.335 0,0 -1.308,1.743 -6.822,0.683 0,0 -9.532,-2.285 -9.532,5.16 0,0 -11.401,0.942 -6.729,10.932 0,0 3.177,7.822 9.719,2.262 0,0 -4.205,6.031 3.925,8.388 0,0 5.794,1.414 7.476,-4.524 0,0 0.935,-2.356 -1.308,-5.278 0,0 2.804,-0.565 4.766,-3.581 0,0 -5.981,7.559 0.561,10.282 0,0 8.221,2.063 8.69,-6.513 0,0 -0.671,-3.958 2.515,-5.372 0,0 6.551,-1.508 9.541,-8.812 10e-4,10e-4 -9.419,-5.016 -8.504,-9.47 z m -19.247,-75.168 c 0,0 -7.352,-3.386 -10.841,0 0,0 -4.86,-3.009 -9.968,0 0,0 -4.86,3.176 -8.224,6.674 0,0 -2.367,2.027 -1.495,8.417 0,0 1.246,4.505 0.498,6.767 0,0 -1.62,-0.321 -4.86,3.518 0,0 -4.112,4.762 -7.725,0.559 0,0 1.121,5.85 7.912,4.907 0,0 -3.302,2.576 -0.436,9.236 0,0 2.118,4.712 -1.246,10.618 0,0 5.919,-2.387 5.669,-9.361 0,0 -0.498,-4.712 1.246,-8.042 0,0 -1.744,3.028 2.305,9.487 0,0 3.115,4.649 0.561,9.487 0,0 5.856,-2.136 5.296,-9.236 -0.56,-7.1 -4.112,-4.147 -1.807,-10.681 0,0 0.561,3.347 2.305,5.035 1.744,1.688 3.987,4.515 3.053,9.227 0,0 3.489,-4.335 2.679,-8.796 -0.81,-4.461 -1.682,-5.81 -1.682,-5.81 l 11.027,-6.253 5.483,-9.927 z"
       fill="#c8102e"
       stroke-linejoin="round"
       id="path12" />
    <g
       fill="none"
       stroke-miterlimit="10"
       id="g13">
      <path
         d="m 679.368,275.583 c 0,0 -4.548,-0.314 -5.296,-3.833 m -7.975,-2.324 c 0,0 1.585,-0.063 3.018,1.382 0,0 1.094,1.634 2.652,1.445"
         id="path13" />
    </g>
  </g>
  <path
     d="m 670.1214,314.6412 c 0,0 -2.8404,0 -4.4112,-1.3572 0,0 -1.6452,-1.1304 -2.6172,0.678 0,0 -1.4952,2.5632 1.2708,3.6948 0,0 3.4392,1.734 -2.0184,5.202 0,0 6.504,-2.3376 3.888,-5.5032 0,0 -2.8404,-2.0352 -1.794,-2.79 0,0 0.2988,-0.6036 1.4208,0.1512 1.122,0.7536 3.3648,0.4524 4.2612,-0.0756 z"
     id="path14"
     style="stroke-width:1.2" />
  <path
     d="m 759.2958,329.0448 -21.8616,-75.4956 -0.8004,0.2148 19.3176,76.4112 z"
     fill="#784421"
     stroke="#000000"
     stroke-width="0.623"
     id="path15" />
  <path
     d="m 683.163,413.742 c 0,0 -5.1588,-2.898 -9.42,0.4944 0,0 0.4356,-1.8852 3.6948,-2.7144 0,0 1.764,-4.9764 6.6972,-4.524 0,0 -2.0184,2.412 -4.71,4.4484 0,0 2.8416,0.294 3.738,2.2956 z"
     id="path16"
     style="stroke-width:1.2" />
  <path
     d="m 664.9962,425.7336 c 0,0 -8.1864,-5.1456 -3.7572,-13.7976 0,0 1.29,-2.4876 3.7572,-1.9788 0,0 5.1024,1.5828 1.122,8.652 -10e-4,0 -2.0196,4.5804 -1.122,7.1244 z m 16.5972,8.1432 c 0,0 -11.6628,-5.3148 -8.0748,-14.3628 0,0 1.1088,-3.054 3.6948,-2.8272 0,0 4.4976,0.2256 3.5976,6.2196 0,0 -1.3488,5.8812 0.7824,10.9704 z"
     fill="#64b4d1"
     stroke="#012169"
     stroke-miterlimit="2.613"
     stroke-width="0.7476"
     id="path17" />
  <path
     d="m 679.1262,400.1124 c 0,0 -3.504,2.5884 -4.9296,4.3224 0,0 -1.4256,-1.7712 -3.294,-2.8464 0,0 2.1516,-0.2832 3.294,0.6852 0,0 1.7892,-1.734 4.9296,-2.1612 z"
     id="path18"
     style="stroke-width:1.2" />
  <path
     d="m 689.499,431.6148 c 0,0 9.1392,-2.3184 7.458,-11.7612 0,0 -0.8976,-4.128 -4.7664,-3.5628 0,0 -4.662,1.1904 -1.626,7.1928 0,0 1.794,4.2864 -1.0656,8.1312 z"
     fill="#64b4d1"
     stroke="#012169"
     stroke-miterlimit="2.613"
     stroke-width="0.7476"
     id="path19" />
  <path
     d="m 730.7934,231.8412 c 0,0 5.8872,1.8048 9.084,3.108 0,0 8.5224,3.8448 19.3452,0 0,0 7.3188,-2.898 8.2944,-3.108 l -5.604,8.5368 -0.2808,4.41 3.5064,5.1456 c 0,0 -2.1036,0.8484 -8.3844,-2.9976 0,0 -6.9528,-5.3712 -15.252,0 0,0 -4.542,3.0768 -8.3544,2.9976 l 5.3832,-6.0108 -2.0748,-5.412 z"
     fill="#f5ce00"
     stroke="#000000"
     stroke-miterlimit="2.613"
     stroke-width="0.831"
     id="path20" />
  <path
     d="m 693.0318,420.3336 c 0,0 0.336,-0.4524 -0.0564,-0.6504 0,0 -0.3924,-0.1692 -0.6732,0.3816 0,0 -0.9528,1.512 -0.1464,3.5832 0,0 0.7632,1.4352 0.3924,2.934 0,0 -0.0504,0.4236 0.2868,0.4812 0,0 0.3228,-0.1128 0.3852,-0.4236 0,0 0.456,-1.4628 -0.3288,-2.8944 10e-4,-0.001 -0.9528,-2.2236 0.1404,-3.4116 z"
     fill="#ffffff"
     id="path21"
     style="stroke-width:1.2" />
  <g
     stroke="#000000"
     id="g26"
     transform="matrix(1.2,0,0,1.2,-153.1938,0)">
    <path
       d="m 810.687,207.886 c 0,0 -5.483,2.796 -7.772,-0.597 0,0 -2.99,-5.702 3.575,-7.681 0,0 -3.575,-4.288 0.257,-8.246 0,0 2.009,-2.12 5.514,-0.565 0,0 1.449,-3.016 4.86,-2.922 0,0 2.99,-0.047 4.018,3.251 0,0 4.112,-1.696 6.401,0.754 0,0 3.785,4.241 -1.495,7.587 l -3.8,0.346 -3.738,-1.728 -4.174,1.194 c -0.002,-0.001 1.073,4.225 -3.646,8.607 z"
       fill="#c8102e"
       stroke-linejoin="round"
       stroke-width="0.831"
       id="path22" />
    <path
       d="m 767.262,203.457 c 0,0 -0.138,1.131 -1.26,1.257 0,0 -1.17,0.377 -1.852,-1.08 0,0 -0.079,-0.33 -0.097,-0.491 -0.078,-0.681 -0.311,-2.639 1.807,-4.241 0,0 3.458,-2.827 10.062,0.597 0,0 5.233,2.513 8.847,4.649 0,0 9.345,5.026 10.467,5.403 0,0 4.112,2.073 10.404,2.325 0,0 8.598,0.628 12.242,-5.403 0,0 2.772,-4.586 0,-7.508 0,0 -1.121,-1.319 -2.965,-1.076 -0.774,0.102 -1.629,0.458 -2.455,1.422 0,0 -1.339,1.948 0.218,3.393 0,0 2.025,1.241 2.741,-1.382 0,0 0.031,-0.188 0.093,0.047 0.04,0.152 0.498,2.152 -0.576,3.848 0,0 -5.187,7.849 -19.454,-0.285 l -18.815,-10.553 c 0,0 -9.439,-4.838 -15.077,2.733 0,0 -4.548,6.283 1.308,10.398 0,0 4.361,2.607 7.102,-1.539 0,0 2.274,-4.084 -1.308,-5.874 0,0 -3.146,-1.476 -4.392,1.665 -1.246,3.141 2.43,3.958 2.772,1.728 0.001,-0.002 0.095,-0.536 0.188,-0.033 z"
       fill="#f5ce00"
       stroke-miterlimit="2.613"
       stroke-width="0.831"
       id="path23" />
    <g
       stroke-width="0.623"
       id="g25">
      <path
         d="m 692.68,235.844 v -11.78 c 0,-0.925 0.007,-1.696 1.408,-2.827 1.401,-1.131 2.897,-2.922 5.046,2.168 0,0 4.205,-4.429 5.607,-5.089 0,0 2.43,-2.073 4.112,0.942 0,0 2.243,-3.393 4.018,-4.241 0,0 4.205,-2.733 4.392,5.466 l 3.271,-3.016 c 0,0 2.523,-2.073 5.327,0.754 0,0 4.766,4.618 5.42,5.937 0,0 1.052,1.429 1.133,3.683 0,0 -0.012,2.537 1.296,3.95 0,0 1.494,1.319 2.943,1.602 0,0 3.411,0.094 4.626,3.298 0,0 0.561,-0.555 2.243,14.801 v 27.985 l -18.878,22.524 -30.279,-8.67 -12.055,-4.995 -2.71,-8.859 11.682,-7.539 6.355,-17.152 -2.056,-12.063 z"
         fill="#e4cb5e"
         stroke-miterlimit="2.613"
         id="path24" />
      <path
         d="m 776.109,250.703 1.433,-2.136 3.427,-2.639 c 0,0 5.233,13.734 5.483,16.731 v 4.262 c 0,0 7.85,2.003 9.221,14.066 l -6.479,11.937 -10.155,-5.655 -2.928,-2.136 v -34.43 z"
         fill="#784421"
         id="path25" />
    </g>
  </g>
  <path
     d="m 662.7246,414.0012 c 0,0 0.4488,-0.594 0.1404,-0.8484 0,0 -0.1968,-0.2832 -0.7284,0.396 0,0 -2.4768,2.7684 -0.5052,7.026 0,0 0.2244,0.6072 0.6168,0.4092 0,0 0.336,-0.1692 0.0276,-0.678 10e-4,0 -1.7652,-3.5064 0.4488,-6.3048 z"
     fill="#ffffff"
     id="path26"
     style="stroke-width:1.2" />
  <g
     stroke="#000000"
     id="g34"
     transform="matrix(1.2,0,0,1.2,-153.1938,0)">
    <path
       d="m 710.546,342.684 c 0,0 0.311,-1.068 -0.436,-2.199 0,0 -0.498,-0.817 -0.312,-1.885"
       fill="none"
       stroke-miterlimit="10"
       stroke-width="0.831"
       id="path27" />
    <path
       d="m 717.265,220.483 c 0,0 0.028,2.946 0.869,5.114 0.841,2.168 3.681,5.917 3.868,7.943"
       fill="none"
       stroke-miterlimit="10"
       stroke-width="0.623"
       id="path28" />
    <path
       d="m 788.476,322.736 c 0,0 4.766,0.283 7.196,1.508 2.43,1.225 4.299,2.545 7.102,4.335 0,0 1.308,1.743 6.822,0.683 0,0 9.532,-2.285 9.532,5.16 0,0 11.401,0.942 6.729,10.932 0,0 -3.177,7.822 -9.719,2.262 0,0 4.205,6.031 -3.925,8.388 0,0 -5.794,1.414 -7.476,-4.524 0,0 -0.935,-2.356 1.308,-5.278 0,0 -2.804,-0.565 -4.766,-3.581 0,0 5.981,7.559 -0.561,10.282 0,0 -8.221,2.063 -8.69,-6.513 0,0 0.671,-3.958 -2.515,-5.372 0,0 -6.551,-1.508 -9.541,-8.812 0,10e-4 9.419,-5.016 8.504,-9.47 z"
       fill="#c8102e"
       stroke-linejoin="round"
       stroke-width="0.831"
       id="path29" />
    <g
       stroke-width="0.623"
       id="g33">
      <g
         fill="none"
         stroke-miterlimit="10"
         id="g30">
        <path
           d="m 713.505,233.536 7.778,62.78 m -5.981,-62.916 8.723,58.519 m -7.088,-58.791 10.047,58.037"
           id="path30" />
      </g>
      <path
         d="m 735.613,285.227 -18.219,-62.913 -0.667,0.179 16.099,63.677 z"
         fill="#784421"
         id="path31" />
      <g
         fill="none"
         stroke-miterlimit="10"
         id="g32">
        <path
           d="m 722.511,230.823 18.398,46.488 m -19.626,-45.736 17.756,48.563"
           id="path32" />
      </g>
    </g>
  </g>
  <path
     d="m 677.3694,428.5236 c 0,0 -2.562,-2.4564 -2.2056,-6.8604 0,0 0.15,-0.942 -0.3204,-1.0728 0,0 -0.5016,-0.2088 -0.576,0.8844 0,0 -0.7104,4.5996 2.3928,7.2372 0,0 0.2112,0.264 0.5544,0.1884 -10e-4,0 0.366,-0.0816 0.1548,-0.3768 z"
     fill="#ffffff"
     id="path34"
     style="stroke-width:1.2" />
  <g
     stroke="#000000"
     id="g40"
     transform="matrix(1.2,0,0,1.2,-153.1938,0)">
    <path
       d="m 723.341,230.192 18.969,42.407 m -24.157,-39.772 11.635,57.112"
       fill="none"
       stroke-miterlimit="10"
       stroke-width="0.623"
       id="path35" />
    <path
       d="m 813.327,275.146 c -8.31,-4.715 -10.132,-15.176 -10.132,-15.176 -2.009,-10.414 2.056,-18.66 2.056,-18.66 5.374,-11.356 14.582,-13.469 14.582,-13.469 0,0 -9.021,6.259 -11.544,14.694 0,0 -1.963,7.115 -0.841,14.136 1.121,7.021 0.701,5.23 2.43,10.649 z"
       fill="#f5ce00"
       stroke-miterlimit="2.613"
       stroke-width="0.831"
       id="path36" />
    <path
       d="m 777.542,248.567 -34.917,11.025 -1.904,15.554 c -8.286,12.003 -25.124,14.133 -25.124,14.133 l 13.1,13.948 25.17,5.278 13.208,-10.178 11.962,-11.058 c -1.246,-5.906 -0.561,-14.67 -0.561,-14.67 0,-1.476 0.561,-4.932 0.561,-4.932 0,0 -2.056,-14.199 -1.495,-19.1 z"
       fill="#784421"
       stroke-width="0.38"
       id="path37" />
    <g
       fill="none"
       stroke-miterlimit="10"
       stroke-width="0.623"
       id="g39">
      <path
         d="m 741.2,271.238 c 0,0 22.997,-7.181 36.71,-12.947 m -47.749,26.056 c 0,0 28.69,-5.183 48.876,-16.68 l 7.414,-5.008"
         id="path38" />
      <path
         d="m 786.451,266.921 -7.975,5.678 c 0,0 -32.086,14.796 -56.516,15.191 m 56.51,-4.677 c 0,0 -24.665,12.701 -38.808,12.89"
         id="path39" />
    </g>
    <path
       d="m 807.883,247.568 c 0,0 7.352,-3.386 10.841,0 0,0 4.86,-3.009 9.968,0 0,0 4.86,3.176 8.224,6.674 0,0 2.367,2.027 1.495,8.417 0,0 -1.246,4.505 -0.498,6.767 0,0 1.62,-0.321 4.86,3.518 0,0 4.112,4.762 7.725,0.559 0,0 -1.121,5.85 -7.912,4.907 0,0 3.302,2.576 0.436,9.236 0,0 -2.118,4.712 1.246,10.618 0,0 -5.919,-2.387 -5.669,-9.361 0,0 0.498,-4.712 -1.246,-8.042 0,0 1.744,3.028 -2.305,9.487 0,0 -3.115,4.649 -0.561,9.487 0,0 -5.856,-2.136 -5.296,-9.236 0.561,-7.1 4.112,-4.147 1.807,-10.681 0,0 -0.561,3.346 -2.305,5.035 -1.744,1.688 -3.987,4.515 -3.053,9.227 0,0 -3.489,-4.335 -2.679,-8.796 0.81,-4.461 1.682,-5.81 1.682,-5.81 l -11.027,-6.253 -5.483,-9.927 z"
       fill="#c8102e"
       stroke-linejoin="round"
       stroke-width="0.831"
       id="path40" />
  </g>
  <path
     d="m 666.3678,344.7612 c 0,0 1.2336,-5.844 6.8412,-3.5448 0,0 1.9068,-9.5748 12.1116,-9.9132 10.2048,-0.3396 10.7652,9.9516 10.7652,10.6308 0,0 2.9976,-4.4184 8.0028,-3.906 0,0 8.6292,-0.5088 5.4156,13.3464 l 1.632,1.7376 c 0,0 6.5928,-15.4764 20.1624,-11.4048 0,0 13.2324,4.0332 4.5984,16.8504 0,0 6.5304,8.4816 12.0684,7.6896 5.538,-0.792 10.4724,-2.4876 15.9672,-12.2136 5.4948,-9.726 18.2796,-11.196 21.5316,-10.6308 3.252,0.5652 5.8212,2.6772 6.3516,4.9764 0,0 6.7692,-22.5924 31.104,-19.0428 l 9.756,4.9068 3.7008,1.6968 -5.5164,15.5688 -13.4388,30.3768 -10.2024,3.1368 -10.6536,-6.1068 -3.7008,1.9836 -0.3024,9.0984 -14.052,10.1148 -9.756,4.0212 -10.7652,7.3512 -2.5044,6.5712 c 0,0 -5.946,-2.5044 -12.6564,0 l -2.2212,-5.4396 -6.2796,-5.994 -24.396,-11.508 -4.4076,-14.2152 -4.4532,-1.9836 -4.9848,5.7096 -7.2888,0.8496 -10.878,-7.3512 z"
     fill="#ffffff"
     stroke="#012169"
     stroke-miterlimit="10"
     stroke-width="0.831"
     id="path41" />
  <g
     stroke="#000000"
     id="g56"
     transform="matrix(1.2,0,0,1.2,-153.1938,0)">
    <g
       stroke-miterlimit="2.613"
       id="g53">
      <g
         stroke-width="0.831"
         id="g51">
        <path
           d="m 771.499,195.132 c 0,0 -7.759,-0.345 -7.478,7.697"
           fill="none"
           id="path42" />
        <path
           d="m 822.54,280.562 c -13.504,-4.147 -17.195,-18.66 -17.195,-18.66 -2.757,-10.885 1.682,-20.403 1.682,-20.403 6.168,-14.485 16.604,-14.482 16.604,-14.482 5.233,-0.141 5.861,4.335 5.861,4.335 0.494,3.173 -1.733,4.319 -1.733,4.319 -3.582,1.948 -5.841,-0.691 -5.841,-0.691 -1.495,-1.948 -0.343,-3.675 -0.343,-3.675 0.919,-1.288 2.679,-0.723 2.679,-0.723 1.394,0.432 1.246,2.175 1.246,2.175 0.008,0.047 0.039,0.047 0.039,0.047 0.062,-0.016 0.039,-0.039 0.039,-0.039 0,0 0.311,-2.136 -1.776,-2.356 0,0 -4.065,-0.88 -8.831,5.058 0,0 -6.276,8.011 -6.261,18.377 0,0 -0.794,19.461 19.485,24.503 0,0 -2.196,3.157 -6.074,14.56 0,0 -4.392,14.655 -8.585,22.578 0,0 -5.574,11.302 -18.003,6.684 0,0 -7.401,-3.251 -7.383,-8.623 0,0 -0.514,-4.901 3.925,-5.278 0,0 4.346,-0.33 4.299,3.393 0,0 0.117,4.029 -4.626,3.11 0,0 -1.659,-0.353 -1.355,-1.979 0,0 0.265,-1.461 2.266,-0.825 0,0 0.062,0.008 0.07,-0.024 0,0 0.023,-0.035 -0.047,-0.055 0,0 -0.774,-0.346 -1.592,-0.06 0,0 -0.733,0.244 -0.791,1.387 0,0 -0.047,0.919 0.935,1.437 0,0 1.192,0.424 2.126,0.33 0,0 1.257,2.537 4.101,3.397 3.959,1.197 7.22,0.044 9.216,-1.548 2.171,-1.732 3.575,-4.759 3.995,-5.501 0.42,-0.742 4.065,-8.906 6.806,-17.686 0,0 2.399,-7.571 4.314,-11.529 z"
           fill="#f5ce00"
           id="path43" />
        <path
           d="m 784.434,317.458 c 0,0 2.523,-0.342 2.523,1.908 0,0 -0.154,3.287 -4.159,2.568 0,0 -3.948,-0.864 -2.547,-5.278 0,0 0.935,-3.11 4.673,-2.662 0,0 3.621,0.165 5.21,5.113 0,0 1.215,4.171 -0.864,7.751 -2.321,3.996 -8.193,6.621 -11.027,7.783 0,0 -11.355,4.461 -14.742,7.013 0,0 -5.194,3.856 -2.897,7.445 0,0 0.888,1.367 2.22,1.367 0,0 1.519,0.071 1.776,-1.484 0,0 0.008,-0.031 -0.016,-0.071 0,0 -0.023,0 -0.031,0.039 0,0 -0.109,0.95 -0.935,1.304 0,0 -1.106,0.558 -2.266,-0.424 0,0 -1.23,-1.178 -0.202,-3.008 0,0 1.347,-2.254 4.486,-0.919 0,0 2.765,1.367 1.628,4.304 0,0 -1.012,2.703 -4.346,2.696 0,0 -2.51,-0.083 -4.115,-1.766 -2.505,-2.626 -2.641,-7.741 -0.433,-10.386 0,0 2.087,-2.812 6.277,-4.524 2.427,-0.992 7.009,-2.984 11.775,-4.853 3.35,-1.314 6.418,-2.887 8.411,-5.246 0,0 1.776,-1.979 2.29,-5.372 0,0 0.491,-2.545 -1.059,-3.102 0,0 -0.787,-0.353 -1.651,-0.236 0,0 -0.023,10e-4 -0.029,0.016 -0.002,10e-4 -0.037,0.039 0.05,0.024 z"
           fill="#f5ce00"
           id="path44" />
        <path
           d="m 784.645,317.442 c 0,0 2.788,-0.503 4.532,2.812 0,0 1.028,2.136 1.194,3.372 m 0.908,-11.85 c 0,0 -2.792,0.484 -1.354,4.434 1.355,3.723 3.872,4.944 4.619,5.462"
           fill="none"
           id="path45" />
        <path
           d="m 736.653,203.456 c 0,0 0.138,1.131 1.26,1.257 0,0 1.17,0.377 1.852,-1.08 0,0 0.079,-0.33 0.097,-0.491 0.078,-0.681 0.311,-2.639 -1.807,-4.241 0,0 -3.458,-2.827 -10.062,0.597 0,0 -5.233,2.513 -8.847,4.649 0,0 -9.345,5.026 -10.467,5.403 0,0 -4.112,2.073 -10.404,2.325 0,0 -8.598,0.628 -12.242,-5.403 0,0 -2.772,-4.586 0,-7.508 0,0 1.121,-1.319 2.965,-1.076 0.774,0.102 1.629,0.458 2.455,1.422 0,0 1.339,1.948 -0.218,3.393 0,0 -2.025,1.241 -2.741,-1.382 0,0 -0.031,-0.188 -0.094,0.047 -0.04,0.152 -0.498,2.152 0.576,3.848 0,0 5.187,7.849 19.454,-0.285 l 18.815,-10.553 c 0,0 9.439,-4.838 15.077,2.733 0,0 4.548,6.283 -1.308,10.398 0,0 -4.361,2.607 -7.102,-1.539 0,0 -2.274,-4.084 1.308,-5.874 0,0 3.146,-1.476 4.392,1.665 1.246,3.141 -2.43,3.958 -2.772,1.728 0,-0.001 -0.094,-0.535 -0.187,-0.033 z m -46.065,71.69 c 8.31,-4.715 10.132,-15.176 10.132,-15.176 2.009,-10.414 -2.056,-18.66 -2.056,-18.66 -5.374,-11.356 -14.582,-13.469 -14.582,-13.469 0,0 9.021,6.259 11.544,14.694 0,0 1.963,7.115 0.841,14.136 -1.121,7.021 -0.701,5.23 -2.43,10.649 z"
           fill="#f5ce00"
           id="path46" />
        <path
           d="m 732.416,195.132 c 0,0 7.759,-0.345 7.478,7.697"
           fill="none"
           id="path47" />
        <path
           d="m 681.375,280.562 c 13.504,-4.147 17.195,-18.66 17.195,-18.66 2.757,-10.885 -1.682,-20.403 -1.682,-20.403 -6.168,-14.485 -16.604,-14.482 -16.604,-14.482 -5.233,-0.141 -5.861,4.335 -5.861,4.335 -0.494,3.173 1.733,4.319 1.733,4.319 3.582,1.948 5.841,-0.691 5.841,-0.691 1.495,-1.948 0.343,-3.675 0.343,-3.675 -0.919,-1.288 -2.679,-0.723 -2.679,-0.723 -1.394,0.432 -1.246,2.175 -1.246,2.175 -0.008,0.047 -0.039,0.047 -0.039,0.047 -0.062,-0.016 -0.039,-0.039 -0.039,-0.039 0,0 -0.312,-2.136 1.776,-2.356 0,0 4.065,-0.88 8.831,5.058 0,0 6.276,8.011 6.261,18.377 0,0 0.794,19.461 -19.485,24.503 0,0 2.196,3.157 6.074,14.56 0,0 4.392,14.655 8.585,22.578 0,0 5.574,11.302 18.003,6.684 0,0 7.401,-3.251 7.383,-8.623 0,0 0.514,-4.901 -3.925,-5.278 0,0 -4.346,-0.33 -4.299,3.393 0,0 -0.117,4.029 4.626,3.11 0,0 1.659,-0.353 1.355,-1.979 0,0 -0.265,-1.461 -2.266,-0.825 0,0 -0.062,0.008 -0.07,-0.024 0,0 -0.023,-0.035 0.047,-0.055 0,0 0.774,-0.346 1.592,-0.06 0,0 0.733,0.244 0.791,1.387 0,0 0.047,0.919 -0.935,1.437 0,0 -1.192,0.424 -2.126,0.33 0,0 -1.257,2.537 -4.101,3.397 -3.959,1.197 -7.22,0.044 -9.216,-1.548 -2.171,-1.732 -3.575,-4.759 -3.995,-5.501 -0.42,-0.742 -4.065,-8.906 -6.806,-17.686 0,0 -2.399,-7.571 -4.314,-11.529 z"
           fill="#f5ce00"
           id="path48" />
        <path
           d="m 719.481,317.458 c 0,0 -2.523,-0.342 -2.523,1.908 0,0 0.154,3.287 4.159,2.568 0,0 3.948,-0.864 2.547,-5.278 0,0 -0.935,-3.11 -4.673,-2.662 0,0 -3.621,0.165 -5.21,5.113 0,0 -1.215,4.172 0.864,7.751 2.321,3.996 8.193,6.621 11.027,7.783 0,0 11.355,4.461 14.742,7.013 0,0 5.194,3.856 2.897,7.445 0,0 -0.888,1.367 -2.22,1.367 0,0 -1.519,0.071 -1.776,-1.484 0,0 -0.008,-0.031 0.016,-0.071 0,0 0.023,0 0.031,0.039 0,0 0.109,0.95 0.935,1.304 0,0 1.106,0.558 2.266,-0.424 0,0 1.23,-1.178 0.202,-3.008 0,0 -1.347,-2.254 -4.486,-0.919 0,0 -2.765,1.367 -1.628,4.304 0,0 1.012,2.703 4.346,2.696 0,0 2.51,-0.083 4.115,-1.766 2.505,-2.626 2.641,-7.741 0.433,-10.386 0,0 -2.087,-2.812 -6.277,-4.524 -2.427,-0.992 -7.009,-2.984 -11.775,-4.853 -3.35,-1.314 -6.418,-2.887 -8.411,-5.246 0,0 -1.776,-1.979 -2.29,-5.372 0,0 -0.491,-2.545 1.059,-3.102 0,0 0.787,-0.353 1.651,-0.236 0,0 0.023,10e-4 0.029,0.016 0.002,0 0.037,0.039 -0.05,0.024 z"
           fill="#f5ce00"
           id="path49" />
        <g
           fill="none"
           id="g50">
          <path
             d="m 719.27,317.442 c 0,0 -2.788,-0.503 -4.532,2.812 0,0 -1.028,2.136 -1.194,3.372 m -0.908,-11.851 c 0,0 2.792,0.484 1.354,4.434 -1.355,3.723 -3.872,4.944 -4.619,5.462 m 35.836,-119.296 c 0,0 6.75,-4.227 13.644,0.454"
             id="path50" />
        </g>
      </g>
      <g
         fill="none"
         stroke-width="0.623"
         id="g52">
        <path
           d="m 706.798,243.667 c 0,0 0.935,-3.77 -3.364,-10.367 0,0 -2.804,-6.031 -4.299,-9.895 m 9.719,-4.147 c 0,0 2.434,5.929 3.271,8.584 0,0 3.019,7.437 3.659,8.945"
           id="path51" />
      </g>
    </g>
    <g
       stroke-width="0.623"
       id="g55">
      <g
         fill="none"
         stroke-miterlimit="10"
         id="g54">
        <path
           d="m 710.069,247.813 c 0,0 2.538,2.733 2.25,7.351 m -10.661,-10.272 c 0,0 2.804,1.351 2.619,8.796 0,0 -0.282,5.435 3.923,8.168 m -6.922,1.916 c 0,0 8.775,-0.958 9.258,4.445 0,0 0.187,5.183 3.177,5.749 0,0 4.479,0.424 5.367,4.571 m -15.039,-8.765 c 0,0 1.542,2.309 3.037,3.298 m 8.224,-9 c 0,0 2.229,3.377 2.649,5.356 m 7.008,-46.022 c 0,0 2.056,2.796 4.05,4.115 m 4.174,12.441 c 0,0 4.361,2.136 3.614,13.131 0,0 -0.561,6.448 1.246,9.967"
           id="path53" />
      </g>
      <path
         d="m 712.639,232.499 0.28,1.037 c 0,0 7.819,0.33 12.04,-4.995 l -0.452,-1.021 c 0,0 -6.822,-0.346 -11.868,4.979 z"
         fill="#784421"
         id="path54" />
      <path
         d="m 740.807,274.447 c 0,0 27.042,-8.062 37.464,-12.762"
         fill="none"
         stroke-miterlimit="10"
         id="path55" />
    </g>
    <path
       d="m 737.591,223.687 13.375,-5.089 0.316,0.895 -13.378,5.081 z"
       fill="#784421"
       stroke-width="0.38"
       id="path56" />
  </g>
  <g
     fill="none"
     stroke-miterlimit="10"
     id="g65"
     transform="matrix(1.2,0,0,1.2,-153.1938,0)">
    <g
       stroke="#000000"
       stroke-width="0.623"
       id="g57">
      <path
         d="m 739.039,224.143 8.878,43.524 m -7.337,-44.109 10.168,43.324 m -8.438,-43.981 11.121,43.007 m -6.761,-44.663 15.161,32.283 m -13.155,-33.045 16.167,32.094 m -14.682,-32.658 17.488,31.772 m -20.332,16.321 6.862,-2.261 m -12.057,-2.045 c 0,0 20.114,-5.875 35.337,-12.015 m -35.607,14.217 c 0,0 25.492,-6.745 35.606,-11.666 m -27.827,32.399 1.335,4.084 3.649,-1.168 -1.246,-4.047 m 6.558,-1.803 1.335,4.083 3.65,-1.167 -1.247,-4.047 m -21.04,-22.984 -0.315,-5.525 33.425,-10.149 1.807,4.649 m -21.057,1.196 1.821,4.878 m 9.864,-8.426 2.129,4.639 m 0.642,-5.48 1.991,4.389 m 0.655,-5.193 2.093,4.585 m 0.055,-5.237 3.676,-2.073 1.558,4.083 m -3.427,-3.029 1.872,4.227"
         id="path57" />
    </g>
    <g
       stroke="#012169"
       stroke-width="0.831"
       id="g64">
      <path
         d="m 694.649,306.526 c 0,0 -6.542,-6.625 0,-13.114 0,0 -7.102,-3.473 -5.981,-9.065 m 17.663,27.428 c 0,0 -6.775,0.923 -4.766,-12.27 0,0 -2.804,5.23 -3.77,7.918 -0.723,2.012 -0.245,5.26 2.623,7.016 1.146,0.702 7.221,2.284 9.183,-1.74 m -10.84,-21.11 c 0,0 -2.757,2.545 -0.794,7.21 m 3.644,-6.598 c 0,0 0.327,4.524 2.57,7.068 m -0.632,-8.858 c 0,0 -0.021,5.325 3.81,8.623 m -1.905,-10.461 c 0,0 0.036,5.984 4.475,9.66 m 17.569,-0.896 c 0,0 2.243,-4.901 6.962,-4.665 0,0 -2.29,1.037 -2.243,3.33 0,0 -0.28,3.785 3.785,4.162 0,0 3.271,0.424 4.906,-1.367"
         id="path58" />
      <path
         d="m 738.666,319.72 c 0,0 -11.635,-5.466 -10.42,-13.335 0,0 0.467,-4.806 5.166,-7.068"
         id="path59" />
      <path
         d="m 730.956,304.311 c 0,0 -1.028,3.393 1.262,5.749 m 1.354,-8.058 c 0,0 -1.402,3.723 0.935,6.503 m 1.867,-8.31 c 0,0 -1.68,3.079 0.329,5.859 m -10.934,14.466 c 0,0 6.355,5.514 11.308,5.561 m -13.317,-3.817 c 0,0 5.939,4.806 9.651,5.513 m -11.894,-4.152 c 0,0 7.341,6.461 11.894,6.932 m 17.964,5.938 c 0,0 -7.216,3.888 -1.622,7.999 m -2.957,-12.287 c 0,0 8.177,-4.288 11.728,-5.89 m -8.784,8.105 c 0,0 11.822,-7.21 15.326,-8.764 m -9.252,9.235 c 0,0 10.093,-6.738 15.513,-9.66 m -8.831,9.424 c 0,0 6.962,-5.466 13.691,-9.424 m 2.383,-6.832 c 0,0 -3.411,-4.995 -14.625,0 0,0 4.112,-3.732 12.242,-6.625 m 11.321,-21.46 c 0,0 0.919,4.052 -0.062,6.503"
         id="path60" />
      <path
         d="m 769.318,309.966 c 0,0 2.336,-3.44 8.271,-5.136 0,0 1.6,4.005 6.215,3.11 0,0 6.962,-1.367 4.86,-9 0,0 -1.448,-5.702 -9.4,-6.267 m 23.651,-9.56 c 0,0 8.084,1.455 7.944,8.052 0,0 0.654,9.895 -9.766,11.827"
         id="path61" />
      <path
         d="m 809.711,287.176 c 0,0 2.221,-4.823 7.174,-6.803"
         id="path62" />
      <path
         d="m 810.866,277.547 c 0,0 2.208,3.54 3.717,4.055 m -4.872,-1.228 c 0,0 2.081,2.543 2.782,2.968 m -3.457,-0.518 c 0,0 1.096,1.619 2.067,2.129 M 767.449,244.57 c 0,0 1.573,-2.553 5.483,-1.469 m 15.965,20.605 c 0,0 2.477,-10.332 11.121,-6.516"
         id="path63" />
      <path
         d="m 796.513,256.344 c 0,0 0.888,-4.763 -1.262,-7.189 m -4.626,6.857 c 0,0 1.101,1.97 0.159,3.58"
         id="path64" />
    </g>
  </g>
  <path
     d="m 816.6402,433.8756 c 0,0 11.6628,-5.3148 8.0748,-14.3628 0,0 -1.1088,-3.054 -3.6948,-2.8272 0,0 -4.4976,0.2256 -3.5976,6.2196 0,0.001 1.3476,5.8824 -0.7824,10.9704 z"
     fill="#64b4d1"
     stroke="#012169"
     stroke-miterlimit="2.613"
     stroke-width="0.7476"
     id="path65" />
  <path
     d="m 820.8642,428.5236 c 0,0 2.5632,-2.4564 2.2056,-6.8604 0,0 -0.15,-0.942 0.3204,-1.0728 0,0 0.5016,-0.21 0.576,0.8832 0,0 0.7104,4.5996 -2.3928,7.2372 0,0 -0.2112,0.264 -0.5544,0.1884 10e-4,10e-4 -0.3672,-0.0804 -0.1548,-0.3756 z"
     fill="#ffffff"
     id="path66"
     style="stroke-width:1.2" />
  <path
     d="m 833.2374,425.7336 c 0,0 8.1864,-5.1456 3.7572,-13.7976 0,0 -1.29,-2.4876 -3.7572,-1.9788 0,0 -5.1024,1.5828 -1.122,8.652 0,0 2.0184,4.5804 1.122,7.1244 z"
     fill="#64b4d1"
     stroke="#012169"
     stroke-miterlimit="2.613"
     stroke-width="0.7476"
     id="path67" />
  <path
     d="m 835.2834,414 c 0,0 -0.4488,-0.594 -0.1404,-0.8484 0,0 0.1968,-0.2832 0.7284,0.396 0,0 2.4768,2.7684 0.5052,7.026 0,0 -0.2244,0.6072 -0.6168,0.4092 0,0 -0.336,-0.1692 -0.0276,-0.678 0,0 1.7664,-3.5052 -0.4488,-6.3048 z"
     fill="#ffffff"
     id="path68"
     style="stroke-width:1.2" />
  <path
     d="m 808.7334,431.6148 c 0,0 -9.1392,-2.3184 -7.458,-11.7612 0,0 0.8976,-4.128 4.7664,-3.5628 0,0 4.662,1.1904 1.626,7.1928 0,0 -1.794,4.2852 1.0656,8.1312 z"
     fill="#64b4d1"
     stroke="#012169"
     stroke-miterlimit="2.613"
     stroke-width="0.7476"
     id="path69" />
  <path
     d="m 805.2006,420.3336 c 0,0 -0.336,-0.4524 0.0564,-0.6504 0,0 0.3924,-0.1692 0.6732,0.3816 0,0 0.9528,1.512 0.1464,3.5832 0,0 -0.7632,1.4352 -0.3924,2.934 0,0 0.0504,0.4236 -0.2868,0.4812 0,0 -0.3228,-0.1128 -0.3852,-0.4236 0,0 -0.456,-1.4628 0.3288,-2.8944 0,-0.001 0.954,-2.2236 -0.1404,-3.4116 z"
     fill="#ffffff"
     id="path70"
     style="stroke-width:1.2" />
  <path
     d="m 815.2938,413.742 c 0,0 5.1588,-2.898 9.42,0.4944 0,0 -0.4356,-1.8852 -3.6948,-2.7144 0,0 -1.7628,-4.9764 -6.6972,-4.524 0,0 2.0184,2.412 4.71,4.4484 0,0 -2.8404,0.294 -3.738,2.2956 z m 3.8136,-13.6296 c 0,0 3.504,2.5884 4.9296,4.3224 0,0 1.4256,-1.7712 3.294,-2.8464 0,0 -2.1516,-0.2832 -3.294,0.6852 0,0 -1.7904,-1.734 -4.9296,-2.1612 z"
     id="path71"
     style="stroke-width:1.2" />
  <g
     fill="none"
     stroke="#000000"
     stroke-miterlimit="10"
     stroke-width="0.831"
     id="g72"
     transform="matrix(1.2,0,0,1.2,-153.1938,0)">
    <path
       d="m 793.305,342.684 c 0,0 -0.312,-1.068 0.436,-2.199 0,0 0.498,-0.817 0.312,-1.885 m 30.589,-63.017 c 0,0 4.548,-0.314 5.296,-3.833 m 7.975,-2.324 c 0,0 -1.585,-0.063 -3.018,1.382 0,0 -1.094,1.634 -2.652,1.445"
       id="path72" />
  </g>
  <path
     d="m 828.303,314.6412 c 0,0 2.8404,0 4.4112,-1.3572 0,0 1.6452,-1.1304 2.6172,0.678 0,0 1.4952,2.5632 -1.2708,3.6948 0,0 -3.4392,1.734 2.0184,5.202 0,0 -6.504,-2.3376 -3.888,-5.5032 0,0 2.8404,-2.0352 1.794,-2.79 0,0 -0.2988,-0.6036 -1.4208,0.1512 -1.122,0.7536 -3.3648,0.4524 -4.2612,-0.0756 z"
     id="path73"
     style="stroke-width:1.2" />
  <path
     d="m 832.167,245.9844 c 0,0 1.2828,-1.746 0.7584,-6.9852 -0.5244,-5.2392 4.0248,-5.8416 5.7744,-4.3356 0,0 1.8084,1.566 0.1452,4.8888 -0.96,1.9176 -2.4924,4.4004 -6.678,6.432 z"
     fill="#64b4d1"
     stroke="#012169"
     stroke-miterlimit="2.613"
     stroke-width="0.7476"
     id="path74" />
  <path
     d="m 833.877,242.0724 c 0,0 1.7052,-1.8336 0.8916,-5.814 0,0 -0.006,-0.3924 0.2196,-0.4188 0,0 0.414,-0.1044 0.4836,0.288 0,0 0.9156,4.2432 -1.0092,6.5484 0,0 -0.3516,0.3408 -0.5868,0 10e-4,-10e-4 -0.258,-0.2448 10e-4,-0.6036 z"
     fill="#ffffff"
     id="path75"
     style="stroke-width:1.2" />
  <path
     d="m 830.7138,244.0788 c 0,0 -0.1344,-2.112 -3.7848,-5.7012 -3.6504,-3.5892 -0.6492,-6.8964 1.5864,-6.8688 0,0 2.316,0.036 3.15,3.5652 0.4812,2.0388 0.8892,4.8576 -0.9516,9.0048 z"
     fill="#64b4d1"
     stroke="#012169"
     stroke-miterlimit="2.613"
     stroke-width="0.7476"
     id="path76" />
  <path
     d="m 830.1462,239.4864 c 0,0 0.0648,-2.5872 -3.24,-5.2872 0,0 -0.2688,-0.3144 -0.1152,-0.4812 0,0 0.2448,-0.3516 0.564,-0.0792 0,0 3.5592,2.8476 3.6456,5.958 0,0 -0.0396,0.5028 -0.4476,0.3792 -10e-4,-0.002 -0.3636,-0.0312 -0.4068,-0.4896 z"
     fill="#ffffff"
     id="path77"
     style="stroke-width:1.2" />
  <path
     d="m 825.7566,242.4912 c 0,0 -0.954,-1.7208 -5.4624,-3.3204 -4.5084,-1.5996 -3.2904,-5.538 -1.3932,-6.3804 0,0 1.9692,-0.8664 4.0764,1.7724 1.218,1.5264 2.6832,3.7344 2.7792,7.9284 z"
     fill="#64b4d1"
     stroke="#012169"
     stroke-miterlimit="2.613"
     stroke-width="0.7476"
     id="path78" />
  <path
     d="m 823.7814,239.328 c 0,0 -1.0248,-2.3724 -5.1528,-3.4116 0,0 -0.3756,-0.1704 -0.306,-0.3876 0,0 0.0744,-0.4236 0.4776,-0.312 0,0 4.4196,1.0632 5.8008,3.846 0,0 0.1752,0.4728 -0.2472,0.534 0,0.001 -0.3408,0.1296 -0.5724,-0.2688 z"
     fill="#ffffff"
     id="path79"
     style="stroke-width:1.2" />
  <path
     d="m 828.5814,244.2144 c 0,0 -2.1024,0.5904 -6.93,-1.7388 -4.8276,-2.3292 -6.942,1.7244 -6.096,3.8928 0,0 0.8844,2.244 4.6212,1.8504 2.1576,-0.228 5.0472,-0.7932 8.4048,-4.0044 z"
     fill="#64b4d1"
     stroke="#012169"
     stroke-miterlimit="2.613"
     stroke-width="0.7476"
     id="path80" />
  <path
     d="m 817.3554,245.7528 c 0,0 2.1888,1.35 6.1608,-0.186 0,0 0.4044,-0.078 0.4704,0.1404 0,0 0.18,0.39 -0.2136,0.5316 0,0 -4.2252,1.6848 -6.9396,0.2052 0,0 -0.4128,-0.2856 -0.102,-0.5808 10e-4,0 0.2088,-0.3024 0.624,-0.1104 z"
     fill="#ffffff"
     id="path81"
     style="stroke-width:1.2" />
  <path
     d="m 821.5182,228.9564 c 0,0 2.4108,1.1688 1.8504,3.996"
     fill="none"
     stroke="#000000"
     stroke-miterlimit="2.613"
     stroke-width="0.831"
     id="path82" />
  <path
     d="m 832.1718,229.3524 c 0,0 0.9432,2.9856 -0.0984,4.5936"
     fill="none"
     stroke="#000000"
     stroke-miterlimit="10"
     stroke-width="0.831"
     id="path83" />
  <path
     d="m 665.8398,245.9844 c 0,0 -1.2828,-1.746 -0.7584,-6.9852 0.5244,-5.2392 -4.0248,-5.8416 -5.7744,-4.3356 0,0 -1.8084,1.566 -0.1452,4.8888 0.96,1.9176 2.4912,4.4004 6.678,6.432 z"
     fill="#64b4d1"
     stroke="#012169"
     stroke-miterlimit="2.613"
     stroke-width="0.7476"
     id="path84" />
  <path
     d="m 664.1286,242.0724 c 0,0 -1.7052,-1.8336 -0.8916,-5.814 0,0 0.006,-0.3924 -0.2196,-0.4188 0,0 -0.414,-0.1044 -0.4836,0.288 0,0 -0.9156,4.2432 1.0092,6.5484 0,0 0.3516,0.3408 0.5868,0 -0.001,-10e-4 0.2592,-0.2448 -0.001,-0.6036 z"
     fill="#ffffff"
     id="path85"
     style="stroke-width:1.2" />
  <path
     d="m 667.2918,244.0788 c 0,0 0.1344,-2.112 3.7848,-5.7012 3.6504,-3.5892 0.6492,-6.8964 -1.5864,-6.8688 0,0 -2.316,0.036 -3.15,3.5652 -0.4812,2.0388 -0.8892,4.8576 0.9516,9.0048 z"
     fill="#64b4d1"
     stroke="#012169"
     stroke-miterlimit="2.613"
     stroke-width="0.7476"
     id="path86" />
  <path
     d="m 667.8606,239.4864 c 0,0 -0.0648,-2.5872 3.24,-5.2872 0,0 0.2688,-0.3144 0.1152,-0.4812 0,0 -0.2448,-0.3516 -0.564,-0.0792 0,0 -3.5592,2.8476 -3.6456,5.958 0,0 0.0396,0.5028 0.4476,0.3792 0,-0.002 0.3624,-0.0312 0.4068,-0.4896 z"
     fill="#ffffff"
     id="path87"
     style="stroke-width:1.2" />
  <path
     d="m 672.249,242.4912 c 0,0 0.954,-1.7208 5.4624,-3.3204 4.5084,-1.5996 3.2904,-5.538 1.3932,-6.3804 0,0 -1.9692,-0.8664 -4.0764,1.7724 -1.218,1.5264 -2.6832,3.7344 -2.7792,7.9284 z"
     fill="#64b4d1"
     stroke="#012169"
     stroke-miterlimit="2.613"
     stroke-width="0.7476"
     id="path88" />
  <path
     d="m 674.2242,239.328 c 0,0 1.0248,-2.3724 5.1528,-3.4116 0,0 0.3756,-0.1704 0.306,-0.3876 0,0 -0.0744,-0.4236 -0.4776,-0.312 0,0 -4.4196,1.0632 -5.8008,3.846 0,0 -0.1752,0.4728 0.2472,0.534 0,0.001 0.3408,0.1296 0.5724,-0.2688 z"
     fill="#ffffff"
     id="path89"
     style="stroke-width:1.2" />
  <path
     d="m 669.4242,244.2144 c 0,0 2.1024,0.5904 6.93,-1.7388 4.8276,-2.3292 6.942,1.7244 6.096,3.8928 0,0 -0.8844,2.244 -4.6212,1.8504 -2.1576,-0.228 -5.0472,-0.7932 -8.4048,-4.0044 z"
     fill="#64b4d1"
     stroke="#012169"
     stroke-miterlimit="2.613"
     stroke-width="0.7476"
     id="path90" />
  <path
     d="m 680.6502,245.7528 c 0,0 -2.1888,1.35 -6.1608,-0.186 0,0 -0.4044,-0.078 -0.4704,0.1404 0,0 -0.18,0.39 0.2136,0.5316 0,0 4.2252,1.6848 6.9396,0.2052 0,0 0.4128,-0.2856 0.102,-0.5808 -10e-4,0 -0.2076,-0.3024 -0.624,-0.1104 z"
     fill="#ffffff"
     id="path91"
     style="stroke-width:1.2" />
  <path
     d="m 676.4874,228.9564 c 0,0 -2.4108,1.1688 -1.8504,3.996"
     fill="none"
     stroke="#000000"
     stroke-miterlimit="2.613"
     stroke-width="0.831"
     id="path92" />
  <path
     d="m 665.8338,229.3524 c 0,0 -0.9432,2.9856 0.0984,4.5936"
     fill="none"
     stroke="#000000"
     stroke-miterlimit="10"
     stroke-width="0.831"
     id="path93" />
  <path
     d="m 770.493,201.9276 c 0,0 1.5276,4.3608 0.8688,8.3124 -0.5892,3.534 0.2148,4.4472 1.4916,5.1468 1.1052,0.6048 3.666,-0.4536 3.9744,-3.2244 0,0 3.0276,5.9088 -2.8596,9.8952 0,0 -4.2336,2.6016 -7.8216,-0.876 -1.2648,-1.2252 -1.8228,-4.608 -1.206,-7.7472 0,0 0.9264,-4.2552 -0.6168,-8.6232 0,0 2.4108,2.5728 1.794,7.7028 0,0 -1.2336,9.204 5.5788,8.7516 0,0 4.71,-0.0564 4.8504,-5.7672 0,0 -1.7664,2.0352 -3.9528,1.3572 -1.5492,-0.48 -2.9724,-1.9788 -2.7192,-4.3416 0.2652,-2.478 0.954,-6.798 0.618,-10.5864 z m -7.7196,15.1164 c 0,0 -0.3744,7.2756 -7.0272,9.0468 0,0 0.9348,-1.3188 -0.5604,-4.938 0,0 -1.458,-2.1108 -1.3452,-5.3904 0,0 -2.118,1.6572 0.2988,6.0312 1.458,2.6388 0.1872,5.8056 -0.2616,5.9184 -0.45,0.1128 10.9896,-1.5084 8.8956,-10.668 z m -8.6352,-7.2384 c 0,0 -1.6068,-1.8096 -1.7196,-5.994 -0.1116,-4.1844 -0.8976,-5.202 -1.458,-5.6928 0,0 0.822,3.6192 0.5976,5.8428 -0.2244,2.2236 0.15,3.5064 0.4488,4.5612 0,0 -3.6264,0.5652 -5.9064,-4.7124 -2.1792,-5.0448 -4.374,-4.6368 -5.4576,-4.5996 0,0 1.2636,0.1404 3.8124,4.7496 2.5464,4.6056 3.2532,5.544 9.6828,5.8452 z m -16.9704,-10.932 c 0,0 2.094,5.0136 2.1684,7.6524 0,0 -4.86,-1.6212 -6.168,-5.8428 0,0 -5.196,1.7712 -3.2892,7.7652 0,0 -4.4856,-1.5828 -6.504,-5.2404 0,0 2.5044,1.8852 4.8216,2.7144 0,0 -0.2616,-4.8252 5.7936,-6.6348 0,0 0.9012,4.3224 3.9252,5.3532 0,10e-4 -0.2244,-2.7132 -0.7476,-5.7672 z m 7.9992,-8.5944 c 0,0 1.6824,2.4504 5.1216,2.5632 1.644,0.054 3.4128,-0.3168 5.1216,-2.5632 0,0 -0.2244,4.26 -5.1216,4.2972 0,0 -5.1216,0.1884 -5.1216,-4.2972 z m -21.186,29.1204 c 0,0 2.5512,2.3184 3.084,3.0816 0,0 1.794,1.7532 3.3348,-0.5136 0,0 1.9644,-3.6252 4.3752,-3.5292 0,0 -1.71,1.188 -3.6324,4.6152 0,0 -0.5172,1.2648 -1.9476,1.4064 -0.6696,0.066 -1.5144,0.2832 -2.7924,-1.0524 0,0 -1.104,-1.35 -2.4216,-4.008 z m 26.3076,-46.1976 c -5.1216,-0.002 -0.804,3.9576 -0.804,3.9576 0.1116,6.276 -4.9248,8.208 -8.3544,6.39 -3.4296,-1.8192 -0.7476,-6.39 -0.7476,-6.39 0,0 -3.8688,2.544 -1.4016,6.2196 2.4672,3.6756 8.934,2.0352 11.3076,-1.3572 2.3736,3.3924 8.8404,5.0328 11.3076,1.3572 2.4672,-3.6756 -1.4016,-6.2196 -1.4016,-6.2196 0,0 2.682,4.5708 -0.7476,6.39 -3.4296,1.818 -8.4672,-0.1128 -8.3544,-6.39 -10e-4,10e-4 4.3164,-3.96 -0.804,-3.9576 z m 3.102,-6.7848 c 0,0 1.794,3.054 1.4016,7.6896 0,0 1.626,-4.6368 -1.4016,-7.6896 z m -15.6996,7.1808 c 0,0 -0.3924,-3.336 -3.6444,-3.6192 0,0 2.7468,1.98 3.6444,3.6192 z m 25.2324,0 c 0,0 0.3924,-3.336 3.6444,-3.6192 0,0 -2.748,1.98 -3.6444,3.6192 z m -30.3912,5.0892 c 0,0 2.5788,0.792 4.1496,-1.1304 0,0 -2.9724,0.7908 -4.1496,1.1304 z m -8.3544,-20.4696 c 0,0 3,-0.3396 6,4.128 0,0 -2.9724,1.5828 -3.7008,2.544 0,0 0,-1.47 1.458,-2.7708 -10e-4,0.001 -0.5616,-2.2608 -3.7572,-3.9012 z m 50.2404,0 c 0,0 -3,-0.3396 -6,4.128 0,0 2.9724,1.5828 3.7008,2.544 0,0 0,-1.47 -1.458,-2.7708 0,0.001 0.5604,-2.2608 3.7572,-3.9012 z m -23.1576,3.3336 c 0,0 2.6916,0.738 6.0552,-1.128 0,0 4.1496,-2.2056 6.7848,0 0,0 -2.2992,-1.0236 -6.7284,1.128 0,0 -4.4304,2.4288 -6.1116,0 z"
     id="path94"
     style="stroke-width:1.2" />
  <path
     d="m 754.0638,164.268 c 0,0 2.2992,-4.032 9.3084,-3.2316 0,0 -1.9068,5.6064 -9.3084,3.2316 z"
     fill="#ffffff"
     id="path95"
     style="stroke-width:1.2" />
  <ellipse
     cx="758.89862"
     cy="163.01761"
     fill="#784421"
     rx="1.3859999"
     ry="1.7567999"
     id="ellipse95"
     style="stroke-width:1.2" />
  <ellipse
     cx="758.89862"
     cy="163.01761"
     rx="0.82319999"
     ry="1.0776"
     id="ellipse96"
     style="stroke-width:1.2" />
  <path
     d="m 739.0362,155.6736 c 0,0 4.4292,0.2832 7.1208,1.9788 0,0 2.8596,1.6968 6.1116,-0.7356 0,0 3.5364,-2.0352 5.8056,-4.8624 0,0 -5.4132,3.732 -7.4316,4.2972 0,0 -1.8504,-1.4136 -2.5788,-3.4488 0,0 0.2808,-1.5264 3.1956,-4.3536 0,0 -3.9252,1.188 -4.71,4.524 0,0 0.7284,2.0352 2.2428,3.6192 0,0 -0.7284,0.3396 -2.6352,-0.8484 0,-0.001 -4.1484,-1.4148 -7.1208,-0.1704 z m 11.2524,26.604 c -3.8316,3.3084 0,2.9688 0,2.9688 0,0 3.8316,0.3396 0,-2.9688 z m -2.2176,-20.7264 c 0,0 -2.6916,0.738 -6.0564,-1.128 0,0 -4.1496,-2.2056 -6.7848,0 0,0 2.2992,-1.0236 6.7284,1.128 10e-4,0 4.4304,2.4288 6.1128,0 z"
     id="path96"
     style="stroke-width:1.2" />
  <path
     d="m 745.2678,164.268 c 0,0 -2.2992,-4.032 -9.3084,-3.2316 0,0 1.9068,5.6064 9.3084,3.2316 z"
     fill="#ffffff"
     id="path97"
     style="stroke-width:1.2" />
  <ellipse
     cx="740.43304"
     cy="163.01761"
     fill="#784421"
     rx="1.3859999"
     ry="1.7567999"
     id="ellipse97"
     style="stroke-width:1.2" />
  <ellipse
     cx="740.43304"
     cy="163.01761"
     rx="0.82319999"
     ry="1.0776"
     id="ellipse98"
     style="stroke-width:1.2" />
  <path
     d="m 885.6738,127.9968 v 254.0844 c 0,67.8684 -135.6744,89.9196 -135.6744,89.9196 0,0 -135.6744,-22.0512 -135.6744,-89.9196 V 127.9968 Z"
     fill="none"
     stroke="#000000"
     stroke-width="2"
     id="path98" />
</svg>
