<?xml version="1.0" encoding="UTF-8" standalone="no"?>
<svg
   width="1000"
   height="600"
   viewBox="0 0 8000 4800"
   version="1.1"
   id="svg2"
   sodipodi:docname="ca.svg"
   inkscape:version="1.3.2 (091e20e, 2023-11-25, custom)"
   xmlns:inkscape="http://www.inkscape.org/namespaces/inkscape"
   xmlns:sodipodi="http://sodipodi.sourceforge.net/DTD/sodipodi-0.dtd"
   xmlns="http://www.w3.org/2000/svg"
   xmlns:svg="http://www.w3.org/2000/svg">
  <defs
     id="defs2">
    <clipPath
       clipPathUnits="userSpaceOnUse"
       id="clipPath1">
      <g
         id="g3"
         transform="matrix(1.2,0,0,1.2,-1.2e-5,-479.99998)">
        <g
           inkscape:label="Clip"
           id="use1"
           transform="matrix(0.83333336,0,0,0.83333336,1e-5,400)"
           clip-path="url(#clipPath1)">
          <path
             fill="#ffffff"
             d="M 2400,0 H 7200 V 4800 H 2400 Z m 2490,4430 -45,-863 a 95,95 0 0 1 111,-98 l 859,151 -116,-320 a 65,65 0 0 1 20,-73 l 941,-762 -212,-99 a 65,65 0 0 1 -34,-79 l 186,-572 -542,115 a 65,65 0 0 1 -73,-38 l -105,-247 -423,454 a 65,65 0 0 1 -111,-57 l 204,-1052 -327,189 a 65,65 0 0 1 -91,-27 l -332,-652 -332,652 a 65,65 0 0 1 -91,27 l -327,-189 204,1052 a 65,65 0 0 1 -111,57 l -423,-454 -105,247 a 65,65 0 0 1 -73,38 l -542,-115 186,572 a 65,65 0 0 1 -34,79 l -212,99 941,762 a 65,65 0 0 1 20,73 l -116,320 859,-151 a 95,95 0 0 1 111,98 l -45,863 z"
             id="path3"
             transform="matrix(0.83333336,0,0,0.83333336,1e-5,400)" />
        </g>
      </g>
    </clipPath>
  </defs>
  <sodipodi:namedview
     id="namedview2"
     pagecolor="#505050"
     bordercolor="#eeeeee"
     borderopacity="1"
     inkscape:showpageshadow="0"
     inkscape:pageopacity="0"
     inkscape:pagecheckerboard="0"
     inkscape:deskcolor="#505050"
     inkscape:zoom="0.29845799"
     inkscape:cx="586.34718"
     inkscape:cy="-333.38025"
     inkscape:window-width="2560"
     inkscape:window-height="1417"
     inkscape:window-x="3832"
     inkscape:window-y="313"
     inkscape:window-maximized="1"
     inkscape:current-layer="svg2" />
  <path
     fill="#ff0000"
     d="m 0,0 h 2000 l 82.5,99 h 3835 L 6000,0 H 8000 V 4800 H 6000 l -82.5,-99 h -3835 l -82.5,99 H 0 Z"
     id="path1"
     style="stroke-width:0.912871" />
  <rect
     style="fill:#ffffff;fill-opacity:1;stroke-width:8.01529"
     id="rect3"
     width="4000"
     height="408"
     x="2000"
     y="0" />
  <rect
     style="fill:#ffffff;fill-opacity:1;stroke-width:8.01529"
     id="rect3-5"
     width="4000"
     height="408"
     x="2000"
     y="4392" />
  <path
     fill="#ffffff"
     d="M 2000.0001,400 H 6000.0002 V 4400.0001 H 2000.0001 Z m 2075,3691.6668 -37.5,-719.1667 a 79.166669,79.166669 0 0 1 92.5,-81.6667 l 715.8334,125.8334 -96.6667,-266.6667 a 54.166668,54.166668 0 0 1 16.6667,-60.8333 l 784.1667,-635.0001 -176.6667,-82.5 a 54.166668,54.166668 0 0 1 -28.3333,-65.8333 l 155,-476.6667 L 5048.3335,1925 a 54.166668,54.166668 0 0 1 -60.8333,-31.6666 l -87.5,-205.8334 -352.5,378.3334 a 54.166668,54.166668 0 0 1 -92.5,-47.5 l 170,-876.6667 -272.5001,157.5 a 54.166668,54.166668 0 0 1 -75.8333,-22.5 L 4000.0001,733.33334 3723.3335,1276.6667 a 54.166668,54.166668 0 0 1 -75.8334,22.5 l -272.5,-157.5 170,876.6667 a 54.166668,54.166668 0 0 1 -92.5,47.5 l -352.5,-378.3334 -87.5,205.8334 A 54.166668,54.166668 0 0 1 2951.6668,1925 l -451.6667,-95.8333 155,476.6667 a 54.166668,54.166668 0 0 1 -28.3333,65.8333 l -176.6667,82.5 784.1667,635.0001 a 54.166668,54.166668 0 0 1 16.6666,60.8333 l -96.6666,266.6667 715.8333,-125.8334 a 79.166669,79.166669 0 0 1 92.5,81.6667 l -37.5,719.1667 z"
     id="path2"
     style="stroke-width:0.833333" />
</svg>
