<?xml version="1.0" encoding="UTF-8" standalone="no"?>
<svg
   width="1000"
   height="600"
   viewBox="0 0 16800 10080"
   version="1.1"
   id="svg8"
   sodipodi:docname="cc.svg"
   inkscape:version="1.3.2 (091e20e, 2023-11-25, custom)"
   xmlns:inkscape="http://www.inkscape.org/namespaces/inkscape"
   xmlns:sodipodi="http://sodipodi.sourceforge.net/DTD/sodipodi-0.dtd"
   xmlns:xlink="http://www.w3.org/1999/xlink"
   xmlns="http://www.w3.org/2000/svg"
   xmlns:svg="http://www.w3.org/2000/svg">
  <sodipodi:namedview
     id="namedview8"
     pagecolor="#505050"
     bordercolor="#eeeeee"
     borderopacity="1"
     inkscape:showpageshadow="0"
     inkscape:pageopacity="0"
     inkscape:pagecheckerboard="0"
     inkscape:deskcolor="#505050"
     inkscape:zoom="0.42208333"
     inkscape:cx="-66.337611"
     inkscape:cy="695.36031"
     inkscape:window-width="2560"
     inkscape:window-height="1417"
     inkscape:window-x="3832"
     inkscape:window-y="313"
     inkscape:window-maximized="1"
     inkscape:current-layer="svg8" />
  <defs
     id="defs1">
    <path
       id="a"
       d="M 0,-360 69.421,-144.155 281.459,-224.456 155.99,-35.603 350.975,80.107 125.094,99.758 156.199,324.348 0,160 l -156.198,164.349 31.105,-224.59 -225.881,-19.651 194.986,-115.711 -125.471,-188.853 212.038,80.301 z" />
    <path
       id="b"
       d="M 0,-210 54.86,-75.508 199.722,-64.894 88.765,28.842 123.435,169.894 0,93.334 -123.435,169.894 -88.765,28.842 -199.722,-64.894 -54.86,-75.508 Z" />
  </defs>
  <path
     fill="#008000"
     d="M 0,0 H 16800 V 10080 H 0 Z"
     id="path1"
     style="stroke-width:1.82574" />
  <circle
     cx="8400"
     cy="5040"
     r="2100"
     fill="#ffe000"
     id="circle1"
     style="stroke-width:2" />
  <circle
     cx="9054.7998"
     cy="5040"
     r="1728"
     fill="#008000"
     id="circle2"
     style="stroke-width:2" />
  <circle
     cx="2788"
     cy="2940.0063"
     r="2200"
     fill="#ffe000"
     id="circle3"
     style="stroke-width:2" />
  <path
     fill="#802000"
     stroke="#7b3100"
     stroke-width="46.666"
     d="m 2636.2,4598.8065 h 549.34 c 0,0 24.796,-50.356 -5.532,-75.534 -30.328,-25.178 -148.458,-30.72 -116.54,-119.784 65.612,-183.11 74.768,-126.652 115.968,-561.54 41.2,-434.888 61.036,-1116.98 61.036,-1116.98 h -79.348 c 0,0 15.26,212.1 -30.518,488.3 -45.778,276.2 -59.51,300.6 -109.866,512.7 -50.356,212.1 -57.984,230.42 -103.76,354.02 -45.776,123.6 -50.358,129.704 -122.076,244.14 -71.718,114.444 -45.778,71.718 -85.452,140.384 -19.836,34.332 -44.252,25.178 -57.604,50.164 -13.352,24.988 -15.64,84.116 -15.64,84.116 z"
     id="path3" />
  <path
     fill="#008000"
     d="m 3055.4,1337.2065 c 4.564,85.322 -4.014,198.276 -39.376,290.2 -35.856,102.432 -74.846,204.54 -72.916,310.62 -57.004,19.388 -115.754,-123.356 -170.624,-39.376 41.248,116.032 136.478,207.9 201.72,312.44 11.004,32.41 104.876,117.036 50.562,136.716 -137.094,-46.92 -170.324,-220.62 -255.36,-326.1 -98.76,-177.514 -282.88,-302.98 -488,-311.64 -77.048,2.02 -327.56,-19.096 -262.38,112.838 95.994,65.264 214.28,107.82 309.06,181.074 70.62,6.606 198.62,124.496 191.158,169.04 -124.204,-50.306 -182.338,-110.598 -316.16,-163.516 -181.316,-70.028 -432.12,-27.908 -532.5,152.042 -18.714,46.866 -46.344,183.462 12.51,196.476 68.768,-107.37 167.138,-227.4 312.9,-195.2 114.488,8.94 -127.754,213.28 -35.088,172.168 29.36,-13.03 97.166,-57.538 144.204,-62.186 47.036,-4.648 73.306,30.564 108.994,35.436 71.376,9.744 91.03,39.666 84.414,57.074 -7.806,20.538 -30.482,3.002 -103.04,26.008 -36.28,11.502 -55.23,43.384 -97.548,57.978 -42.316,14.596 -130.346,15.63 -163.242,2.688 -115.094,-49.992 -303.78,-41.29 -339.66,102.936 -0.032,63.42 -56.472,-7.008 -82.556,20.392 -19.56,69.206 -24.62,140.264 -127.266,133.98 -62.31,65.368 -126.12,133.054 -205.24,179.56 46.43,106.57 230.4,-107.03 221.8,-16.966 -80.42,109.664 41.378,132.74 94.696,48.332 90.176,-95.28 201.86,-211.26 336.42,-115.236 64.088,60.338 101.328,-31.902 147.714,-26.962 29.224,74.95 65.996,3.688 99.166,-17.5 54.3,-6.766 39.02,67.82 103.54,21.876 128.588,-85.102 286.78,-13.592 412.4,-96.394 133.706,-60.916 18.772,49.064 -18.13,92.056 -58.746,113.94 -7.8,263.52 -135.226,334.28 -51.186,135.79 60.474,314.8 -53.414,415.26 -16.568,62.992 146.468,55.778 192.226,81.664 80.18,3.174 -3.446,-183.516 76.108,-208.54 106.688,66.038 101.692,-118.1 79.66,-174.894 10.344,-129.104 17.63,-270.26 81.786,-387.2 68.204,-143.324 131.332,58.372 54.98,115.116 -43.368,131.792 -106.5,296.72 -7.884,419.28 28.422,6.36 51.76,75.25 88.56,96.424 36.8,21.174 87.06,-5.368 96.234,-68.044 47.202,-188.74 23.424,-391.7 90.83,-575.26 47.576,-56.86 113.206,-9.168 142.71,43.118 94.46,109.666 160.86,246.76 275.22,337.12 104.126,48.724 196.212,122.42 244.2,229.62 -0.64,82.706 234.9,95.384 164.516,3.454 -67.536,-89.494 -22.976,-179.008 45.43,-238.52 36.636,9.036 25.808,-56.578 -2.916,-30.624 -45.99,-10.848 -48.932,-95.024 14.994,-55.014 107.672,34.758 -8.394,-77.924 -47.31,-81.38 -91.04,-56.43 -195.64,-121.352 -240.4,-219.44 118.512,1.208 241.54,65.128 362.64,25.48 97.076,-49.874 195.538,4.16 229.44,89.728 75.04,-11.974 43.048,-87.228 0,-112.292 54.886,-22.65 92.844,-69.61 26.294,-111.03 -35.148,-45.868 47.132,-124.104 -54.002,-120.844 3.302,-77.254 -27.112,-147.946 -111.32,-174.636 -84.356,-71.434 -331.9,105.24 -324.72,-55.78 -24.942,-87.636 100.556,-11.708 135.624,-55.416 36.236,-92.388 -172.674,-83.372 -103.74,-155 45.02,-28.988 256.3,-70.628 90.612,-101.64 -82.694,22.728 -153.664,5.898 -218.74,-35.026 -59.314,99.206 -228.68,-53.876 -198.504,122.502 -23.17,66.46 -174.556,239.14 -215.52,106.846 34.844,-103.69 214.2,-137.594 158.58,-277.4 -8.534,-87.272 -80.89,15.178 -114.98,8.67 -17.26,-54.324 52.208,-118.356 100.626,-131.25 96.076,73.896 98.986,-93.228 190.356,-79.632 66.71,-14.82 -21.542,-43.436 -40.148,-55.992 18.28,-48.832 120.692,-73.784 20.272,-116.188 -88.604,-65.744 -154.276,65.44 -227.36,72.436 -70.144,-79.19 63.684,-117.256 100.624,-158.958 1.986,-31.086 -78.034,-9.38 -53.96,-36.458 20.914,-37.38 162.604,-40.162 96.252,-96.25 -99.93,-34.306 -228.88,-25.752 -324.76,18.692 -60.406,19.554 -78.18,156.14 -130.244,150.474 -24.48,-60.796 7.97,-180.744 -75.834,-198.334 z m 472.5,1334.38 c 76.144,-12.894 1.616,115.636 -35,113.75 3.236,-46.184 -110.13,-41.738 -39.794,-81.976 22.81,-14.728 48.224,-25.964 74.794,-31.774 z"
     id="path4"
     style="stroke-width:2" />
  <g
     fill="#ffe000"
     id="g8"
     transform="matrix(2,0,0,2,-1680,0)">
    <use
       xlink:href="#a"
       x="7560"
       y="4200"
       id="use4" />
    <use
       xlink:href="#a"
       x="6300"
       y="2205"
       id="use5" />
    <use
       xlink:href="#a"
       x="7560"
       y="840"
       id="use6" />
    <use
       xlink:href="#a"
       x="8680"
       y="1869"
       id="use7" />
    <use
       xlink:href="#b"
       x="8064"
       y="2730"
       id="use8" />
  </g>
</svg>
