<?xml version="1.0" encoding="UTF-8" standalone="no"?>
<svg
   width="1000"
   height="600"
   viewBox="0 0 8000 4800"
   version="1.1"
   id="svg13"
   sodipodi:docname="ck.svg"
   inkscape:version="1.3.2 (091e20e, 2023-11-25, custom)"
   xmlns:inkscape="http://www.inkscape.org/namespaces/inkscape"
   xmlns:sodipodi="http://sodipodi.sourceforge.net/DTD/sodipodi-0.dtd"
   xmlns:xlink="http://www.w3.org/1999/xlink"
   xmlns="http://www.w3.org/2000/svg"
   xmlns:svg="http://www.w3.org/2000/svg">
  <sodipodi:namedview
     id="namedview13"
     pagecolor="#505050"
     bordercolor="#eeeeee"
     borderopacity="1"
     inkscape:showpageshadow="0"
     inkscape:pageopacity="0"
     inkscape:pagecheckerboard="0"
     inkscape:deskcolor="#505050"
     inkscape:zoom="0.29845799"
     inkscape:cx="901.29938"
     inkscape:cy="661.73468"
     inkscape:window-width="2560"
     inkscape:window-height="1417"
     inkscape:window-x="3832"
     inkscape:window-y="313"
     inkscape:window-maximized="1"
     inkscape:current-layer="svg13" />
  <defs
     id="defs2">
    <clipPath
       id="a">
      <path
         d="M 0,0 H 12 V 6 H 0 Z"
         id="path1" />
    </clipPath>
    <clipPath
       id="b">
      <path
         d="M 0,0 V 1.5 H 8 V 4 Z M 6,0 H 3 v 4 h -5 z"
         id="path2" />
    </clipPath>
  </defs>
  <g
     transform="scale(666.66667,800)"
     stroke-width="0.6"
     fill="#012169"
     clip-path="url(#a)"
     id="g8">
    <path
       d="M 0,0 H 12 V 6 H 0 Z"
       id="path3" />
    <path
       stroke="#ffffff"
       d="M 0,0 6,3 M 0,3 6,0"
       id="path4" />
    <path
       stroke="#c8102e"
       stroke-width="0.4"
       clip-path="url(#b)"
       d="M 0,0 6,3 M 0,3 6,0"
       id="path5" />
    <path
       stroke="#ffffff"
       stroke-width="1"
       d="M 3,0 V 4 M 0,1.5 h 7"
       id="path6" />
    <path
       stroke="#c8102e"
       d="M 3,0 V 4 M 0,1.5 h 7"
       id="path7" />
    <path
       d="M 0,3 H 6 V 0 h 6 V 6 H 0 Z"
       id="path8" />
  </g>
  <g
     transform="matrix(0.96916461,0,0,0.96916461,6040,2429.0559)"
     id="g13">
    <g
       id="d">
      <path
         id="c"
         fill="#ffffff"
         d="m 0,-1992 81,249 h 261 l -211,153 81,249 -212,-153 -212,153 81,-249 -211,-153 h 261 z" />
      <use
         transform="rotate(24)"
         xlink:href="#c"
         id="use8" />
      <use
         transform="rotate(48)"
         xlink:href="#c"
         id="use9" />
    </g>
    <use
       transform="rotate(72)"
       xlink:href="#d"
       id="use10" />
    <use
       transform="rotate(144)"
       xlink:href="#d"
       id="use11" />
    <use
       transform="rotate(-144)"
       xlink:href="#d"
       id="use12" />
    <use
       transform="rotate(-72)"
       xlink:href="#d"
       id="use13" />
  </g>
</svg>
