<?xml version="1.0" encoding="UTF-8" standalone="no"?>
<svg
   viewBox="0 0 1000 600"
   version="1.1"
   id="svg5"
   sodipodi:docname="cx.svg"
   width="1000"
   height="600"
   inkscape:version="1.3.2 (091e20e, 2023-11-25, custom)"
   xmlns:inkscape="http://www.inkscape.org/namespaces/inkscape"
   xmlns:sodipodi="http://sodipodi.sourceforge.net/DTD/sodipodi-0.dtd"
   xmlns="http://www.w3.org/2000/svg"
   xmlns:svg="http://www.w3.org/2000/svg">
  <defs
     id="defs5" />
  <sodipodi:namedview
     id="namedview5"
     pagecolor="#505050"
     bordercolor="#eeeeee"
     borderopacity="1"
     inkscape:showpageshadow="0"
     inkscape:pageopacity="0"
     inkscape:pagecheckerboard="0"
     inkscape:deskcolor="#505050"
     inkscape:zoom="0.5015"
     inkscape:cx="329.01296"
     inkscape:cy="563.31007"
     inkscape:window-width="2560"
     inkscape:window-height="1417"
     inkscape:window-x="3832"
     inkscape:window-y="313"
     inkscape:window-maximized="1"
     inkscape:current-layer="svg5" />
  <path
     fill="#012169"
     d="M 0,0 H 1000 V 600 H 0 Z"
     id="path1"
     style="stroke-width:1.09545" />
  <path
     fill="#0db02b"
     d="M 0,0 H 1000 V 600 Z"
     id="path2"
     style="stroke-width:1.09545" />
  <circle
     cx="500"
     cy="300"
     r="99.330002"
     fill="#f7d116"
     id="circle2"
     style="stroke-width:1.1" />
  <path
     fill="#0db02b"
     d="m 439.28,255.34 c 6.82,9.35 17.05,24.97 25.41,20.9 6.49,0 9.79,0.44 10.67,4.73 15.29,2.64 40.92,-3.85 56.76,-24.64 0,0 1.32,0.22 0.88,-7.7 0.11,-3.41 4.73,-2.75 4.84,-1.65 0.66,1.76 0.55,2.97 1.43,3.08 1.98,-0.66 4.62,-5.06 6.93,-7.81 0.66,-1.21 0.33,-2.53 0.44,-4.07 1.21,-2.97 4.18,-2.31 4.73,-0.77 0.55,0.99 0.55,1.76 1.1,2.75 2.97,1.98 8.47,0.11 8.8,0.11 0.55,-2.42 2.09,-2.2 2.09,-2.2 1.98,-0.44 1.21,-0.22 2.53,0.44 -1.21,13.2 2.64,13.75 2.31,20.57 0.11,7.59 -2.31,9.68 -2.31,12.54 0.77,3.52 11.88,3.63 8.03,6.6 -3.41,1.87 0,5.28 -5.17,6.6 -15.07,7.7 -18.04,14.19 -18.04,14.19 0,0 -3.74,7.15 -4.18,7.15 -2.53,4.73 -5.72,2.2 -7.48,4.51 -0.88,2.97 -1.87,9.46 -0.11,12.76 0.88,4.62 -0.11,7.15 -1.21,11.77 -0.99,9.68 -4.84,11.11 -5.28,14.52 -1.76,3.63 0.33,20.68 -1.32,20.68 -11.22,0.22 -19.91,-2.2 -24.31,-3.08 4.29,-18.7 2.64,-35.09 2.64,-36.74 -1.1,-13.31 -20.02,-10.12 -22.88,-11.88 -2.42,-0.55 -3.85,-2.42 -4.73,-3.3 -2.64,-0.33 -3.63,-0.88 -6.38,-1.21 -1.32,0.66 -0.55,1.32 -3.52,2.31 -7.59,0.88 -10.89,-6.6 -10.89,-6.6 0.33,-2.53 -16.94,0.55 -26.4,-1.65 -3.85,2.2 -5.5,8.47 -8.69,9.24 -0.11,1.98 -5.17,-1.65 -6.27,-3.52 -0.22,-5.61 4.95,-8.14 4.95,-8.14 4.07,-2.86 6.49,-3.3 8.47,-5.28 0.99,-4.95 0.44,-8.58 2.53,-12.21 1.76,-2.86 4.4,-1.54 6.16,-2.75 1.87,-1.21 2.75,-9.57 0.99,-11.77 l -8.03,-7.26 c -2.42,-7.15 2.97,-11.66 4.51,-11.22"
     id="path3"
     style="stroke-width:1.1" />
  <path
     fill="#ffffff"
     d="m 189.655,230.26 -14.08,-13.09 -14.19,12.98 1.54,-19.14 -18.92,-3.08 15.95,-10.78 -9.46,-16.72 18.37,5.72 7.15,-17.82 6.93,17.93 18.37,-5.5 -9.68,16.61 15.73,11 -19.03,2.75 z m 49.72,159.06 -15.18,-10.12 -14.74,10.67 5.17,-17.16 -14.96,-10.34 18.37,-0.44 5.5,-17.05 6.16,16.83 18.37,-0.22 -14.52,10.89 z m -46.97,136.95 -14.08,-13.09 -14.19,12.87 1.54,-19.14 -18.92,-3.08 15.95,-10.78 -9.46,-16.72 18.37,5.72 7.15,-17.82 6.93,17.93 18.37,-5.5 -9.68,16.61 15.73,11 -19.03,2.75 z M 66.345,365.89 52.265,352.8 l -14.19,12.87 1.54,-19.14 -18.92,-3.08 15.95,-10.78 -9.46,-16.72 18.37,5.72 7.15,-17.82 6.93,17.93 18.37,-5.5 -9.68,16.61 15.73,11 -19.03,2.75 z m 242.55,-42.02 -14.08,-13.2 -14.19,12.98 1.54,-19.14 -18.92,-3.08 15.95,-10.78 -9.46,-16.72 18.37,5.72 7.15,-17.82 6.93,17.93 18.37,-5.5 -9.68,16.61 15.73,11 -19.03,2.75 z"
     id="path4"
     style="stroke-width:1.1" />
  <path
     fill="#f7d116"
     d="m 956.72,241.44273 c -3.85,-2.2 -6.49,-0.44 -11.66,-2.2 -4.29,-1.43 -3.52,-2.97 -7.26,-4.18 -4.4,-1.43 -6.49,0.44 -14.08,1.21 -2.64,0.22 -6.82,0.55 -9.24,0.22 -9.79,-1.32 -17.49,-16.5 -20.68,-28.05 -4.29,-14.96 -1.32,-25.19 -3.3,-46.75 -0.44,-4.84 -1.54,-11.88 -4.18,-19.69 -1.87,-5.61 -5.61,-14.41 -23.76,-35.53 -20.13,-23.320001 -36.19,-36.300001 -40.48,-39.710001 -6.82,-5.5 -12.87,-9.68 -17.27,-12.65 0.66,6.82 2.2,16.94 5.94,28.49 4.29,13.42 9.57,22.990001 14.63,32.120001 8.47,15.18 29.81,52.91 26.84,63.91 -0.22,0.66 -0.88,2.97 -1.54,6.38 -0.88,4.51 -1.1,8.25 -1.21,10.78 -2.75,-0.88 -6.93,-2.42 -11.88,-4.84 -9.13,-4.51 -15.07,-9.24 -18.04,-11.55 -8.14,-6.16 -16.06,-8.91 -31.79,-14.63 -20.9,-7.59 -40.48,-10.56 -56.21,-11.55 9.9,14.41 19.58,24.09 26.73,30.14 13.31,11.44 27.39,19.25 34.32,23.1 8.47,4.73 11.99,6.05 20.79,11.66 13.53,8.69 18.7,14.3 22,18.7 4.07,5.39 7.81,10.34 8.69,17.6 0.88,7.04 -1.1,14.63 -7.04,24.09 -17.16,27.17 -50.05,42.13 -60.06,46.42 -12.54,5.39 -32.23,13.75 -61.6,17.93 -22.22,3.19 -57.53,4.95 -100.65,-6.71 4.51,1.98 9.57,3.96 15.07,5.72 5.94,1.87 11.44,3.19 16.5,4.18 0.33,0.11 -7.04,0.33 -14.52,-1.32 -9.02,-1.98 -16.17,-5.5 -21.12,-8.47 3.74,2.97 9.57,7.04 17.05,10.34 9.68,4.29 19.58,6.27 48.84,6.38 17.6,0.11 26.4,0.11 35.09,-0.77 24.86,-2.53 43.45,-8.58 61.05,-14.63 14.85,-5.06 27.5,-9.35 43.89,-17.82 23.65,-12.32 34.87,-22.88 61.16,-33.55 8.25,-3.3 12.43,-5.06 17.71,-6.6 15.62,-4.62 21.56,-3.41 32.34,-9.46 9.68,-5.39 12.76,-10.89 13.64,-12.54 1.43,-2.64 1.65,-4.29 3.19,-6.27 4.07,-5.17 11.22,-5.39 16.72,-4.73 -0.66,-1.43 -2.2,-3.63 -4.62,-5.17 m -21.12,5.06 c -0.66,0.88 -1.87,1.21 -2.86,0.99 -1.43,-0.44 -2.42,-1.98 -2.31,-3.85 l -3.3,-1.76 h 8.47 c 0.99,1.43 0.88,3.41 0,4.62"
     id="path5"
     style="stroke-width:1.1" />
</svg>
