<?xml version="1.0" encoding="UTF-8" standalone="no"?>
<svg
   width="1000"
   height="600"
   version="1.1"
   id="svg2"
   sodipodi:docname="cy.svg"
   inkscape:version="1.3.2 (091e20e, 2023-11-25, custom)"
   xmlns:inkscape="http://www.inkscape.org/namespaces/inkscape"
   xmlns:sodipodi="http://sodipodi.sourceforge.net/DTD/sodipodi-0.dtd"
   xmlns:xlink="http://www.w3.org/1999/xlink"
   xmlns="http://www.w3.org/2000/svg"
   xmlns:svg="http://www.w3.org/2000/svg">
  <defs
     id="defs2" />
  <sodipodi:namedview
     id="namedview2"
     pagecolor="#505050"
     bordercolor="#eeeeee"
     borderopacity="1"
     inkscape:showpageshadow="0"
     inkscape:pageopacity="0"
     inkscape:pagecheckerboard="0"
     inkscape:deskcolor="#505050"
     inkscape:zoom="0.50875"
     inkscape:cx="-13.759214"
     inkscape:cy="268.30467"
     inkscape:window-width="2560"
     inkscape:window-height="1417"
     inkscape:window-x="3832"
     inkscape:window-y="313"
     inkscape:window-maximized="1"
     inkscape:current-layer="svg2" />
  <path
     fill="#ffffff"
     d="M 0,0 H 1000 V 600 H 0 Z"
     id="path1"
     style="stroke-width:1.05409" />
  <path
     id="a"
     d="m 511.06263,529.11878 a 1.1222211,1.1222211 0 0 1 -0.38555,-0.27223 l -0.13889,-0.13 a 23.914421,23.914421 0 0 1 -1.75778,-1.82555 c -1.48,-1.68111 -3.46555,-4.14222 -5.2111,-6.31666 -3.46111,-4.31444 -6.32111,-8.0311 -6.86,-8.7311 l -0.88111,-1.14667 -8.62999,-2.66111 -6.3011,-2.93777 3.36666,-3.78444 11.56443,4.9511 8.62999,1.77111 15.95888,11.73777 -0.0122,0.01 c -0.0322,0.0267 -2.3211,1.93111 -4.59555,4 -1.01444,0.92222 -2.29333,2.11111 -3.19666,3.09222 -0.37222,0.39888 -0.71778,0.82222 -1.03333,1.26666 a 10.004434,10.004434 0 0 0 -0.51667,0.97778 m -59.26661,-17.79998 a 44.033289,44.033289 0 0 1 -22.10553,-6.18555 h -0.008 v -0.009 a 11.377766,11.377766 0 0 1 3.19778,-3.44444 c 2.15666,-1.58334 6.04666,-3.47556 12.33332,-3.5 h 0.13 c 7.44444,0 16.55554,2.53111 27.08108,7.52333 a 40.024404,40.024404 0 0 1 -20.62887,5.61555 l 0.0111,0.0111 z m -32.6333,-7.23333 a 4.7122175,4.7122175 0 0 1 -3.52222,-1.48111 7.1544373,7.1544373 0 0 1 -1.57777,-3.19889 16.284428,16.284428 0 0 1 -0.39,-4.68555 4.817773,4.817773 0 0 1 1.73555,-0.39333 h 0.12445 c 2.78999,0 4.98888,2.42 5.9311,4.81888 a 4.8333285,4.8333285 0 0 1 0.30445,3.40778 2.6855529,2.6855529 0 0 1 -2.6,1.52222 z m 57.42217,-6.65555 c -19.28776,-2.75444 -27.46331,-9.72777 -30.92553,-15.09221 a 17.449983,17.449983 0 0 1 -2.92666,-11.06665 v -0.0156 h 0.0144 c 0.96889,-0.22222 1.96,-0.33222 2.95333,-0.32555 5.13111,0 18.25554,2.58111 30.88886,26.49108 l 0.008,0.0156 -0.0222,-0.0111 z m -39.5333,-3.82222 c -8.23999,0 -14.51331,-1.42222 -18.64664,-4.22222 a 11.448877,11.448877 0 0 1 -4.09556,-4.58333 7.4999925,7.4999925 0 0 1 -0.65999,-2.24777 25.226641,25.226641 0 0 1 8.62776,-1.83333 c 0.42556,-0.02 0.85445,-0.0322 1.30445,-0.0333 6.36888,0 16.05332,2.07778 26.2733,11.97777 l 0.01,0.01 h -0.0122 a 100.03768,100.03768 0 0 1 -12.8111,0.93333 z m -39.89996,-1.53333 c -8.68888,0 -20.62553,-2.65333 -28.06997,-10.09666 l -0.008,-0.009 h 0.0222 a 87.207691,87.207691 0 0 1 17.24776,-2.2911 c 0.54222,-0.0133 1.08889,-0.02 1.63888,-0.0211 8.14666,0 14.38221,1.58 18.53554,4.69444 a 5.4911056,5.4911056 0 0 1 2.42,3.09222 2.5333308,2.5333308 0 0 1 -1.17333,2.38889 c -1.87,1.41222 -5.21333,2.16555 -9.93888,2.24111 l -0.66667,0.0222 z m -28.15552,-14.44443 a 3.5622187,3.5622187 0 0 1 -2.75444,-1.29667 6.5222157,6.5222157 0 0 1 -1.23111,-2.80221 15.886651,15.886651 0 0 1 -0.32334,-4.08222 v -0.02 c 0.42445,-0.19556 0.88556,-0.3 1.35222,-0.30556 a 4.2044402,4.2044402 0 0 1 2.87667,1.28667 7.7288812,7.7288812 0 0 1 1.87555,2.93888 4.4777733,4.4777733 0 0 1 0.2,2.92778 2.1277757,2.1277757 0 0 1 -2,1.34444 z m 65.03327,-1.46667 a 4.7122175,4.7122175 0 0 1 -3.52222,-1.4811 7.1666595,7.1666595 0 0 1 -1.58,-3.19778 16.284428,16.284428 0 0 1 -0.39,-4.68555 4.817773,4.817773 0 0 1 1.73555,-0.39333 h 0.12445 c 2.78999,0 4.98888,2.41999 5.9311,4.81888 a 4.8333285,4.8333285 0 0 1 0.30445,3.40778 2.6811084,2.6811084 0 0 1 -2.6,1.52222 z m -31.67775,-1.31111 c -17.48554,-0.61555 -26.55553,-5.58555 -31.0933,-9.64776 a 20.333313,20.333313 0 0 1 -4.71111,-6.05222 12.94332,12.94332 0 0 1 -1.00889,-2.70889 l 0.0233,-0.01 a 14.956652,14.956652 0 0 1 4.31666,-0.64333 h 0.40889 c 5.89666,0 17.90109,2.47667 32.05774,19.05887 v 0.0111 z m 18.98887,-1.76666 c -14.06776,-2.14222 -22.03776,-8.1811 -26.24664,-12.87221 a 26.863306,26.863306 0 0 1 -5.79222,-9.70888 20.69109,20.69109 0 0 1 4.33333,-0.52111 c 0.18778,0 0.38333,-0.008 0.58222,-0.008 0.19889,0 0.40556,0 0.61445,0.008 7.07555,0.15445 19.92664,3.35889 26.50553,23.09442 h 0.0111 z m -72.22215,-6.75555 a 54.817723,54.817723 0 0 1 -13.28888,-1.59111 c -7.36554,-1.84222 -10.52554,-4.65444 -11.87887,-6.68999 a 7.019993,7.019993 0 0 1 -1.14556,-2.81555 4.757773,4.757773 0 0 1 -0.0344,-1.19223 l 0.0344,-0.0122 a 50.264394,50.264394 0 0 1 11.62666,-1.47555 c 0.26555,0 0.53333,-0.007 0.80555,-0.007 a 48.673285,48.673285 0 0 1 9.51555,0.92222 30.162192,30.162192 0 0 1 17.83665,11.26666 v 0.01 h -0.0145 a 55.149945,55.149945 0 0 1 -13.46665,1.57777 z m 32.65552,-11.86665 a 4.7155508,4.7155508 0 0 1 -3.52444,-1.44445 7.2111039,7.2111039 0 0 1 -1.57778,-3.2311 15.999984,15.999984 0 0 1 -0.38999,-4.65 4.817773,4.817773 0 0 1 1.73555,-0.39333 h 0.12444 c 2.78444,0 4.98666,2.42111 5.93222,4.81999 a 4.7222175,4.7222175 0 0 1 0.27,3.37111 2.6177752,2.6177752 0 0 1 -2.56666,1.53333 z m -24.55553,-3.36667 a 53.58328,53.58328 0 0 1 -13.29665,-5.80555 c -6.16,-3.79222 -13.69554,-10.49999 -14.61443,-20.9222 h 0.0156 a 7.9333254,7.9333254 0 0 1 1.42,-0.17111 c 0.11111,0 0.24111,-0.007 0.37111,-0.007 1.84,0 5.60666,0.51778 10.16333,3.98222 5.79999,4.42222 11.15554,12.13332 15.94442,22.94442 z m 16.03332,-0.58889 a 43.36329,43.36329 0 0 1 -10.5211,-6.75999 67.509932,67.509932 0 0 1 -18.57332,-25.92219 8.5533248,8.5533248 0 0 1 4.06111,-0.79778 c 2.67889,0.0756 6.75888,1.18889 11.28221,6.06999 5.19555,5.60777 9.83332,14.82221 13.77776,27.38997 l 0.0111,0.0356 -0.0333,-0.0111 z m -41.5444,-1.21111 c -5.35667,0 -7.19,-2.90555 -7.73,-4.15555 a 8.6477691,8.6477691 0 0 1 -0.61555,-4.11888 v -0.0222 a 11.794433,11.794433 0 0 1 2.66666,-0.34889 h 0.18334 a 11.019989,11.019989 0 0 1 8.98221,4.26777 c 0.28333,0.42111 1.15222,1.88222 0.43333,3.02333 -0.57778,0.9 -1.88889,1.35556 -3.92222,1.35556 z M 319.8406,434.32998 a 71.015485,71.015485 0 0 1 -12.37888,-1.05777 c -4.7711,-0.86778 -7.47554,-4.92444 -8.90332,-8.17333 a 28.388861,28.388861 0 0 1 -2,-6.94888 h 0.0133 c 14.75777,0.43333 21.72776,4.74555 24.97554,8.28555 a 13.014431,13.014431 0 0 1 3.56221,7.6911 h -0.01 c -0.0222,0 -2.09999,0.2 -5.26666,0.2 z m 15.36665,-15.35554 a 59.852162,59.852162 0 0 1 -3.36999,-4.69777 c -1.74778,-2.71667 -3.36445,-5.55555 -3.36445,-7.8711 0,-2.24 -0.52666,-6.96222 -0.84111,-9.57666 -0.39777,-3.31666 -0.8,-6.15555 -0.83333,-6.39666 h 0.0145 c 0.37444,0.13666 9.2311,3.45999 9.2311,11.76776 0,8.30777 -0.82,16.68221 -0.82778,16.76554 v 0.0122 h -0.0111 z m -11.47776,-0.78889 c -0.0933,0 -0.18556,-0.009 -0.27778,-0.0233 -2.61778,-0.43667 -7.22222,-2.43777 -12.30332,-5.35333 -5.64666,-3.23777 -10.23222,-6.70666 -12.9111,-9.76777 -2.44444,-2.7911 -3.88889,-7.17443 -4.31111,-13.02887 a 48.43884,48.43884 0 0 1 0.0967,-7.95888 4.5944398,4.5944399 0 0 1 1.46111,-0.22222 c 1.96,0.0322 4.05222,0.91444 6.87666,2.85999 a 55.292167,55.292167 0 0 1 7.2111,6.12666 110.42656,110.42656 0 0 1 7.99999,8.85666 l 0.0356,0.0444 c 0.29444,0.52777 2.81889,5.07888 4.78555,9.50888 a 30.615525,30.615525 0 0 1 2.24889,6.38443 c 0.19333,0.64556 0.19333,1.33334 0,1.97889 a 1.0022212,1.0022212 0 0 1 -0.42778,0.49778 c -0.15444,0.0667 -0.32111,0.10111 -0.48889,0.1 z"
     fill="#4e5b31"
     style="stroke-width:1.11111" />
  <use
     xlink:href="#a"
     transform="matrix(-1,0,0,1,993.01418,0)"
     id="use1" />
  <path
     d="m 804.43123,81.592557 -2.61667,1.042221 -1.02555,0.408889 -3.17111,-0.174445 -2.97,1.425555 -5.26666,3.598885 -0.23222,0.166666 -1.96333,0.512222 -1.82333,-0.786666 -1.03556,0.471111 -0.35666,2.133331 -0.98556,1.532221 -1.21333,0.852221 -4.20333,0.43 -3.54444,1.827776 -4.61111,-1.234444 -2.14222,0.838888 -4.55555,4.102219 -2.32777,1.102221 -0.81334,-0.04667 -3.08666,-0.158889 -1.30333,0.426671 -1.94667,1.88111 -3.68333,0.28666 -1.14777,0.79445 -1.79778,3.62222 -1.94777,2.00888 -1.11111,0.23556 -1.20778,-0.44445 -0.90778,0.16 -0.41111,2.31778 -0.88111,0.97111 -2.46555,0.84889 -1.97,1.64111 -1.72889,0.88889 -2.31555,-0.0578 h -0.53222 l -2.30667,1.27333 -4.33333,0.38 -1.80444,1.72111 -0.39778,0.36778 -0.84222,0.50888 -1.37777,0.82223 -0.33334,0.20444 -1.66666,-0.29667 -1.94444,0.77 -0.78667,-1.21 -1.34555,0.80778 -1.77778,0.0767 -2.22222,-0.98778 -1.69111,-0.75333 -1.23666,0.17889 -0.43,2.15555 -0.0433,0.22889 -1.3,1.73 -2.42666,1.47 -0.33333,0.43 -2.76111,3.56444 -5.24666,5.51777 -4.43667,2.25333 -4.59888,1.39889 -3.22222,2.64444 -8.44443,4.18555 -13.32777,6.63666 -2.72555,0.87333 -3.91111,0.62445 -6.97555,2.56888 -6.15444,1.85667 -0.34222,0.10444 -1.22222,0.36889 -8.67777,2.62555 -4.03888,-0.42666 -2.39222,0.86889 -6.22777,-0.69111 -4.33333,0.0855 -2.74111,0.57 -5.15222,2.47111 -8.69666,4.17999 -2.87333,2.62889 -4.47444,2.33333 -5.23888,1.65889 0.0122,-2.20111 -0.0311,-0.0933 -1.81778,0.57444 -1.31222,0.41444 -4.24999,0.65556 h -2.36444 l -1.46778,-0.42667 -0.22222,0.0767 -8.68666,2.85444 -9.68777,0.93556 -4.84777,1.55555 -3.62222,-0.0578 -2.26444,0.67334 -4.44444,0.54333 -1.58667,-0.42333 -0.35777,-0.0978 -13.05555,0.56666 -5.96888,-0.67444 -2.84889,0.64778 -4.77777,-1.60667 -6.96555,-0.80778 -1.62777,-0.48777 -3.66667,-1.08667 -1.65666,0.95445 -1.24,0.13222 -2.96333,-1.07445 -1.06667,-0.0267 -2.44444,0.88889 -1.40778,-0.36112 -1.30777,-1.04222 -3.06778,-0.45666 -1.86888,-1.57111 -10.44444,1.38444 -2.83444,-0.83333 -9.50443,-2.76889 -1.51222,0.0767 -1.88889,1.41222 -2.83111,1.03222 -2.45778,0.63889 -3.34666,0.11111 -3.88888,-1.02 -4.00667,-1.94222 -1.48111,-0.35222 -3.30444,0.33333 -1.01111,0.0911 -6.07332,-3.25777 -7.82444,-4.88889 -5.30888,-2.55555 -1.99334,-0.32333 -0.26777,0.94778 0.98888,3.1111 0.33334,3.08222 -0.10111,2.84778 -0.0544,1.76333 0.49556,1.58333 1.91666,2.12444 0.79889,2.13333 0.58444,5.87111 -0.007,5.95777 -0.93222,9.5011 -0.31445,1.44445 -1.11111,4.92221 -1.01555,4.52111 -3.94,12.03665 -1.08222,1.49223 -2.65666,1.81222 -6.02111,4.09777 -4.43333,2.55555 -1.40333,0.58111 -3.59889,0.27222 -2.24222,-0.11111 -2.79221,-1.51222 -2.74111,-0.70555 -3.59111,-2.58222 -4,-0.82667 -4.37888,-2.53111 -1.14,-1.36999 -2.38444,-0.22223 -3.30667,-0.99222 v -0.006 l -1.21444,-0.36334 -0.83889,-0.24444 -4.22221,-0.11111 -3.93333,-1.81556 -2.07111,-0.49999 -2.83,-0.14334 -2.96222,1.37667 -1.50111,0.69889 -1.89666,-0.75334 -1.37222,0.0856 -1.55556,2.35 -0.19111,0.35888 -1.07111,0.56667 -1.33333,-0.0189 -1.04333,-0.0278 -1.12889,0.49334 -1.52,0.65889 -1.34222,0.58555 -0.65556,0.28333 -0.0111,-0.0111 -0.40333,0.0811 -0.71667,0.12445 -0.88888,0.17 -1.56667,-0.91556 -0.83333,-0.49111 -1.39667,-0.28444 -0.75222,0.54333 -0.14778,2.55555 -0.68666,1.53111 -2.17889,1.92667 -2.21444,1.95 -1.54333,2.27444 -4.08444,9.32221 -2.55556,3.76111 -0.79444,0.87666 -2.68666,2.95556 -2.37333,1.84111 -5.46889,4.23888 -5.17666,1.93444 -4.45888,0.91111 -2.16778,0.009 -4.11111,-0.54666 -3.69221,-1.13334 -4.05556,-2.53555 -4.44444,-3.57444 -6.43777,-6.35999 -0.91111,-0.54778 -0.19,-0.12667 -2.02777,-1.29666 -1.50445,0.0389 -0.58888,0.97111 -0.32223,1.40333 -0.27222,1.24444 -0.73778,7.07444 0.0544,0.41 0.38778,2.91333 4.88888,6.83333 1.50889,3.62999 0.24778,0.41445 1.00888,1.69444 0.76778,1.29222 0.0767,0.13111 1.66666,4.98666 -1.17444,2.81555 0.59333,1.88889 -1.48444,1.15222 -0.27222,1.62778 4.38999,5.50333 0.95778,2.42777 -1.07,3.36555 -1.70667,1.85667 -0.47666,0.50778 0.24,1.42222 2.02,1.81666 3.43221,3.05555 1.83,4.54 1.39222,1.22222 1.61778,-0.34444 0.9,0.68666 1.36444,-0.0233 1.34222,1.34222 0.86889,0.42111 1.37333,0.68445 1.08556,1.41333 0.24,4.34555 2.02444,5.39999 0.0311,2.92778 0.0111,0.41555 1.26,2.16445 0.39556,1.70888 -0.66667,4.52111 1.60555,1.45111 1.74111,-0.35556 1.12445,0.17778 1.80666,1.50444 2.18778,3.33333 2.13999,-0.31333 1.35778,0.65444 6.55555,5.92667 1.48778,0.75111 0.0822,0.0467 1.07,0.53667 1.33333,1.34222 2.06222,-1.36889 0.22889,-0.0233 2.24222,-0.19778 0.98444,0.66667 1.88889,1.27666 2.48222,-0.0322 5.38222,1.65 2.35444,0.60333 4.73444,2.94222 2.01222,1.24444 1.19111,0.96778 1.58222,1.29 3.16111,1.36 2.7111,0.64889 1.46889,0.34888 1.11111,0.42667 0.0278,-0.0689 h 0.0156 l -0.0267,0.07 5.8711,2.24778 3.18,0.74222 2.94222,1.08333 2.14111,0.77778 1.57111,0.0256 2.22222,-1.86888 2.15222,-0.12445 1.78777,0.44445 1.74445,-0.29223 2.76111,-1.7011 0.53888,-0.79889 1.95778,-0.93222 6.60444,-0.82 1.93,0.62666 4.95555,-2.15555 3.31999,0.92333 2.93889,-1.04222 6.4211,1.42667 1.70667,1.20111 1.90777,2.18333 0.23334,0.01 2.12444,0.0411 -0.88889,1.47889 2.80333,2.9411 2.53222,3.82778 0.17111,0.50555 1.84111,5.40444 1.36889,1.91444 0.95778,2.67222 0.0467,1.74222 -1.48888,1.13556 -0.24445,0.64778 -0.0844,0.24 0.30222,0.72777 0.56222,-0.30666 1.07,-0.59223 1.30222,-0.20222 2.29555,0.24445 1.51556,0.15889 2.39333,-1.18778 1.58555,-0.78889 2.54778,1.09667 2.8,-0.0311 1.17555,0.52333 3.33333,1.50889 1.69889,0.16 0.62777,-0.41223 0.4,-0.95111 -0.20555,-1.11111 -1.27889,-1.46555 -2.81222,-3.26444 -1.15111,-1.67778 -0.87666,-2.42888 -0.27112,-3.10667 -0.19333,-2.09444 0.34889,-2.75222 0.75555,-0.98222 0.55556,-2.18667 h 0.01 l 0.14333,-0.57222 1.56222,-2.07333 4.13778,-2.65888 4.44444,-3.98 3.51333,-2.31667 3.62222,-1.56888 0.0967,-0.44445 0.40334,0.16223 9.21332,-3.13222 0.15222,-0.0178 4.10222,-0.71445 27.68886,1.95 1.02667,-0.31 v -0.007 l 0.92222,-2.58889 0.49666,-0.48 0.33334,-0.31333 3.04444,-1.34 1.42333,-0.20333 3.95111,0.97555 1.61777,0.39889 2.59111,-1.45222 1.83778,0.0311 3.79666,-2.07333 2.34555,0.0589 0.88889,-0.35667 4.56889,-3.28333 4.4011,-1.26111 1.14445,-0.60889 0.40333,-0.22222 4.51111,-2.38222 2.86555,-2.20111 2.47333,-1.31444 2.70889,-0.69889 7.08888,-0.49889 1.42555,-2.37555 3.04889,-0.40667 1.84111,-2.07777 2.11111,-0.85667 1.50999,-2.17555 1.26556,-1.82333 1.76777,-1.02334 5.66667,-0.35555 6.71666,0.83222 0.88888,-0.53889 1.51778,-5.41666 1.58889,-1.01667 4.27888,-6.23554 0.0145,-2.27222 v -1.89778 l 0.70333,-2.70222 -0.47778,-4.87888 0.56667,-4.94 2.65999,-6.27777 2.34334,-2.53222 3.77777,-2.55555 1.92111,-0.83667 2.72111,-0.45778 v 0.001 l 0.4,-0.0678 0.69333,-0.11889 9.36999,-0.12889 c 0.13,-0.0967 3.40777,-0.0467 3.40777,-0.0467 l 3.12445,-0.0422 7.90665,1.40444 0.56223,0.0978 2.66666,0.86556 3.08222,2.39666 3.26444,3.18777 0.61222,0.59445 2.11111,0.88889 0.63889,0.27889 1.74555,-0.27889 2.48556,-1.29445 1.87555,-1.58555 2.55555,-1.39667 0.0622,-0.0889 1.43888,-2.16445 0.0433,-0.0444 0.0311,0.008 v -0.0122 h -0.0245 l 0.56778,-0.86111 4.94111,-1.92555 5.8111,-0.33333 0.65333,-0.35334 0.36334,-0.19444 1.53555,-1.80333 1.43889,-0.0111 3.48333,1.26 2.44444,-0.48667 1.94444,0.77778 1.51111,-0.17889 2.85,-0.33333 3.06,2.15222 1.78333,0.22222 6.28666,3.67777 0.32666,0.0533 0.16889,0.0311 0.36,0.06 0.74556,-0.22223 1.11111,-0.32111 0.14666,-0.0433 0.14,0.19444 0.71445,1.00778 0.98,0.14 1.16,-1.54778 -0.46111,-0.70222 -0.17445,-0.25555 -2.24555,-0.45667 -2.01667,-3.44444 1.92,-2.06778 -3.01222,-3.69555 -0.5,-0.61222 -0.17,-0.26 -1.04111,-1.58111 -5.27333,-8.03888 -6.86888,-5.48333 -2.40555,-1.92444 -0.0156,-0.0111 -0.84222,-0.66667 -3.66666,-3.7311 -2.62,-3.47778 -0.34333,-0.74889 -0.54111,-1.17999 -1.57,-3.42 -2.73555,-2.11111 -2.22889,-2.43444 -0.11111,-0.14334 -4.6,-6.2511 -0.75555,-1.04778 -1.08667,-0.62777 -2.29555,-0.0156 -0.22222,-0.22222 -0.12889,-0.13445 0.0778,-0.0822 1.10111,-1.09444 1.22777,-0.30889 0.52889,-1.21 -2.34222,-6.77777 -0.0155,-0.23667 -0.17445,-2.16666 1.90889,-9.83888 0.24444,-1.19889 3.25333,-6.61999 2.01556,-1.65111 2.2,-4.32444 1.88888,-2.76444 1.80556,-1.75778 0.31555,-0.18666 3.26,-1.97334 2.73888,-0.38555 2.60889,-0.36778 4.55555,1.40444 4.33333,-0.0844 0.84555,-0.09 1.96667,-0.22222 3.23444,-1.01889 1.52667,-0.94222 0.79222,-1.21444 1.65222,-5.54111 0.53111,-1.76333 1.01889,-1.91556 5.89555,-6.78666 4.45666,-4.12221 10.0211,-7.34777 4.90555,-2.93222 2.50444,-1.49667 22.3622,-9.93999 5.81111,-5.88888 3.02777,-3.06444 5.35666,-3.59444 6.26777,-2.56778 5.39333,-4.26888 1.17778,-1.48222 1.48444,-4.77778 1.23667,-0.29889 1.11111,-2.41555 0.31778,-0.68666 4.4011,-3.10222 0.49778,-0.24778 17.09776,-8.566662 2.48444,0.34111 1.33333,-1.99222 4.97444,-0.834443 0.91556,-0.155556 1.22222,-0.612221 1.04333,-1.777776 v -0.351111 l 0.14333,-4.747773 1.06223,-1.283332 0.57888,-3.128886 0.54556,-0.722222 0.57,-0.75111 1.40889,-0.989999 -0.24445,-0.589999 z"
     fill="#d57800"
     id="path2"
     style="stroke-width:1.11111" />
</svg>
