<?xml version="1.0" encoding="UTF-8" standalone="no"?>
<svg
   version="1.0"
   width="1000"
   height="600"
   id="svg122"
   sodipodi:docname="gb-nir.svg"
   inkscape:version="1.3.2 (091e20e, 2023-11-25, custom)"
   xmlns:inkscape="http://www.inkscape.org/namespaces/inkscape"
   xmlns:sodipodi="http://sodipodi.sourceforge.net/DTD/sodipodi-0.dtd"
   xmlns:xlink="http://www.w3.org/1999/xlink"
   xmlns="http://www.w3.org/2000/svg"
   xmlns:svg="http://www.w3.org/2000/svg">
  <defs
     id="defs122" />
  <sodipodi:namedview
     id="namedview122"
     pagecolor="#505050"
     bordercolor="#eeeeee"
     borderopacity="1"
     inkscape:showpageshadow="0"
     inkscape:pageopacity="0"
     inkscape:pagecheckerboard="0"
     inkscape:deskcolor="#505050"
     inkscape:zoom="0.83583333"
     inkscape:cx="715.45364"
     inkscape:cy="524.62612"
     inkscape:window-width="2560"
     inkscape:window-height="1417"
     inkscape:window-x="3832"
     inkscape:window-y="313"
     inkscape:window-maximized="1"
     inkscape:current-layer="svg122" />
  <rect
     style="opacity:1;fill:#ffffff;fill-opacity:1;fill-rule:evenodd;stroke:none;stroke-width:1.18673;stroke-linecap:butt;stroke-linejoin:miter;stroke-miterlimit:4;stroke-dasharray:none;stroke-opacity:1"
     width="1000"
     height="600"
     rx="0"
     ry="0"
     id="rect1"
     x="0"
     y="0" />
  <rect
     id="a"
     style="fill:#cc0000;fill-opacity:1;fill-rule:evenodd;stroke-width:2;stroke-opacity:1"
     y="240"
     x="-100"
     ry="0"
     rx="0"
     height="120"
     width="1200" />
  <use
     xlink:href="#a"
     height="300"
     width="600"
     transform="matrix(0,0.5,-1,0,800,50)"
     id="use1" />
  <path
     style="fill:#ebeae3;fill-opacity:1;fill-rule:evenodd;stroke:#000000;stroke-width:0.651943px;stroke-linecap:butt;stroke-linejoin:miter;stroke-opacity:1"
     d="m 544.006,183.262 c 3.852,-6.024 1.548,-9.916 -4.276,-11.118 0,0 -18.584,5.958 -38.654,6.61 -20.07,0.654 -43.914,-5.046 -43.914,-5.046 -4.278,2.682 -3.234,9.05 -1.112,13.026 0,0 21.01,6.98 44.928,6.294 15.192,-0.434 29.588,-4.31 37.664,-6.88 4.64,-1.476 5.366,-2.818 5.364,-2.886 z"
     id="path1" />
  <path
     style="fill:#ffffff;fill-opacity:1;stroke:#161111;stroke-width:2.00001;stroke-miterlimit:4;stroke-dasharray:none;stroke-opacity:1"
     d="m 499.99683,446.93972 -38.57285,-80.13236 -88.68126,6.66258 50.11188,-73.4715 -50.11188,-73.46978 88.68299,6.66258 38.57284,-80.13409 38.57112,80.13409 88.68299,-6.66258 -50.11188,73.46978 50.11188,73.4715 -88.68472,-6.66258 -38.57111,80.13408 z"
     id="path2" />
  <g
     style="fill:#cc0000;fill-opacity:1;stroke:#161111;stroke-width:0.0753898;stroke-miterlimit:4;stroke-dasharray:none;stroke-opacity:1"
     id="g4"
     transform="matrix(2,0,0,2,-100,0)">
    <path
       d="m 15.776,11.622 c 0.115,-0.118 0.3,-0.248 0.403,-0.53 0.096,-0.265 0.143,-0.75 0.23,-0.996 0.115,-0.422 0.346,-0.833 0.071,-0.805 -0.262,0.027 -0.347,0.289 -0.446,0.48 a 1.36,1.36 0 0 0 -0.11,0.33 C 15.911,10.154 15.91,10.214 15.86,10.24 15.932,9.6 15.76,9.121 15.701,8.171 15.677,7.773 15.614,7.373 15.414,7.37 c -0.15,-0.002 -0.175,0.204 -0.199,0.358 0,-0.218 0.008,-0.677 -0.243,-0.677 -0.305,0 -0.213,0.641 -0.254,0.966 C 14.711,7.902 14.708,7.655 14.675,7.495 A 0.247,0.247 0 0 0 14.608,7.361 C 14.59,7.344 14.563,7.335 14.524,7.335 c -0.275,0 -0.269,0.4 -0.26,0.798 0.004,0.042 0,0.233 0.004,0.358 0,-0.217 0.002,-0.642 -0.217,-0.623 -0.182,0.015 -0.196,0.493 -0.204,0.747 0.012,0.254 -0.073,0.846 -0.103,1.014 -0.008,0.12 -0.053,0.274 -0.072,0.44 -0.042,0.358 -0.002,0.777 0.043,0.992 0.091,0.338 0.328,0.49 0.316,0.72 -0.012,0.23 0,0.634 0,0.816 0,0.18 0.152,0.19 0.467,0.12 0.514,-0.114 0.795,0.115 1.22,-0.054 -0.054,-0.502 0.07,-0.86 0.058,-1.041 z"
       style="fill:#cc0000;fill-opacity:1;stroke:#161111;stroke-width:0.0753898;stroke-miterlimit:4;stroke-dasharray:none;stroke-opacity:1"
       transform="matrix(13.50416,0,0,13.02889,98.957,17.585)"
       id="path3" />
    <path
       d="m 149.023,76.45 c 0.768,-2.175 1.738,-3.029 2.674,-3.503 m -1.279,11.002 c 0.067,-0.445 0.339,-0.798 0.717,-1.18 M 140.21,59.897 c 0.054,1.923 0.167,5.623 0.167,6.507 m 6.702,-11.765 c -0.107,1.023 0.014,1.85 -0.009,2.895 -0.015,0.696 0.096,1.975 0.183,3.525 -0.022,0.56 0.171,3.355 -0.005,4.39 m -3.785,-8.893 c 0.036,0.38 0.025,0.839 0.043,1.35 0.085,2.463 0.03,6.135 0.102,7.922"
       style="fill:#cc0000;fill-opacity:1;stroke:#161111;stroke-width:0.541356;stroke-miterlimit:4;stroke-dasharray:none;stroke-opacity:1"
       transform="matrix(1.8708,0,0,1.82393,29.323,17.963)"
       id="path4" />
  </g>
  <path
     d="m 499.424,152.784 c 48.454,7.988 46.724,10.25 46.724,10.25 l 12.646,-37.804 c 0,0 1.33,-7.456 -2.13,-11.98 -3.46,-4.528 -13.18,-1.998 -13.18,-1.998 0,0 -1.33,-6.124 -5.59,-7.588 -4.26,-1.464 -20.1,5.724 -25.026,7.32 -4.924,1.6 -7.454,3.196 -14.376,3.064 -6.922,-0.134 -19.3,-6.256 -21.564,-7.454 -2.264,-1.2 -5.592,-2.398 -8.654,-2.264 -3.06,0.134 -6.256,0.932 -7.854,3.06 -1.596,2.132 -1.596,4.794 -1.596,4.794 0,0 -2.53,-1.598 -6.524,-1.598 -3.992,0 -6.256,0.532 -8.12,2.662 -1.864,2.13 -4.26,8.12 -4.26,8.12 l 4.526,10.25 0.268,14.112 9.45,14.908 z"
     style="fill:#b02320;fill-opacity:1;fill-rule:evenodd;stroke:#000000;stroke-width:1.62986;stroke-linecap:butt;stroke-linejoin:miter;stroke-miterlimit:4;stroke-dasharray:none;stroke-opacity:1"
     id="path5" />
  <path
     d="m 544.592,174.144 c 0,0 2.44,2.908 2.346,3.94 -0.094,1.032 -1.126,1.972 -1.126,1.972 0,0 0.752,0.75 0.564,1.876 -0.188,1.126 -1.69,1.22 -1.69,1.22 0,0 0.28,1.032 -0.656,1.5 -0.94,0.47 -4.786,1.314 -4.786,1.314 0,0 -18.768,-5.348 -38.848,-5.348 -20.08,0 -43.728,6.474 -43.728,6.474 0,0 -2.44,-0.844 -2.534,-2.44 -0.094,-1.594 0.282,-2.72 0.282,-2.72 0,0 -1.336,0.14 -1.69,-1.032 -0.494,-1.64 0.188,-2.91 0.188,-2.91 0,0 -0.93,0.3 0.094,-1.876 0.752,-1.596 1.878,-2.16 1.878,-2.16 0,0 21.02,-7.506 44.946,-7.6 23.928,-0.092 44.76,7.6 44.76,7.79 z"
     style="fill:#ebeae3;fill-opacity:1;fill-rule:evenodd;stroke:#000000;stroke-width:0.651943px;stroke-linecap:butt;stroke-linejoin:miter;stroke-opacity:1"
     id="path6" />
  <path
     d="m 445.286,126.87 c 0,0 -0.8,-2.726 0.96,-5.13 1.764,-2.402 4.97,-2.242 5.93,-1.76 0.962,0.48 0.802,1.6 2.084,1.92 1.282,0.32 2.244,-0.64 2.244,-0.64"
     style="fill:none;fill-rule:evenodd;stroke:#000000;stroke-width:1.43427;stroke-linecap:butt;stroke-linejoin:miter;stroke-miterlimit:4;stroke-dasharray:none;stroke-opacity:1"
     id="path7" />
  <path
     d="m 562.28,133.248 -7.278,15.058 -2.86,0.5 c 0,0 -1.746,-1.048 -6.726,-0.7 -3.564,0.25 -4.618,1.152 -4.618,1.152 l 6.476,-15.006 c 0,0 0.504,3.224 1.254,5.12 0.954,2.408 4.568,4.666 4.568,4.666 0,0 0.5,-2.88 -0.452,-6.374 -1.054,-3.864 -3.514,-9.084 -3.514,-9.084 z"
     style="fill:#ffcc00;fill-opacity:0.941176;fill-rule:evenodd;stroke:#000000;stroke-width:1.49947;stroke-linecap:butt;stroke-linejoin:miter;stroke-miterlimit:4;stroke-dasharray:none;stroke-opacity:1"
     id="path8" />
  <path
     style="fill:#121116;fill-opacity:1;stroke:#121116;stroke-width:1.46231;stroke-linejoin:round;stroke-miterlimit:4;stroke-dasharray:none;stroke-opacity:1"
     d="m 495.616,86.45 h 8.146 v 34.618 h -8.146 z"
     id="path9" />
  <path
     d="m 445.7,150.294 5.23,11.194 c 0,0 22.264,-8.68 48.542,-8.518 39.42,0.244 50.612,8.152 50.612,8.152 l 5.84,-13.87 -4.38,2.556 -4.502,2.798 -5.11,1.946 -6.204,-0.486 -5.476,-4.014 -2.798,-5.84 -4.622,4.258 -8.152,1.824 -8.03,-2.068 -7.056,-8.88 c 0,0 -5.256,9.872 -11.922,10.46 -9.612,0.854 -15.208,-4.62 -15.208,-4.62 0,0 -3.572,8.028 -9.49,9.488 -9.366,2.312 -17.154,-4.38 -17.274,-4.38 z"
     style="fill:#f6ca1f;fill-opacity:1;fill-rule:evenodd;stroke:#000000;stroke-width:1.23869;stroke-linecap:butt;stroke-linejoin:miter;stroke-miterlimit:4;stroke-dasharray:none;stroke-opacity:1"
     id="path10" />
  <g
     style="stroke-width:2.243;stroke-miterlimit:4;stroke-dasharray:none"
     id="g63"
     transform="matrix(2,0,0,2,-100,0)">
    <g
       style="stroke-width:2.243;stroke-miterlimit:4;stroke-dasharray:none"
       id="g12">
      <path
         d="m 430.628,247.41 c 0,3.607 -2.88,6.533 -6.44,6.54 -3.558,0.008 -6.45,-2.907 -6.465,-6.515 -0.014,-3.607 2.856,-6.545 6.415,-6.566 3.558,-0.021 6.462,2.882 6.49,6.49"
         style="opacity:1;fill:#eeeeee;fill-opacity:1;stroke:#1e1e1e;stroke-width:2.243;stroke-linejoin:round;stroke-miterlimit:4;stroke-dasharray:none;stroke-opacity:1"
         transform="matrix(0.32597,0,0,0.32597,177.407,-39.62)"
         id="path11" />
      <path
         d="m 421.17,250.768 c 0,0 5.215,-0.088 5.746,-2.21 0.53,-2.12 -0.354,-4.86 -0.354,-4.86 0,0 2.475,2.74 1.768,4.86 -0.707,2.122 -1.4,2.67 -3.182,3.094 -1.207,0.287 -3.005,-0.177 -3.978,-0.884 z"
         style="fill:#a3afb8;fill-opacity:1;fill-rule:evenodd;stroke:none;stroke-width:2.243;stroke-linecap:butt;stroke-linejoin:miter;stroke-miterlimit:4;stroke-dasharray:none;stroke-opacity:1"
         transform="matrix(0.32597,0,0,0.32597,177.407,-39.62)"
         id="path12" />
    </g>
    <g
       style="stroke-width:2.243;stroke-miterlimit:4;stroke-dasharray:none"
       id="g14">
      <path
         d="m 430.628,247.41 c 0,3.607 -2.88,6.533 -6.44,6.54 -3.558,0.008 -6.45,-2.907 -6.465,-6.515 -0.014,-3.607 2.856,-6.545 6.415,-6.566 3.558,-0.021 6.462,2.882 6.49,6.49"
         style="opacity:1;fill:#eeeeee;fill-opacity:1;stroke:#1e1e1e;stroke-width:2.243;stroke-linejoin:round;stroke-miterlimit:4;stroke-dasharray:none;stroke-opacity:1"
         transform="matrix(0.32597,0,0,0.32597,172.297,-37.23)"
         id="path13" />
      <path
         d="m 421.17,250.768 c 0,0 5.215,-0.088 5.746,-2.21 0.53,-2.12 -0.354,-4.86 -0.354,-4.86 0,0 2.475,2.74 1.768,4.86 -0.707,2.122 -1.4,2.67 -3.182,3.094 -1.207,0.287 -3.005,-0.177 -3.978,-0.884 z"
         style="fill:#a3afb8;fill-opacity:1;fill-rule:evenodd;stroke:none;stroke-width:2.243;stroke-linecap:butt;stroke-linejoin:miter;stroke-miterlimit:4;stroke-dasharray:none;stroke-opacity:1"
         transform="matrix(0.32597,0,0,0.32597,172.297,-37.23)"
         id="path14" />
    </g>
    <g
       style="stroke-width:2.243;stroke-miterlimit:4;stroke-dasharray:none"
       id="g16">
      <path
         d="m 430.628,247.41 c 0,3.607 -2.88,6.533 -6.44,6.54 -3.558,0.008 -6.45,-2.907 -6.465,-6.515 -0.014,-3.607 2.856,-6.545 6.415,-6.566 3.558,-0.021 6.462,2.882 6.49,6.49"
         style="opacity:1;fill:#eeeeee;fill-opacity:1;stroke:#1e1e1e;stroke-width:2.243;stroke-linejoin:round;stroke-miterlimit:4;stroke-dasharray:none;stroke-opacity:1"
         transform="matrix(0.32597,0,0,0.32597,183.34,-41.02)"
         id="path15" />
      <path
         d="m 421.17,250.768 c 0,0 5.215,-0.088 5.746,-2.21 0.53,-2.12 -0.354,-4.86 -0.354,-4.86 0,0 2.475,2.74 1.768,4.86 -0.707,2.122 -1.4,2.67 -3.182,3.094 -1.207,0.287 -3.005,-0.177 -3.978,-0.884 z"
         style="fill:#a3afb8;fill-opacity:1;fill-rule:evenodd;stroke:none;stroke-width:2.243;stroke-linecap:butt;stroke-linejoin:miter;stroke-miterlimit:4;stroke-dasharray:none;stroke-opacity:1"
         transform="matrix(0.32597,0,0,0.32597,183.34,-41.02)"
         id="path16" />
    </g>
    <g
       style="stroke-width:2.243;stroke-miterlimit:4;stroke-dasharray:none"
       id="g18">
      <path
         d="m 430.628,247.41 c 0,3.607 -2.88,6.533 -6.44,6.54 -3.558,0.008 -6.45,-2.907 -6.465,-6.515 -0.014,-3.607 2.856,-6.545 6.415,-6.566 3.558,-0.021 6.462,2.882 6.49,6.49"
         style="opacity:1;fill:#eeeeee;fill-opacity:1;stroke:#1e1e1e;stroke-width:2.243;stroke-linejoin:round;stroke-miterlimit:4;stroke-dasharray:none;stroke-opacity:1"
         transform="matrix(0.32597,0,0,0.32597,190.022,-39.675)"
         id="path17" />
      <path
         d="m 421.17,250.768 c 0,0 5.215,-0.088 5.746,-2.21 0.53,-2.12 -0.354,-4.86 -0.354,-4.86 0,0 2.475,2.74 1.768,4.86 -0.707,2.122 -1.4,2.67 -3.182,3.094 -1.207,0.287 -3.005,-0.177 -3.978,-0.884 z"
         style="fill:#a3afb8;fill-opacity:1;fill-rule:evenodd;stroke:none;stroke-width:2.243;stroke-linecap:butt;stroke-linejoin:miter;stroke-miterlimit:4;stroke-dasharray:none;stroke-opacity:1"
         transform="matrix(0.32597,0,0,0.32597,190.022,-39.675)"
         id="path18" />
    </g>
    <g
       style="stroke-width:2.243;stroke-miterlimit:4;stroke-dasharray:none"
       id="g20">
      <path
         d="m 430.628,247.41 c 0,3.607 -2.88,6.533 -6.44,6.54 -3.558,0.008 -6.45,-2.907 -6.465,-6.515 -0.014,-3.607 2.856,-6.545 6.415,-6.566 3.558,-0.021 6.462,2.882 6.49,6.49"
         style="opacity:1;fill:#eeeeee;fill-opacity:1;stroke:#1e1e1e;stroke-width:2.243;stroke-linejoin:round;stroke-miterlimit:4;stroke-dasharray:none;stroke-opacity:1"
         transform="matrix(0.32597,0,0,0.32597,195.115,-35.479)"
         id="path19" />
      <path
         d="m 421.17,250.768 c 0,0 5.215,-0.088 5.746,-2.21 0.53,-2.12 -0.354,-4.86 -0.354,-4.86 0,0 2.475,2.74 1.768,4.86 -0.707,2.122 -1.4,2.67 -3.182,3.094 -1.207,0.287 -3.005,-0.177 -3.978,-0.884 z"
         style="fill:#a3afb8;fill-opacity:1;fill-rule:evenodd;stroke:none;stroke-width:2.243;stroke-linecap:butt;stroke-linejoin:miter;stroke-miterlimit:4;stroke-dasharray:none;stroke-opacity:1"
         transform="matrix(0.32597,0,0,0.32597,195.115,-35.479)"
         id="path20" />
    </g>
    <g
       style="stroke-width:2.243;stroke-miterlimit:4;stroke-dasharray:none"
       id="g22">
      <path
         d="m 430.628,247.41 c 0,3.607 -2.88,6.533 -6.44,6.54 -3.558,0.008 -6.45,-2.907 -6.465,-6.515 -0.014,-3.607 2.856,-6.545 6.415,-6.566 3.558,-0.021 6.462,2.882 6.49,6.49"
         style="opacity:1;fill:#eeeeee;fill-opacity:1;stroke:#1e1e1e;stroke-width:2.243;stroke-linejoin:round;stroke-miterlimit:4;stroke-dasharray:none;stroke-opacity:1"
         transform="matrix(0.32597,0,0,0.32597,197.316,-28.592)"
         id="path21" />
      <path
         d="m 421.17,250.768 c 0,0 5.215,-0.088 5.746,-2.21 0.53,-2.12 -0.354,-4.86 -0.354,-4.86 0,0 2.475,2.74 1.768,4.86 -0.707,2.122 -1.4,2.67 -3.182,3.094 -1.207,0.287 -3.005,-0.177 -3.978,-0.884 z"
         style="fill:#a3afb8;fill-opacity:1;fill-rule:evenodd;stroke:none;stroke-width:2.243;stroke-linecap:butt;stroke-linejoin:miter;stroke-miterlimit:4;stroke-dasharray:none;stroke-opacity:1"
         transform="matrix(0.32597,0,0,0.32597,197.316,-28.592)"
         id="path22" />
    </g>
    <g
       style="stroke-width:2.243;stroke-miterlimit:4;stroke-dasharray:none"
       id="g24">
      <path
         d="m 430.628,247.41 c 0,3.607 -2.88,6.533 -6.44,6.54 -3.558,0.008 -6.45,-2.907 -6.465,-6.515 -0.014,-3.607 2.856,-6.545 6.415,-6.566 3.558,-0.021 6.462,2.882 6.49,6.49"
         style="opacity:1;fill:#eeeeee;fill-opacity:1;stroke:#1e1e1e;stroke-width:2.243;stroke-linejoin:round;stroke-miterlimit:4;stroke-dasharray:none;stroke-opacity:1"
         transform="matrix(0.32597,0,0,0.32597,196.5,-21.625)"
         id="path23" />
      <path
         d="m 421.17,250.768 c 0,0 5.215,-0.088 5.746,-2.21 0.53,-2.12 -0.354,-4.86 -0.354,-4.86 0,0 2.475,2.74 1.768,4.86 -0.707,2.122 -1.4,2.67 -3.182,3.094 -1.207,0.287 -3.005,-0.177 -3.978,-0.884 z"
         style="fill:#a3afb8;fill-opacity:1;fill-rule:evenodd;stroke:none;stroke-width:2.243;stroke-linecap:butt;stroke-linejoin:miter;stroke-miterlimit:4;stroke-dasharray:none;stroke-opacity:1"
         transform="matrix(0.32597,0,0,0.32597,196.5,-21.625)"
         id="path24" />
    </g>
    <g
       style="stroke-width:2.243;stroke-miterlimit:4;stroke-dasharray:none"
       id="g26">
      <path
         d="m 430.628,247.41 c 0,3.607 -2.88,6.533 -6.44,6.54 -3.558,0.008 -6.45,-2.907 -6.465,-6.515 -0.014,-3.607 2.856,-6.545 6.415,-6.566 3.558,-0.021 6.462,2.882 6.49,6.49"
         style="opacity:1;fill:#eeeeee;fill-opacity:1;stroke:#1e1e1e;stroke-width:2.243;stroke-linejoin:round;stroke-miterlimit:4;stroke-dasharray:none;stroke-opacity:1"
         transform="matrix(0.32597,0,0,0.32597,193.404,-15.513)"
         id="path25" />
      <path
         d="m 421.17,250.768 c 0,0 5.215,-0.088 5.746,-2.21 0.53,-2.12 -0.354,-4.86 -0.354,-4.86 0,0 2.475,2.74 1.768,4.86 -0.707,2.122 -1.4,2.67 -3.182,3.094 -1.207,0.287 -3.005,-0.177 -3.978,-0.884 z"
         style="fill:#a3afb8;fill-opacity:1;fill-rule:evenodd;stroke:none;stroke-width:2.243;stroke-linecap:butt;stroke-linejoin:miter;stroke-miterlimit:4;stroke-dasharray:none;stroke-opacity:1"
         transform="matrix(0.32597,0,0,0.32597,193.404,-15.513)"
         id="path26" />
    </g>
    <g
       style="stroke-width:2.243;stroke-miterlimit:4;stroke-dasharray:none"
       id="g28">
      <path
         d="m 430.628,247.41 c 0,3.607 -2.88,6.533 -6.44,6.54 -3.558,0.008 -6.45,-2.907 -6.465,-6.515 -0.014,-3.607 2.856,-6.545 6.415,-6.566 3.558,-0.021 6.462,2.882 6.49,6.49"
         style="opacity:1;fill:#eeeeee;fill-opacity:1;stroke:#1e1e1e;stroke-width:2.243;stroke-linejoin:round;stroke-miterlimit:4;stroke-dasharray:none;stroke-opacity:1"
         transform="matrix(0.32597,0,0,0.32597,167.326,-35.397)"
         id="path27" />
      <path
         d="m 421.17,250.768 c 0,0 5.215,-0.088 5.746,-2.21 0.53,-2.12 -0.354,-4.86 -0.354,-4.86 0,0 2.475,2.74 1.768,4.86 -0.707,2.122 -1.4,2.67 -3.182,3.094 -1.207,0.287 -3.005,-0.177 -3.978,-0.884 z"
         style="fill:#a3afb8;fill-opacity:1;fill-rule:evenodd;stroke:none;stroke-width:2.243;stroke-linecap:butt;stroke-linejoin:miter;stroke-miterlimit:4;stroke-dasharray:none;stroke-opacity:1"
         transform="matrix(0.32597,0,0,0.32597,167.326,-35.397)"
         id="path28" />
    </g>
    <g
       style="stroke-width:2.68218;stroke-miterlimit:4;stroke-dasharray:none"
       id="g30">
      <path
         d="m 430.628,247.41 c 0,3.607 -2.88,6.533 -6.44,6.54 -3.558,0.008 -6.45,-2.907 -6.465,-6.515 -0.014,-3.607 2.856,-6.545 6.415,-6.566 3.558,-0.021 6.462,2.882 6.49,6.49"
         style="opacity:1;fill:#eeeeee;fill-opacity:1;stroke:#1e1e1e;stroke-width:2.68218;stroke-linejoin:round;stroke-miterlimit:4;stroke-dasharray:none;stroke-opacity:1"
         transform="matrix(0.2726,0,0,0.2726,183.956,-22.737)"
         id="path29" />
      <path
         d="m 421.17,250.768 c 0,0 5.215,-0.088 5.746,-2.21 0.53,-2.12 -0.354,-4.86 -0.354,-4.86 0,0 2.475,2.74 1.768,4.86 -0.707,2.122 -1.4,2.67 -3.182,3.094 -1.207,0.287 -3.005,-0.177 -3.978,-0.884 z"
         style="fill:#a3afb8;fill-opacity:1;fill-rule:evenodd;stroke:none;stroke-width:2.68218;stroke-linecap:butt;stroke-linejoin:miter;stroke-miterlimit:4;stroke-dasharray:none;stroke-opacity:1"
         transform="matrix(0.2726,0,0,0.2726,183.956,-22.737)"
         id="path30" />
    </g>
    <g
       style="stroke-width:2.68218;stroke-miterlimit:4;stroke-dasharray:none"
       id="g32">
      <path
         d="m 430.628,247.41 c 0,3.607 -2.88,6.533 -6.44,6.54 -3.558,0.008 -6.45,-2.907 -6.465,-6.515 -0.014,-3.607 2.856,-6.545 6.415,-6.566 3.558,-0.021 6.462,2.882 6.49,6.49"
         style="opacity:1;fill:#eeeeee;fill-opacity:1;stroke:#1e1e1e;stroke-width:2.68218;stroke-linejoin:round;stroke-miterlimit:4;stroke-dasharray:none;stroke-opacity:1"
         transform="matrix(0.2726,0,0,0.2726,183.977,-20.521)"
         id="path31" />
      <path
         d="m 421.17,250.768 c 0,0 5.215,-0.088 5.746,-2.21 0.53,-2.12 -0.354,-4.86 -0.354,-4.86 0,0 2.475,2.74 1.768,4.86 -0.707,2.122 -1.4,2.67 -3.182,3.094 -1.207,0.287 -3.005,-0.177 -3.978,-0.884 z"
         style="fill:#a3afb8;fill-opacity:1;fill-rule:evenodd;stroke:none;stroke-width:2.68218;stroke-linecap:butt;stroke-linejoin:miter;stroke-miterlimit:4;stroke-dasharray:none;stroke-opacity:1"
         transform="matrix(0.2726,0,0,0.2726,183.977,-20.521)"
         id="path32" />
    </g>
    <g
       style="stroke-width:2.68218;stroke-miterlimit:4;stroke-dasharray:none"
       id="g34">
      <path
         d="m 430.628,247.41 c 0,3.607 -2.88,6.533 -6.44,6.54 -3.558,0.008 -6.45,-2.907 -6.465,-6.515 -0.014,-3.607 2.856,-6.545 6.415,-6.566 3.558,-0.021 6.462,2.882 6.49,6.49"
         style="opacity:1;fill:#eeeeee;fill-opacity:1;stroke:#1e1e1e;stroke-width:2.68218;stroke-linejoin:round;stroke-miterlimit:4;stroke-dasharray:none;stroke-opacity:1"
         transform="matrix(0.2726,0,0,0.2726,184.099,-17.261)"
         id="path33" />
      <path
         d="m 421.17,250.768 c 0,0 5.215,-0.088 5.746,-2.21 0.53,-2.12 -0.354,-4.86 -0.354,-4.86 0,0 2.475,2.74 1.768,4.86 -0.707,2.122 -1.4,2.67 -3.182,3.094 -1.207,0.287 -3.005,-0.177 -3.978,-0.884 z"
         style="fill:#a3afb8;fill-opacity:1;fill-rule:evenodd;stroke:none;stroke-width:2.68218;stroke-linecap:butt;stroke-linejoin:miter;stroke-miterlimit:4;stroke-dasharray:none;stroke-opacity:1"
         transform="matrix(0.2726,0,0,0.2726,184.099,-17.261)"
         id="path34" />
    </g>
    <g
       style="stroke-width:2.48017;stroke-miterlimit:4;stroke-dasharray:none"
       id="g36">
      <path
         d="m 430.628,247.41 c 0,3.607 -2.88,6.533 -6.44,6.54 -3.558,0.008 -6.45,-2.907 -6.465,-6.515 -0.014,-3.607 2.856,-6.545 6.415,-6.566 3.558,-0.021 6.462,2.882 6.49,6.49"
         style="opacity:1;fill:#eeeeee;fill-opacity:1;stroke:#1e1e1e;stroke-width:2.48017;stroke-linejoin:round;stroke-miterlimit:4;stroke-dasharray:none;stroke-opacity:1"
         transform="matrix(0.2948,0,0,0.2948,174.72,-19.291)"
         id="path35" />
      <path
         d="m 421.17,250.768 c 0,0 5.215,-0.088 5.746,-2.21 0.53,-2.12 -0.354,-4.86 -0.354,-4.86 0,0 2.475,2.74 1.768,4.86 -0.707,2.122 -1.4,2.67 -3.182,3.094 -1.207,0.287 -3.005,-0.177 -3.978,-0.884 z"
         style="fill:#a3afb8;fill-opacity:1;fill-rule:evenodd;stroke:none;stroke-width:2.48017;stroke-linecap:butt;stroke-linejoin:miter;stroke-miterlimit:4;stroke-dasharray:none;stroke-opacity:1"
         transform="matrix(0.2948,0,0,0.2948,174.72,-19.291)"
         id="path36" />
    </g>
    <g
       style="stroke-width:2.243;stroke-miterlimit:4;stroke-dasharray:none"
       id="g38">
      <path
         d="m 430.628,247.41 c 0,3.607 -2.88,6.533 -6.44,6.54 -3.558,0.008 -6.45,-2.907 -6.465,-6.515 -0.014,-3.607 2.856,-6.545 6.415,-6.566 3.558,-0.021 6.462,2.882 6.49,6.49"
         style="opacity:1;fill:#eeeeee;fill-opacity:1;stroke:#1e1e1e;stroke-width:2.243;stroke-linejoin:round;stroke-miterlimit:4;stroke-dasharray:none;stroke-opacity:1"
         transform="matrix(0.32597,0,0,0.32597,161.5,-22.358)"
         id="path37" />
      <path
         d="m 421.17,250.768 c 0,0 5.215,-0.088 5.746,-2.21 0.53,-2.12 -0.354,-4.86 -0.354,-4.86 0,0 2.475,2.74 1.768,4.86 -0.707,2.122 -1.4,2.67 -3.182,3.094 -1.207,0.287 -3.005,-0.177 -3.978,-0.884 z"
         style="fill:#a3afb8;fill-opacity:1;fill-rule:evenodd;stroke:none;stroke-width:2.243;stroke-linecap:butt;stroke-linejoin:miter;stroke-miterlimit:4;stroke-dasharray:none;stroke-opacity:1"
         transform="matrix(0.32597,0,0,0.32597,161.5,-22.358)"
         id="path38" />
    </g>
    <g
       style="stroke-width:2.38831;stroke-miterlimit:4;stroke-dasharray:none"
       id="g40">
      <path
         d="m 430.628,247.41 c 0,3.607 -2.88,6.533 -6.44,6.54 -3.558,0.008 -6.45,-2.907 -6.465,-6.515 -0.014,-3.607 2.856,-6.545 6.415,-6.566 3.558,-0.021 6.462,2.882 6.49,6.49"
         style="opacity:1;fill:#eeeeee;fill-opacity:1;stroke:#1e1e1e;stroke-width:2.38831;stroke-linejoin:round;stroke-miterlimit:4;stroke-dasharray:none;stroke-opacity:1"
         transform="matrix(0.30614,0,0,0.30614,169.83,-7.918)"
         id="path39" />
      <path
         d="m 421.17,250.768 c 0,0 5.215,-0.088 5.746,-2.21 0.53,-2.12 -0.354,-4.86 -0.354,-4.86 0,0 2.475,2.74 1.768,4.86 -0.707,2.122 -1.4,2.67 -3.182,3.094 -1.207,0.287 -3.005,-0.177 -3.978,-0.884 z"
         style="fill:#a3afb8;fill-opacity:1;fill-rule:evenodd;stroke:none;stroke-width:2.38831;stroke-linecap:butt;stroke-linejoin:miter;stroke-miterlimit:4;stroke-dasharray:none;stroke-opacity:1"
         transform="matrix(0.30614,0,0,0.30614,169.83,-7.918)"
         id="path40" />
    </g>
    <g
       style="stroke-width:2.243;stroke-miterlimit:4;stroke-dasharray:none"
       id="g42">
      <path
         d="m 430.628,247.41 c 0,3.607 -2.88,6.533 -6.44,6.54 -3.558,0.008 -6.45,-2.907 -6.465,-6.515 -0.014,-3.607 2.856,-6.545 6.415,-6.566 3.558,-0.021 6.462,2.882 6.49,6.49"
         style="opacity:1;fill:#eeeeee;fill-opacity:1;stroke:#1e1e1e;stroke-width:2.243;stroke-linejoin:round;stroke-miterlimit:4;stroke-dasharray:none;stroke-opacity:1"
         transform="matrix(0.32597,0,0,0.32597,155.598,-35.454)"
         id="path41" />
      <path
         d="m 421.17,250.768 c 0,0 5.215,-0.088 5.746,-2.21 0.53,-2.12 -0.354,-4.86 -0.354,-4.86 0,0 2.475,2.74 1.768,4.86 -0.707,2.122 -1.4,2.67 -3.182,3.094 -1.207,0.287 -3.005,-0.177 -3.978,-0.884 z"
         style="fill:#a3afb8;fill-opacity:1;fill-rule:evenodd;stroke:none;stroke-width:2.243;stroke-linecap:butt;stroke-linejoin:miter;stroke-miterlimit:4;stroke-dasharray:none;stroke-opacity:1"
         transform="matrix(0.32597,0,0,0.32597,155.598,-35.454)"
         id="path42" />
    </g>
    <g
       style="stroke-width:2.243;stroke-miterlimit:4;stroke-dasharray:none"
       id="g44">
      <path
         d="m 430.628,247.41 c 0,3.607 -2.88,6.533 -6.44,6.54 -3.558,0.008 -6.45,-2.907 -6.465,-6.515 -0.014,-3.607 2.856,-6.545 6.415,-6.566 3.558,-0.021 6.462,2.882 6.49,6.49"
         style="opacity:1;fill:#eeeeee;fill-opacity:1;stroke:#1e1e1e;stroke-width:2.243;stroke-linejoin:round;stroke-miterlimit:4;stroke-dasharray:none;stroke-opacity:1"
         transform="matrix(0.32597,0,0,0.32597,150.383,-37.51)"
         id="path43" />
      <path
         d="m 421.17,250.768 c 0,0 5.215,-0.088 5.746,-2.21 0.53,-2.12 -0.354,-4.86 -0.354,-4.86 0,0 2.475,2.74 1.768,4.86 -0.707,2.122 -1.4,2.67 -3.182,3.094 -1.207,0.287 -3.005,-0.177 -3.978,-0.884 z"
         style="fill:#a3afb8;fill-opacity:1;fill-rule:evenodd;stroke:none;stroke-width:2.243;stroke-linecap:butt;stroke-linejoin:miter;stroke-miterlimit:4;stroke-dasharray:none;stroke-opacity:1"
         transform="matrix(0.32597,0,0,0.32597,150.383,-37.51)"
         id="path44" />
    </g>
    <g
       style="stroke-width:2.243;stroke-miterlimit:4;stroke-dasharray:none"
       id="g46">
      <path
         d="m 430.628,247.41 c 0,3.607 -2.88,6.533 -6.44,6.54 -3.558,0.008 -6.45,-2.907 -6.465,-6.515 -0.014,-3.607 2.856,-6.545 6.415,-6.566 3.558,-0.021 6.462,2.882 6.49,6.49"
         style="opacity:1;fill:#eeeeee;fill-opacity:1;stroke:#1e1e1e;stroke-width:2.243;stroke-linejoin:round;stroke-miterlimit:4;stroke-dasharray:none;stroke-opacity:1"
         transform="matrix(0.32597,0,0,0.32597,145.389,-39.86)"
         id="path45" />
      <path
         d="m 421.17,250.768 c 0,0 5.215,-0.088 5.746,-2.21 0.53,-2.12 -0.354,-4.86 -0.354,-4.86 0,0 2.475,2.74 1.768,4.86 -0.707,2.122 -1.4,2.67 -3.182,3.094 -1.207,0.287 -3.005,-0.177 -3.978,-0.884 z"
         style="fill:#a3afb8;fill-opacity:1;fill-rule:evenodd;stroke:none;stroke-width:2.243;stroke-linecap:butt;stroke-linejoin:miter;stroke-miterlimit:4;stroke-dasharray:none;stroke-opacity:1"
         transform="matrix(0.32597,0,0,0.32597,145.389,-39.86)"
         id="path46" />
    </g>
    <g
       style="stroke-width:2.243;stroke-miterlimit:4;stroke-dasharray:none"
       id="g48">
      <path
         d="m 430.628,247.41 c 0,3.607 -2.88,6.533 -6.44,6.54 -3.558,0.008 -6.45,-2.907 -6.465,-6.515 -0.014,-3.607 2.856,-6.545 6.415,-6.566 3.558,-0.021 6.462,2.882 6.49,6.49"
         style="opacity:1;fill:#eeeeee;fill-opacity:1;stroke:#1e1e1e;stroke-width:2.243;stroke-linejoin:round;stroke-miterlimit:4;stroke-dasharray:none;stroke-opacity:1"
         transform="matrix(0.32597,0,0,0.32597,139.66,-41.109)"
         id="path47" />
      <path
         d="m 421.17,250.768 c 0,0 5.215,-0.088 5.746,-2.21 0.53,-2.12 -0.354,-4.86 -0.354,-4.86 0,0 2.475,2.74 1.768,4.86 -0.707,2.122 -1.4,2.67 -3.182,3.094 -1.207,0.287 -3.005,-0.177 -3.978,-0.884 z"
         style="fill:#a3afb8;fill-opacity:1;fill-rule:evenodd;stroke:none;stroke-width:2.243;stroke-linecap:butt;stroke-linejoin:miter;stroke-miterlimit:4;stroke-dasharray:none;stroke-opacity:1"
         transform="matrix(0.32597,0,0,0.32597,139.66,-41.109)"
         id="path48" />
    </g>
    <g
       style="stroke-width:2.243;stroke-miterlimit:4;stroke-dasharray:none"
       id="g50">
      <path
         d="m 430.628,247.41 c 0,3.607 -2.88,6.533 -6.44,6.54 -3.558,0.008 -6.45,-2.907 -6.465,-6.515 -0.014,-3.607 2.856,-6.545 6.415,-6.566 3.558,-0.021 6.462,2.882 6.49,6.49"
         style="opacity:1;fill:#eeeeee;fill-opacity:1;stroke:#1e1e1e;stroke-width:2.243;stroke-linejoin:round;stroke-miterlimit:4;stroke-dasharray:none;stroke-opacity:1"
         transform="matrix(0.32597,0,0,0.32597,132.903,-39.493)"
         id="path49" />
      <path
         d="m 421.17,250.768 c 0,0 5.215,-0.088 5.746,-2.21 0.53,-2.12 -0.354,-4.86 -0.354,-4.86 0,0 2.475,2.74 1.768,4.86 -0.707,2.122 -1.4,2.67 -3.182,3.094 -1.207,0.287 -3.005,-0.177 -3.978,-0.884 z"
         style="fill:#a3afb8;fill-opacity:1;fill-rule:evenodd;stroke:none;stroke-width:2.243;stroke-linecap:butt;stroke-linejoin:miter;stroke-miterlimit:4;stroke-dasharray:none;stroke-opacity:1"
         transform="matrix(0.32597,0,0,0.32597,132.903,-39.493)"
         id="path50" />
    </g>
    <g
       style="stroke-width:2.243;stroke-miterlimit:4;stroke-dasharray:none"
       id="g52">
      <path
         d="m 430.628,247.41 c 0,3.607 -2.88,6.533 -6.44,6.54 -3.558,0.008 -6.45,-2.907 -6.465,-6.515 -0.014,-3.607 2.856,-6.545 6.415,-6.566 3.558,-0.021 6.462,2.882 6.49,6.49"
         style="opacity:1;fill:#eeeeee;fill-opacity:1;stroke:#1e1e1e;stroke-width:2.243;stroke-linejoin:round;stroke-miterlimit:4;stroke-dasharray:none;stroke-opacity:1"
         transform="matrix(0.32597,0,0,0.32597,128.129,-34.72)"
         id="path51" />
      <path
         d="m 421.17,250.768 c 0,0 5.215,-0.088 5.746,-2.21 0.53,-2.12 -0.354,-4.86 -0.354,-4.86 0,0 2.475,2.74 1.768,4.86 -0.707,2.122 -1.4,2.67 -3.182,3.094 -1.207,0.287 -3.005,-0.177 -3.978,-0.884 z"
         style="fill:#a3afb8;fill-opacity:1;fill-rule:evenodd;stroke:none;stroke-width:2.243;stroke-linecap:butt;stroke-linejoin:miter;stroke-miterlimit:4;stroke-dasharray:none;stroke-opacity:1"
         transform="matrix(0.32597,0,0,0.32597,128.129,-34.72)"
         id="path52" />
    </g>
    <g
       style="stroke-width:2.243;stroke-miterlimit:4;stroke-dasharray:none"
       id="g54">
      <path
         d="m 430.628,247.41 c 0,3.607 -2.88,6.533 -6.44,6.54 -3.558,0.008 -6.45,-2.907 -6.465,-6.515 -0.014,-3.607 2.856,-6.545 6.415,-6.566 3.558,-0.021 6.462,2.882 6.49,6.49"
         style="opacity:1;fill:#eeeeee;fill-opacity:1;stroke:#1e1e1e;stroke-width:2.243;stroke-linejoin:round;stroke-miterlimit:4;stroke-dasharray:none;stroke-opacity:1"
         transform="matrix(0.32597,0,0,0.32597,126.146,-28.036)"
         id="path53" />
      <path
         d="m 421.17,250.768 c 0,0 5.215,-0.088 5.746,-2.21 0.53,-2.12 -0.354,-4.86 -0.354,-4.86 0,0 2.475,2.74 1.768,4.86 -0.707,2.122 -1.4,2.67 -3.182,3.094 -1.207,0.287 -3.005,-0.177 -3.978,-0.884 z"
         style="fill:#a3afb8;fill-opacity:1;fill-rule:evenodd;stroke:none;stroke-width:2.243;stroke-linecap:butt;stroke-linejoin:miter;stroke-miterlimit:4;stroke-dasharray:none;stroke-opacity:1"
         transform="matrix(0.32597,0,0,0.32597,126.146,-28.036)"
         id="path54" />
    </g>
    <g
       style="stroke-width:2.243;stroke-miterlimit:4;stroke-dasharray:none"
       id="g56">
      <path
         d="m 430.628,247.41 c 0,3.607 -2.88,6.533 -6.44,6.54 -3.558,0.008 -6.45,-2.907 -6.465,-6.515 -0.014,-3.607 2.856,-6.545 6.415,-6.566 3.558,-0.021 6.462,2.882 6.49,6.49"
         style="opacity:1;fill:#eeeeee;fill-opacity:1;stroke:#1e1e1e;stroke-width:2.243;stroke-linejoin:round;stroke-miterlimit:4;stroke-dasharray:none;stroke-opacity:1"
         transform="matrix(0.32597,0,0,0.32597,127.027,-21.058)"
         id="path55" />
      <path
         d="m 421.17,250.768 c 0,0 5.215,-0.088 5.746,-2.21 0.53,-2.12 -0.354,-4.86 -0.354,-4.86 0,0 2.475,2.74 1.768,4.86 -0.707,2.122 -1.4,2.67 -3.182,3.094 -1.207,0.287 -3.005,-0.177 -3.978,-0.884 z"
         style="fill:#a3afb8;fill-opacity:1;fill-rule:evenodd;stroke:none;stroke-width:2.243;stroke-linecap:butt;stroke-linejoin:miter;stroke-miterlimit:4;stroke-dasharray:none;stroke-opacity:1"
         transform="matrix(0.32597,0,0,0.32597,127.027,-21.058)"
         id="path56" />
    </g>
    <g
       style="stroke-width:2.243;stroke-miterlimit:4;stroke-dasharray:none"
       id="g58">
      <path
         d="m 430.628,247.41 c 0,3.607 -2.88,6.533 -6.44,6.54 -3.558,0.008 -6.45,-2.907 -6.465,-6.515 -0.014,-3.607 2.856,-6.545 6.415,-6.566 3.558,-0.021 6.462,2.882 6.49,6.49"
         style="opacity:1;fill:#eeeeee;fill-opacity:1;stroke:#1e1e1e;stroke-width:2.243;stroke-linejoin:round;stroke-miterlimit:4;stroke-dasharray:none;stroke-opacity:1"
         transform="matrix(0.32597,0,0,0.32597,130.259,-14.742)"
         id="path57" />
      <path
         d="m 421.17,250.768 c 0,0 5.215,-0.088 5.746,-2.21 0.53,-2.12 -0.354,-4.86 -0.354,-4.86 0,0 2.475,2.74 1.768,4.86 -0.707,2.122 -1.4,2.67 -3.182,3.094 -1.207,0.287 -3.005,-0.177 -3.978,-0.884 z"
         style="fill:#a3afb8;fill-opacity:1;fill-rule:evenodd;stroke:none;stroke-width:2.243;stroke-linecap:butt;stroke-linejoin:miter;stroke-miterlimit:4;stroke-dasharray:none;stroke-opacity:1"
         transform="matrix(0.32597,0,0,0.32597,130.259,-14.742)"
         id="path58" />
    </g>
    <g
       style="stroke-width:2.83224;stroke-miterlimit:4;stroke-dasharray:none"
       id="g60">
      <path
         d="m 430.628,247.41 c 0,3.607 -2.88,6.533 -6.44,6.54 -3.558,0.008 -6.45,-2.907 -6.465,-6.515 -0.014,-3.607 2.856,-6.545 6.415,-6.566 3.558,-0.021 6.462,2.882 6.49,6.49"
         style="opacity:1;fill:#eeeeee;fill-opacity:1;stroke:#1e1e1e;stroke-width:2.83224;stroke-linejoin:round;stroke-miterlimit:4;stroke-dasharray:none;stroke-opacity:1"
         transform="matrix(0.19748,-0.05291,0.08437,0.31486,168.369,18.75)"
         id="path59" />
      <path
         d="m 421.17,250.768 c 0,0 5.215,-0.088 5.746,-2.21 0.53,-2.12 -0.354,-4.86 -0.354,-4.86 0,0 2.475,2.74 1.768,4.86 -0.707,2.122 -1.4,2.67 -3.182,3.094 -1.207,0.287 -3.005,-0.177 -3.978,-0.884 z"
         style="fill:#a3afb8;fill-opacity:1;fill-rule:evenodd;stroke:none;stroke-width:2.83224;stroke-linecap:butt;stroke-linejoin:miter;stroke-miterlimit:4;stroke-dasharray:none;stroke-opacity:1"
         transform="matrix(0.19748,-0.05291,0.08437,0.31486,168.369,18.75)"
         id="path60" />
    </g>
    <g
       style="stroke-width:2.83224;stroke-miterlimit:4;stroke-dasharray:none"
       id="g62">
      <path
         d="m 430.628,247.41 c 0,3.607 -2.88,6.533 -6.44,6.54 -3.558,0.008 -6.45,-2.907 -6.465,-6.515 -0.014,-3.607 2.856,-6.545 6.415,-6.566 3.558,-0.021 6.462,2.882 6.49,6.49"
         style="opacity:1;fill:#eeeeee;fill-opacity:1;stroke:#1e1e1e;stroke-width:2.83224;stroke-linejoin:round;stroke-miterlimit:4;stroke-dasharray:none;stroke-opacity:1"
         transform="matrix(0.19849,0.049,-0.07812,0.31647,262.458,-25.127)"
         id="path61" />
      <path
         d="m 421.17,250.768 c 0,0 5.215,-0.088 5.746,-2.21 0.53,-2.12 -0.354,-4.86 -0.354,-4.86 0,0 2.475,2.74 1.768,4.86 -0.707,2.122 -1.4,2.67 -3.182,3.094 -1.207,0.287 -3.005,-0.177 -3.978,-0.884 z"
         style="fill:#a3afb8;fill-opacity:1;fill-rule:evenodd;stroke:none;stroke-width:2.83224;stroke-linecap:butt;stroke-linejoin:miter;stroke-miterlimit:4;stroke-dasharray:none;stroke-opacity:1"
         transform="matrix(0.19849,0.049,-0.07812,0.31647,262.458,-25.127)"
         id="path62" />
    </g>
  </g>
  <path
     d="m 495.904,67.264 0.302,7.124 c 0,0 -8.446,0.742 -8.79,1.516 -1.64,3.678 1.97,8.64 1.97,8.64 0,0 2.84,-2.122 10.004,-2.122 6.82,0 10.306,1.666 10.306,1.666 0,0 1.82,-2.88 1.82,-5 0,-2.122 -0.76,-4.244 -0.76,-4.244 0,0 -3.486,-0.456 -4.546,-0.456 h -3.032 l -0.302,-7.274 z"
     style="fill:#b3a192;fill-opacity:1;fill-rule:evenodd;stroke:#000000;stroke-width:1.46231;stroke-linecap:butt;stroke-linejoin:miter;stroke-miterlimit:4;stroke-dasharray:none;stroke-opacity:1"
     id="path63" />
  <path
     d="m 507.948,78.316 c 0,0.8 -0.674,1.448 -1.508,1.45 -0.834,0 -1.51,-0.644 -1.514,-1.444 -0.004,-0.8 0.668,-1.448 1.502,-1.454 0.834,-0.004 1.514,0.64 1.52,1.438 m 3.482,0.786 c 0,0.834 -0.704,1.51 -1.574,1.512 -0.87,0 -1.576,-0.672 -1.58,-1.506 -0.004,-0.832 0.698,-1.512 1.568,-1.518 0.87,-0.004 1.58,0.666 1.586,1.5 m -6.968,-0.82 c 0,0.8 -0.674,1.448 -1.508,1.45 -0.834,0 -1.512,-0.644 -1.514,-1.442 -0.004,-0.8 0.668,-1.45 1.5,-1.456 0.836,-0.004 1.516,0.64 1.522,1.438 m -6.986,0.09 c 0,0.83 -0.702,1.506 -1.57,1.508 -0.868,0 -1.572,-0.67 -1.576,-1.502 -0.004,-0.832 0.696,-1.508 1.564,-1.514 0.866,-0.004 1.576,0.664 1.582,1.496 m -3.878,0.272 c 0,0.83 -0.702,1.504 -1.57,1.506 -0.868,0 -1.572,-0.67 -1.576,-1.5 -0.004,-0.832 0.696,-1.51 1.564,-1.514 0.866,-0.006 1.574,0.662 1.582,1.494 m 7.118,-4.35 a 1.3,1.3 0 0 1 -1.324,1.272 1.3,1.3 0 0 1 -1.33,-1.266 1.3,1.3 0 0 1 1.32,-1.276 1.3,1.3 0 0 1 1.334,1.26 m 0,-5.9 a 1.3,1.3 0 0 1 -1.324,1.272 1.3,1.3 0 0 1 -1.33,-1.266 1.3,1.3 0 0 1 1.32,-1.278 1.3,1.3 0 0 1 1.334,1.26 m 0,3.194 a 1.3,1.3 0 0 1 -1.324,1.272 1.3,1.3 0 0 1 -1.33,-1.266 1.3,1.3 0 0 1 1.32,-1.278 1.3,1.3 0 0 1 1.334,1.262"
     style="fill:#f0ddcb;fill-opacity:1;stroke:#121116;stroke-width:0.745171;stroke-linejoin:round;stroke-miterlimit:4;stroke-dasharray:none;stroke-opacity:1"
     id="path64" />
  <path
     d="m 489.668,79.654 c 0,0.802 -0.678,1.454 -1.516,1.456 -0.836,0 -1.516,-0.648 -1.52,-1.45 -0.004,-0.8 0.672,-1.456 1.508,-1.46 0.838,-0.004 1.52,0.64 1.528,1.442"
     style="fill:#f0ddcb;fill-opacity:1;stroke:#121116;stroke-width:0.745171;stroke-linejoin:round;stroke-miterlimit:4;stroke-dasharray:none;stroke-opacity:1"
     id="path65" />
  <path
     d="m 501.056,77.95 c 0,0.878 -0.744,1.59 -1.664,1.592 -0.92,0 -1.666,-0.708 -1.67,-1.586 -0.004,-0.878 0.738,-1.592 1.658,-1.598 0.92,-0.004 1.67,0.702 1.676,1.58"
     style="fill:#916c68;fill-opacity:1;stroke:#4d3126;stroke-width:0.745171;stroke-linejoin:round;stroke-miterlimit:4;stroke-dasharray:none;stroke-opacity:1"
     id="path66" />
  <g
     style="stroke-width:2.53447;stroke-miterlimit:4;stroke-dasharray:none"
     id="g68"
     transform="matrix(2,0,0,2,-100,0)">
    <path
       d="m 430.628,247.41 c 0,3.607 -2.88,6.533 -6.44,6.54 -3.558,0.008 -6.45,-2.907 -6.465,-6.515 -0.014,-3.607 2.856,-6.545 6.415,-6.566 3.558,-0.021 6.462,2.882 6.49,6.49"
       transform="matrix(0.24125,0,0,0.24125,197.401,-31.281)"
       style="opacity:1;fill:#eeeeee;fill-opacity:1;stroke:#1e1e1e;stroke-width:3.03072;stroke-linejoin:round;stroke-miterlimit:4;stroke-dasharray:none;stroke-opacity:1"
       id="path67" />
    <path
       d="m 372.26,210.537 c 0,0 4.36,-0.074 4.804,-1.848 0.444,-1.774 -0.295,-4.065 -0.295,-4.065 0,0 2.07,2.291 1.478,4.065 -0.591,1.774 -1.172,2.233 -2.661,2.587 -1.01,0.24 -2.513,-0.148 -3.326,-0.739 z"
       style="fill:#a3afb8;fill-opacity:1;fill-rule:evenodd;stroke:none;stroke-width:2.53447;stroke-linecap:butt;stroke-linejoin:miter;stroke-miterlimit:4;stroke-dasharray:none;stroke-opacity:1"
       transform="matrix(0.28848,0,0,0.28848,191.616,-31.52)"
       id="path68" />
  </g>
  <path
     d="m 449.96,162.67 c 0,0 2.776,2.592 3.518,4.906 0.74,2.316 1.85,8.52 1.85,8.52 0,0 29.074,-8.056 43.332,-7.408 14.26,0.648 47.128,7.87 47.128,7.87 0,0 0.556,-3.52 1.204,-7.222 0.648,-3.704 3.334,-7.778 3.334,-7.778 0,0 -31.388,-9.814 -51.202,-8.888 -19.814,0.926 -29.72,3.056 -34.166,4.444 -4.444,1.388 -15.276,5.648 -15,5.556 z"
     style="fill:#ffcc00;fill-opacity:1;fill-rule:evenodd;stroke:#000000;stroke-width:0.651943px;stroke-linecap:butt;stroke-linejoin:miter;stroke-opacity:1"
     id="path69" />
  <path
     d="m 493.326,45.06 h 12.504 c 0,0 -3.084,2.134 -3.712,4.168 -0.54,1.75 -0.38,4.622 -0.38,4.622 0,0 3.41,0 4.926,-1.288 1.516,-1.288 4.7,-3.56 4.7,-3.56 v 15.914 c 0,0 -3.07,-2.968 -4.926,-3.94 a 18.054,18.054 0 0 0 -4.472,-1.594 c 0,0 0,2.578 1.06,4.094 1.06,1.516 5.306,7.274 5.306,7.274 l -17.886,0.682 c 0,0 4.242,-4.472 5.988,-7.73 1.136,-2.12 0.68,-4.32 0.68,-4.32 0,0 -3.03,0 -4.546,1.062 -1.516,1.06 -4.168,4.244 -4.168,4.244 V 49.38 c 0,0 1.138,2.954 3.638,4.092 2.5,1.136 4.85,0.53 4.85,0.53 0,0 0.486,-3.046 -0.53,-4.926 -1.048,-1.938 -3.26,-4.092 -3.032,-4.016 z"
     style="fill:#ffcc00;fill-opacity:1;fill-rule:evenodd;stroke:#000000;stroke-width:1.46231;stroke-linecap:butt;stroke-linejoin:miter;stroke-miterlimit:4;stroke-dasharray:none;stroke-opacity:1"
     id="path70" />
  <path
     d="m 492.346,95.56 c 0,0 -8.896,-0.106 -16.504,-4.608 -7.61,-4.5 -15.286,-9.216 -26.58,-6.538 -2.314,0.548 -10.826,4.288 -14.576,16.4 -2.632,8.496 0.428,18.754 3.108,23.362 2.68,4.61 7,9.28 7,9.28 l 4.596,-3.112 c 0,0 -11.704,-9.92 -10.31,-22.78 1.394,-12.86 7.824,-15.86 7.824,-15.86 0,0 7.93,-6.218 18.54,-0.324 10.612,5.896 21.008,8.574 21.008,8.574 0,0 9.752,2.36 10.61,2.252 0.858,-0.108 -4.93,-6.752 -4.716,-6.646 z"
     style="fill:#ffcc00;fill-opacity:1;fill-rule:evenodd;stroke:#121116;stroke-width:1.46231;stroke-linecap:butt;stroke-linejoin:miter;stroke-miterlimit:4;stroke-dasharray:none;stroke-opacity:1"
     id="path71" />
  <path
     d="m 443.144,143.8 -4.726,-9.29 14.18,-5.542 c 0,0 -3.424,4.564 -4.24,7.822 -0.994,3.982 -0.65,7.336 -0.65,7.336 0,0 1.304,-0.98 2.934,-3.586 1.236,-1.98 3.26,-9.128 3.26,-9.128 l 6.356,20.374 c 0.048,0.054 -3.268,-3.268 -5.6,-3.662 -2.628,-0.446 -5.81,0.4 -5.81,0.4 l -3.748,1.142 z"
     style="fill:#ffcc00;fill-opacity:1;fill-rule:evenodd;stroke:#000000;stroke-width:1.49947;stroke-linecap:butt;stroke-linejoin:miter;stroke-miterlimit:4;stroke-dasharray:none;stroke-opacity:1"
     id="path72" />
  <path
     d="m 508.38,95.394 c 0,0 8.894,-0.108 16.504,-4.61 7.61,-4.5 15.284,-9.216 26.58,-6.538 2.312,0.55 10.824,4.288 14.576,16.4 2.632,8.496 -0.43,18.754 -3.108,23.364 -2.68,4.608 -4.502,7.32 -4.502,7.32 l -5.524,-1.984 c 0,0 10.132,-9.088 8.74,-21.95 -1.394,-12.86 -7.824,-15.86 -7.824,-15.86 0,0 -7.932,-6.218 -18.542,-0.322 -10.61,5.894 -21.006,8.574 -21.006,8.574 0,0 -9.754,2.358 -10.61,2.25 -0.86,-0.108 4.93,-6.752 4.714,-6.644 z"
     style="fill:#ffcc00;fill-opacity:1;fill-rule:evenodd;stroke:#121116;stroke-width:1.46231;stroke-linecap:butt;stroke-linejoin:miter;stroke-miterlimit:4;stroke-dasharray:none;stroke-opacity:1"
     id="path73" />
  <path
     style="fill:#ffcc00;fill-opacity:1;stroke:#121116;stroke-width:1.46231;stroke-linejoin:round;stroke-miterlimit:4;stroke-dasharray:none;stroke-opacity:1"
     d="m 503.784,86.59 h 3.714 v 34.634 h -3.714 z M 491.28,86.438 h 4.396 v 34.634 h -4.396 z"
     id="path74" />
  <path
     d="m 511.514,78.404 c 0,6.146 -5.412,11.13 -12.1,11.14 -6.688,0.014 -12.124,-4.95 -12.15,-11.094 -0.026,-6.144 5.366,-11.148 12.054,-11.184 6.686,-0.038 12.144,4.908 12.196,11.052"
     style="fill:#ffcc00;fill-opacity:1;stroke:#121116;stroke-width:1.46231;stroke-linejoin:round;stroke-miterlimit:4;stroke-dasharray:none;stroke-opacity:1"
     id="path75" />
  <path
     d="m 488.634,120.934 20.852,-0.172 c 0,0 -2.446,1.46 -4.548,5.192 -2.102,3.732 -1.802,6.092 -1.802,6.092 0,0 3.174,-0.042 5.406,-1.674 2.23,-1.63 4.72,-4.676 4.72,-4.676 l -0.086,19.22 c 0,0 -1.502,-2.444 -3.99,-3.902 -2.49,-1.46 -6.008,-1.46 -6.008,-1.46 h -7.122 c 0,0 -3.256,0.194 -4.72,1.16 -2.062,1.36 -4.634,3.99 -4.634,3.99 l -0.342,-18.15 c 0,0 1.03,3.176 4.376,4.462 3.346,1.288 5.234,1.116 5.234,1.116 0,0 0,-4.076 -1.716,-6.18 -1.716,-2.1 -5.62,-4.932 -5.62,-5.02 z"
     style="fill:#ffcc00;fill-opacity:1;fill-rule:evenodd;stroke:#000000;stroke-width:1.23869;stroke-linecap:butt;stroke-linejoin:miter;stroke-miterlimit:4;stroke-dasharray:none;stroke-opacity:1"
     id="path76" />
  <path
     d="m 500.252,136.026 c 0,0 3.05,7.12 6.598,10.26 2.064,1.83 8.274,3.208 11.08,2.49 6.308,-1.61 10.644,-6.656 10.644,-6.656 0,0 -0.226,5.528 3.724,8.576 3.948,3.046 7.108,3.836 10.38,2.932 3.272,-0.9 12.524,-7.784 12.524,-7.784 l 1.92,1.692 c 0,0 -5.308,5.152 -10.884,7.888 -2.872,1.408 -11.588,0.626 -14.41,-1.63 -2.82,-2.258 -4.496,-7.726 -4.496,-7.726 0,0 -1.736,3.516 -5.46,4.758 -3.724,1.24 -8.84,1.186 -13.592,-0.202 -3.198,-0.934 -7.352,-5.346 -8.14,-6.812 -0.79,-1.466 -0.566,-2.256 -0.566,-2.256 0,0 -2.342,6.716 -7.22,8.548 -4.608,1.73 -9.86,1.744 -14.32,0.46 -4.512,-1.296 -4.862,-3.82 -4.862,-3.82 0,0 -0.34,7.11 -10.156,9.14 -9.818,2.032 -17.602,-5.188 -17.602,-5.188 l 1.354,-2.032 c 0,0 5.528,6.206 13.992,5.64 8.46,-0.562 11.282,-11.394 11.282,-11.394 0,0 3.724,5.64 13.654,5.754 9.93,0.112 12.75,-12.864 12.75,-12.864 z"
     style="fill:#f6ca1f;fill-opacity:1;fill-rule:evenodd;stroke:#000000;stroke-width:1.1735;stroke-linecap:butt;stroke-linejoin:miter;stroke-miterlimit:4;stroke-dasharray:none;stroke-opacity:1"
     id="path77" />
  <g
     style="fill:#ffcc00;fill-opacity:1;stroke:#000000;stroke-width:2.2;stroke-miterlimit:4;stroke-dasharray:none;stroke-opacity:1"
     id="g81"
     transform="matrix(2,0,0,2,-100,0)">
    <path
       d="m 338.569,336.292 c 0,0 0.114,-5.3 1.253,-6.894 1.616,-2.259 3.814,-2.35 4.935,-2.036 1.384,0.387 2.82,1.645 2.585,5.326 -0.235,3.682 -1.253,5.484 -0.156,6.894 1.096,1.41 1.253,2.35 3.368,2.037 2.115,-0.314 3.055,-1.019 2.585,-2.977 -0.47,-1.958 -1.097,0.157 -1.488,-1.488 -0.392,-1.645 2.046,-8.752 1.645,-13.16 -0.392,-4.31 -2.037,-7.756 -5.327,-8.618 -3.092,-0.81 -5.719,-0.783 -8.617,1.332 -2.78,2.028 -6.345,8.695 -6.345,8.695 l -0.079,14.257 5.797,-0.313 z"
       style="fill:#ffcc00;fill-opacity:1;fill-rule:evenodd;stroke:#000000;stroke-width:2.2;stroke-linecap:butt;stroke-linejoin:miter;stroke-miterlimit:4;stroke-dasharray:none;stroke-opacity:1"
       transform="matrix(0.32597,0,0,0.32597,177.53,-39.538)"
       id="path78" />
    <path
       d="m 327.77,340.13 c 0,0 -2.217,-4.816 -3.897,-5.823 -2.382,-1.428 -4.435,-0.636 -5.338,0.099 -1.114,0.907 -1.93,2.633 -0.248,5.916 1.683,3.283 3.335,4.53 2.892,6.26 -0.444,1.73 -0.213,2.655 -2.278,3.21 -2.065,0.556 -3.208,0.284 -3.557,-1.7 -0.35,-1.983 1.068,-0.293 0.771,-1.958 -0.296,-1.665 -5.364,-7.21 -6.754,-11.414 -1.358,-4.108 -1.223,-7.925 1.451,-10.026 2.513,-1.975 4.933,-2.998 8.434,-2.213 3.358,0.752 9.285,5.445 9.285,5.445 l 5.755,13.045 -5.442,2.023 z"
       style="fill:#ffcc00;fill-opacity:1;fill-rule:evenodd;stroke:#000000;stroke-width:2.2;stroke-linecap:butt;stroke-linejoin:miter;stroke-miterlimit:4;stroke-dasharray:none;stroke-opacity:1"
       transform="matrix(0.32597,0,0,0.32597,177.53,-39.538)"
       id="path79" />
    <path
       d="m 326.662,297.907 c 0,0 -5.64,9.479 -4.387,16.764 1.253,7.285 8.773,22.953 8.773,22.953 l 0.079,2.115 4.058,-0.439 -0.925,-2.146 c 0,0 2.027,-18.756 0.784,-24.676 -0.925,-4.401 -8.304,-14.492 -8.382,-14.57 z m 9.008,43.398 c 0,0 2.818,3.373 6.189,5.014 3.682,1.793 5.195,1.805 6.658,0.705 1.072,-0.806 0.705,-4.23 -0.548,-5.17 -1.253,-0.94 -2.675,-0.463 -2.898,0.47 -0.377,1.574 -0.89,1.47 -2.037,0.861 -1.674,-0.887 -5.562,-3.29 -5.562,-3.29 z m -4.366,0.765 c 0,0 -1.186,4.233 -3.586,7.112 -2.622,3.146 -3.997,3.778 -5.783,3.376 -1.308,-0.295 -2.379,-3.569 -1.621,-4.94 0.757,-1.372 2.25,-1.52 2.836,-0.761 0.99,1.281 1.415,0.975 2.21,-0.05 1.163,-1.496 3.723,-5.283 3.723,-5.283 l 2.221,0.547 z"
       style="fill:#ffcc00;fill-opacity:1;fill-rule:evenodd;stroke:#000000;stroke-width:2.2;stroke-linecap:butt;stroke-linejoin:miter;stroke-miterlimit:4;stroke-dasharray:none;stroke-opacity:1"
       transform="matrix(0.32597,0,0,0.32597,177.53,-39.538)"
       id="path80" />
    <path
       d="m 342.094,341.932 c 0,1.253 -3.953,2.27 -8.835,2.272 -4.882,0.002 -8.85,-1.01 -8.87,-2.263 -0.018,-1.253 3.92,-2.273 8.801,-2.28 4.882,-0.008 8.865,1 8.904,2.253"
       transform="matrix(0.32147789,-0.05392962,0.05392962,0.32147789,160.57616,-20.611366)"
       style="opacity:1;fill:#ffcc00;fill-opacity:1;stroke:#000000;stroke-width:2.2;stroke-linejoin:round;stroke-miterlimit:4;stroke-dasharray:none;stroke-opacity:1"
       id="path81" />
  </g>
  <g
     style="fill:#ffcc00;fill-opacity:1;stroke:#000000;stroke-width:2.2;stroke-miterlimit:4;stroke-dasharray:none;stroke-opacity:1"
     id="g85"
     transform="matrix(2,0,0,2,-100,0)">
    <path
       d="m 338.569,336.292 c 0,0 0.114,-5.3 1.253,-6.894 1.616,-2.259 3.814,-2.35 4.935,-2.036 1.384,0.387 2.82,1.645 2.585,5.326 -0.235,3.682 -1.253,5.484 -0.156,6.894 1.096,1.41 1.253,2.35 3.368,2.037 2.115,-0.314 3.055,-1.019 2.585,-2.977 -0.47,-1.958 -1.097,0.157 -1.488,-1.488 -0.392,-1.645 2.046,-8.752 1.645,-13.16 -0.392,-4.31 -2.037,-7.756 -5.327,-8.618 -3.092,-0.81 -5.719,-0.783 -8.617,1.332 -2.78,2.028 -6.345,8.695 -6.345,8.695 l -0.079,14.257 5.797,-0.313 z"
       style="fill:#ffcc00;fill-opacity:1;fill-rule:evenodd;stroke:#000000;stroke-width:2.2;stroke-linecap:butt;stroke-linejoin:miter;stroke-miterlimit:4;stroke-dasharray:none;stroke-opacity:1"
       transform="matrix(0.30527121,0.1143063,-0.1143063,0.30527121,251.09741,-70.58181)"
       id="path82" />
    <path
       d="m 327.77,340.13 c 0,0 -2.217,-4.816 -3.897,-5.823 -2.382,-1.428 -4.435,-0.636 -5.338,0.099 -1.114,0.907 -1.93,2.633 -0.248,5.916 1.683,3.283 3.335,4.53 2.892,6.26 -0.444,1.73 -0.213,2.655 -2.278,3.21 -2.065,0.556 -3.208,0.284 -3.557,-1.7 -0.35,-1.983 1.068,-0.293 0.771,-1.958 -0.296,-1.665 -5.364,-7.21 -6.754,-11.414 -1.358,-4.108 -1.223,-7.925 1.451,-10.026 2.513,-1.975 4.933,-2.998 8.434,-2.213 3.358,0.752 9.285,5.445 9.285,5.445 l 5.755,13.045 -5.442,2.023 z"
       style="fill:#ffcc00;fill-opacity:1;fill-rule:evenodd;stroke:#000000;stroke-width:2.2;stroke-linecap:butt;stroke-linejoin:miter;stroke-miterlimit:4;stroke-dasharray:none;stroke-opacity:1"
       transform="matrix(0.30527121,0.1143063,-0.1143063,0.30527121,251.09741,-70.58181)"
       id="path83" />
    <path
       d="m 326.662,297.907 c 0,0 -5.64,9.479 -4.387,16.764 1.253,7.285 8.773,22.953 8.773,22.953 l 0.079,2.115 4.058,-0.439 -0.925,-2.146 c 0,0 2.027,-18.756 0.784,-24.676 -0.925,-4.401 -8.304,-14.492 -8.382,-14.57 z m 9.008,43.398 c 0,0 2.818,3.373 6.189,5.014 3.682,1.793 5.195,1.805 6.658,0.705 1.072,-0.806 0.705,-4.23 -0.548,-5.17 -1.253,-0.94 -2.675,-0.463 -2.898,0.47 -0.377,1.574 -0.89,1.47 -2.037,0.861 -1.674,-0.887 -5.562,-3.29 -5.562,-3.29 z m -4.366,0.765 c 0,0 -1.186,4.233 -3.586,7.112 -2.622,3.146 -3.997,3.778 -5.783,3.376 -1.308,-0.295 -2.379,-3.569 -1.621,-4.94 0.757,-1.372 2.25,-1.52 2.836,-0.761 0.99,1.281 1.415,0.975 2.21,-0.05 1.163,-1.496 3.723,-5.283 3.723,-5.283 l 2.221,0.547 z"
       style="fill:#ffcc00;fill-opacity:1;fill-rule:evenodd;stroke:#000000;stroke-width:2.2;stroke-linecap:butt;stroke-linejoin:miter;stroke-miterlimit:4;stroke-dasharray:none;stroke-opacity:1"
       transform="matrix(0.30527121,0.1143063,-0.1143063,0.30527121,251.09741,-70.58181)"
       id="path84" />
    <path
       d="m 342.094,341.932 c 0,1.253 -3.953,2.27 -8.835,2.272 -4.882,0.002 -8.85,-1.01 -8.87,-2.263 -0.018,-1.253 3.92,-2.273 8.801,-2.28 4.882,-0.008 8.865,1 8.904,2.253"
       transform="matrix(0.31997776,0.06221476,-0.06221476,0.31997776,228.6042,-58.788055)"
       style="opacity:1;fill:#ffcc00;fill-opacity:1;stroke:#000000;stroke-width:2.2;stroke-linejoin:round;stroke-miterlimit:4;stroke-dasharray:none;stroke-opacity:1"
       id="path85" />
  </g>
  <path
     d="m 448.862,162.34 c 0,0 0.608,2.554 2.068,1.216 1.46,-1.34 21.534,-9.246 49.88,-9.246 28.348,0 46.96,7.786 48.056,8.272 1.096,0.486 1.582,1.094 2.556,0 0.972,-1.094 -0.974,-2.8 -0.974,-2.8 0,0 -19.708,-8.392 -50.488,-8.272 -30.78,0.122 -50.732,8.882 -50.732,8.882 0,0 -1.34,0.974 -0.366,1.946 z"
     style="fill:#cca715;fill-opacity:1;fill-rule:evenodd;stroke:#000000;stroke-width:0.651943px;stroke-linecap:butt;stroke-linejoin:miter;stroke-opacity:1"
     id="path86" />
  <path
     d="m 484.808,174.13 c 0,0 0.904,-2.514 2.484,-3 1.26,-0.384 3.248,0.854 3.248,0.854 0,0 -2.396,-0.22 -3.146,0.206 -0.676,0.384 -0.88,1.528 -0.88,1.528 0,0 0.512,-0.912 2.35,-0.822 1.836,0.088 2.042,0.088 2.042,0.088 0,0 -3.116,0.234 -3.836,1.13 -0.72,0.898 2.94,1.308 2.94,1.308 0,0 -5.6,0.03 -6.334,-0.308 -0.734,-0.338 -1.204,-1.484 -2.454,-1.132 -1.25,0.354 -2.528,1.47 -2.528,1.47 0,0 1.426,-2.396 2.322,-2.41 0.896,-0.014 1.426,-0.06 2.234,0.308 0.808,0.368 1.558,0.78 1.558,0.78 z m -20.938,4.534 c 0,0 0.424,-2.638 1.888,-3.404 1.166,-0.612 3.348,0.236 3.348,0.236 0,0 -2.394,0.226 -3.052,0.784 -0.594,0.504 -0.584,1.666 -0.584,1.666 0,0 0.338,-0.992 2.16,-1.244 1.82,-0.254 2.022,-0.292 2.022,-0.292 0,0 -3.018,0.808 -3.56,1.82 -0.54,1.016 3.13,0.744 3.13,0.744 0,0 -5.496,1.064 -6.28,0.868 -0.786,-0.196 -1.46,-1.236 -2.622,-0.66 -1.162,0.58 -2.212,1.912 -2.212,1.912 0,0 0.958,-2.616 1.836,-2.796 0.878,-0.18 1.39,-0.322 2.252,-0.11 0.862,0.21 1.674,0.476 1.674,0.476 z m 38.596,-5.464 c 0,0 1.048,-2.458 2.652,-2.848 1.28,-0.314 3.194,1.04 3.194,1.04 0,0 -2.38,-0.36 -3.152,0.02 -0.7,0.346 -0.968,1.476 -0.968,1.476 0,0 0.566,-0.88 2.394,-0.686 1.83,0.196 2.034,0.208 2.034,0.208 0,0 -3.124,0.054 -3.894,0.906 -0.772,0.854 2.86,1.476 2.86,1.476 0,0 -5.594,-0.294 -6.308,-0.674 -0.714,-0.38 -1.116,-1.552 -2.384,-1.272 -1.268,0.28 -2.608,1.32 -2.608,1.32 0,0 1.56,-2.308 2.458,-2.272 0.896,0.038 1.426,0.024 2.212,0.44 0.786,0.412 1.51,0.866 1.51,0.866 z m 17.678,2 c 0,0 1.328,-2.32 2.968,-2.52 1.308,-0.16 3.05,1.404 3.05,1.404 0,0 -2.32,-0.634 -3.132,-0.344 -0.734,0.26 -1.134,1.352 -1.134,1.352 0,0 0.664,-0.808 2.458,-0.4 1.794,0.404 1.996,0.44 1.996,0.44 0,0 -3.108,-0.31 -3.974,0.448 -0.866,0.756 2.666,1.8 2.666,1.8 0,0 -5.52,-0.946 -6.182,-1.408 -0.666,-0.46 -0.93,-1.67 -2.22,-1.54 -1.292,0.13 -2.746,1.006 -2.746,1.006 0,0 1.82,-2.11 2.706,-1.968 0.886,0.14 1.414,0.19 2.146,0.692 0.732,0.502 1.4,1.038 1.4,1.038 z m 17.556,3.134 c 0,0 1.238,-1.766 2.57,-1.808 1.06,-0.032 2.348,1.352 2.348,1.352 0,0 -1.82,-0.68 -2.492,-0.506 -0.61,0.156 -1.012,1.004 -1.012,1.004 0,0 0.594,-0.6 2.006,-0.144 1.412,0.46 1.572,0.502 1.572,0.502 0,0 -2.476,-0.476 -3.226,0.068 -0.752,0.546 2.01,1.64 2.01,1.64 0,0 -4.366,-1.162 -4.866,-1.58 -0.5,-0.42 -0.624,-1.412 -1.67,-1.402 -1.048,0.01 -2.28,0.608 -2.28,0.608 0,0 1.618,-1.562 2.32,-1.384 0.7,0.18 1.12,0.256 1.672,0.714 0.552,0.456 1.048,0.936 1.048,0.936 z"
     style="fill:#000000;fill-opacity:1;fill-rule:evenodd;stroke:none;stroke-width:0.4;stroke-linecap:butt;stroke-linejoin:miter;stroke-miterlimit:4;stroke-dasharray:none;stroke-opacity:1"
     id="path87" />
  <path
     d="m 481.278,162.152 c 0.42,2.096 -2.042,4.356 -5.502,5.05 -3.46,0.692 -6.606,-0.444 -7.022,-2.54 -0.422,-2.094 2.04,-4.356 5.5,-5.048 3.46,-0.694 6.606,0.444 7.024,2.54 z"
     style="fill:#0f6545;fill-opacity:1;stroke:#000000;stroke-width:0.870693;stroke-linejoin:round;stroke-miterlimit:4;stroke-dasharray:none;stroke-opacity:1"
     id="path88" />
  <path
     d="m 473.44,161.81 c 0.102,0.508 -0.432,1.044 -1.194,1.196 -0.76,0.152 -1.46,-0.136 -1.562,-0.642 -0.102,-0.508 0.432,-1.044 1.194,-1.196 0.76,-0.152 1.46,0.134 1.562,0.642 z"
     style="fill:#cecfc1;fill-opacity:1;stroke:none;stroke-width:2.4;stroke-linejoin:round;stroke-miterlimit:4;stroke-dasharray:none;stroke-opacity:1"
     id="path89" />
  <path
     d="m 530.176,164.688 c -0.64,2.04 -3.886,2.834 -7.254,1.778 -3.366,-1.058 -5.576,-3.568 -4.934,-5.606 0.64,-2.04 3.886,-2.834 7.254,-1.778 3.366,1.058 5.576,3.568 4.934,5.606 z"
     style="fill:#0f6545;fill-opacity:1;stroke:#000000;stroke-width:0.870693;stroke-linejoin:round;stroke-miterlimit:4;stroke-dasharray:none;stroke-opacity:1"
     id="path90" />
  <path
     d="m 523.47,160.616 c -0.156,0.494 -0.88,0.706 -1.622,0.474 -0.74,-0.232 -1.216,-0.82 -1.06,-1.316 0.154,-0.494 0.88,-0.706 1.62,-0.474 0.74,0.234 1.216,0.822 1.06,1.316 z"
     style="fill:#cecfc1;fill-opacity:1;stroke:none;stroke-width:2.4;stroke-linejoin:round;stroke-miterlimit:4;stroke-dasharray:none;stroke-opacity:1"
     id="path91" />
  <path
     style="fill:#1f2d86;fill-opacity:1;stroke:#000000;stroke-width:1.23869;stroke-linejoin:round;stroke-miterlimit:4;stroke-dasharray:none;stroke-opacity:1"
     d="m 493.254,157.43 h 12.674 v 6.39 h -12.674 z"
     id="path92" />
  <path
     d="m 498.596,158.79 c 0,0.29 -0.54,0.524 -1.204,0.524 -0.666,0 -1.206,-0.234 -1.206,-0.524 0,-0.288 0.54,-0.522 1.206,-0.522 0.664,0 1.204,0.234 1.204,0.522 z"
     style="fill:#707c8b;fill-opacity:1;stroke:none;stroke-width:3.8;stroke-linejoin:round;stroke-miterlimit:4;stroke-dasharray:none;stroke-opacity:1"
     id="path93" />
  <path
     style="fill:#9f1209;fill-opacity:1;fill-rule:evenodd;stroke:#000000;stroke-width:0.651943px;stroke-linecap:butt;stroke-linejoin:miter;stroke-opacity:1"
     d="m 457.43,163.82 2.096,6.18 -3.876,2.094 c 0,0 -1.78,1.256 -3.56,0.314 -1.782,-0.942 -2.832,-3.766 -1.888,-4.924 1.878,-2.294 7.228,-3.77 7.228,-3.666 z"
     id="path94" />
  <path
     style="fill:#8f322f;fill-opacity:1;stroke:none;stroke-width:3.8;stroke-linejoin:round;stroke-miterlimit:4;stroke-dasharray:none;stroke-opacity:1"
     d="m 454.184,168.22 c 0,1.04 -0.798,1.884 -1.78,1.884 -0.986,0 -1.782,-0.844 -1.782,-1.886 0,-1.04 0.796,-1.886 1.78,-1.886 0.984,0 1.782,0.844 1.78,1.886 z"
     id="path95" />
  <path
     style="fill:#e2a494;fill-opacity:1;stroke:none;stroke-width:3.8;stroke-linejoin:round;stroke-miterlimit:4;stroke-dasharray:none;stroke-opacity:1"
     d="m 452.5,167.48 a 1.052,1.052 0 0 1 -0.206,0.86 0.522,0.522 0 0 1 -0.672,0.112 1.052,1.052 0 0 1 -0.468,-0.752 1.052,1.052 0 0 1 0.204,-0.862 c 0.18,-0.2 0.438,-0.242 0.674,-0.11 0.234,0.132 0.412,0.42 0.466,0.752 z"
     id="path96" />
  <path
     style="fill:#9f1209;fill-opacity:1;fill-rule:evenodd;stroke:#000000;stroke-width:0.651943px;stroke-linecap:butt;stroke-linejoin:miter;stroke-opacity:1"
     d="m 542.35,164.624 -2.08,5.504 4.932,2.584 c 0,0 2.182,0.972 3.56,-0.236 1.174,-1.032 1.44,-3.422 0.5,-4.63 -0.888,-1.144 -6.98,-3.256 -6.912,-3.222 z"
     id="path97" />
  <path
     style="fill:#aa675d;fill-opacity:1;stroke:none;stroke-width:3.8;stroke-linejoin:round;stroke-miterlimit:4;stroke-dasharray:none;stroke-opacity:1"
     d="m 548.256,169.036 c 0,0.678 -0.706,1.226 -1.576,1.226 -0.872,0 -1.578,-0.548 -1.578,-1.226 0,-0.676 0.706,-1.224 1.578,-1.224 0.87,0 1.576,0.548 1.576,1.224 z"
     id="path98" />
  <path
     style="fill:#e2a494;fill-opacity:1;stroke:none;stroke-width:3.8;stroke-linejoin:round;stroke-miterlimit:4;stroke-dasharray:none;stroke-opacity:1"
     d="m 546.746,168.852 a 0.96,0.96 0 0 1 -0.368,0.786 0.622,0.622 0 0 1 -0.74,0 0.96,0.96 0 0 1 -0.368,-0.786 0.96,0.96 0 0 1 0.368,-0.786 0.622,0.622 0 0 1 0.74,0 0.96,0.96 0 0 1 0.368,0.786 z"
     id="path99" />
  <path
     d="m 510.68828,157.97395 c 0,0.4707 -0.39899,0.85208 -0.8925,0.85208 -0.49287,0 -0.89251,-0.38138 -0.89186,-0.85208 0,-0.47005 0.39899,-0.85144 0.89186,-0.85144 0.49351,0 0.89315,0.38139 0.8925,0.85144 z"
     style="opacity:1;fill:#f5d8bc;fill-opacity:1;stroke:none;stroke-width:1.23869;stroke-linejoin:round;stroke-miterlimit:4;stroke-dasharray:none;stroke-opacity:1"
     id="path100" />
  <path
     d="m 516.08028,158.28595 c 0,0.4707 -0.39899,0.85208 -0.8925,0.85208 -0.49287,0 -0.89251,-0.38138 -0.89186,-0.85208 0,-0.47005 0.39899,-0.85144 0.89186,-0.85144 0.49351,0 0.89315,0.38139 0.8925,0.85144 z"
     style="opacity:1;fill:#f5d8bc;fill-opacity:1;stroke:none;stroke-width:1.23869;stroke-linejoin:round;stroke-miterlimit:4;stroke-dasharray:none;stroke-opacity:1"
     id="path101" />
  <path
     d="m 513.34202,160.37558 c 0,0.5916 -0.50148,1.07095 -1.12176,1.07095 -0.61947,0 -1.12176,-0.47935 -1.12094,-1.07095 0,-0.59079 0.50147,-1.07014 1.12094,-1.07014 0.62028,0 1.12258,0.47935 1.12176,1.07014 z"
     style="opacity:1;fill:#f5d8bc;fill-opacity:1;stroke:none;stroke-width:1.55686;stroke-linejoin:round;stroke-miterlimit:4;stroke-dasharray:none;stroke-opacity:1"
     id="path102" />
  <path
     d="m 515.94828,163.89995 c 0,0.4707 -0.39899,0.85208 -0.8925,0.85208 -0.49287,0 -0.89251,-0.38138 -0.89186,-0.85208 0,-0.47005 0.39899,-0.85144 0.89186,-0.85144 0.49351,0 0.89315,0.38139 0.8925,0.85144 z"
     style="opacity:1;fill:#f5d8bc;fill-opacity:1;stroke:none;stroke-width:1.23869;stroke-linejoin:round;stroke-miterlimit:4;stroke-dasharray:none;stroke-opacity:1"
     id="path103" />
  <path
     d="m 510.74428,163.22995 c 0,0.4707 -0.39899,0.85208 -0.8925,0.85208 -0.49287,0 -0.89251,-0.38138 -0.89186,-0.85208 0,-0.47005 0.39899,-0.85144 0.89186,-0.85144 0.49351,0 0.89315,0.38139 0.8925,0.85144 z"
     style="opacity:1;fill:#f5d8bc;fill-opacity:1;stroke:none;stroke-width:1.23869;stroke-linejoin:round;stroke-miterlimit:4;stroke-dasharray:none;stroke-opacity:1"
     id="path104" />
  <path
     d="m 484.63336,158.89636 c 0.10618,0.45857 -0.19649,0.92013 -0.67729,1.03145 -0.48016,0.11119 -0.95553,-0.17022 -1.06108,-0.62893 -0.10603,-0.45794 0.19664,-0.91949 0.6768,-1.03068 0.4808,-0.11132 0.95617,0.17008 1.06157,0.62816 z"
     style="opacity:1;fill:#f5d8bc;fill-opacity:1;stroke:none;stroke-width:1.23869;stroke-linejoin:round;stroke-miterlimit:4;stroke-dasharray:none;stroke-opacity:1"
     id="path105" />
  <path
     d="m 489.9573,157.98226 c 0.10618,0.45857 -0.19649,0.92013 -0.67728,1.03146 -0.48017,0.11118 -0.95554,-0.17022 -1.06108,-0.62894 -0.10604,-0.45793 0.19663,-0.91949 0.6768,-1.03067 0.48079,-0.11133 0.95616,0.17007 1.06156,0.62815 z"
     style="opacity:1;fill:#f5d8bc;fill-opacity:1;stroke:none;stroke-width:1.23869;stroke-linejoin:round;stroke-miterlimit:4;stroke-dasharray:none;stroke-opacity:1"
     id="path106" />
  <path
     d="m 487.77623,160.64855 c 0.13346,0.57637 -0.24697,1.1565 -0.85128,1.29643 -0.60352,0.13974 -1.20101,-0.21395 -1.33367,-0.79051 -0.13327,-0.57557 0.24715,-1.1557 0.85067,-1.29544 0.60431,-0.13993 1.2018,0.21376 1.33428,0.78952 z"
     style="opacity:1;fill:#f5d8bc;fill-opacity:1;stroke:none;stroke-width:1.5569;stroke-linejoin:round;stroke-miterlimit:4;stroke-dasharray:none;stroke-opacity:1"
     id="path107" />
  <path
     d="m 491.0961,163.48072 c 0.10618,0.45857 -0.19649,0.92013 -0.67729,1.03146 -0.48016,0.11118 -0.95553,-0.17022 -1.06108,-0.62894 -0.10603,-0.45793 0.19664,-0.91949 0.6768,-1.03067 0.4808,-0.11133 0.95617,0.17007 1.06157,0.62815 z"
     style="opacity:1;fill:#f5d8bc;fill-opacity:1;stroke:none;stroke-width:1.23869;stroke-linejoin:round;stroke-miterlimit:4;stroke-dasharray:none;stroke-opacity:1"
     id="path108" />
  <path
     d="m 485.87483,164.00145 c 0.10618,0.45857 -0.19649,0.92013 -0.67729,1.03145 -0.48016,0.11118 -0.95553,-0.17022 -1.06107,-0.62893 -0.10604,-0.45794 0.19663,-0.9195 0.67679,-1.03068 0.4808,-0.11132 0.95617,0.17008 1.06157,0.62816 z"
     style="opacity:1;fill:#f5d8bc;fill-opacity:1;stroke:none;stroke-width:1.23869;stroke-linejoin:round;stroke-miterlimit:4;stroke-dasharray:none;stroke-opacity:1"
     id="path109" />
  <path
     d="m 461.91403,163.80201 c 0.17036,0.43879 -0.0635,0.93872 -0.5236,1.11734 -0.45945,0.17839 -0.97003,-0.0325 -1.13979,-0.47152 -0.17012,-0.43818 0.0638,-0.93812 0.52323,-1.1165 0.46006,-0.17863 0.97064,0.0323 1.14016,0.47068 z"
     style="opacity:1;fill:#f5d8bc;fill-opacity:1;stroke:none;stroke-width:1.23869;stroke-linejoin:round;stroke-miterlimit:4;stroke-dasharray:none;stroke-opacity:1"
     id="path110" />
  <path
     d="m 467.05438,162.14007 c 0.17036,0.43879 -0.0635,0.93872 -0.5236,1.11734 -0.45945,0.17839 -0.97003,-0.0325 -1.13979,-0.47152 -0.17012,-0.43818 0.0638,-0.93812 0.52323,-1.1165 0.46006,-0.17862 0.97064,0.0323 1.14016,0.47068 z"
     style="opacity:1;fill:#f5d8bc;fill-opacity:1;stroke:none;stroke-width:1.23869;stroke-linejoin:round;stroke-miterlimit:4;stroke-dasharray:none;stroke-opacity:1"
     id="path111" />
  <path
     d="m 465.27318,165.0785 c 0.21413,0.55151 -0.0798,1.17988 -0.65809,1.4044 -0.57748,0.22422 -1.21923,-0.0408 -1.4326,-0.59263 -0.21384,-0.55075 0.0801,-1.17912 0.65761,-1.40334 0.57825,-0.22452 1.22,0.0405 1.43308,0.59157 z"
     style="opacity:1;fill:#f5d8bc;fill-opacity:1;stroke:none;stroke-width:1.5569;stroke-linejoin:round;stroke-miterlimit:4;stroke-dasharray:none;stroke-opacity:1"
     id="path112" />
  <path
     d="m 468.96362,167.42066 c 0.17037,0.43879 -0.0635,0.93873 -0.5236,1.11735 -0.45945,0.17838 -0.97003,-0.0325 -1.13978,-0.47153 -0.17013,-0.43818 0.0638,-0.93811 0.52322,-1.1165 0.46006,-0.17862 0.97064,0.0323 1.14016,0.47068 z"
     style="opacity:1;fill:#f5d8bc;fill-opacity:1;stroke:none;stroke-width:1.23869;stroke-linejoin:round;stroke-miterlimit:4;stroke-dasharray:none;stroke-opacity:1"
     id="path113" />
  <path
     d="m 463.86895,168.67843 c 0.17036,0.43879 -0.0635,0.93873 -0.5236,1.11735 -0.45946,0.17838 -0.97004,-0.0325 -1.13979,-0.47153 -0.17013,-0.43818 0.0638,-0.93811 0.52323,-1.1165 0.46006,-0.17862 0.97064,0.0323 1.14016,0.47068 z"
     style="opacity:1;fill:#f5d8bc;fill-opacity:1;stroke:none;stroke-width:1.23869;stroke-linejoin:round;stroke-miterlimit:4;stroke-dasharray:none;stroke-opacity:1"
     id="path114" />
  <path
     d="m 534.10054,161.32755 c -0.12066,0.49257 -0.63595,0.7894 -1.1524,0.66289 -0.51576,-0.12634 -0.83621,-0.62789 -0.71487,-1.12029 0.12049,-0.49189 0.63578,-0.78872 1.15155,-0.66238 0.51645,0.12651 0.83689,0.62806 0.71572,1.11978 z"
     style="opacity:1;fill:#f5d8bc;fill-opacity:1;stroke:none;stroke-width:1.33456;stroke-linejoin:round;stroke-miterlimit:4;stroke-dasharray:none;stroke-opacity:1"
     id="path115" />
  <path
     d="m 539.6646,163.03514 c -0.12066,0.49257 -0.63594,0.7894 -1.15239,0.66289 -0.51577,-0.12634 -0.83621,-0.62788 -0.71487,-1.12029 0.12049,-0.49189 0.63578,-0.78871 1.15155,-0.66237 0.51644,0.1265 0.83689,0.62805 0.71571,1.11977 z"
     style="opacity:1;fill:#f5d8bc;fill-opacity:1;stroke:none;stroke-width:1.33456;stroke-linejoin:round;stroke-miterlimit:4;stroke-dasharray:none;stroke-opacity:1"
     id="path116" />
  <path
     d="m 536.27114,164.52683 c -0.15165,0.61911 -0.79931,0.99219 -1.44843,0.83318 -0.64826,-0.15879 -1.05102,-0.78918 -0.89851,-1.40808 0.15144,-0.61825 0.7991,-0.99133 1.44736,-0.83253 0.64912,0.159 1.05189,0.78939 0.89958,1.40743 z"
     style="opacity:1;fill:#f5d8bc;fill-opacity:1;stroke:none;stroke-width:1.6774;stroke-linejoin:round;stroke-miterlimit:4;stroke-dasharray:none;stroke-opacity:1"
     id="path117" />
  <path
     d="m 538.08862,168.87676 c -0.12066,0.49257 -0.63595,0.7894 -1.15239,0.66289 -0.51577,-0.12634 -0.83621,-0.62789 -0.71487,-1.12029 0.12049,-0.49189 0.63578,-0.78872 1.15154,-0.66238 0.51645,0.12651 0.83689,0.62806 0.71572,1.11978 z"
     style="opacity:1;fill:#f5d8bc;fill-opacity:1;stroke:none;stroke-width:1.33456;stroke-linejoin:round;stroke-miterlimit:4;stroke-dasharray:none;stroke-opacity:1"
     id="path118" />
  <path
     d="m 532.81387,166.84007 c -0.12066,0.49257 -0.63595,0.7894 -1.1524,0.66289 -0.51576,-0.12634 -0.83621,-0.62789 -0.71486,-1.12029 0.12049,-0.49189 0.63578,-0.78872 1.15154,-0.66238 0.51645,0.12651 0.83689,0.62806 0.71572,1.11978 z"
     style="opacity:1;fill:#f5d8bc;fill-opacity:1;stroke:none;stroke-width:1.33456;stroke-linejoin:round;stroke-miterlimit:4;stroke-dasharray:none;stroke-opacity:1"
     id="path119" />
  <path
     d="m 544.966,111.164 c 0,0 -2.564,2.404 -5.608,2.404 -3.046,0 -4.808,-1.282 -5.77,-1.924 -0.96,-0.64 0.32,-2.564 0.32,-2.564"
     style="fill:none;fill-rule:evenodd;stroke:#000000;stroke-width:1.49947;stroke-linecap:butt;stroke-linejoin:miter;stroke-miterlimit:4;stroke-dasharray:none;stroke-opacity:1"
     id="path120" />
  <path
     d="m 491.12,115.972 c 0,0 -4.648,-0.8 -6.57,-1.442 -1.924,-0.64 -1.444,-1.924 -3.686,-1.764 -2.244,0.16 -4.488,1.764 -4.008,4.006 0.48,2.244 2.084,2.566 3.686,2.084 1.604,-0.48 1.122,-3.204 -0.96,-3.044 -2.084,0.16 -0.32,1.922 -0.32,1.922"
     style="fill:none;fill-rule:evenodd;stroke:#000000;stroke-width:1.36908;stroke-linecap:butt;stroke-linejoin:miter;stroke-miterlimit:4;stroke-dasharray:none;stroke-opacity:1"
     id="path121" />
  <path
     d="m 459.068,112.446 c 0,0 1.282,1.924 4.648,1.602 3.366,-0.32 4.648,-2.082 4.808,-2.884 0.16,-0.8 0,-2.244 -0.64,-2.884 -0.642,-0.64 -2.886,-0.962 -2.886,-0.962"
     style="fill:none;fill-rule:evenodd;stroke:#000000;stroke-width:1.30389;stroke-linecap:butt;stroke-linejoin:miter;stroke-miterlimit:4;stroke-dasharray:none;stroke-opacity:1"
     id="path122" />
</svg>
