<?xml version="1.0" encoding="UTF-8" standalone="no"?>
<svg
   width="1000"
   height="600"
   version="1.1"
   id="svg119"
   sodipodi:docname="gs.svg"
   inkscape:version="1.3.2 (091e20e, 2023-11-25, custom)"
   xmlns:inkscape="http://www.inkscape.org/namespaces/inkscape"
   xmlns:sodipodi="http://sodipodi.sourceforge.net/DTD/sodipodi-0.dtd"
   xmlns:xlink="http://www.w3.org/1999/xlink"
   xmlns="http://www.w3.org/2000/svg"
   xmlns:svg="http://www.w3.org/2000/svg">
  <sodipodi:namedview
     id="namedview119"
     pagecolor="#505050"
     bordercolor="#eeeeee"
     borderopacity="1"
     inkscape:showpageshadow="0"
     inkscape:pageopacity="0"
     inkscape:pagecheckerboard="0"
     inkscape:deskcolor="#505050"
     inkscape:zoom="0.66866667"
     inkscape:cx="318.54437"
     inkscape:cy="513.70887"
     inkscape:window-width="2560"
     inkscape:window-height="1417"
     inkscape:window-x="3832"
     inkscape:window-y="313"
     inkscape:window-maximized="1"
     inkscape:current-layer="svg119" />
  <defs
     id="defs6">
    <linearGradient
       id="b">
      <stop
         stop-color="#d5dfff"
         offset="0"
         id="stop1" />
      <stop
         stop-color="#FFF"
         offset="1"
         id="stop2" />
    </linearGradient>
    <linearGradient
       id="a">
      <stop
         stop-color="#474747"
         offset="0"
         id="stop3" />
      <stop
         stop-color="#f50"
         offset="1"
         id="stop4" />
    </linearGradient>
    <linearGradient
       id="f"
       y2="102.99"
       xlink:href="#a"
       gradientUnits="userSpaceOnUse"
       x2="228.97"
       gradientTransform="matrix(0.46008027,0,0,0.8250606,486.55858,21.485726)"
       y1="102.99"
       x1="215.83" />
    <linearGradient
       id="c"
       y2="173.45"
       xlink:href="#a"
       gradientUnits="userSpaceOnUse"
       y1="218.47"
       gradientTransform="matrix(0.9377721,0,0,0.40479264,486.55858,21.485726)"
       x2="110.94"
       x1="109.34" />
    <linearGradient
       id="d"
       y2="337.23001"
       gradientUnits="userSpaceOnUse"
       y1="316.38"
       gradientTransform="matrix(0.7647615,0,0,0.49635288,486.55858,21.485726)"
       x2="126.02"
       x1="125.91">
      <stop
         stop-color="#b50000"
         offset="0"
         id="stop5" />
      <stop
         stop-color="#ffc500"
         offset="1"
         id="stop6" />
    </linearGradient>
    <linearGradient
       id="g"
       y2="1003.7"
       xlink:href="#b"
       gradientUnits="userSpaceOnUse"
       y1="1040.4"
       gradientTransform="matrix(1.5914367,0,0,0.23851989,486.55858,21.485726)"
       x2="78.221001"
       x1="117.6" />
    <linearGradient
       id="h"
       y2="226.38"
       xlink:href="#b"
       gradientUnits="userSpaceOnUse"
       y1="245.98"
       gradientTransform="matrix(0.55041714,0,0,0.6896205,486.55858,21.485726)"
       x2="255.03"
       x1="264.72" />
    <linearGradient
       id="e"
       y2="147.35001"
       xlink:href="#b"
       gradientUnits="userSpaceOnUse"
       y1="149.38"
       gradientTransform="matrix(0.34716384,0,0,1.0933947,486.55858,21.485726)"
       x2="456.39999"
       x1="407.87" />
  </defs>
  <path
     fill="#012169"
     d="M 0,0 H 1000 V 600 H 0 Z"
     id="path6"
     style="stroke-width:1.46059" />
  <path
     d="M 0,0 V 33.5408 L 444.09852,300 h 55.90015 V 266.4592 L 55.900149,0.0016 H 0 Z M 499.99867,0 V 33.5392 L 55.900149,300 H 0 V 266.4608 L 444.09852,0 Z"
     fill="#ffffff"
     id="path7"
     style="stroke-width:1.4606" />
  <path
     d="m 208.33389,0 v 299.9984 h 83.33222 V 0 H 208.33256 Z M 0,100 V 200 H 499.99867 V 100 Z"
     fill="#ffffff"
     id="path8"
     style="stroke-width:1.4606" />
  <path
     d="m 0,120 v 60 H 499.99867 V 120 Z M 225.0006,0 v 299.9984 h 49.9988 V 0 H 224.99927 Z M 0,299.9984 l 166.66711,-100 h 37.26677 l -166.667114,100 z M 0,0 166.66711,100 H 129.40035 L 0,22.3616 Z M 296.06612,100 462.73323,0 H 500 L 333.33289,100 Z M 500,299.9984 l -166.66711,-100 h 37.26676 L 500,277.6384 V 300 Z"
     fill="#c8102e"
     id="path9"
     style="stroke-width:1.4606" />
  <path
     d="m 734.4282,424.896 c 0,0 -3.328,8.784 -5.2256,8.784 -1.8976,0 -8.784,-3.7968 -8.784,-3.7968 0,0 -4.9872,8.0784 -7.6,8.544 -2.6144,0.4784 -9.4992,-1.1808 -9.4992,-1.1808 0,0 -6.648,0 -6.8864,-0.9536 -0.2384,-0.944 0.24,-2.8416 0.24,-2.8416 0,0 -9.4976,7.5904 -11.6352,7.1136 -2.1376,-0.4672 -9.2608,-9.488 -9.2608,-9.488 l -1.1872,4.7488 -13.5328,-0.4768 -11.872,-7.6 c 0,0 -6.6496,10.9184 -6.8864,10.68 -0.2368,-0.2384 -11.6352,2.6128 -11.6352,2.6128 l -0.712,-2.136 -7.5984,-4.512 c 0,0 5.936,-8.3056 5.936,-8.544 0,-0.2384 -2.848,-1.192 -2.848,-1.192 l -4.2752,3.568 -8.784,5.6928 -8.7856,-4.0352 3.7984,-7.1232 0.4752,-5.2272 6.8864,-10.4416 84.2912,-81.9232 41.552,76.696 z"
     stroke="#000000"
     stroke-width="0.828"
     fill="#6a4c2d"
     id="path10" />
  <path
     d="m 794.313,429.864 21.9392,-0.7952 -9.3408,-4.6096 83.6016,-3.1504 -11.8128,-4.5008 -10.464,-14.1792 -43.32,-3.2592 c 0,0 -3.2592,-2.4736 -8.5552,-1.2416 -0.2192,-3.368 -4.272,-7.76 -4.272,-7.76 l -26.6688,-2.0272 -16.6528,11.3664 11.248,28.8048 z"
     stroke="#000000"
     stroke-width="0.828"
     fill="#ffffff"
     id="path11" />
  <path
     d="m 708.94295,184.16634 2.20579,-7.51162 c 0,0 3.86511,-6.51802 3.86511,-9.39946 0,-2.8715 2.88144,-6.28948 2.88144,-6.28948 0,0 8.8331,-2.54362 10.71101,2.8715 9.50875,-14.36746 20.66688,-0.66571 20.66688,-0.66571 l 3.09009,-3.64651 6.29943,-7.73021 c 0,0 8.95233,8.39592 9.06163,9.8267 0.10929,1.44072 1.54008,0.44712 1.54008,0.44712 l 9.72734,-0.77501 c 0,0 4.61031,3.61671 3.64651,10.49242 3.42792,2.02694 6.51802,13.92034 6.51802,13.92034 z"
     stroke="#000000"
     stroke-width="1pt"
     fill="url(#c)"
     id="path12"
     style="fill:url(#c)" />
  <path
     d="m 794.3226,273.552 c 1.68,-1.024 6.9648,-2.704 6.32,-10.4336 -0.6448,-7.7296 -7.344,-8.6352 -11.0784,-8.376 -3.7472,0.2576 -7.0944,3.4768 -7.0944,3.4768 L 770.0986,250.36 c 0,0 6.192,-39.048 12.7584,-41.4928 6.24,-4.5008 7.344,-6.448 7.344,-7.472 0,-1.0336 -2.3168,-3.616 -2.3168,-3.616 l -40.3392,-4.7696 -38.144,4.512 c 0,0 -2.9616,4.5104 -2.5744,6.3184 0.3872,1.7984 0.5168,3.736 7.344,9.0208 7.56,5.8128 12.7568,39.1776 12.7568,39.1776 0,0 -10.6912,5.2768 -11.3376,4.6304 -0.6448,-0.6352 -3.864,-1.28 -5.544,-1.024 -1.6688,0.2592 -7.2128,3.0912 -7.2128,10.4336 0,7.3536 5.544,11.6048 5.544,11.6048 0,0 36.464,-4.2512 41.88,5.792 5.2864,-12.112 39.9424,-7.8576 44.0656,-9.9248 z"
     stroke="#000000"
     stroke-width="0.828"
     fill="#656263"
     id="path13" />
  <path
     stroke-linejoin="round"
     d="m 833.6106,232.9616 c 0,0 0.4064,-4.2416 3.4272,-6.2592 3.0304,-2.016 23.2112,-3.0304 28.0592,0 4.8384,3.0304 6.656,17.9648 6.656,17.9648 0,0 3.032,5.2464 3.2304,9.0816 0.1984,3.8352 0.6064,6.4576 0.6064,6.4576 0,0 16.1456,20.9952 16.344,39.9632 1.8192,12.9168 1.4112,47.424 -3.6256,60.5392 -0.208,16.3552 -7.0656,27.0464 -7.0656,27.0464 0,0 1.6096,2.8208 1.4112,5.8528 -0.208,3.0304 -1.8176,5.8512 -1.8176,5.8512 l 23.608,11.7056 -8.6752,-3.2304 c 0,0 8.8832,7.472 8.6752,7.2736 -0.2,-0.208 -9.888,-4.6496 -9.888,-4.6496 l 5.8528,5.8528 c -0.1984,-0.2 -14.3264,-6.4592 -14.3264,-6.4592 0,0 6.656,6.2592 6.2592,6.0608 -0.408,-0.1984 -10.7008,-5.048 -10.7008,-5.048 0,0 6.4576,6.8672 6.2592,6.4592 -0.1984,-0.408 -9.28,-4.0336 -9.28,-4.0336 l 0.3968,3.4272 c 0,0 -7.264,-0.4064 -7.264,-5.8528 -3.6352,-2.016 -6.0496,-4.848 -6.0496,-4.848 l -16.752,-2.8224 -18.9776,-56.7136 4.4416,-95.8624 1.2112,-4.84 z"
     stroke-opacity="0.979"
     stroke="#000000"
     stroke-width="0.776"
     id="path14" />
  <path
     stroke-width="0.822"
     d="m 820.9322,539.3184 c 0,0 -9.7184,-20.4384 -14.5568,-20.7264 -4.3712,-8.336 15.192,-76.4672 53.0384,-80.352 20.8064,1.7088 1.7088,23.984 -11.9728,17.1296 1.7088,5.992 8.544,14.5664 8.544,14.5664 0,0 -27.0752,11.704 -35.0528,69.3824 z"
     stroke="#000000"
     fill="#ffbb00"
     id="path15" />
  <path
     d="m 690.6506,542.2992 c 0,0 8.048,-23.2704 12.928,-23.5584 4.888,-0.288 -12.928,-77.5504 -51.7008,-78.1264 -20.968,1.728 -1.7232,24.1248 12.064,17.2288 -1.7232,6.0416 -8.616,14.656 -8.616,14.656 0,0 27.2864,11.7744 35.3248,69.8 z"
     stroke="#000000"
     stroke-width="0.828"
     fill="#ffbb00"
     id="path16" />
  <path
     d="m 726.2218,396.9664 c -0.0992,-0.1888 -9.6288,2.9904 -3.4576,13.3632 0.4672,-4.0144 4.7584,-6.448 4.7584,-6.448 0,0 -6.5376,7.76 0.3776,14.2976 0.8448,-6.1712 4.7696,-8.128 4.7696,-8.128 0,0 -4.8576,14.2976 0.0896,17.1888 0.5664,-5.7024 4.2032,-8.216 4.2032,-8.216 0,0 -4.392,12.7968 -0.4672,15.688 0.4672,-4.848 3.736,-7.0048 3.736,-7.0048 0,0 -1.9568,13.2752 3.1792,14.208 0.0992,-4.6784 3.8352,-9.248 3.8352,-9.248 0,0 -1.688,10.8288 6.3488,11.3056 0.1008,-4.112 1.5904,-8.784 1.5904,-8.784 0,0 3.648,11.488 8.9728,9.6192 -0.0896,-3.36 0.0896,-9.7184 0,-9.7184 -0.0992,0 3.3584,10.9296 9.7168,8.8832 -0.9344,-3.0896 0.368,-6.736 0.368,-6.736 0,0 3.368,6.8256 9.44,4.5792 1.032,-2.056 -0.28,-6.0704 -0.28,-6.0704 0,0 8.8736,9.1616 11.5856,3.648 2.712,-5.5136 -7.104,-7.384 -7.104,-7.384 h 6.6368 c 0,0 -2.144,-5.6032 -11.1184,-6.8256 3.0816,-1.4016 6.2608,-0.368 6.2608,-0.368 0,0 -1.8688,-7.0144 -11.0288,-7.76 3.5568,-1.2112 7.4816,-0.368 7.4816,-0.368 0,0 -1.2224,-6.6368 -11.3072,-8.504 1.5888,-1.7792 5.8816,-1.2128 5.8816,-1.2128 0,0 -4.0144,-6.2592 -8.5952,-5.8928 -4.5792,0.3776 -45.9728,-4.2016 -45.8736,-4.112 z"
     stroke="#000000"
     stroke-width="0.828"
     fill="#00713d"
     id="path17" />
  <path
     d="m 767.049,430.6976 c 0,0 3.6464,1.7792 3.5568,3.3696 m -1.4016,-6.2592 c 0,0 4.672,3.2672 4.5808,5.6928 m -0.4768,-7.3824 c 0,0 3.7456,2.3344 3.9248,5.9808 m 2.3344,-4.4816 c 0,0 1.8784,4.016 1.2224,4.76 m 2.5248,-2.6128 c 0.2768,3.1792 -0.288,3.456 -0.288,3.456 M 737.241,409.6736 c 0,0 4.392,2.8016 4.024,6.7264 m -4.3024,-3.3584 c 0,0 2.056,1.9584 1.5904,3.2688 m 3.8352,-6.5376 c 0,0 2.8912,4.016 1.9568,6.816 m 2.9904,-4.2032 c 0,0 1.312,2.5248 0.0992,3.9248 m 2.2368,-2.7104 c 0,0 1.5888,2.5216 0.1872,3.3664 m -1.9552,4.9488 c 0,0 4.1024,0.9344 4.6688,4.0144 m -2.2464,-6.816 c 0,0 4.304,0.2768 4.7696,4.8576 m 0.9344,-6.448 c 0.0896,0 2.8912,4.9584 2.424,6.5376 m 3.0896,-6.0704 c 0,0 1.1136,4.768 0.2784,6.2592 m 3.2688,-4.392 c 0,0.0992 0.0896,5.5152 0.0896,5.5152 m -5.504,-12.9872 c 0,0 2.704,1.024 2.5136,3.648 m 0.002,-6.0816 c 0,0 3.456,1.968 3.088,5.704 m 0.9344,-7.2832 c 0,0 2.992,3.5472 1.8688,7.472 m 3.3568,-6.6384 c 0,0 -1.112,4.392 -0.656,6.1712 m 3.8368,-3.1808 c 0,0 -1.9584,1.5008 -0.9344,3.3696 m -16.0656,13.7296 c 0,0 0.6448,3.3696 0,3.9264 m -4.3024,-5.8832 c 0,0 2.144,3.736 1.4,5.6048 m -5.9824,-5.792 c 0,0 2.4352,2.8 2.336,5.0464 m -6.0704,-4.4912 c 0,0 2.2448,2.1568 2.056,3.368 m -4.0144,-0.0992 c 0,0 2.1472,2.2464 2.048,2.7136"
     stroke-width="1.2416"
     stroke-linecap="round"
     stroke="#3ec26d"
     fill="none"
     id="path18" />
  <path
     d="m 696.5626,277.584 c 10.304,-0.1888 20.608,-0.368 30.912,-0.5552 0,0 20.416,0 22.624,6.6272 3.864,-8.8336 21.52,-8.2768 21.52,-8.2768 l 32.0048,-1.104 c 0.1888,25.7552 0.368,51.5088 0.5568,77.264 -6.2512,29.976 -27.96,51.1392 -51.8768,60.152 -28.5168,-9.2 -46.5392,-33.296 -52.4224,-60.7088 -1.112,-24.464 -2.216,-48.936 -3.3184,-73.3984 z"
     stroke="#000000"
     stroke-width="0.828"
     fill="#ffffff"
     id="path19" />
  <path
     d="m 707.5722,277.296 45.0192,119.968 40.6688,-122.5808 c -12.6192,0.816 -39.6848,-1.9872 -43.0432,9.52 -5.2064,-10.2944 -33.6832,-6.1424 -42.6448,-6.9072 z"
     stroke="#000000"
     stroke-width="0.828"
     fill="#006b00"
     id="path20" />
  <path
     d="m 738.2138,342.248 c 1.7392,0.904 1.6896,-32.56 3.9648,-33.5936 0.6464,-2.7728 0.9744,-3.984 1.7888,-6.9248 -1.9568,-3.4688 -10.72,-3.2992 -13.9696,-0.3488 1.4608,4.6704 2.1056,6.2304 2.1056,6.2304 4.392,7.104 3.5184,35.392 6.112,34.6368 z"
     stroke="#006b00"
     stroke-linecap="round"
     stroke-width="0.6848"
     fill="#ffc900"
     id="path21" />
  <path
     stroke-linejoin="round"
     d="m 726.1514,83.6016 c 0,0 3.1904,-3.6144 3.328,-4.48 0.1504,-0.8688 14.4576,-1.4464 22.984,-17.3472 4.768,-8.384 0,-3.4688 0,-3.4688 l -0.288,-4.048 c 0,0 5.9312,-5.6368 3.7648,-8.6736 -2.176,-3.0352 -1.4512,3.904 -4.9184,3.76 -3.4672,-0.144 -1.5904,-7.5184 -1.5904,-7.5184 0,0 -0.288,-0.8672 -1.3008,-1.3008 -1.4512,0.144 -1.0128,2.7472 -2.3152,3.0352 -1.3008,0.2896 -2.4544,-6.0704 -2.4544,-6.0704 0,0 -2.1664,-2.8912 -4.0544,6.216 1.0144,9.6848 7.2336,7.8048 7.2336,14.1664 0,6.36 -5.4944,11.2752 -7.0832,11.4192 -1.5904,0.144 -1.0144,-5.3488 -1.0144,-5.3488 0,0 -0.864,-2.6016 -1.44,-2.6016 -0.576,0 3.1792,-0.5776 2.6032,-7.8064 -1.3024,-8.672 -2.3152,2.024 -4.6304,1.5904 -2.3152,-0.432 -0.576,-7.9504 0.288,-8.816 0.864,-0.8656 -1.0128,-4.4832 -6.0704,4.768 -0.4384,4.4816 -1.0144,-1.1552 -2.0272,-0.8672 -1.728,3.616 -1.44,6.216 1.0128,9.5408 3.616,3.3248 5.9328,6.6496 5.784,8.384 -0.1392,1.736 -2.0272,5.6384 -4.6208,5.6384 -2.6032,0 0.1392,-4.7712 0,-6.3616 -0.1488,-1.5888 -4.48,-7.3712 -4.48,-7.3712 0,0 -3.0416,-4.9152 -2.7536,-5.0592 0.288,-0.144 -0.288,-0.8672 -1.728,4.192 -1.4512,5.0592 -3.1904,-3.3248 -3.1904,-3.3248 0,0 -2.016,6.2144 2.3152,9.9744 -3.3184,-0.4336 -3.6064,0.8672 -3.6064,0.8672 0,1.7344 4.48,2.4576 5.056,5.4928 0.576,3.0352 -4.6288,4.7696 -4.6288,4.7696 0,0 2.176,3.0352 8.2368,-2.8896 0.1488,3.7568 -2.304,6.36 -2.304,6.36 2.016,0.9152 3.6048,0.8176 3.8928,3.1792 z"
     stroke="#000000"
     stroke-width="0.776"
     fill="#cdad56"
     id="path22" />
  <path
     stroke-linejoin="round"
     d="m 706.3194,83.6016 c 0,0 -2.7024,-4.0112 -2.8208,-4.8 -0.1296,-0.7888 -13.296,0.9968 -19.5232,-15.0608 -4.0512,-7.6304 0,-3.1568 0,-3.1568 l 0.2464,-3.6832 c 0,0 -4.312,-5.2752 -2.4704,-8.0368 1.8416,-2.7616 1.0832,3.552 3.4512,3.5632 2.944,-0.1312 1.3504,-6.84 1.3504,-6.84 0,0 0.2448,-0.7888 1.104,-1.184 1.2256,0.1328 1.7312,4.0896 2.8352,4.352 1.104,0.2624 3.3872,-4.656 4.1024,-5.6672 1.0144,-0.144 0.976,-4.0768 2.5744,4.2096 -0.8544,8.8128 -8.1584,7.104 -8.1584,12.8912 0,5.7872 4.6608,10.2592 6.0128,10.3904 1.3504,0.1312 0.864,-4.8656 0.864,-4.8656 0,0 0.736,-2.368 1.2224,-2.368 0.496,0 -4.2928,0.9184 -3.7968,-5.6576 1.104,-6.1568 3.5472,0.3968 5.5152,0 1.968,-0.3936 -0.2288,-6.5104 0.3376,-7.4448 0.128,-0.9328 3.0208,-4.944 4.144,3.9072 0.368,4.0784 2.592,-3.5088 3.448,-3.2464 1.48,3.288 -0.6464,7.68 -2.7328,10.7056 -3.072,3.024 -4.4624,6.3392 -4.3328,7.9184 0.12,1.5776 0.8448,3.5392 3.0608,3.5392 2.2064,0 0.7456,-2.752 0.864,-4.1968 0.1184,-1.4448 3.8064,-6.1312 3.8064,-6.1312 0.7248,-1.1552 0.1184,-3.3152 0.8832,-4.3136 1.2032,0.0128 1.6992,-1.656 2.9216,2.9472 1.232,4.6032 2.704,-3.0256 2.704,-3.0256 0,0 1.7168,5.656 -1.968,9.0768 2.8208,-0.3952 3.0688,0.7888 3.0688,0.7888 0,1.5776 -1.3408,2.2352 -1.8368,4.9968 -0.496,2.7616 1.4704,4.3408 1.4704,4.3408 0,0 -1.84,2.7632 -6.9952,-2.6304 -0.128,3.4192 1.968,5.7872 1.968,5.7872 -1.7296,0.8336 -3.072,0.7456 -3.32,2.896 z"
     stroke="#000000"
     stroke-width="0.682"
     fill="#cdad56"
     id="path23" />
  <path
     d="m 785.7482,295.1904 c -2.6928,-2.4432 -3.0112,-0.3072 -4.3328,-0.8544 -0.656,-0.2672 -1.1616,-0.8736 -1.728,-1.4304 -0.4864,-0.5072 -1.072,-0.7152 -1.7184,-0.984 -0.2496,0.7264 -0.488,1.44 -0.736,2.1664 -0.248,0.7264 0.6864,1.928 0.6656,3.0112 -0.1888,1.6096 -0.8448,2.9504 -2.872,3.4976 0.576,-1.1424 0.9056,-1.192 0.7264,-2.5936 -0.08,-0.696 -2.0368,-1.9376 -1.7984,-2.592 0.3568,-1.064 0.9728,-2.288 0.5168,-3.3504 -0.8256,0.5664 -1.9184,0.2688 -2.7424,0.616 -0.7056,0.3088 -0.7456,1.6096 -1.72,2.1472 -0.992,0.4672 -3.1888,0.2384 -5.0272,-0.8048 1.1232,-0.8448 2.048,-0.2784 3.1696,-1.1232 0.5568,-0.4272 0.536,-2.2448 1.0928,-2.672 0.5664,-0.4288 1.9088,-0.8752 2.464,-1.3024 -0.5056,-0.576 -0.4768,-1.48 -0.9824,-2.056 -0.4976,-0.576 -2.7328,-0.4576 -3.24,-1.024 -1.0128,-1.152 -0.816,-2.6624 -1.8288,-3.8064 2.6144,0.9344 2.2368,2.208 2.8928,2.1072 1.232,-0.5968 2.464,-0.704 3.1088,-0.4368 0.656,0.2784 1.888,1.888 2.5344,2.1552 0.248,-0.7248 0.6064,-1.6384 0.8448,-2.3648 0.248,-0.7248 -1.0928,-1.976 -0.8544,-2.7024 0.496,-1.44 1.7088,-2.7216 2.1952,-4.1728 0.1792,1.4016 0.408,2.5728 0.5856,3.9648 0.0896,0.6944 1.4608,1.0624 1.552,1.7584 0.088,0.704 -0.7168,2.3152 -0.6368,3.0208 0.7552,-0.1488 1.8384,-0.0496 2.5824,-0.1984 0.7552,-0.1504 1.2528,-1.888 1.9984,-2.0368 1.4992,-0.2992 2.5824,-0.208 4.1024,0.08 -1.1216,1.0416 -1.9872,0.9728 -2.6928,1.9264 -0.5552,0.4272 0.2192,1.8288 -1.4,2.8112 -0.608,0.3584 -2.2064,-0.0688 -2.7728,0.3584 0.5072,0.576 1.0144,1.1424 1.52,1.7184 0.496,0.576 2.7632,0.8448 3.2688,1.4208 1.0048,1.1424 1.5408,2.5136 1.2624,3.7456 z m -69.224,1.1824 c 2.6928,-2.4432 3.0112,-0.3072 4.3424,-0.8544 0.6448,-0.2768 1.152,-0.8832 1.7184,-1.4304 0.4864,-0.5072 1.072,-0.7152 1.7184,-0.992 0.2496,0.7248 0.496,1.4496 0.736,2.176 0.248,0.7248 -0.6752,1.9168 -0.656,3 0.1792,1.6192 0.8352,2.9504 2.8624,3.5072 -0.576,-1.1424 -0.9056,-1.2032 -0.7264,-2.5936 0.0896,-0.696 2.0368,-1.9376 1.7984,-2.6032 -0.3568,-1.0528 -0.9728,-2.2848 -0.5168,-3.3488 0.8352,0.576 1.9184,0.2784 2.752,0.616 0.696,0.3184 0.7456,1.6192 1.7104,2.1568 1.0032,0.4672 3.2,0.2384 5.0272,-0.8048 -1.1232,-0.8544 -2.048,-0.2784 -3.1696,-1.1328 -0.5568,-0.4176 -0.528,-2.2464 -1.0928,-2.664 -0.5568,-0.4272 -1.8976,-0.8832 -2.464,-1.312 0.5056,-0.5648 0.4768,-1.48 0.9824,-2.056 0.5072,-0.5664 2.7424,-0.448 3.24,-1.024 1.0128,-1.1408 0.824,-2.6512 1.8288,-3.8048 -2.6144,0.9344 -2.2256,2.2064 -2.8816,2.1168 -1.2432,-0.5968 -2.4752,-0.7152 -3.12,-0.4368 -0.6464,0.2672 -1.888,1.8768 -2.5344,2.1552 -0.248,-0.7248 -0.5952,-1.6384 -0.8448,-2.3648 -0.2496,-0.7264 1.104,-1.976 0.8544,-2.7024 -0.4864,-1.4496 -1.7088,-2.7216 -2.1952,-4.1728 -0.1792,1.392 -0.408,2.5632 -0.5856,3.9648 -0.0896,0.6944 -1.4608,1.0624 -1.552,1.7584 -0.0784,0.696 0.7264,2.3152 0.6368,3.0112 -0.7552,-0.1504 -1.8384,-0.0496 -2.5824,-0.1888 -0.7456,-0.16 -1.2432,-1.8992 -1.9984,-2.048 -1.4992,-0.2976 -2.5728,-0.208 -4.1024,0.08 1.1216,1.0528 1.9872,0.9744 2.6928,1.9376 0.5552,0.4272 -0.2192,1.8288 1.4,2.8112 0.608,0.3584 2.216,-0.0688 2.7728,0.3584 a 118.288,118.288 0 0 0 -1.5104,1.7184 c -0.5072,0.576 -2.7728,0.8448 -3.2688,1.4112 -1.0144,1.152 -1.5504,2.5232 -1.272,3.7552 z"
     fill="#ffc900"
     id="path24"
     style="stroke-width:1.6" />
  <path
     stroke-linejoin="round"
     d="m 783.3338,302.9216 c -2.4448,1.8976 -18.192,5.8816 -18.3616,19.5632 -0.16,13.6832 2.7616,16.8016 -0.16,17.1504 -5.6832,0 -6.496,-15.2416 -6.3376,-22 0.168,-6.7552 0.3264,-5.712 0.3264,-5.712 0,0 3.896,1.0336 3.5776,4.3328 -0.328,3.288 3.8944,-8.1488 2.4352,-11.2576 2.592,2.592 6.0112,1.56 6.0112,1.3808 0,-0.1696 -1.9488,-2.2464 -2.7632,-3.8048 -0.8144,-1.5584 2.9216,0.864 2.9216,0.864 0,0 0.16,-2.6032 -3.0896,-2.424 -4.224,0 0.656,-1.392 0.656,-1.392 0,0 2.4336,2.256 4.064,-0.168 -1.7888,-1.9088 -4.392,-2.952 -4.392,-2.952 0,0 -2.2768,-4.3216 -5.3568,-5.1856 -3.576,-0.8752 -3.088,1.5488 -7.152,1.2112 -0.8064,1.5504 -0.8064,1.728 0.8128,2.2464 -2.7616,1.9072 -1.3008,5.712 -1.3008,5.712 0,0 4.392,-1.8976 4.224,1.2128 -0.16,3.12 -2.5952,2.6032 -4.224,0.696 -1.4608,-0.864 -1.9472,0.864 -1.9472,0.864 l 2.2752,2.424 c 0,0 -4.3824,-0.168 -5.5248,2.7728 2.4352,-0.1696 3.736,0.5264 3.736,0.5264 0,0 -5.0368,2.2448 -5.5248,3.4576 -0.488,1.2128 -0.6448,-1.3808 -0.8048,-1.3808 -0.168,0 -4.8784,-1.7392 -4.8784,-1.7392 l -1.6288,7.4912 c 0,0 3.2592,3.2496 5.0368,2.208 1.7888,-1.0352 5.0384,-4.1552 6.9856,-3.2896 -5.6832,4.3312 -11.3664,10.56 -14.4576,11.4352 -0.8048,-0.6944 -3.568,-3.4672 -4.7088,-2.0864 -1.1328,1.392 -0.3184,3.12 1.1424,2.952 1.4608,-0.1792 -4.7104,1.3808 -3.4176,3.984 1.3008,2.592 1.1424,2.424 2.2752,1.728 1.1424,-0.6944 -0.9744,-0.864 3.248,-2.0768 4.2224,-1.2128 4.064,-2.424 4.064,-2.424 0,0 -0.8144,1.8976 -3.0896,2.424 -2.2752,0.5168 -4.0544,0.5168 -3.568,1.2128 0.488,0.6864 1.4608,1.8976 1.1344,2.592 -0.3264,0.6944 4.7088,-3.6352 6.0112,-0.168 3.408,-0.1792 5.6832,-4.3312 4.064,-6.7568 0.1584,2.5936 1.7872,3.4688 0.8032,4.68 -0.9728,1.2128 7.6416,-3.984 3.4192,-7.104 1.1328,2.5936 1.3008,4.68 1.3008,4.68 0,0 1.9472,-0.1792 2.4352,-0.8736 0.4864,-0.6864 -0.9744,1.9072 -0.328,2.424 0.6448,0.5264 3.736,3.4672 2.4336,5.544 -0.8048,-1.2128 -0.9728,-3.12 -1.9472,-2.9408 -0.9744,0.168 -5.0368,3.12 -7.472,3.288 -2.4352,0.168 2.9216,9.0128 2.9216,9.0128 0,0 -3.736,-0.528 -4.224,-0.1792 -0.488,0.3488 -2.92,-3.12 -3.408,-1.0336 -0.8144,2.5936 0.816,1.5504 0.816,1.5504 0,0 -2.1168,-1.0336 -3.248,0.1792 -1.144,1.2112 -2.2768,2.424 -1.4624,2.9408 0.8048,0.5168 4.3824,0.5168 4.8688,0.3472 0.4864,-0.1696 -4.064,0.3488 -4.3808,0.864 -0.328,0.5184 -0.9744,2.4256 0,3.12 0.9744,0.6944 3.408,-0.3472 3.5664,-0.864 0.168,-0.5264 0.328,1.8976 0.328,1.8976 0,0 4.224,0.3488 4.224,-3.9744 0,-4.3312 0.3264,3.1104 0.3264,3.1104 0,0 4.224,0.696 4.3824,-3.6368 0.168,-4.3216 0.4864,2.952 0.4864,2.952 0,0 2.7616,-0.8752 2.7616,-1.56 0,-0.696 -0.1584,8.6544 -2.1056,11.2576 -3.0912,-2.088 -5.0384,1.3808 -5.0384,1.3808 0,0 0.16,5.0176 -0.168,6.2288 -0.3184,1.2128 2.1152,-0.6848 2.2752,-1.2112 0.168,-0.5168 3.0896,-1.8976 3.248,-2.2464 0.1696,-0.3472 0.976,-2.0768 0.976,-2.0768 0,0 -0.648,2.4256 -1.7792,2.7728 -1.144,0.3376 -2.2768,1.5504 -1.7888,2.592 0.488,1.0416 2.2752,1.7296 2.92,2.7728 0.6464,1.0336 2.9216,-6.0608 2.9216,-6.0608 l 0.1696,1.56 c 0,0 2.92,-0.6944 3.248,-2.0768 0.32,-1.3904 -3.088,-2.6032 -0.328,-4.848 2.7632,-2.256 0,2.0768 0,2.0768 0,0 0.976,3.288 1.6208,3.288 0.656,0 2.2752,-6.24 0.656,-7.7888 -1.6304,-1.56 2.4336,1.8976 2.4336,1.8976 0,0 2.2752,-6.4096 -0.16,-7.2736 -2.4432,-0.864 -3.576,-1.2128 -3.576,-1.2128 0,0 1.3024,-1.728 0.6464,-1.8976 -0.6464,-0.1776 3.4176,3.8064 4.064,2.7632 0.656,-1.0336 1.6288,-4.1536 -3.08,-5.8832 -4.72,-1.728 -0.1696,-6.5872 -0.1696,-6.5872 0,0 2.9312,3.4672 5.0368,1.56 2.1072,-1.8976 -0.1584,-1.8976 -0.1584,-1.8976 0,0 6,-3.816 6.1696,-5.7232 -1.1424,-0.168 -3.088,0.1792 -3.088,0.1792 0,0 3.416,-2.256 2.6016,-5.8928 -1.3008,1.9088 -3.0896,1.9088 -3.0896,1.9088 0,0 2.9312,-2.9408 2.4336,-5.7136 -1.7776,1.3808 -1.6192,2.424 -2.7616,2.0768 -1.1328,-0.3488 -3.08,-11.2576 1.4704,-11.952 4.5408,-0.688 2.1072,5.3744 2.2656,5.3744 0.168,0 6.8256,-2.7728 0,-7.2736 1.6288,-0.528 5.0368,2.592 5.0368,2.592 0,0 -1.4608,-7.6192 -8.7728,-2.9392 1.7888,-1.9088 2.9312,-3.12 4.392,-2.7728 1.4608,0.3472 6.656,-0.1792 6.656,-1.728 -1.2912,-1.0432 -4.0528,0.5168 -5.5232,0 -1.4608,-0.528 10.4032,-1.392 9.4288,-7.2736 z"
     stroke="#006b00"
     stroke-linecap="round"
     stroke-width="0.6848"
     fill="#ffc900"
     id="path25" />
  <path
     d="m 731.83793,307.41482 c 0,0 6.49936,-3.63702 9.74639,0.87107 m 2.59974,6.92334 c -0.16447,0 -2.2761,2.25121 -2.76422,2.25121 m 7.15195,5.02281 c 0,0 6.00594,0.52039 9.90556,-5.88823"
     stroke="#006b00"
     stroke-linecap="round"
     stroke-width="0.684769"
     fill="none"
     id="path26" />
  <path
     d="m 755.06584,320.57707 c 0,0 0.48812,3.46733 1.46435,3.46733 0.97093,0 -1.62351,0.86542 -2.59974,0.16969 1.13539,1.56114 1.78798,4.33274 0,5.36785"
     stroke="#006b00"
     stroke-linecap="round"
     stroke-width="0.684769"
     fill="none"
     id="path27" />
  <path
     d="m 751.97799,364.22124 c 0,0 -2.11163,2.4209 -4.71138,2.59625"
     stroke="#006b00"
     stroke-linecap="round"
     stroke-width="0.684769"
     fill="#e80000"
     id="path28" />
  <path
     d="m 754.41856,353.13485 c 0,0 -1.29987,-6.92333 -0.48811,-8.65982 0.48811,-2.25122 2.59974,-3.11664 4.22325,-6.05792"
     stroke="#006b00"
     stroke-linecap="round"
     stroke-width="0.684769"
     fill="none"
     id="path29" />
  <path
     d="m 753.76597,348.11204 c 0,0 -1.62351,4.15739 -8.77015,2.7716 m 10.72261,-13.16226 c 0,0 0.48281,5.54319 -6.01124,3.46732 m -1.95246,-28.40038 c 0,0 -2.59975,2.42091 -1.62352,5.71288"
     stroke="#006b00"
     stroke-linecap="round"
     stroke-width="0.684769"
     fill="none"
     id="path30" />
  <path
     d="m 757.4986,306.7248 c 0,0 3.4112,-1.3856 4.064,-2.08 0.6464,-0.6912 1.7872,-2.0768 2.112,-3.1184 0.3232,-1.0352 -2.2768,-2.5968 -0.976,-4.848 0.8112,-1.0384 1.9456,-1.2112 3.8992,0 1.9456,1.2112 -1.7888,-3.808 -3.736,-3.9808 -1.952,-0.1744 -3.2528,1.384 -3.7344,1.0384 -0.488,-0.3472 0.16,1.3856 -0.6528,1.3856 -0.8128,0 1.6224,1.3856 1.464,2.2528 -0.1648,0.8656 2.5952,3.808 2.4352,4.5024 -0.1648,0.6912 -4.064,4.672 -4.8752,4.848 z"
     fill="#006b00"
     id="path31"
     style="stroke-width:1.6" />
  <path
     stroke-linejoin="round"
     d="m 759.94169,295.29445 c 1.48026,-0.35974 1.71902,0.0396 1.45904,1.38524 -0.69503,-0.37332 -0.9497,-0.68838 -1.45904,-1.38524 z"
     stroke="#ffc900"
     stroke-linecap="round"
     stroke-width="0.684769"
     fill="#ffc900"
     id="path32" />
  <path
     stroke-linejoin="round"
     d="m 749.56394,372.45118 c 0,0 -0.54648,3.62571 0.79053,3.92549 -0.069,-1.40277 0.2865,-2.35868 0.61545,-2.732 -0.2865,-0.14141 -1.34232,-1.17086 -1.40598,-1.19349 z m -3.01358,-4.46283 c -1.2309,-0.18666 -3.30539,0.89935 -2.71116,2.21162 1.00275,-0.91632 1.92593,0.0735 2.62627,-0.85976 0.21222,-0.26019 0.15386,-1.0238 0.0849,-1.35186 z m -0.0106,-2.5906 c 0,0 -1.93655,-0.32806 -2.20713,1.10299 1.33701,-0.18101 1.73493,-0.33373 2.1806,-0.0339 0.12733,-0.30544 0.005,-0.99551 0.0265,-1.06905 z"
     stroke="#006b00"
     stroke-width="0.684769"
     fill="#e80000"
     id="path33" />
  <path
     stroke-linejoin="round"
     d="m 738.33198,344.97278 c 0,0 1.16193,0.46382 1.49088,1.73084 0.92317,-0.61089 1.36354,-3.29764 -1.49088,-1.73084 z m -2.87563,3.0827 c 0.0477,-0.0226 2.43527,-1.5668 2.67933,-0.0905 -0.50404,0.53735 -0.72687,0.88804 -1.11949,1.00682 -0.30772,0 -0.92317,-1.00682 -1.55984,-0.91632 z m -0.23875,5.00584 c 0.0424,-0.0226 1.53331,-1.42539 2.10632,-0.4921 0.5677,0.93895 -0.46159,0.88804 -0.46159,0.88804 0,0 -0.52525,-0.25453 -1.64473,-0.39594 z m -2.10633,-27.87435 c -0.0212,0 -1.91001,-0.77491 -2.70055,0.62786 1.25212,0.16403 1.69249,0.6335 2.26019,1.10298 -0.15387,-0.58826 -0.41384,-1.4763 0.44036,-1.73084 z m -3.66086,10.49813 c 0,0 0.0849,-2.35868 1.1354,-3.32026 0.59422,0.3507 0.76931,0.91067 1.16723,1.61206 -0.79054,0.18665 -1.84635,0.23756 -2.30263,1.7082 z m 5.04032,-1.68558 c 0,0 -2.0798,1.02945 -1.40068,2.15506 0.67912,-0.77492 1.42721,-0.53735 1.42721,-0.55998 0,-0.0226 0,-1.5668 -0.0265,-1.59508 z"
     stroke="#006b00"
     stroke-width="0.547815pt"
     fill="#e80000"
     id="path34" />
  <path
     stroke-linejoin="round"
     d="m 731.48776,311.40818 c -0.74809,0.8937 0.92317,2.83382 2.67402,2.551 0.44037,-2.10415 -2.23366,-3.20148 -2.67402,-2.551 z"
     stroke="#006b00"
     stroke-width="0.547815pt"
     fill="#ffc900"
     id="path35" />
  <path
     d="m 731.4634,307.3408 c -0.3664,0.9904 1.088,2.3824 1.9312,1.992 0.3408,-1.0192 -1.5488,-2.7776 -1.9312,-1.992 z"
     fill="none"
     id="path36"
     style="stroke-width:1.6" />
  <path
     stroke-linejoin="round"
     d="m 733.419,309.79613 c 0,0 0.32894,1.66296 1.84104,1.21611 -0.23875,-1.28399 -1.29457,-2.24556 -1.29457,-2.24556 -0.0637,0.37897 0.21753,0.96157 -0.54647,1.02945 z m 1.00806,4.81918 c 0,0 0.83298,0.95592 2.47772,-1.00682 -0.74279,0.23191 -2.05858,-0.46948 -2.05858,-0.46948 0,0 0,1.35752 -0.41914,1.4763 z"
     stroke="#006b00"
     stroke-width="0.547815pt"
     fill="#e80000"
     id="path37" />
  <path
     stroke-linejoin="round"
     d="m 731.39226,307.59582 c -0.74279,0.88804 0.31303,2.12678 2.06388,1.84962 0.44036,-2.10415 -1.62352,-2.5001 -2.06388,-1.84962 z"
     stroke="#006b00"
     stroke-width="0.547815pt"
     fill="#ffc900"
     id="path38" />
  <path
     d="m 732.09383,299.28483 c 0,0 6.99495,-1.99713 10.71101,1.00354 3.70613,2.99073 3.70613,0.27821 3.70613,0.27821 0,0 5.42505,1.99713 6.99494,1.56988 1.56989,-0.42724 -1.14264,0.14904 0.9936,-1.14264 2.14618,-1.28174 -4.28241,0.28815 -4.84877,-2.42438 -1.00353,-1.70899 0.13911,-3.85517 -2.13624,-3.13978 -1.56988,-1.99713 0.9936,-3.41798 0.42725,-5.56416 -1.56989,1.14264 -2.43432,-0.42724 -3.71606,2.42439 -2.99074,-0.56635 -0.42725,-4.70967 -3.70613,-5.13691 0,3.00067 -2.42438,3.13977 -2.57342,4.8587 -1.42085,0.9936 -7.7004,4.70966 -5.85231,7.27315 z"
     fill="url(#d)"
     id="path39"
     style="fill:url(#d);stroke-width:0.9936" />
  <path
     d="m 651.6154,526.7792 c 4.5376,-1.0928 29.12,5.4352 38.5984,15.5904 -2.016,-18.0944 -7.0272,-31.9552 -7.0272,-31.9552 0,0 -14.648,-4.1824 -16.6592,-2.1648 -2.9488,3.0992 -11.808,12.4096 -14.912,18.5296 z m -7.4928,-83.5808 c -1.7232,0.288 -3.4464,1.44 -5.1696,4.312 -2.0112,4.8784 -3.4464,17.2288 -6.32,20.1008 -2.8736,2.872 -5.456,3.1584 -5.456,5.752 0,2.584 0.288,8.6144 8.0416,10.9104 7.7552,0.288 20.1072,-12.352 20.1072,-12.352 0,0 6.32,-6.8944 8.9024,-14.3568 -14.9344,5.168 -25.5632,-8.624 -20.1056,-14.368 z"
     stroke="#000000"
     stroke-width="0.828"
     fill="#c01500"
     id="path40" />
  <path
     stroke-width="0.822"
     d="m 860.1386,523.8976 c -4.5008,-1.0832 -29.36,5.4064 -38.7696,15.5008 1.9968,-17.984 6.976,-31.776 6.976,-31.776 1.7376,-0.4672 14.376,-4.152 16.3728,-2.1456 2.9216,3.08 12.3408,12.3408 15.4208,18.4208 z m 6.9648,-83.0944 c 1.7104,0.288 2.3152,2.5344 3.7168,5.3952 1.9872,4.848 4.0448,11.9232 6.896,14.7744 2.8512,2.8624 5.4144,7.0848 5.4144,9.6576 0,2.5728 -0.5952,6.0416 -8.296,8.3264 -7.6912,0.288 -18.848,-9.5968 -18.848,-9.5968 0,0 -6.2704,-6.848 -8.8336,-14.2784 14.824,5.1472 24.4224,-8.088 19.952,-14.2784 z"
     stroke="#000000"
     fill="#c01500"
     id="path41" />
  <path
     d="m 635.5066,510.992 c 0,0 15.5088,10.6208 15.7984,15.5088 41.6512,-61.7616 147.9264,-81.008 208.5264,-4.312 8.048,-10.632 16.3744,-14.0688 16.3744,-14.0688 -63.76,-83.304 -190.7216,-72.96 -240.6992,2.8704 z"
     stroke="#000000"
     stroke-width="0.828"
     fill="#ffbb00"
     id="path42" />
  <g
     stroke-width="1pt"
     stroke="#000000"
     fill="#1e5aa6"
     id="g45"
     transform="matrix(1.6,0,0,1.6,-149.8406,0)">
    <path
       d="m 589.6,171.69 3.794,-0.094 -6.776,8.583 8.13,9.488 -15.991,20.146 15.09,18.158 c -1.658,4.067 -3.583,7.768 -6.148,11.116 l -8.67,-9.582 15.718,-19.6 -12.916,-14.636 7.768,-23.58 z m -54.208,1.713 -4.067,0.094 7.588,8.215 -8.036,10.03 16.712,18.164 -13.824,18.518 c 1.658,4.068 4.037,8.582 6.595,11.923 l 8.222,-10.39 -16.891,-18.79 12.377,-15.718 z"
       stroke-width="0.828"
       id="path43" />
    <path
       d="m 554.184,222.19 -5.962,7.948 21.319,24.666 c 3.763,-1.9 6.72,-4.067 9.942,-6.682 l -11.116,-12.83 4.521,-13.283 6.502,7.496 -20.325,25.933 c -3.403,-1.447 -7.167,-3.708 -10.57,-6.509 l 10.75,-13.637 -5.061,-13.103 z m -6.595,-12.377 3.887,4.88 -2.534,-6.594 z"
       stroke-width="0.828"
       id="path44" />
    <path
       stroke-width="0.802"
       d="m 575.416,214.129 c 0.08,-0.094 3.136,-4.161 3.136,-4.161 l -1.186,-1.62 -1.95,5.78 z"
       id="path45" />
  </g>
  <g
     stroke="#fff700"
     stroke-linecap="round"
     stroke-width="0.828"
     fill="none"
     id="g51"
     transform="matrix(1.6,0,0,1.6,-149.8406,0)">
    <path
       d="m 620.339,146.266 c 0,0 3.75,-3.21 6.42,-3.304"
       id="path46" />
    <path
       d="m 620.879,145.819 c 0.087,-0.087 22.387,-3.21 23.095,-3.925 m -23.008,4.105 c 0.087,-0.093 24.97,-2.143 24.97,-2.143 m -25.057,2.23 c 0,0 26.486,-1.249 28.094,0.093"
       id="path47" />
    <path
       d="m 620.786,145.999 c 0,0 25.958,0.18 26.405,0.8 m -26.312,-0.8 24.97,2.049 m -25.237,-1.869 c 0.087,0 25.418,2.23 27.914,5.44"
       id="path48" />
    <path
       d="m 649.861,156.164 c -0.087,-0.086 -8.65,-10.258 -29.342,-10.078"
       id="path49" />
    <path
       d="m 620.612,146.266 c 0,0 14.357,0.98 18.903,5.974"
       id="path50" />
    <path
       d="m 620.879,146.086 c 0,0 9.272,-1.783 18.996,9.905"
       id="path51" />
  </g>
  <path
     d="m 834.21604,250.71766 c 0,0 20.58736,0.81476 20.58736,2.83176 0,2.01701 -15.34115,5.85231 -15.53987,14.32772 -0.19872,8.4754 11.70457,9.0815 12.50947,19.77264 0.8048,10.70107 -9.28027,12.3107 -11.29728,15.14246 -2.02694,1.41091 -6.86578,16.54344 -6.25968,25.42622 0.6061,8.88279 3.2292,38.94912 7.86931,45.01008 3.63658,2.82183 9.08155,11.90333 14.93385,9.08151 5.8523,-2.83176 1.8182,-13.11552 1.2122,-15.94728 -0.6061,-2.82183 2.4243,-7.46194 2.4243,-11.70461 0,-4.24267 -2.2256,-7.67059 -2.017,-8.67413 0.1987,-1.01347 16.3447,3.8353 15.3313,19.77264 -1.0036,15.94728 -7.462,11.09851 -7.462,11.09851 0,0 2.017,19.58386 -3.0304,22.20696 -9.0815,4.83884 -15.73866,-1.01347 -15.73866,-1.01347 l 0.85449,3.98434 -6.90552,-3.57696 c 0,0 -8.88278,-12.71808 -10.89979,-18.37167 -2.01701,-5.64364 -4.44139,-30.87115 -3.63658,-36.32601 0.80482,-5.44493 1.41092,-37.33949 1.01348,-38.94912 -0.40738,-1.61957 -2.01701,-28.25799 -1.01348,-32.292 1.01348,-4.03402 7.26322,-21.79959 7.0645,-21.79959 z"
     stroke="#000000"
     stroke-width="1pt"
     fill="url(#e)"
     id="path52"
     style="fill:url(#e)" />
  <path
     d="m 812.0186,245.472 c 0,0 14.328,-13.92 22.6048,-12.312 4.232,0 0.1984,3.032 0.1984,3.032 0,0 7.264,0.6048 8.2768,3.8352 0.1984,1.4096 -3.4384,1.8176 -3.4384,1.8176 0,0 3.032,0.6064 3.2304,3.2288 0.208,2.624 -30.672,0.5968 -30.872,0.3984 z"
     stroke="#000000"
     stroke-width="0.828"
     fill="#ff7000"
     id="path53" />
  <path
     d="m 812.8234,244.864 c 0,0 15.3424,-2.016 21.8,-8.4736"
     stroke="#000000"
     stroke-width="0.828"
     fill="none"
     id="path54" />
  <path
     d="m 828.3642,240.632 c 0,0 11.296,-0.4064 11.296,1.2128"
     stroke="#000000"
     stroke-width="0.828"
     fill="none"
     id="path55" />
  <path
     stroke-linejoin="round"
     d="m 868.5258,405.72 c 0,0 9.6864,-2.2256 12.3104,-5.6544 1.6192,-1.2128 10.096,12.7184 -12.3104,5.6544 z"
     stroke="#000000"
     stroke-width="0.776"
     fill="#ffffff"
     id="path56" />
  <path
     d="m 865.9034,325.5952 c 0,0 1.2112,7.472 -2.2176,12.5088 -1.8176,2.0176 -7.272,5.456 -7.272,7.88 0,2.416 2.016,5.6432 1.6192,8.4752 -0.408,2.8224 -3.4288,5.6544 -3.2288,8.0688 0,2.424 3.4272,15.3408 3.0192,15.5392 m -9.6768,-76.6864 c 0,0 -7.6704,2.624 -9.2912,10.2944"
     stroke="#ffffff"
     stroke-linecap="round"
     stroke-width="0.776"
     fill="none"
     id="path57" />
  <path
     d="m 844.9066,240.632 c 0,0 2.6336,7.264 11.1088,0.3984 -5.456,-7.4624 -11.1088,-0.1984 -11.1088,-0.3984 z"
     stroke="#000000"
     stroke-width="0.828"
     fill="#c75b00"
     id="path58" />
  <path
     d="m 851.1706,240.3264 c 0,0.3904 -0.4064,0.7072 -0.9088,0.7072 -0.5024,0 -0.9072,-0.3168 -0.9072,-0.7072 0,-0.3888 0.4064,-0.7056 0.9072,-0.7056 0.5008,0 0.9088,0.3168 0.9088,0.7056 z"
     id="path59"
     style="stroke-width:1.6" />
  <path
     d="m 775.6042,223.7712 c 0,0 16.0752,17.3984 26.48,17.2096 1.888,5.1072 -4.7312,9.856 -7.3744,12.1216 -5.296,-1.6992 -10.0848,0.3072 -22.3744,-14.816 0.7648,-9.648 3.456,-14.1376 3.2688,-14.5152 z m 21.7488,-40.4688 c 2.0768,-6.4288 6.24,-11.536 9.8272,-12.1024 -0.944,-4.9184 7.5712,-26.6592 32.3424,-34.9856 1.5088,11.1584 -10.592,22.128 -10.592,22.128 0,0 36.4944,-6.24 43.8672,-15.5104 -0.7552,4.1632 -8.128,30.0672 -47.088,29.8784 14.7552,14 -4.72,25.1584 -13.0448,21.7504 15.3216,-11.7248 -4.3424,-18.72 -15.312,-11.1584 z"
     stroke="#000000"
     stroke-width="0.828"
     fill="#ffffff"
     id="path60" />
  <path
     d="m 809.833,174.2304 c 7.3728,-4.7296 10.016,-4.7296 16.0768,-3.7856 -4.352,0.5664 -4.352,0.7552 -4.352,0.7552 0,0 -0.3776,0.5664 2.2656,3.0304 -3.0208,-0.7648 -5.6736,-2.464 -13.9904,0 z"
     stroke="#cccccc"
     stroke-width="0.828"
     fill="#cccccd"
     id="path61" />
  <path
     d="m 806.9914,171.2 c 0,0 14.5664,-7.7504 22.6944,-13.0464"
     stroke="#000000"
     stroke-width="0.828"
     fill="none"
     id="path62" />
  <path
     d="m 794.5114,253.0832 c 0,0 20.0512,5.4832 22.3168,-23.2608 -4.352,-12.48 -10.4032,-39.336 -1.1328,-47.088 -8.5152,-5.8608 -17.776,0.1904 -17.776,0.1904 -0.5664,1.3216 -8.1376,12.1008 2.0768,31.0096 -24.2032,-6.4288 -14.368,16.4544 -14.368,16.4544 0.944,-3.5968 13.8016,-6.9952 17.0208,11.3472 1.3216,4.5408 -8.704,11.536 -8.1376,11.3472 z"
     stroke="#000000"
     stroke-width="0.828"
     fill="#0000ff"
     id="path63" />
  <path
     d="m 817.017,230.0112 c 0,0 21.184,-11.3472 20.608,-38.0048 -17.9648,0.3776 -24.3936,23.6272 -24.3936,23.6272 z"
     stroke="#000000"
     stroke-width="0.828"
     fill="#0000ff"
     id="path64" />
  <path
     d="m 722.089,228.6896 c 0,0 -15.6896,13.6128 -24.5824,9.2608 -6.6176,3.9744 -14.368,-3.0208 -14.368,-3.0208 0,0 9.072,33.464 41.6032,9.2608 -0.5664,-7.3728 -2.2752,-14.9344 -2.6528,-15.5008 z"
     stroke="#000000"
     stroke-width="0.828"
     fill="#ffffff"
     id="path65" />
  <path
     d="m 697.3178,237.384 c 1.3216,-6.9952 6.8064,-10.4032 11.1584,-3.7856 5.8624,1.1424 11.7248,-22.8736 -9.0816,-18.9088 5.8624,-31.3872 -11.72,-43.112 -11.72,-43.112 0,0 -6.24,34.7952 -3.4032,41.224 2.8368,6.4288 -4.16,-11.9136 -26.6624,-17.0208 -0.3792,26.2912 25.1504,38.5824 25.1504,38.5824 0,0 7.1856,6.6176 14.5584,3.0208 z"
     stroke="#000000"
     stroke-width="0.828"
     fill="#0000ff"
     id="path66" />
  <path
     d="m 699.3946,214.5008 c 0,0 -9.8272,8.3264 -7.5616,19.6736 m -7.3728,-20.8064 c 0,0 -2.2688,8.128 2.648,19.664"
     stroke="#000000"
     stroke-width="0.828"
     fill="none"
     id="path67" />
  <path
     d="m 682.9466,235.6848 c 0,0 4.5392,-7.3728 14.3712,2.0768"
     stroke="#000000"
     stroke-width="0.828"
     fill="none"
     id="path68" />
  <path
     d="m 684.8378,184.624 c 0,-0.1888 -14.9376,0 -6.0512,15.1312 -6.6176,2.0768 -21.3664,-7.56 -11.1552,-20.4272 -33.472,-0.7552 -47.0864,-16.8224 -47.0864,-31.5776 9.8336,10.2144 33.2816,6.0512 41.6016,12.2912 -10.2112,-9.4496 -8.1312,-22.5056 -8.1312,-22.5056 0,0 28.5552,8.5152 33.6592,33.8528 -1.7024,4.9184 -2.4576,13.6128 -2.8368,13.2352 z"
     stroke="#000000"
     stroke-width="0.828"
     fill="#ffffff"
     id="path69" />
  <path
     d="m 661.8682,159.3856 c 5.5104,5.6048 19.6688,7.2832 26.8544,13.5232"
     stroke="#000000"
     stroke-width="0.828"
     fill="none"
     id="path70" />
  <path
     stroke-width="0.589"
     d="m 668.3866,175.9296 c 0,0 11.7216,-1.5104 15.12,2.6432 -4.5872,0 -6.1168,-1.1328 -12.7408,1.3312 1.8688,-0.9536 1.3584,-2.6528 2.3776,-2.6528 1.0192,0 -4.2464,-1.3216 -4.7568,-1.3216 z"
     stroke="#cccccc"
     fill="#cccccd"
     id="path71" />
  <path
     d="m 726.8186,84.216 c 0,0 6.4272,-5.6736 13.424,-0.568 -3.1616,9.4464 -14.5568,5.8624 -14.5568,5.8624 0,0 0.3776,4.728 -0.7552,6.9968 2.2752,1.7152 4.152,7.376 4.152,7.376 0,0 11.7248,-2.8368 14.1888,2.2688 4.4912,-0.6208 7.7504,0 7.7504,0 0,0 9.0816,-2.2688 12.2912,-2.2688 3.2192,0 13.424,2.6464 14.368,4.5376 0.9536,1.8896 4.352,14.56 6.6272,14.3712 2.264,-0.1888 -5.4848,3.024 -7.5712,-0.1888 -2.0768,-3.216 -1.5104,4.16 -1.5104,4.16 0,0 6.4272,6.8064 7.184,8.32 0.7536,1.5088 -3.9648,13.8 -0.3792,22.3152 -3.1488,0.288 -3.3968,3.5872 -3.3968,3.5872 -0.1792,3.7456 -4.9184,4.7296 -4.9184,4.7296 l -1.1328,-5.1072 -3.2192,1.8976 1.3216,-3.9744 c 0,0 4.352,-10.592 4.7296,-13.9904 0.3776,-3.408 -3.9744,-9.4576 -7.3728,-9.4576 -3.408,0 -5.8624,10.7792 -5.8624,10.7792 0,0 -1.6992,8.128 -1.1328,8.8832 0.5664,0.7552 -2.2752,-2.6432 -2.2752,-2.6432 0,0 -1.5104,4.9184 -2.6432,6.4288 -1.1328,1.5104 -3.5968,2.0768 -3.5968,2.0768 0,0 -1.6992,-4.9184 -1.1328,-6.8064 0.5664,-1.888 9.2704,-9.2608 8.5152,-14.5552 -0.7648,-5.296 0,-3.9744 -0.1984,-4.1632 -0.1888,-0.1888 -4.5312,-3.9712 -4.72,-6.0512 -0.1888,-2.08 -5.6736,2.648 -12.8576,1.1344 -2.2048,3.8432 -2.464,13.4208 -2.464,13.4208 0,0 -0.7552,11.536 0.7552,12.8672 1.52,1.3216 -3.776,4.1536 -3.776,4.1536 l -3.7856,5.1072 c 0,0 -1.3216,-3.2096 -1.3216,-3.0208 0,0.1888 -2.6528,1.888 -2.6528,1.888 l 1.52,-3.7856 c -0.0992,-2.8608 3.6768,-10.6816 3.6768,-17.2992 0,-6.6176 0.4768,-13.7088 0.4768,-13.7088 0,0 -6.9952,-0.3792 -6.8064,6.8032 0.1888,7.1952 -1.6976,7.5728 -1.32,9.648 0.3776,2.0752 2.264,7.9392 1.6976,9.648 -0.5664,1.6992 -2.832,2.2656 -2.832,2.2656 l -0.5648,0.944 c 0,0 -6.9952,3.2192 -6.8064,4.5408 0.1888,1.3216 -0.1888,-3.7856 -0.1888,-3.7856 l -0.3872,-5.4848 c 0,0 4.1632,-2.6432 4.1632,-9.2608 0,-6.6176 -0.9552,-7.56 -0.7664,-9.072 0.1888,-1.52 1.144,-7.0032 0.9552,-7.5696 -0.1888,-0.568 -3.9648,1.512 -5.1072,1.512 -1.1328,0 2.0864,-3.9712 2.464,-6.808 0.3776,-2.8368 -3.7856,2.648 -7.184,-0.5664 1.5792,-3.4912 3.9648,-4.5392 4.3424,-7.1856 0.3776,-2.6464 -2.6432,2.2688 -5.296,0.3776 0.2176,-2.5376 2.8416,-4.7264 2.8416,-4.7264 0,0 -2.1568,-0.2656 -3.0304,0 -1.6992,-0.568 1.8976,-3.216 2.0864,-6.9968 0.1888,-3.7808 -2.0864,-5.296 -2.0864,-5.4848 0,-0.1888 -3.776,-3.4032 -4.3424,-4.7264 -0.5664,-1.3232 -0.5664,-2.8368 -0.5664,-2.8368 0,0 -6.2496,4.5376 -13.6224,-5.1056 6.7568,-5.7664 14,-1.5136 14,-1.5136 0,0 1.888,-5.296 10.5824,-4.9168 8.704,0.3792 10.4016,5.296 10.0256,4.728 z"
     stroke="#000000"
     stroke-width="0.828"
     fill="#923f00"
     id="path72" />
  <path
     d="m 774.3914,182.0304 c 0.1488,0 16.056,0.4768 16.216,8.9824 0.16,8.496 -4.88,6.2992 -5.0384,6.2992 -0.1584,0 -11.6544,-1.4208 -11.6544,-1.4208 z"
     stroke="#000000"
     stroke-width="0.828"
     fill="#0000ff"
     id="path73" />
  <path
     d="m 758.9514,179.664 c 0,0 19.8416,-0.1472 18.7392,8.5072 -1.104,8.664 -6.1408,6.9344 -6.1408,6.9344 l -9.608,-0.7952 -2.992,-14.6448 z"
     stroke="#000000"
     stroke-width="0.828"
     fill="#fffeff"
     id="path74" />
  <path
     d="m 747.7722,178.72 11.496,0.944 c 0,0 6.9264,0.944 6.6176,7.5632 -0.3168,6.616 -7.0944,6.776 -7.0944,6.776 l -11.1776,-0.6368 0.16,-14.6448 z"
     stroke="#000000"
     stroke-width="0.828"
     fill="#0000ff"
     id="path75" />
  <path
     d="m 720.8474,182.0304 c -0.16,0 -16.0672,0.4768 -16.2272,8.9824 -0.1488,8.496 4.8896,6.2992 5.048,6.2992 0.1584,0 11.6544,-1.4208 11.6544,-1.4208 l -0.4768,-13.8608 z"
     stroke="#000000"
     stroke-width="0.828"
     fill="#ffffff"
     id="path76" />
  <path
     d="m 736.2762,179.664 c 0,0 -19.84,-0.1472 -18.7392,8.5072 1.104,8.664 6.1408,6.9344 6.1408,6.9344 l 9.608,-0.7952 2.992,-14.6448 z"
     stroke="#000000"
     stroke-width="0.828"
     fill="#0000ff"
     id="path77" />
  <path
     d="m 747.465,178.72 -11.496,0.944 c 0,0 -6.936,0.944 -6.6176,7.5632 0.3184,6.6192 7.0848,6.776 7.0848,6.776 l 11.1776,-0.6368 -0.1488,-14.6448 z"
     stroke="#000000"
     stroke-width="0.828"
     fill="#ffffff"
     id="path78" />
  <path
     d="m 778.2458,274.336 c 0,0 8.2672,-12.1824 11.7552,-10.88 3.04,1.0128 0.7248,10.4416 -0.7248,11.3168 z m -56.664,2.176 c -2.6032,-3.6272 -6.3792,-13.632 -9.856,-10.88 -3.0512,1.0128 -0.7264,10.4416 0.7248,11.3168 z"
     stroke="#000000"
     stroke-width="0.828"
     fill="#5e0043"
     id="path79" />
  <path
     d="m 727.0554,252.416 c 0,0 16.1072,9.9264 21.392,10.1856 5.2848,0.2592 22.0384,-12.888 22.0384,-12.888"
     stroke="#000000"
     stroke-width="0.828"
     fill="none"
     id="path80" />
  <path
     d="m 728.6074,213.5072 3.088,-3.8656 15.472,7.8608 15.7184,-6.9664 3.0896,3.2304 -17.5264,12.3696 -19.8432,-12.6288 z"
     stroke="#000000"
     stroke-width="0.828"
     fill="#5e0043"
     id="path81" />
  <path
     stroke-linejoin="round"
     d="m 716.3258,213.2992 c 1.2512,1.5792 11.248,13.7312 13.056,23.7856 1.7984,10.056 -1.0336,-13.792 -1.0336,-13.792 0,0 12.3696,6.0624 12.7568,9.928 0.3872,3.8656 5.912,-0.2592 6.1808,-0.9248 l -35.8192,-23.2592 z m 61.1152,-0.696 c 0,0 -13.016,17.1392 -11.4656,35.8192 -2.6832,-8.9424 -0.5168,-23.7072 -0.5168,-23.7072 l -2.832,1.808 c 0,0 -2.96,12.6288 -6.7056,14.5568 -0.6272,-1.5008 -0.5072,-2.0576 -0.5072,-2.0576 0,0 -3.9952,5.1472 -4.768,5.664 -0.7728,0.5168 0.256,17.3984 0.256,17.3984 0,0 1.3424,12.24 2.8816,12.112 -1.7584,0.8544 -3.9136,2.1952 -3.9136,2.1952 l -1.6,-32.6688 3.656,-3.6768 c 0,0 4.8992,-5.9216 5.2864,-11.7248 -2.1264,1.808 -4.512,2.3248 -4.512,2.3248 0,0 -0.6448,8.248 -2.5728,9.4 -1.936,1.1632 -1.9872,3.3184 -1.9872,3.3184 l -0.456,-10.7808 z"
     stroke="#474747"
     stroke-width="1.2416"
     fill="#474747"
     id="path82" />
  <path
     d="m 747.673,232.4448 2.5248,51.5392"
     stroke="#000000"
     stroke-linecap="round"
     stroke-width="0.776"
     fill="none"
     id="path83" />
  <path
     d="m 715.977,257.056 c 0,0 5.9232,3.488 8.1184,14.0496 19.3248,-1.4208 25.3872,5.416 25.3872,5.416 0,0 15.8464,-7.6 23.2,-6.1904 2.5728,-5.4048 9.9152,-12.3696 9.9152,-12.3696"
     stroke="#000000"
     stroke-width="0.828"
     fill="none"
     id="path84" />
  <path
     d="m 707.889,206.5424 39.784,26.032 35.8304,-24.096 c 0,0 7.472,-4.1216 6.8256,-7.0832 -0.6368,-2.9712 -3.2192,-1.808 -4.512,-1.2912 -1.28,0.5168 -37.4976,26.16 -37.4976,26.16 l -38.5312,-24.3616 c 0,0 -2.832,-0.896 -3.3488,0.904 -0.5168,1.808 1.0624,2.832 1.4496,3.736 z"
     stroke="#000000"
     stroke-width="0.828"
     fill="#b4b6b9"
     id="path85" />
  <path
     stroke-linejoin="round"
     d="m 779.041,199.7856 c 0,0 -10.184,-4.3216 -10.184,-0.576 0,3.736 0.288,4.1232 1.928,6.528 1.6288,2.3936 -1.2528,3.9344 -1.2528,3.9344 0,0 -0.3872,-1.0528 -0.9632,-2.6928 -0.576,-1.6288 -6.0512,-2.7824 -6.528,-4.6992 -0.4768,-1.928 1.152,-4.9984 -2.1168,-5.376 -3.2592,-0.3872 -6.4288,1.3424 -7.104,5.088 -0.6752,3.7456 -4.8976,12.48 -4.8976,12.48 l 0.576,-19.872 c 7.1728,0.5056 20.488,2.0752 30.7312,3.2576 -3.0704,-0.4768 1.152,0.2 1.064,1.2528 -0.288,0.864 -1.352,0.9536 -1.2528,0.6752 z m -36.0176,-4.9984 c -1.8176,0 -10.9488,1.0544 -13.2544,2.4048 -2.304,1.3424 3.7456,3.448 2.9808,5.2768 -0.7648,1.8288 -0.864,5.4736 -3.7456,4.7088 -2.8816,-0.7744 -12.5792,-5.5728 -12.8672,-7.2032 -0.288,-1.6304 -2.3056,-1.728 -2.3056,-1.728 0,0 27.8512,-3.7472 29.192,-3.4592 z"
     stroke="#474747"
     stroke-width="1.2416"
     fill="#474747"
     id="path86" />
  <path
     d="m 747.4154,192.5024 -0.0704,24.4224 M 728.6074,163.728 c 0,0 -11.16,18.112 -11.3776,18.6704"
     stroke="#000000"
     stroke-width="0.828"
     fill="none"
     id="path87" />
  <path
     d="m 749.16388,163.28086 c 0,0 4.8587,6.62732 4.30229,8.50522 1.9872,1.55002 4.20293,7.74014 4.20293,7.74014"
     stroke="#000000"
     stroke-width="1pt"
     fill="url(#f)"
     id="path88"
     style="fill:url(#f)" />
  <path
     d="m 767.9434,162.1776 c 0,0 -10.4928,14.8048 -10.1648,15.9072"
     stroke="#000000"
     stroke-width="0.828"
     fill="none"
     id="path89" />
  <path
     d="m 714.1802,91.7824 c -0.2384,0.8272 -1.576,1.1472 -2.9872,0.7152 -1.4112,-0.432 -2.3648,-1.4544 -2.128,-2.2816 0.24,-0.8288 1.576,-1.1488 2.9888,-0.7168 1.4128,0.432 2.3632,1.456 2.1264,2.2832 z m 4.2416,-0.2928 c 0.2368,0.8272 1.5744,1.1488 2.9872,0.7152 1.4128,-0.4336 2.3632,-1.4528 2.1264,-2.2816 -0.2384,-0.8272 -1.576,-1.1488 -2.9872,-0.7152 -1.4112,0.4336 -2.3648,1.4544 -2.128,2.2816 z"
     id="path90"
     style="stroke-width:1.6" />
  <path
     stroke-linejoin="round"
     d="m 841.2602,398.1584 c 0,0 -3.8944,0.736 -3.7648,1.0928 0.1184,0.368 -11.3168,0.736 -11.5568,0.368 -0.248,-0.368 -1.7088,1.9472 -1.7088,1.9472 l 1.8288,-1.0928 c 0,0 2.792,2.912 3.648,2.672 0.856,-0.24 -0.368,1.0928 -0.12,1.3408 0.2384,0.24 1.0928,-0.4864 1.0928,-0.4864 l 18.8976,-0.3184 z"
     stroke="#000000"
     stroke-width="0.828"
     fill="#ff7000"
     id="path91" />
  <path
     stroke-linejoin="round"
     d="m 848.305,404.04 -15.44,0.448 c 0,0 -3.8848,3.5264 -4.1344,4.3712 -0.2384,0.8544 2.5536,1.0928 2.5536,1.0928 l 0.856,2.9216 1.9472,-0.7264 c 0,0 13.1248,1.9488 25.1776,-0.736 6.08,-2.1248 7.144,-4.6784 2.88,-6.2288 -4.2512,-1.5504 -13.72,-1.0832 -13.84,-1.1424 z"
     stroke="#000000"
     stroke-width="0.776"
     fill="#ff7000"
     id="path92" />
  <path
     d="m 795.43583,435.71605 27.79099,-1.242 -5.17665,-4.39171 75.16583,-3.03048 -2.5933,-5.97154 -84.15791,3.37824 10.12479,4.72954 -22.73357,0.67564 0.67565,2.36477 -5.9616,-0.22853 c 0,0 6.63724,2.58336 6.86577,3.71607 z"
     stroke="#000000"
     stroke-width="1pt"
     fill="url(#g)"
     id="path93"
     style="fill:url(#g)" />
  <path
     d="m 826.59513,282.19491 c -2.21573,-1.10289 -11.9232,-2.42438 -22.74351,4.64011 l 0.44712,24.9493 c 0,0 15.88767,-8.61451 23.61788,-6.62731 -0.44712,-7.73021 -0.44712,-17.65627 -1.32149,-22.9621 z"
     stroke="#000000"
     stroke-width="1pt"
     fill="url(#h)"
     id="path94"
     style="fill:url(#h)" />
  <path
     d="m 672.929,357.936 -65.5344,65.0624 m 94.7424,-64.584 -53.1904,70.048 m 50.816,-88.3312 -70.9984,85.9568 m -2.1376,-1.192 6.8864,-8.0688 m 79.7824,-33.4832 -27.5456,37.9952 m -1.1872,4.9872 0.7136,14.4768 m 40.5984,-44.1648 -29.2032,36.5744 m 23.9856,-2.8528 11.8736,-19.4736 m -7.3632,-3.7952 -14.2464,16.144 m 9.9744,-31.3376 -9.736,11.864 M 708.3066,374.56 c 0,0 -29.68,43.4496 -29.2048,47.0176 m 26.1152,-52.7104 c -0.704,0.4672 -25.64,33.4736 -25.64,33.4736 m -1.424,10.4432 -4.512,5.464 m -5.6992,8.3168 -6.8848,9.0224"
     stroke-width="0.828"
     stroke="#000000"
     fill="none"
     id="path95" />
  <path
     d="m 669.6874,257.9312 c 0,0 -2.0112,6.32 0,9.4784 2.0096,3.16 14.648,28.7248 14.648,28.7248 0,0 8.6208,-10.6304 11.7808,-10.9184 3.1584,-0.2784 1.7184,27.5824 1.7184,27.5824 0,0 -5.168,4.8784 -8.3264,4.5904 -3.1616,-0.288 7.7504,10.9184 7.4624,20.3984 -0.288,9.48 -14.3584,56.5856 -19.528,57.44 -5.1712,0.864 2.2976,-8.6144 2.0096,-11.1984 -0.288,-2.584 -1.7232,-0.864 -2.872,-3.736 -1.1488,-2.872 1.7248,-7.184 1.1488,-10.0544 -0.5744,-2.872 -3.16,-2.296 -3.4464,-4.304 -0.288,-2.016 1.7232,-2.5824 1.4368,-4.888 -0.288,-2.2944 -3.448,-1.7184 -3.16,-3.736 0.288,-2.0064 0.5744,-1.1424 0.288,-4.8784 -0.2864,-3.736 -0.8624,2.584 -4.0224,2.872 -3.16,0.288 -5.744,7.472 -5.744,7.472 0,0 -6.32,8.9024 -12.64,4.8784 3.7344,8.048 0.864,11.496 -0.5728,11.7744 -1.4368,0.288 1.1472,6.32 -2.2992,6.608 -3.4464,0.288 2.5856,13.5024 -1.4352,14.656 4.3072,2.0064 0.8608,4.5888 0.8608,4.5888 0,0 -9.9552,0.8352 -7.7552,13.792 -29.2976,-10.344 -43.6592,-28.1488 -43.3728,-46.2432 0.288,-18.1024 6.032,-34.4672 20.1072,-40.4992 4.0208,-14.944 10.9152,-31.0288 10.9152,-31.0288 0,0 -1.1488,-6.608 -0.288,-10.9104 0.864,-4.312 4.8832,-8.6144 4.8832,-8.6144 0,0 -0.576,-10.344 -0.2864,-15.5104 0.288,-5.176 2.2976,-7.472 2.584,-10.3424 0.2864,-2.8704 -0.8608,-17.528 2.0112,-20.112 2.872,-2.584 8.3296,-2.2944 11.2016,-4.0128 2.8736,-1.728 6.608,-4.8896 10.3408,-4.6016 3.7328,0.288 6.8928,2.872 6.8928,2.872 0,0 14.0768,0 14.9376,5.456 0.8608,5.464 -2.872,7.472 -2.872,7.472 0,0 2.0112,7.76 -6.608,14.9328 z"
     stroke="#2b2b2b"
     stroke-width="1.3248"
     fill="#8a9396"
     id="path96" />
  <path
     d="m 657.1898,238.032 c 0.4512,0.832 -0.576,2.2608 -2.2928,3.1904 -1.7168,0.9296 -3.4752,1.008 -3.9264,0.176 -0.4496,-0.8336 0.576,-2.2624 2.2944,-3.192 1.7184,-0.9296 3.4752,-1.008 3.9248,-0.176 z"
     stroke="#2b2b2b"
     stroke-width="1.3248"
     fill="#cecfcf"
     id="path97" />
  <path
     d="m 654.8058,239.4816 c 0,0.5264 -0.4784,0.952 -1.0672,0.952 -0.5888,0 -1.0672,-0.4256 -1.0672,-0.952 0,-0.5248 0.4784,-0.9504 1.0672,-0.9504 0.5888,0 1.0672,0.4256 1.0672,0.9504 z"
     id="path98"
     style="stroke-width:1.6" />
  <path
     d="m 675.8074,248.9888 c 0,0 3.488,15.5792 -0.6832,26.3296 m 1.7552,-33.1456 c 0,0 6.808,9.0016 5.9296,20.2 m -5.2704,-22.1776 c 0.2208,0 5.7088,4.8288 5.488,8.1184 m -4.1696,-10.096 c 0,0 3.7328,2.6336 4.6096,5.2672"
     stroke="#2b2b2b"
     stroke-width="0.6208"
     fill="none"
     id="path99" />
  <path
     d="m 677.1002,236.6784 c 0,0 -13.392,21.7392 -11.6368,35.352"
     stroke="#000000"
     stroke-width="0.828"
     fill="none"
     id="path100" />
  <path
     d="m 677.9786,236.0224 c 0,0 -17.784,10.5424 -21.0768,45.0096"
     stroke="#2b2b2b"
     stroke-width="0.6208"
     fill="none"
     id="path101" />
  <path
     d="m 676.0026,242.392 -7.0256,5.264"
     stroke="#000000"
     stroke-width="0.828"
     fill="none"
     id="path102" />
  <path
     d="m 650.3146,283.0096 c 0,0 9.88,-41.056 27.4448,-46.9872"
     stroke="#2b2b2b"
     stroke-width="0.6208"
     fill="none"
     id="path103" />
  <path
     d="m 684.5642,296.84 c 0,0 9.4448,-11.8528 11.64,-11.416 2.1952,0.4368 1.5312,27.4432 1.5312,27.4432 0,0 -7.024,5.2656 -8.5552,5.048 -1.5408,-0.2192 7.8992,12.7376 7.68,17.568 -0.2192,4.8304 -0.4368,4.8272 -0.4368,4.8272 0,0 0,-2.8512 -2.1952,-7.4624 -2.1952,-4.6112 -0.8848,-9.8864 -15.152,-21.52 -3.5136,-7.2448 7.0256,4.3904 9.2192,2.632 2.1968,-1.7488 -3.9504,-16.9008 -3.7312,-17.12 z"
     stroke="#2b2b2b"
     stroke-width="1.3248"
     fill="#2b2b2b"
     id="path104" />
  <path
     d="m 667.7818,230.0704 c 0,0 -3.968,1.0832 -4.512,2.704 -0.5408,1.6288 -2.8848,3.248 -4.1472,2.7008 -1.264,-0.536 -3.6096,-2.5232 -3.6096,-2.5232"
     stroke="#2b2b2b"
     stroke-width="1.3248"
     fill="none"
     id="path105" />
  <path
     stroke-linejoin="round"
     d="m 645.2298,243.9616 c 0,0 -5.9536,5.952 -3.0672,6.6768 2.8864,0.7152 5.9536,-4.6896 5.9536,-4.6896 0,0 0,9.2 2.5264,7.7504 2.5264,-1.44 9.9216,-6.6672 9.9216,-6.6672 0,0 2.5264,-0.1888 3.0672,0 0.5424,0.1776 6.856,5.584 11.0048,3.6064 -2.344,6.1296 -5.0512,6.856 -5.0512,6.856 0,0 -4.3296,5.5936 -9.9216,4.3216 -5.5936,-1.2624 -7.0368,-3.6064 -7.0368,-3.6064 0,0 -4.6912,0.368 -6.1344,-1.7984 -1.4432,-2.1664 -1.984,-3.4288 -1.984,-3.4288 0,0 -2.7056,2.704 -3.4288,1.44 -0.72,-1.2608 0,-8.6624 4.1504,-10.4608 z"
     stroke="#2b2b2b"
     stroke-width="1.2416"
     fill="#2b2b2b"
     id="path106" />
  <path
     d="m 678.9674,235.664 c 0,0 -11.0048,-3.248 -14.7936,2.1664 -3.7888,5.4048 -2.8864,8.4752 -0.9024,9.0128"
     stroke="#2b2b2b"
     stroke-width="1.3248"
     fill="none"
     id="path107" />
  <path
     d="m 680.665,235.3568 c 0,1.296 -0.928,2.3488 -2.0752,2.3488 -1.1472,0 -2.0736,-1.0512 -2.0736,-2.3488 0,-1.2976 0.928,-2.3488 2.0736,-2.3488 1.1456,0 2.0752,1.0512 2.0752,2.3488 z"
     id="path108"
     style="stroke-width:1.6" />
  <path
     d="m 648.6362,263.4352 c 0,0 4.488,6.9056 9.8384,8.8032 5.3504,1.8976 -3.712,3.5376 -9.0624,-0.08 -3.8832,-5.264 -2.848,-9.0608 -2.848,-9.0608 0,0 1.0352,-1.0432 2.072,0.3376 z m 38.4032,40.7376 c 0,0 -12.6,-17.5168 -16.224,-18.4704 -3.6256,-0.944 2.76,-1.7184 6.6448,1.9872 3.8832,3.7056 -1.0352,-6.0416 -1.0352,-6.0416 z"
     stroke="#2b2b2b"
     stroke-width="1.3248"
     fill="#2b2b2b"
     id="path109" />
  <path
     stroke-linejoin="round"
     d="m 647.4282,405.4016 c 4.832,-1.2912 25.888,12.0816 30.6352,15.4496 4.7472,3.36 14.6736,1.2032 14.6736,1.2032 0,0 -4.5808,2.7616 -7.424,3.456 -2.848,0.688 8.4576,0.688 8.4576,0.688 0,0 -26.9248,7.4208 -54.2816,-6.9856 -2.504,-11.2176 5.8672,-13.7216 7.9392,-13.8112 z"
     stroke="#2b2b2b"
     stroke-width="1.2416"
     fill="#2b2b2b"
     id="path110" />
  <path
     d="m 678.2362,308.4848 c 0,0 -3.5376,-0.6848 -5.3504,-2.7616 -1.8112,-2.0672 -4.4,-7.1632 -7.0768,-9.32 -2.6752,-2.1552 -16.0512,-9.488 -20.8832,-8.9728 -4.832,0.5152 -6.3008,-0.5152 -6.9056,-1.1216 -0.6048,-0.6064 -2.5872,0.2576 -2.2432,2.7616 0.3456,2.504 -3.712,8.0288 -2.2432,10.6112 1.4672,2.5936 8.3712,13.1168 9.752,13.464 1.3808,0.3472 0.5184,6.1312 0.5184,6.1312 0,0 6.1264,6.208 7.68,6.5568 1.552,0.3472 3.1056,1.472 2.9344,2.9312 -0.1728,1.472 -6.7328,9.4992 -6.7328,9.4992 0,0 -7.0752,3.7056 -7.1616,5.7824 -0.0864,2.0672 1.7248,6.3792 7.336,7.76 5.608,1.3808 20.7104,0.2592 21.488,-1.0336 0.776,-1.2912 1.984,-9.0608 1.4656,-9.8368 -0.5184,-0.776 -4.2288,-3.1088 -6.128,-2.7616 -1.896,0.3472 -3.6224,1.8976 -3.4512,2.2448 0.1728,0.3488 -2.6736,1.808 -2.6736,0.4272 0,-1.3808 5.608,-7.5904 6.1264,-7.0736 0.5184,0.5168 8.4576,1.2912 9.9248,5.2656 1.4672,3.9648 1.4672,6.816 5.608,6.3888 4.144,-0.4368 9.9232,-4.232 10.44,-12.1712 0.5168,-7.9392 -4.656,-13.2944 -5.952,-14.0688 -1.296,-0.7744 -5.6096,-3.3696 -5.9536,-4.5712 -0.3456,-1.2128 -1.208,-5.176 -0.5184,-6.1312 z"
     stroke="#2b2b2b"
     stroke-width="1.3248"
     fill="#2b2b2b"
     id="path111" />
  <path
     d="m 603.5882,343.5296 c 0,0 13.376,-3.456 16.8272,-3.368 3.4528,0.08 16.4832,6.12 20.2816,9.8368 3.7968,3.7056 11.5632,12.5088 16.656,11.7344 5.0912,-0.776 6.5584,-1.808 6.5584,-1.808 l -1.9856,3.7952 c 0,0 -4.1424,1.1232 -6.2128,0.6064 -2.072,-0.5168 -6.128,-1.8192 -10.184,-5.784 -4.056,-3.9744 -16.5696,-14.6752 -27.184,-13.8992 -10.6144,0.784 -16.7424,11.2272 -16.7424,11.2272 0,0 0.0864,-5.0976 0.5184,-6.2192 0.432,-1.1216 -2.2432,2.4144 -2.2432,2.4144 z"
     stroke="#2b2b2b"
     stroke-width="1.3248"
     fill="#2b2b2b"
     id="path112" />
  <path
     d="m 652.8634,353.8832 c 0.088,0.08 3.3664,0.944 8.8896,0.944 5.5232,0 8.4576,-2.416 8.4576,-2.416 l -0.3456,-2.1552 0.864,-3.0208 c 0,0 4.2272,4.3136 4.1408,5.1776 -0.0864,0.864 -1.7248,1.2128 -1.7248,1.2128 l -0.6048,-2.0768 -1.4656,1.8176 c 0,0 -8.0272,6.3792 -12.4272,5.4352 -4.4016,-0.9536 -8.4576,-3.7952 -7.336,-4.4912 1.1216,-0.6848 1.7264,-0.4272 1.552,-0.4272 z m -19.504,11.3072 c 0,0 -4.832,-0.0896 -6.9888,0.944 -2.1568,1.0336 -2.9344,2.336 -4.4,2.1552 -1.4672,-0.168 -2.5904,-2.0656 -2.16,-2.8416 0.6048,-1.2112 3.4528,-2.7616 8.8896,-2.3344 5.4368,0.4368 4.6608,2.0768 4.6608,2.0768 z m 16.9168,13.1152 c 0,-0.2576 -0.3456,-7.0736 -3.0208,-9.8368 -2.6752,-2.7616 -5.9552,-2.7616 -7.4224,-2.424 -1.4672,0.3472 5.4368,3.368 6.128,5.3552 0.6912,1.9872 2.9344,7.512 2.3296,8.8928 -0.6048,1.3712 -1.7264,-3.8848 -5.9552,-5.3552 -4.2288,-1.4704 -10.096,-0.6864 -8.888,1.2128 1.208,1.8992 5.9552,0.168 8.3712,4.2224 2.416,4.0544 4.2288,8.376 4.2288,8.376 l 0.776,-2.9408 2.1584,-0.5968 0.2576,-5.6144 z"
     stroke="#2b2b2b"
     stroke-width="1.3248"
     fill="#2b2b2b"
     id="path113" />
  <path
     stroke-linejoin="round"
     d="m 646.8234,400.3936 -4.4,-8.8032 c 0,0 -1.3824,-5.6048 -5.0928,-7.1632 -3.7104,-1.552 -8.6304,-1.2928 -8.7168,0.6048 -0.0864,1.8976 7.9408,4.312 8.4576,5.3568 0.5184,1.032 0.2592,2.7616 -0.432,2.8416 -0.688,0.088 -4.2272,-1.2928 -6.04,-0.864 -1.8128,0.4368 -2.848,2.7616 -5.5232,2.0752 -2.6752,-0.696 -4.92,-9.2304 -3.8832,-10.096 1.0352,-0.864 -1.984,1.552 -2.5888,-0.6944 -0.6048,-2.2464 0.864,-9.2304 -0.1728,-10.096 -1.0352,-0.864 -6.04,-3.8832 -6.128,-4.4896 -0.0848,-0.5968 0.2592,-34.3392 28.48,-6.3792 -12.0832,-14.328 -16.8288,-12.7776 -19.072,-12.8576 -1.64,0 -12.6,0.944 -15.3616,14.9248 -2.7616,13.9792 -6.0416,5.2656 -6.0416,5.2656 0,0 -0.6032,6.0416 2.3312,7.7696 2.9328,1.72 -1.3824,6.7264 -1.3824,6.7264 0,0 -5.264,-12.856 -4.4864,-18.4704 -1.0352,4.4912 -0.9488,15.6192 5.696,27.792 7.7664,8.1968 15.1024,15.7968 34.6048,24.3328 10.2704,-15.6992 9.752,-17.5968 9.752,-17.776 z"
     stroke="#2b2b2b"
     stroke-width="1.2416"
     fill="#2b2b2b"
     id="path114" />
  <path
     stroke-linejoin="round"
     d="m 628.3562,400.4832 c 0,0 5.696,0.6848 7.248,3.6272 1.5536,2.9296 2.2448,7.4208 2.2448,7.4208 0.9488,-1.8976 1.3792,-3.536 3.28,-4.9184 1.9008,-1.3824 3.28,-1.56 3.192,-2.592 -0.088,-1.032 -6.0416,-7.3328 -9.0608,-7.68 -3.0192,-0.3472 -8.2848,3.2784 -8.2848,3.2784 0,0 -0.9488,1.3808 1.3808,0.864 z"
     stroke="#2b2b2b"
     stroke-width="1.2416"
     fill="#8a9396"
     id="path115" />
  <g
     stroke-width="1.25"
     stroke-linecap="round"
     fill="none"
     id="g118"
     transform="matrix(1.6,0,0,1.6,-149.8406,0)">
    <path
       d="m 494.504,259.58 c 0,0 9.225,4.204 24.42,4.477"
       stroke="#8a9396"
       stroke-width="0.776"
       id="path116" />
    <path
       d="m 525.3,216.755 c 0,0 -0.788,7.744 -6.744,23.02"
       stroke="#2b2b2b"
       stroke-width="0.776"
       id="path117" />
    <path
       d="m 524.115,221.519 c 0,0 -1.788,5.557 -6.75,9.724"
       stroke="#2b2b2b"
       stroke-linecap="butt"
       stroke-width="0.828"
       id="path118" />
  </g>
  <path
     d="m 645.5946,508.2112 2.5552,-2.8912 0.8176,0.7232 -0.224,0.2544 q -0.1872,0.2112 -0.2144,0.2848 -0.048,0.1392 0,0.2656 0.0432,0.1216 0.2336,0.288 l 3.3792,2.9872 q 0.2048,0.1808 0.2656,0.2048 0.0656,0.0208 0.1472,-0.0128 0.08,-0.0368 0.2288,-0.208 0.5024,-0.5664 0.656,-1.0416 0.16,-0.48 0.0768,-1.0432 -0.0832,-0.5712 -0.472,-1.2688 l 0.9568,-0.544 1.4992,2.7136 -3.9904,4.5152 -0.8192,-0.7232 0.2512,-0.2848 q 0.1536,-0.1728 0.1856,-0.304 0.032,-0.1312 -0.01,-0.2352 -0.0432,-0.1136 -0.24,-0.2864 l -3.3488,-2.96 q -0.2112,-0.1872 -0.3424,-0.2272 -0.128,-0.0448 -0.2368,-0.005 -0.1072,0.0336 -0.2608,0.208 l -0.2768,0.3136 z m 5.6016,-6.2592 4.6832,-4.6336 2.3936,1.1424 -0.4688,0.9808 q -0.6144,-0.2512 -1.1264,-0.2704 -0.5088,-0.0224 -0.8944,0.192 -0.384,0.2064 -0.784,0.6 l -0.856,0.848 1.3856,1.4 0.2816,-0.2784 q 0.3168,-0.3152 0.3824,-0.4672 0.064,-0.16 0.016,-0.304 -0.0496,-0.1472 -0.3408,-0.4416 l -0.2112,-0.2128 0.7168,-0.7088 2.3488,2.3728 -0.7168,0.7088 -0.24,-0.24 q -0.24,-0.2464 -0.4128,-0.2992 -0.168,-0.0576 -0.3088,0.002 -0.1408,0.0592 -0.4864,0.4016 l -0.2528,0.2512 1.2736,1.2864 q 0.2032,0.2048 0.2672,0.2304 0.064,0.024 0.144,-0.008 0.0832,-0.0352 0.2768,-0.2256 l 0.4704,-0.4656 q 0.528,-0.5216 0.7424,-1.0288 0.2096,-0.512 0.1616,-1.1232 -0.048,-0.6208 -0.3536,-1.2352 l 0.9872,-0.4752 1.3248,2.8128 -4.8512,4.8 -0.768,-0.776 0.1408,-0.1408 q 0.2816,-0.2784 0.3392,-0.4128 0.056,-0.136 -0.003,-0.2768 -0.04,-0.08 -0.3184,-0.3616 l -3.024,-3.0576 q -0.248,-0.2496 -0.3584,-0.2896 -0.1088,-0.0448 -0.216,-0.01 -0.112,0.032 -0.3264,0.2432 l -0.2496,0.2464 z m 9.8752,-9.456 q 1.4256,-1.2208 3.0512,-1.1056 1.6288,0.1104 2.7936,1.4736 0.784,0.9152 0.9872,1.9712 0.2032,1.056 -0.1808,2.0528 -0.3824,0.9904 -1.3888,1.8512 -1.328,1.136 -2.8,1.1296 -1.7776,-0.006 -3.04,-1.4816 -1.1728,-1.3712 -1.024,-3.0096 0.1504,-1.6416 1.6,-2.88 z m 0.832,0.9408 q -0.6832,0.584 -0.6496,1.4416 0.0432,1.08 0.9152,2.0992 0.872,1.0192 1.8528,1.208 0.8432,0.1568 1.5136,-0.416 0.6752,-0.5776 0.6448,-1.4304 -0.0416,-1.016 -0.9088,-2.0304 -0.6112,-0.7136 -1.232,-1.024 -0.6192,-0.312 -1.1728,-0.256 -0.5536,0.0576 -0.9632,0.408 z m 7.7456,-7.9168 0.6128,-0.4256 0.2176,0.1728 3.656,-2.5424 -0.072,-0.272 0.6176,-0.4304 2.384,1.712 -0.656,0.904 q -0.6816,-0.368 -0.9264,-0.4512 -0.4816,-0.168 -0.9376,-0.1408 -0.3456,0.0192 -0.5824,0.184 -0.112,0.0784 -0.1152,0.1632 -0.006,0.08 0.128,0.2704 l 2.5904,3.7264 q 0.2288,0.3296 0.3104,0.3968 0.08,0.0672 0.1728,0.08 0.088,0.008 0.1984,-0.0416 0.1072,-0.0544 0.5296,-0.3472 l 0.624,0.896 -3.16,2.1968 -0.624,-0.896 0.192,-0.1328 q 0.3152,-0.2208 0.3776,-0.32 0.0592,-0.1024 0.0384,-0.232 -0.0256,-0.1344 -0.2448,-0.4496 l -2.6496,-3.8096 q -0.112,-0.1632 -0.1792,-0.1792 -0.0656,-0.016 -0.1872,0.0688 -0.24,0.168 -0.4128,0.5552 -0.1728,0.3872 -0.1744,0.88 -0.002,0.1936 0.112,1.0032 l -1.0592,0.288 -0.7808,-2.8256 z m 7.1792,-4.5952 5.6336,-3.4128 2.064,1.6688 -0.688,0.8448 q -0.5376,-0.3872 -1.032,-0.5248 -0.488,-0.1408 -0.912,-0.0224 -0.424,0.1104 -0.9024,0.4 l -1.032,0.624 1.0208,1.6848 0.3392,-0.2048 q 0.3824,-0.232 0.48,-0.3648 0.1008,-0.1392 0.088,-0.2912 -0.016,-0.1552 -0.2288,-0.5088 l -0.1552,-0.256 0.8608,-0.5232 1.7296,2.856 -0.8608,0.5216 -0.176,-0.2896 q -0.1792,-0.296 -0.3328,-0.3872 -0.1504,-0.096 -0.3008,-0.0704 -0.1504,0.0256 -0.5664,0.2784 l -0.304,0.184 0.9376,1.5488 q 0.1488,0.2464 0.2048,0.2848 0.0576,0.04 0.1424,0.0272 0.0896,-0.016 0.3216,-0.1552 l 0.5664,-0.344 q 0.6352,-0.384 0.9616,-0.8256 0.3248,-0.448 0.4192,-1.056 0.0976,-0.6144 -0.0544,-1.2816 l 1.0704,-0.232 0.632,3.0432 -5.8368,3.536 -0.5664,-0.9344 0.1696,-0.1024 q 0.3392,-0.2048 0.4256,-0.3248 0.0864,-0.12 0.0624,-0.2688 -0.0192,-0.0864 -0.224,-0.4256 l -2.2288,-3.68 q -0.1824,-0.2992 -0.2816,-0.3648 -0.0944,-0.0672 -0.208,-0.0592 -0.1168,0.005 -0.3728,0.16 l -0.2992,0.1824 z m 7.984,-4.7776 4.3184,-2.2464 q 0.416,-0.216 0.9472,-0.3968 0.536,-0.1824 1.0656,-0.1328 0.5344,0.048 0.96,0.3232 0.4256,0.2752 0.68,0.768 0.416,0.8 0.1008,1.5936 -0.3104,0.7872 -1.0112,1.344 l 2.3136,0.9264 0.0992,0.0432 q 0.2288,0.0976 0.3888,0.1232 0.1568,0.0208 0.2912,-0.005 0.1344,-0.0256 0.3392,-0.1312 l 0.3024,-0.1568 0.5024,0.968 -2.2432,1.168 -3.8192,-1.848 -0.5808,0.304 0.7248,1.3936 q 0.1888,0.3616 0.28,0.4416 0.0896,0.0752 0.2016,0.08 0.1136,0 0.3808,-0.1392 l 0.32,-0.168 0.504,0.9696 -3.424,1.7808 -0.504,-0.9696 0.312,-0.1616 q 0.2464,-0.128 0.32,-0.2304 0.0768,-0.1104 0.072,-0.2416 -0.006,-0.0736 -0.1696,-0.3904 l -2.0496,-3.9408 q -0.12,-0.2304 -0.2112,-0.304 -0.0864,-0.0832 -0.1872,-0.0688 -0.1504,0.006 -0.304,0.088 l -0.1392,0.08 -0.2608,0.1344 z m 3.1792,-0.192 0.9424,1.8112 1.04,-0.5392 q 0.6112,-0.32 0.8544,-0.5856 0.2464,-0.2752 0.288,-0.5648 0.0464,-0.2912 -0.112,-0.592 -0.144,-0.2768 -0.3904,-0.3968 -0.2448,-0.128 -0.56,-0.0848 -0.3104,0.04 -0.9088,0.352 z m 5.7424,-4.3744 4.456,-1.9536 q 0.432,-0.1888 0.9728,-0.3344 0.5472,-0.1472 1.072,-0.0624 0.5312,0.0832 0.936,0.3872 0.4048,0.304 0.6272,0.8128 0.3616,0.824 -0.005,1.5952 -0.3632,0.7648 -1.0976,1.2736 l 2.2464,1.0784 0.096,0.0512 q 0.2224,0.112 0.3808,0.1472 0.1552,0.032 0.2896,0.016 0.136,-0.016 0.3472,-0.1104 l 0.312,-0.136 0.4384,1 -2.3168,1.016 -3.688,-2.096 -0.6,0.2624 0.6304,1.44 q 0.1648,0.3744 0.2512,0.4592 0.0848,0.08 0.1952,0.0944 0.1136,0.005 0.3888,-0.1152 l 0.3312,-0.144 0.4384,0.9984 -3.5344,1.5504 -0.4384,-1.0016 0.32,-0.1408 q 0.256,-0.112 0.336,-0.208 0.0848,-0.104 0.088,-0.2368 0,-0.0736 -0.144,-0.4 l -1.784,-4.0688 q -0.104,-0.2384 -0.1888,-0.3184 -0.0816,-0.088 -0.184,-0.08 -0.1488,-0.002 -0.3088,0.0688 l -0.144,0.0688 -0.2688,0.1168 -0.4528,-1.0304 z m 3.184,0.0192 0.8192,1.872 1.072,-0.472 q 0.6336,-0.2768 0.896,-0.528 0.2624,-0.256 0.3232,-0.544 0.064,-0.288 -0.072,-0.5984 -0.1248,-0.2848 -0.3632,-0.4208 -0.2368,-0.144 -0.5536,-0.1216 -0.3136,0.0192 -0.9296,0.2896 z m 8.6896,-4.96 1.664,-0.6064 4.3168,4.912 q 0.3472,0.392 0.5248,0.448 0.1824,0.0544 0.5568,-0.0896 l 0.3744,1.0272 -3.5088,1.28 -0.3744,-1.0272 0.2112,-0.0816 q 0.2928,-0.1072 0.3824,-0.224 0.088,-0.1232 0.048,-0.2336 -0.0352,-0.096 -0.2448,-0.3568 l -0.464,-0.5968 -2.2608,0.8256 -0.003,0.8496 q 0.003,0.272 0.0304,0.3456 0.032,0.0848 0.1152,0.1328 0.088,0.0448 0.2384,0.0272 0.0976,-0.0128 0.5072,-0.16 l 0.3744,1.024 -2.8704,1.048 -0.3744,-1.0256 q 0.2768,-0.1008 0.3856,-0.1952 0.112,-0.096 0.1552,-0.2192 0.0512,-0.128 0.056,-0.424 l 0.16,-6.6784 z m 1.2288,4.0768 1.4832,-0.5408 -1.4688,-1.7776 -0.016,2.32 z m 4.9296,-6.2928 3.432,-0.9872 2.6448,4.2368 0.0352,-5.008 3.4912,-1.0064 0.304,1.0496 -0.376,0.1088 q -0.304,0.088 -0.3872,0.2528 -0.0784,0.1568 0.024,0.512 l 1.24,4.3056 q 0.08,0.2832 0.1344,0.344 0.08,0.096 0.1792,0.112 0.1376,0.032 0.3344,-0.024 l 0.4288,-0.1232 0.304,1.048 -3.6496,1.0512 -0.304,-1.0496 0.2832,-0.08 q 0.3104,-0.0912 0.4048,-0.1712 0.096,-0.08 0.1152,-0.192 0.0256,-0.1184 -0.0528,-0.3904 l -1.344,-4.6656 -0.0384,6.8176 -1.0496,0.3024 -3.5408,-5.5696 1.328,4.6112 q 0.0448,0.1568 0.1248,0.2288 0.0848,0.0704 0.2016,0.0896 0.1216,0.0112 0.3552,-0.056 l 0.3648,-0.104 0.3024,1.0496 -3.1056,0.8928 -0.3024,-1.0496 0.304,-0.088 q 0.288,-0.0832 0.3776,-0.16 0.0944,-0.0864 0.112,-0.2096 0.0208,-0.1296 -0.064,-0.4288 l -1.2256,-4.2528 q -0.0848,-0.2928 -0.1472,-0.368 -0.0832,-0.1072 -0.1968,-0.1328 -0.1136,-0.0272 -0.3264,0.0352 l -0.4128,0.1184 z m 15.776,-4.144 4.0992,-0.7648 q 0.7792,-0.1456 1.32,-0.08 0.5472,0.0592 0.976,0.3136 0.432,0.2528 0.7152,0.6608 0.2816,0.4 0.3744,0.896 0.1856,0.9952 -0.456,1.8128 -0.6368,0.816 -1.9824,1.0672 l -1.3232,0.2464 0.272,1.4528 q 0.0496,0.272 0.1024,0.336 0.0688,0.096 0.1792,0.128 0.1152,0.032 0.36,-0.016 l 0.3952,-0.072 0.2,1.072 -3.7824,0.7072 -0.2016,-1.072 0.2624,-0.0496 q 0.344,-0.064 0.448,-0.136 0.1008,-0.0704 0.1312,-0.1856 0.0288,-0.12 -0.0352,-0.4592 l -0.7968,-4.2672 q -0.0656,-0.3552 -0.1312,-0.4592 -0.0672,-0.1088 -0.176,-0.1392 -0.1056,-0.0384 -0.3776,0.0128 l -0.3728,0.0688 -0.2,-1.072 z m 3.0848,0.736 0.4112,2.2032 0.6624,-0.1232 q 0.6064,-0.112 0.8672,-0.288 0.2592,-0.1808 0.384,-0.4688 0.1232,-0.2944 0.0576,-0.6512 -0.1008,-0.5328 -0.5696,-0.768 -0.3504,-0.176 -0.9504,-0.064 l -0.864,0.16 z m 5.2928,-2.2672 4.8272,-0.6016 q 0.4672,-0.0592 1.0272,-0.0432 0.5664,0.016 1.0464,0.2464 0.4848,0.2304 0.7856,0.6368 0.3008,0.4064 0.3712,0.9584 0.112,0.8928 -0.4592,1.528 -0.5664,0.6288 -1.416,0.9056 l 1.8448,1.6752 0.08,0.0752 q 0.1792,0.1712 0.32,0.2512 0.1408,0.0736 0.2752,0.096 0.1344,0.024 0.3648,-0.005 l 0.336,-0.0416 0.136,1.0848 -2.512,0.312 -2.9344,-3.0608 -0.6512,0.08 0.1936,1.5616 q 0.0512,0.4048 0.1104,0.512 0.0576,0.1008 0.16,0.144 0.1072,0.0384 0.4048,0.002 l 0.36,-0.0448 0.1344,1.0832 -3.8288,0.4784 -0.136,-1.0848 0.3488,-0.0432 q 0.2752,-0.0336 0.3808,-0.104 0.1088,-0.0768 0.1504,-0.2016 0.0208,-0.0704 -0.024,-0.424 l -0.5488,-4.408 q -0.032,-0.2592 -0.0912,-0.36 -0.0528,-0.1072 -0.1536,-0.128 -0.1424,-0.0464 -0.3152,-0.024 l -0.1568,0.0256 -0.2928,0.0352 -0.1392,-1.1168 z m 3.0448,0.9264 0.2528,2.0272 1.1632,-0.1456 q 0.6848,-0.0848 1.0064,-0.2512 0.3264,-0.1712 0.464,-0.4288 0.1456,-0.256 0.104,-0.5936 -0.0384,-0.3088 -0.2288,-0.5088 -0.1856,-0.2048 -0.496,-0.2736 -0.3056,-0.0704 -0.9744,0.0128 l -1.2912,0.16 z m 11.1568,-2.4896 q 1.8752,-0.1056 3.0992,0.9696 1.2288,1.0752 1.3296,2.864 0.0688,1.2048 -0.4096,2.1664 -0.4768,0.9632 -1.3856,1.5248 -0.904,0.5568 -2.2256,0.632 -1.7472,0.0992 -2.9136,-0.7984 -1.4112,-1.0816 -1.52,-3.0192 -0.104,-1.8016 1.0064,-3.016 1.1152,-1.2144 3.0192,-1.3232 z m 0.0944,1.2528 q -0.8992,0.0512 -1.392,0.7552 -0.6176,0.8848 -0.5424,2.224 0.0768,1.3392 0.7424,2.0832 0.576,0.6352 1.456,0.5856 0.8864,-0.0512 1.3808,-0.7472 0.5808,-0.832 0.5056,-2.1664 -0.0544,-0.9376 -0.3616,-1.56 -0.3008,-0.624 -0.7776,-0.9136 -0.4768,-0.2896 -1.0112,-0.2592 z m 5.9232,-1.3824 4.1696,0.024 q 0.7936,0.005 1.312,0.1728 0.5264,0.16 0.896,0.4912 0.3792,0.3312 0.5792,0.784 0.2016,0.448 0.1984,0.952 -0.006,1.0128 -0.792,1.6928 -0.7792,0.68 -2.1488,0.672 l -1.3456,-0.008 -0.01,1.4768 q -0.002,0.2784 0.0368,0.352 0.0512,0.1072 0.152,0.16 0.1072,0.0512 0.3568,0.0528 h 0.4016 l -0.006,1.0928 -3.848,-0.0224 0.006,-1.0928 0.2656,0.003 q 0.352,0 0.464,-0.048 0.112,-0.048 0.1664,-0.1584 0.0512,-0.112 0.0528,-0.4576 l 0.0272,-4.3408 q 0,-0.3616 -0.0432,-0.4752 -0.0448,-0.1184 -0.1456,-0.1712 -0.096,-0.056 -0.3728,-0.0576 l -0.3792,-0.003 z m 2.8896,1.3072 -0.0144,2.24 0.6736,0.005 q 0.6176,0.003 0.9072,-0.12 0.288,-0.128 0.4656,-0.3872 0.176,-0.2656 0.1792,-0.6272 0.003,-0.544 -0.4128,-0.8624 -0.3104,-0.24 -0.9216,-0.2432 z m 5.6592,-1.2176 4.8544,0.336 q 0.4672,0.032 1.016,0.1536 0.552,0.1232 0.9792,0.4416 0.432,0.32 0.6496,0.7776 0.2176,0.4576 0.1792,1.0096 -0.0608,0.8976 -0.744,1.4128 -0.6752,0.5088 -1.5632,0.6176 l 1.4912,1.9984 0.0624,0.088 q 0.144,0.2032 0.2672,0.3088 0.1232,0.0992 0.2512,0.1472 0.128,0.048 0.3584,0.064 l 0.3392,0.024 -0.0752,1.0896 -2.5232,-0.1744 -2.296,-3.568 -0.656,-0.0432 -0.1072,1.568 q -0.0272,0.408 0.01,0.5232 0.0368,0.112 0.128,0.1744 0.0992,0.0576 0.4,0.0784 l 0.36,0.024 -0.0752,1.0896 -3.8496,-0.2656 0.0752,-1.088 0.3488,0.0224 q 0.2768,0.0192 0.3936,-0.0288 0.1232,-0.0544 0.1888,-0.1696 0.032,-0.064 0.056,-0.4208 l 0.3056,-4.432 q 0.0192,-0.2592 -0.0192,-0.3696 -0.032,-0.1152 -0.1248,-0.1568 -0.1312,-0.0704 -0.3072,-0.0832 l -0.1584,-0.005 -0.2928,-0.0208 0.0768,-1.1232 z m 2.8112,1.4928 -0.1408,2.0384 1.168,0.08 q 0.6896,0.048 1.0368,-0.0528 0.3536,-0.1056 0.5392,-0.3312 0.192,-0.2256 0.2144,-0.5648 0.0224,-0.3104 -0.128,-0.5408 -0.1408,-0.2368 -0.432,-0.3648 -0.288,-0.128 -0.96,-0.1744 l -1.296,-0.0896 z m 6.9456,-0.7264 3.8192,0.464 -0.1312,1.0848 -0.3488,-0.0432 q -0.304,-0.0368 -0.4112,0.008 -0.1008,0.0384 -0.1664,0.1504 -0.0592,0.1072 -0.0976,0.432 l -0.528,4.336 q -0.0416,0.3552 -0.016,0.4608 0.0272,0.1056 0.1184,0.1632 0.1088,0.08 0.3456,0.1088 l 0.416,0.0512 -0.1328,1.0848 -3.8192,-0.464 0.1312,-1.0848 0.3088,0.0384 q 0.3312,0.04 0.4384,0.008 0.1072,-0.0384 0.1648,-0.1344 0.064,-0.1008 0.1008,-0.4096 l 0.528,-4.3536 q 0.0448,-0.3648 0.008,-0.4832 -0.032,-0.1232 -0.136,-0.2 -0.0736,-0.0544 -0.376,-0.0912 l -0.3488,-0.0416 0.1312,-1.0848 z m 8.2048,1.1392 1.744,0.3008 1.3008,6.4096 q 0.1072,0.512 0.232,0.648 0.1328,0.1376 0.528,0.2 l -0.1856,1.0768 -3.68,-0.6352 0.1856,-1.0768 0.224,0.0336 q 0.3072,0.0528 0.4432,-0.003 0.1376,-0.064 0.1584,-0.1808 0.016,-0.0992 -0.0352,-0.4304 l -0.1072,-0.7472 -2.368,-0.4096 -0.4272,0.736 q -0.1328,0.2352 -0.1456,0.3136 -0.016,0.0896 0.032,0.1728 0.056,0.0832 0.1952,0.1424 0.0912,0.0384 0.52,0.112 l -0.1856,1.0768 -3.0112,-0.52 0.1856,-1.0752 q 0.2896,0.048 0.432,0.0224 0.144,-0.0272 0.2432,-0.112 0.1072,-0.0864 0.2608,-0.3408 z m -0.9632,4.1456 1.5568,0.2688 -0.3888,-2.272 z m 7.4944,-2.9968 3.464,0.8704 0.1568,4.992 2.5488,-4.3136 3.5232,0.8864 -0.2656,1.0592 -0.3792,-0.096 q -0.3072,-0.0768 -0.4608,0.024 -0.1472,0.0976 -0.2368,0.4544 l -1.0912,4.3472 q -0.072,0.2848 -0.0576,0.3648 0.0224,0.1216 0.0992,0.1872 0.104,0.096 0.3008,0.1472 l 0.4336,0.1088 -0.2656,1.0592 -3.6832,-0.9264 0.2672,-1.0592 0.2848,0.072 q 0.3136,0.08 0.4352,0.0576 0.1216,-0.0224 0.1968,-0.1088 0.08,-0.0896 0.1488,-0.3648 l 1.184,-4.7088 -3.4608,5.8752 -1.0592,-0.2656 -0.2624,-6.5952 -1.168,4.6544 q -0.0416,0.16 -0.008,0.2608 0.0384,0.1024 0.1296,0.1792 0.0992,0.0704 0.336,0.1296 l 0.368,0.0928 -0.2672,1.0592 -3.1328,-0.7872 0.2656,-1.0592 0.3072,0.0768 q 0.2912,0.0736 0.408,0.0512 0.1232,-0.0288 0.2,-0.1248 0.0832,-0.1024 0.16,-0.4032 l 1.0768,-4.2928 q 0.0752,-0.296 0.0592,-0.3936 -0.0192,-0.1328 -0.104,-0.2128 -0.0848,-0.08 -0.2992,-0.1328 l -0.416,-0.1056 z m 15.8368,4.416 3.9168,1.4304 q 0.744,0.272 1.176,0.6048 0.44,0.3296 0.6784,0.7664 0.2432,0.4384 0.28,0.9328 0.0368,0.4912 -0.136,0.9632 -0.3472,0.952 -1.3152,1.328 -0.9632,0.376 -2.2496,-0.096 l -1.264,-0.4608 -0.5088,1.3872 q -0.096,0.2608 -0.0832,0.3424 0.0112,0.12 0.0896,0.2016 0.0832,0.0848 0.3168,0.1712 l 0.3776,0.1376 -0.3744,1.024 -3.6144,-1.32 0.3744,-1.024 0.2496,0.0896 q 0.3296,0.1216 0.4544,0.112 0.1232,-0.01 0.208,-0.0928 0.0864,-0.088 0.2048,-0.4128 l 1.4896,-4.0768 q 0.1248,-0.3392 0.1216,-0.4624 -0.002,-0.1264 -0.08,-0.208 -0.0704,-0.088 -0.3312,-0.1824 l -0.3568,-0.1296 0.376,-1.0272 z m 2.2784,2.2048 -0.7696,2.1056 0.632,0.2304 q 0.5792,0.2128 0.8928,0.1952 0.3168,-0.024 0.5696,-0.208 0.256,-0.1904 0.3808,-0.5296 0.1872,-0.512 -0.0976,-0.952 -0.2112,-0.3296 -0.784,-0.5392 z m 5.7856,0.7792 4.4496,1.968 q 0.4304,0.1904 0.9024,0.4912 0.4784,0.304 0.7696,0.7504 0.2976,0.448 0.3472,0.9504 0.048,0.5056 -0.176,1.0112 -0.3632,0.824 -1.1808,1.0752 -0.808,0.248 -1.68,0.048 l 0.72,2.3856 0.0288,0.1056 q 0.0672,0.24 0.1472,0.3808 0.0816,0.136 0.1856,0.224 0.1024,0.0896 0.3152,0.1824 l 0.3104,0.1376 -0.4416,0.9984 -2.3136,-1.024 -0.9424,-4.1344 -0.6,-0.2656 -0.6368,1.4384 q -0.1648,0.3728 -0.1696,0.4944 -0.002,0.1168 0.064,0.208 0.072,0.0864 0.3456,0.208 l 0.3312,0.1472 -0.4416,0.9984 -3.5296,-1.5616 0.4432,-0.9984 0.32,0.1424 q 0.2544,0.112 0.3808,0.1056 0.1328,-0.01 0.2336,-0.096 0.0528,-0.048 0.1968,-0.376 l 1.7968,-4.0608 q 0.1056,-0.24 0.1088,-0.3552 0.008,-0.12 -0.064,-0.1904 -0.1008,-0.112 -0.2608,-0.1824 l -0.1472,-0.0592 -0.2688,-0.1184 0.456,-1.0304 z m 2.1344,2.36 -0.8256,1.8688 1.072,0.4736 q 0.6304,0.28 0.992,0.304 0.368,0.0192 0.6192,-0.128 0.256,-0.1472 0.3936,-0.4576 0.1264,-0.2848 0.064,-0.5536 -0.0528,-0.2704 -0.2832,-0.4896 -0.224,-0.2176 -0.8416,-0.4896 z m 10.9088,3.6672 q 1.6576,0.8816 2.144,2.4368 0.4928,1.5552 -0.3488,3.1392 -0.5664,1.064 -1.4752,1.6384 -0.9072,0.576 -1.976,0.5824 -1.0608,0.006 -2.2304,-0.616 -1.544,-0.8208 -2.0752,-2.1936 -0.6448,-1.6576 0.2672,-3.3696 0.848,-1.5936 2.4272,-2.056 1.584,-0.4576 3.2672,0.4384 z m -0.5712,1.12 q -0.7936,-0.424 -1.5792,-0.08 -0.9888,0.4368 -1.6192,1.6208 -0.6288,1.184 -0.448,2.1648 0.1616,0.8432 0.9424,1.2576 0.784,0.416 1.568,0.0768 0.928,-0.408 1.5552,-1.5872 0.4416,-0.8288 0.5024,-1.5216 0.064,-0.688 -0.192,-1.184 -0.2544,-0.496 -0.7296,-0.7488 z m 6.4368,1.9936 0.6352,0.3952 -0.0736,0.2688 3.7792,2.3552 0.2224,-0.176 0.6384,0.4 -0.6336,2.864 -1.088,-0.2432 q 0.0688,-0.7712 0.048,-1.0304 -0.0352,-0.5088 -0.24,-0.9168 -0.1536,-0.3104 -0.4,-0.4624 -0.1152,-0.072 -0.1936,-0.0416 -0.0768,0.0272 -0.1984,0.224 l -2.4,3.8512 q -0.2144,0.3408 -0.2432,0.4416 -0.0304,0.1024 -0.005,0.1904 0.0272,0.0848 0.1168,0.1664 0.0912,0.0768 0.528,0.3488 l -0.5776,0.928 -3.264,-2.0368 0.576,-0.9264 0.1968,0.1232 q 0.3264,0.2032 0.4416,0.2224 0.1184,0.0128 0.2288,-0.0576 0.1152,-0.0752 0.3184,-0.4032 l 2.4544,-3.936 q 0.104,-0.1696 0.0928,-0.2368 -0.0112,-0.0672 -0.136,-0.144 -0.2496,-0.1568 -0.6736,-0.16 -0.424,-0.005 -0.8768,0.1872 -0.1792,0.0736 -0.8784,0.4992 L 829.7,478.5744 Z m 7.0656,4.7888 5.3568,3.8336 -0.72,2.552 -1.0464,-0.296 q 0.144,-0.6496 0.0752,-1.1568 -0.064,-0.504 -0.3392,-0.848 -0.2672,-0.3456 -0.7232,-0.672 l -0.9808,-0.7008 -1.1456,1.6016 0.3216,0.2304 q 0.3632,0.2608 0.5248,0.2992 0.168,0.0368 0.3024,-0.0352 0.1376,-0.0752 0.3776,-0.4112 l 0.176,-0.2432 0.8176,0.5856 -1.9424,2.7152 -0.8192,-0.5856 0.1968,-0.2768 q 0.2016,-0.28 0.224,-0.4592 0.0288,-0.176 -0.0544,-0.304 -0.08,-0.128 -0.4768,-0.4112 l -0.2896,-0.208 -1.056,1.4736 q -0.1664,0.2352 -0.1792,0.3024 -0.0144,0.0672 0.032,0.1408 0.048,0.0768 0.2688,0.2352 l 0.5392,0.384 q 0.6016,0.432 1.1376,0.5584 0.5408,0.1216 1.136,-0.0304 0.6032,-0.152 1.1568,-0.5568 l 0.6336,0.8928 -2.5472,1.7808 -5.5504,-3.9712 0.6368,-0.888 0.16,0.1152 q 0.3232,0.2304 0.4656,0.264 0.144,0.032 0.272,-0.0496 0.072,-0.0528 0.304,-0.3744 l 2.5024,-3.4976 q 0.2032,-0.2848 0.224,-0.4032 0.0272,-0.112 -0.0256,-0.2144 -0.0512,-0.104 -0.2944,-0.2784 l -0.2848,-0.2048 0.6352,-0.888 z m 8.8208,11.2704 2.9792,2.4432 -0.6992,0.8528 -0.224,-0.1824 q -0.2176,-0.1792 -0.3344,-0.208 -0.1104,-0.0256 -0.2208,0.0288 -0.1088,0.0512 -0.3056,0.2912 l -1.568,1.912 -0.896,-0.736 0.1264,-0.6272 q -0.6352,-0.0656 -1.1872,-0.2928 -0.5536,-0.2272 -1.0304,-0.6176 -0.8352,-0.6864 -1.1888,-1.656 -0.352,-0.9712 -0.1552,-2.032 0.2,-1.056 0.944,-1.9632 0.736,-0.896 1.712,-1.2816 0.9776,-0.3824 2.0208,-0.208 1.0512,0.1744 1.8816,0.856 0.4032,0.3296 0.7152,0.7616 0.32,0.432 0.464,0.8352 l 0.384,-0.1392 0.6128,0.504 -1.1072,2.472 -1.0208,-0.3968 q 0.1344,-1.0032 0.0912,-1.44 -0.0384,-0.4352 -0.2384,-0.8256 -0.1952,-0.3872 -0.488,-0.6272 -0.416,-0.3408 -0.976,-0.4 -0.5552,-0.0528 -1.1456,0.24 -0.5872,0.2864 -1.1264,0.9424 -0.592,0.7216 -0.8,1.4384 -0.2016,0.72 -0.0416,1.2816 0.1648,0.56 0.6112,0.9248 0.3136,0.2592 0.6976,0.3616 0.3888,0.1072 0.624,0.0352 0.2336,-0.072 0.4528,-0.3376 l 0.1824,-0.224 q 0.192,-0.232 0.2096,-0.3184 0.024,-0.1264 -0.0272,-0.2336 -0.0464,-0.104 -0.2816,-0.2976 l -0.3456,-0.2848 0.6992,-0.8528 z m 8.5184,2.5488 1.2944,1.2096 -2.4272,6.072 q -0.192,0.4864 -0.1616,0.6704 0.034,0.1872 0.3312,0.4576 l -0.7456,0.7968 -2.728,-2.5488 0.744,-0.7984 0.1696,0.1504 q 0.2272,0.2128 0.3728,0.24 0.1488,0.0224 0.2304,-0.064 0.069,-0.0752 0.208,-0.3792 l 0.32,-0.6832 -1.7568,-1.6416 -0.76,0.3824 q -0.24,0.1232 -0.2944,0.1808 -0.062,0.0672 -0.067,0.1632 0,0.1008 0.085,0.224 0.054,0.0832 0.3728,0.3808 l -0.7456,0.7984 -2.2336,-2.0864 0.7456,-0.7984 q 0.216,0.2016 0.3488,0.256 0.1344,0.056 0.2656,0.04 0.136,-0.0128 0.4048,-0.1424 z m -3.0784,2.9392 1.152,1.0784 0.9216,-2.112 z m 8.2688,1.6672 0.5152,0.5408 -0.1376,0.24 3.0704,3.2272 0.2576,-0.112 0.52,0.544 -1.3296,2.616 -0.992,-0.5088 q 0.2576,-0.7296 0.304,-0.984 0.093,-0.5024 0,-0.9488 -0.072,-0.3392 -0.272,-0.5472 -0.093,-0.0992 -0.176,-0.0896 -0.08,0.006 -0.2496,0.1664 l -3.2864,3.1296 q -0.2912,0.2768 -0.3456,0.368 -0.054,0.0896 -0.053,0.1824 0.01,0.088 0.072,0.1888 0.069,0.0976 0.424,0.472 l -0.7904,0.752 -2.6528,-2.7872 0.7904,-0.752 0.16,0.1664 q 0.2656,0.28 0.3728,0.3264 0.112,0.0432 0.2352,0.002 0.1296,-0.0448 0.408,-0.3104 l 3.3616,-3.1984 q 0.144,-0.136 0.1488,-0.2048 0.01,-0.0672 -0.096,-0.1744 -0.2016,-0.2128 -0.6112,-0.3232 -0.4096,-0.1104 -0.896,-0.0384 -0.192,0.0272 -0.976,0.264 l -0.448,-1.0032 z"
     id="path119"
     style="stroke-width:1.6" />
</svg>
