<?xml version="1.0" encoding="UTF-8" standalone="no"?>
<svg
   width="1000in"
   height="600in"
   clip-rule="evenodd"
   fill-rule="evenodd"
   image-rendering="optimizeQuality"
   shape-rendering="geometricPrecision"
   text-rendering="geometricPrecision"
   viewBox="0 0 1000 600"
   xml:space="preserve"
   version="1.1"
   id="svg18"
   sodipodi:docname="gu.svg"
   inkscape:version="1.3.2 (091e20e, 2023-11-25, custom)"
   xmlns:inkscape="http://www.inkscape.org/namespaces/inkscape"
   xmlns:sodipodi="http://sodipodi.sourceforge.net/DTD/sodipodi-0.dtd"
   xmlns="http://www.w3.org/2000/svg"
   xmlns:svg="http://www.w3.org/2000/svg"><defs
     id="defs18" /><sodipodi:namedview
     id="namedview18"
     pagecolor="#505050"
     bordercolor="#eeeeee"
     borderopacity="1"
     inkscape:showpageshadow="0"
     inkscape:pageopacity="0"
     inkscape:pagecheckerboard="0"
     inkscape:deskcolor="#505050"
     inkscape:document-units="in"
     inkscape:zoom="0.01"
     inkscape:cx="6700"
     inkscape:cy="35250"
     inkscape:window-width="2560"
     inkscape:window-height="1417"
     inkscape:window-x="3832"
     inkscape:window-y="313"
     inkscape:window-maximized="1"
     inkscape:current-layer="svg18" /><path
     d="M 0,0 H 1000 V 600 H 0 Z"
     fill="#c62139"
     id="path1"
     style="stroke-width:12.8957" /><path
     d="M 24.390244,27.272727 H 975.6098 V 572.72727 H 24.390244 Z"
     fill="#00297b"
     id="path2"
     style="stroke-width:12.8957" /><path
     d="m 500.32718,145.39091 c 0,0 -103.40454,75.34091 -103.40454,153.6 0,78.27273 103.40454,155.61818 103.40454,155.61818 0,0 102.75,-71.7 102.75,-155.61818 0,-83.89091 -102.75,-153.6 -102.75,-153.6 z"
     fill="#92dbfc"
     id="path3"
     style="stroke-width:13.6364" /><path
     d="m 408.36355,346.77273 c 26.91818,59.18182 91.96363,107.83636 91.96363,107.83636 0,0 66.21818,-46.21364 92.31818,-107.85"
     fill="#008ce7"
     id="path4"
     style="stroke-width:13.6364" /><path
     d="m 593.01355,329.68636 c -15.94091,10.44546 -105.64091,5.42728 -105.64091,5.42728 l -5.01819,11.7 106.81364,0.3 c 0.43636,-1.60909 1.5,-3.51819 1.88182,-5.12728 z"
     fill="#9c8431"
     style="fill:#cccccc;stroke-width:13.6364"
     id="path5" /><path
     d="m 432.51355,378.08182 c 4.5409,0.13636 9.06818,1.02273 13.13181,3 7.26819,3.50454 11.46819,3.47727 19.29546,3.58636 8.19545,0.10909 14.63182,5.63182 23.48182,5.86364 16.30909,0.40909 23.18181,7.84091 10.5,7.84091 -6,0 -18.84546,-3.68182 -25.05,-2.91818 -9.43637,0.87272 -14.89091,1.52727 -21.87273,6.61363 a 265.65,265.65 0 0 1 -19.48636,-23.98636 z m 32.27727,37.24091 c 4.03636,-2.52273 6.81818,-4.5 10.74545,-4.62273 7.63637,-0.20455 10.22728,-4.52727 19.05,-4.52727 10.02273,1.67727 23.59091,-1.09091 31.55455,-2.72728 14.1,-2.97272 7.41818,-12 -1.13182,-15.28636 -6.9,-2.71364 -19.84091,-0.13636 -27.87273,-2.82273 -6.06818,-2.18181 -1.06363,-5.63181 2.20909,-6.36818 3.28637,-0.55909 6.81819,0.43637 10.93637,1.05 a 114.55909,114.55909 0 0 0 22.96363,-0.95454 c 13.29546,-1.86819 12.75,-5.44091 19.17273,-5.52273 4.67727,-0.19091 8.25,-1.47273 11.45455,-3.55909 3.73636,-2.29091 7.65,-6.99546 12.19091,-6.81818 l 2.67272,0.10909 c -28.05,49.69091 -78.42272,82.30909 -78.42272,82.30909 0,0 -16.28182,-11.41364 -35.52273,-30.25909 z"
     fill="#ffde52"
     id="path6"
     style="stroke-width:13.6364" /><path
     d="m 471.02264,325.67727 c 0.38181,-0.51818 0.76363,-0.28636 1.14545,0 l 0.81818,37.99091 H 470.259 Z"
     style="fill:#8c4200;stroke-width:13.6364"
     id="path7" /><path
     d="m 437.95445,362.38636 c 0,0 34.43182,2.4 55.55455,-1.74545 0,0 1.77273,1.09091 -0.76364,3.81818 -2.55,2.72727 -9,3.31364 -12.54545,3.9 0,0 -0.85909,1.74546 -0.79091,2.65909 0.0818,0.91364 2.23636,0.81818 3.3,0.61364 l 1.06364,-0.19091 c 0,0 -0.50455,3.40909 -13.54091,3.85909 -4.28182,0.15 -18.38182,0.42273 -21.36818,-3.40909 0,0 2.5909,0.19091 3.25909,0 0.68181,-0.19091 0.17727,-2.65909 -0.0682,-3.01364 -0.24545,-0.35454 -9.13636,0 -13.82727,-3.95454 -1.15909,-1.13182 -1.70454,-2.34546 -1.70454,-2.76818 0,-0.0409 1.41818,0.23181 1.41818,0.23181 z M 455.89991,369 c 0,0 9.42273,1.10455 20.26364,0 0,0 0.28636,1.88182 -0.20455,2.59091 -0.49091,0.72273 -13.00909,1.26818 -19.32273,0.27273 -1.00909,-0.3 -1.05,-1.43182 -0.73636,-2.86364 z"
     fill="#8c4200"
     id="path8"
     style="stroke-width:13.6364" /><path
     d="m 444.19991,359.80909 c 0,0 10.90909,-13.69091 7.40454,-37.36364 16.86819,9.38182 31.2,23.52273 35.1,36.65455 -15.3,-3.54545 -28.81363,-1.09091 -42.50454,0.70909 z"
     fill="#fdf9ff"
     id="path9"
     style="stroke-width:13.6364" /><path
     d="m 500.35445,136.36364 c 0,0 -109.44545,74.60454 -109.44545,162.57272 0,87.98182 109.44545,164.7 109.44545,164.7 0,0 108.73637,-70.39091 108.73637,-164.7 0,-94.29545 -108.73637,-162.57272 -108.73637,-162.57272 z m -0.0409,18.05454 c 0,0 -97.36364,66.36818 -97.36364,144.64091 0,78.27273 97.36364,146.52273 97.36364,146.52273 0,0 96.73636,-62.61818 96.73636,-146.52273 0,-83.90454 -96.73636,-144.64091 -96.73636,-144.64091 z"
     fill="#c62139"
     id="path10"
     style="stroke-width:13.6364" /><path
     d="m 529.26355,378.92727 c 1.74545,6.16364 3.58636,8.26364 10.66363,9.84546 6.98182,1.58182 17.64546,-4.63637 11.04546,-10.66364 -6.3,-5.61818 -12.92728,-7.05 -18.57273,-12.10909 -8.74091,-7.93636 -20.74091,-24.35455 -26.44091,-39.87273 -6.23182,-16.97727 -5.15455,-64.74545 -4.86818,-88.95 0,-0.27272 0.75,-0.45 0.84545,-0.55909 0.40909,-0.54545 0.79091,0.16364 0.15,-3.38182 -0.16363,-0.91363 -0.95454,-1.85454 -0.95454,-2.76818 0.0136,-1.63636 -6.17728,1.78637 -7.8,4.71818 -0.38182,0.66819 1.18636,2.57728 1.18636,2.94546 0.20455,23.22273 -2.52273,69.06818 4.21364,89.82273 4.15909,12.84545 11.76818,22.77272 18.64091,31.95 4.13181,5.87727 10.09091,12.23181 11.89091,19.02272 z"
     fill="#8c4200"
     style="stroke:#000000;stroke-width:0.213068"
     id="path11" /><path
     d="m 436.059,230.31818 c 0.45,0.54546 0.38182,2.94546 0.38182,2.94546 0.35454,0.19091 6.19091,-4.55455 6.19091,-4.33637 0,0.99546 0.13636,3.05455 0.13636,3.05455 0,0 6.04091,-5.25 6.28636,-4.70455 0.27273,0.62728 -0.0273,3.68182 -0.0273,3.68182 l 4.75909,-4.8 c 0.53182,-0.51818 0.45,0.66818 0.49091,2.56364 0.0136,0.34091 6.58637,-4.43182 6.98182,-4.51364 0.85909,-0.17727 1.11818,2.48182 1.07727,3.13636 -0.0409,0.49091 6.06818,-3.17727 5.79546,-2.7 l 0.45,2.82273 c 1.70454,-0.20454 5.75454,-1.59545 8.18182,-1.22727 0.7909,0.10909 0.75,0.46364 0.0545,0.73636 -11.74091,4.35 -20.78182,10.90909 -26.04545,20.04546 -1.78637,3.12272 -2.33182,5.83636 -1.85455,6.51818 0,0 2.1,-4.15909 4.48636,-4.81364 0.31364,-0.0818 0.53182,2.67273 0.8591,2.50909 0,0 1.8,-4.15909 3.09545,-5.7 0.35455,-0.40909 0.92727,2.18182 1.30909,1.8 0,0 0.92727,-2.78181 2.76818,-4.73181 0.25909,-0.27273 0.73637,2.64545 1.02273,2.4 1.90909,-1.6091 3.68182,-5.63182 4.39091,-5.93182 0.50454,-0.35455 0.58636,3.34091 1.06364,3.02727 0,0 2.71363,-4.99091 4.32272,-5.89091 1.05,-0.58636 1.00909,2.72727 1.00909,2.72727 2.05909,-1.86818 4.33637,-4.96363 5.41364,-6.3 0.50455,-0.62727 0.23182,4.06364 0.75,4.25455 0.68182,0.23182 5.14091,-3.6 5.63182,-3.68182 0.34091,-0.0409 0.72273,1.09091 -0.13637,2.01818 l -5.50909,5.80909 c 1.06364,0.19091 1.47273,-0.0818 2.22273,0.0955 2.26364,0.54545 -4.22727,3.95454 -4.10454,4.58182 0,0 3.12272,-0.0546 2.07272,0.50454 -0.75,0.40909 -4.88182,5.26364 -4.88182,5.08637 0,-0.0818 2.07273,0.0409 2.0591,0.58636 -0.0136,1.00909 -3.42273,6.20454 -3.46364,6.17727 -0.17727,-0.16363 1.84091,-0.21818 2.11364,0.28637 0.50454,0.95454 -3.50455,5.15454 -2.72728,5.86363 0.10909,0.10909 2.29091,0.0409 3.25909,0.23182 0.46364,0.0955 1.77273,7.63636 1.44546,7.33636 a 65.904545,65.904545 0 0 1 2.30454,-9.20454 c 0.54546,-1.28182 2.30455,1.95 2.44091,1.66363 -0.0682,0 -0.35454,-4.59545 -0.10909,-6.69545 0.0682,-0.58636 1.33637,0.61364 1.30909,0.0546 -0.0409,-1.26819 -0.15,-2.63182 0.13637,-3.87273 0.20454,-0.92727 1.28181,1.69091 1.70454,0.98182 0,0 -1.30909,-4.55455 -0.76363,-5.83637 0.35454,-0.84545 1.22727,2.04546 1.8,2.15455 0,0 -0.32728,-3.54546 0.27272,-4.44546 l 1.81364,1.77273 c 0.39545,-0.57273 0.31364,-6.09545 0.68182,-6.6 0.3,-0.43636 2.18182,2.05909 2.45454,1.67727 0.25909,-0.36818 -0.79091,-4.45909 -0.54545,-4.77272 0.32727,-0.47728 2.38636,1.13181 2.42727,1.09091 0.83182,-0.76364 0.81818,-2.7 1.15909,-3.4091 0.95455,-1.93636 6.38182,-2.18181 7.02273,-0.81818 0.31364,0.68182 0.0955,1.54091 -0.0273,2.59091 0.0409,0.0273 2.72727,0.20455 2.72727,0.0136 0,0 -0.31364,2.29091 -0.12273,4.8 0.0273,0.34091 2.71364,-0.0818 2.75455,0.25909 0.23182,2.35909 -0.35455,2.59091 -0.35455,2.59091 0.0273,0.16363 1.81364,-0.27273 1.84091,-0.0818 a 6.1090909,6.1090909 0 0 1 -1.00899,3.91357 c -0.13636,0.19091 2.55,-0.19091 2.59091,0.0409 0.32727,1.77272 0.38182,3.1909 0.0545,5.7 -0.0273,0.1909 2.61819,-1.77273 2.6591,-1.56819 0.40909,2.1 -0.0682,4.37728 0.17727,6.57273 0.0545,0.50455 1.74545,-1.51364 1.90909,-0.92727 0.13636,0.57273 -0.38182,4.74545 -0.13636,4.99091 0,0 2.85,-0.13637 3.09545,0.0818 2.25,1.93636 1.82727,5.31818 1.82727,5.31818 0.61364,-0.42273 0.38182,-4.5 -0.24545,-8.20909 -0.0682,-0.39546 2.18182,-0.24546 2.11363,-0.61364 0,0 -2.45454,-1.36364 -3.27272,-5.14091 -0.17728,-0.80454 2.37272,-0.64091 2.37272,-0.64091 -0.70909,-1.48636 -1.95,-1.77273 -3,-3.20454 -0.3409,-0.46364 2.64546,-0.68182 2.64546,-0.81819 0,-1.41818 -2.52273,-2.1 -3.83182,-3.58636 -0.55909,-0.62727 2.72727,-0.66818 2.72727,-0.66818 -0.95454,-1.22727 -4.14545,-1.77273 -5.76818,-3.38182 -0.87273,-0.88636 3.23182,-1.75909 3.17727,-1.90909 -0.45,-1.29545 -4.30909,-1.70455 -6.1909,-3.17727 -0.38182,-0.3 2.45454,-1.32273 2.45454,-1.32273 -0.28636,-0.54545 -6.46364,-4.26818 -3.32727,-3.92727 1.33636,0.13636 4.02273,1.86818 4.22727,1.60909 0,0 -0.10909,-2.18182 0.16364,-2.42727 1.03636,-0.98182 4.59545,4.15909 5.79545,3.95454 0,0 0.45,-3.68182 0.99546,-3.79091 1.30909,-0.21818 2.89091,5.37273 4.17272,5.37273 0.17728,0 0.27273,-3.23182 0.92728,-3.40909 0.75,-0.20455 1.59545,3.62727 2.53636,4.47273 0.87273,0.77727 0.88636,-3 1.40455,-2.27728 0.87272,1.15909 1.0909,3.57273 2.27727,4.63637 0.77727,0.68181 0.91363,-3.32728 1.77273,-2.79546 1.00909,0.62727 0.77727,2.7 1.89545,3.72273 0.54545,0.49091 0.9,-2.64546 1.5,-2.18182 0.54545,0.40909 0.91364,4.22727 1.5,4.84091 0.73636,0.77727 1.59545,-2.01818 2.35909,-1.58182 0.54546,0.32727 0.42273,3.64091 0.94091,4.36364 1.05,1.47273 1.59545,-1.78637 2.29091,-1.28182 0.49091,0.34091 1.54091,4.14545 1.97727,4.44545 0.96818,0.68182 1.5,-1.73181 2.25,-1.3909 0.54546,0.24545 1.62273,5.15454 2.07273,5.03181 0.27273,-0.0818 1.00909,-11.19545 -3.66818,-15.88636 -7.59546,-7.63636 -21.21818,-12.04091 -32.33182,-12.15 0,0 5.59091,-1.02273 5.72727,-1.86818 0.3,-1.69091 3.06818,-1.5 5.00455,-1.09091 0.34091,0.0545 0.16363,-3 0.20454,-3 1.73182,-0.0546 3.27273,0.88636 4.93637,1.8 0.50454,0.3 -1.05,-3.05455 -0.50455,-2.76818 2.12727,1.13182 4.5,1.45909 5.91818,2.82272 0.38182,0.35455 -0.42272,-2.57727 -0.42272,-2.57727 1.05,-0.23182 3.13636,1.15909 3.96818,2.48182 0.40909,0.64091 -0.0273,-3.42273 0.28636,-2.7 0,0 3.70909,1.14545 4.09091,2.56364 0,0 0.31364,-2.57728 0.81818,-2.44091 1.47273,0.35454 2.78182,2.64545 3.94091,2.98636 0,0 -0.49091,-2.30454 -0.10909,-2.22273 2.78182,0.65455 5.80909,2.22273 5.80909,2.22273 -1.56818,-3.6 -7.52727,-7.36364 -18,-8.37273 a 64.677273,64.677273 0 0 0 -16.33636,0.92728 c -5.41364,1.14545 -9.68182,1.8 -8.80909,1.02272 3.57272,-3.21818 9.36818,-3.61363 10.96363,-4.36363 1.13182,-0.53182 -3.84545,-2.29091 -2.86363,-2.53637 0.99545,-0.21818 5.44091,-0.54545 5.44091,-0.54545 0.95454,-0.69546 -3.23182,-2.04546 -2.60455,-3.05455 1.25455,-2.00454 8.67273,-0.17727 9.31364,-0.95454 0.20454,-0.24546 -3.19091,-2.08637 -3.05455,-2.35909 0.54546,-1.00909 7.14546,0.76363 7.30909,-0.13637 0,0 -2.00454,-1.36363 -3.43636,-2.48181 -0.16364,-0.13637 5.90454,-1.63637 5.90454,-1.63637 a 9.9954545,9.9954545 0 0 0 -2.42727,-1.2 c -1.28182,-0.45 5.31818,-2.01818 5.31818,-2.01818 -8.35909,-3.50455 -30.06818,6.45 -34.37727,16.78636 -1.11818,2.46819 -1.15909,-0.21818 -0.91364,-2.30454 0.21819,-2.25 0.53182,-4.22727 0.27273,-6.27273 -0.0955,-0.61364 -1.77273,1.62273 -1.90909,1.02273 -0.42273,-2.18182 0.85909,-4.59546 0.27273,-7.03637 -0.19091,-0.81818 -2.44091,2.41364 -2.72728,1.59546 -0.83181,-2.25 0.6,-5.41364 0.0273,-8.52273 -0.23182,-1.21363 -2.35909,2.59091 -3.06818,1.51364 -0.83182,-1.25455 -0.47728,-5.91818 -0.87273,-6.62727 -0.31364,-0.57273 -2.20909,2.23636 -2.37273,1.70454 -2.56364,-8.55 0.84546,-9.61364 -4.09091,-4.8 -0.16363,0.17727 -1.25454,-5.04545 -1.44545,-4.88182 -2.01818,3.95455 -5.31818,-2.80909 -6.46364,-2.18182 -0.84545,0.47728 2.31818,3.1091 2.34546,4.28182 0.0136,0.57273 -2.90455,0.61364 -2.90455,0.61364 0.0682,0.96818 5.55,3.70909 5.72727,4.77273 0.13637,0.88636 -3.87272,0.68181 -3.87272,0.68181 0.12272,1.18637 4.6909,2.31819 4.93636,3.6 0.13636,0.68182 -2.14091,0.84546 -2.05909,1.56819 0.12273,1.09091 4.41818,3.24545 4.55454,4.36363 0.0955,0.76364 -2.74091,1.09091 -2.80909,1.8 -0.0818,0.87273 5.7,3.80455 5.71364,4.63637 0,1.14545 -2.31818,0.54545 -3.35455,1.13181 -1.48636,0.81819 4.73182,4.14546 5.00455,5.1 0.20454,0.81819 -2.49546,0.0955 -2.59091,0.84546 -0.10909,0.99545 3.05455,2.49545 3.77727,4.2 0.72273,1.67727 -0.0136,2.11364 -1.05,1.44545 -2.08636,-1.35 -10.48636,-9.51818 -12.72272,-11.7 a 27.027273,27.027273 0 0 0 -16.5,-6.91363 c -0.68182,0.19091 3.57272,2.94545 3.6,3.94091 0,0.25909 -1.9091,0.64091 -1.82728,0.70909 1.17273,1.09091 4.84091,2.35909 4.84091,2.35909 l -1.05,1.73182 c 0.24546,0.50454 1.97727,0.64091 4.74546,1.48636 0,0 -2.07273,1.17273 -1.90909,1.28182 1.45909,1.09091 4.30909,1.86818 4.30909,1.86818 l -2.80909,0.87273 c -0.16364,0.49091 6.32727,2.86363 6.32727,2.86363 0,0 -2.03182,1.60909 -1.93637,1.69091 0.49091,0.45 5.25,1.45909 5.25,1.45909 0.0818,0.0682 -3.35454,1.05 -3.3409,1.07728 1.25454,1.14545 4.70454,1.51363 5.50909,3.40909 0,0 0.46363,1.07727 -0.9,0.87272 -5.35909,-1.78636 -13.66364,-5.46818 -29.76819,-4.02272 -16.47272,1.96363 -29.01818,15.06818 -28.8,16.36363 0,0 5.89091,-3.85909 6.50455,-3.06818 z"
     fill="#109421"
     style="stroke:#000000;stroke-width:0.213068"
     id="path12" /><circle
     cx="494.96808"
     cy="230.19547"
     r="3.9000001"
     style="fill:#8c4200;stroke:#000000;stroke-width:0.213068;stroke-linecap:round;stroke-linejoin:round;stroke-miterlimit:33;paint-order:markers fill stroke"
     id="circle12" /><circle
     cx="494.61353"
     cy="236.59091"
     r="3.9000001"
     style="fill:#8c4200;stroke:#000000;stroke-width:0.213068;stroke-linecap:round;stroke-linejoin:round;stroke-miterlimit:33;paint-order:markers fill stroke"
     id="circle13" /><circle
     cx="499.97266"
     cy="228.73636"
     r="3.9000001"
     style="fill:#8c4200;stroke:#000000;stroke-width:0.213068;stroke-linecap:round;stroke-linejoin:round;stroke-miterlimit:33;paint-order:markers fill stroke"
     id="circle14" /><circle
     cx="500.55902"
     cy="234.16365"
     r="3.9000001"
     style="fill:#8c4200;stroke:#000000;stroke-width:0.213068;stroke-linecap:round;stroke-linejoin:round;stroke-miterlimit:33;paint-order:markers fill stroke"
     id="circle15" /><path
     d="m 453.49991,302.30455 q -0.27273,0 -0.36818,0.23181 -0.0955,0.20455 -0.13637,0.55909 h -0.40909 v -5.5909 h 0.40909 q 0.0682,0.72272 0.50455,0.72272 h 9.92727 v 0.47728 q -0.54545,0.0409 -0.54545,0.68181 v 6.62728 q 0,0.27272 0.0682,0.47727 0.0682,0.20454 0.34091,0.20454 h 0.16363 v 0.47728 q -4.56818,2.86363 -10.82727,2.86363 -2.11363,0 -4.09091,-0.58636 -1.96363,-0.64091 -3.47727,-1.96364 -1.5,-1.30909 -2.45455,-3.31363 -0.9,-2.04546 -0.9,-4.74546 0,-2.7 0.9,-4.71818 0.95455,-2.03182 2.45455,-3.35454 1.51364,-1.36364 3.46364,-1.99091 1.99091,-0.68182 4.10454,-0.68182 0.84546,0 1.48637,0.0409 0.62727,0.0409 1.22727,0.16363 0.61363,0.12273 1.25454,0.31364 0.64091,0.16364 1.51364,0.45 0.84545,0.27273 1.55455,0.68182 0.69545,0.35454 0.9,0.35454 0.27272,0 0.47727,-0.32727 l 0.40909,0.16364 -2.19546,5.26363 -0.40909,-0.27272 q 0.0682,-0.24546 0.0682,-0.43637 0,-0.27272 -0.57273,-0.6 -0.57273,-0.36818 -1.44546,-0.64091 -0.87272,-0.27272 -1.97727,-0.47727 -1.09091,-0.20454 -2.12727,-0.20454 -1.2,0 -2.31818,0.40909 -1.07728,0.35454 -1.95,1.14545 -0.83182,0.80455 -1.33637,2.00455 -0.50454,1.15909 -0.50454,2.79545 0,1.59546 0.6,2.79546 0.6,1.15909 1.51363,1.90909 0.94091,0.76363 2.08637,1.11818 1.14545,0.35454 2.25,0.35454 1.41818,0 2.52272,-0.19091 1.14546,-0.20454 2.18182,-0.55909 v -2.63181 z"
     style="fill:#bd0728;stroke-width:0.343511;stroke-linecap:round;stroke-linejoin:round;stroke-miterlimit:33;paint-order:markers fill stroke"
     id="path15" /><path
     d="m 484.809,289.90909 q 0,-0.3 -0.16364,-0.45 -0.12272,-0.20454 -0.72272,-0.28636 v -0.49091 h 6.51818 v 0.49091 q -0.6,0.0818 -0.75,0.27272 -0.13637,0.16364 -0.13637,0.45 v 10.82728 q 0,2.65909 -0.68181,4.47272 -0.68182,1.82728 -1.88182,2.90455 -1.17273,1.09091 -2.78182,1.54091 -1.58182,0.40909 -3.39545,0.40909 -1.8,0 -3.4091,-0.40909 -1.59545,-0.45 -2.79545,-1.54091 -1.17273,-1.09091 -1.86818,-2.90455 -0.66818,-1.81363 -0.66818,-4.47272 v -10.82728 q 0,-0.27272 -0.15,-0.43636 -0.13637,-0.20454 -0.73637,-0.28636 v -0.49091 h 6.53182 v 0.49091 q -0.6,0.0818 -0.76364,0.27272 -0.13636,0.16364 -0.13636,0.45 v 10.82728 q 0,2.33182 1.05,3.34091 1.05,1.00909 2.94546,1.00909 1.90909,0 2.94545,-1.00909 1.03636,-1.00909 1.05,-3.34091 z"
     style="fill:#bd0728;stroke-width:0.33524;stroke-linecap:round;stroke-linejoin:round;stroke-miterlimit:33;paint-order:markers fill stroke"
     id="path16" /><path
     d="m 510.009,309.15 q 0,0.20455 0.10909,0.32727 0.13636,0.0818 0.54546,0.0818 V 310.05 h -6.38182 v -0.50455 q 0.40909,-0.0818 0.57272,-0.24545 0.19091,-0.20455 0.36819,-0.68182 l 0.35454,-1.10454 q 0.28637,-0.88637 0.76364,-2.23637 l 1.03636,-3.04091 1.15909,-3.36818 1.11818,-3.36818 1.0091,-2.97273 q 0.43636,-1.29545 0.68181,-2.11363 l 0.28637,-0.84546 q 0,-0.20454 -0.24546,-0.28636 -0.21818,-0.0818 -0.47727,-0.12273 v -0.49091 h 9.40909 v 0.49091 q -0.27273,0.0409 -0.46364,0.12273 -0.17727,0.0818 -0.17727,0.40909 0,0.0818 0.31364,1.05 0.36818,0.98182 0.91363,2.56364 l 1.22728,3.53181 1.47272,4.02273 1.44546,3.96818 1.29545,3.50455 q 0.27273,0.72273 0.46364,0.96818 0.21818,0.24545 0.54545,0.24545 v 0.49091 h -7.10454 v -0.49091 q 0.68182,-0.0409 0.68182,-0.4909 l -0.17728,-0.53182 -0.40909,-1.13182 -0.40909,-1.22727 q -0.19091,-0.54546 -0.23182,-0.76364 h -8.53636 q -0.36818,1.09091 -0.57273,1.78636 l -0.36818,1.09091 -0.17727,0.61364 -0.0409,0.24545 z m 8.76818,-6.98182 -3.50454,-9.66818 -3.20455,9.66818 z"
     style="fill:#bd0728;stroke-width:0.358662;stroke-linecap:round;stroke-linejoin:round;stroke-miterlimit:33;paint-order:markers fill stroke"
     id="path17" /><path
     d="m 552.24082,309.70909 q 0.65454,-0.0818 0.80454,-0.23182 0.16364,-0.20454 0.16364,-0.49091 v -14.94545 l -0.0682,-0.0818 -6.17727,15.75 -6.09546,-15.91364 h -0.0682 v 15.19091 q 0,0.27273 0.13636,0.49091 0.17728,0.15 0.83182,0.23182 V 310.2 H 535.659 v -0.49091 q 0.66818,-0.0818 0.80455,-0.23182 0.17727,-0.20454 0.17727,-0.49091 v -18.94091 q 0,-0.27272 -0.17727,-0.45 -0.13637,-0.1909 -0.80455,-0.27272 v -0.49091 h 9.05455 v 0.49091 q -0.81819,0.0409 -0.81819,0.72272 l 0.19091,0.65455 0.53182,1.5 0.72273,1.95 q 0.40909,1.00909 0.76363,1.99091 0.38182,0.92727 0.65455,1.66364 0.27273,0.73636 0.38182,0.96818 0.58636,-1.54091 1.22727,-3 0.64091,-1.45909 1.09091,-2.67273 0.53182,-1.22727 0.84545,-2.04545 0.3,-0.80455 0.3,-1.0091 0,-0.68181 -0.81818,-0.72272 v -0.49091 h 9.39546 v 0.49091 q -0.66818,0.0818 -0.83182,0.27272 -0.13636,0.16364 -0.13636,0.45 v 18.92728 q 0,0.27272 0.13636,0.49091 0.16364,0.15 0.81818,0.23181 v 0.49091 h -6.92727 z"
     style="fill:#bd0728;stroke-width:0.351803;stroke-linecap:round;stroke-linejoin:round;stroke-miterlimit:33;paint-order:markers fill stroke"
     id="path18" /></svg>
