<?xml version="1.0" encoding="UTF-8" standalone="no"?>
<svg
   width="1000"
   height="600"
   fill="#ee1c25"
   version="1.1"
   id="svg5"
   sodipodi:docname="hk.svg"
   inkscape:version="1.3.2 (091e20e, 2023-11-25, custom)"
   xmlns:inkscape="http://www.inkscape.org/namespaces/inkscape"
   xmlns:sodipodi="http://sodipodi.sourceforge.net/DTD/sodipodi-0.dtd"
   xmlns:xlink="http://www.w3.org/1999/xlink"
   xmlns="http://www.w3.org/2000/svg"
   xmlns:svg="http://www.w3.org/2000/svg">
  <defs
     id="defs5" />
  <sodipodi:namedview
     id="namedview5"
     pagecolor="#505050"
     bordercolor="#eeeeee"
     borderopacity="1"
     inkscape:showpageshadow="0"
     inkscape:pageopacity="0"
     inkscape:pagecheckerboard="0"
     inkscape:deskcolor="#505050"
     inkscape:zoom="0.71948115"
     inkscape:cx="500.36057"
     inkscape:cy="299.5214"
     inkscape:window-width="2560"
     inkscape:window-height="1417"
     inkscape:window-x="3832"
     inkscape:window-y="313"
     inkscape:window-maximized="1"
     inkscape:current-layer="svg5" />
  <path
     d="M 0,0 H 1000 V 600 H 0 Z"
     id="path1"
     style="stroke-width:1.05409" />
  <g
     id="a"
     transform="matrix(1.11111,0,0,1.11111,-0.934104,-32.821121)">
    <path
       d="m 492.936,125.196 a 27.917,27.917 0 0 0 -14.902,41.792 45.171,45.171 0 0 1 -20.29,66.204 38.65,38.65 0 0 0 -10.816,64.313 68.375,68.375 0 0 1 -17.068,-93.914 15.81,15.81 0 0 1 -1.109,-1.047 69.88,69.88 0 0 0 16.755,95.793 90.342,90.342 0 0 1 47.43,-173.141"
       fill="#ffffff"
       id="path2" />
    <path
       d="m 451.98,181.1 -27.565,12.021 29.366,6.476 -19.951,-22.5 2.915,29.93"
       id="path3" />
  </g>
  <g
     id="b"
     transform="matrix(1.11111,0,0,1.11111,-0.934104,-32.821121)">
    <use
       xlink:href="#a"
       transform="rotate(72,475,265.59045)"
       id="use3" />
    <use
       xlink:href="#a"
       transform="rotate(-144,475,308.12299)"
       id="use4" />
  </g>
  <use
     xlink:href="#b"
     transform="rotate(72,499.0654,300.51188)"
     id="use5" />
</svg>
