<?xml version="1.0" encoding="UTF-8" standalone="no"?>
<svg
   width="1000"
   height="600"
   viewBox="0 0 13200 7920"
   version="1.1"
   id="svg4"
   sodipodi:docname="iq.svg"
   inkscape:version="1.3.2 (091e20e, 2023-11-25, custom)"
   xmlns:inkscape="http://www.inkscape.org/namespaces/inkscape"
   xmlns:sodipodi="http://sodipodi.sourceforge.net/DTD/sodipodi-0.dtd"
   xmlns="http://www.w3.org/2000/svg"
   xmlns:svg="http://www.w3.org/2000/svg">
  <defs
     id="defs4" />
  <sodipodi:namedview
     id="namedview4"
     pagecolor="#505050"
     bordercolor="#eeeeee"
     borderopacity="1"
     inkscape:showpageshadow="0"
     inkscape:pageopacity="0"
     inkscape:pagecheckerboard="0"
     inkscape:deskcolor="#505050"
     inkscape:zoom="0.71948115"
     inkscape:cx="458.66386"
     inkscape:cy="402.37329"
     inkscape:window-width="2560"
     inkscape:window-height="1417"
     inkscape:window-x="3832"
     inkscape:window-y="313"
     inkscape:window-maximized="1"
     inkscape:current-layer="svg4" />
  <path
     fill="#ffffff"
     d="M 0,0 H 13200 V 7920 H 0 Z"
     id="path1"
     style="stroke-width:1.05409" />
  <path
     fill="#cd1125"
     d="M 0,0 H 13200 V 2640 H 0 Z"
     id="path2"
     style="stroke-width:1.05409" />
  <path
     d="M 0,5280 H 13200 V 7920 H 0 Z"
     id="path3"
     style="stroke-width:1.05409" />
  <path
     fill="#017b3d"
     d="M 6515.551,4576.7111 H 4365.5532 a 319.99968,275.55528 0 0 1 -405.5552,238.8887 c 301.1108,-147.7777 282.222,-297.7775 92.2221,-631.1105 105.5555,-37.7778 122.2221,-47.7778 228.8887,-119.9999 -75.5555,228.8887 195.5554,201.1109 395.5552,201.1109 0,-79.9999 7.7777,-171.1109 -52.2222,-183.3331 77.7777,-27.7778 84.4444,-36.6667 207.7776,-141.111 v 307.7775 h 1483.3318 v -211.1109 a 44.4444,44.4444 0 0 0 -88.8888,0 v 122.2221 a 33.3333,33.3333 0 0 1 -33.3333,33.3333 H 5059.9969 v -199.9998 l 851.1103,-822.2214 c -5.5556,42.2221 82.2221,155.5554 118.8887,174.4442 -27.7777,4.4445 -58.8888,-1.1111 -78.8888,18.8889 l -696.6659,673.3327 h 772.2214 c 0,-178.8888 166.6665,-178.8888 244.4442,-242.222 77.7777,63.3332 244.4442,63.3332 244.4442,242.222 z m 161.111,0 V 3171.157 c 78.8888,43.3332 139.9998,93.3332 237.7775,117.7776 -4.4444,55.5555 -54.4444,73.3333 -54.4444,112.2221 v 864.4436 c 108.8888,24.4444 133.3332,-38.8888 185.5554,-71.111 13.3333,137.7776 101.111,273.333 97.7777,382.2218 z m 1468.8874,-938.8879 172.222,-144.4443 v 755.5548 h 122.2221 v -858.8881 c 60,-49.9999 137.7777,-104.4443 172.2221,-167.7776 V 4576.7111 H 7528.8833 c -15.5555,-279.9997 -15.5555,-567.7772 311.1108,-505.555 v -114.4444 c 0,-26.6666 -39.9999,-5.5555 -39.9999,-29.9999 l 223.3331,-186.6665 v 508.8884 h 122.2221 z m -56.6666,-386.6663 c -21.1111,1.1111 -53.3333,-114.4444 -45.5555,-136.6666 7.7777,-25.5555 36.6666,-25.5555 48.8888,-13.3333 20,18.8889 17.7778,148.8888 -3.3333,149.9999 z m -201.1109,156.6665 c -61.1111,-35.5555 -51.1111,-50 2.2222,-34.4444 92.2221,27.7777 138.8887,4.4444 205.5553,-63.3333 l 50,25.5555 c 65.5555,33.3333 105.5554,18.8889 128.8887,-61.111 6.6667,-24.4444 26.6667,-17.7778 32.2222,10 21.1111,111.111 -63.3332,145.5554 -148.8887,114.4443 -46.6666,-15.5555 -54.4444,-15.5555 -77.7777,2.2222 -51.1111,40 -124.4443,46.6666 -192.222,6.6667 z m 885.5546,1168.8877 V 3171.157 c 78.8888,43.3332 139.9999,93.3332 237.7776,117.7776 -4.4445,55.5555 -54.4444,73.3333 -54.4444,112.2221 v 864.4436 c 108.8888,24.4444 133.3332,-38.8888 185.5554,-71.111 13.3333,137.7776 101.111,273.333 97.7776,382.2218 z m -4212.218,155.5554 a 65.5555,65.5555 0 0 1 131.111,0 65.5555,65.5555 0 0 1 -131.111,0 z m 3178.8857,-511.1106 a 49.99995,37.77774 0 0 0 99.9999,0 49.99995,37.77774 0 0 0 -99.9999,0 z"
     id="path4"
     style="stroke-width:1.11111" />
</svg>
