<?xml version="1.0" encoding="UTF-8" standalone="no"?>
<svg
   width="1000"
   height="600"
   viewBox="-36 -24 80 48"
   version="1.1"
   id="svg5"
   sodipodi:docname="kr.svg"
   inkscape:version="1.3.2 (091e20e, 2023-11-25, custom)"
   xmlns:inkscape="http://www.inkscape.org/namespaces/inkscape"
   xmlns:sodipodi="http://sodipodi.sourceforge.net/DTD/sodipodi-0.dtd"
   xmlns:xlink="http://www.w3.org/1999/xlink"
   xmlns="http://www.w3.org/2000/svg"
   xmlns:svg="http://www.w3.org/2000/svg">
  <defs
     id="defs5" />
  <sodipodi:namedview
     id="namedview5"
     pagecolor="#505050"
     bordercolor="#eeeeee"
     borderopacity="1"
     inkscape:showpageshadow="0"
     inkscape:pageopacity="0"
     inkscape:pagecheckerboard="0"
     inkscape:deskcolor="#505050"
     inkscape:zoom="0.1767767"
     inkscape:cx="-1142.6846"
     inkscape:cy="1071.9739"
     inkscape:window-width="2560"
     inkscape:window-height="1417"
     inkscape:window-x="3832"
     inkscape:window-y="313"
     inkscape:window-maximized="1"
     inkscape:current-layer="svg5" />
  <path
     d="M -36,-24 H 44 V 24 H -36 Z"
     fill="#ffffff"
     id="path1"
     style="stroke-width:1.05409" />
  <g
     transform="matrix(0.58798117,-0.881974,0.881974,0.58798117,4,0)"
     id="g4">
    <g
       id="b">
      <path
         id="a"
         d="M -6,-26 H 6 v 2 H -6 Z m 0,3 H 6 v 2 H -6 Z m 0,3 H 6 v 2 H -6 Z" />
      <use
         xlink:href="#a"
         y="44"
         id="use1" />
    </g>
    <path
       stroke="#ffffff"
       d="M 0,17 V 27"
       id="path2" />
    <path
       fill="#cd2e3a"
       d="M 0,-12 A 12,12 0 0 1 0,12 Z"
       id="path3" />
    <path
       fill="#0047a0"
       d="M 0,-12 A 12,12 0 0 0 0,12 6,6 0 0 0 0,0 Z"
       id="path4" />
    <circle
       cy="-6"
       fill="#cd2e3a"
       r="6"
       id="circle4"
       cx="0" />
  </g>
  <g
     transform="matrix(-0.58798117,-0.881974,0.881974,-0.58798117,4,5.3116491e-8)"
     id="g5">
    <use
       xlink:href="#b"
       id="use4" />
    <path
       stroke="#ffffff"
       d="m 0,-23.5 v 3 M 0,17 v 3.5 m 0,3 v 3"
       id="path5" />
  </g>
</svg>
