<?xml version="1.0" encoding="UTF-8" standalone="no"?>
<svg
   width="1000"
   height="600"
   version="1.1"
   id="svg3"
   sodipodi:docname="kt.svg"
   inkscape:version="1.3.2 (091e20e, 2023-11-25, custom)"
   xmlns:inkscape="http://www.inkscape.org/namespaces/inkscape"
   xmlns:sodipodi="http://sodipodi.sourceforge.net/DTD/sodipodi-0.dtd"
   xmlns="http://www.w3.org/2000/svg"
   xmlns:svg="http://www.w3.org/2000/svg">
  <defs
     id="defs3" />
  <sodipodi:namedview
     id="namedview3"
     pagecolor="#505050"
     bordercolor="#eeeeee"
     borderopacity="1"
     inkscape:showpageshadow="0"
     inkscape:pageopacity="0"
     inkscape:pagecheckerboard="0"
     inkscape:deskcolor="#505050"
     inkscape:zoom="1.0175"
     inkscape:cx="524.81572"
     inkscape:cy="547.91155"
     inkscape:window-width="2560"
     inkscape:window-height="1417"
     inkscape:window-x="3832"
     inkscape:window-y="313"
     inkscape:window-maximized="1"
     inkscape:current-layer="svg3" />
  <rect
     width="1000"
     height="600"
     fill="#ffffff"
     id="rect1"
     x="0"
     y="0"
     style="stroke-width:1.05409" />
  <path
     d="m 590.20843,58.401353 c 0.71222,0 1.42333,0 2.13555,0 1.45445,0.41111 2.74556,0.986665 4.26667,1.333332 4.83777,12.584432 16.55554,19.708869 20.79886,31.999968 -3.0711,1.412221 -5.45332,-1.356666 -8.79999,-0.801111 -2.86222,0.476667 -2.97333,3.337775 -4.79999,5.599995 -0.93111,1.155554 -2.75,1.998887 -4,3.201108 -7.7411,7.436655 -15.18665,18.921095 -19.99998,29.065525 0.88556,2.11444 2.15667,3.37666 2.93444,5.6 2.63445,7.53999 -1.12888,18.26553 0.79889,26.9333 -16.75776,6.44111 -23.5222,22.87665 -40.53218,29.06664 -0.21889,16.40332 -24.10775,9.13777 -30.40108,19.46665 -7.87777,2.11999 -13.18554,6.12888 -13.86554,15.46776 -0.28222,3.87555 1.10666,9.04666 0,11.99999 -0.81556,2.17333 -4.94444,1.84 -5.06777,4.26666 -0.15667,3.07666 7.40443,6.55999 9.86554,7.99999 6.62333,3.87111 11.21777,6.79222 14.66776,13.06666 15.72888,7.22777 16.85332,25.96441 25.86553,39.99996 4.13222,6.43221 8.74111,13.19665 13.06666,19.99998 4.33777,6.8211 9.28221,13.62443 12.26776,20.53331 4.57,10.57554 4.29,24.97997 3.19889,38.93218 -0.53556,6.87555 -0.49889,13.13554 -1.86667,19.19887 1.35445,1.04556 4.53778,0.26222 5.33444,1.86889 0.92889,9.74221 -1.96222,18.18331 -4.79999,25.59886 -2.67111,6.98333 -6.44111,15.20221 -12.53221,18.40109 -9.51221,4.99111 -22.72109,0.65334 -35.20219,1.59889 -9.23999,0.70111 -13.88443,5.40333 -20.79887,9.6011 -6.77443,4.11 -13.79998,6.22 -19.99998,10.39888 -3.12222,2.10555 -7.35666,7.38888 -10.66665,8.53333 -5.03889,1.73999 -10.90444,-0.59445 -13.06777,-2.4 -6.86666,-5.72888 -9.78999,-21.34998 -9.06666,-34.39886 0.38112,-6.86666 2.54778,-11.61221 5.06778,-15.73331 2.87333,-4.7 7.22666,-7.93 7.46666,-13.33332 0.29555,-6.64111 -5.53222,-10.6711 -6.13333,-18.93443 -0.39667,-5.45333 1.62666,-13.92776 0.26555,-18.9322 -1.8811,-6.92444 -15.38331,-2.77111 -12.79998,-13.06666 1.19444,-4.76555 11.68999,-5.36444 17.33331,-3.46777 3.55111,1.19555 5.93889,5.02999 10.13333,3.73444 0.11333,-5.17555 -0.23889,-9.40777 -2.4,-13.06665 -1.15889,-1.96445 -3.38444,-2.81444 -4.53333,-4.8 -1.77333,-3.06888 -3.60222,-9.60888 -4,-14.13443 -0.44111,-5.02555 1.70445,-12.33554 -0.53222,-15.19998 -3.94777,-5.05444 -22.51998,0.0178 -28.26664,-2.93445 -0.70777,-0.36222 -1.08777,-1.21777 -1.86666,-2.13333 -0.65444,-0.76777 -1.46889,-1.38666 -1.86778,-1.86666 -1.24222,-1.49778 -2.39666,-3.88222 -4.53333,-2.93444 -2.00222,0.89 -0.44111,5.28444 -2.66555,6.39999 -4.45777,2.23778 -11.67888,-3.98222 -14.93332,-6.13333 -5.49666,-3.62999 -14.9522,-8.06665 -10.66665,-17.59887 2.64888,-5.8911 8.35999,-8.20888 12.53332,-13.59998 4.98999,-1.14222 11.88221,-0.38334 13.06665,-5.33333 -3.40777,-2.45 -11.1411,0.54333 -14.39998,-2.93444 -1.41,-13.96999 14.65998,-21.3522 12.53332,-35.19997 -1.17556,-7.64777 -10.60777,-7.2811 -19.19998,-8.26666 -8.00333,-0.91777 -14.61555,-3.39222 -18.4011,-9.06554 -0.61222,-0.91778 -0.93555,-1.74222 -1.59888,-2.66667 -0.56,-0.77777 -0.54667,-1.87444 -1.06667,-3.46666 0,-0.97778 0,-1.95555 0,-2.93333 2.18889,-11.32554 15.24665,-17.36109 23.7322,-22.66664 2.70222,-1.69 5.02444,-3.67111 7.46777,-5.06667 8.65332,-4.94555 18.0522,-8.22443 26.39997,-13.33332 3.84889,-2.35666 7.80222,-5.29888 11.46666,-8.53443 1.67777,-1.48111 3.03666,-3.45667 4.79888,-5.06666 1.86333,-1.70111 3.91666,-2.92667 5.33333,-4.8 7.12999,-9.4311 5.40888,-22.25664 20.26665,-25.86664 5.84221,7.7311 12.33332,14.37221 22.39997,17.06665 3.60889,0.96667 6.99222,0.56333 11.73444,1.06667 2.00999,0.21333 4.32333,1.40111 6.93332,1.33333 4.66555,-0.12111 9.23999,-2.73222 9.86555,-6.4 1.40889,-8.2611 -9.05777,-11.36443 -7.99888,-19.19998 0.66444,-4.92221 7.61666,-6.13332 14.13221,-6.13332 4.48999,0 9.21221,1.48888 12.80109,1.33222 7.00333,-0.30334 10.75333,-6.13222 13.59777,-10.398882 1.90333,-2.852219 4.74222,-9.222213 9.06666,-9.866657 1.73222,-0.257777 4.47221,1.237777 7.46777,0.265556 10.18332,-3.299997 1.74777,-24.889975 12.26665,-28.262194 z"
     fill="#0084c9"
     id="path1"
     style="stroke-width:1.11111" />
  <path
     d="m 442.47636,541.59865 c -7.02111,-9.39888 7.50443,-15.87221 15.99998,-16.53221 5.10666,-0.39666 11.96554,1.04333 12.53221,4.53333 0.31889,1.95333 -1.58555,4.72 -2.66555,5.86555 -4.96111,5.26333 -17.18776,4.70111 -25.86664,6.13333 z"
     fill="#0084c9"
     id="path2"
     style="stroke-width:1.11111" />
  <path
     d="m 652.85241,317.60213 c -1.40042,-3.14288 1.49686,-5.30749 3.19137,-5.52818 1.01857,-0.13264 2.38665,0.34888 2.49967,1.51588 0.0636,0.65319 -0.31625,1.57832 -0.53168,1.96139 -0.98953,1.75997 -3.42826,1.57199 -5.15936,2.05091 z"
     fill="#0084c9"
     id="path3"
     style="stroke-width:1.11111" />
</svg>
