<?xml version="1.0" encoding="UTF-8" standalone="no"?>
<svg
   width="1000"
   height="600"
   viewBox="0 0 93333.333 56000"
   version="1.1"
   id="svg4"
   sodipodi:docname="ls.svg"
   inkscape:version="1.3.2 (091e20e, 2023-11-25, custom)"
   xmlns:inkscape="http://www.inkscape.org/namespaces/inkscape"
   xmlns:sodipodi="http://sodipodi.sourceforge.net/DTD/sodipodi-0.dtd"
   xmlns="http://www.w3.org/2000/svg"
   xmlns:svg="http://www.w3.org/2000/svg">
  <defs
     id="defs4" />
  <sodipodi:namedview
     id="namedview4"
     pagecolor="#505050"
     bordercolor="#eeeeee"
     borderopacity="1"
     inkscape:showpageshadow="0"
     inkscape:pageopacity="0"
     inkscape:pagecheckerboard="0"
     inkscape:deskcolor="#505050"
     inkscape:zoom="0.50875"
     inkscape:cx="-129.72973"
     inkscape:cy="802.9484"
     inkscape:window-width="2560"
     inkscape:window-height="1417"
     inkscape:window-x="3832"
     inkscape:window-y="313"
     inkscape:window-maximized="1"
     inkscape:current-layer="svg4" />
  <path
     fill="#ffffff"
     d="M 0,0 H 93333.333 V 56000 H 0 Z"
     id="path1"
     style="stroke-width:1.05409" />
  <path
     fill="#001489"
     d="M 0,0 H 93333.333 V 16800 H 0 Z"
     id="path2"
     style="stroke-width:1.05409" />
  <path
     fill="#009a44"
     d="M 0,39200 H 93333.333 V 56000 H 0 Z"
     id="path3"
     style="stroke-width:1.05409" />
  <path
     d="m 46666.667,17077.766 a 831.04,831.04 0 0 1 739.88,450.5 c 1759.6,209.88 2684.98,1484 3007.22,2965.88 376.3,1732.04 -22.26,4087.36 -1244.44,6560.34 l 4694.74,6229.62 a 16976.96,16976.96 0 0 0 738.82,-367.82 l 1725.68,3652.76 a 21013.44,21013.44 0 0 1 -19323.8,0 l 1725.68,-3652.76 a 16976.96,16976.96 0 0 0 738.82,367.82 l 4694.74,-6229.62 c -1222.18,-2472.98 -1620.74,-4828.3 -1244.44,-6560.34 322.24,-1481.88 1247.62,-2756 3007.22,-2965.88 a 831.04,831.04 0 0 1 739.88,-450.5 z m 1859.24,9122.36 c 951.88,-2125.3 1261.4,-4140.36 960.36,-5472.78 -266.06,-1178.72 -862.84,-2054.28 -2047.92,-2240.84 v 3043.26 l 1484,1484 h -1187.2 v 2136.96 z m -2630.92,-7713.62 c -1185.08,186.56 -1781.86,1062.12 -2047.92,2240.84 -301.04,1332.42 8.48,3347.48 960.36,5472.78 l 790.76,-1049.4 v -2136.96 h -1187.2 l 1484,-1484 z m -6588.96,15992.22 -507.74,1072.72 821.5,-220.48 z m -413.4,1539.12 a 19707.52,19707.52 0 0 0 1144.8,450.5 l -253.34,-689 z m 1868.78,-161.12 1065.3,-337.08 -306.34,-686.88 a 17689.28,17689.28 0 0 1 -1301.68,-451.56 z m 1259.28,99.64 -1094.98,346.62 189.74,515.16 a 19707.52,19707.52 0 0 0 1452.2,366.76 z m 1182.96,466.4 1173.42,-481.24 -280.9,-531.06 a 17689.28,17689.28 0 0 1 -1468.1,-279.84 z m 1397.08,-59.36 -1204.16,492.9 233.2,524.7 a 19707.52,19707.52 0 0 0 1606.96,183.38 z m 1182.96,332.84 1463.86,-765.32 -212,-337.08 a 17689.28,17689.28 0 0 1 -1866.66,-59.36 z m 1719.32,-362.52 -1496.72,782.28 262.88,496.08 a 19707.52,19707.52 0 0 0 2003.4,-61.48 z m 1228.54,277.72 1151.16,-790.76 -333.9,-458.98 a 17689.28,17689.28 0 0 1 -1492.48,181.26 z m 1431,-407.04 -1176.6,808.78 272.42,431.42 a 19707.52,19707.52 0 0 0 1604.84,-279.84 z m 1070.6,-43.46 958.24,-850.12 -391.14,-473.82 a 17689.28,17689.28 0 0 1 -1286.84,338.14 z m 1261.4,-484.42 -980.5,870.26 284.08,390.08 a 19707.52,19707.52 0 0 0 1384.36,-429.3 z m 977.32,-215.18 649.78,-783.34 -283.02,-598.9 a 17689.28,17689.28 0 0 1 -1133.14,455.8 z m 874.5,-309.52 -566.04,681.58 283.02,342.38 a 19707.52,19707.52 0 0 0 638.12,-271.36 z"
     id="path4"
     style="stroke-width:1.06" />
</svg>
