<?xml version="1.0" encoding="UTF-8" standalone="no"?>
<svg
   width="1000"
   height="600"
   version="1.1"
   id="svg39"
   sodipodi:docname="md.svg"
   inkscape:version="1.3.2 (091e20e, 2023-11-25, custom)"
   xmlns:inkscape="http://www.inkscape.org/namespaces/inkscape"
   xmlns:sodipodi="http://sodipodi.sourceforge.net/DTD/sodipodi-0.dtd"
   xmlns="http://www.w3.org/2000/svg"
   xmlns:svg="http://www.w3.org/2000/svg">
  <defs
     id="defs39" />
  <sodipodi:namedview
     id="namedview39"
     pagecolor="#505050"
     bordercolor="#eeeeee"
     borderopacity="1"
     inkscape:showpageshadow="0"
     inkscape:pageopacity="0"
     inkscape:pagecheckerboard="0"
     inkscape:deskcolor="#505050"
     showgrid="false"
     showguides="true"
     inkscape:zoom="0.55722222"
     inkscape:cx="308.67398"
     inkscape:cy="508.77368"
     inkscape:window-width="2560"
     inkscape:window-height="1417"
     inkscape:window-x="3832"
     inkscape:window-y="313"
     inkscape:window-maximized="1"
     inkscape:current-layer="svg39">
    <inkscape:grid
       id="grid39"
       units="px"
       originx="-100"
       originy="0"
       spacingx="1"
       spacingy="1"
       empcolor="#0099e5"
       empopacity="0.30196078"
       color="#0099e5"
       opacity="0.14901961"
       empspacing="5"
       dotted="false"
       gridanglex="30"
       gridanglez="30"
       visible="false" />
  </sodipodi:namedview>
  <path
     d="M 0,0 H 1000 V 600 H 0 Z"
     fill="#cc092f"
     id="path1"
     style="stroke-width:0.608581" />
  <path
     d="M 0,0 H 666.66667 V 600 H 0 Z"
     fill="#ffd200"
     id="path2"
     style="stroke-width:0.608581" />
  <path
     d="M 0,0 H 333.33333 V 600 H 0 Z"
     fill="#0046ae"
     id="path3"
     style="stroke-width:0.608581" />
  <path
     d="m 467.66,122.16 a 8.6426667,8.6426667 0 0 0 -5.12,1.4 4.1913333,4.1913333 0 0 1 3.004,4.06133 V 132.57 h -4.948 a 4.204,4.204 0 0 1 -4.062,-2.96933 10.062667,10.062667 0 0 0 0,10.23866 4.1906667,4.1906667 0 0 1 4.062,-3.004 h 4.948 v 23.78734 a 4.2,4.2 0 0 1 -2.79867,3.99266 c 2.36067,0.32134 4.392,3.48934 4.94867,5.222 0.558,-1.72866 2.58933,-4.90066 4.94933,-5.222 a 4.1866667,4.1866667 0 0 1 -2.834,-3.99266 V 136.834 h 4.94934 a 4.2026667,4.2026667 0 0 1 4.062,2.97067 10.070667,10.070667 0 0 0 0,-10.23934 4.1906667,4.1906667 0 0 1 -4.062,3.00267 h -4.94934 v -4.948 a 4.202,4.202 0 0 1 2.97,-4.062 8.6466667,8.6466667 0 0 0 -5.11933,-1.39867 z"
     id="path4"
     style="stroke-width:0.666667" />
  <path
     d="m 467.66,123.18667 a 9.5066667,9.5066667 0 0 0 -2.93467,0.47733 5.2333333,5.2333333 0 0 1 1.84334,3.95933 v 4.94867 a 1.0253333,1.0253333 0 0 1 -0.0347,0.20533 v 0.78467 h -0.78533 c -0.0667,0.018 -0.13534,0.03 -0.20467,0.0347 h -4.94933 a 5.2373333,5.2373333 0 0 1 -3.924,-1.80867 9.1526667,9.1526667 0 0 0 -0.512,2.93533 9.5066667,9.5066667 0 0 0 0.47733,2.93467 5.232,5.232 0 0 1 3.95867,-1.842 h 5.97266 c -0.007,0.10267 -0.0347,0.202 -0.0347,0.306 v 0.512 a 1.04,1.04 0 0 1 0.0347,0.20467 v 23.7873 a 5.0226667,5.0226667 0 0 1 -1.84333,3.72 7.9833333,7.9833333 0 0 1 1.94533,1.70733 9.8826667,9.8826667 0 0 1 1.024,1.774 9.98,9.98 0 0 1 1.024,-1.774 8.0226667,8.0226667 0 0 1 1.91134,-1.67266 5.0466667,5.0466667 0 0 1 -1.84334,-3.754 V 135.848 h 0.81934 a 1.04,1.04 0 0 1 0.20466,-0.0333 h 4.94867 a 5.24,5.24 0 0 1 3.924,1.808 c 0.33,-0.944 0.50333,-1.93534 0.51267,-2.93467 a 9.5226667,9.5226667 0 0 0 -0.478,-2.93467 5.232,5.232 0 0 1 -3.95867,1.842 h -4.94867 a 1.0106667,1.0106667 0 0 1 -0.20466,-0.0347 H 468.8193 V 132.776 a 1.0333333,1.0333333 0 0 1 -0.0347,-0.20533 v -4.948 a 5.24,5.24 0 0 1 1.80866,-3.92467 9.18,9.18 0 0 0 -2.93466,-0.512"
     fill="#ffd200"
     id="path5"
     style="stroke-width:0.666667" />
  <path
     d="m 529.606,209.32467 a 26.285333,26.285333 0 0 1 -7.26933,-7.40667 c -4.248,-6.81533 -6.04067,-15.182 -6.04067,-23.68467 0,-3.594 4.02667,-7.64 4.02667,-10.54666 a 50.666667,50.666667 0 0 0 -0.40934,-7.02934 c 1.42867,0.19467 3.92467,2.73 3.92467,2.73 0,0 -0.086,-7.292 -2.39,-8.566 0,0 0.932,-0.95866 4.30067,-1.058 -0.94667,-2.39733 -5.63067,-5.324 -5.63067,-5.324 a 3.0466667,3.0466667 0 0 1 1.228,-1.092 15.26,15.26 0 0 1 4.09467,-1.33133 44.022667,44.022667 0 0 1 -4.60667,-1.26333 108.66933,108.66933 0 0 1 -12.764,-5.18667 37.64,37.64 0 0 0 -17.064,-3.99333 c -2.38333,6.6e-4 -5.89333,0.0653 -7.95133,1.43466 -1.88334,1.25 -1.73,2.876 -2.38934,3.44667 -1.55333,1.344 -4.214,1.29667 -5.49533,1.29667 -8.29333,0 -8.60067,8.874 -8.60067,8.874 0,0 2.12067,-3.20867 5.87,-3.20867 6.234,0 10.95534,3.396 10.95534,4.67533 0,0.518 -0.64267,0.614 -0.682,0.614 -4.072,0 -10.21734,-2.344 -13.482,-2.45733 v 1.604 c 7.28733,2.53533 14.67533,6.12467 14.67533,21.94467 0,9.962 -1.19267,20.12666 -6.17667,28.122 a 26.5,26.5 0 0 1 -7.30333,7.40666 l 29.59,5.33334 29.59,-5.33334 z"
     id="path6"
     style="stroke-width:0.666667" />
  <path
     d="m 500.01467,202.65867 -29.58867,6.66666 c -1.346,-0.40666 -7.67533,-2.37333 -12.116,-4.846 -7.81733,-4.35466 -11.87067,-8.68733 -21.16,-9.11266 v -7.06534 c 0,-3.77466 1.366,-7.17533 1.366,-10.78466 -3.916,-1.05 -14.78533,-14.34 -24.812,-20.23867 -14.75333,9.556 -26.17667,25.24333 -26.17667,32.45733 V 398.742 c 0,3.112 -1.87666,7.50867 -1.87666,7.50867 5.386,-2.27867 15.25866,-15.78667 17.33733,-20.92134 v 2.458 c 8.134,-3.70933 14.09,-13.456 16.75733,-18.498 l 0.17134,2.55867 c 7.26666,-6.37 16.51733,-44.02533 16.51733,-44.02533 l 15.416,15.15 c 0,0 -5.57533,11.31733 -7.74733,13.344 a 25.986667,25.986667 0 0 0 3.10533,0.17066 c -1.01467,1.45867 -8.76467,12.61667 -11.194,16.82534 -2.27333,3.93733 -3.87733,2.18466 -7.372,2.18466 -2.898,0 -9.46667,4.61667 -10.54533,6.48467 a 13.664,13.664 0 0 0 -1.97867,6.314 c 0,2.16 2.28667,5.11933 2.28667,5.11933 a 2.6866667,2.6866667 0 0 1 0.682,-1.39933 l 6.894,8.46333 c 0.68933,0.762 3.76333,1.25734 4.84666,0.274 2.71067,-2.46466 5.33467,-4.188 7.74734,-7.74733 1.242,-1.834 1.33666,-3.936 2.764,-5.90533 l 16.45,-22.08067 0.408,2.28667 c 2.46266,-4.97134 14.30066,-14.47067 14.30066,-14.47067 l 12.38534,5.7 c 0,0 -23.12467,53.15667 -43.65067,61.33 0,0 8.93,3.794 19.89667,9.488 l 4.91466,2.62867 a 135.68267,135.68267 0 0 0 4.266,-5.42734 c 6.55734,-8.77333 12.97,-18.94133 12.97,-18.94133 0.44667,2.64067 -3.016,10.796 -8.87333,20.854 l -3.686,6.142 4.43667,2.59467 c 10.86333,6.53666 21.06533,14.05133 24.84466,20.95466 l 2.66667,-6.67266 -2.66667,-6.67267 V 211.51 l 1.33334,-3.33333 z"
     id="path7"
     style="stroke-width:0.666667" />
  <path
     d="m 500.00133,444.814 c -3.83266,-4.15733 -11.846,-9.23667 -20.852,-13.924 10.88934,-19.544 16.28534,-50.43667 13.75334,-56.58667 0,0 -4.47,16.022 -9.932,25.15267 -5.05734,8.456 -11.28334,17.96667 -17.30267,25.01733 a 137.11333,137.11333 0 0 0 -13.85667,-5.12 c 18.03867,-13.89533 36.484,-59.828 36.484,-59.828 l -19.07466,-8.84 c 0,0 -7.136,8.31934 -9.45334,9.864 0,0 -0.99,-4.13733 -1.57,-5.59733 0,0 -2.734,2.068 -4.23066,2.11733 l -0.78534,-4.64266 c -1.88333,1.25533 -5.01666,0.99 -5.01666,0.99 2.75133,-1.30267 6.00666,-9.28334 6.00666,-9.28334 l -18.21466,-24.22866 c 0,0 -6.398,30.744 -13.68534,37.064 V 224.582 l 5.768,5.35733 8.73667,-8.15666 v -6.21134 l -7.74733,7.23467 V 204.06933 A 62.933333,62.933333 0 0 0 431.554,199.94 c 1.254,2.186 5.30667,8.886 10.06733,13.00333 0.78334,-3.18533 5.93867,-6.212 5.93867,-6.212 0,0 1.84733,5.00534 4.67467,6.24534 0.99466,-1.752 6.92933,-5.63067 6.92933,-5.63067 0,0 -5.07733,0.77133 -7.13333,2.69667 -1.766,-0.39534 -2.21867,-7.372 -2.21867,-7.372 0,0 -7.47133,3.63933 -8.77067,6.24533 -1.42466,-0.38533 -3.64266,-5.992 -4.506,-8.29333 a 49.833333,49.833333 0 0 1 5.56334,-0.30667 c 2.13066,0 4.85666,1.00933 7.71266,2.35467 3.138,1.47733 6.42067,3.348 9.352,4.676 3.75467,1.7 9.43534,2.04533 11.09134,2.116 a 49.2,49.2 0 0 1 -6.24467,3.686 c 0,0 8.94067,-0.0827 15.22133,-3.20867 a 60.133333,60.133333 0 0 0 6.55267,-4.57333 24.22,24.22 0 0 1 -4.30133,7.64466 c 9.224,-0.78066 13.81733,-6.048 15.11933,-7.81533 a 25.12,25.12 0 0 0 3.41267,6.31333 H 503.348 V 438.176 Z m -67.97,-266.61533 0.17,4.232 v 12.458 c -3.346,-1.15134 -7.55066,-6.64867 -9.58933,-9.556 V 183.626 a 4.7133333,4.7133333 0 0 1 1.638,-3.41267 l -2.01333,-0.716 a 5.8666667,5.8666667 0 0 0 -1.604,3.856 v 0.99 l -6.006,6.45067 -5.904,-8.942 v -2.184 c 0,-1.472 1.132,-3.11333 2.082,-4.232 l -1.98,-0.71667 c -0.99934,1.29467 -2.048,3.03934 -2.048,4.67534 v 1.774 l -6.79134,6.99733 -3.44666,-7.406 c 4.13666,-5.73 10.844,-12.146 17.166,-16.74933 0,0 13.70933,12.58733 18.32666,14.188 z m -34.74666,12.082 v 10.274 l -4.778,4.436 v -15.25534 a 11.713333,11.713333 0 0 1 1.63733,-5.154 z m 14.88,3.95866 v 6.348 l -5.494,5.154 v -19.86266 z m -7.44067,11.468 -5.49533,-5.11933 v -7.43933 l 5.49533,-5.768 z m 25.08467,-7.71333 c -1.276,1.80333 -4.618,6.214 -8.22467,8.15733 v -17.44 c 0.82733,1.37667 4.62267,7.51667 8.22467,9.28267 z m -10.17134,-8.396 v 16.10867 L 414.142,200.58733 V 194.888 Z M 397.284,206.76467 V 222.84 l -4.778,-4.47133 v -7.13334 z m 7.436,5.154 v 5.76733 l -5.496,5.11867 v -16.006 z M 412.15867,206.8 v 16.00667 l -5.494,-5.154 v -5.69934 z m 7.47533,5.15333 v 5.69934 l -5.49533,5.15333 V 206.8 Z m 7.43933,10.88667 -5.496,-5.154 v -5.35733 c 1.89534,-1.15667 3.80134,-3.28267 5.49534,-5.52867 z m -13.92333,7.09867 5.802,-5.39267 v 132.42 l 0.68267,10.85267 -12.286,12.42266 V 224.51067 Z m -9.11467,145.35466 c 0,4.25667 -7.77266,14.182 -11.53533,16.45 v -167.16 l 5.73333,5.35734 5.802,-5.39334 z"
     fill="#b07e5b"
     id="path8"
     style="stroke-width:0.666667" />
  <path
     d="m 452.22333,360.92533 4.232,-2.90133 0.648,3.31133 L 439.732,384.952 c -1.28067,1.72267 -2.356,6.10867 -2.356,6.10867 0,0 -1.876,-0.88734 -1.876,-2.49067 0,-1.57467 0.20533,-3.44733 0.20533,-3.44733 a 5.36,5.36 0 0 1 -3.82333,1.604 c 0,-1.93534 3.74267,-4.03467 3.89067,-6.79067 -2.854,2.116 -5.33267,1.03 -8.634,2.048 -3.59534,1.10733 -4.59667,2.618 -5.69934,2.56 -0.64933,-0.0353 -1.23733,-1.15533 -0.98933,-1.84333 0.42933,-1.19134 4.876,-4.48867 7.98467,-5.08467 0.74466,-0.14267 6.602,1.27467 7.782,-0.546 l 13.51466,-20.852 a 4.44,4.44 0 0 0 1.33,-0.47933 c 0,0 -0.0453,3.834 1.16134,5.18666 z m -27.21,23.376 a 0.62933333,0.62933333 0 0 1 -0.0353,0.88667 l -1.91067,1.672 a 0.636,0.636 0 0 1 -0.88666,-0.10267 0.62933333,0.62933333 0 0 1 0.0347,-0.88733 l 1.91067,-1.672 a 0.56666667,0.56666667 0 0 1 0.444,-0.136 c 0.172,0.0227 0.33,0.108 0.444,0.23933 z m 2.90067,2.01334 a 1.4893333,1.4893333 0 0 1 -0.0553,2.10466 l -0.0133,0.012 -4.64133,4.06067 a 1.588,1.588 0 0 1 -2.082,-2.388 l 4.64133,-4.02733 a 1.476,1.476 0 0 1 0.81934,-0.342 1.616,1.616 0 0 1 1.33133,0.58 z m 2.66,3.14 a 1.4866667,1.4866667 0 0 1 -0.054,2.10266 l -0.0147,0.0133 -4.67466,4.06133 a 1.5026667,1.5026667 0 0 1 -2.112,-0.23267 l -0.005,-0.006 a 1.5266667,1.5266667 0 0 1 0.0693,-2.14933 l 4.64067,-4.02733 a 1.38,1.38 0 0 1 0.78533,-0.342 1.6753333,1.6753333 0 0 1 1.36467,0.58 z m 1.602,2.49133 a 1.58,1.58 0 0 1 1.33133,0.546 c 0.57067,0.614 0.54067,1.57333 -0.068,2.15 l -4.642,4.028 a 1.58,1.58 0 0 1 -2.082,-2.356 l 4.676,-4.06067 A 1.32,1.32 0 0 1 432.176,391.946 Z"
     fill="#cc092f"
     id="path9"
     style="stroke-width:0.666667" />
  <path
     d="m 499.98533,202.65867 29.58867,6.66666 c 1.346,-0.40666 7.67533,-2.37333 12.116,-4.846 7.81733,-4.35466 11.87067,-8.68733 21.16,-9.11266 v -7.06534 c 0,-3.77466 -1.366,-7.17533 -1.366,-10.78466 3.916,-1.05 14.78533,-14.34 24.812,-20.23867 14.75333,9.556 26.17667,25.24333 26.17667,32.45733 V 398.742 c 0,3.112 1.87666,7.50867 1.87666,7.50867 -5.386,-2.27867 -15.25866,-15.78667 -17.33733,-20.92134 v 2.458 c -8.134,-3.70933 -14.09,-13.456 -16.75733,-18.498 l -0.17134,2.55867 C 572.81667,365.478 563.566,327.82267 563.566,327.82267 l -15.416,15.15 c 0,0 5.57533,11.31733 7.74733,13.344 a 25.986667,25.986667 0 0 1 -3.10533,0.17066 c 1.01467,1.45867 8.76467,12.61667 11.194,16.82534 2.27333,3.93733 3.87733,2.18466 7.372,2.18466 2.898,0 9.46667,4.61667 10.54533,6.48467 a 13.664,13.664 0 0 1 1.97867,6.314 c 0,2.16 -2.28667,5.11933 -2.28667,5.11933 a 2.6866667,2.6866667 0 0 0 -0.682,-1.39933 l -6.894,8.46333 c -0.68933,0.762 -3.76333,1.25734 -4.84666,0.274 -2.71067,-2.46466 -5.33467,-4.188 -7.74734,-7.74733 -1.242,-1.834 -1.33666,-3.936 -2.764,-5.90533 l -16.45,-22.08067 -0.408,2.28667 C 539.34067,362.33533 527.50267,352.836 527.50267,352.836 l -12.38534,5.7 c 0,0 23.12467,53.15667 43.65067,61.33 0,0 -8.93,3.794 -19.89667,9.488 l -4.91466,2.62867 a 135.68267,135.68267 0 0 1 -4.266,-5.42734 c -6.55734,-8.77333 -12.97,-18.94133 -12.97,-18.94133 -0.44667,2.64067 3.016,10.796 8.87333,20.854 l 3.686,6.142 -4.43667,2.59467 C 513.98,443.74133 503.778,451.256 499.99867,458.15933 l -2.66667,-6.67266 2.66667,-6.67267 V 211.51 l -1.33334,-3.33333 z"
     id="path10"
     style="stroke-width:0.666667" />
  <path
     d="m 499.99867,444.814 c 3.83266,-4.15733 11.846,-9.23667 20.852,-13.924 -10.88934,-19.544 -16.28534,-50.43667 -13.75334,-56.58667 0,0 4.47,16.022 9.932,25.15267 5.05734,8.456 11.28334,17.96667 17.30267,25.01733 a 137.11333,137.11333 0 0 1 13.85667,-5.12 c -18.03867,-13.89533 -36.484,-59.828 -36.484,-59.828 l 19.07466,-8.84 c 0,0 7.136,8.31934 9.45334,9.864 0,0 0.99,-4.13733 1.57,-5.59733 0,0 2.734,2.068 4.23066,2.11733 l 0.78534,-4.64266 c 1.88333,1.25533 5.01666,0.99 5.01666,0.99 -2.75133,-1.30267 -6.00666,-9.28334 -6.00666,-9.28334 l 18.21466,-24.22866 c 0,0 6.398,30.744 13.68534,37.064 V 224.582 l -5.768,5.35733 -8.73667,-8.15666 v -6.21134 l 7.74733,7.23467 V 204.06933 A 62.933333,62.933333 0 0 1 568.446,199.94 c -1.254,2.186 -5.30667,8.886 -10.06733,13.00333 -0.78334,-3.18533 -5.93867,-6.212 -5.93867,-6.212 0,0 -1.84733,5.00534 -4.67467,6.24534 -0.99466,-1.752 -6.92933,-5.63067 -6.92933,-5.63067 0,0 5.07733,0.77133 7.13333,2.69667 1.766,-0.39534 2.21867,-7.372 2.21867,-7.372 0,0 7.47133,3.63933 8.77067,6.24533 1.42466,-0.38533 3.64266,-5.992 4.506,-8.29333 a 49.833333,49.833333 0 0 0 -5.56334,-0.30667 c -2.13066,0 -4.85666,1.00933 -7.71266,2.35467 -3.138,1.47733 -6.42067,3.348 -9.352,4.676 -3.75467,1.7 -9.43534,2.04533 -11.09134,2.116 a 49.2,49.2 0 0 0 6.24467,3.686 c 0,0 -8.94067,-0.0827 -15.22133,-3.20867 a 60.133333,60.133333 0 0 1 -6.55267,-4.57333 24.22,24.22 0 0 0 4.30133,7.64466 c -9.224,-0.78066 -13.81733,-6.048 -15.11933,-7.81533 a 25.12,25.12 0 0 1 -3.41267,6.31333 H 496.652 V 438.176 Z m 67.97,-266.61533 -0.17,4.232 v 12.458 c 3.346,-1.15134 7.55066,-6.64867 9.58933,-9.556 V 183.626 a 4.7133333,4.7133333 0 0 0 -1.638,-3.41267 l 2.01333,-0.716 a 5.8666667,5.8666667 0 0 1 1.604,3.856 v 0.99 l 6.006,6.45067 5.904,-8.942 v -2.184 c 0,-1.472 -1.132,-3.11333 -2.082,-4.232 l 1.98,-0.71667 c 0.99934,1.29467 2.048,3.03934 2.048,4.67534 v 1.774 l 6.79134,6.99733 3.44666,-7.406 c -4.13666,-5.73 -10.844,-12.146 -17.166,-16.74933 0,0 -13.70933,12.58733 -18.32666,14.188 z m 34.74666,12.082 v 10.274 l 4.778,4.436 v -15.25534 a 11.713333,11.713333 0 0 0 -1.63733,-5.154 z m -14.88,3.95866 v 6.348 l 5.494,5.154 v -19.86266 z m 7.44067,11.468 5.49533,-5.11933 v -7.43933 l -5.49533,-5.768 z M 570.19133,197.994 c 1.276,1.80333 4.618,6.214 8.22467,8.15733 v -17.44 c -0.82733,1.37667 -4.62267,7.51667 -8.22467,9.28267 z m 10.17134,-8.396 v 16.10867 l 5.49533,-5.11934 V 194.888 Z M 602.716,206.76467 V 222.84 l 4.778,-4.47133 v -7.13334 z m -7.436,5.154 v 5.76733 l 5.496,5.11867 v -16.006 z M 587.84133,206.8 v 16.00667 l 5.494,-5.154 v -5.69934 z m -7.47533,5.15333 v 5.69934 l 5.49533,5.15333 V 206.8 Z m -7.43933,10.88667 5.496,-5.154 v -5.35733 C 576.52733,211.172 574.62133,209.046 572.92733,206.8 Z m 13.92333,7.09867 -5.802,-5.39267 v 132.42 l -0.68267,10.85267 12.286,12.42266 V 224.51067 Z m 9.11467,145.35466 c 0,4.25667 7.77266,14.182 11.53533,16.45 v -167.16 l -5.73333,5.35734 -5.802,-5.39334 z"
     fill="#b07e5b"
     id="path11"
     style="stroke-width:0.666667" />
  <path
     d="m 547.77667,360.92533 -4.232,-2.90133 -0.648,3.31133 17.37133,23.61667 c 1.28067,1.72267 2.356,6.10867 2.356,6.10867 0,0 1.876,-0.88734 1.876,-2.49067 0,-1.57467 -0.20533,-3.44733 -0.20533,-3.44733 a 5.36,5.36 0 0 0 3.82333,1.604 c 0,-1.93534 -3.74267,-4.03467 -3.89067,-6.79067 2.854,2.116 5.33267,1.03 8.634,2.048 3.59534,1.10733 4.59667,2.618 5.69934,2.56 0.64933,-0.0353 1.23733,-1.15533 0.98933,-1.84333 -0.42933,-1.19134 -4.876,-4.48867 -7.98467,-5.08467 -0.74466,-0.14267 -6.602,1.27467 -7.782,-0.546 l -13.51466,-20.852 a 4.44,4.44 0 0 1 -1.33,-0.47933 c 0,0 0.0453,3.834 -1.16134,5.18666 z m 27.21,23.376 a 0.62933333,0.62933333 0 0 0 0.0353,0.88667 l 1.91067,1.672 a 0.636,0.636 0 0 0 0.88666,-0.10267 0.62933333,0.62933333 0 0 0 -0.0347,-0.88733 l -1.91067,-1.672 a 0.56666667,0.56666667 0 0 0 -0.444,-0.136 0.71133333,0.71133333 0 0 0 -0.444,0.23933 z m -2.90067,2.01334 a 1.4893333,1.4893333 0 0 0 0.0553,2.10466 l 0.0133,0.012 4.64133,4.06067 a 1.588,1.588 0 0 0 2.082,-2.388 l -4.64133,-4.02733 a 1.476,1.476 0 0 0 -0.81934,-0.342 1.616,1.616 0 0 0 -1.33133,0.58 z m -2.66,3.14 a 1.4866667,1.4866667 0 0 0 0.054,2.10266 l 0.0147,0.0133 4.67466,4.06133 a 1.5026667,1.5026667 0 0 0 2.112,-0.23267 l 0.005,-0.006 a 1.5266667,1.5266667 0 0 0 -0.0693,-2.14933 l -4.64067,-4.02733 a 1.38,1.38 0 0 0 -0.78533,-0.342 1.6753333,1.6753333 0 0 0 -1.36467,0.58 z m -1.602,2.49133 a 1.58,1.58 0 0 0 -1.33133,0.546 1.5286667,1.5286667 0 0 0 0.068,2.15 l 4.642,4.028 a 1.58,1.58 0 0 0 2.082,-2.356 l -4.676,-4.06067 A 1.32,1.32 0 0 0 567.824,391.946 Z"
     fill="#cc092f"
     id="path12"
     style="stroke-width:0.666667" />
  <path
     d="m 493.156,137.758 c 7.63867,0 13.01133,3.48267 20.23933,6.68867 1.894,0.84 3.63334,1.52066 5.186,2.04733 a 6.3833333,6.3833333 0 0 0 -1.94533,2.458 c 0,0 3.23933,0.6 4.70933,3.31133 0,0 -3.08,0.34934 -3.58333,2.14934 1.72533,0.13 3.43933,2.30466 3.44733,4.40333 l -4.36866,-1.366 a 54.949333,54.949333 0 0 1 1.058,10.23867 c 0,2.724 -3.924,5.92933 -3.924,10.546 0,14.48933 3.65,20.05866 6.246,24.538 1.01533,1.75266 1.84066,3.76933 3.54933,5.29 -7.47867,-3.982 -13.03733,-8.95934 -13.03733,-13.58267 v -17.508 h -1.94534 v 17.508 c 0,3.35267 0.81867,4.91467 0.81867,4.91467 1.174,3.70933 3.54733,9.43466 5.01733,11.74 -6.88066,-3.71867 -10.376,-8.37534 -10.376,-10.102 V 176.97133 H 502.302 v 24.402 l 0.37533,1.672 c -0.834,1.25334 -1.918,2.73734 -2.662,3.242 -0.742,-0.504 -1.79333,-1.99066 -2.62866,-3.242 l 0.376,-1.672 v -24.402 h -1.94534 v 24.06134 c 0,1.726 -3.49533,6.38333 -10.37533,10.102 1.47,-2.306 3.84267,-8.03067 5.016,-11.74 0,0 0.81933,-1.56134 0.81933,-4.91467 V 176.972 H 489.332 v 17.508 c 0,4.618 -5.538,9.60333 -13.00333,13.58267 1.69133,-1.522 2.50466,-3.54734 3.51466,-5.29 2.83867,-4.89867 6.348,-11.122 6.348,-28.83867 0,-6.64933 -0.98333,-11.17 -2.696,-14.334 -0.52066,-1.044 -1.222,-3.82267 2.764,-3.82267 2.06467,0 6.792,3.652 6.792,3.652 a 6.5573333,6.5573333 0 0 0 -2.594,-4.57333 2.8066667,2.8066667 0 0 1 -1.05733,-1.946 4.12,4.12 0 0 1 1.842,-2.45733 c 0.55533,-0.252 -8.122,-1.764 -8.122,-5.69934 0,-0.81933 0.51533,-1.36533 2.31933,-1.36533 2.36334,0 6.208,2.83267 9.62534,2.83267 2.526,0 3.522,-0.61467 6.10866,-0.61467 3.16134,0 9.75667,5.986 12.01267,5.76733 -2.522,-1.58333 -6.596,-7.57666 -12.76333,-7.57666 -2.14067,0 -4.078,0.478 -6.076,0.478 -2.56067,0 -5.082,-2.35534 -7.84934,-2.35534 -1.85466,0 -3.926,0.10334 -4.23266,-0.376 -0.53667,-0.83666 -0.0533,-1.322 0.444,-2.01333 0.93933,-1.30467 3.57733,-1.68333 6.178,-1.774 a 52.494,52.494 0 0 1 2.288,-0.034 l 1.98066,0.0353 z"
     fill="#b07e5b"
     id="path13"
     style="stroke-width:0.666667" />
  <path
     d="m 468.35333,147.12667 a 6.4566667,6.4566667 0 0 1 5.68934,-3.054 c 1.704,0 7.328,-0.118 7.328,-0.118 0.74933,1.94733 4.166,5.20133 4.166,8.58533 0,0 -3.468,-6.25133 -13.14867,-6.25133 a 9.4493333,9.4493333 0 0 0 -4.036,0.83733 z m 15.74,6.60666 c 0,0 -2.062,2.172 -2.51,3.33134 -2.04066,-0.77334 -5.59933,-4.44067 -5.59933,-4.44067 0,0 3.01667,1.76133 8.10867,1.10933 z"
     fill="#cc092f"
     id="path14"
     style="stroke-width:0.666667" />
  <path
     d="m 480.82667,147.98 c 0,0 -2.37867,-0.76267 -2.37867,-1.56133 0,-1.01734 1.15533,-1.01734 1.846,-0.22467 0.32867,0.53933 0.512,1.15533 0.532,1.78667 z"
     id="path15"
     style="stroke-width:0.666667" />
  <ellipse
     cx="491.92065"
     cy="149.28467"
     rx="4.9153333"
     ry="3.7306669"
     id="ellipse15"
     style="stroke-width:0.666667" />
  <circle
     cx="491.91534"
     cy="149.28467"
     r="3.4139998"
     fill="#ffd200"
     id="circle15"
     style="stroke-width:0.666667" />
  <circle
     cx="491.91669"
     cy="149.28532"
     r="1.564"
     id="circle16"
     style="stroke-width:0.666667" />
  <path
     d="m 436.768,394.63467 10.80133,5.89266 -2.62066,12.01867 -10.80067,-5.89267 z"
     id="path16"
     style="stroke-width:0.666667" />
  <path
     d="m 386.45133,279.15333 -3.89066,1.77534 43.95733,96.28 h 4.676 z M 438.29267,392.7 l -3.17334,3.27667 1.97934,4.36866 3.856,-1.77466 z"
     id="path17"
     style="stroke-width:0.666667" />
  <path
     d="m 400.11133,355.06667 c 0,0 3.70267,7.648 6.51667,8.69666 -1.45533,-0.39666 -6.18067,1.33734 -6.18067,1.33734 0,0 8.33267,7.44333 15.4,7.932 5.99334,0.41266 8.90334,-2.57867 8.90334,-2.57867 L 423.55,364.10467 a 23.78,23.78 0 0 0 -9.53467,-6.47134 C 408.086,355.568 400.11067,355.068 400.11067,355.068 Z m 27.91334,-13.7 c 0,0 -5.11267,4.37666 -6.512,9.446 -1.39934,5.06933 0.912,10.83133 0.912,10.83133 l 4.296,8.014 c 0,0 5.954,-3.16867 8.48666,-7.90667 2.53267,-4.738 1.604,-11.132 1.604,-11.132 0,0 -4.71666,1.756 -5.31666,2.53334 0.99533,-5.256 -3.47067,-11.786 -3.47067,-11.786 z M 411.59133,339.32 c 0,0 -5.81466,1.96533 -11.46133,1.62533 -5.37867,-0.32466 -9.85133,-4.84133 -9.85133,-4.84133 0,0 4.45866,-3.01733 6.65933,-2.61533 -2.42067,-0.88467 -5.93067,-6.94867 -5.93067,-6.94867 0,0 4.988,-1.50733 9.41067,0.16 4.42267,1.66733 8.27933,6.51333 8.27933,6.51333 L 411.592,339.32 Z m 2,-28.4 c 0,0 2.908,6.02133 2.21867,8.114 0.902,-1.39333 4.316,-3.56333 4.316,-3.56333 0,0 2.064,9.74933 0.09,15.77066 -1.974,6.02134 -7.98267,8.31334 -7.98267,8.31334 l -6.62866,-12.89134 c 0,0 -0.98667,-4.776 1.08,-8.558 2.06666,-3.782 6.90666,-7.186 6.90666,-7.186 z M 375.758,294.98 c 0,0 6.28467,-0.66 12.034,1.722 4.80667,1.99533 6.28,5.622 6.28,5.622 l 2.36733,6.34667 c 0,0 -6.84066,2.56533 -12.24533,0.604 -5.40467,-1.96134 -9.37667,-8.45334 -9.37667,-8.45334 0,0 3.77734,-1.43266 5.21534,-0.89533 -2.09467,-0.92667 -4.27334,-4.946 -4.27334,-4.946 v 6.7e-4 z m 19.76667,-11.78 c 0,0 2.758,3.542 2.84066,7.616 0.73534,-2.166 4.17867,-4.56 4.17867,-4.56 0,0 3.54133,8.57 2.764,14.65467 -0.77733,6.08466 -5.87267,9.68466 -5.87267,9.68466 l -6.354,-12.06133 c 0,0 -2.07066,-4.94333 -1.46066,-8.778 0.61,-3.83467 3.904,-6.55733 3.904,-6.55733 z M 373.758,260.13333 c 0,0 -1.13933,6.56934 0.79933,10.35334 1.732,3.37666 2.83467,4.11733 2.83467,4.11733 -3.30267,-2.17933 -8.296,-2.36733 -8.296,-2.36733 0,0 1.77733,7.14733 6.02467,10.408 4.24733,3.26066 10.79666,2.49866 10.79666,2.49866 0,0 4.30667,-5.73333 4.00667,-11.91 -0.3,-6.17666 -5.20533,-12.798 -5.20533,-12.798 0,0 -1.93467,4.01334 -2.10534,7.00934 -1.252,-3.08867 -8.85666,-7.31067 -8.85666,-7.31067 z m 51.33333,110.04667 0.17667,2.358 c 3.91667,0.0367 4.5,-0.35333 5.504,0.88133 a 3.316,3.316 0 0 0 3.858,0.81 3.2266667,3.2266667 0 0 0 1.58667,-4.25066 c -0.73,-1.59934 -2.21734,-1.94667 -3.65,-1.664 -0.87934,0.17333 -1.458,0.87533 -2.204,1.26066 -1.41867,0.73467 -5.27267,0.60534 -5.27267,0.60534 z"
     id="path18"
     style="stroke-width:0.666667" />
  <path
     d="m 424.75133,368.38 1.906,1.39667 c -2.04466,3.34266 -2.68266,3.63066 -2.16733,5.13666 a 3.32,3.32 0 0 1 -1.35667,3.702 3.2266667,3.2266667 0 0 1 -4.446,-0.90533 c -0.96933,-1.46667 -0.47666,-2.91067 0.522,-3.97667 0.61334,-0.65466 1.51334,-0.77333 2.23534,-1.202 1.37466,-0.81533 3.306,-4.152 3.306,-4.152 z m -13.26666,-28 0.176,2.358 c 3.91733,0.036 4.5,-0.35333 5.504,0.88067 a 3.318,3.318 0 0 0 3.858,0.81 3.2226667,3.2226667 0 0 0 1.586,-4.25 c -0.73,-1.6 -2.21667,-1.94667 -3.64934,-1.664 -0.88,0.174 -1.458,0.87533 -2.20333,1.26066 -1.41933,0.734 -5.27267,0.60534 -5.27267,0.60534 z"
     id="path19"
     style="stroke-width:0.666667" />
  <path
     d="m 412.278,341.21333 1.66667,1.678 c -2.53934,2.98267 -3.216,3.16867 -2.94067,4.736 a 3.316,3.316 0 0 1 -1.916,3.44667 3.2266667,3.2266667 0 0 1 -4.25067,-1.586 c -0.73,-1.59933 -0.0187,-2.95 1.134,-3.84733 0.70734,-0.55 1.61667,-0.52867 2.39534,-0.83867 1.48466,-0.59133 3.91133,-3.588 3.91133,-3.588 z m -13.98,-28.73333 0.17667,2.358 c 3.91733,0.036 4.5,-0.35333 5.50466,0.882 a 3.32,3.32 0 0 0 3.85867,0.80867 3.2266667,3.2266667 0 0 0 1.586,-4.25134 c -0.73133,-1.59933 -2.21733,-1.946 -3.65067,-1.66333 -0.88,0.174 -1.458,0.87533 -2.204,1.26067 -1.41866,0.73466 -5.272,0.60466 -5.272,0.60466 z"
     id="path20"
     style="stroke-width:0.666667" />
  <path
     d="m 399.38467,311.98667 1.666,1.67733 c -2.53934,2.98333 -3.21467,3.16933 -2.94067,4.73667 a 3.3166667,3.3166667 0 0 1 -1.91533,3.446 3.2266667,3.2266667 0 0 1 -4.25067,-1.586 c -0.72933,-1.6 -0.018,-2.95067 1.134,-3.84734 0.70733,-0.55133 1.616,-0.52866 2.396,-0.84 1.48467,-0.59133 3.91067,-3.58666 3.91067,-3.58666 z m -15.13334,-28.96 0.176,2.35733 c 3.91734,0.0367 4.50067,-0.35333 5.504,0.88067 a 3.32,3.32 0 0 0 3.85867,0.81133 3.2266667,3.2266667 0 0 0 1.58667,-4.25133 c -0.73,-1.6 -2.21734,-1.94734 -3.65067,-1.664 -0.87867,0.174 -1.45733,0.876 -2.20333,1.26066 -1.41867,0.734 -5.27267,0.60534 -5.27267,0.60534 z"
     id="path21"
     style="stroke-width:0.666667" />
  <path
     d="m 385.338,282.53333 1.66533,1.678 c -2.53866,2.98334 -3.21533,3.16867 -2.94,4.73667 a 3.3166667,3.3166667 0 0 1 -1.91533,3.446 3.2266667,3.2266667 0 0 1 -4.25,-1.586 c -0.73067,-1.59933 -0.0187,-2.95133 1.13267,-3.84733 0.708,-0.55 1.61666,-0.52867 2.396,-0.84 1.484,-0.59067 3.91066,-3.58667 3.91066,-3.58667 z"
     id="path22"
     style="stroke-width:0.666667" />
  <g
     fill="#ffd200"
     id="g30"
     transform="matrix(0.66666667,0,0,0.66666667,-100,0)">
    <path
       d="m 807.486,597.062 10.049,5.482 -2.438,11.183 -10.049,-5.482 z M 763.497,500.09 c -2.106,0.874 -5.23,-8.295 -7.524,-13.318 -2.353,-5.155 -7.131,-13.1 -5.774,-13.72 1.489,-0.68 3.451,3.492 5.859,8.767 2.408,5.275 9.412,17.449 7.439,18.269 z m -21.63,-48.29 c -2.105,0.877 -4.41,-5.127 -6.703,-10.151 -2.353,-5.154 -4.645,-8.795 -3.288,-9.415 1.49,-0.68 3.69,3.837 5.616,8.055 1.866,4.088 6.348,10.69 4.374,11.512 z m 50.04,109.49 c -1.653,0.442 -8.869,-14.662 -14.703,-27.442 -5.834,-12.78 -10.177,-23.119 -8.82,-23.736 1.49,-0.681 6.213,11.391 12.049,24.172 5.836,12.781 12.713,26.673 11.475,27.006 z"
       id="path23" />
    <circle
       cx="799.97198"
       cy="556.98401"
       r="2.6059999"
       id="circle23" />
    <circle
       cx="782.047"
       cy="563.93298"
       r="2.6059999"
       id="circle24" />
    <circle
       cx="779.55402"
       cy="512.25"
       r="2.6059999"
       id="circle25" />
    <circle
       cx="761.62097"
       cy="522.23999"
       r="2.6059999"
       id="circle26" />
    <circle
       cx="759.77802"
       cy="470.414"
       r="2.6059999"
       id="circle27" />
    <circle
       cx="742.27899"
       cy="478.40201"
       r="2.6059999"
       id="circle28" />
    <circle
       cx="738.70801"
       cy="426.23901"
       r="2.6059999"
       id="circle29" />
    <circle
       cx="721.21198"
       cy="434.22299"
       r="2.6059999"
       id="circle30" />
  </g>
  <path
     d="m 375.69133,264.12667 c 0,0 -0.17,4.80066 1.418,7.52333 1.588,2.72267 5.136,3.81 5.136,3.81 0,0 0.16934,-4.79933 -1.41866,-7.522 -1.588,-2.72267 -5.13534,-3.81133 -5.13534,-3.81133 z m -3.32,10.86 c 0,0 4.17,0.24533 6.57867,2.09066 2.40867,1.84534 3.33933,5.69 3.33933,5.69 a 7.9573333,7.9573333 0 0 1 -5.17066,-1.56466 c -2.40734,-1.846 -4.74734,-6.216 -4.74734,-6.216 z m 13.08667,-9.69334 a 16.743333,16.743333 0 0 0 -1.22667,6.608 c 0.15934,3.42867 2.16,7.29134 2.16,7.29134 0,0 1.80867,-4.116 1.64934,-7.54534 -0.15934,-3.42933 -2.098,-5.38333 -2.58267,-6.354 z M 378.438,296.2 a 15.844,15.844 0 0 0 5.19933,4.41733 c 3.152,1.558 7.84867,1.616 7.84867,1.616 a 18.233333,18.233333 0 0 0 -5.49667,-4.6 c -3.152,-1.558 -7.55133,-1.43466 -7.55133,-1.43466 z m 1.01333,6.64 c 0,0 1.50467,2.94733 4.256,4.21067 2.75134,1.26333 8.38267,1.16 8.38267,1.16 a 15.646667,15.646667 0 0 0 -4.912,-4.018 C 384.426,302.928 379.45067,302.84 379.45067,302.84 Z M 395.298,287.12 a 11.446667,11.446667 0 0 0 -1.50067,5.77733 c 0.16334,3.03 2.15134,6.34067 2.15134,6.34067 0,0 1.398,-3.79533 1.23466,-6.82467 a 10.566667,10.566667 0 0 0 -1.886,-5.29333 z m 6.12667,3.88667 c 0,0 -2.846,3.82 -3.25467,7.74733 -0.40867,3.92733 1.61867,7.96133 1.61867,7.96133 0,0 3.438,-3.452 3.84666,-7.37866 0.40867,-3.92667 -2.21066,-8.32867 -2.21066,-8.32867 z m -7.84667,36.26666 a 8.3933333,8.3933333 0 0 0 1.53133,2.91134 22.89,22.89 0 0 0 3.224,3.088 9.3426667,9.3426667 0 0 1 4.41,-0.10334 c 2.44334,0.53 5.69334,2.70667 5.69334,2.70667 0,0 -3.498,-5.22067 -7.13,-7.25067 a 13.18,13.18 0 0 0 -7.72734,-1.35266 z m -0.36,8.97334 c 0,0 4.52867,-1.93467 8.258,-1.43534 3.72933,0.49934 7.09267,3.44734 7.09267,3.44734 0,0 -5.04067,1.744 -8.77,1.24533 a 13.211333,13.211333 0 0 1 -6.58134,-3.25733 z m 19.14,-21.05334 c 0,0 -4.00467,4.24267 -4.34067,7.92467 -0.336,3.682 3.24734,7.11267 3.24734,7.11267 a 10.78,10.78 0 0 1 0.44066,-3.916 15.493333,15.493333 0 0 1 1.92867,-3.21467 9.6533333,9.6533333 0 0 0 0.34267,-3.41533 15.626667,15.626667 0 0 0 -1.61867,-4.49134 z m 5.74667,4.91334 c 0,0 -3.77467,3.81933 -4.772,7.90933 -0.99734,4.09 0.78,8.45067 0.78,8.45067 0,0 3.43266,-2.708 4.43066,-6.79734 0.998,-4.08933 -0.43933,-9.56266 -0.43933,-9.56266 z M 427.558,344.76 a 27.646667,27.646667 0 0 1 2.14333,6.55533 c 0.43467,2.98467 0.032,4.018 0.032,4.018 0,0 -1.768,1.738 -2.56066,2.76 -1.01867,1.31334 -1.168,3.71734 -1.168,3.71734 0,0 -3.55,-5.27734 -3.00267,-9.13534 0.54733,-3.858 4.556,-7.916 4.556,-7.916 z m 7.48,8.26 c 0,0 -4.54533,3.002 -6.34867,6.082 a 8.5333333,8.5333333 0 0 0 -0.86933,6.23267 7.0133333,7.0133333 0 0 0 5.044,-3.364 c 1.804,-3.07867 2.17333,-8.95134 2.17333,-8.95134 z m -29.86667,12.68 c 0,0 6.55067,-0.17867 10.55467,0.806 4.004,0.98467 5.46133,3.13 5.46133,3.13 0,0 -4.502,2.108 -8.506,1.124 -4.004,-0.984 -7.51066,-5.06067 -7.51066,-5.06067 z m -1.10666,-7.77333 c 0,0 2.95533,4.582 6.776,6.24466 5.26533,2.29 11.362,1.18 11.362,1.18 0,0 -3.312,-4.05933 -7.86934,-5.85133 -4.55733,-1.792 -10.26866,-1.57267 -10.26866,-1.57267 z"
     fill="#007a50"
     id="path30"
     style="stroke-width:0.666667" />
  <path
     d="m 628.34467,267.96267 0.854,1.808 a 3.9186667,3.9186667 0 0 0 -2.01467,1.706 c -0.62667,1.23133 0.41,2.97 0.41,2.97 0,0 -7.20267,-0.62867 -8.32733,0.10266 -1.01867,0.66 0.43133,5.64934 -0.23934,9.86334 -0.93466,5.87333 -3.25,5.38 -3.34466,6.518 -0.092,1.106 0.88733,2.83266 0.88733,2.83266 0,0 -1.35067,0.42534 -1.63867,0.99 -0.46333,0.908 0.32267,2.58334 -0.23866,3.68534 L 603.874,319.66733 c -0.42733,0.838 -1.57533,1.158 -2.15067,2.28667 a 4.1533333,4.1533333 0 0 0 -0.102,2.55933 c 0,0 -2.02733,0.12134 -2.73066,1.502 a 5.93,5.93 0 0 0 -0.30734,3.44667 2.6933333,2.6933333 0 0 0 -1.912,1.39933 c -0.67266,1.32067 0.46667,2.01334 0.17267,2.594 L 584.93267,356.834 c -1.08734,2.13267 -4.892,2.56 -7.1,6.894 a 6.4,6.4 0 0 0 0.92133,7.30333 c 0,0 -3.18133,0.288 -4.02667,1.946 -0.86133,1.69 -0.18,4.256 2.116,5.426 2.296,1.17 4.80467,0.22267 5.66667,-1.46733 0.84467,-1.658 -0.854,-4.40267 -0.854,-4.40267 a 6.46,6.46 0 0 0 6.45,-3.584 c 2.20867,-4.334 0.34667,-7.62733 1.43333,-9.76066 L 601.45067,335.81 c 0.29666,-0.58067 1.51133,-0.078 2.184,-1.39867 a 2.64,2.64 0 0 0 0,-2.35466 6,6 0 0 0 2.62866,-2.28734 c 0.704,-1.38066 -0.37533,-3.10533 -0.37533,-3.10533 a 4.0753333,4.0753333 0 0 0 2.01333,-1.56933 c 0.57467,-1.12867 0.152,-2.23334 0.57934,-3.07267 L 619.3,300.79467 c 0.562,-1.10334 2.37,-1.48067 2.83267,-2.39 0.288,-0.564 -0.17,-1.91067 -0.17,-1.91067 0,0 1.992,-0.19733 2.832,-0.922 0.86533,-0.74533 -0.89134,-2.344 3.31133,-6.55267 3.01467,-3.01866 7.878,-4.79466 7.81467,-6.00666 -0.07,-1.34 -4.812,-6.79134 -4.812,-6.79134 0,0 2.00066,-0.16866 2.628,-1.39866 A 4.0333333,4.0333333 0 0 0 633.942,272.16 l 1.97867,-0.34133 v -9.38534 l -7.57667,5.52934 z m -65.424,130.716 a 2.3333333,2.3333333 0 0 0 0,2.08066 c 0,0 -2.38867,-0.74666 -3.208,-0.34133 -0.772,0.382 0,11.63867 0,11.63867 0,0 9.53,-6.012 9.38466,-6.86 -0.15333,-0.90134 -2.15,-2.42334 -2.15,-2.42334 a 2.28,2.28 0 0 0 1.67267,-1.194 c 0.31333,-0.61666 0.35533,-2.37866 -1.80933,-3.482 a 3.8533333,3.8533333 0 0 0 -2.116,-0.47733 2.2633333,2.2633333 0 0 0 -1.774,1.05867 z"
     id="path31"
     style="stroke-width:0.666667" />
  <path
     d="m 630.078,268.34 4.50467,2.28733 -0.0673,-5.42733 z m -1.74,3.27667 a 2.6033333,2.6033333 0 1 0 3.60867,-0.73334 2.7466667,2.7466667 0 0 0 -0.264,-0.15333 2.8,2.8 0 0 0 -1.468,-0.30733 2.2373333,2.2373333 0 0 0 -1.87734,1.19466 z m -7.74667,4.13 c -0.474,0.30666 0.17067,4.36333 0.034,7.81466 -0.12933,3.25467 -1.17066,4.17134 -1.74066,5.29 -0.526,1.03267 -2.42267,2.25267 -2.42267,2.25267 l 1.56933,1.57 c 0,0 1.02134,-1.59067 2.628,-4.74533 1.89534,-3.71934 1.834,-10.45867 2.39,-10.818 a 43.006667,43.006667 0 0 1 4.43667,-1.29734 c -6.7e-4,0 -3.628,-0.196 -5.63133,-0.16933 a 4.4466667,4.4466667 0 0 0 -1.26334,0.10333 z m 0.41334,18.73666 A 51.913333,51.913333 0 0 1 623.36,289.432 c 2.20733,-4.33267 6.91933,-7.47533 7.02933,-8.25933 0.11467,-0.808 -1.638,-4.60667 -1.638,-4.60667 0,0 -4.15666,0.79667 -4.74533,1.36533 -0.568,0.54867 -0.31733,6.178 -2.52533,10.51134 a 51.853333,51.853333 0 0 1 -2.72934,4.91466 l 2.25267,1.126 z M 631.618,281.48 c 0.0347,0.65933 -5.442,4.574 -7.338,8.29267 -1.60667,3.154 -2.28667,4.91533 -2.28667,4.91533 l 2.18467,0.34133 c 0,0 -0.15067,-2.24466 0.37533,-3.27666 0.56934,-1.118 0.71934,-2.48734 3.27667,-4.50467 2.712,-2.13933 6.378,-4.00933 6.348,-4.574 -0.0273,-0.52133 -4.096,-5.56267 -4.096,-5.56267 a 44.057333,44.057333 0 0 1 1.53533,4.36867 z m -16.04,24.33333 c 3.29067,-6.45866 4.296,-6.89866 4.71,-7.71266 0.446,-0.87467 0.33933,-2.052 -1.126,-2.79934 a 2.5133333,2.5133333 0 0 0 -1.43333,-0.306 1.8666667,1.8666667 0 0 0 -1.468,1.05734 c -0.41467,0.81466 -0.19,1.90333 -3.482,8.36266 L 605.304,319.056 a 1.5533333,1.5533333 0 0 0 0.56733,2.12333 1.56,1.56 0 0 0 0.11534,0.0607 1.4933333,1.4933333 0 0 0 2.03133,-0.57333 1.4866667,1.4866667 0 0 0 0.0847,-0.178 l 7.47466,-14.67534 z m -13.20667,16.792 c -0.40733,0.80067 0.29067,1.976 1.57,2.62867 1.27934,0.65267 2.664,0.52733 3.07134,-0.27333 0.40733,-0.80067 -0.324,-1.976 -1.604,-2.62867 a 3.4666667,3.4666667 0 0 0 -1.84334,-0.40867 1.4046667,1.4046667 0 0 0 -1.19466,0.682 z m -2.76666,4.16334 c -0.528,1.03533 0.29533,2.522 1.84333,3.312 1.548,0.79 3.22667,0.59066 3.754,-0.44467 0.52733,-1.03533 -0.296,-2.52133 -1.84333,-3.31133 a 4.2133333,4.2133333 0 0 0 -1.706,-0.47734 2.084,2.084 0 0 0 -2.048,0.92134 z m -1.74,4.64266 c -0.40734,0.79934 0.29133,1.97534 1.57,2.62734 1.27866,0.652 2.66333,0.52733 3.072,-0.27267 0.40866,-0.8 -0.29134,-1.976 -1.57,-2.628 a 3.5866667,3.5866667 0 0 0 -1.87734,-0.41 1.4066667,1.4066667 0 0 0 -1.19466,0.68333 z m -1.12667,4.43667 -11.22667,22.08067 c -0.936,1.836 -4.87466,2.98 -6.41666,6.00733 -1.55334,3.04533 -0.45734,5.896 1.56933,6.928 2.02667,1.032 5.00133,0.282 6.55333,-2.764 1.542,-3.02667 0.15667,-6.902 1.09134,-8.73733 l 11.22866,-22.08134 a 1.5333333,1.5333333 0 0 0 -0.50666,-2.10733 1.4573333,1.4573333 0 0 0 -0.142,-0.0767 1.58,1.58 0 0 0 -0.95534,-0.17 1.7166667,1.7166667 0 0 0 -1.19533,0.92134 z m -20.99333,37.916 c -0.622,1.22 0.0893,2.846 1.60333,3.61733 1.514,0.77134 3.26933,0.40067 3.89133,-0.81866 0.622,-1.21934 -0.124,-2.84667 -1.638,-3.618 a 3.5306667,3.5306667 0 0 0 -1.70666,-0.40934 2.416,2.416 0 0 0 -2.15,1.22867 z m -11.05534,24.94867 a 1.1266667,1.1266667 0 0 0 -1.02333,0.478 c -0.318,0.62333 0.33867,1.60866 1.46733,2.184 1.12867,0.57533 2.30934,0.52133 2.628,-0.10267 0.31867,-0.624 -0.34,-1.60933 -1.46733,-2.184 a 3.3246667,3.3246667 0 0 0 -1.60467,-0.376 z m -3.89066,3.07066 v 8.05467 l 6.55333,-4.71 a 7.32,7.32 0 0 0 -6.55333,-3.34533 z m 4.148,-179.38533 c 0,-4.41733 5.802,-8.77133 5.802,-8.77133 H 429.25133 c 0,0 5.802,4.35333 5.802,8.77133 v 105.324 a 9.5906667,9.5906667 0 0 0 2.21867,6.34733 c 1.36067,1.902 4.26,4.53 7.26867,6.48467 9.29333,6.03533 24.83066,12.39933 36.58666,17.74733 9.796,4.456 13.78067,6.254 18.87267,12.55934 5.09267,-6.30534 9.11133,-8.10267 18.90733,-12.55934 11.754,-5.34733 27.292,-11.712 36.586,-17.74733 3.01,-1.95467 5.90934,-4.582 7.26934,-6.48467 a 9.5733333,9.5733333 0 0 0 2.184,-6.34733 z"
     fill="#ffd200"
     id="path32"
     style="stroke-width:0.666667" />
  <path
     d="m 438.398,281.98733 v -59.59 a 9.008,9.008 0 0 0 -1.70667,-5.426 H 563.31 a 9.0133333,9.0133333 0 0 0 -1.70667,5.426 l 0.036,59.59 -61.62,18.66667 -61.62066,-18.66667 z"
     fill="#cc092f"
     id="path33"
     style="stroke-width:0.666667" />
  <path
     d="m 561.63867,281.98733 -38.156,-0.71666 H 476.554 l -38.156,0.71666 v 45.734 c 0,2.29867 2.38533,7.68334 16.14333,14.538 22.74067,11.332 40.22,16.62267 45.45934,23.07134 5.23866,-6.44867 22.718,-11.74 45.45933,-23.07134 13.75733,-6.85466 16.14267,-12.23933 16.14267,-14.538 z"
     fill="#0046ae"
     id="path34"
     style="stroke-width:0.666667" />
  <path
     d="m 522.56,279.60067 c 0,0 22.01267,-5.55067 22.01267,-29.078 0,-18.37534 -22.06867,-27.49134 -22.696,-31.876 -2.15667,7.58733 7.372,18.06666 7.372,30.47666 0,16.05734 -11.84267,16.826 -11.84267,16.826 -2.77133,0 -3.894,1.97867 -4.98333,1.97867 -2.33134,-0.24333 -3.42867,-3.20867 -5.734,-3.20867 -2.16467,0 -3.82667,3.34467 -6.68867,3.34467 -2.862,0 -4.49,-3.34467 -6.65533,-3.34467 -2.304,0 -3.402,2.96534 -5.73334,3.20867 -1.08933,0 -2.21266,-1.97867 -4.984,-1.97867 0,0 -11.842,-0.76866 -11.842,-16.826 0,-12.41 9.53,-22.89066 7.372,-30.47666 -0.62533,4.38466 -22.694,13.5 -22.694,31.876 0,23.52733 22.01267,29.078 22.01267,29.078 l -6.28,11.43266 c 0,0 9.09667,0.45534 13.92467,4.574 5.822,4.96534 5.25533,15.486 5.25533,23.13934 0,6.03 -0.762,12.39333 -3.856,15.016 -4.15467,3.52266 -6.96333,3.78333 -6.96333,7.91866 0,3.44934 2.65133,4.14067 6.96333,6.41667 5.52467,2.91533 5.26733,6.82533 13.48,6.82533 8.21267,0 7.99,-3.90933 13.51533,-6.82533 4.312,-2.276 6.96267,-2.96733 6.96267,-6.41667 0,-4.13533 -2.80933,-4.396 -6.96267,-7.91866 -3.094,-2.624 -3.856,-8.98667 -3.856,-15.016 0,-7.65334 -0.566,-18.174 5.25534,-23.13934 4.82866,-4.118 13.924,-4.574 13.92466,-4.574 z M 499.998,220.28 l -3.82333,10.854 -10.40934,-4.94933 4.94867,10.41 -10.85267,3.856 10.85267,3.85666 -4.94867,10.37534 10.40934,-4.94867 3.82333,10.85267 3.85667,-10.85267 10.40933,4.94867 -4.948,-10.37534 10.85267,-3.85666 -10.85267,-3.856 4.948,-10.41 -10.40933,4.94933 z m -23.44667,60.99333 c 0,0 -13.59133,-3.32266 -18.668,-10.034 a 52.378,52.378 0 0 1 -19.488,10.75067 c 0,0 11.07134,4.99867 19.488,11.36533 3.878,-5.55733 18.668,-12.082 18.668,-12.082 z"
     id="path35"
     style="stroke-width:0.666667" />
  <path
     d="m 523.478,281.27333 c 0,0 14.79067,6.524 18.66933,12.082 8.41534,-6.36666 19.486,-11.36533 19.486,-11.36533 a 52.389333,52.389333 0 0 1 -19.486,-10.75067 c -5.07666,6.71067 -18.66933,10.034 -18.66933,10.034 z m -41.36,14.46667 -5.29,5.28933 5.29,5.29 5.29,-5.29 z m 35.8,0 -5.28933,5.28933 5.28933,5.29 5.29,-5.29 z m -37.13133,30.88667 a 62.736,62.736 0 0 1 -0.648,10.20466 c 0,0 7.45733,-2.19533 8.94266,-9.76066 0.696,-3.54667 1.47134,-16.612 -2.11666,-18.83934 l -9.726,-1.91133 a 59.633333,59.633333 0 0 1 3.54866,20.30667 z m 32.284,-18.39467 c -3.58734,2.22667 -2.812,15.292 -2.116,18.83933 1.48466,7.56534 8.942,9.76067 8.942,9.76067 a 62.736,62.736 0 0 1 -0.648,-10.20467 59.598,59.598 0 0 1 3.55,-20.30733 z m -55.216,0.378 a 6.1933333,6.1933333 0 0 0 -4.574,7.47 6.1933333,6.1933333 0 0 0 0.61533,1.574 6.164,6.164 0 0 0 -1.536,-0.30733 6.18,6.18 0 0 0 -0.648,0 6.26,6.26 0 1 0 1.29667,12.42333 6.1466667,6.1466667 0 0 0 -0.75,1.33067 6.2733333,6.2733333 0 0 0 3.43866,8.17466 6.2733333,6.2733333 0 0 0 8.17467,-3.43866 l 0.024,-0.0593 c 0.18667,-0.47133 0.31267,-0.96466 0.376,-1.468 a 6.2,6.2 0 0 0 1.05733,1.126 c 2.62,2.25734 6.574,1.96334 8.832,-0.65666 2.258,-2.62 1.96334,-6.574 -0.65666,-8.832 a 6.2666667,6.2666667 0 0 0 -1.418,-0.92067 6.2133333,6.2133333 0 0 0 1.39866,-0.648 6.3066667,6.3066667 0 0 0 1.97934,-8.66933 6.2173333,6.2173333 0 0 0 -5.69934,-2.90067 6.3093333,6.3093333 0 0 0 -2.93533,0.956 6.2,6.2 0 0 0 -1.194,0.95533 6.3133333,6.3133333 0 0 0 -6.34067,-6.28333 6.3173333,6.3173333 0 0 0 -1.44066,0.17333 z m 66.54666,18.22333 c 0.678,6.39134 5.872,11.746 12.286,13.276 a 14.186667,14.186667 0 0 1 -2.048,-5.904 c -0.80333,-7.58 5.05867,-13.72066 13.07134,-13.72066 1.242,0.002 2.47866,0.15066 3.68533,0.44466 a 16.550667,16.550667 0 0 0 -13.92467,-7.85 c -8.012,0 -13.87533,6.17467 -13.07,13.75334 z"
     id="path36"
     style="stroke-width:0.666667" />
  <g
     fill="#ffd200"
     id="g38"
     transform="matrix(0.66666667,0,0,0.66666667,-100,0)">
    <path
       d="m 851.369,373.684 c 0,18.128 9.667,28.821 22.576,28.821 2.462,0 5.155,3.328 7.475,3.328 3.782,0 6.298,-4.198 8.601,-4.198 2.927,0 4.9,4.607 9.982,4.607 5.082,0 7.107,-4.607 10.034,-4.607 2.302,0 4.818,4.198 8.6,4.198 2.321,0 5.012,-3.328 7.475,-3.328 12.909,0 22.577,-10.693 22.577,-28.821 0,-14.784 -12.416,-32.81 -11.058,-35.734 0,0 24.214,17.369 24.214,37.832 0,32.963 -33.429,41.109 -33.429,41.109 l 7.525,16.944 c 0,0 -10.362,1.554 -16.689,6.656 -8.439,6.805 -8.55,25.191 -8.55,37.626 0,14.648 0.545,20.855 5.837,24.829 5.58,4.193 9.777,5.096 9.777,9.369 0,3.723 -4.345,5.246 -9.983,7.73 -6.413,2.827 -7.052,7.731 -16.33,7.731 -9.278,0 -9.867,-4.904 -16.28,-7.731 -5.637,-2.484 -9.983,-4.006 -9.983,-7.73 0,-4.273 4.197,-5.176 9.777,-9.369 5.292,-3.974 5.836,-10.181 5.836,-24.829 0,-12.435 -0.11,-30.821 -8.549,-37.626 -6.328,-5.104 -16.689,-6.656 -16.689,-6.656 l 7.524,-16.944 c 0,0 -33.428,-8.145 -33.428,-41.109 0,-20.463 24.215,-37.832 24.215,-37.832 1.358,2.924 -11.057,20.95 -11.057,35.734 z m 35.988,136.126 c -6.567,0 -10.75,1.386 -10.75,3.379 0,1.993 4.184,3.328 10.75,3.328 1.75,0 3.737,-1.019 3.737,-3.328 a 3.47,3.47 0 0 0 -3.55,-3.388 3.9,3.9 0 0 0 -0.187,0.009 z m 25.34,0 a 3.47,3.47 0 0 0 -3.728,3.192 3.46,3.46 0 0 0 -0.009,0.187 c -0.001,2.309 1.987,3.328 3.737,3.328 6.568,0 10.75,-1.333 10.75,-3.328 0,-1.995 -4.183,-3.379 -10.75,-3.379 z m -12.64,-168.43 3.686,10.394 9.931,-4.761 -4.71,9.982 10.342,3.687 -10.342,3.686 4.71,9.931 -9.931,-4.71 -3.737,10.341 -3.686,-10.341 -9.931,4.71 4.71,-9.931 -10.341,-3.686 10.341,-3.687 -4.71,-9.982 9.931,4.761 z m -82.743,81.899 c 0,0 12.609,6.28 18.943,11.877 l 0.357,0.307 0.204,-0.255 c 5.986,-6.871 17.098,-12.696 17.098,-12.696 0,0 -10.676,-2.945 -17.404,-10.648 -7.112,7.248 -19.198,11.415 -19.198,11.415 z m 165.411,0.016 c 0,0 -12.609,6.28 -18.943,11.877 l -0.357,0.307 -0.204,-0.255 c -5.986,-6.871 -17.098,-12.696 -17.098,-12.696 0,0 10.676,-2.945 17.404,-10.648 7.112,7.248 19.198,11.415 19.198,11.415 z m -109.548,24.105 4.147,4.145 -4.147,4.199 -4.198,-4.199 z m 53.7,0 4.199,4.145 -4.199,4.199 -4.146,-4.199 z m -48.067,18.119 c 2.897,3.998 2.405,10.462 2.405,19.455 a 14.07,14.07 0 0 1 -6.808,12.541 c 0,-21.794 -2.247,-27.034 -3.43,-33.634 z m 50.267,-1.639 c -1.185,6.602 -3.429,11.841 -3.429,33.634 a 14.07,14.07 0 0 1 -6.809,-12.541 c 0,-8.993 -0.492,-15.455 2.406,-19.454 z m -82.468,8.248 a 7.11,7.11 0 0 1 0.153,2.407 6.857,6.857 0 0 1 -0.46,1.842 10.704,10.704 0 0 0 -11.57,2.97 7.33,7.33 0 0 1 -1.33,-1.536 7.15,7.15 0 0 1 -0.973,-2.15 7.31,7.31 0 0 1 5.331,-8.852 7.31,7.31 0 0 1 8.849,5.319 z m 10.914,13.658 a 7.11,7.11 0 0 1 -2.242,0.889 6.883,6.883 0 0 1 -1.894,0.132 10.705,10.705 0 0 0 -6.4,-10.086 7.31,7.31 0 0 1 1.05,-1.74 7.175,7.175 0 0 1 1.744,-1.59 7.31,7.31 0 0 1 10.068,2.326 7.31,7.31 0 0 1 -2.326,10.068 z m -9.616,14.6 a 7.11,7.11 0 0 1 -1.539,-1.857 6.905,6.905 0 0 1 -0.711,-1.761 10.706,10.706 0 0 0 7.615,-9.203 7.31,7.31 0 0 1 1.979,0.461 7.195,7.195 0 0 1 2.051,1.167 7.31,7.31 0 0 1 0.872,10.296 7.31,7.31 0 0 1 -10.267,0.897 z m -16.858,-4.634 a 7.11,7.11 0 0 1 1.291,-2.037 6.89,6.89 0 0 1 1.455,-1.22 10.705,10.705 0 0 0 11.106,4.398 7.31,7.31 0 0 1 0.173,2.024 7.15,7.15 0 0 1 -0.477,2.311 7.31,7.31 0 0 1 -9.515,4.03 7.31,7.31 0 0 1 -4.033,-9.507 z m -0.802,-17.464 a 7.11,7.11 0 0 1 2.336,0.598 c 0.581,0.26 1.122,0.598 1.61,1.007 a 10.707,10.707 0 0 0 -0.751,11.922 7.314,7.314 0 0 1 -1.872,0.79 7.17,7.17 0 0 1 -2.345,0.261 7.31,7.31 0 0 1 -6.771,-7.805 7.31,7.31 0 0 1 7.793,-6.772 z"
       id="path37" />
    <circle
       cx="842.66699"
       cy="486.46799"
       r="7.0650001"
       id="circle37" />
    <path
       d="m 966.702,476.942 c -11.729,2.268 -20.17,12.628 -18.942,24.727 -3.738,-3.096 -6.473,-7.266 -6.962,-11.877 -0.951,-8.979 5.571,-15.922 15.409,-15.922 a 20.08,20.08 0 0 1 10.495,3.072 z"
       id="path38" />
  </g>
  <path
     d="M 567.98267,214.678 H 432.01733 c 1.80334,1.81533 4.092,4.71133 4.092,7.71267 V 313.858 h -0.004 v 13.85733 h 0.004 a 9.0666667,9.0666667 0 0 0 0.51534,3.18867 9.48,9.48 0 0 0 1.44533,2.51467 l 0.0247,0.0327 a 24.753333,24.753333 0 0 0 4.58066,4.49067 35.326667,35.326667 0 0 0 1.184,0.88867 31.8,31.8 0 0 0 1.212,0.82733 l 0.009,0.007 c 7.23533,4.69733 18.38266,9.63666 28.51066,14.12266 l 7.93067,3.54134 0.004,0.004 v -6.7e-4 l 0.22533,0.102 h 0.003 c 9.27,4.21667 13.404,6.09867 18.24466,11.76733 4.854,-5.69 8.97467,-7.56466 18.33,-11.82 l -6.6e-4,-0.001 0.10666,-0.0487 7.93067,-3.54066 c 10.128,-4.486 21.27667,-9.42534 28.514,-14.124 l 0.006,-0.004 a 33.214,33.214 0 0 0 5.60533,-4.58867 18.713333,18.713333 0 0 0 0.77067,-0.85 c 0.22067,-0.26 0.42467,-0.51933 0.60533,-0.772 l 0.016,-0.016 0.003,-0.005 0.009,-0.0127 a 9.78,9.78 0 0 0 1.46667,-2.52334 8.8466667,8.8466667 0 0 0 0.52867,-3.18 h 0.004 V 313.858 h -0.004 v -91.46733 c 0,-3.00134 2.28933,-5.89667 4.092,-7.71267 z m -1.97534,7.71267 V 313.858 h -0.004 v 13.85733 h 0.004 a 10.909333,10.909333 0 0 1 -0.66933,3.924 11.793333,11.793333 0 0 1 -1.754,3.04334 l 0.003,0.002 a 14.2,14.2 0 0 1 -0.712,0.904 21.46,21.46 0 0 1 -0.86134,0.95 35.42,35.42 0 0 1 -5.97733,4.89466 l -0.006,0.004 C 548.635,346.238 537.41366,351.21 527.219,355.72533 l -7.90667,3.53334 -0.10667,0.0487 h -0.003 c -9.55667,4.34734 -13.46533,6.12467 -18.37867,12.20934 L 500,372.536 l -0.82267,-1.018 c -4.892,-6.05667 -8.82333,-7.84533 -18.29866,-12.156 l 6.6e-4,-0.001 -0.222,-0.10067 -0.008,-0.004 -0.003,-10e-4 -6.7e-4,0.002 -7.90666,-3.534 c -10.19467,-4.516 -21.41667,-9.48734 -28.81,-14.288 l -0.0247,-0.0167 -0.008,-0.005 h 6.7e-4 c -0.41697,-0.27163 -0.84364,-0.5623 -1.27097,-0.86963 -0.42733,-0.30733 -0.844,-0.62 -1.25,-0.938 a 26.936,26.936 0 0 1 -5.002,-4.92867 h 6.7e-4 a 11.466667,11.466667 0 0 1 -1.736,-3.04466 11.126667,11.126667 0 0 1 -0.64734,-3.916 h 0.004 v -13.85734 h -0.004 v -91.46866 c 0,-3.894 -5.36133,-7.916 -5.376,-7.92734 v -1.902 H 571.382 v 1.902 c -0.0147,0.0113 -5.376,4.03334 -5.376,7.92734 z m -3.202,-6.48067 0.003,-0.004 h 0.50266 l 2.19134,-6.7e-4 -1.36934,1.71734 a 7.8733333,7.8733333 0 0 0 -1.47066,4.76866 v 91.46734 h -0.004 V 327.716 h 0.004 c 0,1.874 -1.312,5.49267 -7.488,10.00267 l 10e-4,0.002 a 52.078667,52.078667 0 0 1 -4.02267,2.642 78.772,78.772 0 0 1 -5.19933,2.82866 l -0.002,-0.003 -0.02,0.01 v 0.004 c -8.252,4.112 -15.87267,7.45467 -22.45267,10.34 -11.3,4.95533 -19.48533,8.54533 -22.658,12.446 l -0.016,0.0207 -0.003,0.004 -0.824,0.96 -0.79667,-0.98134 C 496.01,362.088 487.82267,358.49667 476.51667,353.53933 469.942,350.656 462.32733,347.316 454.08267,343.20867 v -0.004 l -0.014,-0.007 -0.002,0.003 c -5.85,-2.914 -9.698,-5.58734 -12.198,-7.88334 a 24.826667,24.826667 0 0 1 -1.33134,-1.31866 c -2.53933,-2.72867 -3.196,-4.93334 -3.19666,-6.28067 h -0.004 v -0.003 h 0.004 v -13.85734 h -0.004 V 222.39067 A 7.8733333,7.8733333 0 0 0 435.866,217.622 l -1.36933,-1.712 h 4.54666 v -0.004 h 121.91134 v 0.004 h 1.84866 z m -1.84866,2.10867 v 0.004 H 439.044 v -0.004 h -0.52667 a 10.613333,10.613333 0 0 1 0.93667,4.372 V 313.858 h -0.004 v 13.85733 h 0.004 v 0.003 h -0.004 c 6.7e-4,0.95133 0.542,2.592 2.63533,4.84133 a 21.953333,21.953333 0 0 0 1.21534,1.20333 c 2.36533,2.17334 6.05,4.724 11.71066,7.54334 v 0.004 l 0.014,0.007 0.002,-0.003 c 8.29334,4.132 15.828,7.43666 22.33467,10.28933 10.75667,4.71667 18.756,8.22533 22.63867,12.14733 3.88333,-3.922 11.88333,-7.42933 22.63666,-12.14533 6.51134,-2.85533 14.05267,-6.16333 22.35267,-10.29933 l 0.002,0.003 0.02,-0.01 v -0.004 a 76.402667,76.402667 0 0 0 5.05867,-2.74533 49.798,49.798 0 0 0 3.858,-2.534 h 0.003 c 5.456,-3.98267 6.61467,-6.868 6.61467,-8.302 h 0.004 v -13.85734 h -0.004 V 222.39 a 10.613333,10.613333 0 0 1 0.93666,-4.372 h -0.526 z"
     id="path39"
     style="stroke-width:0.666667" />
</svg>
