<?xml version="1.0" encoding="UTF-8" standalone="no"?>
<svg
   width="1000"
   height="600"
   viewBox="0 0 416.66667 250"
   fill="#ffffff"
   version="1.1"
   id="svg4"
   sodipodi:docname="mh.svg"
   inkscape:version="1.3.2 (091e20e, 2023-11-25, custom)"
   xmlns:inkscape="http://www.inkscape.org/namespaces/inkscape"
   xmlns:sodipodi="http://sodipodi.sourceforge.net/DTD/sodipodi-0.dtd"
   xmlns="http://www.w3.org/2000/svg"
   xmlns:svg="http://www.w3.org/2000/svg">
  <defs
     id="defs4" />
  <sodipodi:namedview
     id="namedview4"
     pagecolor="#505050"
     bordercolor="#eeeeee"
     borderopacity="1"
     inkscape:showpageshadow="0"
     inkscape:pageopacity="0"
     inkscape:pagecheckerboard="0"
     inkscape:deskcolor="#505050"
     inkscape:zoom="0.87982456"
     inkscape:cx="79.561316"
     inkscape:cy="466.57029"
     inkscape:window-width="2560"
     inkscape:window-height="1417"
     inkscape:window-x="3832"
     inkscape:window-y="313"
     inkscape:window-maximized="1"
     inkscape:current-layer="svg4" />
  <path
     d="M 0,0 H 416.66667 V 250 H 0 Z"
     id="path1"
     style="stroke-width:1" />
  <path
     fill="#dd7500"
     d="M 0,242 V 0 h 416.66667 v 53 z"
     id="path2"
     style="stroke-width:1" />
  <path
     fill="#003893"
     d="M 0,238 V 0 h 416.66667 v 4 z m 0,8 v 4 H 416.66667 V 102 Z"
     id="path3"
     style="stroke-width:1" />
  <path
     d="m 91.28,13.78 3.2,53.21 11.16,-29.32 -4.99,30.97 18.38,-25.43 -12.84,28.63 24.33,-19.81 -19.8,24.33 28.62,-12.83 -25.43,18.37 30.98,-4.99 -29.32,11.17 53.21,3.2 -53.21,3.2 29.32,11.16 -30.98,-4.99 25.43,18.38 -28.62,-12.84 19.8,24.33 -24.33,-19.8 12.84,28.62 -18.38,-25.43 4.99,30.98 -11.16,-29.32 -3.2,53.21 -3.2,-53.21 -11.17,29.32 4.99,-30.98 -18.37,25.43 12.83,-28.62 -24.33,19.8 19.81,-24.33 -28.63,12.84 25.43,-18.38 -30.97,4.99 L 66.99,94.48 13.78,91.28 66.99,88.08 37.67,76.91 68.64,81.9 43.21,63.53 71.84,76.36 52.03,52.03 76.36,71.84 63.53,43.21 81.9,68.64 76.91,37.67 88.08,66.99 Z"
     id="path4" />
</svg>
