<?xml version="1.0" encoding="UTF-8" standalone="no"?>
<svg
   width="1000"
   height="600"
   fill="#ffd300"
   version="1.1"
   id="svg7"
   sodipodi:docname="mn.svg"
   inkscape:version="1.3.2 (091e20e, 2023-11-25, custom)"
   xmlns:inkscape="http://www.inkscape.org/namespaces/inkscape"
   xmlns:sodipodi="http://sodipodi.sourceforge.net/DTD/sodipodi-0.dtd"
   xmlns="http://www.w3.org/2000/svg"
   xmlns:svg="http://www.w3.org/2000/svg">
  <defs
     id="defs7" />
  <sodipodi:namedview
     id="namedview7"
     pagecolor="#505050"
     bordercolor="#eeeeee"
     borderopacity="1"
     inkscape:showpageshadow="0"
     inkscape:pageopacity="0"
     inkscape:pagecheckerboard="0"
     inkscape:deskcolor="#505050"
     showgrid="false"
     inkscape:zoom="0.29551171"
     inkscape:cx="707.24778"
     inkscape:cy="580.34925"
     inkscape:window-width="2560"
     inkscape:window-height="1417"
     inkscape:window-x="3832"
     inkscape:window-y="313"
     inkscape:window-maximized="1"
     inkscape:current-layer="svg7">
    <inkscape:grid
       id="grid7"
       units="px"
       originx="0"
       originy="0"
       spacingx="1"
       spacingy="1"
       empcolor="#0099e5"
       empopacity="0.30196078"
       color="#0099e5"
       opacity="0.14901961"
       empspacing="5"
       dotted="false"
       gridanglex="30"
       gridanglez="30"
       visible="false" />
  </sodipodi:namedview>
  <path
     d="M 0,0 H 1000 V 600 H 0 Z"
     fill="#da2031"
     id="path1"
     style="stroke-width:1" />
  <path
     d="M 333.33333,0 H 666.66666 V 600 H 333.33333 Z"
     fill="#0066b2"
     id="path2"
     style="stroke-width:1" />
  <circle
     cx="166.666"
     cy="205"
     r="55"
     id="circle2" />
  <circle
     cx="166.666"
     cy="180"
     r="60"
     fill="#da2031"
     id="circle3" />
  <circle
     cx="166.666"
     cy="190"
     r="40"
     id="circle4" />
  <path
     d="m 170.869,60 c -4.97,2.255 -6.827,6.321 -7.227,10.371 -0.25,3.41 1.255,7.251 1.405,10.586 0,5.739 -5.938,7.629 -5.938,15.82 0,2.815 2.6,5.917 2.6,13.223 -0.45,3.835 -2.59,4.7 -5,5 a 5,5 0 0 1 -5,-5 5,5 0 0 1 1.385,-3.44 5,5 0 0 1 0.51,-0.5 c 1.14,-1.15 2.705,-1.595 2.695,-4.63 0,-1.56 -1.01,-2.98 -1.975,-5.742 -0.91,-2.68 -0.25,-7.16 1.915,-9.805 -3.5,1.35 -5.657,4.705 -6.757,7.715 -1.16,3.7 -0.15,5.831 -1.74,8.906 -0.97,1.99 -2.125,2.815 -3.22,4.475 -1.295,1.81 -2.815,6.043 -2.815,8.008 a 25,25 0 0 0 50,0 c 0,-1.965 -1.5,-6.198 -2.795,-8.008 -1.095,-1.66 -2.27,-2.485 -3.24,-4.475 -1.57,-3.075 -0.56,-5.206 -1.72,-8.906 -1.1,-3.01 -3.26,-6.364 -6.758,-7.715 2.165,2.645 2.825,7.125 1.915,9.805 -0.97,2.76 -1.99,4.18 -1.99,5.742 0,3.035 1.555,3.48 2.695,4.63 a 5,5 0 0 1 0.51,0.5 5,5 0 0 1 1.385,3.44 5,5 0 0 1 -5,5 c -2.765,-0.35 -4.75,-1.64 -5,-5 0,-9.626 4.12,-10.24 4.12,-17.363 0,-10.171 -9.12,-14.986 -9.12,-22.422 0,-2.52 0.59,-6.815 4.16,-10.228 z M 56.666,270 h 50 v 240 h -50 z m 170,0 h 50 v 240 h -50 z m -110,0 h 100 l -50,30 z m 0,40 h 100 v 20 h -100 z m 0,140 h 100 v 20 h -100 z m 0,30 h 100 l -50,30 z"
     id="path4" />
  <circle
     cx="166.666"
     cy="390"
     r="50"
     id="circle5" />
  <g
     fill="#da2032"
     id="g7"
     transform="translate(-33.334)">
    <circle
       cx="200"
       cy="363.5"
       r="10"
       id="circle6" />
    <circle
       cx="200"
       cy="416.5"
       r="10"
       id="circle7" />
    <path
       d="m 200,334 a 29.5,29.5 0 0 1 0,59 23.5,23.5 0 0 0 0,47 v 6 a 29.5,29.5 0 0 1 0,-59 23.5,23.5 0 0 0 0,-47 z"
       id="path7" />
  </g>
</svg>
