<?xml version="1.0" encoding="UTF-8" standalone="no"?>
<svg
   width="1000"
   height="600"
   viewBox="0 0 11200 6720"
   fill="none"
   version="1.1"
   id="svg5"
   sodipodi:docname="my.svg"
   inkscape:version="1.3.2 (091e20e, 2023-11-25, custom)"
   xmlns:inkscape="http://www.inkscape.org/namespaces/inkscape"
   xmlns:sodipodi="http://sodipodi.sourceforge.net/DTD/sodipodi-0.dtd"
   xmlns="http://www.w3.org/2000/svg"
   xmlns:svg="http://www.w3.org/2000/svg">
  <defs
     id="defs5" />
  <sodipodi:namedview
     id="namedview5"
     pagecolor="#505050"
     bordercolor="#eeeeee"
     borderopacity="1"
     inkscape:showpageshadow="0"
     inkscape:pageopacity="0"
     inkscape:pagecheckerboard="0"
     inkscape:deskcolor="#505050"
     inkscape:zoom="0.83583333"
     inkscape:cx="764.50648"
     inkscape:cy="477.9661"
     inkscape:window-width="2560"
     inkscape:window-height="1417"
     inkscape:window-x="3832"
     inkscape:window-y="313"
     inkscape:window-maximized="1"
     inkscape:current-layer="svg5" />
  <path
     fill="#ffffff"
     d="M 0,0 H 11200 V 6720 H 0 Z"
     id="path1"
     style="stroke-width:1" />
  <path
     stroke="#cc0000"
     d="m 400,240 h 10800 m 0,960 H 400 m 0,960 h 10800 m 0,960 H 400"
     stroke-width="438.178"
     id="path2" />
  <path
     fill="#000066"
     d="M 0,0 H 5600 V 4080 H 0 Z"
     id="path3"
     style="stroke-width:1" />
  <path
     stroke="#cc0000"
     d="m 0,4080 h 11200 m 0,960 H 0 m 0,960 h 11200"
     stroke-width="438.178"
     id="path4" />
  <path
     fill="#ffcc00"
     d="m 3640.0001,720 107,732 414,-613 -222,706 639,-373 -506,540 738,-59 -690,267 690,267 -738,-59 506,540 -639,-373 222,706 -414,-613 -107,732 -107,-732 -414,613 222,-706 -639,373 506,-540 -738,59 690,-267 -690,-267 738,59 -506,-540 639,373 -222,-706 414,613 z m -600,30 a 1280,1280 0 1 0 0,2340 1440,1440 0 1 1 0,-2340 z"
     id="path5" />
</svg>
