<?xml version="1.0" encoding="UTF-8" standalone="no"?>
<svg
   width="1000"
   height="600"
   version="1.1"
   id="svg7"
   sodipodi:docname="nc.svg"
   inkscape:version="1.3.2 (091e20e, 2023-11-25, custom)"
   xmlns:inkscape="http://www.inkscape.org/namespaces/inkscape"
   xmlns:sodipodi="http://sodipodi.sourceforge.net/DTD/sodipodi-0.dtd"
   xmlns:xlink="http://www.w3.org/1999/xlink"
   xmlns="http://www.w3.org/2000/svg"
   xmlns:svg="http://www.w3.org/2000/svg">
  <defs
     id="defs7" />
  <sodipodi:namedview
     id="namedview7"
     pagecolor="#505050"
     bordercolor="#eeeeee"
     borderopacity="1"
     inkscape:showpageshadow="0"
     inkscape:pageopacity="0"
     inkscape:pagecheckerboard="0"
     inkscape:deskcolor="#505050"
     inkscape:zoom="0.78803122"
     inkscape:cx="408.61325"
     inkscape:cy="557.71902"
     inkscape:window-width="2560"
     inkscape:window-height="1417"
     inkscape:window-x="3832"
     inkscape:window-y="313"
     inkscape:window-maximized="1"
     inkscape:current-layer="svg7" />
  <path
     fill="#009543"
     d="M 0,0 H 1000 V 599.99999 H 0 Z"
     id="path1"
     style="stroke-width:1" />
  <path
     fill="#ed4135"
     d="M 0,0 H 1000 V 399.99999 H 0 Z"
     id="path2"
     style="stroke-width:1" />
  <path
     fill="#0035ad"
     d="M 0,0 H 1000 V 200 H 0 Z"
     id="path3"
     style="stroke-width:1" />
  <circle
     stroke="#000000"
     stroke-width="6.66667"
     fill="#fae600"
     cx="350"
     cy="300"
     r="196.66667"
     id="circle3" />
  <path
     stroke="#000000"
     stroke-width="8"
     d="m 316.66214,329.33732 h 66.67571 m -66.67571,-49.34004 h 66.67571 M 350,103.97341 v 336.04558"
     id="path4" />
  <path
     d="m 270.81592,480.58316 c 80.26555,32.77778 155.49843,2.01361 155.49843,2.01361 0,0 -28.39985,-30.73484 -42.95783,-42.73513 -14.20593,-11.70559 -55.9956,-11.24286 -70.2562,0 -11.90027,9.38528 -46.03291,43.96596 -42.2844,40.72152 z"
     id="path5"
     style="stroke-width:1" />
  <ellipse
     cx="350"
     cy="390.67899"
     rx="22.002985"
     ry="32.004341"
     id="ellipse5"
     style="stroke-width:1" />
  <ellipse
     cx="350"
     cy="304.6673"
     rx="26.670284"
     ry="16.88229"
     id="ellipse6"
     style="stroke-width:1" />
  <circle
     cx="350"
     cy="226.65671"
     r="26.670284"
     id="circle6"
     style="stroke-width:1" />
  <path
     d="m 382.00434,127.3099 c -0.008,-0.0173 2.31098,3.82719 -2.55102,12.58304 -23.23781,41.84968 -46.55697,42.7538 -50.98291,46.35829 -4.878,3.97121 -6.93695,3.69917 -6.93695,3.69917 0.34805,-3.58448 0.6721,-18.24114 0.9268,-19.65333 3.52715,-19.55332 33.06582,-19.28395 56.18362,-39.30667 3.61116,-3.12709 3.35246,-3.69783 3.35246,-3.69783 z"
     id="path6"
     style="stroke-width:1" />
  <g
     id="a"
     transform="matrix(1.3335142,0,0,1.3335142,-50.054274,-0.04070528)"
     style="stroke-width:0.749898">
    <path
       d="m 265.5,163 c 0,0 3.914,11.23 4.5,22.5 0.935,17.997 18.18,18.5 30,18.5 v -10 c -8.859,0 -16.553,-1.317 -23,-14.5 C 273.82,172.997 265.5,163 265.5,163 Z M 265,308 c 0,0 6.296,-7.765 13.662,-25.975 C 282.505,272.525 291.612,267 300,267 v -14 c -19.028,0 -28.15,7.055 -29.113,17.363 C 268.91,291.541 265,308 265,308 Z"
       id="path7"
       style="stroke-width:0.749898" />
  </g>
  <use
     xlink:href="#a"
     transform="matrix(-1,0,0,1,700,0)"
     id="use7"
     style="stroke-width:0.749898" />
</svg>
