<?xml version="1.0" encoding="UTF-8" standalone="no"?>
<svg
   width="1000"
   height="600"
   version="1.1"
   id="svg3"
   sodipodi:docname="nf.svg"
   inkscape:version="1.3.2 (091e20e, 2023-11-25, custom)"
   xmlns:inkscape="http://www.inkscape.org/namespaces/inkscape"
   xmlns:sodipodi="http://sodipodi.sourceforge.net/DTD/sodipodi-0.dtd"
   xmlns="http://www.w3.org/2000/svg"
   xmlns:svg="http://www.w3.org/2000/svg">
  <defs
     id="defs3" />
  <sodipodi:namedview
     id="namedview3"
     pagecolor="#505050"
     bordercolor="#eeeeee"
     borderopacity="1"
     inkscape:showpageshadow="0"
     inkscape:pageopacity="0"
     inkscape:pagecheckerboard="0"
     inkscape:deskcolor="#505050"
     inkscape:zoom="0.77090011"
     inkscape:cx="360.61741"
     inkscape:cy="230.25032"
     inkscape:window-width="2560"
     inkscape:window-height="1417"
     inkscape:window-x="3832"
     inkscape:window-y="313"
     inkscape:window-maximized="1"
     inkscape:current-layer="svg3" />
  <path
     fill="#007934"
     d="M 0,0 H 1000 V 599.99999 H 0 Z"
     id="path1"
     style="stroke-width:1" />
  <path
     fill="#ffffff"
     d="M 304.34782,0 H 695.65216 V 599.99999 H 304.34782 Z"
     id="path2"
     style="stroke-width:1" />
  <path
     fill="#007934"
     d="m 504.33042,39.880434 -3.14869,34.064347 -11.53305,1.734783 c 0,0 8.0087,4.498695 9.40826,9.015652 0.22435,0.723913 0.13435,1.322608 -0.18913,1.773913 a 2.5356521,2.5356521 0 0 1 -0.41739,0.414782 c -2.32174,1.783044 -9.1813,0.943044 -9.1813,0.943044 0,0 9.08869,7.669565 9.78782,10.44913 0.0157,0.06522 0.0365,0.125217 0.0391,0.18913 -0.003,0.05217 0.009,0.138261 0,0.187827 -0.0117,0.04043 -0.0613,0.112173 -0.0783,0.151304 a 1.4452174,1.4452174 0 0 1 -0.3026,0.414782 c -2.13653,1.973482 -12.21522,2.527822 -12.21522,2.527822 0,0 11.17435,7.96827 11.87348,12.48653 0.63391,4.09434 0.10304,6.49173 0,6.9026 -0.78,-0.66652 -18.80218,-15.8113 -30.42652,-11.39217 -0.57783,0.3 -0.92087,0.58696 -1.06174,0.86739 a 0.71739129,0.71739129 0 0 0 -0.0378,0.45261 c 0.81391,2.52 17.25261,5.1 28.71913,15.01435 -0.28435,2.48217 -32.68043,-7.89131 -33.87783,-1.39565 1.01348,1.8326 34.86392,6.71087 37.36826,11.12869 -12.46695,0.46305 -38.2213,-2.74435 -37.36826,1.35783 -2.60478,4.73478 24.32479,2.06087 35.62305,5.92174 3.31304,3.74347 2.99217,6.88695 -2.76913,7.28087 -10.89131,-5.17696 -35.26174,-9.02348 -35.32174,-2.41305 v 0.0365 c 0.004,0.008 0.0365,0.0313 0.0391,0.0391 0.0104,0.0196 0.0209,0.0561 0.0378,0.0744 0.0391,0.0378 0.12522,0.0783 0.18914,0.11348 2.75217,1.37348 25.44782,0.70435 33.9926,6.33783 -12.11478,2.73913 -53.19391,-5.55913 -53.45478,-1.50913 1.17,1.8913 7.67087,10.19347 18.85565,9.84521 11.18479,-0.34695 37.06174,4.52218 38.81087,7.99696 a 0.46956521,0.46956521 0 0 1 0.0391,0.30261 c -0.75782,2.42348 -34.07869,-7.39435 -46.8913,-1.35783 -13.28217,6.25565 38.08304,2.46261 46.47391,10.1087 8.38696,7.64608 -16.77,-0.71739 -16.77,-0.71739 0,0 -34.93435,-4.84566 -40.17652,-2.41305 -5.24348,2.43392 -11.1913,7.99696 -11.1913,7.99696 0,0 3.48521,6.93522 6.98087,5.54609 0.53217,-0.21261 0.89608,-0.25566 1.09956,-0.18913 0.005,0.003 0.0339,-0.003 0.0391,0 0.004,0.003 0.0326,0.0352 0.0378,0.0378 0.008,0.005 0.03,0.0313 0.0378,0.0378 0.005,0.008 0.0313,0.03 0.0378,0.0378 l 0.0391,0.0378 a 0.70173912,0.70173912 0 0 1 0.0365,0.15 c 0.0822,1.04348 -2.38956,4.07478 -2.38956,4.07478 0,0 48.95478,11.79261 59.79,22.21826 C 505.71825,227.1913 432.66695,200.43 432.66695,200.43 c 0,0 -29.36087,10.7726 1.74521,11.46782 -3.46826,5.04391 1.43479,8.14826 1.74392,8.33609 0,0 51.74086,10.78435 56.98304,19.12565 5.24348,8.3413 -35.29957,-8.00609 -44.38696,-12.52304 -8.76652,-4.36044 -33.17217,2.30478 -34.5613,4.33826 a 0.72913042,0.72913042 0 0 0 -0.0378,0.0744 c -0.003,0.008 0.003,0.0313 0,0.0391 a 0.50608695,0.50608695 0 0 0 0,0.0743 v 0.0391 c 0.003,0.007 -0.003,0.03 0,0.0365 0.003,0.008 0.0352,0.0313 0.0391,0.0378 10e-4,0.008 -0.004,0.0313 0,0.0378 a 1.2078261,1.2078261 0 0 0 0.0757,0.11348 c 0.005,0.008 0.0313,0.03 0.0378,0.0378 1.56261,1.71261 12.45652,4.07087 12.78522,7.01609 v 0.0378 a 1.1256522,1.1256522 0 0 1 -0.11478,0.49043 c -1.37218,2.64522 -14.3687,3.76957 -14.9087,6.26087 -0.009,0.043 -0.0391,0.10826 -0.0391,0.1513 0,2.78218 65.38043,16.33566 82.85609,30.93261 17.47565,14.59696 -51.36783,-17.39087 -51.36783,-17.39087 0,0 3.84522,5.21087 0,6.60261 -3.84522,1.38913 -17.50304,-19.46087 -39.87261,-6.60261 -4.07348,5.29174 19.53131,9.49044 25.53261,10.07218 -2.04782,5.23956 -3.83478,6.97304 4.55217,12.18521 0.91827,0.57 1.43348,0.91435 1.63174,1.09305 l 0.0391,0.0391 0.0365,0.0365 c 0.003,0.003 0,0.0352 0,0.0391 v 0.0365 h -0.0757 c -1.29913,-0.20217 -16.36956,-7.90304 -17.94521,-8.22261 -0.0157,-0.003 -0.0639,0 -0.0757,0 h -0.0378 c 0,0.69522 1.74522,9.05218 1.74522,9.05218 -7.74392,-6.25435 -17.10522,-8.14044 -25.87305,-1.73479 -0.013,0.37044 -0.0783,6.36913 8.72609,10.07218 -4.96174,10.0813 5.60609,6.95217 22.38261,16.33435 -24.93261,-6.48 -26.92957,5.55652 -9.10435,8.33739 17.82522,2.78087 66.76956,4.52217 78.30391,19.46478 2.43261,3.15261 3.09392,4.73739 2.61783,5.24348 -1.92391,1.73348 -19.62261,-10.99565 -22.19348,-11.46783 -0.005,0.003 -0.0326,-0.005 -0.0391,0 l -0.0365,0.0378 a 1.1713043,1.1713043 0 0 0 -0.11478,0.18782 c -0.6274,1.38261 -1.21305,7.39435 -1.21305,7.39435 -7.45695,-4.2913 -14.29956,-8.14043 -23.21739,-9.95869 -0.70043,1.38913 -0.55304,3.36391 -1.25217,4.75304 -8.09479,-5.80435 -15.14479,-9.88435 -26.89826,-10.44913 l -1.40479,5.58261 c 0,0 -9.79826,-12.16435 -29.02173,0 -10.73479,7.65261 40.54956,2.77043 48.93913,11.80695 8.38695,9.03522 1.74391,10.41131 1.74391,10.41131 -6.99,-2.54739 -13.95131,-5.07131 -20.94131,-7.62 0,0 -24.84,-4.54044 -31.82999,1.01869 -6.99,5.56174 102.05608,19.11913 105.20086,34.06435 2.12087,8.10522 -25.62,-8.48609 -49.62261,-15.61696 -0.92739,2.65305 -1.87826,5.3074 -2.80695,7.96044 -0.5687,-0.56087 -9.85435,-9.54 -20.25913,-11.09087 -0.003,0.005 -0.0352,0.0287 -0.0391,0.0378 v 0.0756 c 0.0169,1.14 2.12608,9.27913 2.12608,9.27913 0,0 -26.88652,-12.52435 -40.51695,-5.92174 -13.63174,6.60261 47.5213,10.07739 53.11304,16.33435 0.61174,0.68348 0.86609,1.18304 0.83478,1.50913 a 0.71739129,0.71739129 0 0 1 -0.077,0.18782 c -1.35,1.96696 -19.58739,-5.29826 -21.39652,-1.69695 -2.0974,4.17 -31.8,-7.63566 -31.45044,-2.07522 0.34957,5.56174 4.21174,8.67652 4.21174,8.67652 0,0 61.86522,5.90478 63.96261,13.20261 2.09609,7.29783 -34.25739,-4.14913 -34.25739,-4.14913 0,0 -3.51652,5.18739 -0.72131,7.62 0.10957,0.0939 0.19566,0.18522 0.22826,0.22565 v 0.0378 h -0.0391 c -1.2626,-0.41479 -20.96087,-13.24305 -19.04347,-3.39522 -7.7087,-3.05217 -27.60913,-12.50348 -24.81261,-5.20565 2.75478,7.19087 54.65869,17.43 56.18608,17.73 -1.37217,0.10695 -23.32173,1.93304 -22.30695,7.65652 -29.41957,-17.82 -29.35044,-7.13348 -28.68131,-6.2987 v 0.0391 c -1.6526,-0.26087 -37.84695,-9.22695 -9.06652,6.26087 15.43435,8.30479 19.19609,11.54348 19.27305,12.78783 0,0.0274 0.003,0.0874 0,0.11348 -0.005,0.0326 -0.0261,0.0835 -0.0378,0.11348 -0.003,0.008 -0.0339,0.03 -0.0391,0.0378 -0.013,0.0209 -0.0222,0.0561 -0.0365,0.0757 l -0.0391,0.0378 -0.0378,0.0378 -0.0378,0.0378 c -0.008,0.005 -0.03,0.0326 -0.0378,0.0378 -0.5987,0.37956 -2.04391,0.22174 -2.46522,0.22565 h -0.077 a 0.17347826,0.17347826 0 0 0 -0.0378,0.0378 l 0.0391,0.0378 c 0.40956,0.60652 2.66739,6.73696 2.54087,7.80913 -0.003,0.0183 -0.0339,0.0613 -0.0391,0.0743 -10e-4,0.005 0.004,0.0326 0,0.0391 0,10e-4 -0.0352,-0.004 -0.0365,0 -0.003,0 0.003,0.0352 0,0.0365 h -0.077 c -1.2613,-0.31565 -20.32174,-10.44391 -26.86043,-11.12739 -6.64174,-0.69522 -38.10653,8.67783 -4.55218,23.27478 33.55435,14.59696 54.16435,-3.4826 72.6887,-1.39565 18.52434,2.08435 27.27913,5.2187 25.5326,11.12739 -1.74782,5.9087 -18.94956,-19.36956 -37.02782,2.49131 -20.56435,-4.04739 -34.51565,-6.3887 -23.90087,8.63739 -33.58304,-12.4787 -54.0913,3.80739 -11.79913,10.4113 41.55913,1.21826 67.1113,-10.07217 67.1113,-10.07217 0,0 7.01087,12.88435 17.14826,3.84782 9.66131,-8.6113 10.42174,2.34783 10.77392,3.39522 0.007,0.0156 0.0339,0.0287 0.0391,0.0391 0.003,0.001 -0.003,0.0352 0,0.0365 h 0.0378 c 0.74609,-0.18652 9.75,-4.18695 9.75,-4.18695 h 2.46522 v 83.40521 c 11.30217,0.11609 22.57826,0.22305 33.87782,0.33913 0,0 -10.83521,-72.61826 -4.89391,-82.34869 5.75739,-9.42652 11.20044,-8.40913 11.53305,-8.33609 0,0 22.02391,6.58696 24.46956,5.54479 0.0287,-0.013 0.0874,-0.0235 0.11478,-0.0378 0.0183,-0.0104 0.0587,-0.0261 0.0756,-0.0378 0.043,-0.0261 0.11348,-0.0822 0.15131,-0.11347 0.008,-0.005 0.0313,-0.0313 0.0391,-0.0378 1.78956,-1.62391 -0.0339,-8.03478 11.15217,-7.05391 3.45652,-1.24957 2.13783,-6.72522 4.36435,-8.07261 0.0391,-0.0235 0.10957,-0.0548 0.15131,-0.0756 0.0835,-0.0391 0.21,-0.0848 0.30391,-0.11218 0.13043,-0.0391 0.30522,-0.0613 0.45522,-0.0756 3.49565,-0.34826 70.94608,18.7513 85.62521,0.67826 -3.84522,-10.07739 -17.14304,-0.68739 -20.63869,-0.33913 -3.14609,0 -16.43739,-6.25565 -24.12783,0 -6.9913,-5.21217 -38.77304,-8.67652 -38.77304,-8.67652 -4.19478,-4.17 75.84652,2.0713 80.38956,-1.05652 9.43565,-9.38348 -17.46782,-8.33348 -21.66261,-5.20435 -7.45695,-4.51957 -16.82608,-4.18435 -22.53521,-1.05652 -2.73783,-6.51131 -28.72696,-3.69131 -43.17392,-5.54609 -4.6226,-2.69609 -3.85304,-4.24435 -0.72,-5.92174 30.17479,1.27435 60.19696,5.19131 90.51913,3.84783 8.19652,-10.62522 -10.31739,-14.63218 -21.66261,-5.58261 -6.66,-10.89131 -20.27608,-0.35478 -29.36347,-1.39696 -9.08609,-1.04348 -4.89392,-12.14869 6.63913,-10.4113 11.53434,1.73869 32.15869,-0.70957 36.00261,-5.92174 3.84391,-5.21348 -2.29566,-10.49478 -21.32087,-5.54609 -6.43957,-6.25826 -20.59826,-0.0104 -27.24,2.07392 -8.83566,-4.90044 -29.39218,-0.68087 -36.38218,1.05652 -6.84261,-4.2287 36.00261,-11.12739 36.00261,-11.12739 16.53913,-0.29087 25.86652,-3.13696 31.1087,-4.52609 25.00173,-13.32522 -0.34826,-14.73913 -13.46739,-5.05565 -8.14305,-6.32218 -15.87783,0.54652 -23.2174,2.98043 -6.88043,2.28 -19.60695,3.94044 -21.16956,3.28174 a 0.82304346,0.82304346 0 0 1 -0.0756,-0.0391 c -0.003,-10e-4 -0.0339,-0.0339 -0.0391,-0.0365 l -0.0365,-0.0391 v -0.0743 a 0.61695651,0.61695651 0 0 1 0.0378,-0.0744 c 1.03044,-1.58869 19.87826,-13.09043 19.87826,-13.09043 0,0 24.46957,-1.75696 29.36478,-2.45218 2.98174,-0.42391 13.43348,-5.3426 13.42957,-7.16739 -0.0874,-1.13217 -4.44261,-1.02782 -17.64131,2.30087 -11.88391,1.04348 -18.86347,0.36913 -23.40782,0.71739 -7.30826,-0.7513 -10.38783,-1.51695 -11.00217,-2.18869 a 0.85826085,0.85826085 0 0 1 -0.0757,-0.11218 c -0.0522,-0.1213 -0.0183,-0.26087 0.0757,-0.37826 0.0235,-0.0261 0.0822,-0.0861 0.11347,-0.11217 1.79218,-1.42304 13.35392,-2.45217 13.35392,-2.45217 0,0 35.29956,-3.21913 37.63434,-5.05566 l 0.0391,-0.0378 c 0.0131,-0.0156 0.0287,-0.0613 0.0365,-0.0756 0.003,-0.008 0.0365,-0.03 0.0391,-0.0378 0.72521,-14.35044 -29.94783,-7.72304 -30.76696,-7.62 0.0874,-10.09044 -27.68348,-0.14739 -28.98391,0 h -0.0391 c -1.19479,-0.69913 -1.71522,-1.43739 -1.82087,-2.11304 -0.0339,-0.25566 0,-0.54522 0.0756,-0.79044 0.69652,-2.08174 4.89391,-3.69782 4.89391,-3.69782 7.69044,-1.85218 19.18696,-2.43131 22.19348,-4.86522 0,0 21.70435,-0.19044 24.28044,-5.92305 -5.32566,-14.61 -45.93,2.58653 -51.36783,5.20566 -1.08913,0 -1.75565,-0.27261 -2.08696,-0.71739 -1.78434,-2.59305 7.02653,-11.13522 7.32261,-11.4287 0.003,-0.003 0.0313,-0.0352 0.0391,-0.0391 1.34218,-0.37826 33.76044,-2.02696 49.24174,-22.89652 1.09304,-12.90522 -18.51391,7.27956 -18.51391,7.27956 -1.46348,-16.73478 -21.31957,1.06174 -32.85391,2.45218 -11.53305,1.38913 -11.86957,-5.2187 -3.83087,-6.26087 8.03739,-1.04348 17.11826,-0.36131 21.6626,-12.52435 4.54174,-12.16435 18.19174,0.70826 20.6387,-3.81 2.3687,-4.37739 -4.46609,-8.10913 -4.89391,-8.33739 0,0 10.12826,-10.45696 -6.2987,-10.1087 -16.2613,0.34305 -37.28478,-2.02695 -37.70869,-2.07521 1.01869,-0.3874 17.5826,-6.6 33.15652,-6.26218 16.07869,0.34696 7.33695,-11.46782 -8.04261,-11.46782 -15.37826,0 -23.40783,-5.20566 -23.40783,-5.20566 l 26.21479,-9.73304 -1.74522,-7.28087 c 0,0 15.37304,-12.17217 -6.29739,-9.39261 -21.67044,2.78087 -24.12783,3.13044 -24.12783,3.13044 0,0 -42.65869,6.50087 -43.66695,6.60261 h -0.0391 c -0.41218,-0.0652 -4.63696,-1.36957 -5.42348,-2.98044 a 2.043913,2.043913 0 0 1 -0.077,-0.18913 1.4686956,1.4686956 0 0 1 -0.0378,-0.22565 c -0.005,-0.0756 -0.013,-0.18652 0,-0.26478 0.17609,-0.84783 1.49218,-1.76609 4.85609,-2.60218 11.18478,-2.77956 50.7,-10.76217 56.6413,-8.67652 0.76566,0.2687 1.32522,0.2087 1.66957,-0.0756 2.22783,-2.00478 -5.18348,-14.7887 -23.37,-16.59783 -20.9713,-2.08434 -33.87783,5.20566 -33.87783,5.20566 0,0 -13.64608,-4.88218 -1.06173,-9.05218 12.58173,-4.17 32.51217,1.39565 32.51217,1.39565 0,0 22.35652,-6.61304 3.83087,-9.39391 -18.52435,-2.78087 -24.36522,2.50044 -32.85391,2.79131 -3.3887,-4.20522 29.08304,-5.19783 31.10869,-8.67522 -3.42391,-6.25826 -23.51478,0 -35.28261,0 -5.00478,-2.11305 -5.33608,-5.54739 0.34174,-7.65783 12,-0.46435 23.28131,0.23609 35.28261,-0.22695 -0.34957,-6.37044 0.008,-13.92392 -0.34174,-20.29435 -15.22174,-2.76522 -33.07174,2.02565 -41.61782,1.62261 2.28652,-6.95218 35.15217,-8.74696 38.81086,-10.63826 7.55218,-9.38479 -31.52217,-0.14479 -32.47434,0 -6.93522,-1.0187 -6.51522,-5.37783 -2.12479,-7.99696 10.13609,-1.15957 32.86566,1.47652 31.14783,-5.35696 -1.31739,-6.40434 -15.76043,-2.97391 -21.70174,-1.58478 -5.9413,1.39044 -14.68174,0.33913 -14.68174,0.33913 -3.80478,-5.09217 34.26522,-3.01043 33.91696,-6.93913 -0.49565,-4.51304 -24.13044,-1.40478 -32.17174,-1.05652 -6.18261,-4.24304 29.0687,-7.06304 30.73043,-7.62131 l 0.0378,-0.0378 c 1.31739,-11.55261 -24.46956,0 -29.36348,0 -0.8413,0 -1.47782,-0.2087 -1.93565,-0.56478 A 2.8982608,2.8982608 0 0 1 509.41086,119.97 c -1.68,-1.9487 -0.18913,-6.41218 -0.18913,-6.41218 0,0 9.18913,-4.10608 9.75,-5.09347 0.003,-0.008 0.0352,-0.03 0.0391,-0.0378 v -0.077 l -0.0391,-0.0365 a 0.75130433,0.75130433 0 0 0 -0.11348,-0.11348 c -1.0787,-0.82565 -7.39957,-2.9113 -8.23304,-2.98043 h -0.0378 c -0.005,-10e-4 -0.0326,-0.0352 -0.0378,-0.0378 a 0.29086956,0.29086956 0 0 1 -0.0391,-0.0378 c -0.004,-0.005 -0.0326,-0.03 -0.0365,-0.0378 -0.47609,-0.97174 0.11348,-7.883478 0.11348,-7.883478 0,0 7.28087,-5.426087 7.73869,-7.582174 0.003,-0.01826 -0.003,-0.0587 0,-0.07565 0.003,-0.01826 0,-0.0587 0,-0.07565 v -0.07565 c 0,-0.01565 0.003,-0.06 0,-0.07565 v -0.03783 c -0.005,-0.02087 -0.0287,-0.05478 -0.0378,-0.07565 -0.003,-0.0078 0.003,-0.03 0,-0.03783 -0.003,-0.0052 -0.0339,-0.0313 -0.0378,-0.03783 -0.008,-0.01304 -0.03,-0.02609 -0.0391,-0.03783 -0.013,-0.01826 -0.0222,-0.0587 -0.0365,-0.07435 l -0.0391,-0.03913 a 1.2234782,1.2234782 0 0 0 -0.11348,-0.07435 l -0.0756,-0.03913 c -1.83913,-0.876521 -9.44609,1.736087 -9.44609,1.736087 v -6.940434 c 0,0 6.66,-0.72 7.35913,-3.847826 0.0417,-0.182609 0.0209,-0.363913 0,-0.528261 -0.0104,-0.06522 -0.0183,-0.164348 -0.0378,-0.226957 a 1.7556521,1.7556521 0 0 0 -0.18913,-0.414782 c -0.0131,-0.01826 -0.0626,-0.05739 -0.077,-0.07565 -1.52348,-1.956522 -7.7387,-2.225218 -7.7387,-2.225218 C 506.65086,64.19739 505.4926,52.04739 504.32651,39.883043 Z M 498.10868,159.00913 V 163.8 c 0,0 -7.83913,-0.39913 -9.29478,-1.62261 -0.008,-0.005 -0.0313,-0.0313 -0.0391,-0.0378 l -0.0365,-0.0365 -0.0391,-0.0391 -0.0378,-0.0365 c -0.013,-0.0183 -0.0274,-0.0561 -0.0378,-0.0756 -0.003,-0.005 0.003,-0.0313 0,-0.0378 -0.003,-0.005 -0.0365,-0.0313 -0.0378,-0.0378 v -0.18782 c 0.008,-0.0287 0.0235,-0.0848 0.0378,-0.11348 0.003,-0.008 0.0339,-0.0313 0.0391,-0.0391 0.0169,-0.0287 0.0496,-0.0822 0.0743,-0.11217 l 0.0391,-0.0378 0.0756,-0.0756 c 0.0522,-0.0457 0.1213,-0.10305 0.18913,-0.15131 2.62956,-1.83 7.88087,-1.78695 8.91521,-2.07391 0.008,-0.003 0.03,0.003 0.0391,0 0.008,-0.003 0.0313,-0.0352 0.0378,-0.0391 0.005,-0.001 0.0326,0.004 0.0378,0 0.005,-0.001 0.0339,-0.0339 0.0378,-0.0365 z m 11.11566,6.37565 c 0.2713,0 15.61304,0.13043 16.95782,2.11304 0.0104,0.0144 0.03,0.0574 0.0391,0.0744 0.009,0.0261 0.0313,0.0874 0.0378,0.11348 0.003,0.0183 -10e-4,0.0574 0,0.0756 0,0.0261 0.005,0.0848 0,0.11348 a 1.2691304,1.2691304 0 0 1 -0.0391,0.11217 c -1.17131,2.47566 -16.69305,3.96131 -16.69305,3.96131 z m -0.87261,9.46826 c 0.005,0.003 0.0326,-0.003 0.0391,0 0.004,0.003 0.0287,-0.003 0.0365,0 0.91174,0.2387 7.26522,0.44348 8.04391,1.50783 0.008,0.0104 0.0313,0.0287 0.0378,0.0391 0.003,0.004 -0.003,0.0313 0,0.0365 0.005,0.0104 0.0339,0.0274 0.0378,0.0391 v 0.18652 c -0.003,0.005 -0.0365,0.0313 -0.0391,0.0378 -10e-4,0.005 0.004,0.0313 0,0.0365 -0.009,0.0183 -0.0261,0.0574 -0.0365,0.0756 l -0.0391,0.0391 c -0.005,0.004 0.005,0.03 0,0.0365 -1.31739,1.60044 -7.18043,2.03739 -7.47391,2.03739 h -0.0378 c -0.003,0 0.003,-0.0365 0,-0.0378 -0.005,-0.008 -0.0326,-0.03 -0.0378,-0.0378 -0.26739,-0.5413 -0.53087,-3.99782 -0.53087,-3.99782 z m -46.77783,12.6 c 5.0087,-0.26087 14.95044,0.91304 33.61304,6.03522 0,0.39391 0.37827,5.20565 0.22827,5.99739 -10e-4,0.005 -0.0365,0.0326 -0.0391,0.0378 v 0.0378 c -0.003,0.003 -0.0326,0.0365 -0.0378,0.0378 -0.29217,-0.14609 -33.95217,-9.76435 -37.02783,-9.61957 -0.0835,0.003 -0.18521,0.008 -0.26478,0 a 2.5369565,2.5369565 0 0 1 -0.22826,-0.0378 c -0.0835,-0.0209 -0.19174,-0.0796 -0.26478,-0.11348 -0.0274,-0.013 -0.0887,-0.0235 -0.11479,-0.0378 -0.008,-0.005 -0.03,-0.0326 -0.0391,-0.0378 a 1.0773913,1.0773913 0 0 1 -0.26478,-0.26347 c -0.005,-0.008 -0.0326,-0.03 -0.0378,-0.0378 l -0.0378,-0.0756 c -0.003,-0.008 0.003,-0.03 0,-0.0378 -0.005,-0.0156 -0.0339,-0.06 -0.0378,-0.0756 v -0.18783 a 0.9169565,0.9169565 0 0 1 0.0391,-0.1513 1.1386956,1.1386956 0 0 1 0.22696,-0.33913 c 0.51391,-0.50087 1.80261,-1.00435 4.28609,-1.13217 z m 17.45218,14.22 c 5.36478,-0.19044 18.21913,2.88391 18.92999,2.71696 0,1.01869 0.5687,5.83695 -0.0756,6.82695 -0.005,0.008 -0.0313,0.03 -0.0391,0.0391 -0.004,0.007 -0.03,0.03 -0.0365,0.0365 -0.008,0.005 -0.0313,0.0326 -0.0391,0.0378 a 0.89347824,0.89347824 0 0 1 -0.0756,0.0378 c -0.008,0.003 -0.03,-0.001 -0.0391,0 h -0.0743 c -0.008,-0.001 -0.0287,0.003 -0.0391,0 -1.09174,-0.27131 -20.06217,-6.26348 -20.7887,-8.71305 -0.0104,-0.0417 -10e-4,-0.11347 0,-0.15261 a 0.49956521,0.49956521 0 0 1 0.11348,-0.26347 c 0.008,-0.008 0.0287,-0.03 0.0391,-0.0378 l 0.0365,-0.0378 c 0.36522,-0.28695 1.11653,-0.45652 2.08696,-0.49043 z m 52.80782,13.20261 c 5.12348,-0.0991 8.74174,0.33652 7.39826,1.88608 -3.65869,4.22087 -28.94609,7.69566 -28.94609,7.69566 l -0.45652,-7.69566 c 0.54392,-0.0783 13.39305,-1.71782 22.00435,-1.88608 z m -72.38478,23.99217 c 4.30043,-0.22696 14.31391,2.12087 36.61043,11.50565 l 0.15261,5.54609 c 0,0 -37.75826,-11.38696 -39.07565,-13.27826 -0.64956,-0.9313 -1.85348,-3.55174 2.31391,-3.77348 z m 73.97869,8.26174 c 1.14783,-0.0587 1.95653,0.0574 2.23826,0.33913 0.008,0.008 0.0326,0.03 0.0391,0.0391 0.0144,0.0261 0.0274,0.0848 0.0365,0.11218 0.005,0.0287 0.0391,0.0822 0.0391,0.11347 -0.0157,0.15913 -0.13566,0.37305 -0.34174,0.60392 -3.51392,3.93 -22.38391,7.84565 -22.38391,7.84565 v -5.09218 h 0.0378 c 0.86087,-0.03 14.71174,-3.67826 20.33478,-3.9613 z m -82.78043,0.67826 c 5.63739,-0.29609 18.36522,2.67652 46.8913,16.1087 0,0.13826 0.25435,4.7713 0.15131,5.20434 h -0.0378 c -1.69043,-0.5413 -51.33,-17.87869 -51.33,-17.87869 -0.0522,-0.19044 -0.79956,-3.16304 4.32522,-3.43304 z m 94.50261,21.69131 c 1.44261,-0.06 2.38956,0.0652 2.61782,0.37826 a 0.43304347,0.43304347 0 0 1 0.0391,0.1513 c -0.007,0.15 -0.13174,0.34304 -0.38087,0.56478 -4.5,4.04348 -33.19956,8.94 -34.21956,9.01565 h -0.0378 c -0.003,0 -0.0339,0.003 -0.0378,0 l -0.0391,-0.0378 a 0.5347826,0.5347826 0 0 1 -0.0365,-0.0743 c -0.003,-0.008 0.003,-0.0313 0,-0.0391 -0.005,-0.0144 -0.0339,-0.0574 -0.0391,-0.0744 -0.1826,-0.93652 0.41218,-4.21826 0.45653,-4.67739 v -0.0391 c 0,0.003 0.0352,0 0.0378,0 0.005,10e-4 0.0313,0.0391 0.0378,0.0391 h 0.0378 c 1.83653,-0.0313 23.83044,-4.88478 31.56392,-5.20565 z m -84.37304,12.63913 c 8.54347,-0.43957 34.43086,11.36347 35.69999,11.72999 h 0.0391 c -0.13435,0.52827 -0.15653,4.78957 -0.26609,5.47044 -0.003,0.0183 0.003,0.0652 0,0.0756 -0.001,0.003 -0.0378,-10e-4 -0.0391,0 -0.69652,-0.37174 -36.17609,-15.01304 -37.74783,-13.84435 -0.97826,-2.30608 0.0365,-3.31565 2.31522,-3.43304 z m 76.33043,3.0913 c 1.77782,-0.077 3.07826,0.001 3.49043,0.22696 a 0.32347825,0.32347825 0 0 1 0.11348,0.11347 c 0.003,0.005 0,0.0313 0,0.0378 a 0.50869564,0.50869564 0 0 1 0,0.0378 c -0.003,0.0156 0.008,0.06 0,0.0756 -0.005,0.008 -0.0313,0.0287 -0.0378,0.0378 a 1.0173913,1.0173913 0 0 1 -0.11348,0.11218 c -2.63479,2.32956 -27.08739,7.12956 -27.08739,7.12956 0,0 -0.11479,-4.50391 -0.11479,-4.94087 0.69522,-0.14739 16.48044,-2.51087 23.74957,-2.83043 z m -1.97218,15.58043 c 1.72044,-0.0574 2.94,0.0391 3.22435,0.33913 l 0.0378,0.0378 c 0.008,0.013 -0.003,0.0613 0,0.0756 0,0.008 0.0378,0.03 0.0391,0.0378 -0.001,0.008 -0.0391,0.03 -0.0391,0.0378 -0.003,0.0157 0.008,0.0587 0,0.0743 -0.005,0.008 -0.0326,0.03 -0.0391,0.0391 -0.0196,0.0339 -0.0444,0.077 -0.0743,0.11218 -0.0235,0.0261 -0.0835,0.0861 -0.11478,0.11348 -2.6387,2.26565 -23.37,6.6013 -23.37,6.6013 0,0 -0.5687,-4.94609 -0.5687,-5.09217 0.57392,0.013 14.43522,-2.16261 20.90348,-2.37653 z m -87.48391,1.24435 c 5.00087,-0.31435 17.39609,1.73478 47.99087,12.78783 l 1.02392,5.96087 c 0,0 -50.94131,-16.35131 -52.39174,-16.86261 0.003,0 0,-0.0339 0,-0.0391 0,-0.0313 -0.008,-0.10696 0,-0.18783 a 1.2860869,1.2860869 0 0 1 0.26608,-0.60391 c 0.3587,-0.43696 1.17913,-0.93522 3.11087,-1.05652 z m 67.11131,12.93913 c 0.61304,0.13044 9.15521,0.41218 10.73478,1.73478 0.009,0.005 0.0326,0.0313 0.0391,0.0391 l 0.0391,0.0365 c 0.004,0.005 0.0313,0.0313 0.0365,0.0391 0.0156,0.0196 0.0261,0.0548 0.0391,0.0743 0.003,0.008 0.0339,0.0313 0.0378,0.0378 0.013,0.0274 0.03,0.0848 0.0378,0.11348 v 0.18783 c -0.003,0.0156 -0.0326,0.06 -0.0391,0.0743 -10e-4,0.008 0.004,0.03 0,0.0391 l -0.0365,0.0744 c -1.31739,2.03739 -10.24304,2.79131 -10.24304,2.79131 0,0 -0.43957,-3.99131 -0.64565,-5.24348 z m 20.67652,11.61783 c 1.98913,-0.047 3.41608,0.18 3.71739,0.75522 0.16956,0.39 -0.15652,0.96521 -1.09957,1.73478 -7.31739,5.96739 -23.25652,7.12956 -23.25652,7.12956 v -6.56348 h 0.0378 c 0.90522,-0.10695 13.99565,-2.89826 20.60087,-3.05608 z m 20.29565,6.11217 c 2.52652,-0.0952 3.61565,0.32609 3.94696,0.90522 0.0261,0.0522 0.06,0.13435 0.0756,0.18913 0.0235,0.0978 0.0457,0.23478 0.0378,0.33913 -0.0809,0.74739 -0.89608,1.64348 -1.51695,2.22522 -2.4887,2.32826 -42.1487,14.82521 -42.1487,14.82521 0,0 -0.3,-8.28913 -0.15261,-9.01565 23.1874,-6.98739 34.5287,-9.2713 39.75913,-9.46826 z m -25.64478,23.46391 c 2.5213,-0.0939 4.49217,0.0548 5.08304,0.64044 0.0365,0.0391 0.09,0.10826 0.11478,0.1513 0.013,0.0261 0.0287,0.0848 0.0378,0.11348 0.008,0.0274 -0.003,0.0835 0,0.11348 0,0.0496 0.013,0.13304 0,0.18783 -0.0287,0.11217 -0.10565,0.24782 -0.19044,0.37826 -3.3926,3.31043 -19.87956,3.80869 -19.87956,3.80869 v -4.1113 c 3.09522,-0.10435 9.98739,-1.10218 14.83304,-1.28218 z m 16.50261,6.75131 c 0.7826,-0.0183 1.2613,0.10826 1.32782,0.33913 a 0.36521738,0.36521738 0 0 1 0,0.077 c -0.0391,0.19173 -0.27,0.4826 -0.75913,0.82956 -6.58695,4.65652 -31.33695,9.43044 -31.33695,9.43044 0,0 0.30652,-3.25435 0.45521,-4.03696 0.6887,-0.0104 24.39,-6.49435 30.31174,-6.63913 z m 13.88478,5.16913 c 2.91652,-0.0274 5.14174,0.40043 6.41087,1.32 h 0.0391 v 0.1513 c -0.12522,0.90131 -1.9787,5.14566 -8.49913,6.97826 -8.13131,-0.7226 -42.64304,9.42261 -43.32522,9.58174 -0.003,-0.003 -0.0365,0.003 -0.0378,0 -0.003,-0.013 10e-4,-0.0561 0,-0.0756 -0.0183,-0.64956 0.45652,-4.14913 0.45652,-4.14913 11.89565,-7.07478 33.51391,-13.69956 44.95434,-13.80652 z m -88.35652,19.91739 h 0.22695 c 14.92827,1.60043 20.50435,7.15696 22.08,9.3913 -2.97652,5.19522 -26.56956,-6.4526 -24.09,-8.93869 0.28435,-0.25174 0.8674,-0.43435 1.78305,-0.45261 z m 85.54956,0.98087 c 0.59218,-0.0235 1.13478,0.0978 1.51696,0.33913 0.15652,0.10435 0.31043,0.25304 0.41739,0.41478 0.14348,0.23218 0.24,0.54522 0.26609,0.90522 -1.56,2.39609 -9.62609,1.35 -10.12957,1.28217 0.40565,-0.14347 5.06218,-2.83304 7.92913,-2.9413 z m -31.98261,16.14522 c 1.1087,-0.0457 2.02696,0.0652 2.54348,0.37695 0.0613,0.0391 0.13957,0.10435 0.18913,0.15131 0.0156,0.0156 0.0613,0.0574 0.0756,0.0743 0.0209,0.0261 0.0587,0.0861 0.0757,0.11348 0.0157,0.0287 0.0261,0.0822 0.0391,0.11348 0.0926,0.28174 0.0561,0.67174 -0.19044,1.13218 -2.3413,4.36565 -12.59478,2.75217 -12.59478,2.75217 v -3.05478 h 0.0378 c 0.57652,0.0496 6.22826,-1.51305 9.82565,-1.65913 z m -60.39521,11.50434 c 3.15391,-0.15652 5.9113,1.90044 8.80174,3.54653 6.43826,-1.30957 19.6513,1.01739 19.6513,1.01739 v 5.81087 a 0.14608695,0.14608695 0 0 1 -0.0391,0.0378 c -0.005,0.003 -0.03,-0.003 -0.0378,0 -1.2026,0.2087 -16.68652,-0.46435 -20.14434,-2.6413 -2.82,0 -10.80522,-4.18957 -11.41826,-6.33652 -0.005,-0.0183 -0.0352,-0.0587 -0.0391,-0.0757 -0.005,-0.0261 0.003,-0.0874 0,-0.11347 v -0.0757 c 10e-4,-0.0156 -0.003,-0.06 0,-0.0756 v -0.0378 c 0.003,-0.0157 0.0339,-0.06 0.0391,-0.0757 0.003,-0.008 -0.003,-0.03 0,-0.0378 1.10347,-0.58435 2.17826,-0.89218 3.18652,-0.94305 z m 67.71913,2.86826 c 2.42217,-0.13043 3.44869,0.61305 1.55478,3.28174 -5.26957,7.42174 -18.89348,4.37479 -18.89348,4.37479 l -0.56869,-4.60174 c 4.80521,0.18652 13.58869,-2.82392 17.90608,-3.05609 z m -50.91261,15.05087 c 5.50826,-0.25565 11.49522,1.92392 11.49522,1.92392 0.14087,0.27913 2.96087,5.80565 0.45521,7.65652 -0.0939,0.0678 -0.19565,0.13304 -0.30391,0.18913 -3.07435,1.60043 -17.76522,-1.25087 -18.62739,-7.12957 1.72826,-1.81434 4.29,-2.51608 6.98087,-2.64 z m -56.79261,2.86696 c 5.03739,-0.3013 10.66565,2.78478 11.30478,3.09261 0.008,0.003 0.0339,0 0.0391,0 0,0.17348 -0.19043,5.58261 -0.19043,5.58261 0,0 -9.97435,-2.76522 -13.12696,-8.33609 a 9.8882607,9.8882607 0 0 1 1.97218,-0.33913 z m 95.94522,0.75391 c 5.61913,-0.0352 12.40826,1.27826 13.39174,3.16957 0.18521,0.38609 0.13043,0.81261 -0.22827,1.24435 -2.78086,3.34565 -18.58956,0.3013 -18.58956,0.3013 v -4.07348 c 1.40739,-0.40956 3.34435,-0.62869 5.42609,-0.64174 z"
     id="path3"
     style="stroke-width:1" />
</svg>
