<?xml version="1.0" encoding="UTF-8" standalone="no"?>
<svg
   width="1000"
   height="600"
   version="1.1"
   id="svg3"
   sodipodi:docname="nr.svg"
   inkscape:version="1.3.2 (091e20e, 2023-11-25, custom)"
   xmlns:inkscape="http://www.inkscape.org/namespaces/inkscape"
   xmlns:sodipodi="http://sodipodi.sourceforge.net/DTD/sodipodi-0.dtd"
   xmlns="http://www.w3.org/2000/svg"
   xmlns:svg="http://www.w3.org/2000/svg">
  <defs
     id="defs3" />
  <sodipodi:namedview
     id="namedview3"
     pagecolor="#505050"
     bordercolor="#eeeeee"
     borderopacity="1"
     inkscape:showpageshadow="0"
     inkscape:pageopacity="0"
     inkscape:pagecheckerboard="0"
     inkscape:deskcolor="#505050"
     inkscape:zoom="0.53828504"
     inkscape:cx="310.24455"
     inkscape:cy="625.13348"
     inkscape:window-width="2560"
     inkscape:window-height="1417"
     inkscape:window-x="3832"
     inkscape:window-y="313"
     inkscape:window-maximized="1"
     inkscape:current-layer="svg3" />
  <path
     fill="#002b7f"
     d="M 0,0 H 1000 V 600 H 0 Z"
     style="fill:#012169;fill-opacity:1;stroke-width:1.82574"
     id="path1" />
  <path
     fill="#ffc61e"
     d="m 0,275 h 1000 v 50 H 0 Z"
     style="fill:#ffc72c;fill-opacity:1;stroke-width:1.82574"
     id="path2" />
  <path
     fill="#ffffff"
     d="M 266,545 251.766,488.1256 211,530.2622 227.1084,473.8916 170.74,490 212.8766,449.234 156,435 212.8744,420.766 170.7378,380 227.1084,396.1084 211,339.74 251.766,381.8766 266,325 280.234,381.8744 321,339.7378 304.8916,396.1084 361.26,380 319.1234,420.766 376,435 319.1256,449.234 361.2622,490 304.8916,473.8916 321,530.26 280.234,488.1234 Z"
     id="path3"
     style="stroke-width:2.2" />
</svg>
