<?xml version="1.0" encoding="UTF-8" standalone="no"?>
<svg
   height="600"
   width="1000"
   version="1.1"
   id="svg18"
   sodipodi:docname="nz.svg"
   inkscape:version="1.3.2 (091e20e, 2023-11-25, custom)"
   xmlns:inkscape="http://www.inkscape.org/namespaces/inkscape"
   xmlns:sodipodi="http://sodipodi.sourceforge.net/DTD/sodipodi-0.dtd"
   xmlns:xlink="http://www.w3.org/1999/xlink"
   xmlns="http://www.w3.org/2000/svg"
   xmlns:svg="http://www.w3.org/2000/svg">
  <sodipodi:namedview
     id="namedview18"
     pagecolor="#505050"
     bordercolor="#eeeeee"
     borderopacity="1"
     inkscape:showpageshadow="0"
     inkscape:pageopacity="0"
     inkscape:pagecheckerboard="0"
     inkscape:deskcolor="#505050"
     inkscape:zoom="0.53828504"
     inkscape:cx="893.57862"
     inkscape:cy="560.11217"
     inkscape:window-width="2560"
     inkscape:window-height="1417"
     inkscape:window-x="3832"
     inkscape:window-y="313"
     inkscape:window-maximized="1"
     inkscape:current-layer="svg18" />
  <defs
     id="defs7">
    <clipPath
       id="b">
      <path
         d="M 0,0 H 600 V 300 H 0 Z"
         id="path1" />
    </clipPath>
    <clipPath
       id="c">
      <path
         d="M 0,0 300,150 H 0 Z M 300,0 H 600 L 300,150 Z m 0,150 h 300 v 150 z m 0,0 V 300 H 0 Z"
         id="path2" />
    </clipPath>
    <g
       id="d">
      <g
         id="a">
        <path
           d="M 0,0 V 0.5 L 1,0 Z"
           transform="translate(0,-0.325)"
           id="path3" />
        <path
           d="M 0,0 V -0.5 L 1,0 Z"
           transform="rotate(-36,0.5,-0.162)"
           id="path4" />
      </g>
      <use
         xlink:href="#a"
         transform="scale(-1,1)"
         id="use4" />
      <use
         xlink:href="#a"
         transform="rotate(72)"
         id="use5" />
      <use
         xlink:href="#a"
         transform="rotate(-72)"
         id="use6" />
      <use
         xlink:href="#a"
         transform="matrix(-0.30901699,0.95105652,0.95105652,0.30901699,0,0)"
         id="use7" />
    </g>
  </defs>
  <path
     fill="#012169"
     d="M 0,0 H 1000 V 600 H 0 Z"
     id="path7"
     style="stroke-width:0.912871" />
  <path
     stroke="#ffffff"
     d="M 0,0 600,300 M 0,300 600,0"
     stroke-width="60"
     clip-path="url(#b)"
     id="path8"
     transform="scale(0.83333333,1)" />
  <path
     stroke="#c8102e"
     d="M 0,0 600,300 M 0,300 600,0"
     stroke-width="40"
     clip-path="url(#c)"
     id="path9"
     transform="scale(0.83333333,1)" />
  <path
     stroke="#ffffff"
     d="M 300,0 V 300 M 0,150 h 600"
     stroke-width="100"
     clip-path="url(#b)"
     id="path10"
     transform="scale(0.83333333,1)" />
  <path
     stroke="#c8102e"
     d="M 300,0 V 300 M 0,150 h 600"
     stroke-width="60"
     clip-path="url(#b)"
     id="path11"
     transform="scale(0.83333333,1)" />
  <use
     xlink:href="#d"
     fill="#ffffff"
     transform="matrix(45.4,0,0,45.4,762.40232,120)"
     id="use11" />
  <use
     xlink:href="#d"
     fill="#c8102e"
     transform="matrix(30,0,0,30,762.40232,120)"
     id="use12" />
  <g
     transform="rotate(82,831.20116,160.85599)"
     id="g14">
    <use
       xlink:href="#d"
       fill="#ffffff"
       transform="matrix(5.6225933,-40.00683,40.00683,5.6225933,900.00012,119.99971)"
       id="use13" />
    <use
       xlink:href="#d"
       fill="#c8102e"
       transform="matrix(3.4793275,-24.756702,24.756702,3.4793275,900.00012,119.99971)"
       id="use14" />
  </g>
  <g
     transform="rotate(82,831.20116,160.85599)"
     id="g16">
    <use
       xlink:href="#d"
       fill="#ffffff"
       transform="matrix(6.3184588,-44.95817,44.95817,6.3184588,900.00022,379.99982)"
       id="use15" />
    <use
       xlink:href="#d"
       fill="#c8102e"
       transform="matrix(4.175193,-29.708042,29.708042,4.175193,900.00022,379.99982)"
       id="use16" />
  </g>
  <use
     xlink:href="#d"
     fill="#ffffff"
     transform="matrix(50.4,0,0,50.4,762.40232,480)"
     id="use17" />
  <use
     xlink:href="#d"
     fill="#c8102e"
     transform="matrix(35,0,0,35,762.40232,480)"
     id="use18" />
</svg>
