<?xml version="1.0" encoding="UTF-8" standalone="no"?>
<svg
   viewBox="0 0 1280 768"
   height="600"
   width="1000"
   version="1.1"
   id="svg6"
   sodipodi:docname="pg.svg"
   inkscape:version="1.3.2 (091e20e, 2023-11-25, custom)"
   xmlns:inkscape="http://www.inkscape.org/namespaces/inkscape"
   xmlns:sodipodi="http://sodipodi.sourceforge.net/DTD/sodipodi-0.dtd"
   xmlns:xlink="http://www.w3.org/1999/xlink"
   xmlns="http://www.w3.org/2000/svg"
   xmlns:svg="http://www.w3.org/2000/svg">
  <defs
     id="defs6" />
  <sodipodi:namedview
     id="namedview6"
     pagecolor="#505050"
     bordercolor="#eeeeee"
     borderopacity="1"
     inkscape:showpageshadow="0"
     inkscape:pageopacity="0"
     inkscape:pagecheckerboard="0"
     inkscape:deskcolor="#505050"
     inkscape:zoom="0.67833333"
     inkscape:cx="243.24324"
     inkscape:cy="370.76167"
     inkscape:window-width="2560"
     inkscape:window-height="1417"
     inkscape:window-x="3832"
     inkscape:window-y="313"
     inkscape:window-maximized="1"
     inkscape:current-layer="svg6" />
  <path
     d="M 0,0 H 1280 V 768 H 0 Z"
     id="path1"
     style="stroke-width:1.49071" />
  <path
     fill="#ce1126"
     d="M 0,0 H 1280 V 768 Z"
     id="path2"
     style="stroke-width:1.49071" />
  <path
     fill="#fcd116"
     d="m 859.75574,216.71247 c -8.5095,10.989 -28.6425,-11.055 -52.7625,-11.559 -24.12,-0.5025 -41.2065,23.115 -48.24,31.155 -7.03499,8.0415 -29.64749,50.25 -29.145,54.7725 0.5025,4.5225 14.07,-12.561 19.09501,-15.576 0.50249,6.03 -5.52751,13.065 -4.02001,15.075 1.5075,2.01 17.586,-12.06 23.115,-12.5625 1.5075,4.02 -3.015,8.04 -1.5075,14.07 2.01001,2.01 11.05501,-10.05 17.08501,-12.5625 1.00499,4.5225 -5.52751,13.065 -2.01001,18.5925 2.5125,0.501 17.586,-17.085 22.6125,-19.095 5.02501,-2.0115 -2.514,16.581 0,18.09 4.5225,-3.015 18.59251,-19.0965 23.11501,-21.105 4.5225,-2.01 -0.50101,20.6025 1.5075,20.6025 5.52749,-4.02 19.5975,-23.115 21.105,-26.13 1.5075,-3.015 -1.5075,29.145 14.06999,46.23 15.5775,17.085 39.19651,36.6825 41.70751,36.6825 3.015,-5.5275 -1.0035,-17.085 1.5075,-16.5825 7.03499,7.5375 20.09999,18.5925 23.11499,18.5925 3.015,0 -2.00999,-12.06 2.01,-12.06 8.04001,7.5375 31.155,37.185 76.37996,50.7525 -3.015,-8.5425 -9.54898,-16.08 -10.04998,-20.1 3.01498,0.5025 13.56898,5.529 15.57748,5.025 2.01,-0.504 -22.10998,-30.15 -20.60248,-34.17 5.5275,-0.5025 8.03998,3.015 10.04998,0.501 -2.5125,-4.02 -23.61748,-27.636 -23.61748,-33.165 0,-5.5275 6.534,1.005 8.5425,0 2.01,-1.005 -8.04,-22.11 -6.03,-24.621 2.01,-2.5125 24.11998,13.5675 29.64748,13.5675 5.5275,0 1.5075,-19.5975 4.02,-20.604 2.5125,-1.005 21.1065,10.5525 25.125,10.5525 4.02,0 3.5175,-8.5425 5.025,-7.5375 1.5075,1.005 45.225,44.724 30.15,95.979 -15.075,36.6825 -45.2235,56.28 -89.44498,40.2 2.5125,4.02 26.12998,23.6175 51.75748,16.5825 25.6275,-7.035 56.781,-27.135 53.265,-77.385 -3.5175,-50.25 -20.1015,-57.285 -22.6125,-64.8225 -2.5125,-7.5375 4.0215,2.01 9.5475,4.02 5.5275,2.0115 -1.005,-10.5525 -2.5125,-16.08 -1.5075,-5.529 16.5825,11.5575 21.105,13.065 4.5225,1.5075 -10.5525,-41.205 -15.075,-44.22 -4.5225,-3.015 4.5225,1.005 7.5375,2.01 3.015,1.005 -27.639,-46.7325 -34.17,-46.7325 -6.5325,0 5.526,-2.514 9.045,-2.514 3.5175,0 -35.1735,-31.155 -41.7075,-31.155 -6.5325,0 14.0685,-8.04 16.08,-8.5425 3.5175,0.501 -44.72248,-25.6275 -87.93746,0.501 -2.5125,-2.007 20.3535,-17.8365 21.105,-24.6195 0.252,-1.7595 -7.53599,-5.529 -8.03999,-7.5375 -0.50251,-2.01 12.06,-8.04 12.56247,-12.5625 -3.01498,-4.02 -8.54248,-2.5125 -11.55748,-3.5175 -0.75299,-3.768 10.554,-13.065 9.54751,-17.084995 -0.75301,-2.260508 -9.045,-3.015 -11.05501,-1.506004 -2.01,1.5075 5.27701,-10.5525 4.02,-14.070004 -1.005,-1.5075 -5.02499,-0.502492 -9.045,0.502504 -2.5125,-0.502504 13.06501,-22.11 10.05001,-25.125 -3.015,-3.015 -45.225,22.108504 -60.80251,50.248499 -15.5775,28.14 -3.51599,50.7525 -5.52749,60.3 -2.01001,9.5475 -4.52401,19.095 -11.05501,19.095 -6.5325,0 -21.60599,-10.05 -26.63249,-15.075 -5.02501,-5.025 -6.03,-8.5425 -13.06501,-10.5525 -7.035,-2.01 -23.11499,4.02 -29.14499,4.5225 -6.03,0.5025 -29.64751,-4.5225 -31.15501,-3.015 -1.5075,1.5075 23.115,10.5525 28.6425,13.5675 5.52751,3.015 6.03151,7.035 10.05001,9.5475 4.01999,2.511 41.70749,13.5675 29.64749,29.145 z m 147.23246,70.8525 c 12.06,12.06 93.465,66.33 93.465,132.66 0,66.33 -59.295,64.32 -76.38,62.31 19.095,16.08 91.455,13.065 91.455,-62.31 0,-66.33 -93.465,-132.66 -105.525,-138.69 -12.05998,-6.03 -15.07498,-6.03 -3.015,6.03 z"
     id="path3"
     style="stroke-width:1.5" />
  <g
     transform="matrix(1.152,0,0,1.152,-15.618944,-57.6288)"
     fill="#ffffff"
     id="g6">
    <path
       d="m 250,230 11.756,33.82 35.797,0.73 -28.532,21.63 10.368,34.27 L 250,300 l -29.39,20.45 10.369,-34.27 -28.532,-21.63 35.797,-0.73 z"
       id="a" />
    <use
       x="-110"
       y="150"
       xlink:href="#a"
       id="use3" />
    <use
       y="350"
       xlink:href="#a"
       id="use4" />
    <use
       x="100"
       y="140"
       xlink:href="#a"
       id="use5" />
    <use
       transform="matrix(0.5,0,0,0.5,175,380)"
       xlink:href="#a"
       id="use6" />
  </g>
</svg>
