<?xml version="1.0" encoding="UTF-8" standalone="no"?>
<svg
   width="1000"
   height="600"
   version="1.1"
   id="svg17"
   sodipodi:docname="rt.svg"
   inkscape:version="1.3.2 (091e20e, 2023-11-25, custom)"
   xmlns:inkscape="http://www.inkscape.org/namespaces/inkscape"
   xmlns:sodipodi="http://sodipodi.sourceforge.net/DTD/sodipodi-0.dtd"
   xmlns="http://www.w3.org/2000/svg"
   xmlns:svg="http://www.w3.org/2000/svg">
  <sodipodi:namedview
     id="namedview17"
     pagecolor="#505050"
     bordercolor="#eeeeee"
     borderopacity="1"
     inkscape:showpageshadow="0"
     inkscape:pageopacity="0"
     inkscape:pagecheckerboard="0"
     inkscape:deskcolor="#505050"
     inkscape:zoom="2.035"
     inkscape:cx="500.2457"
     inkscape:cy="300"
     inkscape:window-width="2560"
     inkscape:window-height="1417"
     inkscape:window-x="6392"
     inkscape:window-y="-1"
     inkscape:window-maximized="1"
     inkscape:current-layer="svg17" />
  <defs
     id="defs9">
    <linearGradient
       id="A"
       x1="53.450001"
       y1="13.61"
       x2="4.6999998"
       y2="62.369999"
       gradientUnits="userSpaceOnUse"
       gradientTransform="matrix(0.9000009,0,0,0.9000009,-7.7205593,5.4964505)">
      <stop
         offset=".09"
         stop-color="#6480c0"
         id="stop1" />
      <stop
         offset=".36"
         stop-color="#0057a8"
         id="stop2" />
      <stop
         offset=".96"
         stop-color="#6480c0"
         id="stop3" />
    </linearGradient>
    <linearGradient
       id="B"
       x1="31.48"
       y1="7.7199998"
       x2="-3.3"
       y2="42.5"
       gradientUnits="userSpaceOnUse"
       gradientTransform="matrix(0.9000009,0,0,0.9000009,-7.7205593,5.4964505)">
      <stop
         offset="0"
         stop-color="#6480c0"
         id="stop4" />
      <stop
         offset=".26"
         stop-color="#0057a8"
         id="stop5" />
      <stop
         offset="1"
         stop-color="#6480c0"
         id="stop6" />
    </linearGradient>
    <linearGradient
       id="C"
       x1="66.010002"
       y1="25"
       x2="17.24"
       y2="73.769997"
       gradientUnits="userSpaceOnUse"
       gradientTransform="matrix(0.9000009,0,0,0.9000009,-7.7205593,5.4964505)">
      <stop
         offset=".09"
         stop-color="#ef4135"
         id="stop7" />
      <stop
         offset=".35"
         stop-color="#a0271d"
         id="stop8" />
      <stop
         offset=".67"
         stop-color="#ef4135"
         id="stop9" />
    </linearGradient>
  </defs>
  <path
     d="M 0,0 H 1000 V 600 H 0 Z"
     fill="#ffffff"
     fill-rule="evenodd"
     id="path9"
     style="stroke-width:1.05409" />
  <g
     transform="matrix(4.5483366,0,0,4.5483366,351.1557,50.000708)"
     id="g17">
    <path
       d="m 38.27,14.25 c 0.41,4.81 -2.02,11.53 -10.56,19.48 -8.54,7.95 -20.6,16 -19.06,26.44 1.37,9.31 12.46,14.55 12.46,14.55 l 7.21,-6.1 c 0,0 -9.44,-6.95 -1.82,-15.73 C 39.5,37.88 50.69,33.74 49.39,21.21 48.08,8.67 33.6,3.61 33.6,3.61 c 0,0 4.11,4.32 4.67,10.65 z"
       fill="url(#A)"
       id="path10"
       style="fill:url(#A)" />
    <path
       d="m 20.52,0 c 0,0 4.01,5.15 2.89,12.7 -1.12,7.55 -15.42,13.39 -19.53,21.8 -4.11,8.41 2.15,17.34 2.15,17.34 0,0 -0.77,-4.31 6.73,-11.07 C 23.21,31.33 34.46,23.7 33.87,15.53 33.04,3.94 20.52,0 20.52,0 Z m -2.47,34.82 -5.96,5.2 C 8.01,43.71 6.26,46.76 5.52,48.86 4.05,45.79 2.23,40.2 4.79,34.95 c 1.82,-3.71 5.86,-7 9.75,-10.18 4.73,-3.85 9.21,-7.49 9.87,-11.91 A 19.03,19.03 0 0 0 22.9,2.15 c 3.55,1.84 9.42,5.99 9.96,13.46 0.44,6.13 -6.62,12.19 -14.82,19.22 z"
       fill="url(#B)"
       fill-rule="evenodd"
       id="path11"
       style="fill:url(#B)" />
    <path
       d="m 41.91,74.72 c 0,0 -12.89,-6.01 -12.89,-13.61 0,-8.09 7.02,-11.89 16.26,-21.5 3.85,-3.99 7.78,-8.42 7.98,-15.32 v -0.26 c 0,-4.27 -2.95,-9.52 -2.95,-9.52 0,0 11.21,4.38 12.99,14.16 0.19,1.02 0.28,2.01 0.28,2.98 0,6.41 -4.09,12.09 -13.83,20.28 -4.37,3.68 -5.77,6.89 -5.77,9.49 0,4.63 4.47,7.33 4.47,7.33 l -6.55,5.98 z"
       fill="url(#C)"
       id="path12"
       style="fill:url(#C)" />
    <path
       d="m 20.62,91.04 c 0.29,-0.04 0.6,-0.05 0.9,-0.05 a 8.6,8.6 0 0 1 8.51,7.32 8.76,8.76 0 0 0 1.79,0.38 c -0.47,-5.28 -4.9,-9.42 -10.3,-9.42 -0.29,0 -0.6,0.01 -0.89,0.04 v 0 c 0.02,0.27 0.03,0.55 0.03,0.83 a 9.1,9.1 0 0 1 -0.04,0.91 v 0 z m 9.49,9.09 v 0 c -0.27,4.51 -4.01,8.08 -8.59,8.08 -4.58,0 -8.61,-3.86 -8.61,-8.61 0,-3.82 2.49,-7.06 5.93,-8.18 v 0 c 0.06,-0.42 0.1,-0.85 0.1,-1.29 0,-0.18 0,-0.36 -0.02,-0.53 v 0 c -4.45,1.15 -7.73,5.19 -7.73,10 0,5.71 4.62,10.33 10.33,10.33 5.71,0 9.89,-4.18 10.3,-9.51 v 0 c -0.59,-0.05 -1.16,-0.15 -1.71,-0.29 z"
       fill="#fcb131"
       id="path13" />
    <path
       d="m 11.19,99.6 0.04,-0.91 v 0 a 8.9,8.9 0 0 1 -0.9,0.04 8.61,8.61 0 0 1 -8.61,-8.6 8.62,8.62 0 0 1 8.61,-8.61 8.62,8.62 0 0 1 8.62,8.61 c 0,3.82 -2.49,7.06 -5.93,8.19 q 0,0 0,0 a 9.08,9.08 0 0 0 -0.1,1.28 c 0,0.18 0,0.36 0.02,0.53 v 0 c 4.46,-1.16 7.73,-5.2 7.73,-10 C 20.67,84.42 16.04,79.8 10.33,79.8 4.62,79.8 0,84.42 0,90.13 c 0,5.71 4.62,10.33 10.33,10.33 0.3,0 0.6,-0.01 0.89,-0.04 v 0 c -0.02,-0.27 -0.03,-0.55 -0.03,-0.83 z"
       fill="#0081c8"
       id="path14" />
    <path
       d="m 24.12,89.6 c 0.27,-4.51 4.01,-8.08 8.59,-8.08 4.58,0 8.61,3.85 8.61,8.61 0,3.81 -2.49,7.05 -5.93,8.19 a 9.08,9.08 0 0 0 -0.1,1.28 c 0,0.18 0,0.36 0.02,0.53 4.45,-1.16 7.73,-5.2 7.73,-10 0,-5.71 -4.63,-10.33 -10.34,-10.33 -5.71,0 -9.88,4.19 -10.3,9.51 v 0 a 9.55,9.55 0 0 1 1.71,0.3 v 0 z m 9.46,10 0.04,-0.91 c -0.3,0.03 -0.6,0.04 -0.9,0.04 -4.31,0 -7.89,-3.18 -8.51,-7.31 v 0 C 23.64,91.23 23.04,91.1 22.43,91.04 v 0 a 10.32,10.32 0 0 0 10.29,9.42 c 0.3,0 0.6,-0.01 0.9,-0.04 -0.02,-0.27 -0.03,-0.55 -0.03,-0.83 z"
       fill="#231f20"
       id="path15" />
    <path
       d="m 55.1,79.8 c -5.42,0 -9.87,4.19 -10.29,9.51 v 0 c 0.58,0.05 1.15,0.15 1.71,0.29 v 0 c 0.27,-4.51 4.01,-8.08 8.59,-8.08 4.58,0 8.61,3.85 8.61,8.61 0,4.76 -3.86,8.6 -8.61,8.6 A 8.61,8.61 0 0 1 46.6,91.42 v 0 a 8.05,8.05 0 0 0 -1.78,-0.38 v 0 a 10.32,10.32 0 0 0 10.29,9.42 c 5.71,0 10.34,-4.62 10.34,-10.33 0,-5.71 -4.63,-10.33 -10.34,-10.33 z"
       fill="#ee334e"
       id="path16" />
    <path
       d="m 43.01,91.04 c 0.29,-0.04 0.59,-0.05 0.9,-0.05 4.31,0 7.88,3.17 8.51,7.32 0.57,0.19 1.16,0.31 1.78,0.38 A 10.33,10.33 0 0 0 43.91,89.27 c -0.3,0 -0.6,0.01 -0.89,0.04 0.02,0.27 0.03,0.55 0.03,0.83 a 9.1,9.1 0 0 1 -0.04,0.91 v 0 z m 9.49,9.09 v 0 c -0.28,4.51 -4.02,8.08 -8.59,8.08 -4.57,0 -8.61,-3.86 -8.61,-8.61 0,-3.82 2.48,-7.06 5.93,-8.18 0.06,-0.42 0.1,-0.85 0.1,-1.29 0,-0.18 0,-0.36 -0.02,-0.53 v 0 c -4.45,1.15 -7.73,5.19 -7.73,10 0,5.71 4.62,10.33 10.33,10.33 5.71,0 9.87,-4.18 10.3,-9.51 v 0 c -0.59,-0.05 -1.16,-0.15 -1.71,-0.29 z"
       fill="#00a651"
       id="path17" />
  </g>
</svg>
