<?xml version="1.0" encoding="UTF-8" standalone="no"?>
<svg
   width="1000"
   height="600"
   viewBox="0 0 1733.3333 1040"
   version="1.1"
   id="svg4"
   sodipodi:docname="rw.svg"
   inkscape:version="1.3.2 (091e20e, 2023-11-25, custom)"
   xmlns:inkscape="http://www.inkscape.org/namespaces/inkscape"
   xmlns:sodipodi="http://sodipodi.sourceforge.net/DTD/sodipodi-0.dtd"
   xmlns="http://www.w3.org/2000/svg"
   xmlns:svg="http://www.w3.org/2000/svg">
  <defs
     id="defs4" />
  <sodipodi:namedview
     id="namedview4"
     pagecolor="#505050"
     bordercolor="#eeeeee"
     borderopacity="1"
     inkscape:showpageshadow="0"
     inkscape:pageopacity="0"
     inkscape:pagecheckerboard="0"
     inkscape:deskcolor="#505050"
     inkscape:zoom="0.5075"
     inkscape:cx="244.33498"
     inkscape:cy="633.49754"
     inkscape:window-width="2560"
     inkscape:window-height="1417"
     inkscape:window-x="3832"
     inkscape:window-y="313"
     inkscape:window-maximized="1"
     inkscape:current-layer="svg4" />
  <path
     fill="#fad201"
     d="M 0,0 H 1733.3333 V 1040 H 0 Z"
     id="path1"
     style="stroke-width:1.05409" />
  <path
     fill="#00a3e0"
     d="M 0,0 H 1733.3333 V 520 H 0 Z"
     id="path2"
     style="stroke-width:1.05409" />
  <path
     fill="#20603d"
     d="m 0,780 h 1733.3333 v 260 H 0 Z"
     id="path3"
     style="stroke-width:1.05409" />
  <g
     transform="matrix(1.11111,0,0,1.11111,1422.2159,272)"
     id="g4">
    <path
       fill="#e5be01"
       d="M 0,-168 6.79,-51.56 43.48,-162.28 19.9,-48.04 84,-145.49 31.66,-41.25 118.79,-118.79 41.25,-31.66 145.49,-84 48.04,-19.9 162.28,-43.48 51.56,-6.79 168,0 51.56,6.79 162.28,43.48 48.04,19.9 145.49,84 41.25,31.66 118.79,118.79 31.66,41.25 84,145.49 19.9,48.04 43.48,162.28 6.79,51.56 0,168 -6.79,51.56 -43.48,162.28 -19.9,48.04 -84,145.49 -31.66,41.25 -118.79,118.79 -41.25,31.66 -145.49,84 -48.04,19.9 -162.28,43.48 -51.56,6.79 -168,0 -51.56,-6.79 -162.28,-43.48 -48.04,-19.9 -145.49,-84 l 104.24,52.34 -77.54,-87.13 87.13,77.54 -52.34,-104.24 64.1,97.45 -23.58,-114.24 36.69,110.72 z"
       id="path4" />
    <circle
       fill="none"
       stroke="#00a3e0"
       r="49"
       stroke-width="6"
       id="circle4"
       cx="0"
       cy="0" />
  </g>
</svg>
