<?xml version="1.0" encoding="UTF-8" standalone="no"?>
<svg
   width="1000"
   height="600"
   version="1.1"
   id="svg9"
   sodipodi:docname="sa.svg"
   inkscape:version="1.3.2 (091e20e, 2023-11-25, custom)"
   xmlns:inkscape="http://www.inkscape.org/namespaces/inkscape"
   xmlns:sodipodi="http://sodipodi.sourceforge.net/DTD/sodipodi-0.dtd"
   xmlns="http://www.w3.org/2000/svg"
   xmlns:svg="http://www.w3.org/2000/svg">
  <defs
     id="defs9" />
  <sodipodi:namedview
     id="namedview9"
     pagecolor="#505050"
     bordercolor="#eeeeee"
     borderopacity="1"
     inkscape:showpageshadow="0"
     inkscape:pageopacity="0"
     inkscape:pagecheckerboard="0"
     inkscape:deskcolor="#505050"
     inkscape:zoom="0.71771338"
     inkscape:cx="732.88309"
     inkscape:cy="558.0222"
     inkscape:window-width="2560"
     inkscape:window-height="1417"
     inkscape:window-x="3832"
     inkscape:window-y="313"
     inkscape:window-maximized="1"
     inkscape:current-layer="svg9" />
  <path
     d="M 0,600 H 1000 V 0 H 0 Z"
     fill="#005430"
     id="path1"
     style="stroke-width:1.05409" />
  <path
     d="m 749.99944,231.70004 c -0.07,-11.7111 -4.61333,-43.25662 -5.76667,-53.83884 -1.15111,-10.58332 -2.3111,-20.18331 -2.0311,-22.4322 0.27444,-2.16888 3.61333,3.01667 5.37777,3.43556 0.91333,-0.18223 0.50555,-3.45778 -1.15333,-6.25555 -1.12223,-1.89889 -4.95111,-8.99999 -7.27333,-13.16221 -1.09222,-1.97 -1.33667,-3.11111 -1.86222,-3.35444 -0.52333,-0.24111 -4.75111,8.28665 -4.28889,9.23332 1.15334,1.73333 1.94445,2.56 2.12445,5.62111 0.18222,3.0611 1.76555,24.91886 3.78333,41.48662 1.51888,12.49888 4.8511,39.42663 4.96999,56.16883 0.0333,5.46111 -0.57222,10.66666 -1.3,12.84221 -1.86555,3.41556 -4.7811,6.49666 -15.63998,12.84999 -12.20666,7.14444 -28.49219,13.08999 -35.49219,17.06887 -4.35222,2.48222 -2.91,2.81333 0.88,1.72778 3.77889,-1.08667 23.32442,-4.56666 32.81997,-8.57888 8.91332,-3.77666 14.69998,-10.09333 19.09109,-19.30887 5.42333,-11.39332 5.83666,-21.06109 5.76111,-33.5033 m -37.79219,-88.9588 c 0.94444,-0.36556 8.75555,-0.76778 10.85999,-0.33445 -1.38222,1.97556 -10.74999,6.34778 -10.78888,7.15 0.25556,0.54 6.47,-1 8.42999,-1.85556 1.28111,-0.77 2.13667,-1.96333 3.08556,-2.95333 2.23999,-2.57777 4.89666,-7.35777 4.22777,-7.95777 -1.08667,-0.96777 -11.73554,-0.36555 -13.13888,-0.16666 -0.93999,0.13555 -3.32666,4.41333 -3.76444,5.5111 -0.42888,1.09667 0.14556,0.97222 1.08889,0.60667"
     fill="#ffffff"
     id="path2"
     style="stroke-width:1.11111" />
  <path
     d="m 728.16612,212.1545 a 32.8633,32.8633 0 0 0 -0.18555,-19.24998 c -2.27667,-7.2511 -7.9311,-11.6711 -12.00888,-13.93665 l -0.72778,6.9811 c 0,0 5.71889,2.84222 9.62888,9.99777 2.47778,4.53889 3.50889,10.95666 1.55222,18.11109 -0.32555,1.77667 0.94445,0.79778 1.74111,-1.90444 m -60.49994,35.00886 a 29.622193,29.622193 0 0 0 -0.16444,-17.33332 c -2.05111,-6.52999 -7.14333,-10.5111 -10.81666,-12.54443 l -0.65666,6.28444 c 0,0 5.14888,2.55999 8.66999,8.99776 2.23333,4.08333 3.16,9.87111 1.40333,16.3111 -0.29222,1.59333 0.84889,0.71555 1.56444,-1.71555 M 457.62417,152.1079 c 2.35556,4.30777 3.33333,10.40887 1.48,17.20331 -0.31111,1.68556 0.88889,0.76 1.65222,-1.80555 a 31.269969,31.269969 0 0 0 -0.18222,-18.28776 c -2.16444,-6.88999 -7.53555,-11.08555 -11.4111,-13.23332 l -0.68333,6.62999 c 0,0 5.43221,2.69778 9.14443,9.49333 m -141.79097,2.22888 c 1.97778,4.63778 2.11111,10.89888 -1.08333,17.49443 -0.62111,1.65666 0.89111,0.87222 2.16111,-1.60667 2.59222,-5.06777 4.04777,-11.4111 2.73333,-18.41664 -1.34889,-7.20333 -6.75999,-12.11332 -10.8111,-14.77221 l -1.83778,6.5811 c 0,0 5.71778,3.41111 8.83777,10.71999"
     fill="#ffffff"
     id="path3"
     style="stroke-width:1.11111" />
  <path
     d="m 355.02872,257.98779 c 2.51444,-4.66666 3.56111,-7.80555 4.67777,-13.33332 0.97778,-4.86111 1.04111,-10.47777 0.68889,-16.19554 7.52222,-3.06666 16.48887,-8.15666 19.50109,-8.5311 -2.06,7.07444 2.85778,14.70776 12.79221,13.7111 0.76,7.99999 1.41111,15.02665 1.80778,19.19331 0.80889,8.54332 0.68777,19.30887 0.66333,21.17998 -0.0333,1.87889 1.32667,1.52444 2.72333,-2.66222 1.86222,-5.60555 2.43778,-20.2422 1.76222,-29.92219 -0.16111,-2.42 -0.43555,-5.68666 -0.76666,-9.40888 6.43999,-2.98 7.5111,-8.73111 9.91776,-11.18221 2.17333,7.6111 14.13332,8.64443 17.82554,7.01443 4.57777,-2.02222 6.07777,-5.6611 7.25555,-14.10554 1.18111,-8.4411 -2.25778,-11.83999 -3.48777,-12.75999 -0.12223,1.02223 -3.11667,10.94222 -3.11667,10.94222 0,0 2.84,2.99999 2.98333,4.47444 -2.31333,2.09333 -7.19221,2.22222 -11.28888,0.88888 -4.09999,-1.33333 -5.35555,-3.78666 -5.11221,-5.43332 0.23666,-1.65111 1.78,-3.15445 1.83222,-5.16667 0.0444,-2.0111 -0.91889,-1.42888 -2.56,0.35223 -1.64,1.78444 -2.7,3.38888 -4.96999,7.21777 -1.85556,3.13111 -4.86889,6.95221 -10.18333,8.04443 -0.87666,-9.19554 -1.87777,-18.97887 -2.54666,-25.12442 -0.35,-3.24444 -3.84666,-31.28108 -4.09666,-34.41774 -0.21667,-2.73333 -0.62111,-5.95444 -0.55445,-7.46777 0.0667,-1.20444 0.82222,-0.72667 1.99111,0.53333 1.17111,1.25889 3.22,3.45333 3.57222,3.28222 1.19333,-0.58555 -0.0267,-4.22999 -1.58889,-7.49332 -1.55777,-3.27222 -6.87777,-16.18221 -7.99443,-16.71443 -0.57556,-0.27 -4.16667,7.67666 -4.37889,9.2411 0.55556,0.97778 2.01111,2.51778 2.06333,6.89666 0.0178,1.22111 0.80333,12.73443 1.89222,23.6222 0.95334,9.61332 2.21556,18.73665 2.33778,19.79665 0.86666,7.33888 1.92,17.6822 2.92222,27.85108 -5.76777,-1.09778 -7.30222,-4.90111 -7.17444,-7.0711 0.14667,-2.44778 1.25111,-5.21111 0.72222,-5.83555 -1.11111,-0.66667 -7.72221,3.02777 -16.93998,6.99777 a 174.22094,174.22094 0 0 1 -8.59777,3.44444 c -0.80333,-6.93111 -1.86222,-13.5211 -2.28889,-18.55998 l -0.0511,-0.56 c 6.06222,-0.39111 11.02555,-3.45222 13.28443,-6.36666 2.82111,-3.64444 4.79333,-11.14444 4.98444,-16.88888 0.19222,-5.75221 -4.44888,-16.26665 -5.55333,-19.60998 -1.11444,-3.34444 -1.68888,-5.66444 -1.78666,-6.81999 -0.1,-1.15667 2.50778,1.33889 4.14777,1.82889 1.11111,0.22222 0.72778,-2.18444 -0.63,-3.83555 -1.34777,-1.64667 -8.63999,-12.71221 -9.1511,-11.93666 -0.31333,0.45556 -3.23555,8.59666 -3.42666,9.84332 1.15,0.76 2.49555,2.85333 2.58889,4.85889 0.0978,2.00666 1.70444,10.82777 3.48555,15.72998 1.78666,4.90111 5.58999,14.30443 5.8311,16.8911 -2.71777,1.91555 -8.90554,5.15999 -15.02554,4.96666 -1.04666,-8.57777 -2.37444,-18.53776 -3.08333,-25.5922 -0.27333,-2.72666 -0.29222,-5.63555 -0.24889,-7.15555 0.0333,-1.20444 0.9,-1.03777 2.09333,0.2 1.2,1.23778 3.03778,3.03889 3.41445,2.90889 0.82222,-0.27222 0.11,-3.00444 -1.51778,-6.24888 -1.62778,-3.24444 -8.09999,-16.96665 -9.23333,-17.47887 -0.57555,-0.26223 -3.47332,7.44443 -3.65555,9.01776 0.57778,0.97334 2.06,2.47889 2.20556,6.85666 0.11666,3.48667 1.81444,20.57221 3.26888,35.61997 -6.05555,-3.13111 -8.12221,-7.60777 -8.8711,-15.12332 -0.52333,-5.23999 -0.57556,-14.8911 -2.44444,-22.96442 -1.05222,-4.56333 -3.27111,-9.19999 -5.9,-11.66221 -0.62777,1.51666 -3.42777,10.82665 -3.42777,10.82665 0.91333,2.67333 3.75222,11.67444 3.65555,19.47443 -0.0944,7.79999 -0.70889,15.42554 -9.44999,20.67776 -8.73444,5.25666 -21.83664,3.16666 -25.0722,-5.03333 -3.23444,-8.20444 3.95667,-28.77664 3.86222,-33.6333 -0.0967,-4.85555 -0.96444,-5.52555 -2.99444,-4.72333 -2.02666,0.80111 -6.17555,5.48333 -9.74777,13.09999 -3.57333,7.62221 -5.16221,17.06331 -7.19221,23.48108 -2.02333,6.41889 -5.26444,12.92221 -10.27999,12.5611 -5.01555,-0.35444 -7.71555,-4.94444 -9.25888,-11.5811 -1.54556,-6.64443 -0.6,-15.3922 -0.17889,-17.63331 1.04666,-5.61777 -1.37778,-4.46667 -2.86444,4.35222 -0.91889,5.43888 -1.83222,14.12443 1.40333,23.21664 3.22889,9.0911 8.73444,12.4811 13.55888,11.31999 4.82666,-1.15667 9.06887,-12.47777 10.56665,-17.5611 1.49444,-5.07666 8.17999,-27.62219 11.96666,-28.73219 0.52888,2.54111 -2.94333,10.73221 -4.05444,20.31331 -1.10778,9.5811 1.47666,22.45109 13.63776,24.67776 12.1611,2.22777 20.4122,-5.66 23.40442,-11.13555 2.99444,-5.48333 4.39111,-11.23332 4.72888,-14.12776 0.38889,7.34999 5.40555,18.82665 15.14777,22.09998 l 1.00333,0.28888 c 0.6,6.01667 1.57778,13.86999 2.47444,22.11665 a 92.067686,92.067686 0 0 1 -5.71555,1.57 c -0.24333,-0.79 -0.51111,-1.56445 -0.83666,-2.27556 -2.97333,-6.39666 -7.89444,-12.29109 -14.71443,-11.88332 -6.96666,0.41334 -14.56332,9.7111 -14.2311,16.49999 0.21889,4.56666 2.73333,8.31554 11.87554,9.27443 4.17555,0.44222 8.60888,-0.0222 13.18888,-1.02222 0.64555,1.88889 1.05333,3.76666 1.1,5.47666 -2.89778,3.38778 -26.87109,21.46887 -44.82107,23.20776 -17.94998,1.73666 -23.42442,-7.67333 -23.60442,-17.11888 -0.13333,-7.18666 4.18777,-14.35887 7.22444,-19.3222 4.34666,-3.18 7.91332,-7.15555 10.16554,-10.22221 0.61111,0.37778 1.19334,0.72555 1.74667,1.04889 2.14555,1.24666 3.00111,3.10999 3.00111,3.10999 0.39555,-0.60777 2.23999,-3.92888 1.51888,-5.55221 -0.33222,-0.4 -1.95444,-1.39778 -3.90444,-2.58333 2.04778,-5.10333 2.02,-10.19999 -0.63333,-11.33333 -2.96666,-1.26333 -6.84222,2.24778 -8.51221,4.38889 a 5.6888832,5.6888832 0 0 0 -1.20556,3.43888 c -0.0122,1.36445 0.63,2.59667 2.21889,3.69445 1.58222,1.08111 3.05222,2.05999 4.43333,2.94333 -3.92222,4.11888 -13.19221,10.15554 -18.86554,13.69998 -0.21,-0.52 -1.04111,0.0289 -2.15777,1.34445 l -1.53667,0.94888 c -4.52555,2.76889 -15.37776,8.84999 -17.51109,10.33777 -2.13778,1.49222 -0.79778,1.22222 0,0.88889 1.50555,-0.81222 3.48333,-1.79778 5.70555,-2.88333 3.14666,-1.53889 6.80777,-3.28111 10.38665,-5.02889 a 52.93328,52.93328 0 0 0 -3.12555,6.18555 c -4.27,10.0811 -11.17221,30.97664 3.75889,43.54885 14.28554,12.03443 38.83996,7.45555 59.20327,-5.05111 20.36665,-12.50998 24.76442,-16.90776 27.94775,-21.45553 m -66.39438,-49.70217 c -0.70666,-0.52111 -0.80444,-1.21556 -0.22889,-1.7 0.73334,-0.62445 1.67111,-1.21556 2.73667,-1.41444 2.25777,-0.42 3.15888,2.17444 2.25222,6.21554 -1.71667,-1.04999 -3.48222,-2.15333 -4.76,-3.1011 m 46.70995,17.04331 c -10.36887,0.0478 -10.84665,-1.83444 -10.65221,-3.03888 0.19223,-1.19889 3.42111,-4.48889 7.51777,-2.31889 1.73111,0.92 3.68222,2.84444 5.48666,5.26222 -0.79666,0.0589 -1.58222,0.0889 -2.35222,0.0956 m -31.75774,54.52773 c -19.59109,5.34666 -38.69996,-2.93667 -39.85663,-19.33887 -0.88555,-12.52444 3.68222,-21.96109 6.62777,-27.27998 2.81,-1.38888 5.46333,-2.73999 7.65777,-3.94999 -5.12777,8.25888 -8.12888,19.31887 -6.12332,28.68886 2.26999,10.61443 11.50443,17.04887 27.13775,14.97221 15.47887,-2.05111 36.40885,-16.77221 42.34329,-22.32443 1.80777,-2.00333 2.99999,-3.80999 4.62555,-7.48999 0.67,-1.51111 1.61111,-3.50555 1.96,-5.75999 0.22889,-1.46889 0.35,-3.03889 0.37777,-4.63667 a 113.75322,113.75322 0 0 0 5.48111,-1.80444 c 0.62444,6.71999 1.08333,13.34443 1.11111,19.0722 -9.64444,11.3111 -31.75219,24.5022 -51.34217,29.85109 m 342.66299,-43.00996 c -0.66333,-10.97332 -2.26444,-30.83664 -3.15889,-40.91218 -0.79111,-8.96777 -2.34666,-21.25887 -3.48444,-32.07775 a 57.915498,57.915498 0 0 1 -0.28666,-6.84888 c 0.0333,-1.19778 1.23333,-0.73667 2.43222,0.49555 1.19888,1.23223 3.07333,2.78 3.42666,2.59111 1.17111,-0.60777 -0.23111,-3.61222 -1.87778,-6.84555 -1.64666,-3.23888 -8.17443,-16.63553 -9.30999,-17.14442 -0.57777,-0.25889 -3.63666,7.76666 -3.81333,9.33888 0.58445,0.96777 2.07778,2.46777 2.24,6.84555 0.16445,4.3811 2.37778,24.52219 3.97444,40.81107 1.10778,11.32332 2.53889,29.79886 3.57889,43.72995 -0.0511,0.0222 0.98333,13.24443 1.09555,14.72999 0.64,8.55443 0.30778,19.31664 0.24445,21.18553 -0.0711,1.87667 1.30222,1.55 2.77555,-2.61444 1.5,-4.25222 2.35555,-13.74443 2.47111,-22.31664 z m -55.62439,-38.41663 c -2.00889,0.61333 -5.16222,-1.51111 -4.92222,-5.96555 0.22,-4.02333 1.94222,-7.7911 2.60556,-10.16888 0.91333,-3.28111 0.91888,-6.44444 0.14666,-4.6511 -1.74111,4.00666 -4.98221,11.75332 -5.65221,17.00998 -0.67223,5.25555 1.03222,8.64443 3.34777,9.79999 2.88555,1.44889 4.96333,-0.85 6.36999,-4.23777 1.35111,-3.24445 1.09556,-7.03111 0.15778,-6.14 -0.78444,0.93222 -1.07777,4.05222 -2.05333,4.35333 m -28.87553,16.1911 c 1.06556,-2.83 1.31445,-5.60444 0.49556,-4.08222 -1.84667,3.41111 -5.30666,9.99999 -6.32111,14.57776 -1.00999,4.57777 0.21667,7.67666 2.16445,8.84999 2.42888,1.46889 4.42777,-0.41333 5.9411,-3.29777 1.44444,-2.76 1.51778,-6.11111 0.63,-5.38555 -0.76666,0.76555 -1.27555,3.48555 -2.15222,3.68555 -1.82222,0.40222 -4.42222,-1.68 -3.85888,-5.58555 0.51111,-3.51666 2.32777,-6.71555 3.1011,-8.76221 m -84.08325,59.7166 c 1.78,-2.88888 2.66667,-5.88555 1.43,-4.37222 -2.75666,3.38222 -7.97666,9.94666 -10.08221,14.7611 -2.1,4.81444 -1.43111,8.42999 0.44111,10.07666 2.33333,2.05333 4.93666,0.36555 7.20999,-2.50222 2.18222,-2.74889 2.99778,-6.39555 1.85556,-5.77333 -1,0.7 -2.14444,3.57889 -3.15222,3.63333 -2.07222,0.1 -4.46444,-2.66 -2.99778,-6.81888 1.32667,-3.75333 4.00778,-6.91111 5.29555,-9.00333 M 625.0829,190.00457 c -2.04222,0.51112 -5.0611,-1.77555 -4.55555,-6.21332 0.45889,-4.00444 2.41,-7.67555 3.21111,-10.0111 1.11333,-3.23333 1.30444,-6.38777 0.42556,-4.64333 -1.97222,3.91666 -5.67333,11.47999 -6.66222,16.69665 -0.98889,5.21444 0.50556,8.68332 2.75111,9.95888 2.8,1.58666 5.00333,-0.59667 6.61666,-3.91111 1.54333,-3.16889 1.51889,-6.96222 0.52333,-6.11777 -0.83666,0.89444 -1.31444,3.99333 -2.31,4.2411 m -0.62444,54.43662 c 2.79333,1.58777 5.00888,-0.59667 6.61555,-3.91111 1.54,-3.16777 1.51889,-6.9611 0.53,-6.11666 -0.84333,0.88889 -1.32111,3.99222 -2.31667,4.23999 -2.04222,0.50889 -5.06666,-1.77555 -4.55555,-6.21221 0.46,-4.00444 2.40778,-7.67888 3.21111,-10.0111 1.11111,-3.23333 1.30222,-6.39333 0.42556,-4.64444 -1.97778,3.91777 -5.67222,11.4811 -6.66222,16.6922 -0.98889,5.22 0.50556,8.68888 2.75222,9.96333 m 35.70774,-69.5366 c 1.34445,-3.91111 1.57667,-7.72999 0.51111,-5.61666 -2.39222,4.73777 -6.86666,13.88887 -8.06443,20.20553 -1.19334,6.31111 0.61777,10.50666 3.33555,12.0511 3.38111,1.91889 6.05555,-0.72222 8.00666,-4.72999 1.86,-3.83444 1.83333,-8.42999 0.63333,-7.40222 -1.01333,1.07778 -1.59444,4.82555 -2.8,5.12666 -2.46555,0.61889 -6.12666,-2.14777 -5.50888,-7.51554 0.55667,-4.84555 2.91555,-9.28888 3.88666,-12.11888"
     fill="#ffffff"
     id="path4"
     style="stroke-width:1.11111" />
  <path
     d="m 374.79981,242.55447 c 2.2,-4.76666 2.99778,-9.53888 1.37778,-6.99888 -3.62333,5.68666 -10.44999,16.69776 -12.7811,24.49775 -2.33444,7.80222 -0.60556,13.28332 2.60444,15.5311 4.00555,2.79222 7.71555,-0.23556 10.68888,-5.05 2.84555,-4.61777 3.41111,-10.39999 1.77111,-9.24443 -1.41556,1.23889 -2.63889,5.89333 -4.19111,6.13777 -3.18888,0.5 -7.42555,-3.38777 -5.94666,-10.06999 1.33889,-6.02999 4.88888,-11.35443 6.47666,-14.80332 m 308.11636,47.25773 c 1.68555,-1.38111 16.34887,-9.27999 19.04887,-10.88332 0,0 2.76,-4.50222 1.93333,-4.98111 -0.83222,-0.47777 -6.18555,4.38889 -9.51443,4.52444 -3.33333,0.13556 -7.89444,-2.31222 -8.04111,-4.31888 0.43334,-1.51333 4.44111,-3.78777 5.88889,-3.88 1.44888,-0.0844 1.21444,3.21333 1.69888,3.61556 0.48334,0.39666 2.41111,-2.27667 2.65333,-3.39 0.23778,-1.11111 0.04,-5.76666 -2.6111,-5.1 -4.19667,1.06222 -10.52666,8.84444 -11.24888,11.29221 -0.72667,2.45445 3.18444,4.58889 6.03888,5.75222 -0.24444,0.0889 -2.37444,1.11333 -3.72222,2.44778 0,0 -1.44889,1.62333 -2.12444,4.9211 m -49.99995,9.78333 c 1.68555,-1.38111 16.34887,-9.27444 19.04887,-10.88333 0,0 2.76666,-4.50221 1.93333,-4.9811 -0.83222,-0.47778 -6.18555,4.38888 -9.51443,4.52444 -3.33333,0.13555 -7.89444,-2.31222 -8.04111,-4.31889 0.43334,-1.51333 4.44111,-3.78777 5.88889,-3.87444 1.44888,-0.09 1.21444,3.20444 1.69888,3.60444 0.48334,0.40223 2.41111,-2.27111 2.65333,-3.38444 0.23778,-1.11111 0.0333,-5.76666 -2.6111,-5.09999 -4.19667,1.06666 -10.52666,8.84443 -11.24888,11.29776 -0.72667,2.44889 3.18444,4.58444 6.03332,5.74666 -0.23777,0.0889 -2.36888,1.11111 -3.71666,2.44778 0,0 -1.44889,1.62333 -2.12444,4.92111 M 520.29189,158.029 c 1.31444,1.52778 9.92665,12.4711 16.67443,19.34998 6.74443,6.88555 18.30553,18.02887 26.79997,25.66553 a 327.70189,327.70189 0 0 1 5.16222,4.75222 c 2.14222,16.44887 4.61999,37.38107 5.65999,46.03662 1.02555,8.52221 1.17778,19.28554 1.2,21.15887 0.0178,1.87777 1.36889,1.49444 2.65333,-2.71778 1.72222,-5.65333 1.92,-20.28998 1.00778,-29.95886 -0.56667,-5.96999 -1.90222,-17.15553 -3.19556,-27.46775 5.01555,4.95555 9.75333,9.8711 12.94666,13.5511 5.86999,6.75555 10.80999,11.85221 13.81998,19.11443 2.13,5.13777 1.91445,9.22665 2.78778,10.03332 0.75555,0.69778 1.58889,-5.45 0.65666,-11.41221 -1.50888,-9.68221 -3.57777,-13.78777 -16.00776,-27.61108 -4.74221,-5.28556 -10.32332,-10.80888 -15.77998,-15.97221 -0.21111,-1.59222 -0.40222,-3.06666 -0.57556,-4.37555 -0.43222,-3.23333 -4.64444,-31.18442 -4.97555,-34.31663 -0.28333,-2.72667 -0.78,-5.93667 -0.74,-7.45333 0.03,-1.20778 0.79778,-0.73778 2.00222,0.49555 1.2,1.22889 3.3,3.38111 3.65556,3.19333 1.17444,-0.60777 -0.13334,-4.21777 -1.78,-7.45665 -1.64111,-3.23333 -7.29222,-16.02443 -8.42777,-16.5311 -0.57556,-0.25889 -3.96222,7.76333 -4.13555,9.33332 0.58666,0.96778 2.07777,2.47667 2.23999,6.84889 0.0444,1.22111 1.12889,12.71776 2.48889,23.57331 1.20556,9.59221 2.69667,18.68887 2.85222,19.7422 l 0.006,0.0811 c -5.62666,-5.13222 -10.58444,-9.4911 -13.5911,-12.22888 -7.03111,-6.38888 -22.55776,-21.55331 -23.1822,-23.82442 -0.14,-0.71666 1.06555,-0.27555 3.28111,0.0789 2.22444,0.35778 4.20222,1.11444 3.84666,0.0222 -0.16111,-0.51444 -1.01333,-1.78555 -3.13444,-3.09777 -2.12444,-1.31333 -7.56666,-4.71777 -11.61443,-7.12666 -4.05556,-2.40555 -6.06555,-4.42333 -6.90222,-3.84666 -0.41333,0.28444 -0.0444,8.52554 0.19778,9.55332 1.01333,0.0867 2.79444,1.28 4.10222,2.81333"
     fill="#ffffff"
     id="path5"
     style="stroke-width:1.11111" />
  <path
     d="m 531.3741,143.2079 c 1.66555,-0.36555 9.55332,-0.16666 12.41776,0.43667 -1.19999,0.83333 -9.26999,4.91 -10.86554,5.88111 -1.58555,0.97333 -1.98667,1.53555 -1.18889,1.43999 2.31222,-0.64111 7.52555,-1.43999 10.02444,-2.74333 2.35555,-1.10333 6.36999,-6.48332 7.9311,-8.48888 1.55222,-2.00666 1.55222,-3.00777 1.15555,-3.54555 -1.59333,-0.86666 -11.87443,-1.73666 -16.8322,-0.50666 -1.37222,0.93111 -4.05666,5.89221 -4.45222,6.92443 -0.39555,1.03889 0.14556,0.96778 1.81111,0.60222 m 43.8744,-0.64555 c 1.34444,-0.29556 7.70333,-0.13556 10.00666,0.34889 -0.96445,0.67222 -7.46555,3.95888 -8.74999,4.74666 -1.28667,0.78 -1.60667,1.23555 -0.96445,1.15667 1.86556,-0.51111 6.06889,-1.15556 8.07999,-2.21111 1.89667,-0.88889 5.13111,-5.22555 6.38889,-6.83777 1.25,-1.62111 1.25,-2.42556 0.93111,-2.85556 -1.27778,-0.70666 -9.56666,-1.40444 -13.56221,-0.41111 -1.10778,0.74778 -3.26555,4.74666 -3.58444,5.57889 -0.32556,0.83333 0.11555,0.78 1.45444,0.48444 m 35.66663,-0.45778 c 1.33889,-0.29555 7.69666,-0.13555 9.99999,0.34889 -0.95778,0.67222 -7.46221,3.95889 -8.74888,4.74111 -1.28111,0.78444 -1.60111,1.24 -0.95889,1.16222 1.86556,-0.51222 6.39444,-1.16222 8.40555,-2.21222 1.9,-0.88889 4.14889,-5.22555 5.40555,-6.84333 1.25667,-1.61444 1.25667,-2.42555 0.93111,-2.85 -1.27778,-0.70666 -8.91443,-1.40444 -12.90443,-0.41666 -1.10778,0.75444 -3.27111,4.75222 -3.59111,5.58555 -0.32,0.83333 0.11556,0.77889 1.46111,0.48333 m -22.24998,17.3711 c -2.11111,3.32666 0.53556,6.0111 1.5,8.69776 -1.30222,1.19 -3.30444,0.10445 -3.97444,-0.93999 -1.42444,-2.14111 -0.94666,-6.50555 -2.62333,-7.17778 -0.42889,1.17889 -0.70889,2.48778 -0.70889,2.48778 0,0 1.27556,2.98444 0.95556,4.95999 -0.20445,1.19334 -1.25667,2.58667 -2.64778,2.61445 -3.70666,0.0889 -1.88111,-5.39666 -3.31111,-8.50666 -0.29222,0.76 -0.50222,1.57666 -0.84333,2.28889 0.26222,0.80999 0.40445,1.94666 0.44778,2.60221 0.0844,1.30223 -0.0189,2.70667 0.20333,3.81778 0.30778,1.57333 1.18111,2.61666 2.51444,2.71777 2.76889,0.22 4.03222,-2.02222 4.44889,-3.86333 0.47778,1.87778 4.13888,3.94444 5.9411,1.64111 2.38556,-3.03888 0.47778,-5.64221 -0.74555,-8.49999 -0.88222,-2.11333 -0.62667,-3.49999 -1.15667,-2.83999 m -104.04211,-8.82111 c 0.19222,1.36778 0.89555,2.30222 2.04222,2.44333 2.36777,0.3 3.56666,-1.58222 4.01444,-3.14666 0.31333,1.63555 3.37555,3.56 5.03999,1.65222 2.2,-2.52444 0.67556,-4.84222 -0.24333,-7.35555 -0.65778,-1.86222 -0.37445,-3.04444 -0.86111,-2.49555 -1.97778,2.77444 0.17889,5.20222 0.88222,7.55777 -1.18111,0.96778 -2.85111,-0.0478 -3.38111,-0.96778 -1.12555,-1.90555 -0.51111,-5.64444 -1.91777,-6.29444 -0.42556,1.00111 -0.72667,2.11334 -0.72667,2.11334 0,0 0.95222,2.62444 0.58111,4.3111 -0.22778,1.02111 -1.2,2.17778 -2.40444,2.14667 -3.19222,-0.0711 -1.36,-4.72444 -2.45,-7.45666 -0.28333,0.63889 -0.50555,1.33889 -0.83667,1.93 0.19223,0.71444 0.26112,1.69333 0.26112,2.26555 0.0244,1.12444 -0.13334,2.32333 0,3.29666 m 75.54214,128.86654 c 0.35556,-0.56555 1.14111,-2.11777 0.94445,-3.17888 -0.19667,-1.06112 -1.49889,-5.48667 -4.02222,-6.59555 -2.50667,-1.10889 -4.40555,1.21555 -5.60777,4.44888 l -0.83334,-0.02 c -0.19889,0.47778 -0.44777,1.19333 -0.64666,2.48444 -0.28,1.86556 -0.80889,3.06667 -4.00778,5.97111 -2.68999,2.43111 -11.40665,8.26999 -17.05554,11.01332 -5.65443,2.74889 -9.72332,5.12111 -11.22332,5.84111 -1.49444,0.70888 -1.06,0.97333 0.43445,0.52666 1.49111,-0.44444 8.99665,-2.86222 11.98887,-4.09444 2.98556,-1.24111 6.63666,-3.28111 11.03777,-6.13666 4.89444,-3.17444 7.81888,-6.34777 8.80221,-9.16221 0.7,-2.00556 0.87889,-2.80778 0.87889,-2.80778 0,0 1.83889,1.08556 4.95777,1.79778 3.10778,0.71444 3.99,0.48444 4.35222,-0.0867 m -4.21777,-6.28888 c 1.38444,0.52555 2.22777,2.03333 2.47777,2.94889 -1.58888,0.0356 -4.51444,-0.77112 -5.75888,-1.33334 0.74889,-1.45 2.05111,-2.07777 3.28111,-1.61555"
     fill="#ffffff"
     id="path6"
     style="stroke-width:1.11111" />
  <path
     d="m 527.04188,282.63332 c -4.33999,-0.60222 -15.27554,-2.26555 -17.95109,-8.61332 2.24666,-3.27556 12.5911,-7.42222 25.54997,-11.30333 12.95888,-3.8711 26.49998,-8.89665 30.13886,-11.32221 0.79778,-0.27 2.34,-0.18889 2.34,-0.18889 0.65222,-1.87666 3.90555,-8.46665 4.10888,-9.84443 -3.62222,0.20444 -25.94442,1.84444 -35.85996,2.37778 -9.92221,0.53333 -29.02886,0.40444 -35.39552,0.33333 3.90444,-2.80778 13.17221,-8.28888 26.41664,-12.96554 1.71666,-0.60778 3.30555,-1.15556 4.78777,-1.65111 1.10111,1.96333 1.92,3.90555 2.09111,5.59666 0.84222,-0.86667 1.47556,-3.74 1.26222,-6.68888 7.72222,-2.46445 11.69999,-3.28111 13.41554,-3.74445 1.08334,-1.40444 3.00445,-7.08332 3.29,-11.2111 -1.15333,-2.1011 -4.76666,-4.71888 -7.97999,-6.96666 -4.42777,-3.09221 -9.20332,-5.78888 -13.96888,-4.60888 -6.51554,1.59778 -7.82221,13.56776 -6.30332,16.10665 0.48444,0.80111 1.63111,2.22222 2.98555,3.97555 -4.76,1.87111 -9.73888,4.07111 -14.12665,6.38444 -9.77555,5.14888 -20.68887,10.78221 -23.87331,16.19887 l -0.91222,0.44445 c -0.25556,0.51222 -2.27111,8.89443 -2.56333,9.79777 2.03333,-0.07 17.21331,-0.0422 27.78663,-0.37112 10.56666,-0.33777 19.80665,-0.67333 23.42554,-0.67333 -5.36,1.27 -19.40554,6.48888 -23.44442,9.55888 -4.03778,3.07778 -6.57666,7.75777 -6.64333,15.77999 -3.76444,-1.47445 -10.7611,-4.84222 -16.72332,-12.90666 -6.64666,-8.98777 -5.2711,-18.23109 -7.9311,-30.36108 -3.86555,-17.60331 -12.11888,-32.46663 -17.25887,-37.01218 -1.73222,6.21221 -1.95444,10.89443 -1.95444,10.89443 0,0 6.43999,14.23776 9.69999,23.32664 3.25888,9.0911 6.04443,18.04776 5.90666,20.05332 -2.68445,5.88666 -18.57332,18.21664 -31.81553,25.4333 -12.55776,6.84444 -23.61997,7.58111 -27.53997,2.70778 -0.77,-0.95111 -1.29333,-2.07667 -1.58889,-3.35111 1.70445,-0.79666 3.41444,-1.59889 5.16778,-2.4 11.2911,-5.14444 31.34441,-15.97109 36.04329,-21.6522 5.07,-6.88555 5,-16.57887 2.02667,-22.12775 -2.96111,-5.54666 -7.60555,-11.96666 -7.96666,-14.23777 -0.28333,-1.07222 3.01555,0.43556 4.96333,0.53778 0.94333,-0.0711 0.47111,-1.34 -1.55222,-3.34666 -1.61889,-1.59778 -7.88,-6.78333 -10.27222,-8.80666 -0.6,-0.51444 -1.04666,-0.30667 -1.16777,0.23667 -0.46667,2.07111 -1.41889,6.50555 -1.78667,8.69443 l 0.25556,1.10333 c 0.68778,0.40778 1.47889,0.86667 1.86222,2.01111 0.54222,1.62334 2.43777,6.15444 5.54444,11.87221 3.11444,5.71444 7.61221,12.02221 8.05332,15.20777 -3.65777,4.66555 -22.10442,14.59998 -40.07218,22.78886 1.11111,-3.44444 2.86333,-7.33777 5.18888,-11.66332 0.66,-0.73111 1.26334,-1.63333 1.82222,-2.65333 1.79334,-3.27444 1.96667,-7.27888 0.88,-6.43222 -0.93111,0.89778 -1.59999,4.14778 -2.66666,4.36667 -2.18111,0.44777 -5.24333,-2.09889 -4.47333,-6.75555 0.69778,-4.2 2.94444,-7.99333 3.91444,-10.42221 1.34444,-3.36 1.71333,-6.68 0.69333,-4.87333 -2.2911,4.03444 -6.5911,11.85221 -7.91221,17.31331 -1.31444,5.45333 0.0822,9.18111 2.38555,10.62444 0.86111,0.54889 1.68667,0.72111 2.47111,0.61333 -1.57555,3 -3.52333,6.67999 -4.94444,11.06999 -7.22555,3.23333 -14.25554,6.12222 -20.07553,8.20444 -20.91665,7.48888 -35.8233,11.89998 -46.24996,15.17554 l -0.40777,0.18222 c 0.76666,-2.47778 0.66333,-4.59444 -0.15889,-3.95889 -0.93111,0.90334 -1.59778,4.15333 -2.66222,4.36667 -2.18222,0.44777 -5.24444,-2.09556 -4.47778,-6.75555 0.7,-4.2 2.94667,-7.98888 3.91778,-10.41888 1.33889,-3.35667 1.71,-6.68333 0.69333,-4.87333 -2.29444,4.03444 -6.59222,11.8511 -7.91221,17.30998 -1.31889,5.45555 0.0778,9.18444 2.37888,10.62999 2.86667,1.80111 5.31111,-0.40778 7.18555,-3.82333 l 0.65778,-1.40444 c 0.65111,0 1.75,-0.15222 3.38999,-0.51778 4.77778,-1.07444 16.72443,-2.80777 33.14886,-4.94888 12.16221,-1.58222 20.55887,-4.92222 28.67553,-8.63888 a 33.211078,33.211078 0 0 0 -0.007,2.75555 c 0.44222,11.14443 7.74555,14.2911 17.73443,12.20554 9.63554,-2.02222 23.0722,-10.85887 31.12552,-16.81776 8.39666,-6.21332 13.2411,-11.76443 14.47776,-13.69998 2.23889,-4.74778 2.85445,-9.99222 3.00667,-12.46666 0.73333,6.81555 1.32666,16.24776 7.77221,24.33776 5.93444,7.44443 18.09665,17.83331 40.97107,18.11776 0.0756,-2.72111 -1.01444,-11.21555 -1.01444,-11.21555 m -1.51111,-69.06215 c 3.27333,-3.67444 10.2611,-1.27111 15.50554,3.38888 -2.68777,0.63 -6.33666,1.75222 -10.36332,3.19 -2.39222,-2.88444 -5.06111,-5.66444 -5.14333,-6.57777 m -128.59987,-50.3844 c 1.48555,-0.67777 6.02888,-2.72221 10.92665,-5.57443 4.88667,-2.83333 9.47999,-6.26666 11.72555,-8.54888 0.86111,-0.87445 1.62888,-1.55889 2.11888,-2.37222 1.46667,0.60777 2.47778,1.23888 3.10667,1.48666 0.94666,0.36556 2.21,0.89111 3.03111,-1.80444 0.81888,-2.69222 -0.26667,-4.43111 -1.86778,-6.50777 -1.35555,-1.74222 -3.50333,-4.35889 -5.24777,-5.00889 -1.47778,-0.55444 -2.18222,2.74889 -1.95556,2.66667 h 0.98889 l 0.19111,0.0933 c -2.03666,1.02778 -3.61222,4.22444 -3.7711,5.34666 -0.16112,1.22222 0.07,2.12222 2.99221,2.87333 l 1.17445,0.34556 c -2.43778,2.88666 -6.98111,5.87221 -10.07777,7.98888 -4.39111,3.01111 -10.62332,6.77221 -12.39777,7.85888 -1.77444,1.08 -1.62555,1.42111 -0.93777,1.15555 m 26.3933,-21.20998 0.15778,-1.44333 c 2.05444,2.34111 3.57889,5.12666 3.42667,5.52111 -0.94334,0.0755 -2.11778,-0.79667 -4.17222,-1.67444 a 17.644427,17.644427 0 0 0 0.58777,-2.40334 m -5.89888,0.003 c -0.0111,-0.43889 0.77889,-1.66 2.45333,-2.32778 1.67111,-0.67222 2.41111,1.20445 2.55556,3.48889 l -0.49556,0.91555 -1.50666,-0.52111 c -1.59445,-0.46666 -2.67222,-0.73111 -3.00667,-1.55555"
     fill="#ffffff"
     id="path7"
     style="stroke-width:1.11111" />
  <path
     d="m 506.45857,207.25784 c 2.41,-1.59222 9.03554,-6.37555 12.79443,-9.5111 2.61333,-2.17778 5.68444,-5.38444 7.76888,-8.09777 a 99.7499,99.7499 0 0 0 3.64,2.25111 c 2.14333,1.25222 3.00444,3.11 3.00444,3.11 0.39555,-0.60778 2.24,-3.93333 1.51889,-5.55222 -0.43334,-0.52889 -3.06778,-2.06778 -5.76111,-3.71666 1.36667,-3.06667 3.24666,-8.37111 0.55333,-10.22777 -2.30333,-1.57667 -6.18999,1.03222 -7.98888,4.41666 -1.48555,2.80333 -1.67777,5.18111 1.15556,7.12777 0.79777,0.54889 1.56222,1.06667 2.31111,1.55889 -2.85778,3.12666 -8.12222,7.75221 -11.86999,10.89999 -4.65333,3.89444 -9.05333,7.71332 -9.8211,8.62443 l -0.22223,0.35556 c -1.01555,-2.83111 -0.73888,-4.57777 -1.49333,-3.63889 -3.25999,5.11222 0.82445,9.25555 2.31,13.3911 -2.00889,1.82222 -5.08555,0.14889 -6.11777,-1.44666 -2.19778,-3.30333 -1.46333,-10.01111 -4.03555,-11.04999 -0.66334,1.81222 -1.09556,3.82999 -1.09556,3.82999 0,0 1.95667,4.59444 1.46111,7.62777 -0.30778,1.83556 -1.93333,3.98222 -4.06666,4.01889 -5.70888,0.14555 -2.89444,-8.29999 -5.09777,-13.08443 -0.44667,1.17333 -0.76667,2.42777 -1.30222,3.51444 0.40444,1.25777 0.62666,3.00222 0.68444,4.01222 0.14667,2.00666 -0.0178,4.15888 0.32,5.8811 0.47111,2.42 1.81666,4.02889 3.87111,4.17777 4.25777,0.34667 6.20221,-3.11444 6.84777,-5.93666 0.73333,2.88667 6.37332,6.06111 9.14443,2.52222 3.67444,-4.67999 0.73334,-8.68665 -1.14444,-13.08887 l -0.22111,-0.57 c 0.26222,0.0922 1.24444,-0.33778 2.85222,-1.39889 m 16.65331,-26.34775 c 1.41111,-2.62 4.38556,-2.84222 5.27778,-1.46889 0.70777,1.09111 0.76666,3.22222 -0.3,5.47 -2.62222,-1.64667 -4.96333,-3.25889 -4.97778,-4.00111"
     fill="#ffffff"
     id="path8"
     style="stroke-width:1.11111" />
  <path
     d="m 413.51199,190.60008 c -5.01555,-0.35556 -7.71443,-4.95 -9.25776,-11.58777 -1.54556,-6.63777 -0.6,-15.39109 -0.18,-17.63331 0.42,-2.24 -1.94445,-1.08333 -2.86333,4.35555 -0.91334,5.43333 -1.83222,14.12221 1.40333,23.21886 3.22888,9.08555 8.73332,12.47666 13.55776,11.31444 4.82444,-1.15556 9.06999,-12.47666 10.56666,-17.55554 1.49444,-5.08111 8.1811,-25.80442 11.96665,-26.91886 0.53,2.54111 -2.94222,8.91332 -4.05333,18.49442 -1.10444,9.58111 0.81889,22.14776 12.97999,24.37665 12.1611,2.2311 20.4122,-5.65889 23.40442,-11.14333 2.99444,-5.47555 4.39111,-11.23332 4.72889,-14.12443 0.38888,7.35222 5.40555,18.83221 15.14665,22.10443 9.41332,3.16333 16.60554,0.26666 19.7822,-3.83222 2.82222,-3.64111 5.11999,-11.13999 5.31777,-16.8911 0.19111,-5.74555 -4.77555,-16.26109 -5.88666,-19.60887 -1.11333,-3.33999 -1.68889,-5.65888 -1.78666,-6.81554 -0.0944,-1.15556 2.51444,1.33999 4.15555,1.82888 1.11,0.22222 0.72,-2.18333 -0.63111,-3.83555 -1.34778,-1.64555 -8.64666,-12.7111 -9.15777,-11.9411 -0.31333,0.46111 -3.23444,8.60222 -3.42666,9.84777 1.15666,0.76 2.49555,2.85333 2.59666,4.85999 0.0911,2.00556 2.02333,10.82777 3.81,15.72888 1.78666,4.9011 5.25888,14.30554 5.50221,16.89109 -3.47222,2.44778 -11.29443,5.56333 -18.7222,2.40556 -7.42999,-3.16778 -9.79999,-7.75778 -10.61888,-15.95666 -0.52333,-5.23888 -0.57555,-14.89109 -2.44444,-22.95997 -1.05222,-4.56222 -3.27111,-9.19888 -5.90666,-11.6611 -0.62222,1.51111 -3.42111,10.82776 -3.42111,10.82776 0.91333,2.67334 3.75222,11.67444 3.66111,19.47443 -0.1,7.79444 -0.71556,15.42221 -9.45555,20.67776 -8.73443,5.25666 -21.17887,3.16333 -24.41442,-5.03889 -3.23555,-8.19999 3.95555,-26.64664 3.86222,-31.5033 -0.0978,-4.85555 -0.97111,-5.52888 -2.99444,-4.72444 -2.02778,0.80222 -6.18222,5.48444 -9.74888,13.1011 -3.57222,7.62221 -5.15777,15.23998 -7.1911,21.65776 -2.02445,6.41777 -5.26556,12.92109 -10.28111,12.56665 M 267.88325,162.17122 c 6.17222,-0.44778 11.38888,-5.12777 12.73666,-6.37111 1.3511,-1.25222 2.07777,-3.11777 1.11111,-2.40888 -7.14,6.37332 -16.69332,6.55332 -17.22888,5.48221 0.24334,-1.06999 2.75667,-2.80888 6.42444,-5.25666 2.22778,-1.48888 4.21222,-2.88444 5.69777,-4.86221 l 0.40445,0.07 c 2.71777,0.59666 5.85555,1.78444 6.81444,0.83333 1.5611,-1.53889 1.76777,-4.06 0.0756,-6.77777 -1.43,-2.30778 -4.76666,-4.45555 -7.66332,-6.00555 -2.89111,-1.54222 -3.45111,0.92 -3.82222,1.79777 -0.35556,0.81889 -0.21111,1.51667 0.40111,1.53334 -0.93111,1.26999 -1.59445,2.90444 -1.83778,4.25555 -0.15778,0.87222 -0.03,1.58666 0.32556,2.17444 0.10333,0.16667 0.63888,0.82222 1.65222,1.21 l 1.25777,0.39111 c -2.16444,1.99777 -4.65666,3.56222 -5.96555,4.35333 -2.3611,1.42666 -5.1611,3.92222 -6.02888,6.50221 -0.87,2.58889 -0.53333,3.52556 5.64555,3.07778 m 10.9111,-18.20443 0.23667,-1.31666 v -0.84445 c 1.95666,1.42333 5.08555,4.11889 4.89444,5.73444 -1.23889,-0.28111 -3.6,-0.78 -5.84444,-1.35555 0.28667,-0.67334 0.52111,-1.41111 0.71333,-2.21778 m -5.8011,0.41111 c -1.44,-1.14889 -0.0367,-2.29333 1.23888,-3.03111 1.64667,-0.95111 2.61111,-0.16666 3.45444,2.33 a 10.106657,10.106657 0 0 1 -1.19666,2.07667 c -1.28111,-0.39667 -3.08555,-1.03334 -3.49666,-1.37556 m 13.40665,87.49769 c -1.77444,1.53889 -2.46222,6.54777 -2.1,6.84888 0.35889,0.30112 5.90444,2.17222 6.77111,2.57778 l 0.39666,-1.50889 c 2.64111,2.37222 5.56889,14.20777 6.22,14.2411 0.65111,0.0311 1.59555,-1.33889 2.21333,-4.48222 0.56889,-2.91555 1.13777,-7.27666 1.73111,-10.82777 0.55444,-3.24999 1.41555,-5.10999 3.36888,-5.4811 1.95667,-0.36667 3.40555,2.14111 3.91111,3.84666 0,0 1.37222,-3.27777 1.66444,-5.31555 -0.32555,-1.07222 -3.36888,-5.11222 -5.86444,-3.77555 -2.49888,1.33889 -4.06333,7.00888 -4.56777,10.55443 -0.50889,3.53889 -0.89778,7.92888 -1.51333,8.63333 -0.64445,-3.02222 -2.71111,-8.4311 -5.20666,-11.46999 -2.80667,-3.40444 -6.08666,-4.65444 -7.02444,-3.84111 m -23.65442,-6.04999 c 2.31666,-0.63556 7.52999,-1.43444 10.02554,-2.73778 2.35222,-1.10222 6.36666,-6.48221 7.92444,-8.48888 1.55555,-2.00666 1.55889,-3.01333 1.16333,-3.54444 -1.59222,-0.87333 -11.87554,-1.73666 -16.83665,-0.50777 -1.37,0.92555 -4.0511,5.88666 -4.44666,6.92554 -0.40111,1.03223 0.14667,0.96667 1.80778,0.60111 1.66555,-0.37111 9.55665,-0.17111 12.4111,0.43112 -1.18889,0.83888 -9.26111,4.91555 -10.85555,5.88666 -1.58889,0.96666 -1.99,1.53555 -1.19333,1.43444 m 478.12841,28.72108 c -0.23667,-6.01333 -3.18333,-15.24443 -14.38221,-29.40997 -3.86555,-4.88999 -9.30443,-11.25554 -15.04109,-17.77443 -0.15778,-2.22222 -0.31667,-4.25444 -0.45889,-5.99999 -0.75222,-8.97221 -3.3,-27.27775 -4.39555,-38.09996 -0.26667,-2.73 -0.28889,-5.63333 -0.24889,-7.14999 0.0389,-1.20445 0.90666,-1.04445 2.1,0.19333 1.19222,1.23555 3.0311,3.03888 3.41444,2.91555 0.81555,-0.28111 0.10666,-3.01333 -1.52222,-6.25221 -1.62445,-3.24445 -7.76889,-16.36554 -8.89888,-16.87443 -0.58112,-0.25889 -3.47778,7.44443 -3.65778,9.0211 0.57556,0.96778 2.06,2.47333 2.20333,6.85444 0.15222,4.37777 2.79333,30.23663 4.31222,46.53106 l 0.0822,0.90889 c -8.57554,-9.57444 -16.65331,-18.30554 -19.97664,-21.84553 -0.57556,-0.61334 -1.20778,-1.31111 -1.89,-2.06 -0.54222,-4.35889 -1.04111,-8.5111 -1.38445,-11.94221 a 58.65883,58.65883 0 0 1 -0.25,-7.14888 c 0.0278,-1.20222 0.9,-1.03889 2.09445,0.2 1.19888,1.23444 3.03111,3.03777 3.41444,2.90888 0.81555,-0.27555 0.10666,-3.00777 -1.52444,-6.25221 -1.62223,-3.24445 -8.02889,-16.66665 -9.16444,-17.17554 -0.57444,-0.25889 -3.60666,8.05888 -3.78555,9.62221 0.58111,0.97444 2.06333,2.48 2.20888,6.8611 0.0578,1.86 0.54223,7.49889 1.18778,14.61443 -5.68555,-6.75554 -11.25221,-13.82998 -11.64776,-15.26665 -0.14,-0.71 1.06222,-0.27333 3.28666,0.0867 2.21555,0.35444 4.29444,1.02222 3.93888,-0.0756 -0.16666,-0.51 -1.01333,-1.78222 -3.13555,-3.09888 -2.12333,-1.31333 -7.56555,-4.71889 -11.61332,-7.12222 -4.05666,-2.40444 -6.06555,-4.42777 -6.90222,-3.8511 -0.41444,0.28444 -0.0455,8.5311 0.19223,9.55221 1.01888,0.0933 2.90333,0.85 4.10221,2.45444 1.21111,1.60333 8.96666,12.47554 15.09777,19.82887 a 1084.6022,1084.6022 0 0 0 7.76443,9.18332 c 0.63334,6.77333 1.29667,13.7711 1.84445,19.61776 1.24444,13.33777 5.71777,48.51329 5.7611,59.94439 -3.30222,3.09999 -10.05554,7.4211 -17.00443,7.5111 -6.94777,0.0867 -10.75776,-1.74222 -13.55776,-6.90777 -0.86444,-1.60111 -1.66778,-3.21111 -2.46555,-4.66777 -1.89222,-3.46445 -6.11666,-5.40889 -10.18888,-4.45556 l -0.62111,0.16667 -1.10778,0.53222 c -2.75777,1.44333 -5.60888,3.86333 -8.39666,7.61666 -4.8211,6.51111 -7.89999,13.57332 -11.46665,19.69109 -3.71667,6.37 -6.56888,10.64444 -13.08777,9.62222 -4.58888,-0.72 -8.07443,-4.65555 -10.22221,-9.49888 6.03444,-4.17555 10.41666,-9.62222 13.62221,-17.17221 4.17222,-9.8111 5.65999,-20.8722 5.28888,-33.30997 -0.35555,-11.70554 -5.6911,-39.2444 -7.09999,-49.79772 -1.40666,-10.55999 -3.42666,-19.22665 -3.19222,-21.48109 0.21889,-2.17444 3.68222,2.94666 5.45555,3.32888 0.90778,-0.20222 0.42111,-3.46888 -1.30222,-6.22999 -1.16778,-1.87667 -4.86888,-10.41332 -7.2911,-14.52999 -1.13889,-1.94777 -1.41222,-3.07555 -1.94222,-3.30666 -0.52334,-0.23889 -4.55555,8.37444 -4.06889,9.3111 1.19333,1.70556 2.00889,2.51889 2.25778,5.57444 0.25555,3.05555 3.01888,25.48664 5.43555,42.00663 1.82,12.46554 5.8411,35.10774 6.35777,51.84439 0.17111,5.4611 -0.60889,9.3811 -1.28444,11.56999 -1.73445,3.35444 -4.56222,7.07999 -14.49555,14.15109 -1.53333,-9.99221 0.13334,-18.10998 -1.32111,-18.86109 -1.63999,0.17778 -1.90222,4.83333 -2.08777,10.57999 -0.0911,2.65333 0.0244,6.32777 0.52333,10.27555 -12.19999,8.15554 -28.31886,15.57998 -35.88774,19.54442 -4.44,2.33 -2.83889,2.87333 0.91889,1.71111 3.75888,-1.16778 24.41442,-6.58444 35.44107,-12.38332 l 1.18667,-0.65889 c 0.56,1.94444 1.23889,3.82666 2.07333,5.56333 3.70889,7.70999 9.0111,12.28776 14.75443,11.83999 4.83,-0.37111 8.33332,-5.54 11.38888,-11.70555 3.08888,-6.23999 8.30777,-18.0922 13.42665,-22.50109 1.96667,-1.69999 4,-3.04444 5.97777,-3.85221 0,0 3.49667,-1.16778 6.71333,0.93333 1.15333,0.76 2.01444,1.84111 2.56,3.05111 1.26888,2.77777 2.76888,6.3111 5.83666,9.2711 5.40555,5.20555 14.09665,4.13111 20.61664,1.10333 6.50889,-3.03111 9.83333,-7.75777 11.2811,-13.37443 2.47111,-9.60888 2.07556,-19.45443 1.60445,-28.19997 -0.54445,-9.97999 -2.14,-20.17998 -3.04667,-30.98886 -0.29222,-3.47444 -0.86111,-8.30777 -1.51555,-13.54999 6.34888,7.32666 12.93999,14.76332 16.93998,18.82998 1.37778,1.40334 2.83333,2.96222 4.32777,4.60889 1.19223,16.35887 2.34,36.82996 2.94556,45.41995 0.6,8.56 0.21333,19.31998 0.14333,21.19109 -0.0733,1.87111 0.96667,1.55 2.46222,-2.60333 2.00222,-5.57444 3.25889,-20.1922 2.82111,-29.88552 -0.26222,-5.76 -0.83667,-16.25999 -1.45778,-26.19331 a 447.38733,447.38733 0 0 1 12.64777,15.75776 c 5.4111,7.08444 10.3811,15.50888 12.11887,20.76554 1.73556,5.2611 1.92667,6.81999 2.26445,7.75777 0.33777,0.93777 1.83333,-2.90111 1.59555,-8.91444 m -91.37546,200.14202 c -0.48889,-1.39888 -1.98556,-2.42444 -3.77556,-2.42444 -1.78999,0 -3.28333,1.02556 -3.77555,2.42444 h -16.94887 a 15.161096,15.161096 0 0 1 0.52889,-5.6111 l 34.99219,-0.0211 0.97444,1.64222 a 17.468871,17.468871 0 0 0 3.28,3.98888 z M 672.66396,438.4265 H 630.614 c 3.23222,-2.33333 4.92666,-5.73555 4.47222,-9.17888 -0.29,-2.17 -2.44,-3.79111 -5.06111,-4.01111 h -1.31666 c -3.18889,0.31111 -5.50111,2.61 -5.16444,5.13333 l 0.12777,0.97111 0.15556,1.49333 a 15.14554,15.14554 0 0 1 -0.52222,5.59222 h -310.8208 c 4.61555,6.71555 13.0311,10.83332 22.11775,10.82665 l 283.62861,-0.17444 c -3.24444,2.33555 -4.94444,5.74444 -4.48666,9.19444 0.33555,2.52444 3.18888,4.32221 6.37777,4.0111 3.18555,-0.31111 5.49777,-2.60999 5.16555,-5.13777 l -0.12889,-0.96667 h 16.66887 c 0.29333,1.62667 1.91778,2.87445 3.89666,2.87445 1.97889,0 3.60445,-1.24778 3.9,-2.87556 h 16.95554 v -0.0389 c 3.54111,2.51111 8.03999,3.95556 12.79999,3.95556 4.47777,0 8.10554,-3.11111 8.10554,-6.95 v -2.00888 c 0,-7.01777 -6.63332,-12.7111 -14.81998,-12.7111"
     fill="#ffffff"
     id="path9"
     style="stroke-width:1.11111" />
</svg>
