<?xml version="1.0" encoding="UTF-8" standalone="no"?>
<svg
   width="1000"
   height="600"
   viewBox="0 0 12000 7200"
   fill="#ee1c25"
   version="1.1"
   id="svg5"
   sodipodi:docname="sk.svg"
   inkscape:version="1.3.2 (091e20e, 2023-11-25, custom)"
   xmlns:inkscape="http://www.inkscape.org/namespaces/inkscape"
   xmlns:sodipodi="http://sodipodi.sourceforge.net/DTD/sodipodi-0.dtd"
   xmlns:xlink="http://www.w3.org/1999/xlink"
   xmlns="http://www.w3.org/2000/svg"
   xmlns:svg="http://www.w3.org/2000/svg">
  <sodipodi:namedview
     id="namedview5"
     pagecolor="#505050"
     bordercolor="#eeeeee"
     borderopacity="1"
     inkscape:showpageshadow="0"
     inkscape:pageopacity="0"
     inkscape:pagecheckerboard="0"
     inkscape:deskcolor="#505050"
     inkscape:zoom="0.35885669"
     inkscape:cx="646.49763"
     inkscape:cy="1113.2578"
     inkscape:window-width="2560"
     inkscape:window-height="1417"
     inkscape:window-x="3832"
     inkscape:window-y="313"
     inkscape:window-maximized="1"
     inkscape:current-layer="svg5" />
  <defs
     id="defs1">
    <clipPath
       id="b">
      <path
         id="a"
         d="m 4678,1746 c 0,0 56,561 56,1683 -8,1146 -865,1726 -1494,2031 -629,-305 -1486,-885 -1494,-2031 0,-1122 56,-1683 56,-1683 z" />
    </clipPath>
  </defs>
  <path
     fill="#ffffff"
     d="M 0,0 H 12000 V 7200 H 0 Z"
     id="path1"
     style="stroke-width:1.05409" />
  <path
     fill="#0b4ea2"
     d="M 0,2400 H 12000 V 7200 H 0 Z"
     id="path2"
     style="stroke-width:1.05409" />
  <path
     d="M 0,4800 H 12000 V 7200 H 0 Z"
     id="path3"
     style="stroke-width:1.05409" />
  <use
     xlink:href="#a"
     id="use3"
     transform="matrix(1.11111,0,0,1.11111,-7.99812,-400.66341)" />
  <path
     fill="#ffffff"
     d="M 3450.8873,4932.6646 V 3373.7773 c -527.7772,0 -677.7771,46.6666 -835.5547,94.4443 a 2581.1085,2581.1085 0 0 0 0,-478.8884 c 157.7776,47.7777 307.7775,94.4443 835.5547,94.4443 v -433.3329 c -166.6665,0 -396.6662,6.6667 -661.1104,96.6666 a 2581.1085,2581.1085 0 0 0 0,-479.9995 c 264.4442,88.8888 494.4439,95.5555 661.1104,95.5555 0,-125.5555 -38.8888,-395.5552 -87.7777,-618.8883 a 2581.1085,2581.1085 0 0 0 457.7774,0 c -48.8889,223.3331 -87.7777,493.3328 -87.7777,618.8883 166.6665,0 396.6662,-6.6667 661.1104,-95.5555 a 2581.1085,2581.1085 0 0 0 0,479.9995 c -264.4442,-89.9999 -494.4439,-96.6666 -661.1104,-96.6666 v 433.3329 c 527.7772,0 677.7771,-46.6666 835.5547,-94.4443 a 2581.1085,2581.1085 0 0 0 0,478.8884 c -157.7776,-47.7777 -307.7775,-94.4443 -835.5547,-94.4443 v 1558.8873 z"
     id="path4"
     style="stroke-width:1.11111" />
  <path
     clip-path="url(#b)"
     fill="#0b4ea2"
     d="m 2463,5903 a 507,867 0 1 1 319,-1541 584,1084 0 0 1 916,0 507,867 0 1 1 319,1541 z"
     id="path5"
     transform="matrix(1.11111,0,0,1.11111,-7.99812,-400.66341)" />
  <use
     xlink:href="#a"
     fill="none"
     stroke="#ffffff"
     stroke-width="108"
     id="use5"
     transform="matrix(1.11111,0,0,1.11111,-7.99812,-400.66341)" />
</svg>
