<?xml version="1.0" encoding="UTF-8" standalone="no"?>
<svg
   width="1000"
   height="600"
   version="1.1"
   id="svg7"
   sodipodi:docname="ut.svg"
   inkscape:version="1.3.2 (091e20e, 2023-11-25, custom)"
   xmlns:inkscape="http://www.inkscape.org/namespaces/inkscape"
   xmlns:sodipodi="http://sodipodi.sourceforge.net/DTD/sodipodi-0.dtd"
   xmlns="http://www.w3.org/2000/svg"
   xmlns:svg="http://www.w3.org/2000/svg">
  <defs
     id="defs7" />
  <sodipodi:namedview
     id="namedview7"
     pagecolor="#505050"
     bordercolor="#eeeeee"
     borderopacity="1"
     inkscape:showpageshadow="0"
     inkscape:pageopacity="0"
     inkscape:pagecheckerboard="0"
     inkscape:deskcolor="#505050"
     inkscape:zoom="2.035"
     inkscape:cx="500.2457"
     inkscape:cy="300"
     inkscape:window-width="2560"
     inkscape:window-height="1417"
     inkscape:window-x="6392"
     inkscape:window-y="-1"
     inkscape:window-maximized="1"
     inkscape:current-layer="svg7" />
  <path
     fill="#ffffff"
     d="M 0,0 H 1000 V 600 H 0 Z"
     id="path1"
     style="stroke-width:1.05409" />
  <g
     fill="none"
     stroke="#000000"
     stroke-width="17.7"
     id="g7"
     transform="matrix(1.11111,0,0,1.11111,4.99e-4,-33.333)">
    <circle
       cx="232.3"
       cy="253.5"
       r="91.599998"
       stroke="#0081c8"
       id="circle1" />
    <circle
       cx="450"
       cy="253.5"
       r="91.599998"
       id="circle2" />
    <circle
       cx="667.70001"
       cy="253.5"
       r="91.599998"
       stroke="#ee334e"
       id="circle3" />
    <circle
       cx="341.20001"
       cy="346.5"
       r="91.599998"
       stroke="#fcb131"
       id="circle4" />
    <circle
       cx="558.79999"
       cy="346.5"
       r="91.599998"
       stroke="#00a651"
       id="circle5" />
    <path
       d="m 305.6,198.5 a 91.6,91.6 0 0 1 0,109.9"
       stroke="#0081c8"
       id="path5" />
    <path
       d="m 523.3,198.5 a 91.6,91.6 0 0 1 0,109.9 M 450,345 a 91.6,91.6 0 0 1 -55,-18.3"
       id="path6" />
    <path
       d="m 667.7,345 a 91.6,91.6 0 0 1 -55,-18.3"
       stroke="#ee334e"
       id="path7" />
  </g>
</svg>
