<?xml version="1.0" encoding="UTF-8" standalone="no"?>
<svg
   width="1000"
   height="600"
   viewBox="1488.189 992.126 1000 600"
   xml:space="preserve"
   version="1.1"
   id="svg56"
   sodipodi:docname="vi.svg"
   inkscape:version="1.3.2 (091e20e, 2023-11-25, custom)"
   xmlns:inkscape="http://www.inkscape.org/namespaces/inkscape"
   xmlns:sodipodi="http://sodipodi.sourceforge.net/DTD/sodipodi-0.dtd"
   xmlns="http://www.w3.org/2000/svg"
   xmlns:svg="http://www.w3.org/2000/svg"><defs
     id="defs56" /><sodipodi:namedview
     id="namedview56"
     pagecolor="#505050"
     bordercolor="#eeeeee"
     borderopacity="1"
     inkscape:showpageshadow="0"
     inkscape:pageopacity="0"
     inkscape:pagecheckerboard="0"
     inkscape:deskcolor="#505050"
     inkscape:zoom="0.50662121"
     inkscape:cx="395.75919"
     inkscape:cy="40.464156"
     inkscape:window-width="2560"
     inkscape:window-height="1417"
     inkscape:window-x="3832"
     inkscape:window-y="313"
     inkscape:window-maximized="1"
     inkscape:current-layer="svg56" /><path
     fill="#ffffff"
     d="m 1488.189,992.126 h 1000 v 600 h -1000 z"
     id="path1"
     style="stroke-width:0.744065" /><path
     fill="#369443"
     stroke="#010002"
     stroke-width="2.35294"
     stroke-miterlimit="10"
     d="m 1800.8466,1410.0376 c 0,0 -0.8102,-5.4824 9.6015,-9.5028 10.4118,-4.0203 11.2212,-19.0054 9.1388,-28.9961 0,0 -5.4368,9.5028 -12.0306,12.6707 0,0 -10.7584,5.6046 -11.2509,16.3097 0,0 -0.086,3.9137 -0.8957,6.9592 -0.4431,1.6675 -5.2054,-13.4015 3.8172,-24.6094 9.3114,-11.567 11.9153,-20.9544 4.5115,-39.2289 0,0 -0.6942,11.0862 -7.982,17.4219 -7.2879,6.3349 -8.2149,6.8227 -8.098,21.9294 0,0 0.116,5.2384 -2.6605,6.9443 0,0 -5.6682,-8.2847 -7.1725,-13.767 -1.5036,-5.4824 -2.1977,-7.7969 4.28,-14.1325 0,0 20.7537,-13.4118 5.7843,-42.7624 0,0 -0.4628,10.1122 -7.6353,16.0816 -7.1726,5.9693 -6.5937,9.9898 -6.9411,20.3459 -0.3475,10.3552 -1.0416,9.6242 -1.851,11.0862 0,0 -13.1875,-24.2439 -3.0079,-37.1584 10.1796,-12.9145 15.8486,-15.5945 4.6274,-39.5944 0,0 0.4981,12.305 -8.4846,18.3967 -8.9828,6.0918 -6.9004,20.3459 -6.9004,20.3459 0,0 0.578,5.3608 -1.2722,9.2589 0,0 -12.7074,-24.7851 -0.578,-38.1333 10.2957,-11.3302 10.9898,-19.2494 5.4369,-35.331 0,0 -0.6941,7.4321 -6.3624,11.4518 -5.6682,4.0203 -10.1796,8.0408 -9.1388,23.5129 0,0 0.4628,10.8431 -0.9254,13.8886 0,0 -5.3217,-9.8682 -6.8251,-16.3255 -1.5036,-6.4573 -2.0824,-10.2337 1.8509,-16.6909 3.9334,-6.4573 19.5506,-24.9758 0.9255,-51.6557 0,0 -0.578,8.6502 -5.3216,16.4471 -4.7427,7.7968 -2.5451,17.0564 -1.5035,24.1223 1.0415,7.0659 -2.429,13.8886 -2.429,13.8886 0,0 -8.098,-14.8635 -6.3623,-31.9192 1.7349,-17.0564 -5.2056,-31.0666 -20.9389,-41.1788 0,0 -11.4525,26.5592 4.1648,40.0824 0,0 13.3034,13.1575 16.658,29.1175 0,0 -10.0644,-0.9749 -19.2031,-18.7615 -9.1389,-17.7874 -28.1107,-14.9851 -29.3836,-15.1067 0,0 3.1239,27.5333 32.2753,35.331 0,0 18.6251,3.1679 22.0957,16.8125 0,0 3.1231,9.3812 4.3961,14.3757 0,0 -5.8997,-2.3145 -11.3373,-10.3552 -5.4369,-8.0408 -4.7427,-9.0158 -23.1365,-10.8432 0,0 -7.4038,-0.8534 -11.3372,-6.0918 0,0 7.7506,29.1176 27.6478,28.8737 0,0 18.1623,-1.949 28.342,21.9295 0,0 -1.9664,-1.2182 -4.6275,-3.0464 -2.6604,-1.8274 -9.3702,-5.2384 -22.6737,-3.6549 -13.3035,1.5836 -17.0055,-0.6094 -20.36,-1.7058 0,0 13.4189,24.6094 32.3914,17.2996 18.9718,-7.3099 28.1349,19.3451 28.3419,19.858 0,0 -2.5452,-1.9498 -5.8996,-5.2392 -3.3545,-3.2895 -10.3192,-7.3459 -23.4839,-3.1679 0,0 -9.4855,3.655 -19.0878,0.731 0,0 9.2548,17.909 30.887,14.8635 21.6321,-3.0462 27.0698,15.96 27.0698,15.96 0,0 -2.8918,-1.7059 -4.8589,-3.2894 -1.9662,-1.5835 -9.2549,-5.7262 -24.8713,-1.0965 -15.6172,4.6298 -21.2854,-0.731 -21.2854,-0.731 0,0 8.676,15.8377 25.3341,17.6651 0,0 9.2548,-0.1215 13.1874,-1.5835 3.9333,-1.4619 14.3443,-3.7765 21.5168,6.5788 0,0 -1.9663,0.3655 -4.9741,-0.9748 0,0 -11.105,-4.0205 -19.5506,3.0454 0,0 -7.5192,7.6753 -18.1623,6.2133 0,0 13.7662,13.4016 35.6297,2.0714 0,0 7.4039,-5.3608 12.8408,-1.218 5.4384,4.1451 18.0479,-4.018 18.0479,-4.018 z"
     id="path2" /><path
     fill="#f4c53d"
     stroke="#010002"
     stroke-width="3.33333"
     stroke-miterlimit="10"
     d="m 1922.5445,1079.8779 c 0,0 -2.5396,-22.673 15.5788,-24.8533 18.8949,-2.2746 28.2267,1.7059 28.2267,1.7059 l 8.4831,16.6501 -2.931,11.2086 -11.7223,5.3608 c 0,0 2.0054,-17.2188 -13.7789,-17.5772 -3.9992,-0.091 -6.3498,1.4949 -12.6752,0.491 -6.3616,-1.0102 -9.764,5.9803 -11.1812,7.0141 z"
     id="path3" /><path
     fill="#f4c53d"
     stroke="#010002"
     stroke-width="3.33333"
     stroke-miterlimit="10"
     d="m 2050.0259,1136.0009 c -2.6996,3.4926 -13.4964,4.7106 -13.4964,4.7106 0,0 11.1051,8.5279 15.887,20.7114 4.7819,12.1827 -128.7159,0.081 -128.7159,0.081 0,0 5.7843,-4.142 9.7176,-11.9396 0,0 -5.8996,2.193 -11.7992,-3.6549 0,0 4.396,1.462 10.1796,-7.3098 0,0 8.5607,-10.9646 14.5756,-13.8886 0,0 -2.7764,1.7059 -9.4854,-1.949 0,0 11.5686,-1.462 15.7325,-21.1985 0,0 0.6941,-4.3858 5.0902,-10.7207 4.396,-6.3357 3.4706,1.218 11.5686,-8.5287 0,0 3.702,-6.9034 0.4628,-11.127 -3.2393,-4.2235 -6.7098,-2.68 -13.4965,-6.7412 -6.7866,-4.0611 -9.7945,-6.3356 -7.4807,-12.589 2.3136,-6.2541 8.3293,-5.2792 9.1772,-5.2792 0.8486,0 1.3113,-5.4415 8.7153,-9.178 7.4039,-3.7364 27.0697,-2.1122 30,-0.4871 2.931,1.6243 14.8069,5.1169 21.7482,22.6604 6.9411,17.5436 -1.851,24.1223 17.0438,50.6 0,0 -7.5576,1.6243 -12.4164,0.1623 0,0 9.7937,17.3812 26.9921,25.6659 z"
     id="path4" /><path
     fill="none"
     stroke="#010002"
     stroke-width="2.35294"
     stroke-miterlimit="10"
     d="m 1967.4292,1061.9689 c -15.3859,-0.731 -9.4856,-15.3914 -9.4856,-15.3914"
     id="path5" /><path
     fill="#f4c53d"
     stroke="#010002"
     stroke-width="3.33333"
     stroke-miterlimit="10"
     d="m 1994.1515,1063.979 c 0,0 -2.7184,-1.2792 -5.0181,-4.3246 -3.2275,-4.2738 -10.4251,-6.3349 -14.3003,-2.3146 0,0 -3.9334,4.3859 -7.4039,4.6299 0,0 3.9333,1.218 6.6516,3.716 2.7185,2.4973 5.553,4.3248 9.6017,3.7765 4.0486,-0.5483 4.6854,-2.68 6.5937,-3.9592 1.909,-1.2808 3.8753,-1.524 3.8753,-1.524 z"
     id="path6" /><path
     fill="#f4c53d"
     stroke="#010002"
     stroke-width="3.33333"
     d="m 2094.2157,1283.0902 c 0,0 14.345,11.6957 26.3757,0 0,0 4.8587,5.8478 14.5756,4.1419 9.7177,-1.7059 11.3372,-6.8226 12.2628,-9.7466 0,0 8.4062,4.9043 15.5011,1.0306 7.0956,-3.8737 7.0956,-9.7207 7.0956,-9.7207 0,0 12.3397,2.4321 18.6636,-5.931 6.3239,-8.3631 2.4682,-16.6479 -0.9255,-17.6228 0,0 13.3411,3.4949 16.967,-7.9592 3.0848,-9.7467 -3.8564,-14.782 -3.8564,-14.782 0,0 28.1105,-0.1349 39.6407,-8.9341 0,0 9.5631,-6.0101 3.8565,-12.345 0,0 25.2956,-4.0612 31.6196,-14.1325 0,0 2.7764,-2.7617 1.851,-7.6346 0,0 -0.1546,-2.7615 -2.931,-2.9238 0,0 28.847,-4.4557 37.1725,-13.9703 0,0 4.0101,-4.3858 2.0055,-10.2337 0,0 -0.4244,-1.5435 -1.1185,-2.5788 0,0 26.2596,-5.5435 39.2156,-17.2392 0,0 7.4793,-6.6636 3.6236,-15.5977 0,0 43.8831,-12.0172 33.7035,-31.3474 0,0 20.5145,-6.6603 14.0361,-25.1779 0,0 16.967,-8.6095 9.5631,-22.2541 -7.0855,-13.0589 -28.8431,2.2736 -54.607,9.4023 0,0 -69.7129,21.949 -104.0438,27.7897 l -97.5466,145.2289 -56.9161,21.9294 z"
     id="path7" /><path
     fill="#f4c53d"
     stroke="#010002"
     stroke-width="3.33333"
     d="m 2093.5224,1176.1232 c 0,0 9.1427,-6.8635 25.4501,1.2182 0,0 5.4902,3.7803 9.8094,-0.3617 3.6087,-3.4611 3.9467,-9.8423 -1.0172,-13.527 -12.1467,-9.0157 -16.6589,-36.062 1.851,-47.2697 0,0 26.8383,-15.9192 125.2515,-40.964 0,0 8.2456,-2.2862 12.6417,-1.1898 4.8408,1.2071 8.1749,5.3608 8.8588,8.9146 0,0 4.4038,12.5144 -10.4016,19.6752 0,0 -6.6839,3.0589 -13.5733,5.0361 0,0 7.567,-1.6361 10.7969,5.8479 3.0846,7.1474 -1.3884,14.4572 -15.2699,19.1677 0,0 -3.7544,1.4612 -9.1003,2.7616 0,0 11.8768,3.411 6.1694,12.9953 0,0 -5.0902,10.0713 -23.0596,11.858 0,0 13.4187,1.462 3.9333,14.2133 0,0 -4.1647,6.9851 -17.2753,9.5843 0,0 9.9491,0.3248 4.9358,9.2589 -5.0126,8.9341 -16.8095,13.9701 -28.4174,14.7819 0,0 -6.2869,0.3248 -10.6831,-0.6502 0,0 11.0283,5.5232 4.5498,14.782 0,0 -4.7811,6.5788 -16.7349,6.2541 0,0 3.1028,10.3396 -5.6682,14.2541 -6.8251,3.0455 -12.4933,-1.8275 -12.4933,-1.8275 0,0 2.3138,11.0863 -7.6353,14.9851 0,0 -4.9741,2.5584 -12.378,0 0,0 -5.6682,12.6705 -25.7969,3.7764 -20.1301,-8.8925 -4.7434,-83.5748 -4.7434,-83.5748 z"
     id="path8" /><path
     fill="none"
     stroke="#010002"
     stroke-width="2.35294"
     d="m 2403.5503,1060.3846 c 0,0 -31.6196,18.3074 -130.0932,36.6148"
     id="path9" /><path
     fill="#f4c53d"
     stroke="#010002"
     stroke-width="3.33333"
     d="m 1838.8458,1384.1286 c 0,0 -11.7224,20.1426 -25.913,20.4674 0,0 -24.4093,-2.971 -31.3113,3.4109 -4.8126,4.451 -9.7177,8.1224 -11.7223,19.4933 -2.0048,11.371 3.8556,13.8079 5.2438,14.295 0,0 1.08,8.1223 9.1005,6.0101 0,0 0.4626,8.4471 14.6533,4.3859 14.1905,-4.0611 20.0516,-2.7616 22.8282,-16.8941 2.7764,-14.1325 5.3396,-13.9011 7.8667,-15.5944 3.3936,-2.2746 9.7685,-4.4236 14.4987,-7.1475 4.2495,-2.4471 20.5146,-10.7216 26.0667,-11.371 5.553,-0.6494 4.3184,-19.3302 4.3184,-19.3302 h -14.3443 l -6.9411,-10.2337 z"
     id="path10" /><path
     fill="none"
     stroke="#010002"
     stroke-width="2.35294"
     d="m 2389.5142,1085.5633 c 0,0 -85.5803,27.9169 -125.4352,31.3474 m 91.7317,0 c 0,0 -50.2046,15.76 -108.9968,25.7051 m 66.1568,7.1318 c 0,0 -56.723,13.6251 -83.803,15.8862"
     id="path11" /><path
     fill="none"
     stroke="#010002"
     stroke-width="2.35294"
     stroke-miterlimit="10"
     d="m 2274.9112,1176.5296 c 0,0 -47.9788,10.0062 -60.1348,11.2093"
     id="path12" /><path
     fill="#0081c6"
     stroke="#010002"
     stroke-width="3.33333"
     stroke-miterlimit="10"
     d="m 2220.9057,1249.5013 2.4023,76.13 -13.4423,-7.7984 -22.3795,96.6109 -9.2338,-6.6337 21.7851,-92.5576 -15.1905,0.2793 z"
     id="path13" /><path
     fill="none"
     stroke="#010002"
     stroke-width="2.35294"
     stroke-miterlimit="10"
     d="m 2244.3716,1201.2204 c 0,0 -35.0133,5.32 -48.9482,5.0354 m 5.4518,16.2446 c 0,0 -14.1569,-0.665 -20.96,-1.7944 m 7.8487,24.5364 c 0,0 -12.0315,-3.2487 -19.1264,-7.7969 m 1.389,31.3506 c 0,0 -9.2548,-3.5733 -13.7277,-13.3199 m -8.869,22.0101 c 0,0 -7.1726,-6.4165 -7.6353,-13.5639"
     id="path14" /><path
     fill="#0081c6"
     stroke="#010002"
     stroke-width="3.33333"
     stroke-miterlimit="10"
     d="m 2307.8538,1283.3546 -31.8156,68.4061 -8.3929,-13.5317 -67.1709,79.3701 -7.273,-8.142 66.9161,-78.3653 -13.5365,-7.2644 z"
     id="path15" /><path
     fill="none"
     stroke="#010002"
     stroke-width="2.35294"
     stroke-miterlimit="10"
     d="m 2120.5914,1283.0902 c 0,0 2.6854,-2.3161 0.8485,-12.3858"
     id="path16" /><path
     fill="#0081c6"
     stroke="#010002"
     stroke-width="3.33333"
     stroke-miterlimit="10"
     d="m 2278.8335,1233.1396 -16.3889,74.1914 -11.0683,-11.1969 -60.1183,115.5991 -9.2644,-5.4079 60.5231,-115.363 -14.7411,-3.8705 z"
     id="path17" /><path
     fill="none"
     stroke="#010002"
     stroke-width="2.35294"
     stroke-miterlimit="10"
     d="m 2124.0619,1255.9224 c 0,0 1.3882,-2.8831 0.9255,-7.4313"
     id="path18" /><path
     fill="#f4c53d"
     stroke="#010002"
     stroke-width="3.33333"
     d="m 1884.0237,1283.091 c 0,0 -14.3443,11.6957 -26.3756,0 0,0 -4.8588,5.8478 -14.5757,4.1419 -9.7169,-1.7059 -11.3373,-6.8227 -12.2627,-9.7466 0,0 -8.4063,4.9043 -15.5012,1.0306 -7.0957,-3.8738 -7.0957,-9.7215 -7.0957,-9.7215 0,0 -12.3396,2.4321 -18.6634,-5.931 -6.324,-8.3631 -2.4684,-16.6479 0.9254,-17.6228 0,0 -13.3412,3.4949 -16.9671,-7.9592 -3.0846,-9.7467 3.8566,-14.782 3.8566,-14.782 0,0 -28.1107,-0.1349 -39.6408,-8.9341 0,0 -9.5632,-6.0101 -3.8557,-12.345 0,0 -25.2957,-4.0612 -31.6196,-14.1325 0,0 -2.7764,-2.7617 -1.851,-7.6346 0,0 0.1546,-2.7615 2.9303,-2.9238 0,0 -28.8471,-4.4557 -37.1726,-13.9703 0,0 -4.0102,-4.3858 -2.0054,-10.2337 0,0 0.4242,-1.5435 1.1183,-2.5788 0,0 -26.2595,-5.5435 -39.2164,-17.2392 0,0 -7.4792,-6.6636 -3.6235,-15.5977 0,0 -43.8839,-12.0172 -33.7034,-31.3474 0,0 -20.5146,-6.6603 -14.0361,-25.1779 0,0 -16.9671,-8.6095 -9.5631,-22.2541 7.0854,-13.0589 28.8438,2.2736 54.6069,9.4023 0,0 69.7129,21.949 104.0439,27.7897 l 97.5466,145.2289 56.9159,21.9294 z"
     id="path19" /><path
     fill="none"
     stroke="#010002"
     stroke-width="2.35294"
     stroke-miterlimit="10"
     d="m 2174.654,1111.7163 c 0,0 -16.1952,6.498 -21.5937,15.4321 -5.3984,8.9341 -1.8431,17.6172 0,22.5992 0.9263,2.5036 12.3396,24.5082 -1.08,40.4274"
     id="path20" /><path
     fill="#f4c53d"
     stroke="#010002"
     stroke-width="3.33333"
     d="m 1884.7178,1176.124 c 0,0 -9.1427,-6.8635 -25.4502,1.2181 0,0 -5.4901,3.7804 -9.8085,-0.3616 -3.6087,-3.4611 -3.9475,-9.8424 1.0172,-13.527 12.1467,-9.0157 16.658,-36.062 -1.851,-47.2698 0,0 -26.8384,-15.9192 -125.2516,-40.9639 0,0 -8.2455,-2.2862 -12.6416,-1.1898 -4.8408,1.2071 -8.1749,5.3608 -8.8588,8.9146 0,0 -4.4038,12.5144 10.4016,19.6752 0,0 6.6839,3.0588 13.5733,5.0361 0,0 -7.5671,-1.6361 -10.7969,5.8478 -3.0846,7.1475 1.3883,14.4573 15.2698,19.1678 0,0 3.7545,1.4612 9.1004,2.7616 0,0 -11.8768,3.411 -6.1694,12.9953 0,0 5.0902,10.0713 23.0596,11.858 0,0 -13.4188,1.462 -3.9333,14.2133 0,0 4.1647,6.9851 17.2752,9.5843 0,0 -9.949,0.3248 -4.9357,9.2589 5.0126,8.9341 16.8095,13.9701 28.4181,14.7819 0,0 6.287,0.3247 10.6831,-0.6494 0,0 -11.0282,5.5231 -4.5497,14.7819 0,0 4.7811,6.5789 16.7356,6.2541 0,0 -3.1028,10.3404 5.6682,14.2541 6.8251,3.0456 12.4933,-1.8274 12.4933,-1.8274 0,0 -2.3137,11.0863 7.6353,14.9851 0,0 4.9742,2.5584 12.3781,0 0,0 5.6682,12.6705 25.7968,3.7764 20.127,-8.8941 4.7411,-83.5756 4.7411,-83.5756 z"
     id="path21" /><path
     fill="none"
     stroke="#010002"
     stroke-width="2.35294"
     stroke-miterlimit="10"
     d="m 2174.4226,1207.4747 c 0,0 -0.077,-0.081 -5.7843,-1.8684 m 39.949,-21.5231 c 0,0 -9.6533,1.9436 -19.1262,2.0306 m 32.4682,-25.8282 c 0,0 -11.3372,1.1373 -21.9796,0.9749 m 38.869,-25.8282 c 0,0 -16.3498,3.2486 -25.142,3.411 m 38.7153,-31.1882 c 0,0 -20.164,5.7553 -35.1678,7.7969 m -33.3161,11.858 c 0,0 14.4989,13.4823 -2.9309,25.9905 0,0 7.2493,11.371 -7.2494,23.2291"
     id="path22" /><path
     fill="#f4c53d"
     stroke="#010002"
     stroke-width="3.33333"
     d="m 1885.9124,1291.2746 c 0,0 -2.9538,15.8572 -26.3741,35.8164 0,0 -18.0707,15.9403 -17.6079,34.2956 0.4714,18.6918 -3.2392,20.7921 -10.3341,27.1279 0,0 14.6533,1.1372 21.7482,-8.6095 0,0 -0.3082,16.2439 -2.4682,17.7059 0,0 4.5953,0.2933 11.2597,-6.9851 0,0 4.0101,-4.2235 7.7121,-5.8479 0,0 -4.3185,11.2087 -0.9255,21.6048 0,0 1.08,-4.0612 6.7867,-5.8479 0,0 10.3341,-2.1121 14.345,-17.0564 0,0 2.622,-9.909 18.8173,-18.6808 0,0 18.3544,-6.9231 17.8925,-15.9694 -0.462,-9.0462 -40.8517,-57.5536 -40.8517,-57.5536 z"
     id="path23" /><path
     fill="none"
     stroke="#010002"
     stroke-width="2.35294"
     stroke-miterlimit="10"
     d="m 2177.5842,1182.1342 c 0,0 2.1592,21.6831 -24.3702,21.6847 0,0 5.0902,19.331 -20.5144,18.6815 0,0 -2.931,15.4314 -21.44,12.3451"
     id="path24" /><path
     fill="#f4c53d"
     stroke="#010002"
     stroke-width="3.33333"
     d="m 2139.4211,1384.1286 c 0,0 11.7223,20.1426 25.9129,20.4674 0,0 24.4094,-2.971 31.3114,3.4109 4.8126,4.451 9.7177,8.1224 11.7223,19.4933 2.0055,11.371 -3.8564,13.8071 -5.2446,14.295 0,0 -1.08,8.1223 -9.1005,6.0101 0,0 -0.4627,8.4471 -14.6533,4.3859 -14.1905,-4.0611 -20.0517,-2.7616 -22.8282,-16.8941 -2.7764,-14.1325 -5.3397,-13.9011 -7.8666,-15.5944 -3.3938,-2.2746 -9.7687,-4.4236 -14.4988,-7.1475 -4.2495,-2.4471 -20.5145,-10.7207 -26.0667,-11.371 -5.5529,-0.6494 -4.3192,-19.3302 -4.3192,-19.3302 h 14.3442 l 6.9413,-10.2337 z"
     id="path25" /><path
     fill="#f4c53d"
     stroke="#010002"
     stroke-width="3.33333"
     d="m 2092.3545,1291.2746 c 0,0 2.9537,15.8572 26.3741,35.8164 0,0 18.0705,15.9403 17.6079,34.2956 -0.4715,18.6918 3.2392,20.7921 10.3341,27.1279 0,0 -14.6534,1.1372 -21.7482,-8.6095 0,0 0.3082,16.2439 2.4682,17.7059 0,0 -4.5961,0.2933 -11.2597,-6.9851 0,0 -4.0102,-4.2235 -7.7121,-5.8479 0,0 4.3185,11.2087 0.9255,21.6048 0,0 -1.08,-4.0612 -6.7867,-5.8479 0,0 -10.3341,-2.1113 -14.3451,-17.0564 0,0 -2.6219,-9.909 -18.8172,-18.6808 0,0 -18.3553,-6.9231 -17.8925,-15.9694 0.4627,-9.0462 40.8517,-57.5536 40.8517,-57.5536 z"
     id="path26" /><path
     fill="none"
     stroke="#010002"
     stroke-width="2.35294"
     d="m 2152.0306,1404.596 c 0,0 4.1975,0.9341 13.3034,0"
     id="path27" /><path
     fill="none"
     stroke="#010002"
     stroke-width="2.35294"
     stroke-miterlimit="10"
     d="m 2190.9387,1415.9669 c 0,0 12.8024,-1.949 12.1851,25.8283 m -19.8973,-19.4933 c 0,0 11.5687,-1.462 10.7969,25.5034"
     id="path28" /><path
     fill="none"
     stroke="#010002"
     stroke-width="2.35294"
     d="m 2071.5545,1357.3262 c 0,0 5.5529,1.1373 9.4095,5.5232 3.8556,4.3859 11.2595,3.5733 11.2595,3.5733 0,0 -4.0102,-3.2486 -5.3984,-11.371 -1.3883,-8.1223 -5.8611,-10.5584 -5.8611,-10.5584 m 13.2462,-7.6918 c 0,0 5.553,1.1372 9.4086,5.5231 3.8557,4.3859 11.2596,3.5734 11.2596,3.5734 0,0 -4.0102,-3.2486 -5.3985,-11.371 -1.3882,-8.1224 -5.8611,-10.5584 -5.8611,-10.5584 m -5.5906,44.3623 c 0,0 4.8486,0.9929 8.215,4.8227 3.367,3.8291 9.8313,3.12 9.8313,3.12 0,0 -3.502,-2.8368 -4.7138,-9.9278 -1.2117,-7.0917 -5.1175,-9.2189 -5.1175,-9.2189"
     id="path29" /><path
     fill="#f4c53d"
     stroke="#010002"
     stroke-width="3.33333"
     stroke-miterlimit="10"
     d="m 2007.2785,1495.7253 c 0,0 4.2048,18.5545 18.8181,17.0565 0,0 10.3341,-0.975 9.5631,-18.1938 0,0 15.2697,8.1224 17.738,-12.0203 0,0 13.8815,3.2486 13.7278,-15.5945 0,0 12.9569,2.2745 11.4141,-14.4572 0,0 14.0361,3.7356 14.0361,-12.0205 0,0 32.8533,-5.4486 -35.6298,-67.9002 l -61.08,36.3866 z"
     id="path30" /><path
     fill="#f4c53d"
     stroke="#010002"
     stroke-width="3.33333"
     d="m 2000.4918,1412.4579 c 0,0 10.1797,9.0322 17.429,-4.451 0,0 9.8714,-0.487 11.4141,-7.9591 0,0 8.0212,-0.8126 9.5632,-8.4471 0,0 10.9513,-1.1372 10.6431,-10.3961 0,0 19.9098,-1.5372 0.011,-24.0784 -19.9034,-22.5419 -53.683,37.3992 -53.683,37.3992 z"
     id="path31" /><path
     fill="none"
     stroke="#010002"
     stroke-width="2.35294"
     stroke-miterlimit="10"
     d="m 2035.6597,1494.588 c 0,0 -1.5428,-32.6509 -29.8408,-79.4336 m 47.5788,67.4133 c 0,0 4.3961,-18.8432 -35.4761,-74.5599 0,0 4.6275,-13.32 -9.5631,-21.8487 m 58.7663,80.8141 c 0,0 1.2336,-20.3867 -37.789,-66.9254 0,0 3.447,-12.0204 -10.6933,-21.6048 m 59.8964,74.073 c 0,0 -1.4652,-20.6299 -39.6408,-60.9153 0,0 1.9098,-12.3451 -11.7702,-19.9804 m 65.4469,68.8752 c 0,0 -2.7764,-23.5536 -43.0336,-59.2909 0,0 1.3882,-9.2588 -12.0313,-18.6808"
     id="path32" /><path
     fill="#f4c53d"
     stroke="#010002"
     stroke-width="3.33333"
     stroke-miterlimit="10"
     d="m 1970.9875,1495.7253 c 0,0 -4.2046,18.5545 -18.8172,17.0565 0,0 -10.3341,-0.975 -9.5631,-18.1938 0,0 -15.2697,8.1224 -17.738,-12.0203 0,0 -13.8816,3.2486 -13.7278,-15.5945 0,0 -12.9569,2.2745 -11.4141,-14.4572 0,0 -14.0361,3.7364 -14.0361,-12.0205 0,0 -32.8533,-5.4486 35.6297,-67.9002 l 61.0799,36.3866 z"
     id="path33" /><path
     fill="#f4c53d"
     stroke="#010002"
     stroke-width="3.33333"
     d="m 1977.775,1412.4579 c 0,0 -10.1796,9.0322 -17.4298,-4.4501 0,0 -9.8713,-0.4871 -11.4133,-7.9592 0,0 -8.0211,-0.8126 -9.5631,-8.4471 0,0 -10.9514,-1.1373 -10.6431,-10.3961 0,0 -19.9098,-1.5373 -0.011,-24.0785 19.9035,-22.5418 53.6831,37.3985 53.6831,37.3985 z"
     id="path34" /><path
     fill="none"
     stroke="#010002"
     stroke-width="2.35294"
     stroke-miterlimit="10"
     d="m 1942.6072,1494.588 c 0,0 1.542,-32.6509 29.8408,-79.4336 m -47.5788,67.4133 c 0,0 -4.3961,-18.8432 35.476,-74.5599 0,0 -4.6274,-13.32 9.5631,-21.8479"
     id="path35" /><path
     fill="#f4c53d"
     stroke="#010002"
     stroke-width="3.33333"
     d="m 1989.1334,1406.8705 c 9.8682,0 21.0502,61.6462 18.1482,98.7865 -1.0541,13.4887 -8.28,24.5059 -18.1482,24.5059 -9.8682,0 -17.0941,-11.0172 -18.1482,-24.5059 -2.9019,-37.1403 8.28,-98.7865 18.1482,-98.7865"
     id="path36" /><path
     fill="none"
     stroke="#010002"
     stroke-width="2.35294"
     stroke-miterlimit="10"
     d="m 1911.1414,1466.9732 c 0,0 -1.2338,-20.3867 37.7897,-66.9254 0,0 -3.447,-12.0204 10.6933,-21.6048 m -59.8971,74.073 c 0,0 1.4651,-20.6299 39.6407,-60.9153 0,0 -1.9098,-12.3451 11.7702,-19.9804"
     id="path37" /><ellipse
     fill="#f4c53d"
     stroke="#010002"
     stroke-width="3.33333"
     cx="1989.1334"
     cy="1406.3827"
     rx="13.654888"
     ry="20.223509"
     id="ellipse37" /><path
     fill="none"
     stroke="#010002"
     stroke-width="2.35294"
     stroke-miterlimit="10"
     d="m 1885.6912,1440.4955 c 0,0 2.7764,-23.5536 43.0337,-59.2909 0,0 -1.3882,-9.2588 12.0313,-18.6808"
     id="path38" /><path
     fill="#ffffff"
     stroke="#010002"
     stroke-width="3.33333"
     d="m 1989.1334,1401.9653 c 0,0 115.8117,-51.3199 116.1011,-170.0429 h -232.2021 c 0.2893,118.723 116.101,170.0429 116.101,170.0429 z"
     id="path39" /><path
     fill="none"
     stroke="#010002"
     stroke-width="2.35294"
     stroke-miterlimit="10"
     d="m 1926.6175,1231.9216 h 17.8618 m -53.585,0 h 17.8619 m 53.5851,0 h 17.8612"
     id="path40" /><path
     fill="#a60032"
     stroke="#010002"
     stroke-width="3.33333"
     d="m 1890.8943,1231.9216 v 75.858 c 0,0 8.8706,17.5937 17.8619,28.6274 v -104.4854 z m 35.7232,0 v 125.047 c 0,0 11.1701,10.9529 17.8618,16.2329 v -141.2799 z m 35.7238,0 v 154.5693 c 0,0 12.7435,8.2306 17.862,10.931 v -165.5003 z"
     id="path41" /><path
     fill="none"
     stroke="#010002"
     stroke-width="2.35294"
     d="m 1890.8943,1231.9216 h 17.8619 m 17.8613,0 h 17.8618 m 17.862,0 h 17.8612"
     id="path42" /><path
     fill="#a60032"
     stroke="#010002"
     stroke-width="3.33333"
     d="m 2087.3725,1231.9216 v 75.858 c 0,0 -8.8705,17.5937 -17.8611,28.6274 v -104.4854 z m -35.7238,0 v 125.047 c 0,0 -11.1703,10.9529 -17.862,16.2329 v -141.2799 z m -35.7231,0 v 154.5693 c 0,0 -12.7436,8.2306 -17.862,10.931 v -165.5003 z"
     id="path43" /><path
     fill="none"
     d="m 2111.4682,1516.7708 -10.7584,13.1576 m -13.3373,-14.6188 29.6479,27.4102"
     id="path44"
     style="stroke-width:0.784313" /><path
     fill="#0081c6"
     stroke="#010002"
     stroke-width="3.33333"
     stroke-miterlimit="10"
     d="m 2176.3678,1446.9826 -4.5036,18.4118 12.3287,12.2815 -17.4244,73.5992 -15.4979,-20.8173 -22.964,10.7176 17.4243,-73.5991 16.1545,-4.5043 4.1945,-18.3788 c 0,0 4.8863,-1.9138 10.2879,2.2894 z"
     id="path45" /><path
     fill="#0081c6"
     stroke="#010002"
     stroke-width="3.33333"
     stroke-miterlimit="10"
     d="m 2180.4956,1434.8414 -8.8745,16.5569 8.8902,15.2235 -34.9184,66.3419 -9.8541,-24.3318 -24.8156,4.0933 34.9183,-66.3418 16.7106,0.052 8.5678,-16.6094 c 8e-4,0 6.2337,-0.013 9.3757,5.0149 z"
     id="path46" /><path
     fill="#0081c6"
     stroke="#010002"
     stroke-width="3.33333"
     stroke-miterlimit="10"
     d="m 2181.9936,1439.6563 -23.6046,29.9882 5.4101,16.9397 -48.1936,56.3692 -4.404,-26.0431 -25.0533,-1.891 48.1937,-56.3692 16.2713,4.0101 25.0384,-31.8352 c -7e-4,8e-4 6.7146,3.3356 6.342,8.8313 z"
     id="path47" /><path
     fill="none"
     stroke="#010002"
     stroke-width="2.35294"
     d="m 1574.6899,1060.3854 c 0,0 31.6196,18.3074 130.0932,36.6148 m -116.0571,-11.4369 c 0,0 85.5803,27.9169 125.4351,31.3474 m -91.7316,0 c 0,0 50.2046,15.76 108.9967,25.7051 m -66.1576,7.1318 c 0,0 56.7232,13.6243 83.8031,15.8862"
     id="path48" /><path
     fill="none"
     stroke="#010002"
     stroke-width="2.35294"
     stroke-miterlimit="10"
     d="m 1703.3282,1176.5304 c 0,0 47.9788,10.0062 60.1349,11.2093 m -29.5946,13.4816 c 0,0 35.0133,5.32 48.9483,5.0352 m -5.4518,16.2439 c 0,0 14.1568,-0.665 20.96,-1.7944 m -7.8494,24.5364 c 0,0 12.0313,-3.2487 19.1262,-7.7969 m -1.3882,31.3506 c 0,0 9.2548,-3.5733 13.7278,-13.3199 m 8.869,22.0108 c 0,0 7.1726,-6.4164 7.6354,-13.5638 m 19.2031,19.1678 c 0,0 -2.6855,-2.3161 -0.8487,-12.3859 m -2.6219,-14.7827 c 0,0 -1.3882,-2.8831 -0.9256,-7.4313 m -49.6666,-136.7748 c 0,0 16.1953,6.4972 21.5938,15.4313 5.3984,8.9341 1.8431,17.6172 0,22.5992 -0.9263,2.5036 -12.3397,24.5082 1.08,40.4274 m -22.4423,17.3005 c 0,0 0.077,-0.081 5.7842,-1.8684 m -39.949,-21.5231 c 0,0 9.6534,1.9436 19.1263,2.0306 m -32.4681,-25.8282 c 0,0 11.3372,1.1373 21.9795,0.9749"
     id="path49" /><path
     fill="#369443"
     stroke="#010002"
     stroke-width="2.35294"
     stroke-miterlimit="10"
     d="m 1798.4481,1443.6768 c 0,0 -0.3466,-9.8675 12.1459,-10.5985 l 36.7851,51.1662 c 0,0 -1.3882,3.2894 -18.0456,2.924 0,0 -1.7638,-0.012 -2.6893,1.9372 -1.4212,2.9921 -28.1961,-45.4289 -28.1961,-45.4289 z"
     id="path50" /><path
     fill="none"
     stroke="#010002"
     stroke-width="2.35294"
     stroke-miterlimit="10"
     d="m 1739.4215,1135.4323 c 0,0 16.3498,3.2486 25.142,3.411 m -38.7153,-31.1882 c 0,0 20.1639,5.7553 35.1679,7.7969 m 33.3159,11.8587 c 0,0 -14.4987,13.4824 2.9302,25.9907 0,0 -7.2494,11.3709 7.2495,23.229 m -3.8557,5.6046 c 0,0 -2.1592,21.6831 24.3701,21.6847 0,0 -5.0901,19.3309 20.5145,18.6816 0,0 2.9303,15.4321 21.44,12.345"
     id="path51" /><path
     fill="none"
     stroke="#010002"
     stroke-width="2.35294"
     d="m 1826.1979,1404.596 c 0,0 -4.1977,0.9341 -13.3036,0"
     id="path52" /><path
     fill="none"
     stroke="#010002"
     stroke-width="2.35294"
     stroke-miterlimit="10"
     d="m 1787.2905,1415.9669 c 0,0 -12.8023,-1.949 -12.1851,25.8283 m 19.8973,-19.4933 c 0,0 -11.5687,-1.462 -10.7969,25.5026"
     id="path53" /><path
     fill="none"
     stroke="#010002"
     stroke-width="2.35294"
     d="m 1906.7124,1357.3254 c 0,0 -5.553,1.1373 -9.4087,5.5232 -3.8557,4.3859 -11.2595,3.5733 -11.2595,3.5733 0,0 4.0101,-3.2486 5.3984,-11.3709 1.3882,-8.1224 5.8611,-10.5585 5.8611,-10.5585 m -13.247,-7.691 c 0,0 -5.553,1.1372 -9.4086,5.5231 -3.8557,4.3859 -11.2597,3.5734 -11.2597,3.5734 0,0 4.0102,-3.2486 5.3984,-11.371 1.3883,-8.1224 5.8613,-10.5584 5.8613,-10.5584 m 5.5905,44.3616 c 0,0 -4.8485,0.9928 -8.2149,4.8218 -3.367,3.8299 -9.8313,3.12 -9.8313,3.12 0,0 3.5019,-2.8367 4.7137,-9.9285 1.2117,-7.0918 5.1176,-9.2189 5.1176,-9.2189"
     id="path54" /><path
     fill="#162667"
     stroke="#010002"
     stroke-width="2.35294"
     stroke-miterlimit="10"
     d="m 2105.2345,1145.666 c 0,0 -56.8282,29.7262 -116.1011,-2.4368 -59.2728,32.163 -116.101,2.4368 -116.101,2.4368 v 86.2556 h 232.2021 z"
     id="path55" /><path
     fill="#0081c6"
     stroke="#010002"
     stroke-width="3.33333"
     stroke-miterlimit="10"
     d="m 1583.8829,1369.3513 c 5.6274,-2.2972 9.68,-4.5145 9.6627,-10.5192 0,-1.4314 -0.7993,-4.5985 -2.396,-9.5011 l -37.7859,-115.4823 c -2.2377,-6.8604 -3.9294,-10.9388 -4.7138,-12.4416 -1.6987,-3.2525 -5.0328,-4.5765 -9.5238,-6.447 h 48.025 c -5.2173,2.4651 -9.9733,4.4228 -9.9286,9.9536 0.017,2.1123 0.611,5.0903 1.8361,8.9358 l 28.9466,90.6203 28.9184,-90.6203 c 1.225,-3.8455 1.858,-6.8235 1.8376,-8.9358 -0.056,-5.6846 -5.0086,-7.7333 -9.8752,-9.9536 h 46.5435 c -4.2558,1.7051 -7.724,3.0415 -9.5059,6.447 -0.7859,1.5028 -2.4761,5.5812 -4.713,12.4416 l -37.7858,115.4823 c -1.5985,4.9018 -2.1765,8.1231 -2.3969,9.6141 0,0 -1.7388,7.3035 9.6627,10.4054 z m 805.2383,-11.8768 v -130.7521 c 0,-2.262 -0.3733,-3.9961 -1.1175,-5.2031 -0.7459,-1.2055 -3.9923,-4.6815 -8.6236,-6.56 h 43.2744 c -4.6321,1.5333 -7.8791,5.2596 -8.6234,6.5036 -0.7459,1.2439 -1.1177,2.9967 -1.1177,5.2595 v 130.7521 c 0,2.338 0.3851,4.1286 1.1577,5.3724 0.771,1.244 3.9521,4.2809 8.5834,6.5036 h -43.2744 c 4.6321,-2.1074 7.8777,-5.3529 8.6236,-6.56 0.7442,-1.2047 1.1175,-2.978 1.1175,-5.316 z"
     id="path56" /></svg>
