<?xml version="1.0" encoding="UTF-8" standalone="no"?>
<svg
   version="1.0"
   width="1000"
   height="600"
   viewBox="0 0 1583.3333 950"
   id="svg10"
   sodipodi:docname="vu.svg"
   inkscape:version="1.3.2 (091e20e, 2023-11-25, custom)"
   xmlns:inkscape="http://www.inkscape.org/namespaces/inkscape"
   xmlns:sodipodi="http://sodipodi.sourceforge.net/DTD/sodipodi-0.dtd"
   xmlns:xlink="http://www.w3.org/1999/xlink"
   xmlns="http://www.w3.org/2000/svg"
   xmlns:svg="http://www.w3.org/2000/svg">
  <defs
     id="defs10" />
  <sodipodi:namedview
     id="namedview10"
     pagecolor="#505050"
     bordercolor="#eeeeee"
     borderopacity="1"
     inkscape:showpageshadow="0"
     inkscape:pageopacity="0"
     inkscape:pagecheckerboard="0"
     inkscape:deskcolor="#505050"
     inkscape:zoom="0.76125"
     inkscape:cx="300.1642"
     inkscape:cy="180.62397"
     inkscape:window-width="2560"
     inkscape:window-height="1417"
     inkscape:window-x="3832"
     inkscape:window-y="313"
     inkscape:window-maximized="1"
     inkscape:current-layer="svg10" />
  <path
     fill="#d21034"
     d="M 0,0 H 1583.3333 V 475 H 0 Z"
     id="path1"
     style="stroke-width:1.66667" />
  <path
     fill="#009543"
     d="M 0,475 H 1583.3333 V 950 H 0 Z"
     id="path2"
     style="stroke-width:1.66667" />
  <path
     d="M 0,0 921.355,475 0,950 Z"
     id="path3"
     style="stroke-width:1.66667" />
  <path
     d="M 0,390 H 1583.3333 V 560 H 0 Z"
     id="path4"
     style="stroke-width:1.66667" />
  <path
     d="M 0,67.503333 790.41833,475 0,882.49333 Z"
     fill="#fdce12"
     id="path5"
     style="stroke-width:1.66667" />
  <path
     fill="#fdce12"
     d="m 0,450 h 1583.3333 v 50 H 0 Z"
     id="path6"
     style="stroke-width:1.66667" />
  <path
     d="M 0,123.75833 681.30333,475 0,826.24167 Z"
     id="path7"
     style="stroke-width:1.66667" />
  <path
     d="M 192.46833,565.87333 V 620 c 47.08834,0 139.5,-36.08333 139.5,-152.26 C 331.96833,351.56333 233.395,330 203.91,330 174.42667,330 83.333333,351.12333 83.333333,446.17667 c 0,95.05333 89.333337,103.855 106.934997,103.855 17.60167,0 83.61167,-15.84334 76.13167,-87.13334 0,20.24334 -22.88333,62.93 -70.85167,62.93 -47.96666,0 -77.89,-35.64666 -77.89,-70.85 0,-35.20666 29.04334,-82.29333 79.65,-82.29333 50.60667,0 87.57167,44.885 87.57167,90.21333 0,45.32667 -35.64333,102.975 -92.41167,102.975 z"
     fill="#fdce12"
     id="path8"
     style="stroke-width:1.66667" />
  <g
     id="a"
     fill="#fdce12"
     transform="scale(1.6666667)">
    <path
       d="m 90.728,297.245 1.683,1.089 c 0,0 13.367,-30.496 49.309,-52.18 -4.555,2.475 -28.615,14.456 -50.992,51.091 z"
       stroke="#fdce12"
       id="path9" />
    <path
       d="m 94.193,291.997 c 0,0 -4.158,-8.515 -0.495,-12.277 3.664,-3.763 1.981,10 1.981,10 l 1.584,-2.277 c 0,0 -2.476,-10.397 0.297,-12.575 2.772,-2.178 1.386,10 1.386,10 l 1.683,-2.178 c 0,0 -1.782,-10.099 0.891,-11.981 2.674,-1.881 0.991,9.506 0.991,9.506 l 1.98,-2.278 c 0,0 -1.485,-9.604 1.782,-11.881 3.268,-2.278 0.396,9.109 0.396,9.109 l 2.178,-2.376 c 0,0 -0.99,-8.813 1.783,-10.793 2.772,-1.98 0.396,8.317 0.396,8.317 l 1.98,-2.079 c 0,0 -0.594,-8.218 2.079,-10.099 2.674,-1.882 0.198,7.822 0.198,7.822 l 2.08,-1.981 c 0,0 -0.495,-8.218 2.871,-9.802 3.366,-1.584 -0.594,7.723 -0.594,7.723 l 2.277,-1.98 c 0,0 0.693,-9.604 3.565,-10.496 2.871,-0.891 -1.287,8.516 -1.287,8.516 l 2.079,-1.684 c 0,0 1.089,-8.218 4.257,-9.208 3.169,-0.99 -1.98,7.525 -1.98,7.525 l 2.079,-1.584 c 0,0 2.278,-8.218 5.248,-9.109 2.971,-0.891 -3.069,7.723 -3.069,7.723 l 1.98,-1.386 c 0,0 3.267,-7.427 5.941,-7.922 2.673,-0.495 -2.971,6.139 -2.971,6.139 l 2.476,-1.485 c 0,0 4.257,-7.723 5.743,-5.347 1.485,2.377 -5.941,5.842 -5.941,5.842 l -2.476,1.386 c 0,0 9.011,-4.257 10.1,-2.079 1.089,2.178 -12.377,3.565 -12.377,3.565 l -2.178,1.485 c 0,0 9.01,-2.476 7.921,-0.198 -1.089,2.277 -10,1.782 -10,1.782 l -2.08,1.485 c 0,0 9.01,-2.178 7.822,-0.099 -1.188,2.079 -10,1.881 -10,1.881 l -2.178,1.783 c 0,0 8.812,-2.278 7.525,0.396 -1.288,2.673 -11.288,2.574 -11.288,2.574 l -2.475,2.277 c 0,0 9.307,-3.168 8.515,-0.693 -0.792,2.476 -11.387,3.763 -11.387,3.763 l -2.376,2.376 c 0,0 10,-3.366 7.03,-0.297 -2.97,3.07 -10.198,3.862 -10.198,3.862 l -2.872,3.465 c 0,0 9.902,-5.941 8.515,-2.574 -1.386,3.366 -11.089,5.644 -11.089,5.644 l -1.98,2.376 c 0,0 8.911,-5.149 8.02,-2.277 -0.891,2.871 -10.397,5.94 -10.397,5.94 l -1.584,2.179 c 0,0 10.495,-6.238 9.604,-3.07 -0.891,3.169 -10.891,5.446 -10.891,5.446 l -1.287,1.98 c 0,0 9.703,-5.544 9.802,-2.871 0.099,2.673 -11.387,5.347 -11.387,5.347 z"
       id="path10" />
  </g>
  <use
     xlink:href="#a"
     transform="matrix(-1,0,0,1,397.5,0)"
     id="use10" />
</svg>
