<?xml version="1.0" encoding="UTF-8" standalone="no"?>
<svg
   width="1000"
   height="600"
   viewBox="0 0 240 144"
   fill="#ffffff"
   version="1.1"
   id="svg6"
   sodipodi:docname="ws.svg"
   inkscape:version="1.3.2 (091e20e, 2023-11-25, custom)"
   xmlns:inkscape="http://www.inkscape.org/namespaces/inkscape"
   xmlns:sodipodi="http://sodipodi.sourceforge.net/DTD/sodipodi-0.dtd"
   xmlns:xlink="http://www.w3.org/1999/xlink"
   xmlns="http://www.w3.org/2000/svg"
   xmlns:svg="http://www.w3.org/2000/svg">
  <sodipodi:namedview
     id="namedview6"
     pagecolor="#505050"
     bordercolor="#eeeeee"
     borderopacity="1"
     inkscape:showpageshadow="0"
     inkscape:pageopacity="0"
     inkscape:pagecheckerboard="0"
     inkscape:deskcolor="#505050"
     inkscape:zoom="0.380625"
     inkscape:cx="-403.28407"
     inkscape:cy="784.23645"
     inkscape:window-width="2560"
     inkscape:window-height="1417"
     inkscape:window-x="3832"
     inkscape:window-y="313"
     inkscape:window-maximized="1"
     inkscape:current-layer="svg6" />
  <defs
     id="defs1">
    <path
       id="a"
       d="M 0,-0.951 0.309,0 -0.5,-0.588 h 1 L -0.309,0 Z" />
    <path
       id="b"
       d="M 0,0 0.309,0.951 -0.5,0.363 h 1 l -0.809,0.588 z" />
  </defs>
  <path
     fill="#ce1126"
     d="M 0,0 H 240 V 144 H 0 Z"
     id="path1"
     style="stroke-width:0.912871" />
  <path
     fill="#002b7f"
     d="M 0,0 H 120 V 72 H 0 Z"
     id="path2"
     style="stroke-width:0.912871" />
  <use
     xlink:href="#a"
     transform="matrix(20,0,0,20,60,69)"
     id="use2" />
  <use
     xlink:href="#b"
     transform="matrix(16,0,0,16,38,21)"
     id="use3" />
  <use
     xlink:href="#b"
     transform="matrix(16,0,0,16,60,3)"
     id="use4" />
  <use
     xlink:href="#b"
     transform="matrix(15,0,0,15,82.5,18)"
     id="use5" />
  <use
     xlink:href="#a"
     transform="matrix(10,0,0,10,71,46)"
     id="use6" />
</svg>
