<?xml version="1.0" encoding="UTF-8" standalone="no"?>
<svg
   height="600"
   width="1000"
   version="1.1"
   id="svg3"
   sodipodi:docname="xk.svg"
   inkscape:version="1.3.2 (091e20e, 2023-11-25, custom)"
   xmlns:inkscape="http://www.inkscape.org/namespaces/inkscape"
   xmlns:sodipodi="http://sodipodi.sourceforge.net/DTD/sodipodi-0.dtd"
   xmlns="http://www.w3.org/2000/svg"
   xmlns:svg="http://www.w3.org/2000/svg">
  <defs
     id="defs3" />
  <sodipodi:namedview
     id="namedview3"
     pagecolor="#505050"
     bordercolor="#eeeeee"
     borderopacity="1"
     inkscape:showpageshadow="0"
     inkscape:pageopacity="0"
     inkscape:pagecheckerboard="0"
     inkscape:deskcolor="#505050"
     inkscape:zoom="0.35974058"
     inkscape:cx="-656.02831"
     inkscape:cy="990.99191"
     inkscape:window-width="2560"
     inkscape:window-height="1417"
     inkscape:window-x="3832"
     inkscape:window-y="313"
     inkscape:window-maximized="1"
     inkscape:current-layer="svg3" />
  <path
     fill="#244aa5"
     d="M 0,0 H 1000 V 600 H 0 Z"
     id="path1"
     style="stroke-width:1.09109" />
  <path
     d="m 505.40379,169.09744 c 4.18285,4.88019 6.98292,9.758 6.98292,15.69015 -3.51169,1.73621 -8.36332,2.44426 -11.16339,5.5811 17.43469,-2.44545 20.9083,17.77146 40.43382,10.09953 0.70924,2.80007 3.5105,5.24433 6.98173,4.18761 l 2.09083,-5.5692 c 7.65408,-2.08964 5.56325,10.45415 13.95989,8.0087 4.18523,3.49146 1.38516,9.40933 4.18523,13.61003 0,4.87186 2.09202,9.05352 4.18047,13.23518 2.09321,-2.4276 3.4748,-5.91906 8.36332,-4.87305 3.47361,3.82823 6.27368,7.3185 6.97935,11.50016 -1.4161,8.02655 -3.50693,14.98924 4.8552,19.1709 v 2.44426 c 5.60133,2.44545 18.14631,-2.44426 18.14631,7.3185 -0.71162,3.49146 3.47123,0.35462 4.88971,2.44545 3.47361,-1.40063 8.36332,-0.6902 12.54379,-0.6902 3.47361,7.3185 -4.18047,12.54379 -6.2713,19.1709 3.47123,3.47361 2.09083,9.76276 1.38159,13.92538 l -2.09202,1.04601 c 5.56325,1.04482 12.5426,-0.67235 17.43588,2.4633 l 9.07256,3.47242 c 4.18047,-2.42522 9.03567,-2.79888 14.63462,-2.42522 4.18166,3.13684 -1.41729,8.36213 2.09202,10.78973 4.8909,0 9.07256,0.71043 9.74491,4.89209 l 0.70805,1.3804 c 3.47361,-6.27249 13.25422,-2.09202 17.43707,-6.60688 6.98054,0 8.36094,7.65408 11.83336,11.83574 1.41967,10.82543 -11.83336,15.71871 -7.65289,26.50725 -2.80007,5.22529 -8.36332,9.40933 -12.54379,14.29904 1.3804,0.70924 0.67116,2.4276 0.67116,3.47242 -4.18166,2.46449 -0.67116,9.7818 -6.27249,10.45653 -0.67235,4.55294 -9.03567,2.79888 -6.2713,7.6874 5.59776,7.3185 -2.76437,11.83693 -2.76437,18.48189 -3.5105,3.84489 -10.49104,-3.5105 -10.49104,3.84489 -4.18166,1.04482 -8.36213,-3.8437 -11.1265,0.33796 -1.4161,4.8909 2.76437,6.60807 2.09202,11.49897 6.94484,-0.71043 9.03567,6.2713 11.83574,10.45415 l 6.98173,6.98054 c -6.98173,5.56325 -16.05429,-0.71043 -24.4188,2.42641 -2.09083,-1.04482 0,-3.808 -2.09083,-4.85282 -2.09202,-2.46568 -6.2713,-2.46568 -9.74491,-3.13922 0.67235,3.13922 -5.59895,4.18285 -2.79888,7.99085 0,1.04482 1.3804,4.18166 -1.38278,4.18166 -5.60014,1.75525 -4.8909,-4.85282 -9.7818,-2.4276 -6.2713,2.4276 -1.3804,11.83693 -10.45296,10.79092 1.3804,8.4014 -13.92657,13.96465 -3.47361,21.28196 1.3804,1.38278 0.67235,4.18166 0.67235,6.2713 -6.27368,5.60133 -17.40137,3.5105 -24.38072,1.41848 -5.60014,-1.41729 -2.09083,-8.39902 -4.18047,-12.20702 -2.09202,-3.5105 -8.36332,-5.93691 -8.36332,-10.82781 -4.18523,-1.71955 -7.69097,-2.7965 -10.49104,-6.27249 -9.74372,9.40814 -21.61397,18.4807 -35.54411,18.81628 -6.2713,3.13684 -9.78061,15.7199 -19.52552,10.48985 -3.82704,6.27487 -15.34505,0 -16.03644,9.03805 -4.53628,1.75406 -2.44545,7.68978 -5.22648,10.45296 -1.04601,6.98054 0,12.91626 5.91787,17.1003 2.44426,5.22529 -5.22767,5.22529 -2.09202,10.11857 0.71043,1.71836 0,4.18047 -1.04482,4.88971 -2.09083,1.04482 -2.78103,2.09202 -2.09083,4.18166 -1.73621,0 -2.44307,1.04482 -3.82704,2.42641 -1.75525,3.47242 -7.3185,5.22648 -11.1622,7.65408 -3.82823,1.04482 -6.6283,-1.71836 -9.0559,-4.18166 -0.70924,3.84489 -3.8437,5.93691 -7.67074,5.93691 -5.58229,0 -4.53628,-4.8909 -8.71913,-6.98173 1.7374,-6.27249 -3.8437,-9.03567 -2.09083,-14.637 4.53509,-3.47123 12.19036,-5.93453 10.09953,-13.25184 -4.87186,-5.90002 -3.13565,-14.637 -8.0087,-21.61754 -3.13565,-2.76318 -8.36213,-6.94365 -6.62711,-13.5898 4.53628,-5.22648 0,-11.49897 -2.44426,-17.06222 -1.04482,-4.55413 -3.82704,-8.7346 -3.82704,-13.96346 -7.67193,-4.51724 -8.02774,-16.38987 -18.83532,-17.43469 -7.67193,0 -9.05352,-9.7461 -16.72664,-9.07375 -0.70805,-1.3804 -2.44426,-2.42522 -3.8437,-3.808 -5.56325,3.808 -12.54498,-1.04482 -19.50886,0.67235 -4.53628,-7.65408 3.82704,-18.10823 -8.38117,-22.66355 v -4.85282 c 1.40063,0.67116 2.09083,-0.71162 2.44545,-1.41967 0.6902,-5.22648 -8.71913,-5.89883 -4.87186,-11.83574 -2.09202,-1.75406 -4.53628,-2.4633 -3.13684,-5.93572 -5.24433,-10.79092 -20.92615,-9.74491 -24.41642,-20.57153 2.79888,-2.42522 2.79888,-4.8909 3.84608,-6.98054 -2.44664,-4.18285 -3.13684,-8.70009 -2.44664,-13.21733 2.44664,-0.71043 3.82704,-3.84489 5.22767,-6.31057 -3.13684,-2.08964 -6.96507,-5.22529 -10.45534,-4.18047 -6.2713,-1.04482 -10.80877,-5.89883 -16.38987,-8.6989 -1.39944,-1.38278 -0.6902,-3.84489 -0.6902,-5.56325 7.67193,-2.46568 -1.04482,-13.27326 8.36332,-11.87263 2.44664,-3.13565 7.67193,-4.18166 11.50135,-6.62711 3.8437,-0.6902 6.98054,0.70924 10.80758,1.75525 3.13565,4.16381 8.71794,2.4276 11.8524,5.91668 3.13684,-0.70805 6.98292,-2.44545 10.80996,-0.70805 0,-5.91906 2.78222,-9.40933 6.98054,-13.59218 0.6902,-2.4276 4.51843,-4.18047 7.65408,-5.56325 5.9381,1.38278 12.8996,1.38278 17.1003,-2.80007 2.78222,1.75406 5.22767,-1.73502 8.36332,-1.73502 3.82585,-0.70924 6.96269,0.33558 9.76276,2.09083 0.33677,-6.98292 12.54379,-1.0472 14.99043,-9.40933 2.78222,-5.58229 -7.67193,-7.67193 -6.98173,-12.56283 -1.7374,-5.58229 2.44545,-8.36332 4.53509,-12.19036 2.44545,-1.0472 5.22767,-2.44545 8.36332,-1.75525 8.02774,-2.78222 1.75406,-19.1709 14.65485,-13.23518 0,1.7374 -0.70924,3.82704 0.33558,4.18166 4.53628,0 5.23243,-5.23124 8.38236,-6.98054 1.3804,-4.87186 -1.75406,-10.80758 2.4276,-14.637 2.09083,-0.35343 3.8437,-1.04363 5.22648,-2.79888 0,-3.82704 -2.09083,-5.91668 -5.22767,-8.36332 -1.04482,1.74216 -3.82704,0.35462 -5.57634,1.0472 0,-4.18285 -2.43236,-6.96388 -3.1416,-10.80996 -2.09083,-1.04482 -3.13565,-2.78103 -2.4276,-5.22767 3.13684,-3.13565 0,-10.80758 7.3185,-9.0678 2.78222,-2.43117 7.67193,-0.69496 10.45415,-4.87781 7.3185,-4.18047 17.08007,-4.18047 22.66236,-11.8524 2.44545,0.35343 5.22767,-2.09083 7.67193,0 0.69258,4.5339 7.31969,2.77984 7.31969,6.97102"
     style="fill:#d0a650;stroke-width:1.19"
     id="path2" />
  <path
     style="fill:#ffffff;stroke-width:1.19"
     d="m 559.381,74.56979 -9.639,-29.631 -9.52,29.631 h -31.178 l 25.228,18.326 -9.639,29.631 25.109,-18.326 25.228,18.326 -9.639,-29.631 25.228,-18.326 z m 98.056,17.255 -9.639,-29.512 -9.52,29.512 H 607.1 l 25.228,18.326 -9.639,29.631 25.109,-18.326 25.228,18.326 -9.639,-29.631 25.228,-18.326 z m 93.534,34.034 -9.52,-29.512 -9.639,29.512 h -31.178 l 25.228,18.326 -9.639,29.631 25.228,-18.326 25.109,18.326 -9.639,-29.631 25.228,-18.326 z m -291.193,-51.289 -9.52,-29.631 -9.639,29.631 h -31.178 l 25.228,18.326 -9.639,29.631 25.228,-18.326 25.109,18.326 -9.639,-29.631 25.228,-18.326 z m -98.056,17.255 -9.52,-29.512 -9.639,29.512 h -31.178 l 25.228,18.326 -9.639,29.631 25.228,-18.326 25.109,18.326 -9.639,-29.631 25.228,-18.326 z m -93.534,34.034 -9.639,-29.512 -9.52,29.512 h -31.178 l 25.228,18.326 -9.639,29.631 25.109,-18.326 25.228,18.326 -9.639,-29.631 25.228,-18.326 z"
     id="path3" />
</svg>
