<?xml version="1.0" encoding="UTF-8" standalone="no"?>
<svg
   width="1000"
   height="600"
   version="1.1"
   id="svg21"
   sodipodi:docname="yt.svg"
   inkscape:version="1.3.2 (091e20e, 2023-11-25, custom)"
   xmlns:inkscape="http://www.inkscape.org/namespaces/inkscape"
   xmlns:sodipodi="http://sodipodi.sourceforge.net/DTD/sodipodi-0.dtd"
   xmlns:xlink="http://www.w3.org/1999/xlink"
   xmlns="http://www.w3.org/2000/svg"
   xmlns:svg="http://www.w3.org/2000/svg">
  <defs
     id="defs21" />
  <sodipodi:namedview
     id="namedview21"
     pagecolor="#505050"
     bordercolor="#eeeeee"
     borderopacity="1"
     inkscape:showpageshadow="0"
     inkscape:pageopacity="0"
     inkscape:pagecheckerboard="0"
     inkscape:deskcolor="#505050"
     inkscape:zoom="0.86125606"
     inkscape:cx="108.56237"
     inkscape:cy="87.662663"
     inkscape:window-width="2560"
     inkscape:window-height="1417"
     inkscape:window-x="3832"
     inkscape:window-y="313"
     inkscape:window-maximized="1"
     inkscape:current-layer="svg21" />
  <path
     fill="#ffffff"
     d="M 0,0 H 1000 V 600 H 0 Z"
     id="path1"
     style="stroke-width:1.26491" />
  <path
     fill="#d42e12"
     d="M 245.35067,106.72567 V 34.140333 h 23.668 l 15.48,55.239997 15.268,-55.239997 H 323.54 V 106.72567 H 308.53733 V 48.184333 L 292.74,106.72567 h -16.37733 l -16.008,-58.541337 v 58.541337 h -15.004 M 368.764,48.677667 357.98667,79.57367 H 379.596 L 368.76533,48.677667 m -9.29866,-14.537334 h 18.49066 l 28.05334,72.585337 h -16.8 L 383.928,91.795 H 353.76 l -5.12533,14.93067 h -16.85334 l 27.68534,-72.585337 m 89.33866,72.585337 h -16.008 V 79.67233 L 404.532,34.140333 h 19.6 L 440.77467,65.431 456.148,34.140333 h 18.28 L 448.80533,79.67367 v 27.052 m 45.54,-36.21867 c 0,7.98267 1.90267,14.192 5.70667,18.62667 3.804,4.40266 9.12133,6.60266 15.95467,6.60266 6.90266,0 12.27466,-2.2 16.11333,-6.60266 3.84,-4.43467 5.76,-10.644 5.76,-18.62667 0,-7.982667 -1.92,-14.174667 -5.76,-18.577333 -3.84,-4.434667 -9.21067,-6.653334 -16.11333,-6.653334 -6.83334,0 -12.15067,2.202667 -15.95467,6.604 C 496.248,56.283 494.34533,62.491 494.34533,70.507 m -16.324,0 c 0,-11.728 3.416,-21.024 10.24934,-27.890667 6.86666,-6.898666 16.11333,-10.346666 27.736,-10.348 11.62266,0 20.868,3.449334 27.736,10.348 6.904,6.898667 10.356,16.196 10.356,27.890667 0,11.69467 -3.45334,20.992 -10.356,27.89067 -6.86667,6.89866 -16.11334,10.348 -27.736,10.348 -11.62267,0 -20.868,-3.44934 -27.736,-10.34667 -6.83334,-6.9 -10.24934,-16.19733 -10.24934,-27.892 M 582.892,106.72567 V 47.100333 h -23.088 v -12.96 h 62.024 v 12.96 H 598.9 V 106.727 h -16.008 m 64.24267,0 V 47.100333 h -23.088 v -12.96 h 62.024 v 12.96 h -22.928 V 106.727 h -16.00934 m 48.12934,0 V 34.140333 H 751.74 v 12.616 H 711.06 V 62.227 h 37.192 v 12.41867 h -37.19333 v 18.676 h 42.58266 v 13.40266 h -58.37866"
     id="path2"
     style="stroke-width:1.33333" />
  <g
     id="a"
     transform="matrix(1.3333333,0,0,1.3333333,0,-33.333)">
    <path
       fill="#dfdfdf"
       d="m 4255,8413 c -142,-20 -249,-59 -392,-145 -46,-28 -89,-48 -97,-45 -8,3 -17,27 -21,56 -4,27 -13,58 -20,67 -20,28 -39,5 -76,-89 -17,-45 -36,-88 -41,-94 -18,-22 -42,-14 -71,22 -29,37 -73,48 -83,21 -3,-8 -1,-40 5,-72 18,-94 -11,-108 -93,-45 -71,55 -98,66 -125,52 -28,-15 -27,-36 9,-119 31,-72 33,-124 3,-82 -8,11 -45,36 -83,54 -38,19 -97,50 -132,70 -35,19 -83,42 -107,51 -44,15 -282,50 -302,43 -6,-2 27,-29 72,-61 99,-68 289,-242 289,-264 0,-13 -11,-15 -80,-9 -91,8 -89,11 -69,-84 7,-33 8,-55 2,-61 -6,-6 -37,-4 -84,6 -41,8 -77,15 -81,15 -15,0 -8,-79 13,-146 20,-63 20,-69 4,-80 -20,-15 -43,-8 -195,62 -90,42 -113,49 -162,47 -31,-1 -68,-8 -83,-16 l -28,-14 65,-70 c 77,-84 155,-196 167,-241 22,-75 -52,-88 -301,-56 -136,18 -228,15 -273,-9 -35,-18 -155,-130 -155,-145 0,-5 58,-12 129,-15 149,-6 257,-32 346,-81 84,-46 82,-56 -9,-56 -76,0 -120,-12 -160,-44 -19,-15 -19,-16 0,-37 29,-32 85,-57 154,-68 35,-6 65,-12 67,-15 2,-2 -29,-9 -69,-15 -104,-17 -250,-60 -321,-96 -64,-32 -67,-36 -80,-129 l -6,-38 32,7 c 50,11 308,17 350,8 64,-14 46,-28 -53,-40 -124,-15 -194,-29 -227,-46 l -26,-14 54,-26 c 30,-15 99,-36 154,-47 234,-48 263,-75 67,-65 -161,8 -225,2 -220,-23 5,-28 104,-76 207,-102 63,-16 39,-28 -64,-32 -93,-3 -163,-27 -192,-66 -23,-29 -9,-161 18,-178 6,-3 18,1 27,9 9,9 50,31 91,51 77,37 78,37 188,20 47,-7 88,-46 123,-118 17,-34 52,-88 78,-120 26,-32 56,-69 66,-82 19,-23 19,-24 -2,-66 -11,-24 -23,-51 -26,-60 -18,-62 -324,-41 -565,39 -96,32 -238,102 -302,149 l -49,36 v -39 c 0,-96 75,-259 150,-326 l 48,-43 -49,-94 c -61,-117 -65,-162 -18,-209 17,-18 29,-38 25,-46 -3,-8 -29,-28 -58,-44 -90,-51 -86,-46 -49,-65 18,-10 67,-20 107,-23 44,-4 79,-11 85,-19 25,-30 -27,-96 -117,-150 -15,-9 -4,-13 61,-23 44,-6 108,-12 142,-13 l 62,-2 -21,-38 c -25,-45 -72,-94 -111,-118 l -28,-18 31,-4 c 17,-3 52,-1 78,3 75,12 166,10 186,-4 31,-23 5,-75 -73,-150 l -68,-66 44,-7 c 83,-12 188,1 244,30 29,14 54,25 56,23 14,-15 -40,-160 -75,-200 -8,-9 -12,-20 -8,-25 4,-4 58,-7 119,-7 87,0 120,4 146,18 19,9 36,17 38,17 1,0 3,-21 3,-47 0,-34 -7,-55 -26,-80 l -25,-33 h 28 c 65,1 219,51 274,91 36,25 39,24 39,-13 -1,-42 -23,-103 -46,-129 -21,-24 -16,-24 82,1 88,22 166,53 206,81 37,27 41,24 33,-18 -9,-50 -28,-79 -66,-99 -17,-8 -29,-18 -26,-20 8,-9 219,24 267,41 24,8 52,23 62,32 17,15 18,15 18,-9 0,-14 -11,-46 -25,-72 -14,-26 -25,-49 -25,-52 0,-8 55,9 119,37 35,16 76,29 91,29 34,0 74,-31 105,-80 17,-27 43,-47 93,-72 l 70,-35 4,41 c 5,37 170,471 186,488 7,7 208,-131 402,-275 117,-87 386,-354 465,-462 217,-296 288,-500 289,-830 0,-182 -12,-279 -54,-454 -92,-374 -306,-730 -549,-910 -160,-119 -349,-159 -701,-148 -426,13 -692,102 -889,295 -146,144 -242,332 -282,552 -6,36 -11,124 -11,195 0,244 55,413 175,542 104,111 215,172 357,194 135,21 289,-24 384,-111 66,-61 69,-90 17,-194 -46,-93 -50,-117 -21,-146 27,-27 83,-26 147,5 93,43 139,148 131,294 -8,131 -69,216 -207,286 -134,67 -202,80 -411,79 -173,0 -191,-2 -275,-28 -168,-51 -270,-119 -349,-229 -180,-254 -279,-690 -221,-972 45,-215 165,-448 332,-640 282,-326 656,-475 1193,-475 398,0 680,76 960,258 312,202 514,464 685,887 46,116 64,188 72,288 3,49 11,89 20,99 40,46 54,177 29,262 l -15,48 31,27 c 55,49 49,155 -13,226 l -29,33 33,33 c 43,44 62,127 54,237 -5,76 -39,182 -58,182 -20,0 -7,27 22,44 45,27 69,72 69,132 0,121 -50,307 -87,321 -15,6 -18,33 -4,33 23,0 54,94 59,179 6,107 -15,189 -59,233 l -29,30 31,64 c 27,55 31,71 26,117 -11,106 -128,302 -216,360 -32,21 -41,33 -41,56 0,67 -55,166 -147,265 -96,102 -127,148 -147,220 -14,46 -29,70 -71,112 -49,49 -153,111 -215,127 -13,3 -20,13 -20,29 -1,64 -80,171 -150,203 -35,16 -40,22 -40,51 0,41 -34,82 -114,137 -76,51 -196,82 -381,98 -389,32 -562,97 -745,279 -111,110 -154,184 -194,330 -33,121 -35,234 -5,322 21,62 88,188 100,188 4,0 -2,-33 -13,-72 -26,-95 -29,-251 -5,-327 33,-106 98,-185 189,-232 62,-32 92,-39 198,-49 110,-10 184,-32 220,-65 54,-50 175,-56 291,-16 30,11 86,23 125,26 l 72,7 93,-65 c 96,-66 511,-300 584,-329 133,-53 283,-16 346,85 51,81 5,157 -212,353 -176,158 -218,212 -241,304 -10,39 -42,124 -73,188 -73,157 -74,184 -5,256 27,29 57,69 65,90 16,37 23,121 12,133 -6,5 -73,-9 -108,-22 -11,-4 -13,11 -10,80 2,54 -2,97 -9,116 l -13,30 -36,-35 c -37,-36 -64,-45 -76,-26 -3,5 -10,34 -15,64 -10,63 -50,161 -60,149 -4,-4 -13,-25 -20,-45 -6,-21 -15,-38 -20,-38 -4,0 -11,24 -15,53 -11,86 -23,122 -50,147 -22,21 -28,22 -35,10 -5,-8 -10,-26 -10,-40 0,-44 -28,-133 -65,-208 -72,-144 -140,-130 -280,55 -80,106 -92,139 -70,187 53,112 275,263 484,328 39,12 71,25 71,29 0,19 -50,64 -94,85 -50,23 -108,28 -191,17 z"
       transform="matrix(0.03574,0,0,-0.03574,68.5,445.48)"
       id="path3" />
    <path
       d="m 245.469,297.449 c 2.27,-1.261 -8.741,-1.063 -11.069,-1.038 -1.576,0.475 -3.024,1.162 -3.508,0.937 -0.484,-0.224 -0.095,-1.984 0.396,-4.976 1.733,-1.422 3.528,-2.185 5.438,-2.741 1.821,-0.646 3.428,-1.07 5.506,-1.733 1.992,-0.238 2.637,-0.147 5.472,-0.765 -3.325,-0.53 -5.686,-0.123 -8.993,-3.606 1.337,-0.803 1.863,-1.82 3.47,-2.206 1.607,-0.344 2.172,-0.29 3.492,-0.29 2.53,0 3.27,0.463 1.577,-0.758 -1.694,-1.22 -4.927,-2.606 -8.557,-3.266 -3.19,-0.55 -8.03,-0.567 -10.362,-0.66 1.07,-2.117 3.062,-3.354 4.272,-4.674 1.98,-2.42 6.53,-2.366 13.35,-1.266 10.78,1.32 11.44,0 4.62,-8.58 l -4.335,-4.77 2.75,-1.092 3.003,-0.081 c 2.86,0.66 6.502,2.863 8.702,3.743 3.52,1.54 3.33,0.09 2.23,-2.77 -0.88,-2.42 -0.243,-2.407 -0.584,-5.085 1.76,0 6.4,1.76 6.4,0.66 0,-1.32 -0.608,-2.203 -0.95,-5.239 1.54,0 4.993,0.414 5.753,0.25 0.76,-0.164 -1.057,-1.914 -2.907,-3.573 l -4.762,-4.268 -6.727,-4.535 9.98,1.25 c 3.08,0 7.954,3.345 10.539,4.693 1.292,0.674 2.519,0.882 3.295,1.697 1.778,0.66 -0.358,2.421 0.93,0.8 0.657,-1.18 -2.385,-4.67 -1.972,-6.493 2.181,-4.16 7.07,3.455 8.133,2.225 2.035,-0.22 -0.996,-4.958 0.618,-5.919 2.303,-1.371 3.614,3.338 4.854,2.506 1.24,-0.833 2.043,-6.87 4.003,-7.628 1.96,-0.758 1.161,6.16 2.481,5.226 2.86,-1.98 9.05,-5.866 14.142,-6.57 2.545,-0.353 5.511,-1.085 8.022,-0.632 2.512,0.452 4.881,2.179 5.564,4.287 -3.382,0.987 -3.916,1.078 -7.436,2.618 -3.52,1.32 -8.14,4.62 -10.34,6.82 -3.74,4.18 -3.74,4.62 0.44,9.9 5.28,7.26 7.92,6.82 10.78,-1.54 1.21,-3.3 0.833,-5.397 1.407,-6.52 0.332,0.242 1.536,0.74 2.26,1.874 0.635,0.99 1.2,5.37 1.194,6.513 0.53,-0.322 1.024,-1.76 1.52,-4.067 1.322,2.55 1.7,3.388 2.14,4.598 0.44,1.21 0.059,4.422 1.38,4.422 0.77,0 1.704,-1.487 3.343,-2.935 1.416,2.658 1.214,5.98 0.649,8.498 1.108,-0.362 3.381,-1.136 4.485,-1.24 0.344,1.326 0.322,2.92 0.054,4.126 -0.803,1.725 -1.052,3.21 -2.812,4.53 -2.64,2.2 -2.64,3.52 0,8.58 1.76,3.3 3.08,7.04 3.08,8.58 0,1.32 3.96,5.72 9.02,9.9 6.16,5.28 8.36,8.58 7.48,11 -2.2,5.28 -9.02,6.82 -15.18,3.52 -2.86,-1.54 -9.24,-5.06 -14.3,-7.92 -3.41,-1.87 -5.655,-3.908 -7.735,-5.216 -3.342,-0.045 -5.889,0.263 -8.765,1.697 -4.4,0.66 -7.92,0.22 -8.8,-1.1 -0.88,-1.32 -4.4,-2.42 -7.7,-2.42 -8.8,0 -14.561,-5.82 -14.906,-14.342 -0.132,-3.703 0.368,-6.043 1.597,-10.212 -4.857,7.67 -5.142,11.207 -3.398,17.974 2.101,9.446 11.867,21.54 33.427,21.76 4.07,0.11 7.48,1.264 11.329,2.035 2.46,1.457 7.709,4.247 6.643,7.745 3.992,1.064 6.732,5.203 6.79,8.598 9.8,2.933 11.098,8.682 11.098,9.782 0,1.1 2.42,4.4 5.5,7.26 3.08,2.86 5.121,7.484 4.742,10.034 3.41,1.76 4.632,4.33 6.706,7.126 1.758,3.569 4.685,8.01 0.367,13.348 4.521,1.676 4.323,14.477 0.713,16.331 2.656,1.825 3.226,6.278 3.792,12.34 0.025,2.04 -0.634,3.867 -3.873,5.48 0.863,0.436 1.55,1.63 2.019,3.193 0.47,1.563 0.723,3.494 0.72,5.399 -0.002,1.905 -0.26,3.785 -0.815,5.248 -0.555,1.463 -1.403,2.508 -2.587,2.743 4.037,2.636 3.94,9.609 0.46,10.328 1.949,3.56 1.337,10.556 -1.15,11.93 0.544,7.18 -2.3,12.275 -3.806,16.07 -3.012,7.59 -6.979,14.025 -11.953,19.429 -4.974,5.403 -10.955,9.776 -17.995,13.24 -15.4,7.48 -41.58,7.26 -56.54,-0.44 -13.2,-6.82 -23.98,-21.56 -26.18,-35.86 -1.98,-12.76 4.18,-31.46 12.1,-37.4 12.54,-9.24 36.96,-6.16 40.48,5.06 1.76,5.72 -0.44,12.54 -4.62,14.08 -5.5,1.98 -7.7,-0.66 -4.62,-5.5 2.2,-3.74 1.98,-4.84 -1.54,-7.7 -10.56,-7.7 -26.4,-0.88 -30.14,12.76 -4.62,17.6 2.64,35.42 17.38,42.68 12.32,6.16 37.18,6.6 45.98,1.1 17.16,-10.78 27.94,-40.04 22.66,-62.04 -2.86,-12.1 -14.74,-27.06 -30.14,-37.4 l -9.68,-6.82 -3.52,9.02 c -1.87,4.73 -3.52,7.357 -3.075,10.346 -2.858,-1.744 -3.89,-1.429 -5.862,-3.286 -0.88,-1.98 -2.503,-4.2 -4.923,-3.54 -0.55,0.166 -3.885,2.129 -7.205,2.581 1.144,-2.673 2.303,-2.75 2.167,-5.415 -1.78,2.27 -6.88,2.552 -13.492,3.252 5.173,-2.961 4.191,-3.54 4.576,-6.03 -1.98,2.24 -6.922,3.636 -12.637,4.664 2.947,-3.079 2.443,-4.026 2.732,-6.829 -2.898,2.851 -9.956,4.444 -12.574,4.276 2.293,-2.667 2.33,-2.632 2.285,-5.931 -2.573,2.02 -7.328,1.735 -11.581,0.982 2.621,-2.806 3.424,-5.902 3.574,-8.255 -3.448,3.206 -9.095,2.515 -12.785,1.903 2.89,-2.564 4.641,-4.007 5.539,-5.616 1.046,-2.021 0.341,-2.681 -3.179,-2.681 -2.42,0 -4.094,1.551 -7.666,0.184 5.179,-2.048 6.585,-8.665 7.748,-8.799 4.633,-0.532 -6.445,8.432 3.472,6.544 2.477,-0.355 3.604,-0.312 5.441,-0.207 -1.287,1.89 -1.507,1.969 -2.615,3.378 -1.245,1.835 -1.493,4.226 -4.439,5.773 2.5,0.015 4.545,0.243 6.2,-1.071 1.655,-1.314 1.674,-1.85 5.164,-4.362 0.476,2.631 0.241,3.158 -0.017,4.902 -0.446,3.018 -1.029,3.812 -1.937,6.199 3.79,0.878 6.119,-0.317 6.78,-1.952 0.99,-1.034 2.404,-3.666 4.347,-4.198 0.789,2.371 -0.05,2.463 -0.34,4.472 -0.827,2.259 -1.032,3.867 -1.74,5.987 3.846,-1.095 6.208,-2.482 8.642,-5.41 4.18,-3.52 4.18,-3.52 2.86,1.1 -0.544,3.08 -0.412,3.768 -1.53,6.427 3.704,-0.646 7.14,-2.357 9.01,-5.327 2.2,-3.3 2.42,-3.08 1.54,1.1 -0.124,2.812 0.364,3.267 -0.328,5.987 3.362,-0.711 5.828,-2.027 7.588,-4.887 2.2,-3.3 2.42,-3.08 1.54,1.1 -0.55,2.64 0.46,3.184 -1.098,5.939 3.799,-1.62 3.958,-1.21 5.278,-3.3 0.88,-1.76 2.33,0.59 4.09,3.89 1.43,2.53 2.592,2.724 3.658,2.848 0.261,-1.93 1.052,-3.217 2.812,-7.397 1.98,-4.84 3.3,-8.8 3.08,-9.24 -0.44,-0.22 -5.94,-3.08 -12.1,-6.38 -6.38,-3.08 -11.66,-6.6 -11.66,-7.92 0,-1.1 -1.1,-1.98 -2.64,-1.98 -3.52,0 -12.76,-8.8 -12.76,-12.1 0,-1.54 -1.98,-5.28 -4.4,-8.14 -3.3,-4.4 -7.04,-5.94 -16.94,-7.04 -6.999,-1.237 -12.871,-3.08 -16.5,-5.06 -1.816,-0.95 -2.064,-1.754 -3.459,-2.295 -0.055,1.155 0.709,4.715 3.239,7.135 1.43,1.54 2.895,1.874 4.196,2.678 -1.224,1.245 -2.106,3.592 -3.096,5.242 -2.2,3.52 -2.2,4.62 0.88,5.72 2.86,1.1 2.86,1.76 0.44,3.3 -0.99,0.77 -2.48,1.3 -3.524,1.972 1.635,0.406 2.913,0.509 6.033,-0.289 3.96,-2.397 4.263,-1.69 2.551,0.737 -1.403,2.117 -2.351,4.481 -4.391,6.124 2.335,0.124 3.401,-0.294 5.491,-1.064 2.2,-0.88 4.062,-1.47 2.55,1.945 -1.436,2.387 -0.643,-1.284 -2.006,1.865 -2.349,0.454 -7.683,-0.106 -11.584,-1.049 3.51,-1.925 4.794,-3.43 5.234,-4.42 0.66,-1.98 -1.234,-1.861 -2.994,-1.861 -0.77,0 -3.315,0.308 -5.217,-1.803 1.58,-0.86 3.982,-1.638 5.428,-3.452 -4.51,-2.6 -1.89,-6.542 -0.838,-8.414 0.87,-1.496 0.941,-2.288 1.952,-3.841 -1.388,-0.101 -3.415,-2.73 -4.405,-4.49 -2.09,-3.74 -2.997,-7.294 -2.694,-10.351 2.981,2.3 4.137,3.042 5.994,3.964 3.152,1.885 9.917,4.256 15.894,5.16 5.977,0.904 11.166,0.787 11.166,-1.413 0,-2.2 2.392,-2.018 0.662,-3.777 -3.239,-3.293 -4.982,-6.25 -5.991,-9.164 -1.886,-2.283 -4.267,-2.451 -7.423,-2.484 -1.674,0.895 -4.94,1.675 -6.448,3.853 -1.418,-0.678 -2.149,-5.047 -1.43,-7.127 0.308,-0.893 3.951,-2.604 6.006,-2.676 2.054,-0.072 3.145,0.513 4.954,-0.254 -2.13,-0.613 -3.294,-0.577 -5.513,-1.683 -1.973,-0.984 -3.886,-1.568 -3.627,-2.82 0.32,-1.55 11.233,-0.494 12.773,-0.439 1.265,0.055 -2.386,-1.46 -5.076,-1.8 -1.765,-0.632 -5.7,-0.385 -9.68,-3.339 2.937,-1.887 4.484,-1.093 6.892,-1.982 m 9.065,0.362 c -0.886,1.865 -11.493,1.358 -8.543,2.128 0,0 8.193,1.51 10.904,3.838 0.48,2.06 -2.38,2.973 -2.38,2.973 l -10.39,-1.107 c -0.11,1.422 10.1,1.959 9.75,4.095 -0.115,0.693 0.565,1.998 -2.834,1.61 -3.094,0.143 -6.89,-0.172 -9.188,1.016 -1.67,0.833 -1.87,2.683 -1.346,4.268 1.511,-1.232 3.916,-2.246 5.236,-2.686 2.818,-0.365 4.857,0.214 6.762,1.029 1.905,0.815 3.229,1.687 4.885,4.946 1.1,2.86 4.62,6.16 7.92,7.48 3.52,1.1 9.144,4.113 11.66,7.48 2.79,3.732 4.87,6.757 11.59,10.638 6.6,5.94 0.9,3.829 3.726,4.263 7.575,1.163 11.744,2.919 13.064,4.679 1.54,1.76 5.06,3.74 7.92,4.4 3.08,0.88 5.5,2.42 5.5,3.52 0,1.32 1.54,2.2 3.52,2.2 4.84,0 26.4,22.66 30.36,31.68 7.48,16.94 8.8,23.1 8.8,39.6 -0.22,11 -1.54,20.9 -3.52,25.52 -4.4,10.34 -23.163,31.115 -28.223,31.115 -0.894,0.253 -0.533,0.161 -1.594,0.333 -0.486,0.726 -0.764,0.796 -2.483,1.599 -2.498,1.248 -5.7,1.858 -9.606,1.97 -3.906,0.111 -8.514,-0.276 -13.825,-1.02 -5.31,-0.744 -10.518,-1.846 -14.397,-3.133 -3.88,-1.287 -5.307,-1.984 -6.432,-3.17 -0.336,-0.356 -1.23,-0.817 -1.08,-2.363 -0.798,0.727 -2.653,0.555 -4.87,-1.45 -1.8,-1.63 -3.532,-2.389 -2.63,-4.026 -2.38,-0.249 -2.787,-1.26 -4.662,-3.897 -1.234,-1.734 -2.636,-3.267 -2.036,-5.72 -1.64,0.326 -2.452,-1.968 -3.391,-4.141 -0.824,-1.905 -2.292,-4.5 -0.465,-5.44 -2.1,0.053 -1.706,-2.515 -1.962,-4.301 -0.255,-1.786 -0.782,-4.56 1.336,-5.045 -2.17,-0.685 -1.24,-2.926 -0.914,-4.936 0.458,-2.82 0.717,-4.345 2.517,-4.718 -1.609,-0.719 -0.628,-3.365 0.433,-6.975 0.85,-2.894 2.798,-3.95 5.04,-3.47 -2.144,-1.635 1.772,-4.304 2.614,-5.006 2.338,-1.952 4.997,-2.677 5.519,-1.408 -0.225,-2.375 8.068,-2.585 11.24,-2.227 3.173,0.358 5.96,1.789 8.93,4.209 4.62,3.74 4.84,4.84 2.42,8.8 -2.86,5.06 -0.66,6.16 3.52,1.98 4.4,-4.4 3.08,-9.9 -3.3,-14.96 -4.84,-3.96 -8.14,-4.62 -16.5,-3.96 -14.74,1.54 -20.68,6.16 -24.86,19.8 -6.6,22.66 2.42,45.1 22.22,54.78 8.8,4.18 14.08,5.28 28.38,5.28 20.9,-0.22 33.88,-5.28 45.98,-18.7 7.48,-8.14 15.84,-29.406 13.2,-33.366 -4.294,-1.827 0,-1.834 1.32,-1.834 1.76,0 2.42,-9.116 -0.856,-10.773 6.539,0.025 3.076,-8.146 -0.86,-9.754 3.524,-0.084 5.268,-3.53 5.373,-7.176 0.104,-3.646 -1.43,-7.491 -4.461,-8.373 -2.285,-0.665 -0.181,-1.273 1.964,-1.76 2.558,-0.582 3.541,-0.964 3.226,-5.521 -0.38,-2.987 -1.43,-7.979 -3.595,-8.899 -2.228,-0.947 -5.698,-1.222 -7.633,-1.396 2.35,-0.757 4.59,-1.197 6.403,-1.348 3.96,-1.65 5.295,-9.659 1.735,-11.901 -3.561,-2.243 -12.523,2.165 -12.994,0.346 1.747,-1.912 7.16,-2.383 9.564,-4.13 2.942,-2.893 5.655,-5.655 0.815,-12.475 -2.42,-3.74 -2.035,-4.667 -4.837,-5.7 -3.714,-0.15 -11.68,4.85 -17.774,4.655 2.791,-2.323 12.284,-4.187 15.313,-6.384 3.029,-2.196 0.73,-5.608 -2.382,-9.511 -3.74,-3.3 -5.28,-3.52 -10.12,-1.32 -3.3,1.32 -8.523,2.694 -14.183,3.641 2.197,-2.267 12.203,-4.741 14.403,-6.501 4.18,-3.08 4.18,-4.372 0.22,-8.772 l -5.924,-2.435 -6.616,3.507 c -4.84,2.2 -12.33,4.811 -12.33,4.151 0,-0.44 6.83,-3.491 10.35,-5.471 3.74,-1.98 6.018,-4.84 6.018,-6.38 0,-5.5 -5.075,-6.23 -12.853,-0.81 -3.96,2.31 -13.846,5.325 -14.437,4.213 -0.732,-1.379 6.63,-2.729 10.272,-4.503 3.616,-2.063 10.407,-5.446 10.407,-7.206 -0.893,-2.984 -4.907,-5.114 -22.287,-7.094 -12.98,-1.54 -19.8,-5.72 -25.52,-15.18 -7.04,-11.44 -5.72,-21.34 3.74,-30.36 l 7.92,-7.48 -4.62,7.04 c -8.58,12.32 -4.4,27.06 7.7,27.06 2.86,0 7.04,1.1 9.24,2.64 3.08,1.76 5.761,1.38 8.347,0.618 l 4.205,-1.238 1.457,-0.314 -6.089,-4.126 c -6.82,-3.3 -9.68,-9.68 -5.94,-13.42 1.32,-1.32 1.76,0 1.1,3.52 -0.88,4.18 0,6.16 3.08,7.26 2.2,1.1 6.6,3.52 9.46,5.72 9.46,6.82 22.22,14.74 23.54,14.74 0.66,0 -0.44,-2.2 -2.86,-5.06 -2.42,-2.64 -1.1,-2.2 2.86,1.54 5.94,5.28 7.7,5.94 10.56,3.52 4.84,-3.96 4.18,-5.72 -4.18,-11 -5.06,-2.86 -8.58,-7.48 -10.34,-12.76 -1.32,-4.4 -3.52,-9.24 -4.4,-10.56 -1.32,-1.54 -0.66,-3.52 1.32,-5.28 1.87,-1.54 3.74,-5.117 3.54,-6.427 -0.868,0.164 -1.528,0.407 -2.44,0.927 -1.1,0.66 -2.2,-0.22 -2.2,-2.2 0,-0.99 0.762,-4.74 0.556,-5.662 -0.52,0.955 -2.096,3.132 -2.756,3.462 -1.1,0.66 -2.42,0 -2.42,-1.54 -0.33,-3.19 -0.74,-4.123 -1.013,-5.624 -0.451,0.82 -2.73,4.109 -3.763,4.898 0.878,-2.428 0.184,-10.223 -0.193,-10.947 -0.065,2.088 -1.242,5.8 -1.596,7.142 -2.336,3.294 -2.904,4.013 -5.533,4.81 -2.228,0.083 -3.302,-0.83 -6.382,-4.46 -3.08,-3.74 -4.964,-6.542 -5.143,-8.448 0,-1.98 6.527,-9.811 14.256,-12.757 3.274,-1.19 3.718,-1.527 5.727,-2.063 -0.547,-0.123 -1.35,-0.887 -3.738,-1.333 -1.25,-0.233 -6.316,-0.216 -9.585,1.336 -2.923,0.938 -9.68,3.824 -12.76,6.904 -1.67,0.281 0.225,-5.339 -1.725,-4.528 -1.95,0.812 -1.178,6.665 -2.824,7.543 -2.468,1.316 -2.866,-3.006 -3.966,-3.006 -1.1,0.11 0.886,5.127 -1.157,6.296 -1.337,0.766 -5.968,-4.919 -6.518,-4.039 -0.406,0.687 3.576,5.388 2.502,6.086 -1.326,1.045 -1.197,2.443 -4.13,1.282 -2.404,-1.212 -13.02,-7.877 -15.754,-7.686 2.537,1.664 4.51,3.687 7.261,6.2 4.4,4.62 5.644,5.196 2.124,5.732 -3.27,-0.536 -4.078,-1.525 -5.692,-0.433 -0.807,0.545 0.738,4.71 -0.355,5.377 -1.093,0.666 -4.846,-0.799 -5.265,-0.366 -1.677,1.733 1.307,4.055 0.317,6.585 -1.32,3.74 -1.98,3.74 -6.38,0.66 -3.52,-2.53 -8.02,-4.34 -8.154,-3.383 -0.178,1.258 0.894,1.843 2.874,4.703 6.38,9.02 4.62,10.78 -7.92,9.46 0,0 -10.212,-2.98 -13.27,1.689 3.02,-0.567 10.259,0.873 12.19,1.71 1.045,0.454 3.309,1.81 5.264,3.364 0.977,0.777 0.412,1.387 -0.18,3.105 -2.289,0.825 -4.782,1.328 -7.482,1.177 8.165,3.288 7.434,0.57 10.394,2.221 -2.126,3.508 -3.818,3.248 -11.09,4.266 -1.802,0.861 -3.543,1.268 -5.523,1.818 -2.035,0.55 -3.294,2.128 -2.791,2.308 0.502,0.18 2.498,-0.324 4.74,-0.545 2.63,0.034 1.269,0.011 7.162,0.618 2.755,0.672 3.988,2.695 3.455,3.798 z"
       transform="translate(-98.734,-81.609)"
       id="path4" />
    <path
       d="m 323.901,276.313 c 0,1.285 -0.747,2.327 -1.668,2.327 -0.92,0 -1.668,-1.042 -1.668,-2.327 0,-1.285 0.747,-2.327 1.668,-2.327 0.898,0 1.635,0.992 1.667,2.245"
       transform="translate(-98.734,-81.609)"
       id="path5" />
    <path
       fill="none"
       stroke="#000000"
       stroke-width="1.7"
       d="m 228.519,196.421 c -1.056,2.672 -4.157,4.012 -6.926,2.993 -2.77,-1.018 -4.159,-4.01 -3.103,-6.681 1.056,-2.672 4.157,-4.012 6.926,-2.993 2.766,1.017 4.156,4.002 3.107,6.672"
       id="path6" />
    <path
       fill="none"
       stroke="#000000"
       stroke-width="1.7"
       d="m 209.11,187.76 c 6.945,-3.663 16.541,2.02 16.541,2.02"
       id="path7" />
    <g
       fill="#dfdfdf"
       id="g8">
      <path
         d="m 255.781,332.439 c -0.248,-1.18 0.29,-1.767 2.2,-2.992 2.358,0.292 6.454,1.97 9.05,4.269 4.422,3.916 5.093,5.375 7.586,8.727 -1.017,2.013 -1.678,2.448 -3.607,4.325 -1.958,1.282 -3.117,2.06 -4.447,2.697 -1.062,-3.293 -2.354,-4.92 -5.287,-8.704 -1.371,-2.092 -5.426,-3.685 -7.482,-5.234 0.444,-1.638 1.257,-1.767 1.987,-3.088 z m 16.541,15.531 c 2.025,-1.307 2.562,-3.156 3.968,-4.002 1.852,0.797 1.37,1.026 4.377,2.5 3.232,2.044 2.063,1.588 4.556,4.94 -1.017,2.013 -1.552,2.953 -3.101,5.082 -1.706,1.535 -1.729,2.693 -3.311,4.591 -2.957,-0.767 -4.88,-1.89 -7.18,-4.537 -1.625,-1.966 -3.533,-2.043 -4.326,-5.36 2.085,-1.386 3.782,-2.02 5.017,-3.214 z m 11.491,9.344 c 1.52,-2.064 1.805,-3.534 3.084,-5.012 2.231,0.292 4.023,0.647 6.65,1.49 3.611,0.78 4.084,1.967 5.945,3.93 -1.017,2.013 -1.173,4.594 -1.965,8.239 -0.57,2.545 -1.097,3.955 -2.175,6.232 -2.956,-1.272 -5.131,-2.395 -7.685,-4.032 -2.635,-1.587 -5.174,-3.18 -6.346,-6.497 1.328,-2.395 1.257,-3.155 2.492,-4.35 z m 15.783,9.849 c 0.636,-2.822 0.542,-5.807 1.948,-8.043 2.231,0.293 1.876,1.026 4.503,1.87 2.727,1.159 4.589,1.461 6.071,4.434 -2.406,2.266 -2.94,1.943 -3.733,5.587 -0.569,2.545 0.545,6.102 -0.533,8.38 -2.956,-1.273 -3.237,-2.017 -5.791,-3.654 -2.635,-1.587 -2.9,-0.907 -4.578,-2.582 0.949,-2.901 1.509,-4.292 2.113,-5.992 z m 10.859,4.04 c 1.267,-2.57 1.805,-3.156 3.21,-4.381 2.61,1.05 3.77,0.395 6.272,2.627 2.348,1.664 7.24,5.755 9.101,7.717 -1.774,0.877 -3.43,1.483 -5.5,4.199 -2.07,2.716 -1.476,3.45 -2.68,6.485 -2.199,-1.399 -3.237,-2.143 -5.287,-3.4 -2.129,-1.967 -3.026,-2.55 -5.462,-4.225 0.95,-2.774 -0.006,-6.817 0.346,-9.022 z m 14.521,11.87 c 1.267,-2.57 3.068,-3.03 4.473,-4.255 2.61,1.05 3.644,3.299 6.145,5.532 3.106,3.432 3.578,3.986 5.06,6.075 -2.279,1.13 -2.925,1.23 -4.995,3.062 -2.14,1.896 -2.738,1.935 -4.194,3.581 -1.568,-1.777 -1.344,-1.637 -3.393,-3.653 -2.13,-1.966 -2.395,-1.917 -5.21,-4.476 0.823,-2.901 1.257,-3.914 2.114,-5.866 z m 12.122,12.248 c 1.52,-1.18 2.941,-2.02 4.22,-2.866 1.222,1.429 2.381,2.541 3.115,4.143 1.212,1.538 1.306,1.84 2.283,3.929 -2.28,1.13 -2.042,0.851 -3.733,1.673 -1.644,0.8 -2.36,1.682 -4.321,2.95 -1.567,-1.778 -0.46,-1.133 -2.508,-3.149 -0.993,-1.208 -1.512,-2.17 -3.063,-3.719 2.211,-1.89 2.52,-2.145 4.007,-2.961 z m 5.998,8.902 c 1.836,-0.865 2.626,-1.325 4.158,-1.982 1.031,1.934 1.307,2.226 2.04,3.827 0.455,1.348 0.801,2.03 1.59,4.245 -1.712,0.624 -2.232,0.788 -3.355,1.294 -1.147,0.517 -2.36,1.24 -3.69,2.002 -1.251,-2.345 -1.217,-1.827 -1.94,-3.21 -0.677,-1.335 -1.133,-1.729 -2.368,-3.53 1.832,-1.386 2.393,-1.893 3.565,-2.646 z m 4.554,9.107 c 1.836,-0.865 1.822,-0.655 3.354,-1.312 1.032,1.934 1.754,5.35 2.309,7.443 0.41,2.375 0.756,5.02 0.874,7.905 -1.622,0.312 -0.952,0.12 -2.372,0.402 -1.411,0.28 -1.487,0.334 -2.996,0.962 -0.448,-3.15 -0.836,-4.886 -1.652,-7.037 -0.543,-1.513 -1.668,-4.943 -2.904,-6.744 1.565,-0.85 2.215,-0.866 3.387,-1.619 z m 3.973,16.294 c 0.567,-0.132 1.174,-0.233 2.372,-0.33 0.228,4.121 0.236,5.127 0.121,9.228 -0.304,4.295 -0.36,7.789 -1.045,12.147 -0.775,-0.224 -0.953,-0.46 -2.372,-0.536 -1.417,-0.076 -1.333,-0.1 -2.797,-0.007 1.025,-4.087 1.06,-5.488 1.363,-10.354 0.127,-3.79 0.117,-5.015 -0.188,-9.283 1.118,-0.359 1.597,-0.604 2.546,-0.865 z m -1.964,22.5 c 0.567,-0.132 1.978,0.035 3.176,-0.062 -1.29,7.246 -2.354,9.948 -4.79,14.407 -2.894,4.206 -5.717,8.146 -9.438,12.147 -0.46,-0.32 -0.774,-0.74 -1.211,-1.162 -0.422,-0.406 -0.777,-0.53 -1.28,-0.988 4.24,-5.605 4.989,-7.274 7.525,-12.408 2.09,-5.129 2.438,-6.533 3.829,-12.14 1.118,0.445 1.24,0.468 2.189,0.206 z m -13.304,26.518 c 0.725,0.468 0.37,0.303 1.48,1.01 -1.737,2.067 -2.98,3.251 -6.219,6.46 -2.447,1.795 -3.18,3.361 -8.19,5.381 -0.596,-0.67 -0.621,-0.758 -0.91,-1.187 -0.28,-0.414 -0.399,-0.52 -0.713,-1.324 2.543,-0.783 5.552,-2.557 7.462,-4.477 3.162,-2.719 3.957,-3.944 6.062,-6.605 0.487,0.319 0.71,0.436 1.028,0.742 z m -15.815,12.406 c 0.398,0.63 0.247,0.813 0.621,1.556 -2.272,1.353 -2.78,1.468 -8.353,2.555 -6.85,0.231 -9.735,0.068 -12.952,-0.365 0.117,-0.857 0.127,-0.936 0.165,-1.746 0.036,-0.766 -0.063,-0.516 -0.003,-1.336 6.405,0.425 8.35,-0.004 10.884,-0.168 4.559,-0.425 7.995,-1.497 9.078,-1.772 0.487,0.887 0.432,0.654 0.56,1.276 z m -22.366,2.143 c -0.137,0.676 -0.11,0.456 -0.316,1.422 -5.308,-0.923 -5.414,-0.809 -11.836,-2.132 -4.84,-1.376 -6.437,-2.42 -9.43,-4.014 -0.219,-1.057 -0.158,-0.93 0.082,-1.37 0.317,-0.58 0.078,-0.395 0.796,-0.832 3.559,2.137 7.371,2.764 9.414,3.45 4.87,1.002 7.28,1.27 11.4,1.709 -0.05,0.931 -0.06,1.145 -0.11,1.767 z m -22.947,-7.455 c -0.806,0.61 -0.866,0.893 -1.879,0.752 -1.653,-0.23 -1.866,-0.698 -3.454,-1.994 -0.778,-0.636 -1.988,-1.867 -1.747,-2.308 0.317,-0.58 0.852,-2.324 1.555,-1.188 0.614,0.994 3.234,2.53 4.786,3.596 1.235,0.848 1.052,0.905 0.739,1.142 z m -7.946,-5.447 c -0.94,0.297 -0.704,0.483 -1.477,-0.185 -0.627,-0.543 -1.063,-1.457 -2.204,-2.798 -0.651,-0.766 -1.954,-2.97 -2.015,-3.469 -0.174,-1.428 0.622,-2.371 1.242,-1.188 1.106,2.11 2.52,4.316 4.474,6.096 1.108,1.009 0.355,1.426 -0.02,1.544 z m -5.714,-9.196 c -0.94,0.297 -0.838,0.483 -1.61,-0.185 -0.627,-0.543 -1.254,-1.953 -1.982,-3.557 -0.428,-0.944 -1.38,-2.357 -1.033,-3.29 0.386,-1.036 1.739,-1.746 2.09,-0.474 0.636,2.296 0.845,2.326 1.93,5.025 0.418,1.04 0.98,2.363 0.605,2.481 z m -3.081,-9.777 c -0.368,0.707 -1.046,0.622 -2.147,0.127 -0.886,-0.398 -0.554,-1.8 -0.686,-3.557 -0.07,-0.944 -0.264,-1.821 -0.006,-3.066 0.224,-1.083 2.266,-1.475 2.403,-0.162 0.1,0.957 -0.042,1.514 0.144,3.15 0.3,2.644 0.58,2.956 0.292,3.508 z m -0.803,-9.241 c -0.214,0.597 -1.09,0.398 -1.61,-0.23 -0.62,-0.75 0.115,-2.069 0.161,-3.557 0.03,-0.946 0.293,-1.899 0.798,-3.066 0.313,-0.726 1.444,-0.812 1.465,0.508 0.01,0.644 -0.172,1.48 -0.348,2.881 -0.192,1.538 -0.124,2.51 -0.466,3.464 z m 1.562,-9.33 c -0.214,0.597 -1.168,0.031 -1.343,-0.766 -0.263,-1.195 0.567,-2.512 0.92,-3.958 0.298,-1.214 0.845,-2.658 1.825,-3.469 0.715,-0.591 2.008,-0.917 1.733,0.374 -0.213,1.001 -1.645,2.91 -2.133,4.534 -0.446,1.484 -0.66,2.331 -1.002,3.285 z m 5.848,-10.67 c -0.634,0.024 -1.37,0.202 -1.164,-0.587 0.183,-0.705 0.867,-1.052 2.17,-2.084 0.667,-0.527 1.838,-1.491 2.494,-1.816 0.757,-0.375 2.242,-0.844 1.734,0.374 -0.213,0.51 -0.887,0.722 -2.089,1.542 -1.28,0.874 -2.714,2.554 -3.145,2.571 z"
         transform="translate(-98.734,-81.609)"
         id="path8" />
    </g>
  </g>
  <use
     xlink:href="#a"
     transform="matrix(-1,0,0,1,1000,0)"
     id="use8" />
  <path
     d="m 371.80667,516.54967 c -17.30667,5.86666 -42.24,17.89333 -52.21334,24.64 -3.22666,2.34666 -2.93333,4.98666 2.05334,14.96 3.52,6.45333 7.04,12.02666 7.62666,12.02666 0.88,0 10.56,-4.4 21.41334,-9.97333 10.85333,-5.28 24.72,-12.24667 31.09333,-13.49333 4.87333,-0.95334 9.324,-1.856 12.07867,-3 1.10933,2.69333 0.42666,1.192 2.448,5.424 2.90666,6.08 1.09733,5.94266 6.12133,7.60666 5.29867,1.75467 18.36533,-5.33733 18.36533,-5.33733 15.25334,-5.28 23.76,-5.86667 78.61334,-5.86667 54.85333,0 63.36,0.58667 78.61333,6.16 0,0 12.27467,4.176 13.85333,4.68 1.56667,0.50267 2.39467,0.89867 4.05067,0.50134 1.51067,-0.36267 3.084,-2.67334 3.78,-4.068 0,0 3.37333,-8.10534 4.24,-10.94934 2.92133,1.40667 8.24933,3.236 13.38267,4.84934 6.16,2.05333 19.94666,8.21333 30.8,13.49333 10.85333,5.57333 20.53333,9.97333 21.41333,9.97333 0.58667,0 4.10667,-5.57333 7.62667,-12.02666 7.04,-13.78667 7.62666,-12.61334 -17.89334,-25.81334 -34.02666,-17.6 -68.05333,-25.52 -71.28,-17.01333 -0.58666,1.61333 -1.084,2.55733 -1.89066,4.64933 -3.40934,-0.78533 -12.336,-2.88933 -21.28267,-4.356 -27.57333,-4.98666 -103.25333,-4.98666 -130.82667,0 -8.94666,1.46667 -14.99466,3.91334 -20.05066,5.316 -2.86134,-5.72533 -2.26267,-3.448 -2.84934,-5.06133 -2.34666,-5.86667 -17.87333,-4.948 -39.28666,2.67867 z"
     id="path9"
     style="stroke-width:1.33333" />
  <g
     fill="#dfdfdf"
     id="g13"
     transform="matrix(1.3333333,0,0,1.3333333,0,-33.333)">
    <path
       d="m 299.75,409.25 c -9.447,0.297 -27.166,6.347 -45.094,15.469 -15.4,7.7 -15.836,8.141 -11.656,16.281 1.76,3.74 3.749,7.06 3.969,7.5 0.005,0.003 0.025,0.03 0.031,0.031 0.82,0.216 7.677,-2.825 15.562,-6.875 8.36,-4.18 18.943,-8.774 23.563,-10.094 3.41,-1.21 5.888,-1.32 8.937,-1.968 -0.556,-3.241 0.133,-0.446 -2.03,-6.625 2.495,-6.259 7.316,-11.667 12,-12.844 -1.205,-0.643 -2.99,-0.947 -5.282,-0.875 z"
       id="path10" />
    <path
       d="m 372.031,409.406 c -18.237,0.174 -36.17,1.065 -44.375,2.344 -13.97,2.31 -21.503,6.738 -26.688,9.437 -1.896,1.416 -3.56,1.76 -5.625,3 1.637,3.708 1.573,5.94 2.97,9.188 1.468,3.417 0.734,5.577 4.75,5.687 4.014,0.11 12.75,-4.219 12.75,-4.219 11.22,-3.96 17.83,-4.406 58.75,-4.406 41.14,0 49.428,1.31 58.937,4.625 6.893,2.373 9.735,4.246 12.5,3.75 1.42,-0.255 2.16,-2.306 3.156,-4.781 1.357,-3.372 2.994,-7.9 3.813,-13.563 -2.163,-0.315 -1.208,0.79 -4.157,-0.53 -6.367,-2.855 -7.578,-3.072 -11.781,-4.844 -4.988,-2.105 -9.654,-2.109 -16.969,-3.47 -8.58,-1.32 -27.65,-1.836 -46.281,-2.218 -0.589,0.004 -1.162,-0.006 -1.75,0 z"
       id="path11" />
    <path
       d="m 448.469,409.438 c -1.242,0.01 -2.297,0.144 -3.188,0.406 1.92,1.207 4.162,3.223 5.407,3.875 4.62,2.42 4.601,4.657 4.156,8.813 -0.206,1.92 -0.382,2.652 -1.125,5.281 1.724,0.778 5.98,2.54 9.5,3.75 4.4,1.32 14.953,5.914 23.313,10.094 7.758,3.984 14.533,6.985 15.53,6.875 0.02,-0.003 0.05,-0.026 0.063,-0.031 h 0.031 c 0.22,-0.44 2.21,-3.76 3.97,-7.5 2.86,-5.5 3.074,-7.46 0.874,-9.22 -4.84,-3.96 -24.42,-13.003 -38.5,-17.843 -9.013,-3.004 -15.642,-4.535 -20.031,-4.5 z"
       id="path12" />
    <path
       d="m 442.938,411.219 a 3.843,3.843 0 0 0 -0.406,0.531 c -0.667,0.813 -0.761,1.683 -0.969,2.688 1.458,0.515 6.376,3.579 8.906,3.469 0.542,0 0.97,-0.024 1.219,-0.125 l 0.063,-0.032 c 0.006,-0.003 0.025,-0.028 0.03,-0.03 0.022,-0.015 0.048,-0.047 0.063,-0.063 0.007,-0.008 0.026,-0.023 0.031,-0.032 0.003,-0.005 0.03,-0.026 0.032,-0.03 0.002,-0.006 -10e-4,-0.027 0,-0.032 v -0.094 a 0.635,0.635 0 0 0 -0.125,-0.25 c -0.353,-0.458 -1.425,-1.199 -3.532,-2.375 -1.486,-0.83 -3.892,-2.466 -5.312,-3.625 z m -136.594,0.062 c -1.445,1.1 -3.895,2.618 -5.469,3.688 -2.827,1.92 -3.248,3.41 -4.469,6.093 a 1.325,1.325 0 0 0 -0.062,0.156 v 0.032 h 0.062 c 0.4,-0.183 2.539,-2.11 7.657,-3.844 4.39,-1.638 2.054,-0.837 4.78,-1.969 -1.796,-2.776 -2.03,-2.965 -2.25,-3.625 a 2.687,2.687 0 0 0 -0.25,-0.531 z"
       id="path13" />
  </g>
  <path
     d="m 433.88,523.74967 0.672,5.80933 3.98133,-0.46133 c 1.436,-0.16534 2.42134,-0.516 2.95734,-1.04934 0.544,-0.53466 0.75333,-1.34666 0.62666,-2.432 -0.11733,-1.016 -0.48,-1.70266 -1.08666,-2.056 -0.608,-0.35466 -1.664,-0.44533 -3.16934,-0.27066 l -3.98133,0.46 m -2.51467,-1.75067 6.64667,-0.768 c 1.08,-0.12533 1.876,-0.16933 2.392,-0.13467 0.52267,0.0333 0.99867,0.136 1.42667,0.30667 0.768,0.312 1.37866,0.8 1.83333,1.46267 0.46133,0.66266 0.74667,1.47066 0.85867,2.42666 0.10666,0.92267 0,1.73734 -0.32,2.44267 -0.32,0.69733 -0.85067,1.27733 -1.592,1.74133 0.68933,0.108 1.2,0.368 1.52933,0.77867 0.33867,0.40933 0.604,1.13733 0.796,2.184 l 0.52533,2.80667 c 0.108,0.6 0.23867,1.04533 0.38934,1.33466 a 1.2,1.2 0 0 0 0.62,0.56534 l 0.056,0.47733 -2.68934,0.31067 c -0.25866,-0.332 -0.49866,-1.07867 -0.72,-2.24 a 1.8,1.8 0 0 1 -0.007,-0.0707 l -0.4,-2.21867 c -0.20934,-1.14 -0.54,-1.856 -0.99067,-2.15066 -0.45067,-0.29334 -1.49867,-0.34534 -3.144,-0.15467 l -3.772,0.436 0.84933,7.34667 -2.30533,0.26533 -1.98267,-17.14667 m 20.36267,8.048 5.364,-0.39333 -3.22133,-7.40133 -2.14267,7.79466 m -4.45333,7.51867 5.12933,-17.68533 2.58267,-0.18934 7.68,16.744 -2.536,0.18667 -2.2,-5.00933 -6.78,0.49733 -1.45734,5.27733 -2.41866,0.17734 m 23.72,-1.50134 -0.50667,-17.25333 2.34267,-0.0693 0.208,7.08666 8.94933,-0.26266 -0.208,-7.08667 2.35467,-0.0693 0.50666,17.25333 -2.356,0.0707 -0.236,-8.08267 -8.94933,0.26267 0.236,8.08133 -2.34267,0.0693 m 20.37334,-7.62933 5.38,-0.028 -2.71067,-7.604 -2.668,7.632 m -4.956,7.19733 6.32133,-17.29466 2.59067,-0.0133 6.52133,17.228 -2.54266,0.0133 -1.85334,-5.14667 -6.79733,0.0347 -1.81333,5.16666 -2.42667,0.012 m 29.39467,-6.26266 2.27333,0.04 c -0.13867,2.09866 -0.88533,3.76133 -2.24267,4.988 -1.34933,1.21866 -3.08,1.81066 -5.188,1.77333 -2.42933,-0.04 -4.32,-0.90267 -5.67466,-2.58133 -1.34667,-1.68 -1.99467,-3.98534 -1.944,-6.91467 0.0467,-2.70267 0.80666,-4.83333 2.28,-6.39467 1.472,-1.568 3.43466,-2.332 5.88666,-2.28933 1.95334,0.0333 3.54134,0.56533 4.76667,1.59467 1.232,1.02933 1.93067,2.416 2.096,4.16133 l -2.296,-0.04 c -0.2,-1.144 -0.704,-2.02667 -1.51333,-2.65067 -0.80934,-0.632 -1.87067,-0.95866 -3.18267,-0.98133 -1.74933,-0.0307 -3.12,0.56 -4.10933,1.76933 -0.98134,1.20934 -1.49334,2.932 -1.53067,5.16534 -0.036,2.10933 0.43467,3.80933 1.412,5.1 0.98667,1.29066 2.30667,1.94933 3.96267,1.97866 1.41333,0.024 2.57733,-0.39333 3.49066,-1.25333 0.92134,-0.86667 1.42667,-2.02133 1.51334,-3.46667 m 4.928,6.53334 0.79066,-17.24267 2.34134,0.10667 -0.324,7.08266 8.94266,0.41067 0.32534,-7.08267 2.352,0.10667 -0.78934,17.244 -2.35333,-0.10667 0.37067,-8.07866 -8.944,-0.40934 -0.37067,8.07734 -2.34133,-0.10667 m 17.36,0.89867 1.19466,-17.22 2.33867,0.16133 -1.19467,17.22133 -2.33866,-0.16266 m 9.89333,-14.54 -0.56533,5.82 3.98933,0.388 c 1.43867,0.14 2.476,0.005 3.112,-0.404 0.644,-0.408 1.01867,-1.156 1.12533,-2.24534 0.0987,-1.01866 -0.11066,-1.76533 -0.63066,-2.24 -0.51867,-0.47333 -1.53334,-0.784 -3.04,-0.93066 l -3.98934,-0.388 m -2.09066,-2.24 6.66,0.648 c 1.08,0.104 1.86933,0.228 2.36533,0.37066 0.50533,0.144 0.948,0.344 1.332,0.6 0.684,0.46667 1.17867,1.07334 1.48267,1.81734 0.312,0.744 0.42266,1.59466 0.32933,2.55066 -0.0907,0.92534 -0.36533,1.7 -0.82667,2.32134 -0.46,0.61466 -1.10133,1.07066 -1.92266,1.368 0.65066,0.252 1.09333,0.61333 1.332,1.08266 0.244,0.472 0.34933,1.24 0.31733,2.304 l -0.0773,2.85334 c -0.02,0.61066 0.0133,1.072 0.1,1.38666 0.096,0.308 0.25866,0.536 0.48666,0.684 l -0.0467,0.47734 -2.69334,-0.26134 c -0.18266,-0.37866 -0.26,-1.16 -0.232,-2.34266 l 0.007,-0.0693 0.0787,-2.25333 c 0.0333,-1.15867 -0.13867,-1.928 -0.51734,-2.31067 -0.37866,-0.38266 -1.39333,-0.65333 -3.04,-0.81333 l -3.78,-0.368 -0.716,7.36 -2.30933,-0.22533 1.67067,-17.18 m 14.22533,18.86133 2.24933,-17.11467 2.32267,0.30534 -2.248,17.11466 -2.324,-0.30666"
     id="path14"
     style="stroke-width:1.33333" />
  <path
     fill="#171796"
     stroke="#000000"
     stroke-width="2"
     d="m 399.62,180.739 c -7.94,4.13333 -12.07467,10.22533 -12.72667,18.492 -0.65333,8.92 1.30534,15.228 6.41734,20.01467 2.284,2.284 4.24266,4.46 4.24266,5.004 0,0.43466 -1.74,2.61066 -3.916,4.67733 -5.112,4.78667 -8.04933,11.09467 -8.04933,17.62133 0,6.744 2.06667,11.42134 7.61333,17.51334 l 4.56934,5.00266 -5.004,5.548 c -10.00667,11.09467 -9.68,23.82267 0.76133,34.37334 l 4.46,4.67733 h 204.82667 l 5.00266,-5.32933 c 9.68,-10.33334 9.68,-21.53867 0.108,-33.39467 l -4.89333,-5.98267 4.568,-5.44 c 10.00667,-11.964 9.78933,-22.95066 -0.544,-34.48 -4.67733,-5.11333 -4.78667,-6.09333 -1.088,-8.48533 5.98267,-4.02533 9.68,-17.62133 6.96133,-25.88933 -4.024,-12.4 -21.32,-20.66667 -31.87066,-15.228 -1.95867,0.97866 -5.87467,3.69866 -8.81067,5.98266 -2.93733,2.39334 -5.65733,4.24267 -6.2,4.24267 -0.436,0 -3.04667,-1.95867 -5.76533,-4.352 -10.552,-9.02667 -22.952,-8.37467 -33.504,1.84933 l -4.024,3.916 -5.33067,-4.89466 c -10.768,-10.116 -24.256,-9.68 -35.24267,0.97866 l -4.02533,3.916 -4.35067,-3.916 c -6.41733,-5.87333 -10.66,-7.61333 -18.05733,-7.72266 -7.06933,-0.10934 -13.70533,2.828 -18.92667,8.484 l -2.61066,2.72 -5.656,-4.78667 C 418.112,176.931 409.736,175.40833 399.62133,180.739 Z"
     id="path15" />
  <path
     fill="#d42e12"
     stroke="#000000"
     stroke-width="2"
     d="m 394.33867,320.04567 c -10.66,11.856 -10.55067,23.93066 0.21733,35.896 l 4.02533,4.46 -4.56933,5.004 c -2.50133,2.72 -5.22133,6.63466 -6.09067,8.59333 -3.48,8.37467 -0.87066,19.57867 5.98267,25.99733 4.13333,4.024 4.24133,5.656 0.32533,10.44267 -1.74,2.06667 -3.80666,5.00267 -4.568,6.52533 -8.15866,15.44667 4.02534,34.80934 22.08134,34.80934 7.17866,0 12.61866,-2.28534 17.51333,-7.50667 3.916,-4.13333 5.98267,-4.24133 9.46267,-0.54267 5.11333,5.656 11.85733,9.136 17.51333,9.136 6.636,0 10.76933,-2.06666 17.51333,-8.484 l 5.112,-5.004 4.67734,5.11334 c 10.116,10.87733 20.34133,11.204 33.93866,0.86933 l 5.54667,-4.13333 4.78667,4.35066 c 5.98266,5.22134 10.44266,7.288 16.316,7.288 5.87466,0 10.22533,-2.284 17.07866,-9.02666 l 5.656,-5.44 4.35067,3.916 c 8.376,7.50666 12.94533,9.89866 19.036,9.89866 6.30933,0 10.76933,-2.06666 17.07733,-7.72266 5.87467,-5.33067 9.02934,-11.53067 8.26667,-16.64267 -0.76,-5.548 -5.764,-15.664 -9.46267,-19.14533 l -3.15466,-3.04534 4.89466,-5.54666 c 10.66,-12.51067 10.76934,-22.19067 0.21867,-34.592 l -4.352,-5.22134 4.56933,-5.54666 c 10.224,-12.07467 10.116,-23.27867 -0.21733,-34.26534 l -5.548,-5.764 -101.81333,0.108 -101.81467,0.10934 z"
     id="path16" />
  <path
     d="m 371.80667,305.93633 c 0,0 0.0667,101.77734 0.27466,140.64134 -0.34666,5.75066 3.02267,7.144 7.95734,10.97333 7.98133,6.19333 16.496,12.67733 62.168,9.13333 41.94666,0.29334 50.74666,3.52 55.14666,20.24 l 2.34667,9.38667 2.05333,-9.38667 c 3.22667,-16.13333 13.18134,-19.94666 53.66134,-20.24 52.112,0.78267 56.44,-2.488 63.90666,-8.85866 0,0 5.456,-4.2 6.86267,-8.232 1.57867,-4.52667 0.82267,-8.22667 0.82267,-8.22667 V 163.375 h -255.2 v 142.56 z m 252.26666,1.17334 0.548,117.42533 c 0,15.808 1.13867,20.656 -0.548,23.668 -1.68666,3.012 -5.10133,7.02133 -5.10133,7.02133 -7.92,7.92 -14.62667,9.54 -50.74667,9.07334 -23.33333,0.064 -35.93866,0.70933 -54.32,3.61066 -2.88533,2.59067 -10.81333,2.36 -14.49866,17.43867 -4.78267,-15.07867 -8.19467,-14.42267 -8.19467,-14.42267 -19.52933,-8.19466 -28.264,-6.56266 -59.56533,-6.88133 -20.24,2.93333 -41.94667,-0.88 -50.16,-9.09333 0,0 -1.22267,0.332 -6.74667,-6.19867 0.0533,-28.604 0,-141.64 0,-141.64 v -140.8 h 249.33333 v 140.8 z"
     id="path17"
     style="stroke-width:1.33333" />
  <path
     fill="#ffffff"
     d="m 464.11733,227.479 c -7.72133,15.976 -8.048,23.14533 -1.632,35.94667 5.004,9.83066 10.876,16.07733 18.924,20.072 20.98934,10.548 47.852,2.76533 58.4,-16.89734 6.52667,-12.08533 5.76534,-32.26 -1.41333,-41.06666 l -1.95733,-2.356 -1.84934,6.964 c -2.60933,9.93333 -5.22,14.952 -10.44,20.27733 -9.78666,9.93333 -23.27333,12.18667 -37.19333,6.04267 C 476.18933,251.64833 471.83867,244.991 467.81467,226.455 l -0.97867,-4.608 z"
     id="path18"
     style="stroke-width:1.33333" />
  <path
     d="m 461.56667,228.49633 c -6.45334,14.66667 -5.86667,22 2.05333,37.54667 20.53333,40.48 81.54667,25.22667 81.25333,-20.53333 -0.29333,-7.33334 -0.0667,-12.10934 -4.10666,-20.24 C 538.86,221.89633 538.044,220.895 536.684,218.855 c -0.53733,2.20933 -1.344,6.12133 -2.95733,12.57467 -5.86667,22.58666 -25.22667,33.14666 -45.46667,24.64 -11.44,-4.69334 -16.72,-12.32 -19.65333,-28.16 L 466.55333,217.643 Z m 19.94666,29.04 c 14.08,9.09334 35.49334,6.16 46.34667,-5.86666 4.4,-4.98667 7.10267,-12.76667 8.21333,-16.72 1.096,-3.90134 1.31067,-4.48534 1.97334,-8.38267 1.70133,3.77733 2.63733,5.76267 3.44,11.60533 1.18666,8.63067 -0.72,15.844 -2.77334,21.124 -10.26666,26.98667 -43.12,35.2 -63.65333,15.84 -9.97333,-9.09333 -17.89333,-26.96266 -13.56133,-38.49333 1.536,-4.088 1.88666,-6.41867 3.896,-10.73467 0.36266,2.948 0.572,6.988 2.62533,13.148 2.64,8.50667 7.33333,14.66667 13.49333,18.48 z"
     id="path19"
     style="stroke-width:1.33333" />
  <g
     id="b"
     stroke="#000000"
     transform="matrix(1.3333333,0,0,1.3333333,0,-33.333)">
    <path
       fill="#e9d315"
       stroke-width="1.625"
       d="m 337.418,297.577 c -0.147,4.759 0.082,6.936 0.834,10.464 -2.395,-2.312 -4.808,-3.927 -8.127,-5.853 -4.227,-2.454 -9.565,-4.796 -11.378,-1.802 -1.745,2.881 3.26,6.827 7.178,9.038 4.284,2.417 6.754,2.748 9.541,3.841 -2.36,1.248 -5.58,2.086 -9.147,4.375 -3.501,2.246 -8.735,6.893 -6.75,9.86 2.021,3.02 7.86,-0.374 11.152,-2.577 2.742,-1.835 6.37,-4.732 7.781,-6.214 -0.279,2.128 -1.122,6.37 -1.06,10.425 0.077,4.926 0.758,10.438 4.426,10.428 3.745,-0.009 4.541,-6.5 4.482,-10.889 -0.061,-4.586 -0.585,-7.828 -1.036,-10.091 a 76.419,76.419 0 0 0 7.297,6.571 c 2.664,2.1 9.187,5.21 11.14,2.23 1.99,-3.032 -1.107,-6.047 -6.796,-9.657 -3.987,-2.53 -6.81,-3.396 -9.408,-4.472 2.627,-1.077 5.498,-1.353 9.697,-3.905 6.229,-3.786 8.868,-6.318 6.959,-9.578 -1.856,-3.169 -5.607,-1.438 -11.303,2.186 -3.052,1.942 -5.908,4.515 -7.843,6.366 0.442,-2.913 0.918,-7.206 0.882,-10.387 -0.055,-4.728 -1.09,-10.84 -4.31,-10.858 -3.22,-0.019 -4.05,5.294 -4.211,10.499 z"
       id="path20" />
    <path
       fill="#ffffff"
       stroke-width="1.86843"
       d="m 346.662,313.299 a 5.011,5.011 0 1 1 0,-0.006"
       id="path21" />
  </g>
  <use
     xlink:href="#b"
     x="65.629997"
     id="use21" />
</svg>
